<svg width="24" height="24" viewBox="0 0 24 24" fill="none" xmlns="http://www.w3.org/2000/svg">
<rect width="24" height="24" rx="4" fill="#F2F92F"/>
<path d="M8.48771 16.5737L4.69471 12.7807C4.50611 12.5986 4.25351 12.4978 3.99131 12.5C3.72911 12.5023 3.4783 12.6075 3.29289 12.7929C3.10749 12.9783 3.00232 13.2291 3.00004 13.4913C2.99776 13.7535 3.09855 14.0061 3.28071 14.1947L7.78071 18.6947C7.96824 18.8822 8.22255 18.9875 8.48771 18.9875C8.75288 18.9875 9.00718 18.8822 9.19471 18.6947L20.1947 7.69471C20.3769 7.50611 20.4777 7.25351 20.4754 6.99131C20.4731 6.72911 20.3679 6.4783 20.1825 6.29289C19.9971 6.10749 19.7463 6.00232 19.4841 6.00004C19.2219 5.99776 18.9693 6.09855 18.7807 6.28071L8.48771 16.5737Z" fill="#181920"/>
<path fill-rule="evenodd" clip-rule="evenodd" d="M20 2H4C2.89543 2 2 2.89543 2 4V20C2 21.1046 2.89543 22 4 22H20C21.1046 22 22 21.1046 22 20V4C22 2.89543 21.1046 2 20 2ZM4 0C1.79086 0 0 1.79086 0 4V20C0 22.2091 1.79086 24 4 24H20C22.2091 24 24 22.2091 24 20V4C24 1.79086 22.2091 0 20 0H4Z" fill="#181920"/>
</svg>
