<svg width="28" height="28" viewBox="0 0 28 28" fill="none" xmlns="http://www.w3.org/2000/svg">
<circle cx="14" cy="14" r="14" fill="black"/>
<path d="M17.6756 9.19333C17.1439 8.58637 16.8509 7.80689 16.8511 7H14.4478V16.6444C14.4292 17.1664 14.2089 17.6607 13.8332 18.0234C13.4574 18.3861 12.9556 18.5888 12.4333 18.5889C11.3289 18.5889 10.4111 17.6867 10.4111 16.5667C10.4111 15.2289 11.7022 14.2256 13.0322 14.6378V12.18C10.3489 11.8222 8 13.9067 8 16.5667C8 19.1567 10.1467 21 12.4256 21C14.8678 21 16.8511 19.0167 16.8511 16.5667V11.6744C17.8257 12.3743 18.9957 12.7498 20.1956 12.7478V10.3444C20.1956 10.3444 18.7333 10.4144 17.6756 9.19333Z" fill="white"/>
</svg>
