<svg width="282" height="307" viewBox="0 0 282 307" fill="none" xmlns="http://www.w3.org/2000/svg">
<path d="M47.2105 18.9258C46.7285 15.7929 44.0174 13.624 43.5354 10.4308C43.4752 9.88859 43.1137 9.40661 43.0534 8.92463C42.8124 7.1172 42.0895 5.06878 44.1379 3.86382C46.0056 2.77936 47.9937 2.65887 49.9217 3.98432C51.4881 5.06878 53.0545 6.09299 54.5607 7.1172L54.7415 6.93646C54.6812 6.39423 54.621 5.852 54.5005 5.37002C54.0185 3.86382 53.5365 2.35763 54.9222 1.15268C56.3682 -0.112525 58.0551 -0.0522774 59.742 0.5502C63.6581 1.9359 66.3693 4.88803 68.7792 7.96067C73.7195 14.1662 78.4188 20.6127 83.1181 27.0592C86.9138 32.1802 91.2516 36.8193 95.2882 41.7596C95.6497 42.1814 96.1919 43.2658 96.9751 42.6031C97.6981 42.0006 96.7944 41.3379 96.4931 40.7957C93.3 35.6144 90.4684 30.1921 88.6609 24.348C88.1187 22.6009 87.6367 20.9139 87.8175 19.1065C87.9982 16.6966 89.0827 15.9736 91.3721 16.8171C92.5168 17.2388 93.6012 17.781 94.8062 18.263C95.2882 16.6363 94.4447 15.4314 94.0832 14.2264C93.6012 12.4792 93.782 10.9128 95.1677 9.82835C96.7944 8.62339 98.1801 9.82835 99.5055 10.7923C100.289 11.3948 100.951 12.0575 101.795 12.8407C102.578 12.0575 102.096 11.1538 102.217 10.3706C102.337 8.98488 102.819 7.59918 104.265 7.17745C105.591 6.75571 106.675 7.41844 107.518 8.56314C108.543 10.0091 109.627 11.455 110.651 12.901C111.073 13.4432 111.194 14.2867 112.158 14.1662L112.218 13.9854C112.218 11.9973 113.182 10.6116 115.11 10.3706C117.218 10.1296 118.303 11.5755 119.026 13.383C120.652 17.4798 120.893 21.9381 122.339 26.0952C125.111 33.9877 128.244 41.6994 133.184 48.4471C137.16 53.8694 142.583 57.7855 148.427 61.0389C149.571 61.7016 151.439 61.3401 152.885 61.1594C162.525 59.8942 169.875 64.1115 176.141 70.8593C177.285 72.1245 177.828 72.4257 179.334 71.281C184.937 67.0637 190.841 63.3283 197.288 60.6172C202.168 58.5687 207.469 57.906 212.651 56.8818C218.736 55.6768 224.881 55.7371 230.966 56.5203C231.267 57.0023 231.629 57.1228 231.99 56.6408C240.606 58.2675 248.378 61.4004 252.655 69.7748C254.945 74.2934 255.366 79.2337 254.704 84.174C253.137 95.9826 247.173 105.923 240.726 115.684C235.063 124.299 227.713 131.047 219.579 137.192C209.036 145.205 196.986 149.844 184.575 153.64C174.936 156.652 164.754 156.17 154.753 156.411C142.763 156.712 130.774 156.411 118.905 158.64C105.771 161.11 92.9988 164.484 80.889 170.569C74.0207 174.003 67.273 177.377 61.6097 182.619C58.2961 185.691 55.6452 189.306 53.7173 193.403C53.175 194.548 53.2955 195.211 54.5005 195.994C63.1762 201.296 72.0326 206.115 82.1542 208.043C87.3355 209.007 92.5168 209.851 97.8186 210.031C109.627 210.393 121.436 210.815 133.063 213.104C133.545 214.008 134.329 213.646 135.052 213.586C151.981 217.924 168.007 223.647 180.237 237.143C185.78 243.288 190.781 249.674 193.552 257.446C196.203 264.857 196.444 272.508 193.733 280.039C192.347 283.835 192.166 287.932 190.841 291.667C189.395 295.583 187.829 299.499 185.84 303.174C185.178 304.44 184.334 305.645 183.129 306.428C182.406 306.91 181.503 307.332 180.659 306.609C179.816 305.886 180.117 304.982 180.539 304.138C182.949 299.319 183.25 294.258 182.286 289.016C181.985 287.39 181.503 287.209 180.298 288.173C175.839 291.968 170.839 294.921 165.898 298.053C163.91 299.319 161.621 299.379 159.693 300.524C159.091 300.885 158.428 300.644 158.127 299.921C157.886 299.258 158.307 298.957 158.729 298.596C167.766 291.004 168.128 277.69 160.054 268.411C151.74 258.892 141.197 252.928 129.81 248.168C123.846 245.698 117.64 244.071 111.495 242.143C101.433 238.95 91.3118 235.938 81.13 233.167C76.7319 231.962 72.2133 231.239 67.8755 229.853C62.4532 228.106 56.7899 227.564 51.6086 224.551C36.1852 215.695 29.4374 198.464 31.3654 182.257C32.2088 174.907 34.0765 167.738 37.1492 161.171C39.8603 155.387 44.0776 150.386 49.018 146.109C60.706 135.987 74.563 131.047 89.5044 128.998C99.0838 127.733 108.723 128.215 118.363 129.541C120.652 129.842 122.942 129.902 125.231 130.264C130.473 131.107 135.654 132.372 141.016 132.493C152.403 132.794 163.549 131.95 174.393 128.516C185.539 124.962 195.299 118.997 204.517 111.767C211.988 105.923 218.133 99.0552 223.616 91.5242C226.628 87.4274 228.496 82.6678 230.062 77.7878C230.303 77.0648 230.123 76.884 229.4 77.2455C211.747 79.4747 197.589 87.9094 186.563 101.766C182.708 106.586 178.731 111.346 176.864 117.371C176.442 118.756 176.08 120.142 175.659 121.467C175.418 122.19 175.177 122.913 174.333 122.913C173.429 122.913 173.128 122.311 172.947 121.528C171.381 115.623 170.176 109.659 170.598 103.514C170.658 102.429 170.718 101.405 170.839 99.6577C168.128 102.068 165.718 103.935 163.609 106.104C159.874 109.96 156.379 114.117 153.608 118.756C153.126 119.539 152.825 120.564 151.68 120.142C150.656 119.72 150.837 118.696 151.078 117.792C153.427 108.996 156.259 100.501 161.681 93.0304C163.73 90.1988 165.537 87.2467 167.706 84.0535C161.199 84.1138 155.235 85.379 149.391 87.1864C139.45 90.259 130.232 95.1391 120.351 98.4527C114.748 100.32 108.904 101.345 103.181 102.67C94.746 104.658 86.3113 106.887 77.6356 108.092C68.7189 109.297 59.8023 110.02 51.0061 107.791C48.4155 107.128 45.8248 106.225 43.4149 105.14C41.246 104.116 39.4386 102.309 39.3181 99.8384C39.1976 97.6093 41.246 96.6453 43.1739 95.6813C41.969 93.9944 39.1373 92.9702 40.282 90.4398C41.1255 88.5721 42.9932 87.6684 45.1621 87.7286C45.5838 87.7286 46.1261 87.9696 46.3068 87.4274C46.4273 87.0057 46.0658 86.8852 45.7043 86.7647C44.3789 86.4032 43.6559 85.2585 43.0534 84.2343C41.0653 81.0411 42.5714 78.6915 47.1503 77.9083C46.849 77.1853 46.4875 76.5226 46.2466 75.7996C45.7043 73.9319 46.367 72.727 48.295 72.1245C50.1024 71.5822 51.7893 72.004 53.5968 72.3052C60.5855 73.5102 67.1525 76.2213 74.0207 77.607C77.5754 78.33 81.1902 78.6312 84.8051 79.1132C85.2268 79.1132 85.7088 79.2337 85.8293 78.6312C85.8895 78.2697 85.4678 78.089 85.1666 78.0288C75.6474 70.1363 66.309 62.0631 58.0551 52.7247C49.7409 42.9043 41.7882 32.9635 34.8597 22.2996C33.715 20.5524 32.9921 18.504 31.7871 16.6966C30.6424 15.0699 30.4617 12.5997 32.2088 10.9731C34.0163 9.28612 35.9442 9.40661 38.0529 10.9128C41.3062 13.2022 43.9571 16.0941 46.7285 18.9258C46.7888 19.6487 46.9093 20.3717 47.813 20.3717C47.9335 20.3717 48.2347 20.0102 48.2347 19.8295C48.295 19.1065 47.7527 18.986 47.2105 18.9258ZM98.3608 43.7478C98.2403 43.4466 97.9993 42.9646 97.7583 43.2056C97.1559 43.6273 97.8186 43.808 98.0596 44.1093C98.4211 44.29 98.5416 44.1695 98.3608 43.7478ZM155.295 112.129C155.596 111.767 155.897 111.466 156.138 111.105C160.295 105.743 165.477 101.405 170.357 96.826C171.02 96.2236 171.622 95.0788 172.827 95.7416C173.851 96.3441 173.188 97.4285 173.128 98.2117C172.706 104.417 172.164 110.563 174.393 116.708C174.755 116.045 175.177 115.563 175.357 115.021C178.852 105.923 185.359 98.9347 191.986 92.187C197.95 86.1019 205.662 82.5473 213.193 78.812C219.579 75.6189 226.447 75.2574 233.135 73.8114C233.978 73.6307 234.882 73.8114 235.786 73.9922C243.498 75.6188 248.98 79.9567 251.691 87.5479C251.812 87.4274 251.872 87.3069 251.872 87.1262C251.932 86.5839 251.992 86.0417 252.053 85.5597C253.499 73.6307 250.607 65.196 239.039 60.6172C234.581 58.87 229.821 58.0265 224.941 57.906C208.494 57.4843 193.974 62.6656 180.84 72.3052C179.033 73.6307 178.852 74.5946 180.478 76.1611C182.949 78.4505 184.997 81.2219 186.985 83.933C187.588 84.7765 188.431 85.861 187.829 86.8249C187.106 87.9094 186.081 86.8852 185.238 86.5839C181.864 85.4392 178.49 84.3548 174.875 83.933C172.104 83.6318 169.995 84.1138 168.308 86.6442C163.187 94.1751 158.066 101.766 155.536 110.683C155.295 110.924 155.114 111.165 154.873 111.406C154.813 111.647 154.391 112.129 155.295 112.129ZM184.937 299.258C183.913 299.439 183.732 300.102 184.093 301.006C184.816 300.644 184.937 299.981 185.057 299.319C185.238 299.017 185.419 298.656 185.6 298.355C185.961 297.632 186.262 296.909 186.624 296.186C189.757 289.86 190.66 282.871 192.407 276.183C194.516 268.11 193.311 260.037 189.214 252.506C183.19 241.541 174.755 232.986 164.212 226.419C155.355 220.876 145.414 218.346 135.534 215.635C123.785 212.441 111.676 212.381 99.626 211.899C90.0466 211.538 80.7082 210.212 71.7313 206.838C65.5861 204.549 59.5613 201.657 54.139 197.801C52.6931 196.777 52.1508 197.199 51.9701 198.825C50.8856 207.983 52.3918 216.478 58.4768 223.828C59.1396 224.611 59.983 224.732 60.8265 224.973C68.237 227.262 75.7077 229.431 83.2989 231.178C97.0956 234.372 110.471 238.89 123.906 243.288C137.944 247.867 150.897 254.494 161.079 265.761C166.742 272.026 171.321 285.823 165.176 295.342C165.417 295.643 165.718 295.643 166.079 295.463C170.658 292.571 175.297 289.679 179.394 286.124C182.346 283.594 183.551 284.016 184.575 287.811C185.479 291.366 184.997 294.92 185.118 298.415C184.997 298.656 184.937 298.957 184.937 299.258ZM183.491 83.451C183.37 81.9449 182.467 81.2219 181.683 80.3784C179.755 78.2697 177.767 76.1611 175.96 73.9319C170.056 66.7624 163.007 62.3041 153.246 63.0873C148.065 63.509 142.944 63.9308 137.703 63.9308C127.882 63.8705 119.327 59.8942 110.772 55.6768C104.265 52.4837 98.4211 48.2061 93.541 42.9646C86.974 35.8554 81.2505 28.0232 75.4064 20.3114C71.4903 15.1904 68.237 9.58736 63.2967 5.30977C61.67 3.92407 60.0433 2.77937 57.9346 2.35763C56.7297 2.11664 55.7054 2.47813 56.3079 4.10481C58.4768 9.6476 59.8625 15.5519 64.0196 20.2512C66.0681 22.5406 68.1165 24.7698 69.5624 27.4809C69.9239 28.2039 70.2251 28.8666 69.5624 29.4089C68.9599 29.8908 68.3575 29.4089 67.996 28.8666C65.0438 24.4083 61.0675 20.6729 58.4768 15.9134C56.1272 11.5755 52.934 8.08116 48.5962 5.67125C47.5118 5.06878 46.4875 5.12903 45.5236 5.61101C44.5596 6.15324 44.9211 7.2377 45.0416 8.08116C45.1018 8.68364 45.2826 9.34636 45.5236 9.88859C48.3552 17.2991 53.0545 23.6251 57.2116 30.2523C57.7539 31.156 59.1396 31.879 57.9346 32.9032C56.7297 33.9274 55.9464 32.602 55.344 31.8188C53.2353 28.9871 50.8254 26.4567 48.4155 23.9866C44.7404 20.191 41.4267 15.9736 37.0287 12.9612C36.1852 12.419 35.2815 11.3948 34.197 12.3588C33.1126 13.3227 32.9318 14.8289 33.7753 15.7326C35.7032 17.781 36.1852 20.4922 37.6311 22.7214C42.8727 30.6741 48.5962 38.2653 54.862 45.3745C60.4048 51.7005 65.7668 58.2675 72.0928 63.8705C76.3102 67.6059 80.889 70.9798 84.9858 74.8959C87.938 77.7275 90.8299 79.535 94.9869 77.9083C96.0714 77.4865 97.2764 77.4263 98.3608 77.125C99.2645 76.884 100.229 76.5828 100.59 77.7878C100.951 78.9927 99.8068 78.9927 99.0838 79.2337C88.6609 82.4871 78.3586 81.2219 68.1165 78.3902C62.8749 76.884 57.7539 75.0164 52.2713 74.2934C51.0061 74.1126 49.1384 73.3294 48.777 74.8356C48.4155 76.1611 50.2832 77.0045 51.4881 77.7878C54.0185 79.3542 56.9104 79.535 59.6215 80.4387C60.465 80.7399 61.7905 81.1014 61.3687 82.3666C60.947 83.5113 59.8023 82.7883 58.9588 82.7281C58.5973 82.6678 58.2961 82.4871 57.9346 82.4268C54.38 81.7641 51.0664 80.3784 47.3913 80.1977C46.4273 80.1374 45.2826 80.0772 44.8609 81.2219C44.4391 82.3063 45.1621 83.1498 45.8851 83.8125C47.3913 85.2585 49.1987 86.2224 51.2471 86.7044C53.8378 87.3671 56.4887 87.9696 59.0793 88.7528C59.8625 88.9938 60.947 89.3553 60.5855 90.5603C60.224 91.705 59.1998 91.0423 58.5371 90.9218C55.344 90.259 52.2111 89.1143 48.8372 89.3553C46.608 89.4758 43.1739 89.1746 42.9329 91.1628C42.6919 93.2714 45.8248 94.2354 48.1745 94.7776C50.8254 95.3801 53.5365 95.0186 56.2477 95.1391C56.9104 95.1391 57.8744 94.9584 57.9949 95.9826C58.1756 97.1273 57.0911 97.2478 56.3682 97.308C54.139 97.3683 51.8496 97.4285 49.6204 97.2478C48.1142 97.1273 46.608 97.2478 45.1621 97.549C43.8366 97.8502 42.0292 97.9105 41.9087 99.7782C41.8485 101.284 42.9932 102.55 44.3186 103.032C47.7527 104.297 51.0664 105.803 54.7415 106.345C64.2004 107.731 73.5388 106.827 82.7567 104.839C96.3124 101.887 109.989 99.1757 123.243 94.8981C132.461 91.8857 140.956 87.1262 150.355 84.5355C156.861 82.7281 163.428 81.7039 170.236 81.6436C174.755 81.5231 179.033 82.5473 183.491 83.451ZM134.088 154.363C139.811 154.242 145.595 154.122 151.319 153.881C161.862 153.519 172.586 154.363 182.828 151.471C195.119 147.916 207.108 143.518 217.531 135.626C223.676 130.926 229.52 125.926 234.46 120.021C236.449 117.611 238.015 114.9 239.883 112.31C244.1 106.466 247.594 100.32 248.92 93.1509C249.884 88.0901 248.679 83.8728 244.582 80.6796C242.112 78.7517 239.581 77.0045 236.328 76.4623C232.954 75.8598 232.894 75.7393 231.93 79.1735C230.725 83.451 228.857 87.4274 226.447 91.0423C219.639 101.224 211.024 109.659 201.264 116.949C196.083 120.865 190.66 124.359 184.696 126.829C170.959 132.553 156.681 134.842 141.739 134.421C133.545 134.18 125.774 131.83 117.7 131.167C108.964 130.444 100.228 130.384 91.4926 130.685C87.3957 130.866 83.3591 131.77 79.3828 132.975C68.5985 136.228 58.2358 140.144 49.8012 148.097C42.9932 154.483 38.6553 162.074 36.1249 171.051C33.5343 180.209 32.4498 189.126 34.679 198.524C37.2696 209.309 43.6559 216.839 52.9341 222.382C53.2955 222.623 53.7775 222.744 54.2595 222.202C52.9943 219.551 51.2471 217.08 50.6446 214.068C49.4397 207.622 48.1142 201.235 50.5844 194.729C53.9583 185.812 60.4048 179.486 68.0562 174.244C72.0928 171.473 76.7319 169.967 81.0095 167.798C90.5286 163.099 100.53 159.785 110.953 157.736M127.521 152.977C123.303 152.073 122.098 150.206 121.315 145.024C121.074 143.398 121.677 141.831 122.038 140.265C123.544 134.119 128.485 132.252 133.726 135.867M143.908 61.0991C131.979 53.8694 126.195 42.4224 121.375 30.1318C119.387 25.071 118.604 19.7692 116.917 14.6482C116.616 13.7444 116.435 12.2985 115.351 12.4792C114.146 12.66 114.326 14.1059 114.146 15.1301C114.085 15.4916 114.206 15.8531 114.206 16.2146C114.326 19.2872 114.628 22.2996 115.23 25.312C115.411 26.0952 115.712 27.1194 114.567 27.3002C113.664 27.4207 113.182 26.6977 113.001 25.794C112.941 25.553 112.76 25.2518 112.76 25.0108C112.7 19.7692 109.989 15.6121 107.097 11.5153C106.494 10.6718 105.952 9.16562 104.928 9.46686C103.783 9.82835 104.386 11.3948 104.446 12.3588C104.747 17.2388 105.711 21.9381 107.88 26.3965C108.241 27.1797 108.422 28.0232 107.458 28.4449C106.314 28.9871 106.073 28.0232 105.832 27.2399C105.048 25.1313 104.265 23.0226 103.602 20.9139C102.578 17.6605 100.951 14.8289 98.4813 12.5395C97.8788 11.9973 97.0956 10.9731 96.1919 11.6358C95.5292 12.1178 96.0112 13.142 96.2522 13.9252C97.6378 18.3835 98.8428 22.8419 101.132 26.9387C101.554 27.7219 102.638 29.0474 101.072 29.7101C99.7465 30.2523 99.5055 28.7461 99.2043 27.9629C97.9993 25.1313 96.2522 22.6611 94.023 20.5524C92.9988 19.5885 91.5528 18.3233 90.2876 19.1065C89.2032 19.7692 90.1671 21.3959 90.4081 22.6009C90.5286 23.2033 90.8299 23.8058 91.0106 24.348C93.3603 31.8188 97.6378 38.205 101.674 44.772C103.663 48.0254 106.253 50.6763 109.687 52.544C113.543 54.6526 117.58 56.3998 121.616 58.0265C128.665 60.9184 136.076 62.3041 143.908 61.0991ZM131.859 153.459C131.678 153.579 131.557 153.64 131.437 153.7C131.618 153.82 131.798 154.061 132.039 154.122C132.341 154.242 132.582 154.122 132.461 153.82C132.28 153.64 131.979 153.579 131.859 153.459ZM55.2235 223.105C55.1632 223.045 55.1632 222.985 55.103 222.924C55.0427 222.924 54.9825 222.985 54.9222 222.985C54.9825 223.045 55.0427 223.165 55.103 223.226C55.1632 223.226 55.2235 223.165 55.2235 223.105Z" fill="black"/>
<path d="M6.12166 160.99C6.24216 155.267 5.1577 149.965 0.759615 145.868C-0.565835 144.603 -0.0236051 143.699 1.36209 142.976C7.8086 139.482 12.4477 134.361 14.7973 127.372C15.1588 126.167 16.0023 125.685 16.9662 126.047C18.1712 126.468 17.2072 127.372 17.0867 128.095C15.8215 134.722 16.665 140.988 21.0631 146.41C22.0873 147.736 21.7258 148.037 20.5811 148.76C15.7613 151.772 11.4837 155.327 8.9533 160.689C8.41107 161.834 8.23033 163.039 7.86884 164.244C7.6881 164.906 7.44711 165.509 6.66389 165.328C6.00117 165.147 6.18191 164.485 6.18191 164.003C6.12166 162.978 6.12166 162.014 6.12166 160.99ZM7.86884 158.219C11.1222 154.062 14.3153 150.567 18.2917 147.917C18.7134 147.615 19.2557 147.314 18.7737 146.651C15.942 142.675 15.0986 138.096 14.7371 132.915C11.1825 137.554 7.8086 141.591 3.10928 144.181C2.26581 144.603 2.44655 145.085 2.98878 145.627C6.24216 149.001 7.44711 153.218 7.86884 158.219Z" fill="black"/>
<path d="M183.009 209.55C182.888 204.368 180.599 199.85 177.105 196.054C175.598 194.427 175.297 193.584 177.587 192.62C182.346 190.572 185.178 186.595 187.768 182.378C188.25 181.595 188.793 180.51 190.058 180.932C191.383 181.414 190.359 182.498 190.48 183.282C190.962 187.8 191.925 192.078 195.962 194.97C198.432 196.777 198.372 196.958 195.842 198.585C191.082 201.717 186.684 205.212 184.997 211.056C184.816 211.779 184.274 212.502 183.491 212.14C182.286 211.658 183.129 210.574 183.009 209.55ZM184.696 206.658C187.407 202.862 190.48 200.091 193.793 197.5C194.456 197.018 194.998 196.657 194.094 195.873C190.721 193.042 189.636 188.945 188.491 184.366C185.961 188.463 183.431 191.837 179.273 193.584C178.008 194.126 178.731 194.849 179.273 195.452C181.924 198.705 183.551 202.32 184.696 206.658Z" fill="black"/>
<path d="M266.693 81.7039C267.175 77.7878 264.825 75.1369 262.596 72.4258C260.246 69.6544 260.126 69.6544 263.379 68.2084C268.319 66.0395 271.271 61.8824 274.103 57.6048C274.525 57.0024 274.525 55.7974 275.73 56.2794C276.754 56.7614 276.212 57.6651 276.031 58.3881C274.585 63.1476 274.585 67.9072 276.634 72.5463C277.236 73.8717 277.055 74.5947 275.67 75.5587C272.657 77.5468 269.223 79.294 268.56 83.4511C268.44 84.0536 268.018 84.3548 267.355 84.2343C266.572 84.0536 266.813 83.4511 266.813 82.9691C266.693 82.6076 266.693 82.1859 266.693 81.7039ZM273.079 62.8464C270.488 65.678 267.837 68.2687 264.283 69.7749C263.5 70.0761 263.56 70.6786 264.102 71.2811C266.09 73.45 267.476 75.9804 268.56 78.8723C270.428 77.1251 272.115 75.5587 274.224 74.4139C274.886 74.0525 275.007 73.5705 274.706 72.8475C273.501 69.6544 272.657 66.4612 273.079 62.8464Z" fill="black"/>
<path d="M210.422 203.886C210.241 208.284 210.241 212.08 212.048 215.695C212.53 216.719 212.289 217.382 211.024 217.924C208.012 219.249 205.301 220.936 204.457 224.491C204.337 224.973 204.035 225.515 203.373 225.455C202.59 225.395 202.409 224.792 202.288 224.129C201.686 220.695 200.782 217.321 199.336 214.128C198.734 212.863 199.035 212.14 200.3 211.538C203.855 209.851 206.144 206.899 208.012 203.585C208.434 202.862 208.735 202.079 209.819 202.5C210.663 202.922 210.361 203.766 210.422 203.886ZM203.674 221.117C205.301 219.008 206.927 217.442 209.096 216.598C209.699 216.357 209.88 215.996 209.639 215.333C208.675 212.863 208.554 210.212 208.012 207.26C206.084 209.61 204.337 211.598 201.867 212.863C201.324 213.164 201.204 213.526 201.445 214.189C202.228 216.357 202.831 218.526 203.674 221.117Z" fill="black"/>
<path d="M20.5209 167.256C20.2196 170.088 21.6053 172.076 23.955 173.281C25.8829 174.305 25.5214 174.968 23.8948 175.751C20.9426 177.197 18.7135 179.185 17.9302 182.499C17.8097 183.041 17.5085 183.764 16.665 183.643C16.0023 183.523 15.8216 182.981 15.7613 182.438C15.3998 178.643 13.9539 175.751 10.2185 173.943C8.2906 172.979 10.0378 171.955 10.9415 171.534C13.6526 170.329 15.3998 168.099 17.2675 165.93C17.9302 165.208 18.2315 163.822 19.7377 164.424C21.0029 164.967 20.7619 166.111 20.5209 167.256ZM18.2917 168.16C16.3638 169.907 14.5564 171.413 12.6887 173.04C14.7974 174.546 16.1228 176.594 17.2073 178.884C20.4004 174.727 20.4004 174.727 18.7135 169.907C18.593 169.425 18.4725 168.943 18.2917 168.16Z" fill="black"/>
<path d="M280.61 84.656C280.731 85.3187 280.369 86.5839 281.092 87.6081C282.598 89.777 282.056 91.223 279.707 92.3074C277.959 93.0906 276.875 94.7776 275.73 96.2235C275.429 96.6453 275.067 97.1875 274.465 97.0067C273.682 96.826 273.742 96.103 273.742 95.5005C273.742 93.2111 273.381 91.1025 271.392 89.536C270.428 88.8131 271.151 88.0298 271.874 87.6683C274.405 86.4634 276.634 84.8367 278.2 82.4268C278.622 81.7641 279.405 81.4026 280.068 81.7038C281.393 82.1858 280.61 83.3305 280.61 84.656ZM278.321 85.3789C277.297 86.7044 275.489 87.3069 274.525 88.5118C273.26 90.018 275.429 91.2832 275.549 92.9099C278.743 91.223 280.61 89.2348 278.321 85.3789Z" fill="black"/>
<path d="M47.211 18.9257C47.7532 18.986 48.2954 19.1065 48.2352 19.7692C48.2352 19.9499 47.9942 20.3114 47.8135 20.3114C46.8495 20.3114 46.7893 19.5885 46.729 18.8655C46.9097 18.9257 47.0302 18.9257 47.211 18.9257Z" fill="black"/>
<path d="M135.112 213.285C134.389 213.345 133.606 213.707 133.124 212.803C133.847 212.743 134.57 212.743 135.112 213.285Z" fill="black"/>
<path d="M45.8245 86.4636C46.1859 86.5239 46.6077 86.7046 46.4269 87.1264C46.2462 87.6686 45.704 87.4878 45.2822 87.4276C45.463 87.0661 45.6437 86.7649 45.8245 86.4636Z" fill="black"/>
<path d="M85.2272 77.7878C85.5887 77.8481 85.9502 77.9686 85.8899 78.3903C85.8297 78.9928 85.2875 78.8723 84.8657 78.8723C85.7092 78.6916 85.3477 78.2096 85.2272 77.7878Z" fill="black"/>
<path d="M231.93 56.3395C231.508 56.8215 231.207 56.7612 230.906 56.219C231.267 56.219 231.629 56.2792 231.93 56.3395Z" fill="black"/>
<path d="M183.491 83.4511C179.033 82.5474 174.695 81.5232 170.176 81.5232C163.368 81.5232 156.801 82.6077 150.295 84.4151C140.956 87.0057 132.401 91.7653 123.183 94.7777C109.929 99.1155 96.3127 101.766 82.6967 104.719C73.4788 106.707 64.1404 107.61 54.6816 106.225C51.0064 105.683 47.6928 104.176 44.2587 102.911C42.9333 102.429 41.7885 101.164 41.8488 99.6577C41.9693 97.7901 43.7767 97.7298 45.1022 97.4286C46.5481 97.1273 48.0543 97.0068 49.5605 97.1273C51.7897 97.3081 54.0188 97.2478 56.3082 97.1876C57.0312 97.1876 58.1157 97.0069 57.9349 95.8621C57.8144 94.8982 56.8505 95.0789 56.1878 95.0187C53.4766 94.8982 50.8257 95.2597 48.1146 94.6572C45.7649 94.115 42.5718 93.151 42.873 91.0423C43.114 89.0542 46.6084 89.4156 48.7773 89.2349C52.1512 89.0542 55.284 90.1386 58.4772 90.8013C59.2001 90.9218 60.1641 91.5846 60.5256 90.4398C60.9473 89.2349 59.8026 88.8734 59.0194 88.6324C56.4287 87.8492 53.8381 87.2467 51.1872 86.584C49.1388 86.0418 47.3313 85.138 45.8251 83.6921C45.1022 83.0294 44.3792 82.1257 44.8009 81.1015C45.2227 79.9567 46.4276 80.0772 47.3313 80.0772C50.9462 80.258 54.3201 81.6437 57.8747 82.3064C58.2362 82.3667 58.5374 82.6077 58.8989 82.6077C59.7424 82.6679 60.8871 83.3909 61.3088 82.2462C61.7908 80.981 60.4653 80.5592 59.5616 80.3182C56.8505 79.4145 53.8983 79.2338 51.4282 77.6673C50.2232 76.8841 48.3555 76.1009 48.717 74.7152C49.0785 73.209 51.0064 73.9922 52.2114 74.173C57.6337 74.8959 62.815 76.7636 68.0565 78.2698C78.2987 81.1617 88.601 82.4269 99.0239 79.1133C99.7468 78.8723 100.892 78.9325 100.53 77.6673C100.169 76.4624 99.2046 76.7636 98.3009 77.0046C97.1562 77.3058 95.9512 77.3661 94.927 77.7878C90.7699 79.4145 87.878 77.6673 84.9259 74.7754C80.8893 70.8593 76.2502 67.4855 72.0329 63.7501C65.7069 58.1471 60.3448 51.5801 54.8021 45.2541C48.6568 38.1448 42.9333 30.6139 37.6917 22.6612C36.2458 20.432 35.7035 17.7209 33.8359 15.6724C32.9924 14.7687 33.1731 13.2023 34.2576 12.2986C35.342 11.3346 36.2458 12.3588 37.0892 12.901C41.4873 15.9134 44.8009 20.1308 48.476 23.9264C50.886 26.4568 53.2959 28.9872 55.4045 31.7586C55.9468 32.5418 56.7902 33.8673 57.9952 32.843C59.2001 31.7586 57.8144 31.0356 57.2722 30.1921C53.1754 23.5046 48.4158 17.2389 45.5842 9.82842C45.3432 9.22594 45.2227 8.62346 45.1022 8.02099C45.0419 7.17752 44.6804 6.09306 45.5842 5.55083C46.4879 5.0086 47.5121 4.94835 48.6568 5.61108C52.9946 8.02099 56.1877 11.5756 58.5374 15.8532C61.1281 20.6128 65.1044 24.3481 68.0565 28.8064C68.418 29.3487 69.0205 29.8307 69.623 29.3487C70.2857 28.8064 69.9845 28.1437 69.623 27.4207C68.177 24.7096 66.0684 22.4804 64.0802 20.191C59.9231 15.5519 58.5374 9.64767 56.3685 4.04464C55.766 2.41795 56.7902 2.05646 57.9952 2.29745C60.0436 2.71919 61.7305 3.86389 63.3572 5.24959C68.3578 9.52718 71.5509 15.1302 75.467 20.2513C81.311 27.963 87.0346 35.7952 93.6016 42.9044C98.4816 48.2062 104.326 52.4235 110.832 55.6167C119.327 59.7738 127.943 63.8104 137.763 63.8706C142.944 63.9309 148.126 63.4489 153.307 63.0271C163.007 62.2439 170.116 66.7022 176.02 73.8717C177.828 76.1009 179.816 78.1493 181.744 80.3182C182.467 81.2219 183.371 81.9449 183.491 83.4511ZM72.9366 88.8734C72.3341 88.8132 71.7317 88.6927 71.1292 88.6927C70.4665 88.6927 69.5025 88.4517 69.4422 89.4759C69.3218 90.5001 70.2857 90.4398 70.9484 90.6808C71.3099 90.8013 71.6714 90.7411 72.0329 90.8616C72.8161 91.1628 73.7801 91.3436 74.2018 90.5001C74.6838 89.5361 73.5391 89.2349 72.9969 88.7529C73.2379 87.9094 75.1055 88.3914 74.6236 87.1262C74.2018 85.9815 72.8764 86.102 71.7919 86.102C71.1292 86.102 70.1652 85.861 70.105 86.8852C69.9845 87.8492 70.7074 87.9697 71.5509 87.9697C71.9726 88.0902 72.6956 88.0902 72.9366 88.8734ZM117.52 64.1116C116.857 64.8948 114.809 63.7501 115.532 65.7985C115.953 66.9432 124.147 68.7507 125.111 68.0277C125.232 67.9072 125.473 67.7265 125.412 67.6662C124.75 66.2805 125.774 66.5215 126.497 66.5215C127.16 66.4613 127.822 66.3408 127.883 65.6178C127.883 64.8948 127.28 64.6538 126.617 64.4731C123.605 63.6296 120.653 62.7259 117.58 61.9427C116.676 61.7017 115.291 60.6172 114.809 62.0029C114.387 63.3284 116.074 63.3886 116.917 63.8104C117.098 63.8706 117.219 63.9309 117.52 64.1116ZM168.309 72.727C168.309 72.004 168.007 71.6426 167.526 71.5221C164.694 70.9798 162.103 69.7749 159.693 68.2687C158.97 67.7867 158.187 68.1482 158.187 69.0519C158.127 69.8954 157.826 70.6184 157.524 71.3413C157.283 72.0041 156.922 72.8475 157.765 73.2692C158.609 73.691 158.97 72.7873 159.392 72.245C159.754 71.8233 159.452 70.7991 160.477 71.1003C161.32 71.3413 161.561 71.9438 161.32 72.7873C161.199 73.3295 161.139 73.932 161.742 74.2332C162.585 74.6549 162.766 73.932 163.007 73.3295C163.248 72.7873 163.67 72.8475 164.091 72.9078C164.935 73.0885 164.573 73.6307 164.573 74.1127C164.573 74.7754 164.453 75.8599 165.477 75.6189C166.923 75.2574 166.742 73.0283 168.309 72.727ZM85.6489 58.1471C85.5886 57.9061 85.5886 57.7253 85.4681 57.5446C83.0582 54.472 80.6483 51.3391 78.2384 48.2664C77.9372 47.905 77.4552 47.7845 77.0937 48.146C76.7322 48.5074 76.7322 48.9894 76.9732 49.4112C78.8409 52.9055 81.8533 55.4962 84.2029 58.6291C84.4439 58.9303 84.9862 59.111 85.4079 58.7496C85.5284 58.6893 85.5886 58.3278 85.6489 58.1471ZM101.253 86.8852C98.1202 87.6684 95.0475 88.4517 91.9146 89.2951C91.3122 89.4759 90.8302 90.0181 91.2519 90.7411C91.5532 91.3436 92.0954 91.3436 92.6376 91.1628C95.5295 90.1989 98.4816 89.6566 101.494 88.9939C102.036 88.8734 102.88 88.7529 102.699 87.9094C102.578 87.1865 102.036 86.9455 101.253 86.8852ZM99.5059 83.6921C96.9152 83.6319 94.5655 84.1741 92.2761 84.9573C91.5532 85.1983 90.2277 85.3188 90.6494 86.584C91.0109 87.6082 91.9749 86.9455 92.7581 86.7647C94.927 86.2828 97.0357 85.62 99.3251 85.62C100.47 85.62 102.699 86.2828 102.699 84.6561C102.699 82.8486 100.47 84.2343 99.5059 83.6921ZM81.0098 36.5784C81.1303 36.5182 81.3713 36.3977 81.552 36.2169C82.1545 35.5542 80.8291 31.9996 79.5639 31.6381C78.2987 31.3368 76.8527 31.6381 75.5273 31.8791C75.1658 31.9393 75.5875 32.6623 75.708 33.0238C76.8527 35.7952 78.0577 36.5784 81.0098 36.5784ZM80.2266 58.3278C80.1061 58.0868 79.8651 57.6651 79.6241 57.3036C77.8167 54.5322 75.949 51.8211 74.1416 49.0497C73.8403 48.6279 73.4788 48.3869 72.9969 48.6279C72.3341 48.9292 72.0931 49.6521 72.4546 50.1944C74.4428 53.1465 76.5515 56.0987 78.5999 58.9905C78.9011 59.4123 79.3831 59.4725 79.8049 59.352C80.1663 59.2918 80.2868 58.9303 80.2266 58.3278ZM76.5515 59.593C74.8043 56.8819 72.8161 53.8092 70.105 51.3391C69.8037 51.0378 69.2013 51.0378 68.9 51.5198C68.659 51.9416 68.7193 52.3633 69.0205 52.785C71.0689 55.3757 73.1174 57.9663 75.1658 60.557C75.467 60.9185 75.8285 61.2197 76.3105 60.9185C76.6117 60.6775 76.8527 60.3762 76.5515 59.593ZM101.554 90.1386C98.6624 90.9218 95.7705 91.7051 92.8184 92.5485C92.3966 92.669 92.0351 93.0907 92.1556 93.5727C92.2761 94.1752 92.8786 94.4764 93.4208 94.2957C96.373 93.5125 99.2649 92.669 102.157 91.8255C102.699 91.6448 103.121 91.2833 102.94 90.6808C102.759 90.0181 102.157 90.1386 101.554 90.1386ZM96.1922 98.995C98.4816 98.6938 100.651 97.9106 102.518 96.4646C103 96.1031 103.663 95.6814 103.181 94.9584C102.759 94.3559 101.976 94.3559 101.494 94.7777C99.8071 96.2839 97.6382 96.6454 95.5897 97.1876C94.9873 97.3683 94.2643 97.6696 94.5655 98.4528C94.8065 99.1758 95.4693 99.236 96.1922 98.995ZM122.219 70.7991C123.063 70.6183 124.388 71.5221 124.448 70.0761C124.509 68.8712 123.123 69.2327 122.279 69.0519C120.773 68.7507 119.267 68.4494 117.821 68.0277C116.978 67.7867 116.074 66.9432 115.532 68.2084C115.05 69.3531 116.435 69.4134 117.038 69.6544C118.725 70.1966 120.472 70.7991 122.219 70.7991ZM141.197 81.0412C142.402 81.2822 143.848 80.74 145.294 80.3182C145.957 80.1375 146.981 80.1375 146.62 79.1133C146.379 78.3301 145.475 78.2096 144.812 78.5108C143.185 79.1735 141.559 79.3543 139.812 79.3543C139.149 79.3543 138.185 79.2338 138.125 80.258C138.064 81.4027 139.089 80.981 139.751 81.0412C140.113 81.1015 140.474 81.0412 141.197 81.0412ZM145.053 82.0052C143.969 82.3064 142.764 82.6679 141.619 83.0294C141.017 83.2101 140.294 83.3306 140.595 84.1741C140.896 84.8971 141.559 84.8971 142.221 84.7163C143.366 84.4151 144.451 84.0536 145.535 83.8126C146.198 83.6319 147.222 84.0536 147.162 82.9691C147.041 81.9449 145.957 82.1257 145.053 82.0052ZM141.197 67.124C140.474 67.0637 139.691 66.8227 139.45 67.7867C139.269 68.8109 140.173 68.9314 140.836 68.9314C141.98 68.9314 143.005 69.7749 144.21 69.2929C144.692 69.1122 145.354 69.1122 145.354 68.3892C145.354 67.7867 144.933 67.4855 144.33 67.4855C143.306 67.4252 142.282 67.3047 141.197 67.124ZM71.7919 96.1634C72.6956 96.2236 73.7198 96.1634 73.4788 95.2597C72.9366 93.3317 71.0087 94.4162 69.7435 93.9342C69.141 93.6932 68.2373 93.874 68.3578 94.6572C68.7795 96.7659 70.8882 95.4404 71.7919 96.1634ZM142.342 72.7873C143.005 72.3655 144.692 73.0885 144.631 71.5221C144.631 70.2569 143.185 70.9798 142.402 70.7991C142.041 70.7388 141.679 70.7388 141.318 70.7388C140.354 70.7388 138.848 69.7146 138.787 71.4016C138.727 72.7873 140.294 72.4258 141.318 72.5463C141.619 72.5463 141.86 72.6668 142.342 72.7873ZM121.014 85.5598C122.159 85.0778 123.966 85.62 124.388 84.1138C124.689 83.0896 123.304 83.0896 122.641 83.3306C121.496 83.7523 119.689 83.0294 119.388 84.7766C119.147 85.62 120.352 85.4393 121.014 85.5598ZM101.072 57.8458C100.289 57.7856 99.8071 58.2676 99.9878 58.8098C100.53 60.1955 101.253 61.5209 102.819 62.0632C103.301 62.2439 103.783 61.7017 103.663 61.3402C103.121 59.8943 102.217 58.6893 101.072 57.8458ZM72.9969 33.8673C72.2739 33.8673 71.6714 34.289 71.9124 34.771C72.5751 36.0964 73.6596 37.1809 75.0453 37.7834C75.4068 37.9641 75.949 37.4219 75.8285 36.9399C75.467 35.4337 74.2621 34.5902 72.9969 33.8673ZM95.8307 64.4731C95.168 64.2923 94.6258 64.6538 94.686 65.0153C94.9873 66.401 96.3127 66.7625 97.3972 67.2445C97.8189 67.4252 98.3611 66.883 98.2407 66.4613C97.8792 65.2563 96.7947 64.8346 95.8307 64.4731ZM119.448 92.2473C120.171 91.7051 121.496 92.0063 121.798 90.8013C121.978 90.1989 121.557 89.5964 120.954 89.7169C119.93 89.8976 118.725 90.0784 118.484 91.4038C118.484 91.946 118.906 92.187 119.448 92.2473ZM97.5177 61.5209C98.1201 62.4247 98.7829 63.4489 100.048 63.7501C100.53 63.8706 101.012 63.3284 100.831 62.9669C100.41 61.8824 99.7468 60.9185 98.6021 60.4967C98.0599 60.2557 97.5779 60.6172 97.5177 61.5209ZM120.472 88.6927C121.135 88.0902 122.641 88.6927 122.942 87.307C123.123 86.5237 122.34 86.343 121.677 86.4032C120.713 86.5237 119.629 86.7045 119.327 87.7889C119.147 88.4517 119.809 88.6324 120.472 88.6927Z" fill="white"/>
<path d="M111.133 157.676C100.71 159.725 90.7092 163.038 81.1901 167.738C76.8523 169.846 72.2132 171.352 68.2368 174.184C60.5854 179.486 54.1389 185.752 50.765 194.668C48.2948 201.115 49.6203 207.561 50.8253 214.008C51.3675 217.081 53.1147 219.551 54.4401 222.141C53.8979 222.684 53.4761 222.503 53.1147 222.322C43.8365 216.779 37.4503 209.248 34.8596 198.464C32.5702 189.065 33.7149 180.149 36.3056 170.991C38.836 162.014 43.1738 154.423 49.9818 148.037C58.4165 140.084 68.7791 136.168 79.5634 132.914C83.5398 131.709 87.5763 130.806 91.6732 130.625C100.409 130.324 109.145 130.384 117.881 131.107C125.954 131.77 133.786 134.119 141.92 134.36C156.801 134.782 171.14 132.432 184.876 126.769C190.841 124.299 196.263 120.744 201.445 116.889C211.205 109.538 219.82 101.104 226.628 90.982C229.038 87.3672 230.966 83.3306 232.111 79.1133C233.075 75.7394 233.075 75.8599 236.509 76.4021C239.762 76.9443 242.292 78.7518 244.763 80.6194C248.859 83.7523 250.004 87.9697 249.1 93.0907C247.775 100.32 244.281 106.466 240.063 112.249C238.256 114.78 236.689 117.551 234.641 119.961C229.64 125.865 223.857 130.866 217.711 135.565C207.289 143.458 195.359 147.856 183.009 151.41C172.767 154.363 162.043 153.459 151.499 153.82C145.776 154.061 139.992 154.182 134.268 154.302" fill="white"/>
<path d="M165.115 295.282C171.26 285.763 166.681 271.966 161.018 265.701C150.776 254.434 137.883 247.807 123.845 243.228C110.41 238.89 97.0351 234.311 83.2384 231.118C75.6472 229.371 68.1765 227.202 60.766 224.913C59.9225 224.672 59.0791 224.491 58.4163 223.768C52.3313 216.478 50.8251 207.983 51.9096 198.765C52.0903 197.139 52.6928 196.717 54.0785 197.741C59.5008 201.597 65.5256 204.489 71.6708 206.778C80.5875 210.152 89.9861 211.478 99.5655 211.839C111.615 212.261 123.725 212.381 135.473 215.574C145.354 218.286 155.355 220.816 164.151 226.359C174.694 232.926 183.129 241.481 189.154 252.446C193.251 259.977 194.456 268.05 192.347 276.123C190.6 282.811 189.756 289.86 186.563 296.126C186.202 296.849 185.9 297.572 185.539 298.295C185.358 298.295 185.117 298.295 184.937 298.295C184.876 294.74 185.358 291.185 184.394 287.691C183.37 283.895 182.165 283.474 179.213 286.004C175.116 289.559 170.477 292.451 165.898 295.342C165.718 295.342 165.416 295.282 165.115 295.282Z" fill="white"/>
<path d="M251.812 87.4876C249.101 79.8964 243.679 75.6189 235.907 73.9319C235.063 73.7512 234.099 73.5704 233.256 73.7512C226.568 75.1971 219.64 75.5586 213.314 78.7517C205.783 82.4871 198.071 86.1019 192.107 92.1267C185.479 98.8745 178.973 105.863 175.478 114.961C175.237 115.503 174.876 116.045 174.514 116.648C172.225 110.563 172.827 104.357 173.249 98.1515C173.309 97.3683 173.972 96.2838 172.948 95.6813C171.743 95.0186 171.141 96.1633 170.478 96.7658C165.537 101.345 160.356 105.682 156.259 111.045C156.079 110.864 155.958 110.683 155.777 110.502C158.308 101.586 163.429 94.0547 168.55 86.4634C170.297 83.933 172.345 83.3908 175.117 83.7523C178.732 84.174 182.106 85.2585 185.479 86.4032C186.383 86.7044 187.347 87.7286 188.07 86.6442C188.733 85.6802 187.889 84.5958 187.227 83.7523C185.238 80.9809 183.19 78.2698 180.72 75.9803C179.093 74.4741 179.214 73.5102 181.081 72.1245C194.215 62.4848 208.735 57.3036 225.183 57.7253C230.063 57.8458 234.822 58.629 239.281 60.4364C250.848 65.0153 253.68 73.4499 252.294 85.379C252.234 85.9212 252.174 86.4634 252.113 86.9454C251.872 87.1864 251.812 87.3069 251.812 87.4876Z" fill="white"/>
<path d="M143.908 61.0992C136.016 62.3042 128.665 60.9185 121.556 58.0266C117.52 56.3397 113.483 54.6527 109.627 52.5441C106.253 50.6764 103.602 48.0857 101.614 44.7721C97.6379 38.2051 93.3001 31.7586 90.9504 24.3481C90.7697 23.7457 90.4684 23.2034 90.3479 22.601C90.1069 21.396 89.143 19.7693 90.2274 19.1066C91.5529 18.3234 92.9386 19.5886 93.9628 20.5525C96.192 22.6612 97.9391 25.1314 99.1441 27.963C99.5056 28.7462 99.6863 30.2524 101.012 29.7102C102.578 29.0475 101.494 27.722 101.072 26.9388C98.7826 22.8419 97.5174 18.3234 96.192 13.9253C95.951 13.1421 95.469 12.1179 96.1317 11.6359C97.0354 11.0334 97.8186 11.9974 98.4211 12.5396C100.891 14.829 102.518 17.6606 103.542 20.914C104.205 23.0227 104.988 25.1314 105.771 27.24C106.012 27.963 106.314 28.927 107.398 28.445C108.362 28.0233 108.241 27.1798 107.82 26.3966C105.651 21.9985 104.687 17.2389 104.386 12.3588C104.325 11.3949 103.783 9.82844 104.868 9.46696C105.832 9.16572 106.434 10.6719 107.037 11.5154C109.928 15.6122 112.64 19.7091 112.7 25.0109C112.7 25.2519 112.881 25.4928 112.941 25.7941C113.061 26.6978 113.604 27.4208 114.507 27.3003C115.652 27.1195 115.351 26.0953 115.17 25.3121C114.568 22.2997 114.206 19.2873 114.146 16.2147C114.146 15.8532 114.025 15.4917 114.086 15.1302C114.266 14.106 114.086 12.5998 115.29 12.4793C116.435 12.2986 116.556 13.7445 116.857 14.6483C118.544 19.7693 119.327 25.0711 121.315 30.1319C126.195 42.4225 132.039 53.9298 143.908 61.0992ZM115.712 36.8194C114.507 37.2411 114.808 38.0244 115.29 39.0486C117.158 42.9044 119.869 46.3386 121.556 50.3149C121.857 51.0981 122.098 52.4236 123.183 52.0018C124.508 51.5199 124.087 50.1944 123.544 49.2304C121.436 45.3746 119.267 41.579 117.158 37.7834C116.857 37.3014 116.556 36.8797 115.712 36.8194ZM128.786 49.8329C128.726 49.7727 128.605 49.4714 128.424 49.11C126.256 44.8324 123.002 41.1573 121.797 36.3977C121.616 35.6145 120.954 35.494 120.291 35.5542C119.207 35.735 119.448 36.5784 119.628 37.2411C121.074 42.2417 124.388 46.1578 126.798 50.6161C127.039 51.0379 127.521 51.4596 128.183 51.0981C128.605 50.9776 128.967 50.6764 128.786 49.8329ZM119.568 50.5559C118.062 46.5795 115.531 42.7839 112.64 39.2293C112.399 38.9281 111.856 38.8678 111.435 39.2293C110.772 39.7113 110.832 40.374 111.194 40.9163C113.604 44.2901 115.712 47.7845 117.58 51.4596C117.821 51.9416 118.363 52.3031 118.905 52.1826C119.448 52.0621 119.689 51.5199 119.568 50.5559ZM107.579 42.9044C106.796 43.2659 106.374 43.8082 107.037 44.8324C108.422 46.8808 109.687 49.0497 111.133 51.0981C111.736 51.9416 112.579 52.3031 113.182 51.0379C113.604 49.9534 108.964 42.9044 107.579 42.9044Z" fill="white"/>
<path d="M185.057 299.319C184.936 299.982 184.876 300.644 184.093 301.006C183.792 300.102 183.912 299.44 184.936 299.259L185.057 299.319Z" fill="black"/>
<path d="M155.296 112.129C154.392 112.129 154.814 111.647 154.995 111.286C155.115 111.587 155.175 111.888 155.296 112.129Z" fill="black"/>
<path d="M155.295 112.129C155.175 111.828 155.115 111.587 154.994 111.286C155.235 111.045 155.416 110.804 155.657 110.563C155.838 110.743 155.958 110.924 156.139 111.105C155.838 111.466 155.597 111.828 155.295 112.129Z" fill="white"/>
<path d="M55.2239 223.105C55.2239 223.166 55.1637 223.226 55.1637 223.286C55.1034 223.226 55.0432 223.105 54.9829 223.045C55.0432 222.985 55.1034 222.925 55.1637 222.985C55.1637 222.985 55.1636 223.045 55.2239 223.105Z" fill="black"/>
<path d="M165.115 295.282C165.416 295.342 165.718 295.342 166.019 295.403C165.657 295.523 165.356 295.583 165.115 295.282Z" fill="black"/>
<path d="M184.997 298.355C185.178 298.355 185.419 298.355 185.6 298.355C185.419 298.656 185.238 299.017 185.058 299.319L184.997 299.258C184.937 298.957 184.997 298.656 184.997 298.355Z" fill="black"/>
<path d="M251.812 87.4881C251.812 87.3074 251.872 87.1869 251.993 87.0664C251.993 87.2471 251.933 87.3676 251.812 87.4881Z" fill="black"/>
<path d="M229.581 76.9444C230.304 76.5829 230.484 76.7637 230.243 77.4866C230.002 77.3662 229.761 77.1252 229.581 76.9444Z" fill="white"/>
<path d="M98.3613 43.7478C98.542 44.1695 98.4215 44.2298 98.0601 44.049C98.1203 43.9888 98.2408 43.8683 98.3613 43.7478Z" fill="black"/>
<path d="M97.9991 44.1096C97.7581 43.8686 97.0954 43.6878 97.6979 43.2059C97.9991 43.0251 98.1798 43.4469 98.3003 43.7481C98.2401 43.8686 98.1196 43.9891 97.9991 44.1096Z" fill="white"/>
<path d="M7.86899 158.219C7.44726 153.218 6.24231 149.001 2.98893 145.627C2.4467 145.085 2.26596 144.603 3.10943 144.181C7.80875 141.59 11.1826 137.554 14.7372 132.915C15.0987 138.096 16.0024 142.675 18.7738 146.651C19.2558 147.314 18.7136 147.675 18.2918 147.916C14.2553 150.567 11.1224 154.061 7.86899 158.219Z" fill="white"/>
<path d="M184.697 206.658C183.552 202.26 181.925 198.645 179.274 195.512C178.732 194.909 178.009 194.186 179.274 193.644C183.431 191.897 185.962 188.523 188.492 184.426C189.637 189.005 190.721 193.042 194.095 195.934C194.999 196.717 194.457 197.018 193.794 197.56C190.48 200.091 187.348 202.922 184.697 206.658Z" fill="white"/>
<path d="M273.079 62.8462C272.718 66.4611 273.501 69.6542 274.706 72.8473C275.007 73.5703 274.827 74.0523 274.224 74.4138C272.176 75.4982 270.489 77.1249 268.561 78.8721C267.416 75.9802 266.03 73.4498 264.103 71.2809C263.56 70.6784 263.5 70.1362 264.283 69.7747C267.778 68.2685 270.429 65.6778 273.079 62.8462Z" fill="white"/>
<path d="M203.674 221.117C202.891 218.527 202.228 216.297 201.505 214.189C201.264 213.526 201.385 213.165 201.927 212.863C204.397 211.658 206.144 209.61 208.072 207.26C208.614 210.152 208.735 212.863 209.699 215.333C209.94 215.996 209.699 216.358 209.157 216.599C206.927 217.442 205.24 219.069 203.674 221.117Z" fill="white"/>
<path d="M18.292 168.159C18.4727 168.943 18.5932 169.425 18.7137 169.907C20.4007 174.726 20.4007 174.726 17.2075 178.884C16.1231 176.594 14.7374 174.606 12.689 173.039C14.5566 171.413 16.3641 169.846 18.292 168.159Z" fill="white"/>
<path d="M278.321 85.3789C280.61 89.1745 278.682 91.2229 275.549 92.9099C275.429 91.2832 273.26 90.018 274.525 88.5118C275.489 87.3068 277.297 86.7646 278.321 85.3789Z" fill="white"/>
<path d="M117.52 64.1118C117.219 63.9311 117.098 63.8708 116.978 63.7503C116.074 63.2684 114.387 63.2684 114.869 61.9429C115.351 60.497 116.737 61.6417 117.641 61.8827C120.653 62.6056 123.665 63.5696 126.678 64.4131C127.34 64.5938 127.943 64.8348 127.943 65.5578C127.943 66.2807 127.22 66.4615 126.557 66.4615C125.834 66.5217 124.81 66.2807 125.473 67.6062C125.533 67.6664 125.292 67.9074 125.171 67.9677C124.208 68.6906 116.014 66.8832 115.592 65.7385C114.749 63.7503 116.857 64.895 117.52 64.1118ZM117.761 64.5336C119.508 65.4975 120.954 65.9795 122.581 65.6783C121.135 65.377 119.99 63.9311 117.761 64.5336Z" fill="black"/>
<path d="M168.308 72.7271C166.742 73.0284 166.923 75.1973 165.416 75.619C164.392 75.86 164.513 74.7756 164.513 74.1128C164.513 73.6309 164.874 73.0284 164.031 72.9079C163.609 72.8476 163.127 72.7874 162.946 73.3296C162.705 73.9321 162.585 74.6551 161.681 74.2333C161.079 73.9321 161.139 73.3296 161.259 72.7874C161.44 71.9439 161.199 71.3415 160.416 71.1005C159.392 70.7992 159.693 71.8234 159.331 72.2452C158.91 72.7874 158.548 73.6911 157.705 73.2694C156.861 72.8476 157.283 72.0042 157.464 71.3415C157.705 70.6185 158.066 69.8955 158.126 69.052C158.187 68.0881 158.91 67.7868 159.633 68.2688C162.103 69.775 164.633 70.98 167.465 71.5222C168.007 71.6427 168.308 72.0042 168.308 72.7271Z" fill="black"/>
<path d="M85.6488 58.147C85.5885 58.3277 85.5283 58.6892 85.3475 58.8097C84.9258 59.111 84.3836 58.9905 84.1426 58.6892C81.7929 55.5564 78.7805 52.9657 76.9129 49.4713C76.6719 49.0496 76.7321 48.5676 77.0334 48.2061C77.4551 47.7844 77.9371 47.9651 78.1781 48.3266C80.588 51.3993 82.9979 54.4719 85.4078 57.6048C85.5885 57.7253 85.5885 57.906 85.6488 58.147Z" fill="black"/>
<path d="M101.253 86.8853C101.976 86.9455 102.578 87.1865 102.699 87.9095C102.819 88.8132 102.036 88.8734 101.494 88.9939C98.5419 89.6566 95.5295 90.1386 92.6376 91.1628C92.0954 91.3436 91.5531 91.3436 91.2519 90.7411C90.8904 90.0181 91.3122 89.4157 91.9146 89.2952C95.0475 88.4517 98.1804 87.6685 101.253 86.8853Z" fill="black"/>
<path d="M99.5052 83.6921C100.469 84.2344 102.698 82.8487 102.698 84.6561C102.698 86.2828 100.469 85.5598 99.3244 85.6201C97.035 85.6803 94.9263 86.2828 92.7574 86.7648C91.9742 86.9455 91.0705 87.548 90.6487 86.584C90.1668 85.3188 91.4922 85.2586 92.2754 84.9574C94.5648 84.1741 96.9145 83.5717 99.5052 83.6921Z" fill="black"/>
<path d="M81.0096 36.5784C78.0575 36.6387 76.8525 35.7952 75.7078 33.084C75.5271 32.6623 75.1053 31.9996 75.5271 31.9393C76.8525 31.6983 78.2985 31.3369 79.5637 31.6983C80.8289 31.9996 82.1543 35.5542 81.5518 36.2772C81.3711 36.3977 81.1301 36.4579 81.0096 36.5784Z" fill="black"/>
<path d="M80.226 58.3281C80.2862 58.8703 80.226 59.2921 79.8043 59.3523C79.3825 59.4728 78.9005 59.4125 78.5993 58.9908C76.5509 56.0387 74.4422 53.1468 72.454 50.1947C72.0926 49.6524 72.3335 48.9294 72.9963 48.6282C73.4783 48.3872 73.8397 48.6282 74.141 49.0499C75.9484 51.8213 77.8161 54.5325 79.6235 57.3039C79.8645 57.7256 80.0453 58.0871 80.226 58.3281Z" fill="black"/>
<path d="M76.5511 59.593C76.7921 60.4365 76.6114 60.7377 76.3101 60.9185C75.8282 61.2197 75.4667 60.9185 75.1654 60.557C73.117 57.9663 71.0686 55.3757 69.0202 52.785C68.7189 52.4236 68.6587 51.9416 68.8997 51.5198C69.2009 51.0981 69.8034 51.0981 70.1046 51.3391C72.876 53.749 74.804 56.8216 76.5511 59.593Z" fill="black"/>
<path d="M101.554 90.1386C102.157 90.1386 102.759 90.0181 102.94 90.7411C103.121 91.4038 102.699 91.7653 102.157 91.8858C99.265 92.7293 96.3129 93.5728 93.421 94.356C92.8788 94.4765 92.3366 94.2355 92.1558 93.633C92.0353 93.151 92.3968 92.7293 92.8185 92.6088C95.7707 91.7653 98.7228 90.9219 101.554 90.1386Z" fill="black"/>
<path d="M96.1925 98.995C95.4695 99.236 94.8068 99.1757 94.5658 98.4528C94.3248 97.6696 95.0478 97.3683 95.59 97.1876C97.6384 96.6453 99.8073 96.2839 101.494 94.7777C101.976 94.3559 102.759 94.3559 103.181 94.9584C103.663 95.6814 103 96.1031 102.518 96.4646C100.651 97.9106 98.4819 98.6938 96.1925 98.995Z" fill="black"/>
<path d="M122.219 70.7992C120.472 70.7992 118.785 70.257 117.098 69.6545C116.496 69.4737 115.17 69.3532 115.592 68.2085C116.074 67.0036 117.038 67.7868 117.882 68.0278C119.327 68.4495 120.834 68.7508 122.34 69.052C123.183 69.2328 124.509 68.8713 124.509 70.0762C124.388 71.4619 123.063 70.6185 122.219 70.7992Z" fill="black"/>
<path d="M141.198 81.0413C140.475 81.0413 140.113 81.0413 139.752 81.0413C139.089 80.9811 138.125 81.4028 138.125 80.2581C138.185 79.2941 139.089 79.3544 139.812 79.3544C141.499 79.3544 143.186 79.1737 144.812 78.5109C145.535 78.2097 146.379 78.3302 146.62 79.1134C146.921 80.1376 145.897 80.1376 145.294 80.3184C143.788 80.7401 142.403 81.2823 141.198 81.0413Z" fill="black"/>
<path d="M145.053 82.0051C145.956 82.1256 147.041 81.9449 147.101 82.9691C147.222 84.0535 146.137 83.6318 145.474 83.8126C144.33 84.0535 143.245 84.4753 142.161 84.7163C141.558 84.897 140.835 84.897 140.534 84.174C140.173 83.2703 140.956 83.2101 141.558 83.0293C142.763 82.6678 143.968 82.3064 145.053 82.0051Z" fill="black"/>
<path d="M141.197 67.1242C142.222 67.2447 143.306 67.4254 144.33 67.4857C144.933 67.5459 145.415 67.7869 145.354 68.3894C145.354 69.1124 144.692 69.0521 144.21 69.2931C143.005 69.7751 141.981 68.9919 140.836 68.9316C140.173 68.9316 139.269 68.8111 139.45 67.7869C139.691 66.8229 140.474 67.0639 141.197 67.1242Z" fill="black"/>
<path d="M71.7918 96.1635C70.8881 95.3803 68.7794 96.766 68.418 94.6574C68.2372 93.8741 69.1409 93.6934 69.8037 93.9344C71.0689 94.4164 72.9968 93.3319 73.539 95.2598C73.7198 96.1635 72.6955 96.2238 71.7918 96.1635Z" fill="black"/>
<path d="M142.342 72.7873C141.921 72.6668 141.619 72.6066 141.378 72.5463C140.354 72.4861 138.788 72.8476 138.848 71.4016C138.908 69.7147 140.475 70.7389 141.378 70.7389C141.74 70.7389 142.101 70.6787 142.463 70.7992C143.246 70.9799 144.632 70.2569 144.692 71.5221C144.632 73.0886 143.005 72.3656 142.342 72.7873Z" fill="black"/>
<path d="M121.014 85.5597C120.351 85.4994 119.207 85.6802 119.327 84.7765C119.628 83.0293 121.436 83.692 122.581 83.3305C123.304 83.0895 124.629 83.1498 124.328 84.1138C123.966 85.5597 122.159 85.0175 121.014 85.5597Z" fill="black"/>
<path d="M72.8763 88.8134C73.4186 89.3557 74.5633 89.5967 74.0813 90.5606C73.6595 91.4041 72.6956 91.2233 71.9124 90.9221C71.6111 90.8016 71.1894 90.8016 70.8279 90.7414C70.1652 90.5004 69.2615 90.5606 69.3217 89.5364C69.4422 88.5122 70.3459 88.7532 71.0086 88.7532C71.6714 88.6929 72.3341 88.8134 72.8763 88.8134Z" fill="black"/>
<path d="M72.9364 88.8736C72.6954 88.0904 71.9724 88.0904 71.4302 88.0904C70.5868 88.0904 69.924 87.9096 69.9843 87.0059C70.1048 85.9817 71.0687 86.2227 71.6712 86.2227C72.6954 86.2227 74.0209 86.1022 74.5029 87.2469C74.9848 88.4518 73.1172 87.9096 72.9364 88.8736Z" fill="black"/>
<path d="M101.072 57.8462C102.217 58.6896 103.121 59.8946 103.663 61.3405C103.783 61.702 103.301 62.2443 102.819 62.0635C101.253 61.5213 100.53 60.1958 99.9876 58.8101C99.8069 58.2679 100.289 57.7859 101.072 57.8462Z" fill="black"/>
<path d="M72.9968 33.8674C74.262 34.5302 75.467 35.4339 75.8285 37.0003C75.949 37.4823 75.4068 38.0245 75.0453 37.8438C73.6596 37.2413 72.6354 36.1568 71.9124 34.8314C71.6111 34.2892 72.2739 33.9277 72.9968 33.8674Z" fill="black"/>
<path d="M95.8304 64.4733C96.7944 64.8348 97.8789 65.2565 98.2404 66.5217C98.3608 66.9435 97.8186 67.4857 97.3969 67.3049C96.3124 66.823 94.987 66.4615 94.6857 65.0758C94.6255 64.6541 95.1677 64.3528 95.8304 64.4733Z" fill="black"/>
<path d="M119.448 92.2473C118.906 92.1871 118.424 91.9461 118.544 91.4039C118.785 90.0784 119.93 89.8977 121.014 89.7169C121.617 89.5964 121.978 90.1989 121.858 90.8014C121.496 92.0063 120.171 91.7051 119.448 92.2473Z" fill="black"/>
<path d="M97.5176 61.5211C97.5778 60.6776 98.0598 60.3161 98.602 60.4969C99.7467 60.9186 100.409 61.8826 100.831 62.967C100.952 63.3888 100.53 63.8708 100.048 63.7503C98.7828 63.449 98.1201 62.3646 97.5176 61.5211Z" fill="black"/>
<path d="M120.472 88.6925C119.749 88.6323 119.087 88.4516 119.267 87.8491C119.569 86.7646 120.653 86.5839 121.617 86.4634C122.28 86.4031 123.063 86.5236 122.882 87.3671C122.641 88.6323 121.135 88.0298 120.472 88.6925Z" fill="black"/>
<path d="M55.7657 172.076C55.6452 169.184 55.7055 166.232 55.4645 163.279C55.2837 160.93 56.2477 160.93 57.9949 161.592C59.1998 162.074 60.465 162.376 61.8507 162.797C60.706 160.147 59.1998 157.556 56.6092 155.869C54.8018 154.664 54.3198 153.7 56.4887 152.435C57.7539 151.712 59.0191 150.085 60.0433 150.266C61.6097 150.567 60.5855 152.796 61.3085 154.001C63.6582 157.737 65.8873 161.472 68.8997 164.725C69.6227 165.509 71.0084 166.292 69.7432 167.497C68.6587 168.461 67.996 170.569 65.5861 169.063C63.3569 167.677 61.3085 165.93 58.9588 164.243C58.1756 167.075 58.7179 169.666 58.5974 172.196C58.5371 173.039 58.7179 173.943 58.5974 174.787C58.4769 176.413 57.2719 177.377 55.9465 177.859C54.5005 178.402 54.0185 176.956 53.3558 176.052C51.4279 173.341 49.5 170.569 47.572 167.858C46.7888 166.774 45.8851 165.81 44.6801 165.147C43.8969 164.725 42.3907 165.087 42.451 163.822C42.451 162.797 43.8969 162.797 44.6199 162.135C45.5236 161.291 46.5478 160.568 47.5118 159.785C47.9335 159.424 48.3552 158.881 49.018 159.122C49.6807 159.363 49.5602 160.086 49.6205 160.628C50.0422 164.484 52.5726 169.184 55.7657 172.076Z" fill="black"/>
<path d="M73.4185 153.098C71.7918 153.76 71.0688 154.724 72.2738 156.351C72.6353 156.833 72.9365 157.315 73.2378 157.797C74.4427 159.845 75.6477 160.388 77.2141 158.038C77.6358 157.375 78.0576 155.869 79.2625 156.773C80.2265 157.496 79.383 158.58 78.901 159.363C77.7563 161.291 75.7079 162.315 74.2017 163.882C73.3583 164.725 72.5148 164.243 71.9123 163.219C69.3819 159.002 66.249 155.327 63.0559 151.591C61.5497 149.844 61.1882 148.459 63.5379 147.013C64.9236 146.169 65.9478 144.783 67.1527 143.759C67.936 143.096 68.8999 142.855 69.6831 143.88C70.5266 145.024 69.3819 145.326 68.7794 145.808C67.8757 146.47 66.49 147.193 67.0322 148.459C67.695 149.904 68.8397 151.23 70.0446 152.194C70.7676 152.796 71.0688 151.35 71.6111 150.929C72.2135 150.386 72.9365 149.965 73.6595 150.567C74.262 151.049 74.9247 151.531 74.9849 152.375C74.9247 153.519 73.9607 152.917 73.4185 153.098Z" fill="black"/>
<path d="M115.712 36.8193C116.556 36.8796 116.857 37.3013 117.098 37.7833C119.267 41.5789 121.376 45.4348 123.484 49.2304C124.026 50.1943 124.448 51.5198 123.123 52.0018C122.038 52.4235 121.797 51.0378 121.496 50.3148C119.809 46.3385 117.098 42.9044 115.23 39.0485C114.809 38.0243 114.507 37.2411 115.712 36.8193Z" fill="black"/>
<path d="M128.786 49.8331C128.967 50.6765 128.606 50.9175 128.184 51.1585C127.581 51.52 127.039 51.0983 126.798 50.6765C124.388 46.2182 121.075 42.2419 119.629 37.3015C119.448 36.6388 119.147 35.7954 120.291 35.6146C120.894 35.4941 121.557 35.6749 121.798 36.4581C123.002 41.2176 126.256 44.953 128.425 49.1703C128.606 49.4716 128.726 49.7728 128.786 49.8331Z" fill="black"/>
<path d="M119.568 50.5561C119.689 51.52 119.448 52.0623 118.845 52.1828C118.303 52.3033 117.761 52.002 117.52 51.4598C115.652 47.7847 113.543 44.2301 111.133 40.9164C110.772 40.4345 110.772 39.7115 111.374 39.2295C111.796 38.868 112.338 38.9283 112.579 39.2295C115.531 42.7841 118.062 46.5797 119.568 50.5561Z" fill="black"/>
<path d="M107.579 42.9043C108.965 42.9043 113.664 49.9533 113.122 51.0377C112.579 52.3029 111.676 51.9415 111.073 51.098C109.687 49.0496 108.362 46.9409 106.976 44.8322C106.314 43.808 106.735 43.2055 107.579 42.9043Z" fill="black"/>
<path d="M117.761 64.5336C119.99 63.9311 121.135 65.3168 122.581 65.6783C120.954 65.9795 119.508 65.4975 117.761 64.5336Z" fill="white"/>
<path d="M77.3948 224.793C76.7321 224.371 75.0452 225.455 75.4066 223.768C75.7079 222.202 75.3464 219.611 77.2141 219.31C78.9613 218.949 80.106 220.937 80.2265 222.744C80.2867 224.552 78.8408 224.793 77.3948 224.793Z" fill="white"/>
<path d="M78.8407 217.261C78.2985 216.96 76.8525 217.563 77.214 216.297C77.5755 214.912 77.3345 212.803 79.3227 212.622C80.5277 212.502 82.2748 212.984 82.2748 214.671C82.2748 216.719 80.5879 217.141 78.8407 217.261Z" fill="white"/>
<path d="M174.755 143.699C174.635 143.699 174.454 143.759 174.334 143.759C173.31 143.398 172.044 143.639 171.683 144.362C171.261 145.386 171.502 146.711 171.562 147.856C171.623 148.76 172.346 149.061 173.249 149.061C173.852 149.001 174.575 149.181 174.514 148.157C174.514 147.615 174.514 146.952 175.418 147.133C176.442 147.314 177.045 147.856 176.985 149.001C176.924 149.724 177.045 150.507 176.021 150.567C174.153 150.688 172.225 150.868 170.357 150.808C169.273 150.748 168.369 150.567 169.032 148.82C169.695 147.073 168.791 145.145 168.55 143.337C168.309 141.168 167.646 139.12 167.225 137.011C167.044 136.108 166.923 135.264 168.369 135.144C169.875 134.963 171.321 134.361 172.888 134.12C174.394 133.879 175.539 135.083 175.117 136.469C174.996 136.951 174.816 137.433 174.153 137.433C173.671 137.433 173.43 137.313 173.31 136.77C172.948 135.385 171.984 136.228 171.261 136.288C170.177 136.349 170.418 137.132 170.538 137.855C170.719 138.819 170.779 139.783 170.96 140.747C171.261 142.855 171.623 143.096 173.611 142.132C174.033 141.952 174.394 141.349 174.816 142.012C175.237 142.494 174.996 143.096 174.755 143.699Z" fill="black"/>
<path d="M161.741 146.892C162.284 143.578 162.886 140.265 163.368 136.951C163.489 135.927 163.79 135.445 164.874 135.385C166.019 135.324 166.381 135.806 165.959 136.77C164.212 141.048 163.248 145.627 161.982 150.085C161.802 150.808 161.621 151.531 160.778 151.652C159.814 151.772 159.753 150.808 159.512 150.206C157.886 146.169 157.343 141.771 155.054 137.975C154.994 137.855 154.994 137.493 155.054 137.433C156.018 136.77 157.223 136.59 158.247 136.59C159.151 136.59 159.151 137.674 159.211 138.457C159.512 141.409 160.175 144.241 161.741 146.892Z" fill="black"/>
<path d="M104.085 143.518C106.856 144.603 109.929 145.687 109.628 149.121C109.326 152.917 106.194 154.423 102.94 155.568C101.796 155.989 100.53 156.592 99.3856 156.532C97.8794 156.411 95.7708 157.375 96.7347 153.579C97.6987 149.904 96.4937 145.506 95.1683 141.65C93.3006 136.469 93.1801 136.469 98.5422 135.324C99.2049 135.204 99.8676 135.083 100.53 134.903C102.579 134.3 104.868 133.939 105.953 136.168C107.037 138.397 106.977 140.807 104.808 142.675C104.567 142.855 104.446 143.157 104.085 143.518ZM104.567 152.073C106.254 151.23 107.76 150.206 106.615 148.157C105.471 146.169 103.061 144.542 101.253 145.928C99.3254 147.374 101.193 150.025 101.675 152.013C102.217 154.182 103.603 151.953 104.567 152.073ZM102.037 142.735C103.964 141.65 105.651 140.205 104.507 137.915C103.543 135.987 101.253 136.409 99.9881 137.192C97.8192 138.518 99.2651 140.807 99.6266 142.554C99.9881 144.241 101.253 142.735 102.037 142.735Z" fill="black"/>
<path d="M150.355 150.929C150.716 150.748 151.018 150.627 151.198 150.447C151.62 150.085 152.102 149.362 152.584 150.266C153.006 150.989 152.584 151.893 151.741 151.953C149.752 152.073 147.825 152.073 145.836 152.013C144.993 152.013 144.872 151.23 144.933 150.507C145.294 146.41 145.113 142.313 145.113 138.156C145.113 137.192 145.415 136.65 146.499 136.65C148.186 136.65 149.873 136.59 151.56 136.59C152.283 136.59 153.066 136.65 153.367 137.493C153.548 138.036 153.608 138.518 153.126 138.879C152.705 139.241 152.283 139.06 151.982 138.698C151.078 137.554 149.752 137.674 148.788 138.036C147.644 138.518 148.186 139.843 148.306 140.807C148.306 140.927 148.306 141.108 148.306 141.229C148.306 144.06 148.728 144.482 151.5 143.88C151.861 143.819 152.343 143.277 152.524 143.94C152.644 144.362 152.524 144.964 152.283 145.446C152.042 145.988 151.741 145.446 151.439 145.326C150.355 145.024 148.668 144.964 148.427 145.627C147.945 147.073 148.065 148.82 148.126 150.386C148.246 150.748 149.632 150.808 150.355 150.929Z" fill="black"/>
<path d="M122.761 148.639C123.845 151.049 123.122 152.073 120.713 152.134C118.363 152.194 116.074 152.495 113.724 152.676C111.916 152.796 111.013 152.917 111.977 150.326C112.82 147.977 112.278 145.085 112.037 142.494C111.796 140.325 112.157 138.036 110.952 135.987C110.229 134.782 111.615 134.662 112.278 134.602C114.688 134.421 117.158 134.421 119.568 134.3C121.616 134.24 121.074 135.746 121.195 137.011C119.267 135.204 116.857 135.566 115.351 136.53C113.724 137.554 114.869 139.964 115.23 141.651C115.471 142.916 116.977 142.193 117.881 142.193C118.845 142.193 120.05 141.59 120.532 142.916C120.713 143.398 120.592 144.241 120.231 144.603C119.447 145.567 118.785 145.145 117.76 144.482C116.555 143.759 115.23 143.94 115.592 146.169C116.314 150.627 117.881 151.23 122.761 148.639Z" fill="black"/>
<path d="M131.859 149.061C132.281 149.061 133.184 148.217 133.486 149.121C133.787 150.085 133.546 151.471 132.522 151.953C130.654 152.796 128.666 152.555 126.678 152.254C125.774 152.073 126.015 151.169 125.955 150.446C125.714 145.807 126.376 141.108 125.593 136.469C125.473 135.626 125.895 134.842 126.557 134.782C127.702 134.662 128.967 134.3 129.931 135.023C130.594 135.505 130.112 136.288 129.991 136.951C129.268 140.867 130.052 144.783 129.991 148.699C130.112 150.085 131.076 149.242 131.859 149.061Z" fill="black"/>
<path d="M140.474 137.433C140.354 141.349 140.233 144.844 140.173 148.338C140.173 149.362 139.751 150.507 140.836 151.35C141.378 151.832 141.016 152.375 140.534 152.495C138.968 152.917 137.401 152.616 135.835 152.134C135.534 152.073 135.413 151.652 135.534 151.29C137.401 147.193 135.895 142.916 136.317 138.759C136.317 138.518 136.257 138.277 136.257 138.036C136.136 137.433 134.751 137.192 135.594 136.469C136.618 135.626 137.944 135.987 139.149 136.289C140.052 136.469 140.534 136.891 140.474 137.433Z" fill="black"/>
<path d="M209.397 128.878C210.542 129.48 210.301 130.565 210.12 131.469C209.939 132.493 209.035 132.915 208.072 132.493C207.108 132.071 206.385 131.348 206.746 130.203C207.108 128.878 208.252 128.818 209.397 128.878Z" fill="black"/>
<path d="M199.457 134.361C200.361 135.023 200.662 135.927 200.301 136.891C199.999 137.674 199.517 138.518 198.312 138.036C197.228 137.554 196.867 136.65 197.107 135.686C197.409 134.662 198.373 134.361 199.457 134.361Z" fill="black"/>
<path d="M189.456 139.361C190.661 139.843 190.721 140.807 190.54 141.831C190.36 142.795 189.576 143.036 188.733 142.735C187.588 142.374 186.745 141.53 187.167 140.325C187.468 139.482 188.492 139.241 189.456 139.361Z" fill="black"/>
</svg>
