<svg width="226" height="147" viewBox="0 0 226 147" fill="none" xmlns="http://www.w3.org/2000/svg">
<g clip-path="url(#clip0_1043_4041)">
<path d="M126.616 46.213C122.024 46.309 120.043 45.0225 119.852 44.4644C119.362 42.9796 124.088 39.3457 124.418 38.7413C124.626 38.3596 123.82 33.8964 124.047 33.2154C124.466 31.917 126.165 32.245 127.384 32.8477C128.603 33.4505 129.323 34.1733 130.683 34.2541C132.559 34.3696 135.97 31.2563 137.569 31.8807C139.168 32.5051 137.818 35.3593 137.496 36.4423C137.246 37.317 136.847 38.5027 137.1 39.3629C137.606 41.0834 141.807 42.1976 141.656 44.5919C141.58 46.0565 135.433 45.8621 134.251 46.7442C132.634 47.9675 132.436 51.0168 130.962 51.4507C129.248 51.9816 126.616 46.213 126.616 46.213Z" fill="black"/>
<path d="M115.797 53.4487C120.729 59.8421 129.325 62.8504 137.034 60.0549C144.763 57.2203 149.558 49.3163 149.943 41.2593C150.137 37.3458 149.325 33.1351 147.076 29.8415C144.647 26.2711 140.623 25.0822 136.731 23.7881C129.36 21.3752 117.669 20.8929 113.669 29.1563C111.771 33.0767 111.531 38.0586 111.682 42.3649C111.751 44.7178 112.115 47.1816 113.078 49.3376C113.762 50.8831 115.125 51.8336 115.761 53.3274C115.991 53.886 116.897 53.6194 116.667 53.0608C116.168 51.9222 115.593 51.5309 114.831 50.5026C113.706 49.0208 113.205 47.0919 112.898 45.2703C112.259 41.5361 112.532 37.3355 113.238 33.601C113.944 29.8665 115.679 26.6202 119.185 24.9295C123.056 23.0324 127.859 22.7399 132.057 23.5152C134.037 23.8885 135.959 24.5096 137.89 25.1611C139.829 25.8429 141.842 26.4374 143.556 27.581C146.859 29.7735 148.423 33.8619 148.89 37.6798C149.788 45.1942 146.558 53.396 140.06 57.5164C132.319 62.431 122.125 60.1237 116.61 52.9787C116.238 52.4949 115.425 52.9649 115.797 53.4487Z" fill="black"/>
<path d="M121.27 36.4784C120.218 36.3595 119.139 36.1495 118.121 35.9218C117.527 35.7999 117.297 36.6915 117.9 36.8438C118.958 37.093 119.997 37.2814 121.05 37.4004C121.625 37.4617 121.877 36.5308 121.27 36.4784Z" fill="black"/>
<path d="M124.3 49.5626C124.161 50.4276 124.012 51.2622 123.873 52.1272C123.783 52.714 124.711 52.9683 124.792 52.3512C124.931 51.4862 125.08 50.6516 125.219 49.7866C125.3 49.1695 124.381 48.9455 124.3 49.5626Z" fill="black"/>
<path d="M135.883 49.1207C136.024 50.2661 136.929 50.8897 137.323 51.8944C137.553 52.453 138.459 52.1864 138.229 51.6278C137.879 50.7748 136.947 50.0602 136.831 49.1057C136.752 48.5027 135.804 48.5177 135.883 49.1207Z" fill="black"/>
<path d="M139.997 38.6812C140.855 38.3629 141.686 37.9536 142.5 37.4836C143.029 37.1631 142.528 36.3544 141.999 36.6749C141.277 37.1183 140.527 37.4706 139.73 37.7712C139.165 37.9703 139.433 38.8804 139.997 38.6812Z" fill="black"/>
<path d="M130.919 31.1343C131.25 29.9163 131.352 28.6999 131.284 27.4672C131.235 26.8553 130.288 26.8703 130.337 27.4822C130.417 28.6453 130.297 29.8011 130 30.9103C129.841 31.4845 130.769 31.7389 130.919 31.1343Z" fill="black"/>
</g>
<g clip-path="url(#clip1_1043_4041)">
<path d="M162.195 86.4634C158.66 86.5306 157.134 85.531 156.986 85.0985C156.606 83.9477 160.238 81.1405 160.491 80.6728C160.651 80.3775 160.023 76.9194 160.197 76.3922C160.518 75.3872 161.826 75.6439 162.765 76.1127C163.704 76.5815 164.26 77.1424 165.306 77.2071C166.751 77.2995 169.371 74.8935 170.603 75.3796C171.835 75.8657 170.8 78.0743 170.553 78.9126C170.362 79.5897 170.057 80.5074 170.253 81.1741C170.645 82.5075 173.88 83.377 173.768 85.2313C173.712 86.3656 168.981 86.2054 168.072 86.8868C166.829 87.8318 166.682 90.1932 165.548 90.527C164.23 90.9355 162.195 86.4634 162.195 86.4634Z" fill="black"/>
<path d="M153.879 92.0511C157.685 97.0108 164.306 99.3542 170.235 97.2011C176.18 95.0176 179.858 88.9031 180.142 82.6633C180.285 79.6324 179.653 76.3698 177.917 73.8152C176.042 71.0461 172.943 70.1189 169.945 69.1105C164.268 67.2301 155.269 66.8382 152.203 73.2323C150.749 76.2659 150.571 80.1242 150.695 83.4598C150.751 85.2824 151.035 87.1913 151.78 88.8626C152.309 90.0608 153.359 90.7991 153.851 91.9571C154.029 92.3901 154.726 92.1851 154.548 91.7521C154.162 90.8694 153.719 90.5654 153.131 89.7677C152.263 88.6182 151.874 87.1235 151.635 85.7121C151.137 82.8188 151.341 79.5657 151.878 76.6743C152.416 73.7829 153.746 71.2712 156.442 69.9672C159.419 68.5038 163.115 68.2847 166.347 68.8918C167.872 69.184 169.352 69.6681 170.839 70.1758C172.333 70.7069 173.883 71.1705 175.205 72.0589C177.75 73.7622 178.96 76.9313 179.326 79.8891C180.029 85.7107 177.556 92.0584 172.56 95.2396C166.61 99.0341 158.76 97.2311 154.504 91.6884C154.217 91.313 153.592 91.6758 153.879 92.0511Z" fill="black"/>
<path d="M158.065 78.9154C157.255 78.8216 156.424 78.6574 155.64 78.4794C155.183 78.384 155.007 79.0743 155.471 79.1932C156.286 79.3878 157.086 79.5354 157.896 79.6292C158.34 79.6775 158.532 78.9569 158.065 78.9154Z" fill="black"/>
<path d="M160.417 89.0542C160.311 89.7239 160.199 90.3702 160.093 91.0399C160.025 91.4943 160.739 91.6927 160.801 91.2149C160.906 90.5451 161.019 89.8989 161.125 89.2291C161.186 88.7513 160.479 88.5763 160.417 89.0542Z" fill="black"/>
<path d="M169.333 88.7303C169.442 89.6177 170.14 90.102 170.445 90.8809C170.623 91.3139 171.32 91.1088 171.142 90.6758C170.871 90.0146 170.153 89.4596 170.062 88.7202C170 88.253 169.271 88.2631 169.333 88.7303Z" fill="black"/>
<path d="M172.483 80.6508C173.142 80.4056 173.782 80.0898 174.407 79.7271C174.813 79.4797 174.427 78.8526 174.02 79.1C173.465 79.4422 172.889 79.714 172.275 79.9455C171.841 80.0989 172.048 80.8042 172.483 80.6508Z" fill="black"/>
<path d="M165.484 74.7913C165.736 73.8484 165.813 72.9064 165.759 71.9515C165.72 71.4775 164.991 71.4876 165.03 71.9616C165.093 72.8627 165.003 73.7577 164.776 74.6163C164.654 75.0608 165.369 75.2593 165.484 74.7913Z" fill="black"/>
</g>
<g clip-path="url(#clip2_1043_4041)">
<path d="M202.216 52.2445C199.974 52.2765 199.003 51.6277 198.908 51.3485C198.663 50.606 200.958 48.8091 201.117 48.5087C201.217 48.3189 200.808 46.0891 200.917 45.7501C201.117 45.1037 201.947 45.2732 202.544 45.5782C203.142 45.8832 203.496 46.2464 204.159 46.2914C205.076 46.3555 206.73 44.8139 207.513 45.131C208.296 45.4482 207.647 46.8677 207.493 47.4069C207.374 47.8425 207.184 48.4327 207.31 48.8629C207.563 49.7231 209.618 50.2937 209.553 51.4878C209.521 52.2184 206.519 52.1 205.945 52.5361C205.16 53.1409 205.074 54.6617 204.355 54.8731C203.521 55.1321 202.216 52.2445 202.216 52.2445Z" fill="black"/>
<path d="M196.959 55.8174C199.389 59.0247 203.596 60.5556 207.349 59.1875C211.113 57.7999 213.426 53.8726 213.587 49.8537C213.668 47.9017 213.256 45.7978 212.147 44.1465C210.949 42.3566 208.98 41.7493 207.076 41.0901C203.469 39.8605 197.76 39.5793 195.836 43.6886C194.923 45.6383 194.823 48.1233 194.912 50.2726C194.953 51.4468 195.14 52.6775 195.617 53.7566C195.957 54.5302 196.625 55.0092 196.941 55.7568C197.055 56.0363 197.496 55.9064 197.382 55.6269C197.135 55.057 196.853 54.8598 196.477 54.344C195.923 53.6007 195.671 52.6365 195.515 51.7265C195.19 49.861 195.309 47.766 195.641 45.905C195.972 44.044 196.808 42.4302 198.514 41.5987C200.397 40.6655 202.741 40.5363 204.793 40.9377C205.761 41.1308 206.701 41.4475 207.646 41.7792C208.596 42.1262 209.58 42.4298 210.421 43.0064C212.041 44.1118 212.819 46.1573 213.06 48.064C213.525 51.8166 211.976 55.8979 208.818 57.9314C205.056 60.3567 200.071 59.1701 197.354 55.5857C197.171 55.343 196.775 55.5747 196.959 55.8174Z" fill="black"/>
<path d="M199.572 47.3687C199.058 47.3057 198.531 47.1972 198.032 47.0801C197.742 47.0171 197.633 47.4613 197.928 47.5393C198.445 47.6673 198.953 47.765 199.467 47.828C199.749 47.8606 199.868 47.397 199.572 47.3687Z" fill="black"/>
<path d="M201.097 53.9079C201.032 54.339 200.962 54.755 200.897 55.1861C200.856 55.4786 201.31 55.6087 201.347 55.3011C201.412 54.8699 201.481 54.454 201.546 54.0228C201.584 53.7152 201.134 53.6002 201.097 53.9079Z" fill="black"/>
<path d="M206.75 53.7276C206.823 54.2996 207.267 54.6139 207.463 55.1166C207.577 55.3961 208.018 55.2663 207.904 54.9867C207.73 54.5599 207.273 54.2001 207.212 53.7234C207.172 53.4222 206.709 53.4264 206.75 53.7276Z" fill="black"/>
<path d="M208.722 48.5329C209.14 48.3771 209.544 48.1757 209.94 47.944C210.197 47.7859 209.95 47.3807 209.693 47.5388C209.341 47.7575 208.977 47.9307 208.588 48.0779C208.313 48.1753 208.447 48.6303 208.722 48.5329Z" fill="black"/>
<path d="M204.264 44.7355C204.422 44.1289 204.467 43.5223 204.43 42.907C204.404 42.6015 203.941 42.6057 203.967 42.9112C204.01 43.4918 203.956 44.0681 203.815 44.6206C203.739 44.9065 204.193 45.0367 204.264 44.7355Z" fill="black"/>
</g>
<g clip-path="url(#clip3_1043_4041)">
<path d="M29.9341 136.292C27.6926 136.324 26.721 135.675 26.6258 135.396C26.3813 134.653 28.6761 132.856 28.8349 132.556C28.9352 132.366 28.5263 130.136 28.6348 129.797C28.8349 129.151 29.6655 129.321 30.2627 129.626C30.8598 129.931 31.2139 130.294 31.8777 130.339C32.7944 130.403 34.4486 128.861 35.2315 129.178C36.0144 129.496 35.3652 130.915 35.2116 131.454C35.0925 131.89 34.9019 132.48 35.0284 132.91C35.2815 133.77 37.3361 134.341 37.2711 135.535C37.2388 136.266 34.2374 136.147 33.6631 136.583C32.8782 137.188 32.7922 138.709 32.0737 138.92C31.2391 139.179 29.9341 136.292 29.9341 136.292Z" fill="black"/>
<path d="M24.677 139.865C27.1072 143.072 31.3142 144.603 35.0677 143.235C38.8315 141.847 41.1447 137.92 41.3049 133.901C41.386 131.949 40.9747 129.845 39.8655 128.194C38.6674 126.404 36.6984 125.797 34.7941 125.137C31.1874 123.908 25.4779 123.627 23.554 127.736C22.641 129.686 22.541 132.171 22.6299 134.32C22.6717 135.494 22.8579 136.725 23.3353 137.804C23.6748 138.578 24.3432 139.057 24.6591 139.804C24.7733 140.084 25.2147 139.954 25.1004 139.674C24.8528 139.104 24.571 138.907 24.1955 138.391C23.6411 137.648 23.3894 136.684 23.2335 135.774C22.9084 133.908 23.0273 131.813 23.3589 129.952C23.6905 128.091 24.5264 126.478 26.2319 125.646C28.1153 124.713 30.4591 124.584 32.5114 124.985C33.4793 125.178 34.4197 125.495 35.3645 125.827C36.3138 126.174 37.2983 126.477 38.1393 127.054C39.7594 128.159 40.537 130.205 40.7783 132.111C41.2431 135.864 39.6945 139.945 36.5364 141.979C32.7742 144.404 27.7894 143.217 25.0723 139.633C24.889 139.39 24.4936 139.622 24.677 139.865Z" fill="black"/>
<path d="M27.2903 131.416C26.7762 131.353 26.2488 131.245 25.7507 131.127C25.4605 131.065 25.3514 131.509 25.6461 131.587C26.1633 131.715 26.6716 131.812 27.1856 131.875C27.467 131.908 27.5863 131.444 27.2903 131.416Z" fill="black"/>
<path d="M28.8151 137.955C28.7501 138.386 28.6807 138.802 28.6157 139.233C28.5739 139.526 29.0278 139.656 29.0652 139.348C29.1301 138.917 29.1996 138.501 29.2645 138.07C29.3019 137.763 28.8525 137.648 28.8151 137.955Z" fill="black"/>
<path d="M34.4684 137.775C34.5408 138.347 34.9849 138.661 35.1808 139.164C35.295 139.443 35.7364 139.314 35.6221 139.034C35.4486 138.607 34.9911 138.247 34.9307 137.771C34.8901 137.47 34.4277 137.474 34.4684 137.775Z" fill="black"/>
<path d="M36.4405 132.58C36.8582 132.424 37.2625 132.223 37.6579 131.991C37.9151 131.833 37.668 131.428 37.4108 131.586C37.0595 131.805 36.6949 131.978 36.3066 132.125C36.0315 132.223 36.1654 132.678 36.4405 132.58Z" fill="black"/>
<path d="M31.9827 128.783C32.1399 128.176 32.1852 127.57 32.148 126.954C32.1221 126.649 31.6597 126.653 31.6857 126.959C31.7287 127.539 31.6744 128.116 31.5333 128.668C31.4575 128.954 31.9114 129.084 31.9827 128.783Z" fill="black"/>
</g>
<g clip-path="url(#clip4_1043_4041)">
<path d="M75.4248 109.778C69.5398 109.91 67.0036 108.272 66.7601 107.561C66.1346 105.668 72.1982 101.023 72.6218 100.252C72.8893 99.7646 71.8652 94.0731 72.1574 93.204C72.697 91.547 74.8736 91.9621 76.4345 92.7287C77.9954 93.4952 78.9169 94.4158 80.6584 94.5163C83.0633 94.6599 87.4399 90.6823 89.4881 91.4757C91.5363 92.2691 89.8005 95.9124 89.3854 97.2944C89.0633 98.4107 88.5497 99.9238 88.8724 101.021C89.5179 103.214 94.8986 104.627 94.7016 107.682C94.6007 109.55 86.7244 109.314 85.2071 110.441C83.1334 112.005 82.8741 115.895 80.9834 116.451C78.7867 117.131 75.4248 109.778 75.4248 109.778Z" fill="black"/>
<path d="M61.546 119.029C67.8548 127.175 78.8644 130.995 88.748 127.415C98.659 123.784 104.818 113.693 105.327 103.415C105.583 98.4231 104.55 93.0536 101.675 88.8566C98.5694 84.3071 93.4141 82.7981 88.4296 81.1549C78.9888 78.0912 64.0072 77.4983 58.8659 88.0464C56.4263 93.0508 56.1088 99.406 56.2947 104.899C56.3784 107.9 56.8402 111.042 58.0695 113.79C58.9436 115.76 60.6878 116.97 61.5004 118.874C61.7941 119.586 62.9555 119.245 62.6619 118.532C62.0245 117.081 61.289 116.583 60.3146 115.273C58.8757 113.385 58.2362 110.925 57.8471 108.602C57.0349 103.84 57.3933 98.4817 58.3049 93.7168C59.2165 88.9519 61.4465 84.8076 65.942 82.6444C70.9067 80.2171 77.062 79.8348 82.4406 80.8158C84.9773 81.2881 87.4388 82.0768 89.9118 82.9041C92.396 83.7701 94.9737 84.5246 97.1687 85.98C101.397 88.7703 103.393 93.9824 103.985 98.8514C105.122 108.435 100.967 118.903 92.6312 124.171C82.7016 130.455 69.6423 127.531 62.589 118.428C62.1132 117.811 61.0701 118.412 61.546 119.029Z" fill="black"/>
<path d="M68.5931 97.3718C67.245 97.2221 65.8628 96.9564 64.558 96.6679C63.7975 96.5134 63.5013 97.6512 64.2732 97.8443C65.6281 98.1601 66.9602 98.3985 68.3083 98.5482C69.0461 98.6253 69.3696 97.4375 68.5931 97.3718Z" fill="black"/>
<path d="M72.4503 114.055C72.2702 115.159 72.0788 116.224 71.8987 117.327C71.7825 118.076 72.9711 118.399 73.076 117.611C73.256 116.508 73.4475 115.443 73.6276 114.339C73.7324 113.552 72.5552 113.268 72.4503 114.055Z" fill="black"/>
<path d="M87.2954 113.47C87.4728 114.93 88.6318 115.724 89.1348 117.005C89.4285 117.717 90.5899 117.375 90.2963 116.663C89.8501 115.576 88.657 114.666 88.5092 113.449C88.4091 112.68 87.1953 112.701 87.2954 113.47Z" fill="black"/>
<path d="M92.5875 100.146C93.6875 99.7379 94.7533 99.2142 95.7963 98.6131C96.475 98.2033 95.8353 97.1728 95.1566 97.5826C94.2297 98.1495 93.2687 98.6004 92.2461 98.9853C91.5219 99.2404 91.8633 100.401 92.5875 100.146Z" fill="black"/>
<path d="M80.9683 90.5365C81.3944 88.9822 81.5267 87.4304 81.4427 85.8582C81.3813 85.0778 80.1676 85.0987 80.2289 85.8791C80.3289 87.3626 80.1738 88.8371 79.791 90.2525C79.586 90.9852 80.7746 91.3079 80.9683 90.5365Z" fill="black"/>
</g>
<defs>
<clipPath id="clip0_1043_4041">
<rect width="40" height="39" fill="white" transform="translate(117.777 65.7539) rotate(-106.396)"/>
</clipPath>
<clipPath id="clip1_1043_4041">
<rect width="31" height="30" fill="white" transform="translate(155.422 101.585) rotate(-106.396)"/>
</clipPath>
<clipPath id="clip2_1043_4041">
<rect width="20" height="19" fill="white" transform="translate(197.968 61.9644) rotate(-106.396)"/>
</clipPath>
<clipPath id="clip3_1043_4041">
<rect width="20" height="19" fill="white" transform="translate(25.6865 146.012) rotate(-106.396)"/>
</clipPath>
<clipPath id="clip4_1043_4041">
<rect width="51" height="50" fill="white" transform="translate(64.0601 134.721) rotate(-106.396)"/>
</clipPath>
</defs>
</svg>
