<svg width="217" height="214" viewBox="0 0 217 214" fill="none" xmlns="http://www.w3.org/2000/svg">
<path d="M1.7998 59.3002C1.7998 50.8002 1.7998 42.3002 1.7998 33.8002C1.7998 31.8002 3.0998 30.3002 4.9998 29.9002C9.0998 29.1002 13.1998 28.7002 17.3998 28.3002C21.4998 27.9002 25.5998 27.1002 29.6998 26.6002C33.5998 26.1002 37.3998 25.6002 41.2998 25.4002C46.5998 25.0002 51.8998 24.8002 57.1998 24.1002C60.8998 23.7002 64.5998 23.5002 68.2998 23.1002C73.2998 22.5002 78.2998 22.4002 83.1998 21.7002C88.3998 21.0002 93.5998 20.4002 98.7998 19.5002C100.1 19.3002 100.6 20.2002 99.8998 21.6002C98.1998 25.4002 96.5998 29.2002 95.7998 33.4002C95.0998 37.0002 94.8998 40.6002 95.0998 44.2002C95.2998 47.4002 95.3998 50.6002 96.5998 53.6002C99.4998 60.8002 104 66.7001 110.5 71.1002C114 73.4002 117.7 75.1002 121.6 76.2001C123.6 76.8001 125.7 76.0002 127.7 75.9002C132.5 75.6002 137.3 75.5002 142.2 75.9002C147.2 76.3002 152.3 76.9002 157.3 77.7001C161.8 78.4002 166.3 79.4002 170.4 81.4002C175.9 84.1002 180.6 87.6002 183.5 93.4002C185.3 97.1002 187.3 100.7 188 104.8C188.6 108.2 189.1 111.6 189.6 115C190.4 120.7 189.9 126.3 190.4 132C190.9 137.3 192.3 142.3 194 147.3C195.6 152.2 197.4 157 199.2 161.8C199.4 162.2 199.4 162.6 199.9 162.8C200.7 163.2 200.6 163.9 200.5 164.5C200.4 165.1 199.9 165.4 199.2 165.5C193.6 166.5 188 167.5 182.4 168.5C174.4 170 166.4 171.7 158.6 173.8C150 176.1 141.2 177.1 132.6 179.1C126.9 180.4 121.2 181.4 115.5 182.4C114.1 182.6 112.7 182.9 111.3 182.9C104.6 183 97.9998 184 91.3998 185.6C87.5998 186.5 83.7998 186.9 79.8998 187.6C77.8998 187.9 75.8998 188.4 73.9998 188.8C72.8998 189.1 72.5998 188.3 72.4998 187.6C71.5998 183.6 70.7998 179.6 70.1998 175.5C69.5998 170.8 69.1998 166 69.3998 161.3C69.5998 155 69.7998 148.6 70.7998 142.3C71.3998 138.4 71.7998 134.5 72.4998 130.6C72.7998 128.9 72.0998 128.8 70.7998 128.8C65.7998 129 60.8998 129.3 55.8998 129.3C49.3998 129.4 42.8998 129.9 36.3998 130.3C30.2998 130.7 24.2998 130.7 18.2998 129.6C16.2998 129.2 15.0998 127.5 13.7998 126.1C7.6998 119.4 5.5998 111.1 3.8998 102.5C1.0998 88.4002 1.9998 73.8002 1.7998 59.3002Z" fill="#010101"/>
<path d="M166.7 71.0002C162.4 71.2002 158.9 69.4002 155.4 67.1002C152.9 65.4002 150.4 63.7002 148.5 61.3002C147.8 60.4002 147.2 59.4002 146.7 58.3002C145.9 56.5002 146.3 54.2002 147.9 53.2002C149.1 52.5002 149 51.6002 148.8 50.6002C148.7 50.0002 148.4 49.5002 148.3 48.9002C148.2 48.2002 148.2 47.5002 149.1 47.3002C149.9 47.2002 150.4 47.5002 150.7 48.2002C151.1 49.2002 150.7 50.7002 151.9 51.2002C152.8 51.6002 154 50.8002 155.1 51.0002C156.1 51.2002 156.3 50.7002 156.3 49.8002C156.2 48.8002 156.1 47.8002 156.7 46.9002C157 46.4002 157.3 45.9002 158 46.2002C158.5 46.4002 158.9 46.8002 158.8 47.5002C158.7 48.4002 158.6 49.4002 158.5 50.3002C158.4 51.2002 158.8 51.6002 159.6 51.7002C160 51.7002 160.3 51.9002 160.7 52.0002C161.8 52.4002 163.1 53.3002 164 53.0002C164.9 52.8002 164.9 51.0002 165.5 50.1002C165.9 49.5002 166.3 48.5002 167.3 49.1002C168.2 49.6002 167.8 50.3002 167.5 51.1002C167 52.1002 166 53.3002 166.1 54.2002C166.2 55.0002 167.7 55.7002 168.5 56.4002C168.8 56.7002 169.1 56.9002 169.3 57.2002C171.2 59.1002 171.2 59.1002 173.7 57.8002C174.5 57.4002 175.4 57.0002 175.9 57.9002C176.5 58.8002 175.7 59.3002 174.9 59.8002C172.7 61.2002 172.8 61.2002 173.6 63.8002C174.9 67.9002 172.6 70.5002 168.7 71.0002C168.1 71.1002 167.4 71.0002 166.7 71.0002Z" fill="#010101"/>
<path d="M125.5 29.1001C125.4 32.3001 125.4 32.3001 128.2 33.3001C130.9 34.3001 130.9 34.2001 132.2 31.7001C132.6 31.0001 132.8 29.5001 134 30.1001C135.4 30.7001 134.6 31.9001 134.2 32.8001C133.8 33.7001 132.8 34.5001 132.9 35.4001C133 36.0001 134.2 36.5001 134.9 37.1001C135.2 37.3001 135.4 37.6001 135.6 37.8001C137.2 39.7001 138.8 41.0001 141.1 38.8001C141.7 38.3001 142.6 38.5001 142.9 39.2001C143.2 39.8001 143 40.5001 142.2 40.8001C142 40.8001 141.9 41.0001 141.8 41.0001C139.6 42.2001 139.7 42.2001 140.5 44.6001C142.2 50.2001 138.3 52.4001 133.4 52.3001C129.9 52.2001 126.7 51.1001 123.8 49.2001C120.1 46.7001 116.3 44.4001 114 40.3001C112.6 37.8001 113.1 35.6001 114.8 34.3001C116 33.4001 116.1 32.6001 115.7 31.4001C115.5 30.9001 115.5 30.3001 115.4 29.8001C115.3 29.1001 115.3 28.5001 116.1 28.4001C116.9 28.2001 117.2 28.8001 117.4 29.4001C117.6 30.0001 117.8 30.7001 117.9 31.3001C118.1 32.3001 118.7 32.6001 119.5 32.3001C120.6 31.9001 121.9 32.5001 122.7 31.9001C123.6 31.3001 122.8 29.9001 123.2 29.0001C123.3 28.7001 123.5 28.3001 123.6 27.9001C123.8 27.4001 124.2 27.1001 124.7 27.2001C125.3 27.4001 125.6 27.7001 125.5 28.4001C125.5 28.8001 125.5 29.1001 125.5 29.1001Z" fill="#010101"/>
<path d="M36.5998 179.2C36.3998 177.8 36.6998 176.4 37.1998 175.1C37.4998 174.2 37.4998 173.7 36.2998 173.5C35.2998 173.4 34.3998 172.9 33.4998 172.5C33.0998 172.3 32.6998 172 32.9998 171.5C33.2998 171 33.6998 170.6 34.1998 171.1C34.9998 171.8 35.8998 171.7 36.7998 172C38.2998 172.6 39.1998 172.2 39.9998 170.9C40.2998 170.3 39.8998 170.1 39.6998 169.7C39.1998 168.9 38.5998 168.2 38.0998 167.4C37.7998 166.9 37.6998 166.3 38.2998 165.9C38.8998 165.5 39.1998 166 39.4998 166.4C39.7998 166.8 40.1998 167.3 40.4998 167.7C41.6998 169.5 42.5998 169.6 44.1998 168.2C44.5998 167.8 44.5998 167.4 44.3998 166.8C44.0998 165.9 43.8998 165 43.6998 164.1C43.4998 163.4 43.6998 162.8 44.3998 162.6C45.0998 162.4 45.2998 163 45.3998 163.6C45.4998 164.1 45.6998 164.5 45.6998 165C46.0998 167.4 46.1998 167.5 48.5998 167.6C51.4998 167.8 54.5998 170.8 55.0998 174C55.4998 177.1 54.7998 179.5 53.1998 181.9C50.9998 185 44.8998 187.9 40.0998 185.7C37.1998 184.5 36.2998 182.2 36.5998 179.2Z" fill="#010101"/>
<path d="M23.3997 168.5C23.2997 167.9 23.2997 167.3 23.1997 166.7C23.0997 166 23.4997 165.6 23.9997 165.5C24.5997 165.4 24.8997 165.9 24.8997 166.5C24.8997 167.1 24.8997 167.6 24.8997 168.2C24.8997 169.7 24.9997 170.7 27.0997 170.9C30.1997 171.1 32.2997 174.6 32.3997 177.7C32.3997 180.9 31.2997 183.3 28.9997 185.2C25.3997 188.2 19.9997 189 15.8997 185.9C14.6997 185 14.0997 183.6 14.0997 182.1C14.1997 180.1 14.1997 178 15.4997 176.3C16.1997 175.4 16.0997 174.8 14.7997 174.5C13.9997 174.3 13.3997 173.7 12.6997 173.2C12.1997 172.9 12.0997 172.5 12.2997 172.1C12.5997 171.6 13.0997 171.7 13.4997 171.9C14.4997 172.4 15.5997 172.8 16.3997 173.5C17.4997 174.4 17.6997 173.1 18.3997 172.9C19.2997 172.5 18.7997 171.9 18.5997 171.4C18.2997 170.7 17.7997 169.9 17.4997 169.2C17.2997 168.8 17.1997 168.2 17.7997 167.9C18.3997 167.7 18.8997 167.9 19.0997 168.5C19.2997 169 19.4997 169.4 19.6997 169.8C20.3997 171.5 21.3997 171.9 22.7997 170.8C23.6997 170.2 23.0997 169.3 23.3997 168.5Z" fill="#020202"/>
<path d="M53.5 150.6C50.5 150.3 47.4 150.1 44.8 148.2C42.9 146.8 42.2 144.7 43.1 142.6C43.6 141.4 43.3 140.9 42.2 140.5C41.9 140.4 41.6 140.2 41.3 140C40.8 139.7 40.3 139.3 40.7 138.6C41.1 137.9 41.6 138.3 42.1 138.5C42.3 138.6 42.4 138.7 42.5 138.7C43.1 139 43.7 139.9 44.3 139.6C45.2 139.1 45.9 138.2 46.6 137.5C46.9 137.2 46.6 136.9 46.4 136.7C45.9 136.1 45.4 135.5 44.9 134.9C44.6 134.5 44.4 133.9 44.9 133.6C45.4 133.3 45.9 133.5 46.2 133.9C46.3 134 46.4 134.1 46.5 134.3C48.2 136.6 49.1 136.7 51.5 135.5C52 135.2 51.9 134.9 51.9 134.6C51.9 133.9 51.9 133.2 51.9 132.4C51.9 131.8 52 131.4 52.6 131.3C53.3 131.2 53.6 131.9 53.5 132.2C53.1 135 54.9 134.6 56.7 134.9C58.8 135.3 59.9 135.2 59.9 132.8C59.9 132.2 60.4 131.6 61.2 131.9C61.9 132.1 61.7 132.8 61.7 133.3C61.7 133.7 61.5 134 61.4 134.4C61.2 135.5 61.3 136.1 62.5 136.8C66.7 139.1 67.1 143.3 63.6 146.9C61.1 149.9 57.4 150.3 53.5 150.6Z" fill="#010101"/>
<path d="M26.2996 157.6C23.1996 157.5 20.5996 157 18.0996 156.1C15.4996 155.2 14.1996 152.4 15.2996 149.9C15.7996 148.8 15.4996 148.3 14.5996 147.9C14.4996 147.9 14.3996 147.8 14.2996 147.7C13.6996 147.2 12.2996 147.1 12.9996 145.9C13.6996 144.8 14.4996 146 15.2996 146.2C15.7996 146.4 16.2996 147.3 16.7996 146.9C17.5996 146.3 18.2996 145.4 18.9996 144.7C19.1996 144.5 18.8996 144.2 18.6996 144C18.2996 143.6 17.9996 143.2 17.5996 142.8C17.0996 142.2 16.4996 141.5 17.1996 141C17.8996 140.5 18.5996 141.4 18.8996 142C19.3996 142.8 20.1996 143.7 20.7996 143.6C21.8996 143.6 22.9996 142.9 24.0996 142.4C24.5996 142.2 24.3996 141.5 24.2996 141C24.1996 140.4 23.9996 139.8 24.0996 139.2C24.1996 138.8 24.2996 138.5 24.7996 138.5C25.2996 138.5 25.4996 138.6 25.5996 139.1C25.5996 139.2 25.6996 139.3 25.6996 139.4C25.0996 142.3 26.9996 142 28.7996 141.9C29.7996 141.8 30.7996 142.8 31.5996 142.3C32.3996 141.8 31.8996 140.5 32.2996 139.5C32.4996 139 32.6996 138.7 33.2996 138.8C33.7996 138.9 33.8996 139.3 33.7996 139.7C33.7996 140 33.6996 140.2 33.5996 140.5C33.2996 142 33.4996 143.1 35.0996 143.9C38.7996 145.8 39.2996 148.6 37.0996 152.1C35.2996 155 32.4996 156.4 29.1996 157C28.0996 157.4 26.9996 157.8 26.2996 157.6Z" fill="#020202"/>
<path d="M186.6 10.3C187.2 9.80001 187.8 9.40001 188.4 9.00001C189 8.60001 189.6 8.50001 190.2 9.10001C190.7 9.70001 190.3 10.2 189.8 10.7C188.7 11.8 187.5 12.6 186.3 13.4C185.9 13.6 185.4 13.8 185.6 14.4C185.7 14.9 186.3 14.9 186.7 14.9C187.6 15 188.5 15 189.3 15.2C190 15.3 190.5 15.8 190.4 16.6C190.3 17.4 189.7 17.7 189 17.6C188.7 17.6 188.5 17.5 188.2 17.5C187.4 17.3 186.9 17.4 187.2 18.5C187.4 19.2 187.3 19.9 187.4 20.6C187.5 21.3 187.1 21.9 186.5 22C185.9 22.1 185.5 21.5 185.2 21C184.7 20.2 185.4 19.1 184.5 18.3C183.8 19.2 183.8 20.2 183.5 21.2C183.3 22 182.9 22.2 182.2 22.1C181.3 22 181.3 21.4 181.3 20.8C181.3 19.7 181.8 18.7 182 17.6C182.1 17.2 182.5 16.9 182 16.6C181.7 16.4 181.3 16.7 181 16.9C179.8 17.7 178.5 18.5 177.5 19.6C176.9 20.2 176.1 20.6 175.5 20C174.7 19.3 175.2 18.5 175.9 17.9C176.7 17.2 177.5 16.5 178.4 15.7C177.7 15.5 177.1 15.1 176.3 15.2C175.7 15.3 174.9 15 175 14.1C175 13.3 175.5 13 176.3 12.9C177.6 12.8 178.8 13.3 180 13.6C180.7 13.8 181.5 14.2 182 13.6C182.5 13 181.6 12.5 181.4 12C180.9 11.1 180.4 10.3 179.9 9.40001C179.6 8.90001 179.6 8.40001 179.6 7.80001C179.6 7.10001 180 6.60001 180.6 6.50001C181.3 6.30001 181.8 6.80001 181.9 7.50001C182.1 8.50001 182.5 9.30001 183 10.2C183.2 10.5 183.3 11 183.8 10.9C184.2 10.8 184.1 10.4 184.2 10.1C184.3 9.50001 184.5 8.90001 184.7 8.40001C185 7.60001 185.5 7.20001 186.4 7.50001C187.2 7.70001 187 8.40001 187 9.00001C186.6 9.20001 186.1 9.60001 186.6 10.3Z" fill="#020202"/>
<path d="M199.1 40.8002C199.4 38.9002 199.1 37.2002 199.5 35.6002C199.7 34.8002 199.9 34.2002 200.8 34.2002C201.9 34.3002 201.7 35.1002 201.8 35.8002C201.8 36.6002 201.6 37.3002 202 38.2002C202.5 37.7002 203 37.1002 203.5 36.7002C203.9 36.4002 204.3 36.0002 204.8 36.5002C205.3 36.9002 205.2 37.5002 205 38.0002C204.9 38.4002 204.5 38.8002 204.3 39.1002C203.7 39.8002 202.5 40.6002 204.7 40.6002C205.3 40.6002 205.3 41.1002 205.4 41.4002C205.4 41.8002 205.3 42.2002 204.8 42.4002C204.1 42.7002 203.4 43.0002 202.6 43.0002C202.4 43.0002 202 42.9002 201.9 43.3002C201.8 43.7002 202 43.8002 202.3 44.1002C203.6 45.1002 204.7 46.4002 205.7 47.7002C206.1 48.3002 206.7 49.1002 205.7 49.7002C204.9 50.2002 204.3 49.7002 203.8 49.0002C203.1 48.1002 202.6 47.0002 201.4 46.5002C200.8 47.5002 200.9 48.8002 200.6 49.9002C200.4 50.5002 200.1 51.0002 199.5 50.9002C198.8 50.9002 198.5 50.3002 198.5 49.6002C198.6 48.6002 198.8 47.5002 198.9 46.5002C198.9 46.2002 199.1 45.8002 198.7 45.6002C198.3 45.4002 198.1 45.8002 197.9 46.1002C197.3 47.0002 196.5 47.7002 195.8 48.4002C195.3 49.0002 194.7 49.4002 194 48.7002C193.3 48.0002 193.8 47.4002 194.3 46.9002C195.2 45.8002 196 44.8002 196.9 43.7002C195.8 43.3002 194.9 43.7002 194.1 44.0002C193.2 44.3002 192.6 44.0002 192.3 43.3002C191.9 42.4002 192.7 42.1002 193.4 41.8002C194.2 41.5002 195.5 41.8002 195.8 41.1002C196.2 40.3002 194.9 39.7002 194.6 38.9002C194.3 38.1002 194.2 37.5002 194.9 37.0002C195.7 36.4002 196.2 37.1002 196.6 37.7002C197 39.0002 197.9 39.9002 199.1 40.8002Z" fill="#020202"/>
<path d="M55.5 197.3C55.3 196.3 55.1 195.4 55 194.6C54.9 193.6 55.2 192.7 56.2 192.6C57.2 192.5 57.4 193.3 57.4 194.2C57.4 195 57.6 195.7 57.7 196.5C57.8 196.9 57.7999 197.3 58.2999 197.4C58.7999 197.5 58.9 197 59.2 196.8C59.5 196.4 59.7999 196 60.0999 195.6C60.5999 195.2 61.0999 195.2 61.5999 195.6C61.9999 196 62.1999 196.3 61.7999 196.9C61.4 197.5 61.1 198.2 60.7 198.9C61.7 199.1 63.1999 198 63.5999 199.7C63.9999 201.5 62 200.7 61.4 201.6C61.6 202.3 62.5999 202.5 63.0999 203.1C63.6999 203.7 63.9 204.3 63.4 205C62.9 205.7 62.2 205.3 61.7 204.9C60.7 204.2 59.7 203.5 58.4 202.6C58.4 203.7 58.4 204.6 58.4 205.5C58.4 206.1 58.3 206.5 57.7 206.6C57.1 206.7 56.5999 206.6 56.2999 205.8C55.9999 204.9 56.1 204.1 56 203.1C54.8 203.5 54.5 204.5 54 205.4C53.5 206.3 52.9 206.6 52.2 206.2C51.4 205.8 51.7 204.9 51.9 204.3C52.1 203.8 52.5 203.4 52.9 202.8C51.9 202.8 51.0999 203 50.2999 203.3C49.4999 203.7 48.8 203.7 48.5 202.8C48.2 202 48.7 201.4 49.4 201.1C50.4 200.7 51.4999 200.5 52.5999 200.3C53.1999 200.1 53.8999 200 54.7999 199.8C53.4999 198.7 52.3999 197.8 51.2999 196.9C50.8999 196.5 50.5 196.1 50.2 195.6C49.9 195 49.9 194.4 50.5 194C51.1 193.6 51.5999 193.8 52.0999 194.3C52.8999 195.4 54 196.3 55.5 197.3Z" fill="#020202"/>
<path d="M116.8 11.3002C117 10.3002 117.1 9.5002 117.2 8.7002C117.3 8.0002 117.4 7.4002 118.2 7.5002C119 7.5002 119.4 8.1002 119.4 8.8002C119.4 10.2002 119.4 11.5002 119.4 13.2002C120.5 12.4002 121.3 11.7002 122.2 11.1002C122.9 10.6002 123.8 10.0002 124.5 11.0002C125.1 12.0002 124.3 12.6002 123.5 13.0002C123.2 13.2002 123 13.3002 122.4 13.7002C123.6 13.9002 124.6 14.0002 125.5 14.1002C126.3 14.2002 126.5 14.8002 126.5 15.4002C126.5 16.1002 126 16.3002 125.4 16.3002C124.2 16.3002 123 16.3002 121.6 16.3002C122.2 17.3002 123.2 17.8002 123.9 18.4002C124.4 18.8002 125 19.3002 124.4 20.1002C123.8 20.9002 123.1 20.7002 122.5 20.2002C121.9 19.7002 121.3 19.2002 120.8 18.6002C120.5 18.3002 120.2 17.8002 119.8 17.9002C119.2 18.1002 119.4 18.7002 119.3 19.2002C119.2 19.7002 119.2 20.3002 119.3 20.9002C119.3 21.7002 119 22.4002 118.1 22.4002C117.3 22.4002 117 21.7002 117 21.0002C117 20.5002 117 20.0002 117 19.4002C116.1 19.6002 115.7 20.4002 115.1 20.9002C114.5 21.4002 114 21.6002 113.4 20.9002C112.8 20.3002 112.9 19.7002 113.4 19.2002C114.3 18.4002 115.2 17.6002 116.2 16.6002C114.8 15.9002 113.7 16.4002 112.6 16.4002C111.9 16.4002 111 16.6002 110.9 15.5002C110.8 14.6002 111.5 14.3002 112.2 14.1002C113.3 13.7002 114.4 14.1002 115.8 13.8002C114.9 12.8002 114.1 12.0002 113.3 11.3002C112.7 10.7002 112.3 10.2002 113 9.5002C113.7 8.8002 114.3 9.3002 114.8 9.8002C115.4 10.4002 116 10.9002 116.8 11.3002Z" fill="#020202"/>
<path d="M115.4 63.4001C114.2 63.3001 113.2 62.9001 112.1 63.0001C111.2 63.1001 110.5 62.7001 110.5 61.8001C110.5 60.8001 111.3 60.7001 112.2 60.7001C112.7 60.7001 113.2 60.7001 113.7 60.7001C113.7 59.9001 112.9 59.9001 112.5 59.5001C111.9 58.9001 111.5 58.3001 112 57.6001C112.5 57.0001 113.2 57.2001 113.8 57.6001C115.1 58.4001 116.4 59.3001 117.8 60.2001C118.1 58.5001 117.9 57.1001 117.4 55.7001C117.1 54.7001 117.3 53.8001 118.2 53.5001C119.4 53.1001 119.4 54.3001 119.7 55.0001C120 56.0001 120.1 57.0001 120 58.1001C120 58.5001 119.9 59.0001 120.3 59.3001C120.8 59.6001 121.1 59.1001 121.4 58.8001C122.2 58.1001 123 56.9001 123.9 58.2001C124.8 59.5001 123.3 60.0001 122.4 60.9001C123.5 61.1001 124.5 60.9001 125.4 61.3001C126 61.5001 126.5 61.9001 126.4 62.5001C126.3 63.1001 125.8 63.5001 125.1 63.5001C124.2 63.5001 123.2 63.5001 122.2 63.5001C122.2 64.4001 122.9 64.8001 123.3 65.3001C123.7 65.9001 124 66.5001 123.3 67.0001C122.7 67.5001 122.1 67.3001 121.6 66.8001C121.3 66.5001 121.1 66.1001 120.6 66.0001C120.1 66.4001 120.4 67.0001 120.4 67.5001C120.4 68.1001 120.2 68.7001 119.5 68.6001C118.9 68.6001 118.4 68.3001 118.2 67.5001C118.2 67.3001 118.2 67.2001 118.2 67.0001C118.1 66.3001 118.6 65.2001 117.9 64.8001C117.3 64.5001 116.9 65.6001 116.3 65.9001C115.8 66.2001 115.2 66.5001 114.6 65.9001C114 65.3001 114.3 64.8001 114.6 64.3001C114.8 64.1001 115.1 63.8001 115.4 63.4001Z" fill="#020202"/>
<path d="M3.69982 161.9C2.89982 161.7 2.29982 161.9 1.59982 162.1C0.999824 162.2 0.299824 162.1 0.0998236 161.5C-0.100176 160.8 0.299824 160.2 0.999824 159.9C2.09982 159.4 3.39982 159.5 4.89982 159.5C3.89982 158.6 3.09982 157.9 2.29982 157.2C1.69982 156.6 1.19982 155.9 1.79982 155.2C2.49982 154.3 3.29982 155.1 3.89982 155.5C4.59982 156 4.99982 156.9 6.19982 156.9C5.79982 155.4 5.19982 153.5 7.19982 153.1C8.59982 152.8 8.09982 154.6 8.49982 155.5C9.19982 155.5 9.19982 154.7 9.69982 154.5C10.1998 154.2 10.7998 154 11.1998 154.5C11.5998 155 11.7998 155.5 11.2998 156.1C10.6998 156.8 10.1998 157.5 9.49982 158.4C10.6998 158.9 12.3998 157.8 12.7998 159.5C12.9998 160.3 12.1998 160.8 11.1998 160.9C12.0998 162.3 13.3998 162.9 14.4998 163.8C14.9998 164.2 15.6998 164.6 15.1998 165.4C14.5998 166.2 13.8998 166.2 13.1998 165.7C12.0998 164.9 10.9998 164.1 9.79982 163.2C9.39982 163.8 9.59982 164.4 9.59982 164.9C9.59982 165.4 9.59982 165.9 8.89982 166C8.29982 166.1 7.69982 165.9 7.39982 165.3C7.19982 164.8 7.19982 164.2 7.09982 163.7C6.99982 163.3 7.29982 162.7 6.69982 162.6C6.29982 162.5 5.99982 163.1 5.69982 163.4C5.19982 164.1 4.79982 164.8 4.39982 165.5C3.99982 166.3 3.29982 166.3 2.69982 166C1.99982 165.7 2.09982 165 2.29982 164.4C2.49982 163.4 2.99982 162.7 3.69982 161.9Z" fill="#020202"/>
<path d="M192.2 94.4001C189.5 94.3001 188 92.7001 186.7 91.1001C184.8 88.7001 183.6 86.0001 185.1 82.9001C185.3 82.5001 185.4 82.1001 185.7 81.9001C187.1 81.1001 188.6 80.5001 188.8 78.5001C188.8 78.2001 189.5 78.1001 189.8 78.3001C190.2 78.5001 190.4 78.9001 190.1 79.4001C189.5 80.7001 189.7 81.6001 191.2 82.1001C191.6 82.2001 192 82.6001 192.2 82.9001C193 84.1001 193.9 84.7001 195.3 84.0001C195.8 83.8001 196.5 83.9001 196.6 84.6001C196.7 85.4001 196 85.4001 195.5 85.5001C194.5 85.7001 193.9 86.1001 194.5 87.3001C194.8 87.8001 195.1 88.4001 195 89.0001C194.9 90.2001 195.4 90.6001 196.5 90.4001C197.1 90.3001 197.4 90.6001 197.5 91.2001C197.6 91.9001 197 92.0001 196.5 91.9001C195.5 91.8001 194.8 92.0001 194.2 93.0001C193.9 94.1001 192.9 94.6001 192.2 94.4001Z" fill="#020202"/>
<path d="M153.1 27.6C153.5 26.6 153.6 26 153.9 25.4C154.1 25 154.5 24.6 155 24.8C155.5 24.9 155.8 25.3 155.9 25.9C156 26.8 155.7 27.7 155.4 28.7C156.2 28.9 156.7 28.4 157.3 28.1C158 27.7 158.5 27.9 158.8 28.5C159.3 29.1 159 29.7 158.4 30.1C157.8 30.5 157.2 30.7 156.5 31.1C157.1 31.9 159.5 31.3 158.6 33.2C158 34.5 156.4 33.6 155.2 33.6C155.4 34.4 155.7 35.1 155.9 35.9C156.2 36.7 156.6 37.6 155.5 38C154.5 38.3 154 37.6 153.7 36.6C153.2 37.3 152.9 38.2 151.9 37.7C151 37.3 151 36.6 151.3 35.7C151.5 34.9 151.5 34.1 151.6 33.2C150.6 33.4 150 33.9 149.4 34.4C148.7 34.9 148.1 35.3 147.4 34.5C146.7 33.7 147.3 33.1 147.9 32.5C148.2 32.2 148.5 32.1 148.8 31.8C148.6 31.3 148.2 31.5 147.9 31.5C147 31.5 146.3 31.1 146.5 30.1C146.7 29.2 147.3 28.8 148.2 29.1C149.2 29.3 150.2 29.6 151.3 29.9C151 28.9 150.7 28.1 150.1 27.3C149.7 26.8 149 26.2 149.9 25.5C150.8 24.8 151.4 25.2 152 25.9C152.3 26.3 152.6 26.8 153.1 27.6Z" fill="#020202"/>
<path d="M201.3 95.9002C200.4 97.1002 201.1 98.2002 202.2 99.2002C202.6 99.6002 202.8 100.2 202.9 100.7C203.1 101.7 203.6 102.2 204.7 102C205.3 101.9 206.1 101.9 206.1 102.7C206.2 103.5 205.4 103.9 204.8 103.8C203.6 103.7 203.4 104.3 203.5 105.3C203.5 105.7 203.6 106.2 203.4 106.6C202.9 107.8 203.4 108.2 204.5 108.4C205.2 108.5 205.9 108.7 205.7 109.6C205.4 110.5 204.7 110.3 204.1 110C203.1 109.6 202.3 109.7 201.3 110.1C199.4 110.8 197.7 110 196.6 108.5C194.1 105.1 193.6 100.7 196.2 97.1002C196.4 96.8002 196.7 96.5002 196.9 96.5002C198.4 96.5002 199.9 96.6002 200.3 94.6002C200.3 94.4002 200.7 94.2002 201 94.4002C201.4 94.7002 201.4 95.2002 201.3 95.9002Z" fill="#020202"/>
<path d="M58.5997 160.3C57.8997 159.4 56.8997 158.9 55.9997 158.3C55.1997 157.7 54.0997 157 54.7997 156C55.5997 154.8 56.5997 155.8 57.2997 156.3C58.0997 156.9 58.7997 157.5 59.7997 157.9C59.7997 157 59.6997 156.1 59.7997 155.3C59.8997 154.5 60.1997 153.8 61.1997 153.8C62.1997 153.9 62.1997 154.7 62.0997 155.4C62.0997 155.6 62.0997 155.8 62.0997 156.1C62.0997 158.1 62.0997 158.1 63.8997 157.3C64.5997 157 65.4997 156.6 65.8997 157.5C66.2997 158.3 65.9997 159.1 64.9997 159.4C64.3997 159.6 63.5997 159.8 63.5997 160.4C63.5997 161.1 64.4997 161.2 65.0997 161.4C66.0997 161.9 66.7997 162.6 67.3997 163.4C67.7997 163.9 67.7997 164.4 67.2997 164.9C66.7997 165.4 66.3997 165.5 65.8997 164.9C65.4997 164.5 65.0997 164.2 64.5997 163.9C62.3997 162.4 62.2997 162.4 62.0997 165.1C61.9997 166 61.5997 166.6 60.6997 166.7C59.4997 166.7 59.6997 165.8 59.5997 165C59.4997 164.2 60.0997 163.1 59.2997 162.7C58.8997 162.5 58.0997 163.3 57.4997 163.8C56.9997 164.3 56.2997 164.3 55.8997 163.8C55.3997 163.3 55.4997 162.7 55.8997 162.1C56.7997 161.2 57.7997 161 58.5997 160.3Z" fill="#020202"/>
<path d="M16.4998 203.9C16.4998 202.8 15.8998 202.2 15.9998 201.3C15.9998 200.8 16.0998 200.3 16.6998 200.1C17.2998 199.9 17.7998 200.1 18.0998 200.7C18.2998 201.2 18.6998 201.7 18.6998 202.2C18.6998 203.7 19.4998 203.5 20.3998 203.1C21.3998 202.7 22.5998 201.6 23.1998 203.1C23.7998 204.6 22.0998 204.7 21.2998 205.2C20.8998 205.5 20.4998 205.7 19.8998 206C20.9998 206.8 22.0998 207.6 23.0998 208.4C23.6998 208.8 23.9998 209.5 23.3998 210.1C22.8998 210.6 22.2998 210.6 21.5998 210.1C21.0998 209.7 20.4998 209.2 19.6998 209C19.6998 209.5 19.6998 209.9 19.6998 210.3C19.6998 211 19.5998 211.6 18.6998 211.7C17.6998 211.8 17.2998 211.1 17.2998 210.4C17.1998 209.5 17.0998 208.5 16.8998 207.6C15.7998 207.9 15.0998 208.7 14.1998 209.4C13.6998 209.8 13.0998 210.1 12.5998 209.6C12.0998 209.1 12.1998 208.4 12.6998 207.8C12.9998 207.5 13.2998 207.1 13.5998 206.9C15.0998 206 14.4998 205.4 13.2998 204.8C12.5998 204.5 11.9998 204 11.3998 203.5C10.5998 202.9 10.3998 202 11.0998 201.2C11.7998 200.4 12.3998 201.1 12.8998 201.6C13.8998 202.5 15.1998 203.1 16.4998 203.9Z" fill="#020202"/>
<path d="M205.5 78.5001C204.2 78.3001 203 78.1001 201.8 77.9001C200.9 77.8001 200.4 77.3001 200.6 76.3001C200.8 75.4001 201.5 75.5001 202.3 75.6001C204 75.9001 205.6 76.0001 207.4 76.3001C207.3 75.2001 206.6 74.5001 206.3 73.6001C206 72.9001 205.9 72.3001 206.7 71.9001C207.5 71.5001 208.1 71.9001 208.4 72.7001C208.9 73.9001 209.4 74.9001 210.9 73.7001C211.3 73.3001 212 73.4001 212.3 74.0001C212.6 74.5001 212.5 75.0001 212.1 75.5001C211.7 75.9001 211.4 76.3001 210.9 76.9001C212.3 77.2001 213.5 77.5001 214.7 77.8001C215.5 78.0001 216.3 78.4001 216.1 79.3001C215.9 80.3001 215 80.2001 214.2 80.0001C213.6 79.9001 212.9 79.8001 212.3 79.7001C210.5 79.3001 210.5 79.3001 211 81.1001C211.1 81.6001 211.3 82.2001 211.4 82.7001C211.6 83.4001 211.4 83.9001 210.6 84.1001C209.8 84.3001 209.5 83.8001 209.3 83.2001C208.9 82.0001 208.6 80.8001 208.2 79.5001C207.4 79.9001 207 80.7001 206.3 81.1001C205.3 81.7001 204.5 81.8001 203.9 80.8001C203.4 79.8001 204.2 79.3001 205 79.0001C205.2 78.8001 205.3 78.7001 205.5 78.5001Z" fill="#020202"/>
<path d="M151.6 203.7C151.6 203.1 151.8 202.7 152.3 202.5C152.8 202.3 153.2 202.4 153.5 202.8C154.4 204.2 155.4 205.4 156.1 206.9C156.4 207.5 156.2 207.8 155.8 208.2C155.4 208.5 154.9 208.6 154.6 208.3C153.3 207 152.2 205.5 151.6 203.7Z" fill="#060606"/>
<path d="M23.5998 9.3001C23.3998 9.6001 23.3998 10.0001 23.0998 10.2001C22.5998 10.5001 22.0998 10.5001 21.6998 10.1001C20.6998 8.9001 19.7998 7.7001 18.8998 6.5001C18.5998 6.1001 18.5998 5.7001 18.8998 5.3001C19.2998 4.8001 19.7998 5.0001 20.2998 5.1001C20.6998 5.2001 23.5998 8.8001 23.5998 9.3001Z" fill="#040404"/>
<path d="M177.5 190.1C178.1 190.1 181.2 192.5 181.4 193.3C181.5 193.8 181.3 194.1 180.9 194.4C180.5 194.8 180.1 194.8 179.7 194.5C178.7 193.7 177.7 193 176.7 192.2C176.2 191.8 176.3 191.2 176.4 190.7C176.6 190.3 176.9 190.1 177.5 190.1Z" fill="#060606"/>
<path d="M52.6997 1.4001C52.3997 2.3001 52.5997 3.2001 52.4997 4.0001C52.4997 4.9001 51.9997 5.3001 51.0997 5.3001C50.1997 5.4001 50.0997 4.7001 49.8997 4.0001C49.6997 2.9001 49.9997 1.8001 50.2997 0.800103C50.3997 0.300103 50.8997 -0.299897 51.6997 0.000103436C52.3997 0.300103 52.7997 0.700103 52.6997 1.4001Z" fill="#0B0B0B"/>
<path d="M121.8 209.1C121.7 210.2 121.5 211.3 121.5 212.4C121.5 213 121.3 213.4 120.7 213.4C120 213.5 119.6 213.1 119.5 212.5C119.1 210.9 119.8 209.3 119.9 207.6C119.9 207.3 120.4 207 120.8 207C121.3 207 121.7 207.3 121.8 207.8C121.9 208.2 121.8 208.7 121.8 209.1Z" fill="#030303"/>
<path d="M78.5999 6.30022C77.7999 6.30022 77.2999 5.80022 77.6999 5.00022C78.1999 3.60022 79.2999 2.70022 80.4999 1.90022C81.1999 1.40022 81.6999 2.10022 81.8999 2.80022C81.9999 3.40022 79.3999 6.20022 78.5999 6.30022Z" fill="#090909"/>
<path d="M74.5998 88.8C77.5998 88.1 80.2998 87.4 82.9998 86.7C88.0998 85.5 93.1998 84.2 98.2998 83C103.7 81.7 109.1 81 114.5 80C123.2 78.3 132.1 77.7 140.9 78.2C145.1 78.4 149.4 79.1 153.6 79.7C158.3 80.4 163 81.2 167.5 82.8C173.6 85 178.4 88.6 181.4 94.6C183 97.8 184.8 101.1 185.5 104.6C186.3 108.6 187 112.8 187.4 116.9C187.8 121.7 187.7 126.6 188 131.5C188.4 136.5 189.4 141.4 191.1 146.2C193 151.6 194.6 157.1 197 162.3C197.5 163.4 197.1 163.8 196 163.9C190.1 165 184.2 166.2 178.3 167.3C169.3 168.9 160.6 171.5 151.7 173.4C146.1 174.6 140.3 175.5 134.7 176.6C129 177.7 123.2 178.8 117.5 179.9C114.8 180.4 112.1 180.5 109.3 180.7C104 181.1 98.6998 181.4 93.5998 182.9C90.2998 183.9 86.8998 184 83.5998 184.6C81.0998 185.1 78.6998 185.6 76.1998 186.1C75.0998 186.3 74.2998 186.4 73.9998 184.8C73.2998 181 72.7998 177.1 72.2998 173.3C71.6998 168.8 71.5998 164.4 71.6998 159.9C71.8998 153.9 72.3998 147.8 73.0998 141.8C73.7998 135.5 74.7998 129.3 75.9998 123.1C76.6998 119.5 77.6998 115.9 78.2998 112.2C79.1998 106.5 79.6998 100.9 78.4998 95.2C77.9998 92.7 76.8998 90.5 74.5998 88.8Z" fill="#FEFEFE"/>
<path d="M97 22.2002C87.2 46.1002 94.8 66.8002 116.7 77.1002C114.5 77.5002 112.7 78.0002 110.8 78.3002C103.3 79.2002 96 81.3002 88.7 83.1002C83.4 84.4002 78.1 85.1002 72.8 86.4002C68.8 87.3002 64.7 87.6002 61 89.7002C57.5 91.7002 54.3 94.1002 51.2 96.7002C44.6 102.2 39.9 109.4 34.8 116.1C32.8 118.8 31.3 121.9 28.5 123.9C26.1 125.7 23.9 128.1 20.5 127.8C19.3 127.7 18.2 127.4 17.3 126.5C12.6 122.3 10.3 116.8 8.39999 110.9C5.69999 102.3 5.19999 93.4002 4.29999 84.6002C3.69999 78.1002 4.39999 71.6002 4.29999 65.0002C4.09999 54.8002 4.29999 44.6002 4.19999 34.4002C4.19999 33.0002 4.59999 32.4002 5.99999 32.1002C9.39999 31.3002 12.9 31.1002 16.4 30.7002C20 30.3002 23.7 29.8002 27.3 29.3002C31 28.8002 34.7 28.3002 38.4 27.9002C44.2 27.4002 50 27.2002 55.8 26.6002C61.2 26.1002 66.5 25.7002 71.9 25.1002C77.2 24.5002 82.6 24.3002 87.9 23.3002C90.8 23.0002 93.8 22.7002 97 22.2002Z" fill="#FEFEFE"/>
<path d="M53.1997 127.4C46.8997 127.8 40.5997 128.3 34.1997 128.7C31.9997 128.8 29.7997 128.7 27.4997 128.7C27.1997 128.7 26.7997 128.7 26.6997 128.3C26.4997 127.7 27.0997 127.7 27.3997 127.6C30.5997 125.4 33.1997 122.8 35.1997 119.5C38.0997 114.6 41.9997 110.4 45.2997 105.9C48.5997 101.4 52.9997 98.0001 57.2997 94.6001C60.7997 91.8001 64.6997 89.9001 69.4997 89.9001C73.8997 89.9001 75.3997 91.8001 76.1996 95.3001C77.1996 99.4001 76.9997 103.6 76.5997 107.8C75.9997 113.5 74.1997 119 73.4997 124.7C73.2997 126.2 72.5997 126.8 70.9997 126.8C64.9997 126.9 59.0997 127.2 53.0997 127.4C53.1997 127.5 53.1997 127.4 53.1997 127.4Z" fill="#FEFEFE"/>
<path d="M171.6 65.2001C171.6 67.6001 169.7 69.0001 167.9 68.6001C166.9 68.4001 167.3 67.6001 167.3 67.1001C167.2 62.9001 163.5 57.9001 159.6 56.8001C156.5 55.9001 153.6 56.6001 150.6 57.6001C150 57.8001 149.4 58.6001 148.8 57.5001C148.2 56.5001 148.6 55.7001 149.3 55.2001C151.2 53.6001 153.5 53.1001 155.9 53.3001C160.3 53.7001 164.1 55.6001 167.4 58.5001C169.5 60.4001 171.2 62.7001 171.6 65.2001Z" fill="#FDFDFD"/>
<path d="M162.2 63.6002C161 63.9002 160.6 62.9002 160 62.2002C159.5 61.6002 160.2 60.9002 160.3 60.2002C160.4 59.6002 161 60.0002 161.2 60.2002C161.8 60.7002 162.5 61.3002 163 61.9002C163.3 62.3002 164.1 62.5002 163.8 63.2002C163.5 63.7002 162.8 63.7002 162.2 63.6002Z" fill="#FDFDFD"/>
<path d="M165.2 67.3001C165 67.7001 165.6 68.7001 164.5 68.6001C163.6 68.5001 162.4 68.5001 162.4 67.0001C162.4 65.5001 163.5 65.9001 164.3 65.8001C165.6 65.6001 165 66.7001 165.2 67.3001Z" fill="#FDFDFD"/>
<path d="M156.3 58.7001C157.3 58.6001 158.2 58.5001 158.1 59.9001C158.1 60.4001 157.9 61.1001 157.3 60.9001C156.5 60.5001 155 61.1001 155 59.5001C155 58.2001 156 58.9001 156.3 58.7001Z" fill="#FDFDFD"/>
<path d="M151.5 59.7001C152.6 59.5001 152.7 60.1001 152.8 60.5001C153 61.2001 152.3 61.3001 151.9 61.3001C151.3 61.3001 150.8 60.8001 150.8 60.3001C150.8 59.8001 151.4 59.7001 151.5 59.7001Z" fill="#FDFDFD"/>
<path d="M122.1 34.4001C129.2 35.0001 134.6 38.1001 137.9 44.6001C138.9 46.6001 138.7 48.1001 137.6 49.1001C137.2 49.5001 136.8 49.6001 136.3 49.7001C135 50.1001 134.5 49.9001 134.5 48.3001C134.5 43.0001 129.1 37.1001 123.3 37.4001C121.4 37.5001 119.5 37.9001 117.7 38.6001C117.1 38.8001 116.5 39.7001 115.9 38.6001C115.4 37.6001 115.6 36.7001 116.4 36.1001C117.9 34.8001 119.9 34.4001 122.1 34.4001Z" fill="#FDFDFD"/>
<path d="M129.1 45.0001C128.1 45.0001 126.6 43.6001 126.9 42.9001C127.1 42.3001 126.7 41.3001 127.7 41.2001C128.2 41.1001 130.9 43.9001 130.7 44.3001C130.5 44.9001 129.8 45.0001 129.1 45.0001Z" fill="#FDFDFD"/>
<path d="M132 48.4001C131.8 49.0001 132.4 49.9001 131.2 49.9001C130.2 49.8001 129.3 49.6001 129.4 48.2001C129.4 46.9001 130.4 46.9001 131.1 46.8001C132.6 46.7001 131.8 47.8001 132 48.4001Z" fill="#FDFDFD"/>
<path d="M123.7 41.8C122.4 42.1 121.9 41.4 121.9 40.4C121.9 39.2 123.1 39.7 123.7 39.7C124.2 39.7 125.1 39.4 125 40.5C124.9 41.3 125 42.5 123.7 41.8Z" fill="#FDFDFD"/>
<path d="M119 40.7001C119.8 40.5001 119.9 41.2001 119.9 41.7001C120 42.4001 119.4 42.5001 118.9 42.5001C118.1 42.5001 117.6 41.9001 117.6 41.3001C117.6 40.8001 118.4 40.6001 119 40.7001Z" fill="#FDFDFD"/>
<path d="M50.0998 182.5C47.2998 185 42.6998 185.5 39.8998 183.8C37.6998 182.5 37.8998 180.3 38.0998 178.2C38.2998 175.6 39.3998 173.4 41.8998 171.5C41.3998 177.8 43.9998 181.4 50.0998 182.5Z" fill="#FDFDFD"/>
<path d="M45.4 173.5C46.5 173.2 47 173.9 47.3 174.8C47.4 175.1 45.2 177.8 45 177.6C43.9 177 44 175.9 43.8 174.9C43.7 173.8 44.2 173.3 45.4 173.5Z" fill="#FDFDFD"/>
<path d="M49.5001 177.3C49.5001 177.7 49.5001 178.2 49.4001 178.6C49.3001 179.2 49.8001 180.1 49.0001 180.4C48.1001 180.7 47.3001 179.9 46.4001 179.5C46.1001 179.4 46.3001 178.9 46.5001 178.6C47.0001 177.9 47.5001 177.2 48.0001 176.5C48.3001 176.1 48.6001 176.1 49.0001 176.2C49.7001 176.5 49.7001 176.9 49.5001 177.3Z" fill="#FDFDFD"/>
<path d="M53.3999 177.5C53.3999 178.8 52.5999 179.6 51.9999 180.6C51.7999 180.9 50.9999 181.2 51.0999 180.4C51.2999 179.3 51.0999 178.2 51.4999 177.1C51.7999 176.3 52.3999 176.6 52.8999 176.5C53.4999 176.5 53.2999 177.1 53.3999 177.5Z" fill="#FDFDFD"/>
<path d="M44.7999 172.1C43.9999 172 43.4999 172 43.6999 171.2C43.8999 170.4 44.1999 169.7 45.2999 169.8C45.8999 169.8 46.3999 170 46.1999 170.6C45.9999 171.5 45.7999 172.4 44.7999 172.1Z" fill="#FDFDFD"/>
<path d="M20.3997 173.4C19.1997 179 20.8997 182.8 26.1997 184.6C23.7997 186.6 18.6997 186.4 16.7997 184.1C15.3997 182.4 15.8997 180.3 16.3997 178.4C16.8997 176.4 18.3997 174.9 20.3997 173.4Z" fill="#FDFDFD"/>
<path d="M22.7996 175.7C23.7996 176 25.0996 175.7 24.7996 177.1C24.4996 178.2 23.4996 179.4 22.4996 179.4C21.5996 179.4 21.6996 177.9 21.6996 177C21.6996 175.9 22.1996 175.7 22.7996 175.7Z" fill="#FDFDFD"/>
<path d="M25.8996 182.7C25.7996 182.7 25.7996 182.7 25.6996 182.7C23.3996 181.3 23.2996 180.5 25.5996 179C25.9996 178.8 26.2996 178.7 26.6996 178.9C26.9996 179.1 26.9996 179.4 26.8996 179.8C26.4996 180.8 26.3996 181.8 25.8996 182.7Z" fill="#FDFDFD"/>
<path d="M29.4998 179.7C30.4998 179.6 30.8998 179.8 30.3998 180.8C29.8998 181.7 29.3998 182.5 28.6998 183.2C28.4998 183.4 28.2998 183.6 27.9998 183.4C27.6998 183.2 27.8998 183 27.8998 182.7C28.0998 182 28.1998 181.3 28.3998 180.7C28.5998 179.9 28.7998 179.3 29.4998 179.7Z" fill="#FDFDFD"/>
<path d="M23.7 172.3C24.3 172.2 24.8 172.3 24.6 173.1C24.5 173.9 24.1 174.4 23.2 174.2C22.8 174.1 22 174.4 22.2 173.8C22.3 173.1 22.5 172 23.7 172.3Z" fill="#FDFDFD"/>
<path d="M60.4 147.3C56.8 149 53 149.1 49.1 148.1C48 147.8 46.8 147.7 45.8 146.8C44.5 145.7 44.1 144.6 44.7 143C46.1 139.8 48.6 137.9 51.9 137C52.5 136.8 53 136.8 53 137.7C53.5 142.1 56.1 144.9 59.9 146.8C60.1 146.9 60.4 146.8 60.4 147.3Z" fill="#FEFEFE"/>
<path d="M56.8997 140C57.5997 140 58.4997 139.8 58.4997 140.7C58.4997 141.4 57.6997 142.2 56.9997 142.1C56.1997 142 55.7997 141 55.6997 140.4C55.6997 139.5 56.5997 140.2 56.8997 140Z" fill="#FEFEFE"/>
<path d="M61.2997 143.2C60.8997 143.8 61.1997 144.9 60.1997 144.9C59.6997 144.9 58.5997 144.5 58.6997 143.7C58.7997 143.1 59.3997 142.4 60.1997 142.3C60.5997 142.3 61.2997 142.5 61.2997 143.2Z" fill="#FEFEFE"/>
<path d="M56.3999 138.2C55.6999 138.1 54.8999 138.5 54.8999 137.3C54.8999 136.6 55.1999 136.3 55.8999 136.4C56.5999 136.6 57.6999 136.3 57.6999 137.6C57.6999 138.7 56.7999 138 56.3999 138.2Z" fill="#FEFEFE"/>
<path d="M62.6998 145.8C62.3998 144.7 62.6998 144.1 63.1998 143.5C63.2998 143.4 63.7998 143.5 63.7998 143.6C63.9998 144.5 62.9998 144.8 62.6998 145.8Z" fill="#FEFEFE"/>
<path d="M25.2998 155.7C23.2998 155.8 21.2998 155.5 19.2998 154.8C16.9998 154 16.1998 152.5 16.9998 150.2C18.1998 146.8 20.7998 145 24.1998 144.1C24.8998 143.9 24.9998 144.1 25.0998 144.8C25.6998 149 28.1998 151.7 31.8998 153.5C32.0998 153.6 32.3998 153.6 32.4998 154C32.5998 154.5 32.1998 154.5 31.8998 154.7C29.8998 155.6 27.6998 155.8 25.2998 155.7Z" fill="#FEFEFE"/>
<path d="M32.4997 152.1C31.6997 151.7 30.7997 151.4 30.6997 150.6C30.6997 149.9 31.3997 149.2 32.1997 149.2C32.5997 149.2 33.5997 149.5 33.3997 150.2C33.1997 150.8 33.4997 151.8 32.4997 152.1Z" fill="#FEFEFE"/>
<path d="M27.5996 147.1C28.7996 147.3 30.0996 146.4 30.6996 147.6C31.0996 148.4 29.9996 149.1 29.4996 149.2C28.1996 149.4 28.1996 148.1 27.5996 147.1Z" fill="#FEFEFE"/>
<path d="M28.2998 145.4C27.5998 145.2 26.5998 145.8 26.6998 144.5C26.6998 143.5 27.4998 143.8 27.9998 143.8C28.7998 143.8 29.7998 143.7 29.7998 144.7C29.8998 145.8 28.6998 144.9 28.2998 145.4Z" fill="#FEFEFE"/>
<path d="M34.7997 152.3C34.6997 151.3 34.3997 150 36.3997 150.2C36.0997 151.1 35.5997 151.8 34.7997 152.3Z" fill="#FEFEFE"/>
<path d="M193.5 90.2C193.5 90.7 193.4 91 193.5 91.2C193.6 92 193.2 92.8 192.6 92.7C191.9 92.6 192.3 91.8 192.3 91.2C192.6 88.3 191.1 86 188 84.6C187.5 84.4 186.5 84.4 186.8 83.6C187 83.1 187.6 82.6 188.6 82.8C191 83.3 192 85.1 192.8 87C193.1 88.1 193.8 89.2 193.5 90.2Z" fill="#F8F8F8"/>
<path d="M191 91.2001C191 91.8001 190.7 92.2001 190.3 92.1001C189.8 92.0001 189.3 91.6001 189.4 90.9001C189.5 90.5001 189.6 90.1001 190.2 90.1001C190.8 90.3001 191.1 90.6001 191 91.2001Z" fill="#F8F8F8"/>
<path d="M190.6 88.4002C190.7 88.9002 190.5 89.0002 190.2 88.9002C189.3 88.8002 189.1 88.1002 188.8 87.5002C188.7 87.3002 188.9 86.8002 189.2 87.0002C189.7 87.3002 190.3 87.8002 190.6 88.4002Z" fill="#F8F8F8"/>
<path d="M187 86.9001C186.7 86.7001 186.2 86.6001 186.3 86.1001C186.3 85.8001 186.4 85.6001 186.8 85.7001C187.2 85.8001 187.5 86.0001 187.5 86.5001C187.5 86.7001 187.5 87.0001 187 86.9001Z" fill="#FCFCFC"/>
<path d="M202 103.8C201.9 105.5 201.8 106.7 201.3 107.8C201.1 108.2 200.9 108.6 200.5 108.4C200.1 108.2 200.3 107.8 200.4 107.5C201.5 104.3 199.9 102.2 197.7 100.2C197.3 99.8002 196.3 99.6002 197 98.7002C197.5 98.0002 198 97.7002 199 98.2002C201.4 99.6002 201.6 102 202 103.8Z" fill="#F8F8F8"/>
<path d="M199.4 104.5C199.5 104.9 199.3 105.1 199 105.1C198.4 105 197.9 104.8 197.8 104.2C197.7 103.7 198.2 103.3 198.6 103.4C199.1 103.4 199.1 104.1 199.4 104.5Z" fill="#F8F8F8"/>
<path d="M199.3 107.2C199.2 107.6 198.9 107.9 198.4 107.9C197.9 107.9 197.8 107.5 197.9 107.1C198 106.8 197.8 106.2 198.4 106.4C198.8 106.4 199.3 106.5 199.3 107.2Z" fill="#F8F8F8"/>
<path d="M196.2 100.8C196.8 101.2 197.5 101.4 197.3 102.2C197.3 102.3 196.9 102.6 196.8 102.5C196.2 102.2 195.9 101.7 196.2 100.8Z" fill="#F8F8F8"/>
<path d="M95.7 144.2C95.8 150.3 95.1 155.9 93.2 161.2C92.5 163.3 92.8 165.1 94 166.9C95.2 168.6 94 172 92 172.6C91.2 172.8 90.4 172.5 90.1 172C89.4 170.9 88.9 171.3 88.3 172C86 174.3 84.3 174.7 82 173.6C79.9 172.6 79.1 170.6 78.3 168.8C76.6 165 75.8 160.9 75.5 156.7C75.1 150.7 75.5 144.7 76.5 138.8C77.3 133.8 78.8 128.9 81.9 124.9C83.7 122.6 86.6 121.6 89.4 124.1C91.7 126.1 92.6 128.9 93.6 131.5C95.1 135.6 96.1 140 95.7 144.2Z" fill="#010101"/>
<path d="M96.3997 151.9C96.5997 148.9 96.1997 145.2 96.5997 141.5C96.8997 138 96.0997 134.6 96.0997 131.1C96.0997 130.9 96.0997 130.7 95.9997 130.7C93.9997 129.4 94.7997 127.4 94.6997 125.6C94.5997 124.5 95.1997 123.9 96.4997 124.1C97.6997 124.3 98.8997 124.3 100.1 124.2C101.3 124.1 101.8 124.8 101.9 125.7C102 127 102.2 128.4 101.6 129.8C100.9 131.2 101.1 132.9 101.1 134.4C101 139.7 100.3 145 100.8 150.3C101 152.5 100.8 154.7 101.3 156.9C101.4 157.2 101.2 157.6 101.7 157.7C102.2 157.8 102.5 157.6 102.6 157.1C102.8 156.2 103.1 155.3 103.2 154.4C103.5 150.1 103.7 145.8 103.9 141.5C104.1 138 104.3 134.5 104.4 130.9C104.4 130.5 104.5 130 104.1 129.6C103.1 128.4 102.8 125.5 103.7 124.2C104 123.7 104.4 123.2 105.2 123.3C105.5 123.3 105.8 123.3 106 123.3C111.1 123.3 110.5 122.7 110.5 127.8C110.5 128.7 110.4 129.3 109.4 129.8C108.5 130.2 108.7 131.3 108.6 132.1C108.4 135 108.3 137.8 108.3 140.7C108.3 146.4 108.1 152.2 107.6 157.9C107.3 161.5 107.1 165.3 105.2 168.7C104.3 170.2 103.4 171.6 101.3 171.6C99.1997 171.5 98.0997 170.3 97.2997 168.5C96.3997 166.3 96.2997 164 96.1997 161.7C96.2997 158.5 96.3997 155.5 96.3997 151.9Z" fill="#010101"/>
<path d="M139.3 160C139.3 160.1 139.3 160.2 139.3 160.3C139.3 165.2 139.3 165.2 134.4 165.8C131 166.2 127.7 166.7 124.4 167.5C122.1 168 121.9 167.9 121.4 165.7C120.5 162 121.7 158.5 122.5 154.9C124.4 146.9 127.5 139.3 129.7 131.4C130.1 130 129.8 129.7 128.4 130C127.3 130.2 126.2 130.2 125.6 131.5C125.1 132.4 124.1 132.2 123.2 132C122.1 131.8 121.9 130.8 121.9 130C121.8 128.1 121.8 126.1 121.9 124.2C121.9 123.3 122.4 122.8 123.4 122.9C125.9 123.1 128.3 123.3 130.8 123.4C132.4 123.5 134 123.2 135.6 123.2C137.8 123.2 138.4 123.9 137.8 126.1C136.4 131.3 135 136.4 133.3 141.5C131.9 145.8 130.6 150.1 129.3 154.4C128.9 155.8 128.1 157 128.1 158.5C128.1 159.1 128.1 159.6 129 159.3C129.7 159.1 130.4 159.2 131.1 159.2C132 159.1 133 159.1 133.9 158.9C135.3 158.5 134.3 157.3 134.6 156.6C135.3 154.7 136.8 155.3 138.1 155.3C139.3 155.3 139.5 156.2 139.4 157.1C139.3 158 139.4 159 139.3 160C139.4 160 139.4 160 139.3 160Z" fill="#010101"/>
<path d="M158.7 157.5C158.7 160.6 158.8 160.1 155.9 160.8C152.7 161.6 149.6 162.5 146.4 163.2C145.2 163.5 144 163.4 142.8 163.5C141.8 163.6 141.3 163 141.2 162.2C140.7 159.9 140.5 157.5 141.3 155.2C144.2 147 145.4 138.5 147.2 130.1C147.4 129.4 147.1 128.9 146.4 129.1C145.2 129.4 143.4 128.6 143.1 131C143 132.2 141.5 132.3 140.5 132.1C139.5 132 139 131.3 139 130.3C139.1 128.4 139.2 126.6 139.3 124.7C139.4 123.8 140 123.1 140.9 123C144.7 122.8 148.3 121.6 152.1 121.4C154.8 121.2 155.3 121.8 154.7 124.4C152.6 133.9 150.6 143.4 148.8 153C148.2 156.1 148.1 156 151.2 155.5C152.1 155.3 152.7 155.2 152.5 154.1C152.3 153 153.3 152.7 154 152.4C157 151.2 158.4 152.3 158.7 156C158.7 156.5 158.7 157 158.7 157.5Z" fill="#010101"/>
<path d="M164.8 119.8C165.3 119.8 165.8 119.8 166.3 119.8C169.6 119.7 169.2 119.3 169.7 122.8C169.9 124.3 169.8 125.8 169.8 127.3C169.8 128.4 169.4 129.2 168.1 129.3C166.9 129.3 166.5 128.5 166.4 127.5C166.4 126.8 166.5 126 165.4 126.3C164.6 126.5 163.4 126.3 163.5 127.7C163.6 130.2 163.4 132.8 163.8 135.3C163.9 136.1 164.1 136.6 165 136.4C165.9 136.2 167.3 136.9 167.6 135.4C167.8 134.4 168.2 133.9 169.2 133.9C170.3 134 170.8 134.7 170.8 135.8C170.8 137.2 171 138.7 171 140.1C171 141.1 170.6 142.1 169.5 142.4C168.6 142.7 167.8 142.4 167.4 141.4C167 140.5 166.1 140.9 165.3 141C164.7 141.1 164.4 141.6 164.6 142.3C165.3 144.9 164.5 147.7 165.2 150.3C165.3 150.8 165.1 151.6 166 151.3C166.7 151.1 167.8 151.5 168 150.3C168.6 147.8 169.1 147.4 171.7 147.7C172.6 147.8 173.1 148.2 173.3 149C173.9 150.9 173.9 152.9 173.8 154.9C173.8 156.1 172.9 156.3 172 156.5C168.6 157.3 165.2 158.1 161.9 159C161 159.2 160.5 159 160.2 158C159.7 156 159.9 153.9 159.7 151.9C159.1 147.2 158.5 142.4 158.2 137.7C158 133.5 157.2 129.4 156.8 125.3C156.7 124.1 156.4 122.9 156.5 121.7C156.5 121 156.6 120.5 157.5 120.4C159.9 120.3 162.3 119.5 164.8 119.8Z" fill="#010101"/>
<path d="M179 130.6C179.2 132.1 180.1 133.2 181 134.3C183.4 137.3 185.1 140.5 185.6 144.4C186.2 148.5 183.9 153.1 180.4 154.3C178.4 154.9 175.8 153.9 175 152C174.4 150.6 173.8 149.2 173.4 147.7C173.1 146.6 173 145.7 171.8 145.1C170.9 144.6 171.2 142.1 172.1 141.2C172.9 140.4 175.6 140.2 176.6 140.8C177.9 141.7 178.6 142.8 177.8 144.4C177.4 145.2 178.1 145.6 178.4 146.1C178.6 146.4 179 146.7 179.4 146.4C179.9 146.1 180 145.5 180 144.9C180.2 142.5 179.1 140.6 177.8 138.7C176.2 136.4 173.9 134.6 172.9 131.7C171.8 128.5 171.2 125.3 172.4 122.1C173.1 120.3 174 118.5 176.2 118.2C178.8 117.8 180.9 118.8 182.2 121.1C182.7 121.9 183.1 122.8 183.3 123.7C183.6 124.7 183.7 125.5 184.7 126.2C186.4 127.5 185.7 130.3 183.6 130.9C182.1 131.3 180.4 131.7 179 130.4C178.2 129.3 178.2 128.3 179.1 127.3C179.4 127 179.5 126.6 179.4 126.2C179.4 125.8 179.4 125.3 178.9 125.3C178.4 125.3 178.4 125.8 178.4 126.2C178.5 127.7 178.4 129.2 179 130.6Z" fill="#010101"/>
<path d="M116.9 122.9C117.4 122.9 117.9 122.9 118.4 122.9C119.9 122.8 120.7 123.3 120.5 125C120.3 126.6 121 128.5 119.1 129.6C118.9 129.7 119 130.1 119 130.4C118.8 134.6 118.8 138.8 118.3 142.9C117.7 148.7 117.8 154.5 116.8 160.3C116.7 160.7 116.6 161.3 117 161.6C119.1 163.1 117.8 165.3 118 167.1C118.1 167.9 117.1 168.3 116.2 168.3C114.2 168.4 112.2 168.5 110.2 168.6C109.1 168.7 108.6 168.2 108.4 167.1C108.1 165.8 108.3 164.5 108.4 163.1C108.5 162.5 108.9 162 109.5 162.1C111.1 162.3 111.2 161.2 111.3 160.1C111.5 157.8 111.7 155.5 111.8 153.2C112 149.1 112.1 144.9 112.3 140.8C112.4 137.3 112.6 133.7 112.8 130.2C112.8 129.8 112.9 129.4 112.6 129.1C111.5 128.2 111.9 126.9 111.8 125.7C111.6 124 112.3 123.2 114 122.9C115.1 122.9 116 123 116.9 122.9Z" fill="#010101"/>
<path d="M121.7 96.9001C121.2 98.7001 121.7 100.1 121.9 101.5C122.6 106.9 123.1 112.2 124.2 117.6C124.4 118.4 124.3 119.1 123.4 119.3C122.3 119.6 122 118.6 121.9 118C121.3 114.2 120.8 110.3 120.3 106.5C119.8 102.5 119.4 98.4001 118.9 94.4001C118.7 92.5001 118.4 90.6001 118.1 88.7001C118 88.1001 118.4 87.7001 118.8 87.5001C119.3 87.2001 119.7 87.4001 120.1 87.8001C120.8 88.4001 121.1 89.2001 121.5 90.1001C123.5 95.3001 125.6 100.4 128.3 105.2C128.9 106.3 129.4 107.5 130.5 108.8C129.1 101.8 128.5 95.1001 127.9 88.4001C127.8 87.5001 127.8 86.4001 128.9 86.3001C130.1 86.2001 130.3 87.2001 130.3 88.2001C130.9 96.2001 131.8 104.2 133.3 112.1C133.6 113.8 133.2 115.5 133.2 117.1C133.2 117.6 132.7 118 132.2 118C131.5 118 131.2 117.5 130.9 116.9C129.8 113.8 128.5 110.9 127.1 108C125.5 104.3 123.7 100.8 121.7 96.9001Z" fill="#010101"/>
<path d="M132.5 89.4002C132.7 88.2002 132.1 87.0002 133.3 86.5002C134.5 86.0002 135.5 86.6002 136.6 87.4002C138.7 89.1002 140.4 91.1002 141.7 93.3002C144 97.1002 144.2 101.2 143.2 105.5C142.3 109.8 140.6 113.6 138.2 117.2C137.8 117.7 137.5 118.4 136.6 118.1C135.9 117.9 135.6 117.3 135.5 116.6C134.8 110.8 134.2 104.9 133.3 99.1002C133 95.8002 133 92.5002 132.5 89.4002Z" fill="#020202"/>
<path d="M90.4999 101.2C90.2999 98.0001 90.9999 95.0001 92.0999 92.1001C93.1999 89.3001 94.9999 89.0001 96.9999 91.3001C98.8999 93.5001 99.4999 96.3001 100.2 99.0001C101.7 104.7 101.2 110.3 100.2 116C99.8999 117.5 99.0999 118.8 98.1999 119.9C96.8999 121.4 94.8999 121.1 93.7999 119.3C92.5999 117.3 92.2999 115.1 91.6999 112.9C90.5999 109 90.6999 105.1 90.4999 101.2Z" fill="#010101"/>
<path d="M148.9 114.4C149.3 109.3 149.8 104.3 150.1 99.4002C150.4 95.4002 151.1 91.5002 151.1 87.5002C151.1 86.8002 151.2 85.7002 152.3 85.6002C153.5 85.5002 153.7 86.5002 154 87.3002C155.4 91.7002 156.6 96.1002 158.1 100.4C159.5 104.7 161.2 108.8 162.5 113.1C162.8 114.1 162.7 114.8 161.8 115.1C160.8 115.4 160.7 114.5 160.5 113.8C159.6 111.1 158.6 108.3 157.7 105.6C157.5 105 157.2 104.7 156.4 104.7C152 104.7 152 104.7 151.7 109.4C151.6 111 151.5 112.7 151.4 114.4C151.4 115.3 151.2 116.2 150.3 116.4C148.5 116.8 148.9 115.3 148.9 114.4Z" fill="#020202"/>
<path d="M109.2 90.0001C109.3 94.6001 110 99.1001 110.8 103.6C110.9 104.4 111.6 104.6 112.3 104.5C113.2 104.4 114.1 104.6 114.1 105.7C114.1 106.8 113.3 107 112.3 106.9C111.5 106.8 111.3 107.1 111.5 107.9C112 110.8 112.4 113.6 112.8 116.5C112.9 117.6 113.3 118.2 114.5 117.8C115.2 117.6 115.9 117.9 116 118.6C116.1 119.3 115.7 119.9 114.9 120.1C112 120.8 111.1 120.3 110.6 117.5C109.7 111.8 108.9 106.1 107.8 100.4C107 96.7001 106.8 92.9001 106.5 89.1001C106.4 88.2001 106.8 87.4001 108 87.4001C109 87.4001 109.9 87.6001 110.9 87.7001C111.7 87.8001 112.3 88.1001 112.2 88.9001C112.1 89.5001 111.6 89.9001 110.8 89.8001C110.4 90.0001 109.9 90.0001 109.2 90.0001Z" fill="#020202"/>
<path d="M90.4996 119.1C90.2996 119.6 90.2996 120.3 89.4996 120.5C88.7996 120.6 88.2996 120.3 88.0996 119.6C87.4996 116.9 86.9996 114.2 86.4996 111.4C85.9996 108.3 85.5996 105.1 85.0996 102C84.7996 99.8002 84.3996 97.7002 83.9996 95.5002C83.7996 94.4002 83.3996 93.7002 82.0996 94.0002C81.3996 94.1002 80.6996 94.2002 80.5996 93.2002C80.5996 92.4002 81.0996 92.1002 81.7996 91.9002C83.7996 91.5002 85.8996 91.2002 87.7996 90.5002C88.6996 90.2002 89.0996 90.6002 89.2996 91.2002C89.5996 91.9002 89.0996 92.3002 88.4996 92.6002C87.5996 93.1002 85.9996 92.6002 85.7996 94.0002C85.5996 94.9002 86.0996 96.0002 86.3996 97.0002C87.9996 104.2 88.4996 111.5 90.0996 118.7C90.2996 118.9 90.3996 119 90.4996 119.1Z" fill="#020202"/>
<path d="M178.2 113.2C177.2 112.9 176.3 113.3 175.4 113.5C173.9 114 173.2 113.4 173.1 111.9C172.7 108.3 172.2 104.7 171.8 101C171.5 98.3001 171.3 95.5001 171 92.8001C170.8 91.3001 170.6 89.8001 170.5 88.3001C170.4 87.4001 170.6 86.5001 171.5 86.4001C172.4 86.2001 172.7 87.0001 172.8 87.9001C173.6 95.3001 174.4 102.6 175.2 110C175.3 110.8 175.6 111.2 176.3 110.9C177 110.6 177.7 110.9 178.4 110.9C179.3 111 179.9 111 179.9 112.1C179.8 113.3 178.8 113 178.2 113.2Z" fill="#030303"/>
<path d="M166.8 114.6C165.1 114.8 164.6 113.9 164.5 112.5C164.1 107.6 163.3 102.7 162.8 97.8001C162.4 94.3001 162.1 90.7 161.8 87.2C161.8 86.7 161.7 86.2 161.9 85.7C162.1 85.1 162.5 84.8001 163.2 84.9001C163.8 85.0001 163.9 85.4001 163.9 85.8001C164.2 89.3001 164.5 92.8001 164.8 96.3001C165.2 99.7001 165.7 103.1 166.2 106.5C166.5 108.1 166.2 109.7 166.6 111.3C166.8 112.2 167.2 112.4 167.9 112.2C168.2 112.1 168.5 112 168.8 111.9C169.6 111.8 170.7 111.8 170.8 112.8C170.9 113.8 169.9 114.1 169.1 114.2C168.4 114.3 167.6 114.8 166.8 114.6Z" fill="#020202"/>
<path d="M11.2997 66.9001C10.9997 61.7001 11.7997 54.9001 13.4997 48.1001C14.3997 44.6001 15.1997 41.0001 17.5997 38.1001C20.7997 34.1001 25.9997 33.0001 28.6997 38.6001C30.5997 42.5001 31.5997 46.7001 32.3997 50.9001C32.8997 53.3001 32.9997 55.8001 33.0997 58.3001C33.2997 62.8001 33.7997 67.3001 33.6997 71.9001C33.6997 75.2001 33.3997 78.5001 32.4997 81.7001C32.2997 82.3001 32.4997 82.9001 32.7997 83.4001C33.7997 85.2001 34.5997 87.1001 35.9997 88.5001C36.3997 88.9001 36.5997 89.4001 36.4997 89.8001C36.3997 92.1001 34.8997 93.3001 32.9997 94.2001C31.5997 94.9001 30.2997 94.6001 29.2997 93.4001C28.3997 92.4001 27.5997 92.1001 26.5997 93.4001C24.3997 96.4001 18.0997 95.5001 15.5997 91.6001C13.4997 88.2001 12.5997 84.4001 11.7997 80.5001C11.0997 76.7001 11.3997 72.7001 11.2997 66.9001Z" fill="#010101"/>
<path d="M47.8998 70.8002C47.6998 65.9002 47.5998 61.0002 47.1998 56.1002C46.6998 50.4002 45.9998 44.7002 45.3998 39.0002C45.2998 38.4002 45.0998 38.2002 44.5998 38.3002C43.0998 38.4002 42.8998 37.3002 42.6998 36.3002C42.4998 35.3002 42.3998 34.3002 42.3998 33.4002C42.2998 31.6002 43.0998 30.4002 44.8998 30.1002C46.7998 29.7002 48.6998 29.7002 50.6998 30.0002C51.7998 30.2002 52.0998 31.0002 52.2998 31.9002C52.5998 33.3002 52.6998 34.7002 52.5998 36.2002C52.5998 36.6002 52.6998 37.2002 52.2998 37.4002C50.9998 38.1002 51.1998 39.3002 51.2998 40.4002C51.6998 44.2002 51.8998 48.1002 52.3998 51.9002C53.5998 60.9002 53.9998 70.1002 53.5998 79.2002C53.4998 81.2002 52.8998 83.2002 52.0998 85.1002C50.0998 89.3002 44.0998 90.0002 41.1998 86.3002C38.4998 82.8002 37.3998 78.7002 36.8998 74.4002C36.0998 68.8002 35.3998 63.1002 34.6998 57.5002C34.2998 54.2002 34.1998 50.9002 33.9998 47.6002C33.7998 45.5002 33.6998 43.4002 33.3998 41.4002C33.2998 40.8002 33.0998 40.1002 32.2998 39.9002C30.7998 39.6002 30.2998 38.5002 30.0998 37.2002C29.5998 33.4002 29.7998 31.4002 34.6998 31.2002C36.1998 31.1002 37.8998 30.9002 38.6998 32.7002C39.5998 34.7002 39.9998 36.7002 38.5998 38.7002C37.7998 39.9002 38.5998 41.2002 38.6998 42.4002C38.7998 45.1002 39.2998 47.8002 39.5998 50.6002C40.1998 55.3002 40.7998 60.1002 41.2998 64.8002C41.7998 69.0002 42.5998 73.2002 44.0998 77.3002C44.2998 77.7002 44.3998 78.1002 44.5998 78.5002C44.7998 79.1002 45.1998 79.5002 45.9998 79.4002C46.7998 79.4002 47.0998 78.7002 47.1998 78.2002C47.6998 76.2002 47.7998 74.1002 47.8998 72.0002C47.8998 71.6002 47.8998 71.2002 47.8998 70.8002Z" fill="#010101"/>
<path d="M74.5997 74.7001C74.0997 70.4001 75.2997 66.4001 75.7997 62.2001C76.2997 57.8001 76.9997 53.4001 77.6997 49.0001C78.3997 44.5001 78.9997 40.0001 79.6997 35.6001C79.6997 35.4001 79.9997 35.1001 79.6997 34.9001C79.1997 34.5001 75.8997 35.3001 75.8997 35.9001C75.8997 37.3001 75.0997 37.6001 73.8997 37.7001C70.6997 38.0001 70.0997 37.6001 69.9997 34.5001C69.9997 33.5001 69.7997 32.4001 69.6997 31.4001C69.4997 27.6001 70.6997 27.4001 73.2997 27.3001C78.1997 27.0001 82.9997 26.2001 87.7997 25.8001C90.2997 25.6001 91.6997 27.3001 91.1997 29.8001C89.7997 36.8001 88.0997 43.7001 85.9997 50.5001C84.4997 55.4001 83.7997 60.5001 82.9997 65.6001C82.8997 66.2001 82.8997 66.9001 82.5997 67.5001C81.7997 69.4001 82.7997 69.5001 84.2997 69.4001C85.6997 69.3001 86.9997 69.1001 88.3997 69.1001C88.9997 69.1001 89.0997 68.7001 89.0997 68.2001C88.9997 66.8001 89.7997 66.4001 91.0997 66.1001C94.6997 65.4001 96.2997 66.5001 95.7997 70.1001C95.5997 71.9001 95.7997 73.6001 95.8997 75.3001C95.9997 76.7001 95.2997 77.4001 93.9997 77.8001C91.8997 78.5001 89.6997 78.5001 87.4997 78.7001C84.3997 78.9001 81.3997 79.6001 78.2997 79.4001C77.4997 79.3001 76.6997 79.2001 75.8997 79.1001C74.7997 78.9001 74.3997 78.3001 74.3997 77.3001C74.4997 76.4001 74.5997 75.5001 74.5997 74.7001Z" fill="#010101"/>
<path d="M67.9 33.0001C67.8 34.4001 68.5 36.3001 66.2 36.8001C66.1 36.8001 66.1 37.3001 66.1 37.6001C66.5 40.9001 66.6 44.2001 66.7 47.5001C66.8 50.3001 67.5 53.0001 67.8 55.8001C68 58.5001 68.4 61.3001 68.5 64.0001C68.7 66.5001 69 69.0001 69.1 71.6001C69.2 72.5001 69.3 73.2001 70.5 73.1001C71.5 73.1001 72.2 73.8001 72.2 74.8001C72.2 76.3001 72.7 77.7001 73 79.2001C73.3 80.6001 72.9 81.3001 71.4 81.7001C68.3 82.3001 65.1 82.7001 61.9 82.8001C60.5 82.9001 59.6 82.1001 59.3 80.8001C59.1 79.7001 58.9 78.5001 58.7 77.4001C58.4 76.3001 58.8 75.5001 59.8 75.0001C60.3 74.7001 60.4 74.5001 60.4 73.9001C59.8 68.0001 59.5 62.0001 58.7 56.0001C58.3 52.8001 58.7 49.5001 58.2 46.3001C57.8 43.9001 57.7 41.4001 57.5 38.9001C57.5 38.4001 57.3 38.1001 56.7 38.0001C55.6 37.9001 55.3 37.2001 55 36.1001C54.7 34.9001 54.7 33.7001 54.5 32.5001C54.2 30.3001 55.8 29.1001 58.2 29.2001C60.2 29.3001 62.1 28.9001 64 28.7001C67.5 28.4001 68.1 29.4001 68 32.4001C67.9 32.5001 67.9 32.7001 67.9 33.0001Z" fill="#010101"/>
<path d="M85 165.3C83.5 164.2 83.1 162.5 82.6 161C81.3 157.3 81.4 153.5 81.9 149.6C82.2 146.6 82.4 143.5 82.9 140.5C83.2 138.4 83.8 136.5 84.5 134.5C84.6 134.1 84.8 133.5 85.4 133.4C86.1 133.3 86.3 134 86.5 134.4C87.4 136.2 88.1 138.1 88.1 140C88.2 145.5 88.6 151.1 87 156.6C86.7 157.5 86.6 157.9 85.6 158C84 158.2 83.4 159.9 84.1 162C84.3 162.6 84.6 163.1 84.8 163.6C85 164.1 85.5 164.5 85 165.3Z" fill="#FDFDFD"/>
<path d="M179 130.6C177.8 129 177.9 127.1 178.1 125.3C178.1 124.8 178.4 124.5 178.9 124.5C179.4 124.5 179.7 124.7 179.8 125.2C180 126.2 180.6 127.1 179.3 127.9C178.2 128.6 178.9 129.6 179.1 130.4C179.1 130.5 179.1 130.6 179 130.6Z" fill="#FCFCFC"/>
<path d="M137.8 113.3C137 109.8 134.8 91.7 135.2 89.5C142.5 94.6 143.3 103.1 137.8 113.3Z" fill="#FDFDFD"/>
<path d="M94.6997 92.2002C95.6997 93.0002 96.2997 93.9002 96.5997 94.9002C98.1997 99.4002 99.2997 104.1 98.7997 108.9C98.4997 111.6 98.6997 114.5 97.2997 117C97.0997 117.5 96.9997 118.2 96.2997 118.1C95.6997 118 95.6997 117.3 95.4997 116.8C93.2997 111.3 92.8997 105.6 92.9997 99.8002C92.9997 97.2002 93.5997 94.7002 94.6997 92.2002Z" fill="#FEFEFE"/>
<path d="M153.4 93.3C154.3 96.1 155.3 98.8 156.2 101.6C156.3 102 156.3 102.3 155.7 102.4C155.4 102.4 155 102.5 154.7 102.5C152.8 102.8 152.4 102.4 152.5 100.6C152.5 98.7 152.7 96.9 152.9 95C152.9 94.4 152.7 93.8 153.4 93.3Z" fill="#F9F9F9"/>
<path d="M21.4999 82.6002C19.8999 79.9002 19.0999 77.2002 18.6999 74.3002C17.8999 68.0002 18.8999 61.8002 19.8999 55.5002C20.1999 53.3002 20.6999 51.2002 21.6999 49.2002C21.8999 48.7002 21.9999 48.2002 22.5999 48.2002C23.1999 48.2002 23.1999 48.9002 23.3999 49.3002C25.1999 54.3002 25.9999 59.5002 25.8999 64.8002C25.7999 68.7002 25.7999 72.6002 25.2999 76.5002C25.1999 77.0002 25.2999 77.4002 24.4999 77.4002C22.1999 77.4002 21.3999 78.3002 21.6999 80.7002C21.6999 81.4002 21.8999 81.9002 21.4999 82.6002Z" fill="#FEFEFE"/>
</svg>
