<svg width="93" height="130" viewBox="0 0 93 130" fill="none" xmlns="http://www.w3.org/2000/svg">
<g clip-path="url(#clip0_1280_11469)">
<path d="M39.0938 49.0619C37.5155 51.1577 36.2383 51.593 35.9204 51.4817C35.0805 51.1776 35.1176 47.7723 34.9626 47.4109C34.8647 47.1826 32.5762 45.9685 32.3505 45.6262C31.9155 44.9795 32.6627 44.3324 33.3637 43.9979C34.0648 43.6634 34.6436 43.5953 35.1598 43.0136C35.8743 42.2116 35.6806 39.5809 36.5256 39.0833C37.3706 38.5857 38.1755 40.1998 38.5479 40.7269C38.8524 41.148 39.2439 41.7458 39.7196 41.9359C40.6708 42.316 42.6542 40.8234 43.6763 41.7362C44.3069 42.2877 42.0494 44.9789 42.0279 45.8214C42.0065 46.9792 43.3058 48.1447 42.9799 48.9601C42.6133 49.9168 39.0938 49.0619 39.0938 49.0619Z" fill="black"/>
<path d="M38.5227 56.4748C43.1351 56.5174 47.5209 53.7199 48.9874 49.2716C50.4439 44.8 48.5877 39.8564 45.106 36.8385C43.4173 35.3697 41.2397 34.2477 38.9668 34.0945C36.5062 33.9243 34.5512 35.3117 32.5961 36.6022C28.9102 39.0598 24.5655 44.1392 26.8638 48.8528C27.954 51.0892 30.1061 52.9562 32.0932 54.4087C33.174 55.2085 34.4088 55.915 35.7167 56.2441C36.6524 56.4824 37.5602 56.2063 38.4556 56.448C38.7877 56.5419 38.9878 56.0411 38.6558 55.9471C37.9683 55.7692 37.5898 55.8889 36.859 55.868C35.7964 55.8499 34.7531 55.3942 33.827 54.8886C31.9245 53.8572 30.1349 52.2513 28.7073 50.6158C27.2796 48.9802 26.4347 47.0548 26.9133 44.8838C27.4283 42.4757 28.9928 40.2158 30.8233 38.6045C31.6901 37.8472 32.6475 37.2036 33.6217 36.5667C34.6127 35.9365 35.5902 35.2428 36.7091 34.8768C38.8597 34.1679 41.2477 34.9092 43.1269 36.0475C46.8183 38.2973 49.3605 42.6437 48.9162 47.0164C48.3896 52.2276 43.7542 55.9903 38.5988 55.9437C38.2502 55.9399 38.1741 56.471 38.5227 56.4748Z" fill="black"/>
<path d="M32.8354 48.0252C32.4105 48.4556 31.9353 48.8659 31.4735 49.2429C31.2091 49.4664 31.5283 49.8844 31.8094 49.6676C32.2948 49.2807 32.7465 48.8803 33.1714 48.4499C33.4023 48.213 33.0729 47.7716 32.8354 48.0252Z" fill="black"/>
<path d="M39.78 51.2848C40.1192 51.6528 40.4417 52.014 40.7809 52.3819C41.0127 52.6295 41.4545 52.3026 41.206 52.0484C40.8667 51.6804 40.5443 51.3192 40.205 50.9513C39.9565 50.6971 39.5315 51.0306 39.78 51.2848Z" fill="black"/>
<path d="M43.6717 45.9275C44.2355 46.269 44.8351 46.0826 45.4254 46.2605C45.7574 46.3544 45.9576 45.8535 45.6256 45.7596C45.1192 45.6153 44.4692 45.7815 43.9994 45.4969C43.7008 45.3195 43.3731 45.75 43.6717 45.9275Z" fill="black"/>
<path d="M40.437 40.3942C40.5969 39.8966 40.7066 39.3789 40.7827 38.8478C40.8256 38.4971 40.2858 38.4363 40.2429 38.787C40.1868 39.268 40.0804 39.7289 39.9338 40.1931C39.8238 40.5171 40.327 40.7182 40.437 40.3942Z" fill="black"/>
<path d="M33.8427 41.8057C33.4126 41.2272 32.9022 40.7521 32.3249 40.3471C32.0329 40.153 31.7052 40.5836 31.9972 40.7777C32.5476 41.1526 33.0245 41.6142 33.4177 42.1393C33.6193 42.4135 34.0611 42.0866 33.8427 41.8057Z" fill="black"/>
</g>
<g clip-path="url(#clip1_1280_11469)">
<path d="M69.7297 47.2983C68.5119 48.909 67.524 49.2417 67.2776 49.1553C66.6268 48.9195 66.6487 46.2974 66.528 46.0188C66.4518 45.8428 64.6775 44.9034 64.5021 44.6393C64.1641 44.1405 64.7412 43.6437 65.2833 43.3876C65.8254 43.1314 66.2734 43.0801 66.6719 42.6331C67.2235 42.017 67.0683 39.991 67.7215 39.6095C68.3747 39.228 69.0011 40.4724 69.2905 40.8791C69.5271 41.204 69.8314 41.665 70.2 41.8124C70.9372 42.107 72.4698 40.9615 73.2629 41.6665C73.7522 42.0924 72.0098 44.1602 71.9948 44.8089C71.9805 45.7004 72.9888 46.6004 72.7381 47.2277C72.4562 47.9636 69.7297 47.2983 69.7297 47.2983Z" fill="black"/>
<path d="M69.3022 53.0054C72.8732 53.0473 76.2632 50.9019 77.3897 47.4795C78.5084 44.0391 77.0615 40.2288 74.36 37.898C73.0496 36.7636 71.3615 35.8953 69.6015 35.7728C67.6961 35.6369 66.1854 36.7013 64.6743 37.6911C61.8255 39.5762 58.472 43.4789 60.2606 47.113C61.1091 48.8373 62.779 50.2792 64.3203 51.4016C65.1587 52.0196 66.1161 52.5661 67.1293 52.8221C67.8542 53.0075 68.5565 52.7967 69.2502 52.9846C69.5075 53.0576 69.6614 52.6723 69.4042 52.5993C68.8716 52.4609 68.5788 52.5524 68.013 52.5348C67.1902 52.5188 66.3816 52.1658 65.6636 51.7746C64.1886 50.9766 62.7999 49.7365 61.6914 48.4742C60.5828 47.212 59.9249 45.7277 60.2911 44.0569C60.685 42.2036 61.8918 40.4666 63.3058 39.2294C63.9753 38.648 64.7153 38.1544 65.4683 37.6659C66.2342 37.1826 66.9896 36.6504 67.8551 36.3707C69.5187 35.8291 71.369 36.4047 72.8262 37.285C75.6885 39.0247 77.6654 42.3766 77.3301 45.7428C76.9328 49.7545 73.3515 52.6427 69.3601 52.5965C69.0902 52.5929 69.0323 53.0017 69.3022 53.0054Z" fill="black"/>
<path d="M64.8824 46.4875C64.5543 46.8181 64.1872 47.1332 63.8304 47.4225C63.6261 47.5941 63.8741 47.9166 64.0914 47.7502C64.4663 47.4532 64.8153 47.1459 65.1434 46.8152C65.3216 46.6333 65.0658 46.2927 64.8824 46.4875Z" fill="black"/>
<path d="M70.2652 49.0113C70.5286 49.2953 70.779 49.5741 71.0423 49.8581C71.2222 50.0492 71.5637 49.7984 71.3708 49.6021C71.1074 49.3181 70.857 49.0393 70.5936 48.7553C70.4007 48.5591 70.0723 48.8151 70.2652 49.0113Z" fill="black"/>
<path d="M73.2677 44.8937C73.7049 45.1578 74.1687 45.0155 74.6261 45.1536C74.8833 45.2266 75.0373 44.8413 74.7801 44.7683C74.3877 44.6561 73.8848 44.7829 73.5205 44.5628C73.289 44.4256 73.0361 44.7565 73.2677 44.8937Z" fill="black"/>
<path d="M70.752 40.6264C70.8749 40.2436 70.9587 39.8452 71.0166 39.4363C71.0491 39.1663 70.6311 39.1184 70.5986 39.3884C70.5561 39.7587 70.4747 40.1134 70.3621 40.4706C70.2775 40.7198 70.6675 40.8756 70.752 40.6264Z" fill="black"/>
<path d="M65.65 41.7002C65.3158 41.2539 64.9197 40.887 64.472 40.574C64.2455 40.424 63.9927 40.7549 64.2191 40.9049C64.646 41.1947 65.0161 41.5511 65.3215 41.9562C65.4782 42.1677 65.8196 41.9169 65.65 41.7002Z" fill="black"/>
</g>
<g clip-path="url(#clip2_1280_11469)">
<path d="M68.4955 17.246C67.7183 18.2638 67.0839 18.471 66.925 18.4152C66.5052 18.2627 66.5087 16.5979 66.4299 16.4205C66.3801 16.3085 65.2345 15.7048 65.1205 15.5364C64.9009 15.2183 65.2703 14.9052 65.6181 14.7447C65.966 14.5843 66.254 14.5535 66.5087 14.2714C66.8611 13.8824 66.753 12.5953 67.1718 12.3557C67.5906 12.1161 67.9988 12.9089 68.1867 13.1683C68.3402 13.3755 68.5379 13.6695 68.7757 13.7646C69.2514 13.9547 70.233 13.2336 70.7462 13.6844C71.0629 13.9569 69.95 15.2628 69.943 15.6746C69.9374 16.2406 70.59 16.8162 70.4312 17.2134C70.2528 17.6796 68.4955 17.246 68.4955 17.246Z" fill="black"/>
<path d="M68.2432 20.868C70.5414 20.9092 72.7142 19.5608 73.4252 17.3923C74.1311 15.2124 73.1845 12.787 71.4365 11.296C70.5886 10.5704 69.4987 10.0122 68.3656 9.92727C67.1388 9.8332 66.171 10.5029 65.2025 11.1252C63.377 12.3106 61.2347 14.7749 62.4006 17.0898C62.9537 18.1881 64.0342 19.1104 65.0306 19.8294C65.5727 20.2253 66.191 20.5762 66.8441 20.7428C67.3113 20.8635 67.7624 20.7325 68.2096 20.8546C68.3755 20.902 68.473 20.658 68.3072 20.6106C67.9639 20.5206 67.7758 20.5775 67.4116 20.564C66.8821 20.5505 66.3603 20.3231 65.8966 20.0717C64.9442 19.559 64.0454 18.7659 63.3269 17.9599C62.6084 17.1539 62.1789 16.2088 62.4078 15.1494C62.6537 13.9742 63.4232 12.8762 64.3281 12.0964C64.7566 11.73 65.2308 11.4195 65.7134 11.1124C66.2044 10.8087 66.6883 10.4738 67.2441 10.2998C68.3125 9.96267 69.5056 10.3357 70.4469 10.9006C72.296 12.0169 73.5818 14.1533 73.3798 16.2893C73.1405 18.835 70.8476 20.6543 68.2788 20.6087C68.1051 20.6053 68.0695 20.8647 68.2432 20.868Z" fill="black"/>
<path d="M65.3724 16.7114C65.1626 16.92 64.9276 17.1186 64.6992 17.3008C64.5684 17.4089 64.7293 17.6147 64.8684 17.51C65.1085 17.3229 65.3318 17.1292 65.5416 16.9206C65.6556 16.8058 65.4896 16.5885 65.3724 16.7114Z" fill="black"/>
<path d="M68.8472 18.3356C69.0179 18.517 69.1801 18.6951 69.3508 18.8765C69.4673 18.9985 69.686 18.8407 69.5611 18.7153C69.3904 18.5339 69.2282 18.3558 69.0575 18.1744C68.9326 18.049 68.7223 18.2102 68.8472 18.3356Z" fill="black"/>
<path d="M70.7623 15.7335C71.0447 15.903 71.3426 15.8145 71.6375 15.904C71.8033 15.9515 71.9009 15.7074 71.735 15.66C71.4821 15.5872 71.159 15.6656 70.9236 15.5244C70.7741 15.4363 70.6127 15.6454 70.7623 15.7335Z" fill="black"/>
<path d="M69.1262 13.0139C69.2037 12.7713 69.256 12.5187 69.2916 12.2593C69.3114 12.088 69.0422 12.0559 69.0224 12.2272C68.9966 12.4621 68.9456 12.687 68.8746 12.9133C68.8212 13.0712 69.0728 13.1718 69.1262 13.0139Z" fill="black"/>
<path d="M65.8467 13.6748C65.6298 13.39 65.3734 13.1555 65.084 12.9549C64.9377 12.8587 64.7763 13.0678 64.9226 13.164C65.1985 13.3497 65.4382 13.5775 65.6364 13.836C65.738 13.9709 65.9567 13.8131 65.8467 13.6748Z" fill="black"/>
</g>
<g clip-path="url(#clip3_1280_11469)">
<path d="M45.4041 124.28C44.627 125.298 43.9926 125.505 43.8337 125.449C43.4139 125.296 43.4174 123.632 43.3385 123.454C43.2888 123.342 42.1432 122.738 42.0292 122.57C41.8096 122.252 42.179 121.939 42.5268 121.778C42.8746 121.618 43.1627 121.587 43.4173 121.305C43.7698 120.916 43.6617 119.629 44.0805 119.389C44.4993 119.15 44.9075 119.943 45.0954 120.202C45.2489 120.409 45.4466 120.703 45.6844 120.798C46.1601 120.988 47.1417 120.267 47.6549 120.718C47.9716 120.991 46.8587 122.296 46.8517 122.708C46.8461 123.274 47.4987 123.85 47.3399 124.247C47.1615 124.713 45.4041 124.28 45.4041 124.28Z" fill="black"/>
<path d="M45.1524 127.902C47.4506 127.943 49.6234 126.595 50.3344 124.426C51.0403 122.246 50.0937 119.821 48.3457 118.33C47.4978 117.604 46.4079 117.046 45.2748 116.961C44.048 116.867 43.0801 117.537 42.1117 118.159C40.2861 119.345 38.1439 121.809 39.3098 124.124C39.8629 125.222 40.9434 126.144 41.9398 126.863C42.4819 127.259 43.1002 127.61 43.7533 127.777C44.2205 127.897 44.6716 127.766 45.1188 127.889C45.2847 127.936 45.3822 127.692 45.2164 127.645C44.873 127.555 44.685 127.611 44.3208 127.598C43.7913 127.584 43.2694 127.357 42.8058 127.106C41.8534 126.593 40.9546 125.8 40.2361 124.994C39.5176 124.188 39.0881 123.243 39.3169 122.183C39.5629 121.008 40.3324 119.91 41.2373 119.13C41.6658 118.764 42.14 118.453 42.6226 118.146C43.1135 117.843 43.5975 117.508 44.1533 117.334C45.2217 116.997 46.4148 117.37 47.3561 117.935C49.2052 119.051 50.491 121.187 50.289 123.323C50.0496 125.869 47.7567 127.688 45.1879 127.643C45.0142 127.639 44.9787 127.899 45.1524 127.902Z" fill="black"/>
<path d="M42.281 123.745C42.0713 123.954 41.8363 124.152 41.6079 124.335C41.4771 124.443 41.638 124.649 41.7771 124.544C42.0172 124.357 42.2405 124.163 42.4503 123.955C42.5643 123.84 42.3983 123.622 42.281 123.745Z" fill="black"/>
<path d="M45.7559 125.37C45.9266 125.551 46.0888 125.729 46.2595 125.91C46.376 126.032 46.5947 125.875 46.4698 125.749C46.2991 125.568 46.1369 125.39 45.9662 125.208C45.8413 125.083 45.631 125.244 45.7559 125.37Z" fill="black"/>
<path d="M47.671 122.767C47.9534 122.937 48.2513 122.848 48.5462 122.938C48.712 122.985 48.8096 122.741 48.6437 122.694C48.3908 122.621 48.0677 122.7 47.8323 122.558C47.6828 122.47 47.5214 122.679 47.671 122.767Z" fill="black"/>
<path d="M46.0349 120.048C46.1124 119.805 46.1647 119.553 46.2003 119.293C46.2201 119.122 45.9509 119.09 45.9311 119.261C45.9053 119.496 45.8543 119.721 45.7833 119.947C45.7299 120.105 45.9815 120.206 46.0349 120.048Z" fill="black"/>
<path d="M42.7559 120.708C42.539 120.424 42.2826 120.189 41.9932 119.989C41.8469 119.892 41.6855 120.101 41.8318 120.198C42.1077 120.383 42.3473 120.611 42.5455 120.87C42.6472 121.005 42.8659 120.847 42.7559 120.708Z" fill="black"/>
</g>
<g clip-path="url(#clip4_1280_11469)">
<path d="M49.5609 94.4921C47.542 97.1809 45.9113 97.7416 45.5058 97.5997C44.435 97.2122 44.4906 92.8497 44.2937 92.387C44.1693 92.0949 41.2521 90.5451 40.965 90.1071C40.4116 89.2797 41.3665 88.4489 42.2618 88.0187C43.1571 87.5885 43.8959 87.4998 44.5559 86.7533C45.4695 85.7242 45.2288 82.3545 46.3082 81.715C47.3877 81.0755 48.4107 83.1412 48.8847 83.8156C49.2722 84.3544 49.7703 85.1192 50.3767 85.3616C51.5896 85.8463 54.124 83.9293 55.4259 85.0962C56.2292 85.8012 53.3421 89.2543 53.3126 90.3337C53.2825 91.8169 54.9376 93.3068 54.5198 94.3522C54.0497 95.5788 49.5609 94.4921 49.5609 94.4921Z" fill="black"/>
<path d="M48.8142 103.99C54.6993 104.034 60.3023 100.439 62.1843 94.737C64.0536 89.0049 61.6971 82.6763 57.262 78.8186C55.1107 76.941 52.335 75.509 49.4352 75.3182C46.2959 75.1062 43.7981 76.8883 41.3003 78.5462C36.5912 81.7036 31.0352 88.2213 33.9562 94.2542C35.3418 97.1166 38.0833 99.5031 40.6153 101.359C41.9924 102.381 43.5663 103.283 45.2343 103.702C46.4276 104.005 47.5867 103.649 48.7286 103.956C49.1521 104.076 49.4087 103.433 48.9853 103.314C48.1085 103.088 47.6252 103.242 46.6928 103.217C45.337 103.196 44.0069 102.615 42.8264 101.97C40.4014 100.653 38.1218 98.6 36.3042 96.5082C34.4865 94.4165 33.4131 91.9519 34.029 89.1695C34.6921 86.0832 36.6938 83.1844 39.0334 81.1157C40.1411 80.1434 41.3644 79.3166 42.609 78.4983C43.875 77.6886 45.1239 76.7976 46.5525 76.3259C49.2983 75.4125 52.3435 76.3564 54.7386 77.8101C59.4432 80.6833 62.6765 86.2452 62.0989 91.8481C61.4144 98.5253 55.4906 103.357 48.9126 103.31C48.4678 103.306 48.3694 103.986 48.8142 103.99Z" fill="black"/>
<path d="M41.5779 93.179C41.0347 93.7314 40.4274 94.2582 39.8371 94.7423C39.4992 95.0292 39.9055 95.564 40.2648 95.2855C40.885 94.7887 41.4624 94.2747 42.0056 93.7222C42.3007 93.4182 41.8816 92.8535 41.5779 93.179Z" fill="black"/>
<path d="M50.4309 97.3377C50.8628 97.8083 51.2734 98.2702 51.7054 98.7408C52.0005 99.0573 52.5651 98.6375 52.2486 98.3124C51.8166 97.8419 51.406 97.3799 50.9741 96.9094C50.6576 96.5843 50.1144 97.0127 50.4309 97.3377Z" fill="black"/>
<path d="M55.4096 90.4654C56.1281 90.9015 56.8937 90.6613 57.6464 90.8877C58.0698 91.0072 58.3265 90.3651 57.9031 90.2455C57.2572 90.0619 56.4275 90.2764 55.8287 89.913C55.4481 89.6864 55.0289 90.2388 55.4096 90.4654Z" fill="black"/>
<path d="M51.2952 83.3845C51.5005 82.7466 51.6417 82.0831 51.7401 81.4025C51.7957 80.9531 51.1071 80.8765 51.0515 81.3259C50.9788 81.9423 50.8419 82.533 50.6537 83.1281C50.5125 83.5433 51.1541 83.7997 51.2952 83.3845Z" fill="black"/>
<path d="M42.8784 85.2088C42.331 84.4687 41.6809 83.8614 40.9453 83.344C40.5732 83.096 40.154 83.6483 40.5261 83.8964C41.2275 84.3753 41.8348 84.9655 42.3352 85.6372C42.5918 85.988 43.1564 85.5682 42.8784 85.2088Z" fill="black"/>
</g>
<defs>
<clipPath id="clip0_1280_11469">
<rect width="22.8486" height="22.2774" fill="white" transform="translate(44.7471 59.9307) rotate(-158.216)"/>
</clipPath>
<clipPath id="clip1_1280_11469">
<rect width="17.7077" height="17.1365" fill="white" transform="translate(74.1279 55.6787) rotate(-158.216)"/>
</clipPath>
<clipPath id="clip2_1280_11469">
<rect width="11.4243" height="10.8531" fill="white" transform="translate(71.3599 22.5852) rotate(-158.216)"/>
</clipPath>
<clipPath id="clip3_1280_11469">
<rect width="11.4243" height="10.8531" fill="white" transform="translate(48.2686 129.619) rotate(-158.216)"/>
</clipPath>
<clipPath id="clip4_1280_11469">
<rect width="29.132" height="28.5608" fill="white" transform="translate(56.748 108.402) rotate(-158.216)"/>
</clipPath>
</defs>
</svg>
