<svg width="225" height="245" viewBox="0 0 225 245" fill="none" xmlns="http://www.w3.org/2000/svg">
<g clip-path="url(#clip0_1280_12362)">
<path d="M48.7768 14.1561C48.4163 11.8127 46.3884 10.1904 46.0279 7.80198C45.9828 7.3964 45.7124 7.03589 45.6674 6.67537C45.4871 5.32343 44.9463 3.79123 46.4785 2.88994C47.8755 2.07878 49.3627 1.98865 50.8047 2.98007C51.9764 3.79123 53.1481 4.55733 54.2747 5.32343L54.4099 5.18824C54.3648 4.78266 54.3198 4.37707 54.2297 4.01656C53.8691 2.88994 53.5086 1.76333 54.5451 0.862035C55.6267 -0.0843212 56.8885 -0.0392566 58.1503 0.411389C61.0795 1.44788 63.1074 3.65604 64.91 5.95434C68.6053 10.596 72.1203 15.4179 75.6353 20.2398C78.4744 24.0703 81.7191 27.5403 84.7384 31.2356C85.0088 31.551 85.4144 32.3622 86.0002 31.8665C86.541 31.4158 85.865 30.9201 85.6397 30.5145C83.2513 26.639 81.1332 22.5832 79.7813 18.2119C79.3757 16.905 79.0152 15.6432 79.1504 14.2913C79.2856 12.4887 80.0967 11.9479 81.8092 12.5788C82.6654 12.8943 83.4766 13.2999 84.3779 13.6604C84.7384 12.4436 84.1075 11.5423 83.8371 10.6411C83.4766 9.33418 83.6118 8.1625 84.6483 7.35134C85.865 6.45005 86.9015 7.35134 87.8929 8.07237C88.4787 8.52302 88.9745 9.01873 89.6054 9.60457C90.1912 9.01873 89.8307 8.34276 89.9208 7.75692C90.0109 6.72043 90.3715 5.68395 91.453 5.36849C92.4444 5.05304 93.2556 5.54875 93.8865 6.40498C94.6526 7.48653 95.4638 8.56808 96.2299 9.64963C96.5453 10.0552 96.6354 10.6861 97.3565 10.596L97.4015 10.4608C97.4015 8.97366 98.1226 7.93718 99.5646 7.75692C101.142 7.57666 101.953 8.65821 102.494 10.0101C103.711 13.0745 103.891 16.4093 104.972 19.5188C107.045 25.4222 109.389 31.1905 113.084 36.2377C116.058 40.2936 120.114 43.2228 124.485 45.6562C125.342 46.152 126.739 45.8816 127.82 45.7464C135.03 44.8 140.528 47.9545 145.215 53.0018C146.071 53.9481 146.477 54.1735 147.604 53.3172C151.795 50.1627 156.211 47.3687 161.033 45.3408C164.683 43.8086 168.649 43.3129 172.524 42.5468C177.076 41.6455 181.672 41.6906 186.224 42.2764C186.449 42.6369 186.72 42.727 186.99 42.3665C193.434 43.5833 199.248 45.9266 202.447 52.1906C204.16 55.5705 204.475 59.2658 203.979 62.9611C202.808 71.7937 198.346 79.2294 193.524 86.5298C189.288 92.9741 183.79 98.0213 177.707 102.618C169.82 108.611 160.807 112.081 151.524 114.921C144.314 117.174 136.698 116.813 129.217 116.993C120.249 117.219 111.281 116.993 102.404 118.661C92.5796 120.509 83.0259 123.032 73.9679 127.584C68.8306 130.152 63.7834 132.676 59.5473 136.597C57.0687 138.895 55.0859 141.599 53.6438 144.663C53.2382 145.519 53.3284 146.015 54.2297 146.601C60.719 150.567 67.3434 154.172 74.9143 155.614C78.7899 156.335 82.6654 156.966 86.6311 157.101C95.4638 157.371 104.296 157.687 112.994 159.399C113.354 160.075 113.94 159.805 114.481 159.76C127.144 163.004 139.131 167.286 148.279 177.38C152.425 181.977 156.166 186.753 158.239 192.567C160.222 198.11 160.402 203.833 158.374 209.466C157.337 212.305 157.202 215.37 156.211 218.164C155.129 221.093 153.958 224.022 152.47 226.771C151.975 227.717 151.344 228.619 150.443 229.204C149.902 229.565 149.226 229.88 148.595 229.34C147.964 228.799 148.189 228.123 148.505 227.492C150.307 223.887 150.533 220.101 149.812 216.181C149.586 214.964 149.226 214.829 148.325 215.55C144.99 218.389 141.249 220.597 137.554 222.94C136.067 223.887 134.355 223.932 132.912 224.788C132.462 225.058 131.966 224.878 131.741 224.337C131.561 223.842 131.876 223.616 132.191 223.346C138.951 217.668 139.221 207.709 133.183 200.769C126.964 193.648 119.078 189.187 110.56 185.627C106.099 183.779 101.457 182.562 96.8608 181.12C89.335 178.732 81.7641 176.479 74.1482 174.406C70.8585 173.505 67.4786 172.964 64.234 171.927C60.1782 170.62 55.9421 170.215 52.0666 167.962C40.53 161.337 35.4828 148.449 36.9248 136.326C37.5558 130.828 38.9528 125.466 41.2511 120.554C43.279 116.227 46.4335 112.487 50.1288 109.287C58.8713 101.717 69.2362 98.0213 80.4122 96.4891C87.5775 95.5428 94.7878 95.9033 101.998 96.8947C103.711 97.12 105.423 97.1651 107.135 97.4355C111.056 98.0664 114.932 99.0127 118.942 99.1029C127.46 99.3282 135.797 98.6973 143.908 96.1286C152.245 93.4698 159.546 89.0084 166.441 83.6006C172.029 79.2294 176.625 74.092 180.726 68.4589C182.979 65.3945 184.376 61.8344 185.548 58.1842C185.728 57.6434 185.593 57.5082 185.052 57.7786C171.848 59.446 161.258 65.7551 153.011 76.1199C150.127 79.7251 147.153 83.2852 145.756 87.7916C145.44 88.8281 145.17 89.8646 144.855 90.856C144.674 91.3968 144.494 91.9376 143.863 91.9376C143.187 91.9376 142.962 91.4869 142.827 90.9011C141.655 86.4848 140.754 82.0234 141.069 77.4268C141.114 76.6156 141.159 75.8495 141.249 74.5427C139.221 76.3452 137.419 77.7422 135.842 79.3646C133.048 82.2487 130.434 85.3582 128.361 88.8281C128 89.414 127.775 90.1801 126.919 89.8646C126.153 89.5492 126.288 88.7831 126.468 88.1071C128.226 81.5277 130.344 75.1736 134.4 69.5855C135.932 67.4675 137.284 65.2593 138.906 62.8709C134.039 62.916 129.578 63.8623 125.206 65.2143C117.771 67.5126 110.876 71.1628 103.485 73.6414C99.2943 75.0384 94.923 75.8045 90.6418 76.7959C84.3328 78.283 78.0238 79.9504 71.5345 80.8517C64.8649 81.753 58.1953 82.2938 51.6159 80.6264C49.6781 80.1307 47.7404 79.4547 45.9378 78.6435C44.3154 77.8774 42.9635 76.5255 42.8734 74.6778C42.7832 73.0105 44.3154 72.2894 45.7575 71.5684C44.8562 70.3066 42.7382 69.5405 43.5944 67.6478C44.2253 66.2508 45.6223 65.5748 47.2446 65.6199C47.5601 65.6199 47.9657 65.8001 48.1009 65.3945C48.191 65.0791 47.9206 64.989 47.6502 64.8988C46.6588 64.6284 46.118 63.7722 45.6674 63.0061C44.1802 60.6177 45.3069 58.8602 48.7318 58.2743C48.5065 57.7336 48.2361 57.2378 48.0558 56.6971C47.6502 55.3001 48.1459 54.3988 49.588 53.9481C50.9399 53.5425 52.2017 53.858 53.5537 54.0833C58.7812 54.9846 63.6932 57.0125 68.8306 58.049C71.4894 58.5898 74.1933 58.8151 76.8971 59.1756C77.2126 59.1756 77.5731 59.2658 77.6632 58.8151C77.7083 58.5447 77.3929 58.4095 77.1675 58.3645C70.0473 52.461 63.0623 46.4223 56.8885 39.4373C50.6696 32.0918 44.721 24.6561 39.5386 16.6797C38.6824 15.3728 38.1416 13.8406 37.2403 12.4887C36.3841 11.272 36.2489 9.42431 37.5558 8.20757C38.9077 6.94576 40.3498 7.03589 41.927 8.1625C44.3605 9.87496 46.3433 12.0381 48.4163 14.1561C48.4614 14.6969 48.5515 15.2376 49.2275 15.2376C49.3176 15.2376 49.5429 14.9673 49.5429 14.8321C49.588 14.2913 49.1824 14.2012 48.7768 14.1561ZM87.0367 32.7227C86.9466 32.4974 86.7663 32.1369 86.586 32.3171C86.1354 32.6326 86.6311 32.7678 86.8114 32.9931C87.0817 33.1283 87.1719 33.0382 87.0367 32.7227ZM129.623 83.871C129.848 83.6006 130.073 83.3753 130.254 83.1049C133.363 79.0942 137.239 75.8495 140.889 72.4246C141.385 71.974 141.835 71.1177 142.737 71.6135C143.503 72.0641 143.007 72.8753 142.962 73.4611C142.646 78.1028 142.241 82.6993 143.908 87.2959C144.179 86.8002 144.494 86.4397 144.629 86.0341C147.243 79.2294 152.11 74.0019 157.067 68.9546C161.528 64.4031 167.297 61.7443 172.93 58.9503C177.707 56.5619 182.844 56.2915 187.846 55.2099C188.477 55.0747 189.153 55.2099 189.829 55.3451C195.597 56.5619 199.698 59.8065 201.726 65.4847C201.816 65.3945 201.861 65.3044 201.861 65.1692C201.906 64.7636 201.951 64.3581 201.996 63.9975C203.078 55.0747 200.915 48.7657 192.263 45.3408C188.928 44.0339 185.368 43.403 181.717 43.3129C169.415 42.9974 158.554 46.873 148.73 54.0833C147.378 55.0747 147.243 55.7958 148.46 56.9675C150.307 58.6799 151.84 60.7529 153.327 62.7808C153.777 63.4117 154.408 64.2229 153.958 64.9439C153.417 65.7551 152.651 64.989 152.02 64.7636C149.496 63.9074 146.973 63.0962 144.269 62.7808C142.196 62.5555 140.618 62.916 139.357 64.8087C135.526 70.4418 131.696 76.1199 129.803 82.7895C129.623 82.9697 129.488 83.15 129.307 83.3302C129.262 83.5105 128.947 83.871 129.623 83.871ZM151.795 223.842C151.028 223.977 150.893 224.473 151.164 225.149C151.704 224.878 151.795 224.382 151.885 223.887C152.02 223.661 152.155 223.391 152.29 223.166C152.561 222.625 152.786 222.084 153.056 221.543C155.4 216.812 156.076 211.584 157.383 206.582C158.96 200.543 158.058 194.505 154.994 188.872C150.488 180.67 144.179 174.271 136.292 169.359C129.668 165.213 122.232 163.32 114.842 161.292C106.054 158.904 96.996 158.859 87.983 158.498C80.8178 158.228 73.8328 157.236 67.1181 154.713C62.5215 153 58.0151 150.837 53.9593 147.953C52.8777 147.187 52.4721 147.502 52.3369 148.719C51.5258 155.569 52.6524 161.923 57.2039 167.421C57.6996 168.007 58.3305 168.097 58.9614 168.277C64.5044 169.989 70.0924 171.612 75.7705 172.919C86.0903 175.307 96.0947 178.687 106.144 181.977C116.644 185.402 126.333 190.359 133.949 198.786C138.185 203.472 141.61 213.792 137.013 220.912C137.194 221.138 137.419 221.138 137.689 221.003C141.114 218.839 144.584 216.676 147.649 214.018C149.857 212.125 150.758 212.44 151.524 215.279C152.2 217.938 151.84 220.597 151.93 223.211C151.84 223.391 151.795 223.616 151.795 223.842ZM150.713 62.4203C150.623 61.2937 149.947 60.7529 149.361 60.122C147.919 58.5447 146.432 56.9675 145.08 55.3001C140.664 49.9374 135.391 46.6026 128.091 47.1884C124.215 47.5039 120.384 47.8193 116.464 47.8193C109.118 47.7743 102.719 44.8 96.32 41.6455C91.453 39.2571 87.0817 36.0575 83.4315 32.1369C78.5195 26.8192 74.2383 20.9608 69.8671 15.1926C66.9379 11.3621 64.5044 7.17108 60.8091 3.97149C59.5923 2.93501 58.3756 2.07878 56.7983 1.76333C55.897 1.58307 55.1309 1.85346 55.5816 3.0702C57.2039 7.21614 58.2404 11.6325 61.3499 15.1475C62.8821 16.86 64.4143 18.5274 65.4958 20.5553C65.7662 21.096 65.9915 21.5918 65.4958 21.9973C65.0452 22.3578 64.5945 21.9973 64.3241 21.5918C62.116 18.257 59.1417 15.463 57.2039 11.9029C55.4464 8.65821 53.058 6.04446 49.8133 4.24188C49.0022 3.79123 48.2361 3.8363 47.515 4.19682C46.794 4.6024 47.0644 5.41356 47.1545 6.04446C47.1996 6.49511 47.3348 6.99082 47.515 7.3964C49.6331 12.9393 53.1481 17.6711 56.2576 22.6282C56.6631 23.3042 57.6996 23.845 56.7983 24.6111C55.897 25.3772 55.3112 24.3858 54.8606 23.7999C53.2833 21.6819 51.4807 19.7892 49.6781 17.9415C46.9292 15.1024 44.4506 11.9479 41.1609 9.6947C40.53 9.28911 39.854 8.52302 39.0429 9.24405C38.2317 9.96508 38.0965 11.0917 38.7274 11.7677C40.1695 13.2999 40.53 15.3278 41.6116 16.9952C45.5322 22.9437 49.8133 28.6218 54.5 33.9394C58.646 38.6712 62.6567 43.5833 67.3885 47.7743C70.543 50.5683 73.9679 53.0919 77.0323 56.0211C79.2405 58.1391 81.4036 59.4911 84.5131 58.2743C85.3242 57.9589 86.2255 57.9138 87.0367 57.6885C87.7127 57.5082 88.4337 57.2829 88.7041 58.1842C88.9745 59.0855 88.1182 59.0855 87.5775 59.2658C79.7813 61.6992 72.0752 60.7529 64.4143 58.6349C60.4936 57.5082 56.6631 56.1112 52.5623 55.5705C51.6159 55.4353 50.2189 54.8494 49.9485 55.976C49.6781 56.9675 51.0751 57.5984 51.9764 58.1842C53.8691 59.3559 56.0322 59.4911 58.0601 60.167C58.691 60.3924 59.6825 60.6628 59.367 61.6091C59.0516 62.4653 58.1953 61.9246 57.5644 61.8795C57.294 61.8344 57.0687 61.6992 56.7983 61.6542C54.1395 61.1585 51.661 60.122 48.912 59.9868C48.191 59.9417 47.3348 59.8967 47.0193 60.7529C46.7039 61.5641 47.2446 62.195 47.7854 62.6907C48.912 63.7722 50.264 64.4932 51.7962 64.8538C53.7339 65.3495 55.7168 65.8001 57.6546 66.386C58.2404 66.5662 59.0516 66.8366 58.7812 67.7379C58.5108 68.5941 57.7447 68.0984 57.249 68.0083C54.8606 67.5126 52.5172 66.6563 49.9936 66.8366C48.3262 66.9267 45.7575 66.7014 45.5773 68.1885C45.397 69.7658 47.7404 70.4868 49.4979 70.8924C51.4807 71.3431 53.5086 71.0727 55.5365 71.1628C56.0322 71.1628 56.7533 71.0276 56.8434 71.7937C56.9786 72.6499 56.1674 72.7401 55.6267 72.7851C53.9593 72.8302 52.2468 72.8753 50.5794 72.7401C49.4528 72.6499 48.3262 72.7401 47.2446 72.9654C46.2532 73.1907 44.9013 73.2358 44.8112 74.6328C44.7661 75.7594 45.6223 76.7058 46.6137 77.0663C49.1824 78.0126 51.661 79.1392 54.4099 79.5448C61.4851 80.5813 68.4701 79.9053 75.3649 78.4182C85.5045 76.21 95.7341 74.1821 105.648 70.9826C112.543 68.7293 118.897 65.1692 125.927 63.2314C130.794 61.8795 135.706 61.1134 140.799 61.0683C144.179 60.9782 147.378 61.7443 150.713 62.4203ZM113.76 115.461C118.041 115.371 122.367 115.281 126.648 115.101C134.535 114.83 142.556 115.461 150.217 113.298C159.41 110.639 168.378 107.35 176.174 101.446C180.771 97.9312 185.142 94.1908 188.838 89.7745C190.325 87.9719 191.496 85.944 192.893 84.0062C196.048 79.6349 198.662 75.0384 199.653 69.6757C200.374 65.8903 199.473 62.7357 196.408 60.3473C194.561 58.9052 192.668 57.5984 190.235 57.1928C187.711 56.7421 187.666 56.652 186.945 59.2207C186.044 62.4203 184.647 65.3945 182.844 68.0984C177.752 75.7143 171.307 82.0234 164.007 87.4762C160.131 90.4054 156.076 93.0191 151.614 94.8668C141.34 99.1479 130.659 100.86 119.483 100.545C113.354 100.365 107.541 98.6071 101.502 98.1114C94.968 97.5707 88.4337 97.5256 81.8993 97.7509C78.8349 97.8861 75.8156 98.5621 72.8413 99.4634C64.7748 101.897 57.0237 104.826 50.7146 110.775C45.6223 115.551 42.3777 121.23 40.485 127.944C38.5472 134.794 37.736 141.464 39.4034 148.494C41.3412 156.56 46.118 162.193 53.058 166.339C53.3284 166.52 53.6889 166.61 54.0494 166.204C53.103 164.221 51.7962 162.374 51.3455 160.12C50.4442 155.298 49.4528 150.522 51.3005 145.655C53.8241 138.985 58.646 134.253 64.3692 130.333C67.3885 128.26 70.8585 127.133 74.0581 125.511C81.1783 121.996 88.659 119.517 96.4552 117.985M108.848 114.425C105.693 113.749 104.792 112.352 104.206 108.476C104.026 107.26 104.477 106.088 104.747 104.916C105.874 100.32 109.569 98.9226 113.49 101.626M121.106 45.7013C112.183 40.2936 107.857 31.7313 104.251 22.5381C102.764 18.7527 102.178 14.787 100.917 10.9565C100.691 10.2805 100.556 9.19899 99.7449 9.33418C98.8436 9.46937 98.9788 10.5509 98.8436 11.317C98.7985 11.5874 98.8887 11.8578 98.8887 12.1282C98.9788 14.4265 99.2041 16.6797 99.6548 18.9329C99.79 19.5188 100.015 20.2849 99.1591 20.4201C98.4831 20.5102 98.1226 19.9694 97.9874 19.2935C97.9423 19.1132 97.8071 18.8879 97.8071 18.7076C97.7621 14.787 95.7341 11.6775 93.571 8.61315C93.1204 7.98224 92.7148 6.85563 91.9487 7.08095C91.0925 7.35134 91.5431 8.52302 91.5882 9.24405C91.8135 12.8943 92.5346 16.4093 94.1569 19.7441C94.4273 20.3299 94.5625 20.9608 93.8414 21.2763C92.9852 21.6819 92.8049 20.9608 92.6247 20.375C92.0388 18.7977 91.453 17.2205 90.9573 15.6432C90.1912 13.2097 88.9745 11.0917 87.1268 9.37924C86.6762 8.97366 86.0903 8.20756 85.4144 8.70328C84.9186 9.06379 85.2792 9.82989 85.4594 10.4157C86.4959 13.7505 87.3972 17.0853 89.1096 20.1497C89.4251 20.7355 90.2363 21.7269 89.0646 22.2227C88.0732 22.6282 87.8929 21.5016 87.6676 20.9158C86.7663 18.7977 85.4594 16.9501 83.792 15.3728C83.0259 14.6518 81.9444 13.7054 80.998 14.2913C80.1869 14.787 80.9079 16.0037 81.0882 16.905C81.1783 17.3557 81.4036 17.8063 81.5388 18.2119C83.2963 23.7999 86.4959 28.5768 89.5152 33.4888C91.0024 35.9223 92.9401 37.9051 95.5088 39.3021C98.393 40.8794 101.412 42.1863 104.432 43.403C109.704 45.5661 115.247 46.6026 121.106 45.7013ZM112.093 114.785C111.957 114.875 111.867 114.921 111.777 114.966C111.912 115.056 112.048 115.236 112.228 115.281C112.453 115.371 112.633 115.281 112.543 115.056C112.408 114.921 112.183 114.875 112.093 114.785ZM54.7704 166.88C54.7254 166.835 54.7254 166.79 54.6803 166.745C54.6352 166.745 54.5902 166.79 54.5451 166.79C54.5902 166.835 54.6352 166.925 54.6803 166.97C54.7254 166.97 54.7704 166.925 54.7704 166.88Z" fill="black"/>
<path d="M18.0428 120.419C18.1329 116.138 17.3218 112.172 14.0321 109.108C13.0406 108.161 13.4462 107.485 14.4827 106.945C19.3046 104.331 22.7746 100.5 24.5321 95.2728C24.8025 94.3715 25.4334 94.011 26.1544 94.2814C27.0557 94.5969 26.3347 95.2728 26.2446 95.8136C25.2982 100.771 25.9291 105.457 29.2188 109.513C29.9849 110.505 29.7145 110.73 28.8583 111.271C25.2531 113.524 22.0535 116.183 20.1608 120.194C19.7553 121.05 19.6201 121.951 19.3497 122.852C19.2145 123.348 19.0342 123.799 18.4484 123.664C17.9527 123.528 18.0879 123.033 18.0879 122.672C18.0428 121.906 18.0428 121.185 18.0428 120.419ZM19.3497 118.346C21.7832 115.236 24.1716 112.623 27.1458 110.64C27.4613 110.415 27.8669 110.189 27.5064 109.694C25.3883 106.719 24.7574 103.294 24.487 99.4188C21.8282 102.889 19.3046 105.908 15.7896 107.846C15.1587 108.161 15.2939 108.522 15.6994 108.927C18.1329 111.451 19.0342 114.606 19.3497 118.346Z" fill="black"/>
<path d="M150.352 156.741C150.262 152.865 148.55 149.485 145.936 146.646C144.809 145.429 144.584 144.799 146.296 144.077C149.856 142.545 151.974 139.571 153.912 136.416C154.273 135.831 154.678 135.019 155.625 135.335C156.616 135.695 155.85 136.507 155.94 137.092C156.301 140.472 157.022 143.672 160.041 145.835C161.889 147.187 161.844 147.322 159.951 148.539C156.391 150.882 153.101 153.496 151.839 157.867C151.704 158.408 151.298 158.949 150.713 158.678C149.811 158.318 150.442 157.507 150.352 156.741ZM151.614 154.578C153.642 151.738 155.94 149.665 158.419 147.728C158.914 147.367 159.32 147.097 158.644 146.511C156.12 144.393 155.309 141.329 154.453 137.904C152.56 140.968 150.668 143.492 147.558 144.798C146.612 145.204 147.153 145.745 147.558 146.195C149.541 148.629 150.758 151.333 151.614 154.578Z" fill="black"/>
<path d="M212.947 61.1134C213.307 58.1842 211.55 56.2013 209.882 54.1734C208.125 52.1004 208.035 52.1004 210.468 51.0189C214.164 49.3966 216.372 46.2871 218.49 43.0875C218.805 42.6369 218.805 41.7356 219.706 42.0961C220.473 42.4566 220.067 43.1326 219.932 43.6734C218.85 47.2335 218.85 50.7936 220.382 54.2635C220.833 55.255 220.698 55.7957 219.661 56.5168C217.408 58.0039 214.839 59.3108 214.344 62.4202C214.254 62.8709 213.938 63.0962 213.442 63.0061C212.857 62.8709 213.037 62.4202 213.037 62.0597C212.947 61.7893 212.947 61.4739 212.947 61.1134ZM217.724 47.0081C215.786 49.1262 213.803 51.064 211.144 52.1906C210.558 52.4159 210.603 52.8665 211.009 53.3172C212.496 54.9395 213.533 56.8322 214.344 58.9953C215.741 57.6884 217.003 56.5168 218.58 55.6605C219.076 55.3902 219.166 55.0296 218.94 54.4889C218.039 52.1004 217.408 49.712 217.724 47.0081Z" fill="black"/>
<path d="M170.857 152.504C170.722 155.794 170.722 158.633 172.074 161.337C172.434 162.103 172.254 162.599 171.308 163.004C169.054 163.996 167.026 165.258 166.395 167.916C166.305 168.277 166.08 168.683 165.584 168.638C164.998 168.592 164.863 168.142 164.773 167.646C164.323 165.077 163.647 162.554 162.565 160.165C162.114 159.219 162.34 158.678 163.286 158.228C165.945 156.966 167.657 154.758 169.054 152.279C169.37 151.738 169.595 151.152 170.406 151.468C171.037 151.783 170.812 152.414 170.857 152.504ZM165.81 165.393C167.026 163.816 168.243 162.644 169.865 162.013C170.316 161.833 170.451 161.562 170.271 161.067C169.55 159.219 169.46 157.236 169.054 155.028C167.612 156.786 166.305 158.273 164.458 159.219C164.052 159.444 163.962 159.715 164.142 160.21C164.728 161.833 165.179 163.455 165.81 165.393Z" fill="black"/>
<path d="M28.8131 125.106C28.5878 127.224 29.6243 128.711 31.3818 129.612C32.8239 130.378 32.5535 130.874 31.3368 131.46C29.1286 132.541 27.4612 134.028 26.8754 136.507C26.7852 136.913 26.5599 137.453 25.929 137.363C25.4333 137.273 25.2981 136.867 25.253 136.462C24.9826 133.623 23.9011 131.46 21.1071 130.108C19.665 129.387 20.9719 128.621 21.6479 128.305C23.6758 127.404 24.9826 125.737 26.3797 124.114C26.8754 123.573 27.1007 122.537 28.2273 122.988C29.1737 123.393 28.9934 124.249 28.8131 125.106ZM27.1457 125.782C25.7037 127.088 24.3517 128.215 22.9547 129.432C24.532 130.558 25.5234 132.091 26.3346 133.803C28.723 130.694 28.723 130.694 27.4612 127.088C27.3711 126.728 27.2809 126.367 27.1457 125.782Z" fill="black"/>
<path d="M223.357 63.3214C223.447 63.8172 223.177 64.7635 223.718 65.5296C224.844 67.1519 224.439 68.2335 222.681 69.0447C221.374 69.6305 220.563 70.8923 219.707 71.9738C219.482 72.2893 219.211 72.6949 218.761 72.5597C218.175 72.4245 218.22 71.8837 218.22 71.4331C218.22 69.7206 217.949 68.1434 216.462 66.9717C215.741 66.4309 216.282 65.8451 216.823 65.5747C218.715 64.6734 220.383 63.4566 221.555 61.6541C221.87 61.1583 222.456 60.888 222.952 61.1133C223.943 61.4738 223.357 62.33 223.357 63.3214ZM221.645 63.8622C220.879 64.8536 219.527 65.3043 218.806 66.2056C217.859 67.3322 219.482 68.2786 219.572 69.4953C221.96 68.2335 223.357 66.7464 221.645 63.8622Z" fill="black"/>
<path d="M48.777 14.1559C49.1826 14.201 49.5882 14.2911 49.5431 14.7868C49.5431 14.922 49.3629 15.1924 49.2277 15.1924C48.5066 15.1924 48.4616 14.6516 48.4165 14.1108C48.5517 14.1559 48.6418 14.1559 48.777 14.1559Z" fill="black"/>
<path d="M114.526 159.535C113.985 159.58 113.4 159.85 113.039 159.174C113.58 159.129 114.121 159.129 114.526 159.535Z" fill="black"/>
<path d="M47.7401 64.6738C48.0104 64.7189 48.3259 64.8541 48.1907 65.1695C48.0555 65.5751 47.6499 65.4399 47.3345 65.3949C47.4697 65.1245 47.6049 64.8992 47.7401 64.6738Z" fill="black"/>
<path d="M77.2128 58.1843C77.4832 58.2294 77.7536 58.3195 77.7085 58.635C77.6634 59.0856 77.2578 58.9955 76.9424 58.9955C77.5733 58.8603 77.3029 58.4998 77.2128 58.1843Z" fill="black"/>
<path d="M186.944 42.1412C186.629 42.5017 186.404 42.4566 186.178 42.051C186.449 42.051 186.719 42.0961 186.944 42.1412Z" fill="black"/>
<path d="M150.713 62.4204C147.378 61.7444 144.134 60.9783 140.754 60.9783C135.662 60.9783 130.75 61.7895 125.883 63.1414C118.898 65.0792 112.498 68.6393 105.603 70.8925C95.6893 74.1372 85.5047 76.12 75.3201 78.3282C68.4252 79.8153 61.4402 80.4913 54.365 79.4548C51.6161 79.0492 49.1375 77.9226 46.5688 76.9762C45.5774 76.6157 44.7212 75.6694 44.7663 74.5428C44.8564 73.1458 46.2083 73.1007 47.1998 72.8754C48.2813 72.65 49.4079 72.5599 50.5345 72.65C52.2019 72.7852 53.8693 72.7402 55.5818 72.6951C56.1225 72.6951 56.9337 72.5599 56.7985 71.7037C56.7084 70.9827 55.9874 71.1179 55.4916 71.0728C53.4637 70.9827 51.4809 71.253 49.453 70.8024C47.6955 70.3968 45.307 69.6758 45.5324 68.0985C45.7126 66.6114 48.3264 66.8818 49.9487 66.7466C52.4723 66.6114 54.8157 67.4226 57.2041 67.9183C57.7449 68.0084 58.4659 68.5041 58.7363 67.6479C59.0517 66.7466 58.1955 66.4762 57.6097 66.2959C55.6719 65.7101 53.7341 65.2595 51.7513 64.7637C50.2191 64.3582 48.8671 63.6822 47.7405 62.6006C47.1998 62.1049 46.659 61.429 46.9744 60.6629C47.2899 59.8066 48.1912 59.8968 48.8671 59.8968C51.571 60.032 54.0946 61.0684 56.7534 61.5642C57.0238 61.6092 57.2492 61.7895 57.5195 61.7895C58.1505 61.8345 59.0067 62.3753 59.3221 61.5191C59.6826 60.5727 58.6912 60.2573 58.0153 60.077C55.9874 59.4011 53.7792 59.2659 51.9315 58.0942C51.0302 57.5083 49.6332 56.9225 49.9036 55.886C50.174 54.7594 51.6161 55.3452 52.5174 55.4804C56.5732 56.0212 60.4487 57.4182 64.3694 58.5448C72.0303 60.7079 79.7364 61.6543 87.5326 59.1757C88.0733 58.9955 88.9296 59.0405 88.6592 58.0942C88.3888 57.1929 87.6678 57.4182 86.9918 57.5985C86.1356 57.8238 85.2343 57.8689 84.4682 58.1843C81.3587 59.4011 79.1956 58.0942 76.9875 55.9311C73.9681 53.0019 70.4981 50.4783 67.3436 47.6843C62.6118 43.4933 58.6011 38.5812 54.4552 33.8494C49.8586 28.5318 45.5774 22.8987 41.6568 16.9502C40.5753 15.2828 40.1697 13.2549 38.7727 11.7227C38.1418 11.0467 38.277 9.87507 39.0881 9.1991C39.8993 8.47807 40.5753 9.24416 41.2062 9.64974C44.4959 11.903 46.9744 15.0575 49.7234 17.8966C51.526 19.7893 53.3285 21.682 54.9058 23.755C55.3114 24.3408 55.9423 25.3322 56.8436 24.5661C57.7449 23.755 56.7084 23.2142 56.3028 22.5833C53.2384 17.5811 49.6783 12.8944 47.5603 7.35145C47.38 6.9008 47.2899 6.45016 47.1998 5.99951C47.1547 5.36861 46.8843 4.55745 47.5603 4.15186C48.2362 3.74628 49.0023 3.70122 49.8586 4.19693C53.1032 5.99951 55.4916 8.65832 57.2492 11.8579C59.1869 15.418 62.1612 18.212 64.3694 21.5468C64.6398 21.9524 65.0904 22.3129 65.541 21.9524C66.0368 21.5468 65.8114 21.0511 65.541 20.5103C64.4595 18.4824 62.8822 16.815 61.3951 15.1026C58.2856 11.6326 57.2492 7.21626 55.6268 3.02525C55.1762 1.8085 55.9423 1.53812 56.8436 1.71838C58.3758 2.03383 59.6376 2.89006 60.8543 3.92654C64.5947 7.12613 66.9831 11.3171 69.9123 15.1476C74.2836 20.9159 78.5647 26.7743 83.4768 32.0919C87.127 36.0576 91.4983 39.2121 96.3652 41.6005C102.719 44.71 109.164 47.7293 116.509 47.7744C120.385 47.8195 124.26 47.4589 128.136 47.1435C135.391 46.5576 140.709 49.8924 145.125 55.2551C146.477 56.9225 147.964 58.4547 149.406 60.077C149.947 60.753 150.623 61.2938 150.713 62.4204ZM68.0196 66.4762C67.569 66.4311 67.1183 66.341 66.6677 66.341C66.1719 66.341 65.4509 66.1607 65.4059 66.9268C65.3157 67.6929 66.0368 67.6479 66.5325 67.8281C66.8029 67.9183 67.0732 67.8732 67.3436 67.9633C67.9295 68.1887 68.6505 68.3238 68.966 67.6929C69.3265 66.9719 68.4702 66.7466 68.0647 66.3861C68.2449 65.7552 69.6419 66.1157 69.2814 65.1693C68.966 64.3131 67.9745 64.4032 67.1634 64.4032C66.6677 64.4032 65.9466 64.223 65.9016 64.9891C65.8114 65.7101 66.3522 65.8002 66.9831 65.8002C67.2986 65.8904 67.8393 65.8904 68.0196 66.4762ZM101.367 47.9547C100.872 48.5405 99.3395 47.6843 99.8803 49.2165C100.196 50.0727 106.325 51.4246 107.046 50.8839C107.136 50.7937 107.316 50.6585 107.271 50.6135C106.775 49.577 107.541 49.7572 108.082 49.7572C108.578 49.7122 109.073 49.622 109.119 49.0813C109.119 48.5405 108.668 48.3602 108.172 48.225C105.919 47.5941 103.711 46.9182 101.412 46.3323C100.736 46.1521 99.7 45.3409 99.3395 46.3774C99.024 47.3688 100.286 47.4139 100.917 47.7293C101.052 47.7744 101.142 47.8195 101.367 47.9547ZM139.357 54.3989C139.357 53.8581 139.132 53.5877 138.771 53.4976C136.653 53.092 134.715 52.1907 132.913 51.0641C132.372 50.7036 131.786 50.974 131.786 51.6499C131.741 52.2808 131.516 52.8216 131.29 53.3624C131.11 53.8581 130.84 54.489 131.471 54.8045C132.101 55.1199 132.372 54.444 132.687 54.0384C132.958 53.7229 132.732 52.9568 133.498 53.1821C134.129 53.3624 134.31 53.813 134.129 54.444C134.039 54.8495 133.994 55.3002 134.445 55.5255C135.076 55.841 135.211 55.3002 135.391 54.8495C135.571 54.444 135.887 54.489 136.202 54.5341C136.833 54.6693 136.563 55.0749 136.563 55.4354C136.563 55.9311 136.473 56.7422 137.239 56.562C138.32 56.2916 138.185 54.6242 139.357 54.3989ZM77.5282 43.4933C77.4832 43.313 77.4832 43.1778 77.393 43.0426C75.5905 40.7443 73.7879 38.401 71.9853 36.1027C71.76 35.8323 71.3994 35.7421 71.1291 36.0125C70.8587 36.2829 70.8587 36.6434 71.0389 36.9589C72.4359 39.5726 74.6892 41.5104 76.4467 43.8538C76.6269 44.0791 77.0325 44.2143 77.348 43.9439C77.4381 43.8988 77.4832 43.6284 77.5282 43.4933ZM89.2 64.9891C86.8566 65.5749 84.5583 66.1607 82.215 66.7916C81.7643 66.9268 81.4038 67.3324 81.7192 67.8732C81.9446 68.3239 82.3501 68.3238 82.7557 68.1887C84.9188 67.4676 87.127 67.062 89.3802 66.5663C89.7858 66.4762 90.4167 66.3861 90.2815 65.7552C90.1914 65.2144 89.7858 65.0341 89.2 64.9891ZM87.8931 62.6006C85.9553 62.5556 84.1978 62.9612 82.4853 63.547C81.9446 63.7273 80.9531 63.8174 81.2686 64.7637C81.539 65.5298 82.26 65.0341 82.8459 64.8989C84.4682 64.5384 86.0454 64.0427 87.7579 64.0427C88.6141 64.0427 90.2815 64.5384 90.2815 63.3217C90.2815 61.9697 88.6141 63.0062 87.8931 62.6006ZM74.0583 27.3601C74.1484 27.3151 74.3286 27.2249 74.4638 27.0897C74.9145 26.594 73.9231 23.9352 72.9767 23.6648C72.0303 23.4395 70.9488 23.6648 69.9574 23.8451C69.687 23.8902 70.0024 24.4309 70.0926 24.7013C70.9488 26.7743 71.8501 27.3601 74.0583 27.3601ZM73.4724 43.6284C73.3823 43.4482 73.202 43.1327 73.0218 42.8624C71.6698 40.7894 70.2728 38.7615 68.9209 36.6885C68.6956 36.373 68.4252 36.1928 68.0647 36.373C67.569 36.5984 67.3887 37.1391 67.6591 37.5447C69.1462 39.7529 70.7235 41.9611 72.2557 44.1242C72.481 44.4396 72.8415 44.4847 73.157 44.3945C73.4273 44.3495 73.5175 44.0791 73.4724 43.6284ZM70.7235 44.5748C69.4166 42.5469 67.9295 40.2486 65.9016 38.401C65.6762 38.1756 65.2256 38.1756 65.0003 38.5361C64.82 38.8516 64.8651 39.1671 65.0904 39.4825C66.6226 41.4203 68.1548 43.3581 69.687 45.2958C69.9123 45.5662 70.1827 45.7915 70.5432 45.5662C70.7685 45.386 70.9488 45.1606 70.7235 44.5748ZM89.4253 67.4226C87.2622 68.0084 85.0991 68.5942 82.8909 69.2251C82.5755 69.3153 82.3051 69.6307 82.3952 69.9912C82.4853 70.4419 82.936 70.6672 83.3416 70.532C85.5497 69.9462 87.7128 69.3153 89.8759 68.6844C90.2815 68.5492 90.597 68.2788 90.4618 67.8281C90.3266 67.3324 89.8759 67.4226 89.4253 67.4226ZM85.4145 74.0471C87.127 73.8217 88.7493 73.2359 90.1463 72.1543C90.5068 71.8839 91.0025 71.5685 90.642 71.0277C90.3266 70.5771 89.7407 70.5771 89.3802 70.8925C88.1184 72.0191 86.4961 72.2895 84.9639 72.6951C84.5132 72.8303 83.9725 73.0556 84.1978 73.6415C84.378 74.1822 84.8738 74.2273 85.4145 74.0471ZM104.882 52.9568C105.513 52.8216 106.505 53.4976 106.55 52.416C106.595 51.5148 105.558 51.7851 104.928 51.6499C103.801 51.4246 102.674 51.1993 101.593 50.8839C100.962 50.7036 100.286 50.0727 99.8803 51.019C99.5198 51.8753 100.556 51.9203 101.007 52.1006C102.269 52.5062 103.576 52.9568 104.882 52.9568ZM119.078 60.6178C119.979 60.7981 121.061 60.3925 122.142 60.077C122.638 59.9418 123.404 59.9418 123.134 59.1757C122.953 58.5899 122.277 58.4998 121.782 58.7251C120.565 59.2208 119.348 59.356 118.041 59.356C117.546 59.356 116.825 59.2659 116.779 60.032C116.734 60.8882 117.501 60.5727 117.996 60.6178C118.267 60.6629 118.537 60.6178 119.078 60.6178ZM121.962 61.3388C121.151 61.5642 120.249 61.8345 119.393 62.1049C118.943 62.2401 118.402 62.3303 118.627 62.9612C118.852 63.5019 119.348 63.5019 119.844 63.3667C120.7 63.1414 121.511 62.871 122.322 62.6908C122.818 62.5556 123.584 62.871 123.539 62.0599C123.449 61.2938 122.638 61.429 121.962 61.3388ZM119.078 50.2079C118.537 50.1628 117.951 49.9826 117.771 50.7036C117.636 51.4697 118.312 51.5598 118.807 51.5598C119.664 51.5598 120.43 52.1907 121.331 51.8302C121.692 51.695 122.187 51.695 122.187 51.1542C122.187 50.7036 121.872 50.4783 121.421 50.4783C120.655 50.4332 119.889 50.3431 119.078 50.2079ZM67.1634 71.929C67.8393 71.9741 68.6054 71.929 68.4252 71.253C68.0196 69.811 66.5775 70.6221 65.6312 70.2616C65.1805 70.0814 64.5046 70.2166 64.5947 70.8024C64.9101 72.3797 66.4874 71.3882 67.1634 71.929ZM119.934 54.444C120.43 54.1285 121.692 54.6693 121.646 53.4976C121.646 52.5512 120.565 53.092 119.979 52.9568C119.709 52.9118 119.438 52.9118 119.168 52.9118C118.447 52.9118 117.32 52.1457 117.275 53.4075C117.23 54.444 118.402 54.1736 119.168 54.2637C119.393 54.2637 119.574 54.3538 119.934 54.444ZM103.981 63.9976C104.837 63.6371 106.189 64.0427 106.505 62.9161C106.73 62.15 105.694 62.15 105.198 62.3303C104.342 62.6457 102.99 62.1049 102.764 63.4118C102.584 64.0427 103.485 63.9075 103.981 63.9976ZM89.0648 43.2679C88.4789 43.2229 88.1184 43.5834 88.2536 43.989C88.6592 45.0254 89.2 46.0169 90.3716 46.4225C90.7322 46.5576 91.0927 46.1521 91.0025 45.8817C90.597 44.8001 89.921 43.8988 89.0648 43.2679ZM68.0647 25.3322C67.5239 25.3322 67.0732 25.6477 67.2535 26.0082C67.7492 26.9996 68.5604 27.8108 69.5969 28.2614C69.8672 28.3966 70.2728 27.991 70.1827 27.6305C69.9123 26.5039 69.011 25.873 68.0647 25.3322ZM85.1441 48.225C84.6484 48.0898 84.2429 48.3602 84.2879 48.6306C84.5132 49.6671 85.5047 49.9375 86.3158 50.298C86.6313 50.4332 87.0369 50.0276 86.9467 49.7122C86.6763 48.8109 85.8652 48.4954 85.1441 48.225ZM102.809 68.9998C103.35 68.5942 104.342 68.8196 104.567 67.9183C104.702 67.4676 104.387 67.017 103.936 67.1071C103.17 67.2423 102.269 67.3775 102.088 68.3689C102.088 68.7745 102.404 68.9548 102.809 68.9998ZM86.406 46.0169C86.8566 46.6928 87.3523 47.4589 88.2987 47.6843C88.6592 47.7744 89.0197 47.3688 88.8845 47.0984C88.5691 46.2873 88.0733 45.5662 87.2171 45.2508C86.8115 45.0705 86.451 45.3409 86.406 46.0169ZM103.576 66.341C104.071 65.8904 105.198 66.341 105.423 65.3045C105.558 64.7187 104.973 64.5835 104.477 64.6285C103.756 64.7187 102.945 64.8539 102.719 65.665C102.584 66.1607 103.08 66.2959 103.576 66.341Z" fill="white"/>
<path d="M96.5898 117.94C88.7936 119.472 81.3129 121.95 74.1927 125.465C70.948 127.043 67.478 128.169 64.5038 130.287C58.7806 134.253 53.9587 138.94 51.435 145.609C49.5874 150.431 50.5788 155.253 51.4801 160.075C51.8857 162.373 53.1926 164.221 54.184 166.159C53.7784 166.564 53.4629 166.429 53.1926 166.294C46.2526 162.148 41.4758 156.515 39.538 148.448C37.8255 141.418 38.6818 134.749 40.6195 127.899C42.5122 121.184 45.7569 115.506 50.8492 110.729C57.1582 104.781 64.9094 101.852 72.9759 99.4181C75.9502 98.5169 78.9695 97.8409 82.0339 97.7057C88.5683 97.4804 95.1026 97.5254 101.637 98.0662C107.676 98.5619 113.534 100.319 119.618 100.5C130.749 100.815 141.474 99.0576 151.749 94.8215C156.21 92.9739 160.266 90.3151 164.142 87.431C171.442 81.9331 177.886 75.624 182.979 68.0532C184.781 65.3493 186.223 62.33 187.079 59.1755C187.801 56.6518 187.801 56.742 190.369 57.1476C192.803 57.5531 194.695 58.9051 196.543 60.3021C199.607 62.6454 200.464 65.8 199.788 69.6304C198.796 75.0382 196.183 79.6348 193.028 83.961C191.676 85.8537 190.504 87.9267 188.972 89.7293C185.232 94.1456 180.906 97.8859 176.309 101.401C168.513 107.304 159.59 110.594 150.352 113.253C142.691 115.461 134.669 114.785 126.783 115.056C122.502 115.236 118.176 115.326 113.895 115.416" fill="white"/>
<path d="M136.968 220.867C141.564 213.747 138.139 203.427 133.903 198.741C126.242 190.314 116.598 185.356 106.098 181.932C96.049 178.687 86.0447 175.262 75.7249 172.874C70.0467 171.567 64.4587 169.944 58.9158 168.232C58.2849 168.052 57.654 167.916 57.1583 167.376C52.6067 161.923 51.4801 155.569 52.2913 148.674C52.4265 147.457 52.8771 147.142 53.9136 147.908C57.9694 150.792 62.4759 152.955 67.0725 154.667C73.742 157.191 80.7721 158.183 87.9374 158.453C96.9503 158.768 106.008 158.858 114.796 161.247C122.186 163.275 129.667 165.168 136.247 169.313C144.133 174.226 150.442 180.625 154.948 188.826C158.013 194.46 158.914 200.498 157.337 206.537C156.03 211.539 155.399 216.812 153.011 221.498C152.74 222.039 152.515 222.58 152.245 223.121C152.109 223.121 151.929 223.121 151.794 223.121C151.749 220.462 152.109 217.803 151.388 215.189C150.622 212.35 149.721 212.035 147.513 213.927C144.448 216.586 140.978 218.749 137.553 220.912C137.418 220.912 137.193 220.867 136.968 220.867Z" fill="white"/>
<path d="M201.816 65.4397C199.788 59.7615 195.733 56.5619 189.919 55.3001C189.288 55.1649 188.567 55.0298 187.936 55.1649C182.934 56.2465 177.752 56.5169 173.02 58.9053C167.387 61.6993 161.619 64.4032 157.157 68.9096C152.2 73.9569 147.333 79.1844 144.72 85.9891C144.539 86.3947 144.269 86.8003 143.998 87.2509C142.286 82.6994 142.737 78.0578 143.052 73.4161C143.097 72.8303 143.593 72.0191 142.827 71.5685C141.926 71.0728 141.475 71.929 140.979 72.3796C137.284 75.8045 133.408 79.0492 130.344 83.0599C130.209 82.9247 130.119 82.7895 129.983 82.6544C131.876 75.9848 135.707 70.3517 139.537 64.6736C140.844 62.7809 142.376 62.3753 144.449 62.6457C147.153 62.9611 149.677 63.7723 152.2 64.6285C152.876 64.8538 153.597 65.6199 154.138 64.8088C154.634 64.0877 154.003 63.2766 153.507 62.6457C152.02 60.5727 150.488 58.5448 148.64 56.8323C147.423 55.7057 147.514 54.9847 148.911 53.9482C158.735 46.7379 169.595 42.8623 181.898 43.1778C185.548 43.2679 189.108 43.8537 192.443 45.2057C201.095 48.6306 203.213 54.9396 202.177 63.8624C202.132 64.268 202.087 64.6736 202.042 65.0341C201.861 65.2144 201.816 65.3045 201.816 65.4397Z" fill="white"/>
<path d="M121.105 45.7015C115.202 46.6027 109.704 45.5663 104.386 43.4032C101.367 42.1414 98.3477 40.8795 95.4636 39.3023C92.9399 37.9053 90.9571 35.9675 89.47 33.489C86.4957 28.5769 83.2511 23.755 81.4935 18.2121C81.3583 17.7614 81.133 17.3558 81.0429 16.9052C80.8626 16.0039 80.1416 14.7871 80.9528 14.2914C81.9442 13.7056 82.9807 14.6519 83.7468 15.373C85.4142 16.9502 86.721 18.7979 87.6223 20.9159C87.8927 21.5018 88.0279 22.6284 89.0193 22.2228C90.191 21.7271 89.3798 20.7357 89.0644 20.1498C87.3519 17.0854 86.4056 13.7056 85.4142 10.4159C85.2339 9.83004 84.8734 9.06394 85.3691 8.70342C86.0451 8.25278 86.6309 8.97381 87.0815 9.37939C88.9292 11.0918 90.1459 13.2099 90.912 15.6434C91.4077 17.2206 91.9936 18.7979 92.5794 20.3752C92.7597 20.9159 92.985 21.637 93.7962 21.2764C94.5172 20.961 94.4271 20.3301 94.1116 19.7442C92.4893 16.4545 91.7683 12.8944 91.5429 9.2442C91.4979 8.52316 91.0923 7.35148 91.9035 7.0811C92.6245 6.85577 93.0751 7.98239 93.5258 8.61329C95.6889 11.6777 97.7168 14.7421 97.7619 18.7078C97.7619 18.888 97.8971 19.0683 97.9421 19.2936C98.0322 19.9696 98.4378 20.5103 99.1138 20.4202C99.97 20.285 99.7447 19.5189 99.6095 18.9331C99.1589 16.6799 98.8885 14.4266 98.8434 12.1283C98.8434 11.8579 98.7533 11.5876 98.7983 11.3172C98.9335 10.5511 98.7983 9.42446 99.6996 9.33433C100.556 9.19913 100.646 10.2807 100.871 10.9567C102.133 14.7871 102.719 18.7528 104.206 22.5383C107.856 31.7314 112.228 40.3388 121.105 45.7015ZM100.015 27.5404C99.1138 27.8559 99.3391 28.4417 99.6996 29.2078C101.097 32.0919 103.125 34.6606 104.386 37.6349C104.612 38.2207 104.792 39.2122 105.603 38.8967C106.595 38.5362 106.279 37.5448 105.873 36.8237C104.296 33.9396 102.674 31.1005 101.097 28.2615C100.871 27.9009 100.646 27.5855 100.015 27.5404ZM109.794 37.2744C109.749 37.2293 109.659 37.004 109.524 36.7336C107.901 33.534 105.468 30.7851 104.567 27.225C104.431 26.6391 103.936 26.549 103.44 26.5941C102.629 26.7293 102.809 27.3602 102.944 27.8559C104.026 31.5962 106.504 34.5254 108.307 37.8602C108.487 38.1757 108.848 38.4911 109.343 38.2207C109.659 38.1306 109.929 37.9053 109.794 37.2744ZM102.899 37.8152C101.773 34.8409 99.8799 32.0018 97.7168 29.343C97.5365 29.1177 97.131 29.0726 96.8155 29.343C96.3198 29.7035 96.3649 30.1992 96.6352 30.6048C98.4378 33.1284 100.015 35.7422 101.412 38.4911C101.592 38.8516 101.998 39.122 102.404 39.0319C102.809 38.9418 102.989 38.5362 102.899 37.8152ZM93.9314 32.0919C93.3455 32.3623 93.0301 32.7679 93.5258 33.534C94.5623 35.0662 95.5086 36.6885 96.5902 38.2207C97.0408 38.8516 97.6717 39.122 98.1224 38.1757C98.4378 37.3645 94.9679 32.0919 93.9314 32.0919Z" fill="white"/>
<path d="M151.885 223.887C151.794 224.383 151.749 224.879 151.164 225.149C150.938 224.473 151.028 223.977 151.794 223.842L151.885 223.887Z" fill="black"/>
<path d="M129.623 83.8711C128.947 83.8711 129.263 83.5106 129.398 83.2402C129.488 83.4656 129.533 83.6909 129.623 83.8711Z" fill="black"/>
<path d="M129.623 83.8711C129.533 83.6458 129.488 83.4656 129.397 83.2402C129.578 83.06 129.713 82.8797 129.893 82.6995C130.028 82.8347 130.119 82.9698 130.254 83.105C130.028 83.3754 129.848 83.6458 129.623 83.8711Z" fill="white"/>
<path d="M54.7706 166.88C54.7706 166.925 54.7255 166.97 54.7255 167.015C54.6805 166.97 54.6354 166.88 54.5903 166.835C54.6354 166.79 54.6805 166.745 54.7255 166.79C54.7255 166.79 54.7255 166.835 54.7706 166.88Z" fill="black"/>
<path d="M136.968 220.867C137.194 220.912 137.419 220.912 137.644 220.958C137.374 221.048 137.149 221.093 136.968 220.867Z" fill="black"/>
<path d="M151.839 223.166C151.975 223.166 152.155 223.166 152.29 223.166C152.155 223.391 152.02 223.661 151.884 223.887L151.839 223.842C151.794 223.616 151.839 223.391 151.839 223.166Z" fill="black"/>
<path d="M201.816 65.44C201.816 65.3048 201.861 65.2146 201.952 65.1245C201.952 65.2597 201.907 65.3498 201.816 65.44Z" fill="black"/>
<path d="M185.188 57.5534C185.728 57.283 185.863 57.4182 185.683 57.959C185.503 57.8689 185.323 57.6886 185.188 57.5534Z" fill="white"/>
<path d="M87.0368 32.7227C87.172 33.0381 87.0819 33.0832 86.8115 32.948C86.8566 32.9029 86.9467 32.8128 87.0368 32.7227Z" fill="black"/>
<path d="M86.7659 32.9932C86.5857 32.8129 86.09 32.6777 86.5406 32.3172C86.7659 32.182 86.9011 32.4975 86.9912 32.7228C86.9462 32.8129 86.856 32.9031 86.7659 32.9932Z" fill="white"/>
<path d="M19.3495 118.346C19.0341 114.605 18.1328 111.451 15.6993 108.927C15.2937 108.522 15.1585 108.161 15.7894 107.846C19.3044 105.908 21.8281 102.888 24.4869 99.4185C24.7573 103.294 25.4332 106.719 27.5062 109.693C27.8667 110.189 27.4611 110.459 27.1457 110.64C24.1264 112.622 21.783 115.236 19.3495 118.346Z" fill="white"/>
<path d="M151.614 154.578C150.758 151.288 149.541 148.584 147.559 146.241C147.153 145.79 146.612 145.249 147.559 144.844C150.668 143.537 152.561 141.013 154.453 137.949C155.31 141.374 156.121 144.393 158.644 146.556C159.32 147.142 158.915 147.367 158.419 147.773C155.941 149.666 153.597 151.784 151.614 154.578Z" fill="white"/>
<path d="M217.724 47.0081C217.453 49.7119 218.039 52.1004 218.94 54.4888C219.166 55.0296 219.031 55.3901 218.58 55.6605C217.048 56.4716 215.786 57.6884 214.344 58.9952C213.488 56.8321 212.451 54.9394 211.009 53.3171C210.603 52.8665 210.558 52.4609 211.144 52.1905C213.758 51.0639 215.741 49.1261 217.724 47.0081Z" fill="white"/>
<path d="M165.809 165.393C165.224 163.455 164.728 161.788 164.187 160.211C164.007 159.715 164.097 159.444 164.503 159.219C166.35 158.318 167.657 156.786 169.099 155.028C169.505 157.191 169.595 159.219 170.316 161.067C170.496 161.562 170.316 161.833 169.91 162.013C168.243 162.644 166.981 163.861 165.809 165.393Z" fill="white"/>
<path d="M27.1461 125.781C27.2813 126.367 27.3714 126.728 27.4615 127.088C28.7233 130.693 28.7233 130.693 26.3349 133.803C25.5238 132.09 24.4873 130.603 22.9551 129.431C24.3521 128.215 25.704 127.043 27.1461 125.781Z" fill="white"/>
<path d="M221.644 63.8623C223.357 66.7014 221.915 68.2336 219.571 69.4954C219.481 68.2786 217.859 67.3323 218.805 66.2057C219.526 65.3044 220.878 64.8988 221.644 63.8623Z" fill="white"/>
<path d="M101.368 47.9548C101.142 47.8196 101.052 47.7746 100.962 47.6844C100.286 47.3239 99.0243 47.3239 99.3848 46.3325C99.7453 45.251 100.782 46.1072 101.458 46.2874C103.711 46.8282 105.964 47.5492 108.217 48.1802C108.713 48.3153 109.164 48.4956 109.164 49.0364C109.164 49.5772 108.623 49.7123 108.127 49.7123C107.587 49.7574 106.82 49.5772 107.316 50.5686C107.361 50.6136 107.181 50.7939 107.091 50.839C106.37 51.3797 100.241 50.0278 99.9256 49.1716C99.2947 47.6844 100.872 48.5407 101.368 47.9548ZM101.548 48.2703C102.855 48.9913 103.936 49.3518 105.153 49.1265C104.072 48.9012 103.215 47.8196 101.548 48.2703Z" fill="black"/>
<path d="M139.356 54.3992C138.185 54.6245 138.32 56.2468 137.193 56.5623C136.427 56.7425 136.517 55.9314 136.517 55.4356C136.517 55.0751 136.788 54.6245 136.157 54.5344C135.841 54.4893 135.481 54.4442 135.346 54.8498C135.165 55.3004 135.075 55.8412 134.399 55.5258C133.949 55.3004 133.994 54.8498 134.084 54.4442C134.219 53.8133 134.039 53.3627 133.453 53.1824C132.687 52.9571 132.912 53.7232 132.642 54.0386C132.326 54.4442 132.056 55.1202 131.425 54.8047C130.794 54.4893 131.11 53.8584 131.245 53.3627C131.425 52.8219 131.695 52.2811 131.74 51.6502C131.785 50.9292 132.326 50.7039 132.867 51.0644C134.715 52.191 136.607 53.0923 138.725 53.4979C139.131 53.588 139.356 53.8584 139.356 54.3992Z" fill="black"/>
<path d="M77.5279 43.4931C77.4829 43.6283 77.4378 43.8987 77.3026 43.9889C76.9871 44.2142 76.5816 44.1241 76.4013 43.8987C74.6438 41.5554 72.3906 39.6176 70.9936 37.0038C70.8133 36.6884 70.8584 36.3279 71.0837 36.0575C71.3991 35.742 71.7597 35.8772 71.9399 36.1476C73.7425 38.4459 75.5451 40.7442 77.3477 43.0876C77.4829 43.1777 77.4829 43.3129 77.5279 43.4931Z" fill="black"/>
<path d="M89.1999 64.989C89.7407 65.0341 90.1913 65.2143 90.2815 65.7551C90.3716 66.4311 89.7857 66.4761 89.3802 66.5663C87.172 67.062 84.9188 67.4225 82.7557 68.1886C82.3501 68.3238 81.9445 68.3238 81.7192 67.8732C81.4488 67.3324 81.7642 66.8817 82.2149 66.7916C84.5583 66.1607 86.9016 65.5749 89.1999 64.989Z" fill="black"/>
<path d="M87.8923 62.6006C88.6134 63.0062 90.2808 61.9697 90.2808 63.3217C90.2808 64.5384 88.6134 63.9976 87.7571 64.0427C86.0447 64.0878 84.4674 64.5384 82.8451 64.8989C82.2593 65.0341 81.5833 65.4848 81.2678 64.7637C80.9073 63.8174 81.8988 63.7723 82.4846 63.547C84.197 62.9611 85.9546 62.5105 87.8923 62.6006Z" fill="black"/>
<path d="M74.0578 27.3601C71.8497 27.4051 70.9484 26.7742 70.0921 24.7463C69.9569 24.4309 69.6415 23.9352 69.9569 23.8901C70.9484 23.7098 72.0299 23.4395 72.9763 23.7098C73.9226 23.9352 74.914 26.594 74.4634 27.1348C74.3282 27.2249 74.148 27.27 74.0578 27.3601Z" fill="black"/>
<path d="M73.4716 43.6285C73.5167 44.0341 73.4716 44.3496 73.1562 44.3946C72.8407 44.4848 72.4802 44.4397 72.2549 44.1242C70.7227 41.9161 69.1454 39.753 67.6583 37.5448C67.3879 37.1392 67.5682 36.5984 68.0639 36.3731C68.4244 36.1929 68.6948 36.3731 68.9201 36.6886C70.2721 38.7615 71.6691 40.7895 73.021 42.8624C73.2013 43.1779 73.3364 43.4483 73.4716 43.6285Z" fill="black"/>
<path d="M70.7231 44.5747C70.9034 45.2056 70.7682 45.4309 70.5428 45.5661C70.1823 45.7914 69.9119 45.5661 69.6866 45.2957C68.1544 43.358 66.6222 41.4202 65.09 39.4824C64.8647 39.212 64.8196 38.8515 64.9999 38.536C65.2252 38.2206 65.6759 38.2206 65.9012 38.4008C67.9742 40.2034 69.4162 42.5017 70.7231 44.5747Z" fill="black"/>
<path d="M89.4251 67.4226C89.8757 67.4226 90.3264 67.3325 90.4616 67.8733C90.5968 68.369 90.2813 68.6394 89.8757 68.7295C87.7126 69.3604 85.5045 69.9913 83.3414 70.5771C82.9358 70.6673 82.5302 70.487 82.395 70.0364C82.3049 69.6758 82.5753 69.3604 82.8907 69.2703C85.0989 68.6394 87.3071 68.0085 89.4251 67.4226Z" fill="black"/>
<path d="M85.4145 74.0469C84.8738 74.2271 84.3781 74.1821 84.1978 73.6413C84.0175 73.0554 84.5583 72.8301 84.9639 72.6949C86.4961 72.2894 88.1184 72.019 89.3802 70.8923C89.7407 70.5769 90.3266 70.5769 90.642 71.0275C91.0026 71.5683 90.5068 71.8838 90.1463 72.1542C88.7493 73.2357 87.127 73.8215 85.4145 74.0469Z" fill="black"/>
<path d="M104.882 52.9569C103.575 52.9569 102.314 52.5513 101.052 52.1007C100.601 51.9655 99.6097 51.8753 99.9251 51.0191C100.286 50.1178 101.007 50.7037 101.638 50.8839C102.719 51.1994 103.846 51.4247 104.972 51.65C105.603 51.7852 106.595 51.5148 106.595 52.4161C106.505 53.4526 105.513 52.8217 104.882 52.9569Z" fill="black"/>
<path d="M119.078 60.6178C118.537 60.6178 118.267 60.6178 117.997 60.6178C117.501 60.5728 116.78 60.8882 116.78 60.032C116.825 59.311 117.501 59.356 118.042 59.356C119.303 59.356 120.565 59.2208 121.782 58.7251C122.323 58.4998 122.954 58.5899 123.134 59.1758C123.359 59.9419 122.593 59.9419 122.142 60.0771C121.016 60.3925 119.979 60.7981 119.078 60.6178Z" fill="black"/>
<path d="M121.962 61.3386C122.638 61.4288 123.449 61.2936 123.494 62.0597C123.584 62.8708 122.773 62.5554 122.277 62.6906C121.421 62.8708 120.61 63.1863 119.799 63.3665C119.348 63.5017 118.807 63.5017 118.582 62.9609C118.311 62.285 118.897 62.2399 119.348 62.1047C120.249 61.8343 121.15 61.5639 121.962 61.3386Z" fill="black"/>
<path d="M119.077 50.2079C119.843 50.298 120.655 50.4332 121.421 50.4782C121.871 50.5233 122.232 50.7036 122.187 51.1542C122.187 51.695 121.691 51.6499 121.331 51.8302C120.429 52.1907 119.663 51.6049 118.807 51.5598C118.311 51.5598 117.635 51.4697 117.77 50.7036C117.951 49.9825 118.537 50.1628 119.077 50.2079Z" fill="black"/>
<path d="M67.1627 71.929C66.4868 71.3432 64.9095 72.3797 64.6391 70.8024C64.5039 70.2166 65.1799 70.0814 65.6756 70.2616C66.6219 70.6221 68.064 69.811 68.4696 71.253C68.6048 71.929 67.8387 71.9741 67.1627 71.929Z" fill="black"/>
<path d="M119.934 54.444C119.619 54.3539 119.394 54.3088 119.213 54.2637C118.447 54.2187 117.276 54.489 117.321 53.4075C117.366 52.1457 118.537 52.9118 119.213 52.9118C119.484 52.9118 119.754 52.8667 120.024 52.9568C120.61 53.092 121.647 52.5513 121.692 53.4976C121.647 54.6693 120.43 54.1285 119.934 54.444Z" fill="black"/>
<path d="M103.981 63.9976C103.485 63.9526 102.629 64.0878 102.719 63.4118C102.944 62.1049 104.296 62.6006 105.152 62.3302C105.693 62.15 106.685 62.195 106.459 62.9161C106.189 63.9976 104.837 63.592 103.981 63.9976Z" fill="black"/>
<path d="M67.9744 66.4314C68.38 66.837 69.2362 67.0173 68.8757 67.7383C68.5603 68.3692 67.8392 68.234 67.2534 68.0087C67.0281 67.9186 66.7126 67.9186 66.4422 67.8735C65.9465 67.6933 65.2706 67.7383 65.3156 66.9722C65.4057 66.2061 66.0817 66.3864 66.5774 66.3864C67.0731 66.3413 67.5688 66.4314 67.9744 66.4314Z" fill="black"/>
<path d="M68.0191 66.4762C67.8389 65.8903 67.2981 65.8903 66.8925 65.8903C66.2616 65.8903 65.7659 65.7551 65.811 65.0791C65.9011 64.313 66.6221 64.4933 67.0728 64.4933C67.8389 64.4933 68.8303 64.4032 69.1908 65.2594C69.5513 66.1607 68.1543 65.7551 68.0191 66.4762Z" fill="black"/>
<path d="M89.0642 43.2682C89.9204 43.8991 90.5964 44.8004 91.0019 45.882C91.0921 46.1524 90.7315 46.5579 90.371 46.4227C89.1993 46.0172 88.6586 45.0257 88.253 43.9893C88.1178 43.5837 88.4783 43.2232 89.0642 43.2682Z" fill="black"/>
<path d="M68.0641 25.3323C69.0105 25.828 69.9118 26.504 70.1822 27.6756C70.2723 28.0362 69.8667 28.4417 69.5963 28.3065C68.5599 27.8559 67.7938 27.0447 67.253 26.0533C67.0277 25.6477 67.5234 25.3773 68.0641 25.3323Z" fill="black"/>
<path d="M85.1438 48.2251C85.8649 48.4955 86.676 48.8109 86.9464 49.7573C87.0366 50.0728 86.631 50.4783 86.3155 50.3431C85.5044 49.9826 84.5129 49.7122 84.2876 48.6758C84.2425 48.3603 84.6481 48.135 85.1438 48.2251Z" fill="black"/>
<path d="M102.809 68.9998C102.403 68.9547 102.043 68.7745 102.133 68.3689C102.313 67.3774 103.17 67.2423 103.981 67.1071C104.431 67.0169 104.702 67.4676 104.612 67.9182C104.341 68.8195 103.35 68.5942 102.809 68.9998Z" fill="black"/>
<path d="M86.4058 46.0169C86.4508 45.386 86.8113 45.1156 87.2169 45.2508C88.0732 45.5663 88.5689 46.2873 88.8843 47.0985C88.9744 47.4139 88.659 47.7744 88.2985 47.6843C87.3521 47.459 86.8564 46.6478 86.4058 46.0169Z" fill="black"/>
<path d="M103.575 66.3408C103.034 66.2958 102.539 66.1606 102.674 65.7099C102.899 64.8988 103.71 64.7636 104.431 64.6734C104.927 64.6284 105.513 64.7185 105.378 65.3494C105.197 66.2958 104.071 65.8451 103.575 66.3408Z" fill="black"/>
<path d="M55.1759 128.711C55.0858 126.547 55.1309 124.339 54.9506 122.131C54.8154 120.374 55.5364 120.374 56.8433 120.869C57.7446 121.23 58.691 121.455 59.7274 121.771C58.8712 119.788 57.7446 117.85 55.8068 116.588C54.4549 115.687 54.0944 114.966 55.7167 114.019C56.6631 113.479 57.6094 112.262 58.3755 112.397C59.5472 112.622 58.7811 114.29 59.3219 115.191C61.0794 117.985 62.7468 120.779 65 123.213C65.5408 123.798 66.5773 124.384 65.6309 125.286C64.8197 126.007 64.324 127.584 62.5215 126.457C60.8541 125.421 59.3219 124.114 57.5643 122.852C56.9785 124.97 57.3841 126.908 57.294 128.801C57.2489 129.432 57.3841 130.108 57.294 130.738C57.2038 131.955 56.3025 132.676 55.3111 133.037C54.2296 133.442 53.869 132.361 53.3733 131.685C51.9313 129.657 50.4892 127.584 49.0471 125.556C48.4613 124.745 47.7853 124.024 46.884 123.528C46.2982 123.213 45.1716 123.483 45.2166 122.537C45.2166 121.771 46.2982 121.771 46.839 121.275C47.5149 120.644 48.281 120.103 49.0021 119.517C49.3175 119.247 49.633 118.841 50.1287 119.022C50.6244 119.202 50.5343 119.743 50.5793 120.148C50.8948 123.032 52.7875 126.547 55.1759 128.711Z" fill="black"/>
<path d="M68.3797 114.515C67.163 115.011 66.6222 115.732 67.5235 116.949C67.7939 117.309 68.0192 117.67 68.2445 118.03C69.1458 119.562 70.0471 119.968 71.2188 118.21C71.5342 117.715 71.8497 116.588 72.751 117.264C73.472 117.805 72.8411 118.616 72.4806 119.202C71.6244 120.644 70.0922 121.41 68.9656 122.582C68.3347 123.213 67.7038 122.852 67.2531 122.086C65.3604 118.931 63.017 116.182 60.6286 113.388C59.502 112.082 59.2316 111.045 60.9891 109.964C62.0256 109.333 62.7917 108.296 63.693 107.53C64.2788 107.034 64.9999 106.854 65.5857 107.62C66.2166 108.476 65.3604 108.702 64.9097 109.062C64.2338 109.558 63.1973 110.099 63.6029 111.045C64.0986 112.127 64.9548 113.118 65.8561 113.839C66.3969 114.29 66.6222 113.208 67.0278 112.893C67.4784 112.487 68.0192 112.172 68.56 112.622C69.0106 112.983 69.5063 113.343 69.5514 113.974C69.5063 114.83 68.7853 114.38 68.3797 114.515Z" fill="black"/>
<path d="M100.015 27.5403C100.646 27.5853 100.872 27.9008 101.052 28.2613C102.674 31.1004 104.251 33.9845 105.829 36.8236C106.234 37.5446 106.55 38.536 105.558 38.8966C104.747 39.212 104.567 38.1755 104.342 37.6348C103.08 34.6605 101.052 32.0918 99.6549 29.2077C99.3394 28.4416 99.1141 27.8557 100.015 27.5403Z" fill="black"/>
<path d="M109.794 37.2745C109.929 37.9054 109.659 38.0856 109.343 38.2659C108.893 38.5363 108.487 38.2208 108.307 37.9054C106.504 34.5706 104.026 31.5963 102.944 27.901C102.809 27.4053 102.584 26.7744 103.44 26.6392C103.891 26.5491 104.386 26.6843 104.567 27.2701C105.468 30.8302 107.901 33.6242 109.524 36.7788C109.659 37.0041 109.749 37.2294 109.794 37.2745Z" fill="black"/>
<path d="M102.899 37.8152C102.989 38.5362 102.809 38.9418 102.358 39.0319C101.952 39.122 101.547 38.8967 101.367 38.4911C99.9697 35.7422 98.3924 33.0834 96.5898 30.6048C96.3194 30.2443 96.3194 29.7035 96.7701 29.343C97.0855 29.0726 97.4911 29.1177 97.6714 29.343C99.8795 32.0018 101.772 34.8409 102.899 37.8152Z" fill="black"/>
<path d="M93.9313 32.0918C94.9677 32.0918 98.4828 37.3644 98.0772 38.1755C97.6716 39.1219 96.9956 38.8515 96.545 38.2206C95.5085 36.6884 94.5171 35.1111 93.4806 33.5339C92.9849 32.7678 93.3004 32.3171 93.9313 32.0918Z" fill="black"/>
<path d="M101.548 48.2702C103.215 47.8196 104.071 48.8561 105.153 49.1265C103.936 49.3518 102.855 48.9913 101.548 48.2702Z" fill="white"/>
<path d="M71.3543 168.142C70.8586 167.827 69.5967 168.638 69.8671 167.376C70.0925 166.204 69.8221 164.266 71.2191 164.041C72.5259 163.771 73.3822 165.258 73.4723 166.61C73.5174 167.962 72.4358 168.142 71.3543 168.142Z" fill="white"/>
<path d="M72.4354 162.509C72.0298 162.284 70.9482 162.734 71.2186 161.788C71.489 160.751 71.3088 159.174 72.7959 159.039C73.6972 158.949 75.0041 159.309 75.0041 160.571C75.0041 162.103 73.7423 162.419 72.4354 162.509Z" fill="white"/>
<path d="M144.179 107.485C144.089 107.485 143.954 107.53 143.864 107.53C143.097 107.259 142.151 107.44 141.881 107.98C141.565 108.747 141.746 109.738 141.791 110.594C141.836 111.27 142.376 111.496 143.052 111.496C143.503 111.45 144.044 111.586 143.999 110.82C143.999 110.414 143.999 109.918 144.675 110.053C145.441 110.189 145.891 110.594 145.846 111.45C145.801 111.991 145.892 112.577 145.125 112.622C143.728 112.712 142.286 112.847 140.889 112.802C140.078 112.757 139.402 112.622 139.898 111.315C140.394 110.008 139.718 108.566 139.537 107.214C139.357 105.592 138.861 104.06 138.546 102.483C138.411 101.807 138.321 101.176 139.402 101.086C140.529 100.95 141.61 100.5 142.782 100.319C143.909 100.139 144.765 101.041 144.449 102.077C144.359 102.438 144.224 102.798 143.728 102.798C143.368 102.798 143.188 102.708 143.098 102.302C142.827 101.266 142.106 101.897 141.565 101.942C140.754 101.987 140.934 102.573 141.025 103.114C141.16 103.835 141.205 104.556 141.34 105.277C141.565 106.854 141.836 107.034 143.323 106.313C143.638 106.178 143.909 105.727 144.224 106.223C144.54 106.583 144.359 107.034 144.179 107.485Z" fill="black"/>
<path d="M134.445 109.873C134.85 107.395 135.301 104.916 135.661 102.438C135.752 101.672 135.977 101.311 136.788 101.266C137.644 101.221 137.915 101.581 137.599 102.302C136.292 105.502 135.571 108.927 134.625 112.262C134.49 112.803 134.355 113.343 133.724 113.433C133.003 113.524 132.958 112.803 132.777 112.352C131.561 109.333 131.155 106.043 129.442 103.204C129.397 103.114 129.397 102.843 129.442 102.798C130.164 102.302 131.065 102.167 131.831 102.167C132.507 102.167 132.507 102.978 132.552 103.564C132.777 105.772 133.273 107.89 134.445 109.873Z" fill="black"/>
<path d="M91.3181 107.35C93.3911 108.161 95.6894 108.972 95.464 111.541C95.2387 114.38 92.8953 115.506 90.4619 116.363C89.6056 116.678 88.6593 117.129 87.803 117.084C86.6764 116.994 85.0992 117.715 85.8202 114.876C86.5412 112.127 85.6399 108.837 84.6485 105.953C83.2515 102.077 83.1614 102.077 87.1721 101.221C87.6679 101.131 88.1636 101.041 88.6593 100.906C90.1915 100.455 91.9039 100.185 92.7151 101.852C93.5262 103.519 93.4812 105.322 91.8589 106.719C91.6786 106.854 91.5885 107.079 91.3181 107.35ZM91.6786 113.749C92.9404 113.118 94.067 112.352 93.2108 110.82C92.3546 109.333 90.552 108.116 89.2001 109.152C87.758 110.234 89.155 112.217 89.5155 113.704C89.9211 115.326 90.9576 113.659 91.6786 113.749ZM89.7859 106.764C91.228 105.953 92.4898 104.871 91.6335 103.159C90.9125 101.717 89.2 102.032 88.2537 102.618C86.6314 103.609 87.7129 105.322 87.9833 106.629C88.2537 107.891 89.2 106.764 89.7859 106.764Z" fill="black"/>
<path d="M125.927 112.893C126.198 112.757 126.423 112.667 126.558 112.532C126.874 112.262 127.234 111.721 127.595 112.397C127.91 112.938 127.595 113.614 126.964 113.659C125.477 113.749 124.035 113.749 122.548 113.704C121.917 113.704 121.827 113.118 121.872 112.577C122.142 109.513 122.007 106.448 122.007 103.339C122.007 102.618 122.232 102.212 123.043 102.212C124.305 102.212 125.567 102.167 126.829 102.167C127.37 102.167 127.955 102.212 128.181 102.843C128.316 103.249 128.361 103.609 128 103.88C127.685 104.15 127.37 104.015 127.144 103.744C126.468 102.888 125.477 102.978 124.756 103.249C123.9 103.609 124.305 104.601 124.395 105.322C124.395 105.412 124.395 105.547 124.395 105.637C124.395 107.755 124.711 108.071 126.784 107.62C127.054 107.575 127.415 107.169 127.55 107.665C127.64 107.981 127.55 108.431 127.37 108.792C127.189 109.197 126.964 108.792 126.739 108.702C125.927 108.476 124.666 108.431 124.485 108.927C124.125 110.008 124.215 111.315 124.26 112.487C124.35 112.757 125.387 112.802 125.927 112.893Z" fill="black"/>
<path d="M105.288 111.18C106.099 112.983 105.558 113.749 103.755 113.794C101.998 113.839 100.285 114.064 98.5279 114.2C97.1759 114.29 96.5 114.38 97.221 112.442C97.8519 110.685 97.4463 108.521 97.2661 106.584C97.0858 104.961 97.3562 103.249 96.4549 101.717C95.9141 100.815 96.9506 100.725 97.4463 100.68C99.2489 100.545 101.097 100.545 102.899 100.455C104.431 100.41 104.026 101.536 104.116 102.483C102.674 101.131 100.871 101.401 99.7446 102.122C98.5279 102.888 99.3841 104.691 99.6545 105.953C99.8347 106.899 100.961 106.358 101.637 106.358C102.358 106.358 103.26 105.908 103.62 106.899C103.755 107.26 103.665 107.891 103.395 108.161C102.809 108.882 102.313 108.567 101.547 108.071C100.646 107.53 99.6545 107.665 99.9249 109.333C100.466 112.667 101.637 113.118 105.288 111.18Z" fill="black"/>
<path d="M112.093 111.496C112.408 111.496 113.084 110.865 113.309 111.541C113.535 112.262 113.354 113.298 112.588 113.659C111.191 114.29 109.704 114.109 108.217 113.884C107.541 113.749 107.721 113.073 107.676 112.532C107.496 109.062 107.992 105.547 107.406 102.077C107.316 101.446 107.631 100.86 108.127 100.815C108.983 100.725 109.93 100.455 110.651 100.996C111.146 101.356 110.786 101.942 110.696 102.438C110.155 105.367 110.741 108.296 110.696 111.225C110.786 112.262 111.507 111.631 112.093 111.496Z" fill="black"/>
<path d="M118.536 102.798C118.446 105.728 118.356 108.341 118.311 110.955C118.311 111.721 117.996 112.577 118.807 113.208C119.212 113.569 118.942 113.974 118.581 114.065C117.41 114.38 116.238 114.155 115.066 113.794C114.841 113.749 114.751 113.434 114.841 113.163C116.238 110.099 115.111 106.899 115.427 103.79C115.427 103.61 115.382 103.429 115.382 103.249C115.292 102.798 114.255 102.618 114.886 102.077C115.652 101.446 116.644 101.717 117.545 101.942C118.221 102.077 118.581 102.393 118.536 102.798Z" fill="black"/>
<path d="M170.09 96.399C170.946 96.8497 170.766 97.6608 170.631 98.3368C170.495 99.1029 169.819 99.4183 169.098 99.1029C168.377 98.7874 167.837 98.2467 168.107 97.3904C168.377 96.399 169.234 96.3539 170.09 96.399Z" fill="black"/>
<path d="M162.656 100.5C163.332 100.996 163.557 101.672 163.287 102.393C163.061 102.979 162.701 103.609 161.799 103.249C160.988 102.888 160.718 102.212 160.898 101.491C161.123 100.725 161.844 100.5 162.656 100.5Z" fill="black"/>
<path d="M155.174 104.241C156.076 104.601 156.121 105.322 155.986 106.088C155.85 106.809 155.265 106.989 154.634 106.764C153.777 106.494 153.147 105.863 153.462 104.962C153.687 104.331 154.453 104.15 155.174 104.241Z" fill="black"/>
</g>
<defs>
<clipPath id="clip0_1280_12362">
<rect width="224.397" height="244.051" fill="white"/>
</clipPath>
</defs>
</svg>
