<svg width="239" height="237" viewBox="0 0 239 237" fill="none" xmlns="http://www.w3.org/2000/svg">
<path d="M116.103 86.882C114.426 87.2461 112.833 88.129 111.168 89.0339C109.241 90.0979 108.306 92.0995 107.118 93.7902C106.633 94.4851 106.241 95.229 105.757 95.9239C105.272 96.6188 104.562 96.8388 103.715 96.8678C100.465 97.175 97.2734 96.9192 94.028 96.9914C90.4988 97.1516 86.9085 96.8639 83.3742 97.2591C80.5938 97.5762 77.7964 97.5874 75.065 97.8115C71.5797 98.1137 68.1385 98.5578 64.7022 98.767C61.9708 98.9912 59.1953 99.0733 56.4639 99.2975C54.7213 99.4486 52.9077 99.6216 51.187 99.8437C50.4332 99.9217 49.9903 99.7478 49.6773 98.989C49.2763 97.9462 49.1593 96.8155 48.5233 95.7677C46.6375 92.6955 43.75 91.4119 40.3627 91.5281C38.3631 91.6033 36.5296 92.7162 34.608 93.5451C32.4955 94.511 31.5159 96.3707 30.4212 98.1104C29.1306 100.222 27.329 100.936 24.9085 100.908C22.9579 100.89 21.0293 100.943 19.1057 100.762C17.3951 100.514 16.4262 99.6471 16.0132 98.0634C15.7102 96.8347 15.2452 96.5898 14.1755 97.1547C13.5097 97.5167 12.9738 97.2938 12.5408 96.6499C12.0418 95.7932 11.8268 94.8484 11.6118 93.9036C11.4578 93.4067 11.8177 93.0617 12.3366 92.9787C13.1394 92.8077 14.1502 92.8056 14.5371 92.2967C14.973 91.6948 14.2171 90.762 14.046 89.9592C12.78 85.3723 13.8095 81.1631 16.0088 77.2137C16.6186 76.1689 17.1574 75.1461 17.7672 74.1012C17.8652 73.9153 18.0341 73.7073 17.9192 73.5873C17.0383 73.0045 16.7353 71.7758 15.5655 71.5159C15.4015 71.4889 15.0736 71.435 15.0296 71.293C14.5186 69.8953 13.9146 68.4487 13.7586 66.941C13.6805 66.1872 15.0172 65.2283 15.837 65.3632C16.165 65.4171 16.4439 65.5641 16.4609 65.87C16.3601 67.3017 17.155 68.6114 17.0541 70.0431C16.9951 70.606 17.2201 71.0809 17.6581 71.4898C18.7149 72.6405 18.9279 72.5745 19.7776 71.2997C21.5041 68.5861 23.2305 65.8726 24.957 63.159C26.1716 61.3043 27.2003 59.3517 28.4369 57.5679C30.7192 54.1375 32.6296 50.5111 35.2128 47.2986C36.7824 45.3339 38.8239 44.39 41.0854 44.1559C45.7724 43.7146 50.5254 43.4864 55.2074 43.2801C61.8181 43.0207 68.3577 42.7833 74.8803 42.24C78.9065 41.9258 82.8616 41.6336 86.8708 41.0135C90.1481 40.5423 93.4424 40.3772 96.7587 40.283C99.84 40.1838 102.975 39.7566 106.013 39.5155C111.618 39.0232 117.212 39.0009 122.79 38.6725C126.014 38.5294 129.122 38.2662 132.279 37.9101C134.612 37.654 136.836 38.0537 138.627 40.0662C140.763 42.4386 142.304 45.1509 143.866 47.9342C144.568 49.1949 145.199 50.4776 146.07 51.5303C147.697 53.5158 148.538 55.9783 149.832 58.1447C150.786 59.7163 151.385 61.398 152.148 63.1066C152.999 65.0991 153.069 67.3336 153.33 69.4312C153.586 71.7637 153.842 74.0962 154.333 76.4337C154.741 78.2522 154.936 80.1368 155.038 81.9725C155.053 83.5241 155.542 84.8508 155.96 86.1995C156.483 88.1381 155.966 89.2319 154.12 89.8039C153.126 90.1119 152.177 90.5619 151.024 90.6079C150.483 90.62 149.704 91.8728 149.951 92.4187C150.484 93.8873 150.476 95.368 150.397 96.8707C150.306 97.8325 149.92 98.3414 148.745 98.3165C146.182 98.3327 143.772 97.8349 141.334 97.5012C140.116 97.3343 139.25 96.0466 139.219 94.189C139.211 93.4132 138.906 93.4302 138.436 93.4202C136.463 93.3314 134.568 93.9964 132.684 94.1914C131.717 94.3355 130.772 94.5505 129.805 94.6945C128.91 94.8166 128.325 94.6866 127.946 93.7149C127.633 92.956 127.391 92.1752 127.078 91.4164C126.232 89.1889 124.737 87.6293 122.278 87.2246C122.114 87.1976 121.95 87.1706 121.835 87.0506C119.155 85.936 119.155 85.936 116.103 86.882Z" fill="#030303"/>
<path d="M197.573 113.526C196.475 110.988 195.296 108.941 193.239 107.323C190.973 105.535 188.244 104.514 185.783 103.098C184.853 102.608 183.749 102.561 182.721 102.258C182.208 102.106 181.694 101.954 181.895 101.347C182.073 100.669 182.653 101.034 183.145 101.115C187.284 102.166 191.569 102.939 195.879 102.537C198.375 102.307 200.723 101.347 202.752 99.8617C203.827 99.0618 205.061 98.5238 206.025 97.369C204.474 97.3831 202.966 97.5392 201.578 97.5802C199.65 97.6334 197.922 97.0796 196.248 96.1979C193.946 95.0443 191.616 94.0546 188.966 93.7869C188.403 93.7279 187.884 93.8109 187.414 93.801C187.037 93.84 186.829 93.671 186.648 93.3381C186.538 92.9832 186.8 92.8242 186.969 92.6162C187.76 91.9043 188.82 91.8093 189.769 91.3593C192.215 90.2124 194.594 88.8525 197.243 88.1095C200.388 87.2125 203.655 87.2112 206.873 87.303C207.037 87.33 207.179 87.286 207.343 87.313C207.414 87.291 207.485 87.269 207.676 87.132C204.447 84.2428 200.886 82.5454 196.559 82.6416C193.713 82.7458 190.998 83.2759 188.262 83.735C185.007 84.2771 181.61 84.8632 178.276 84.6515C177.079 84.5556 176.92 84.2936 177.552 83.3198C178.402 82.045 179.274 80.8412 180.145 79.6374C180.946 78.4556 180.998 77.1168 181.214 75.8051C181.241 75.6411 181.175 75.4282 181.082 75.3792C180.803 75.2322 180.563 75.4622 180.323 75.6922C179.009 76.722 177.765 77.7299 176.45 78.7598C175.948 79.1487 175.348 79.7237 174.818 79.2658C174.194 78.7589 174.864 78.162 175.251 77.6531C175.371 77.5381 175.398 77.3741 175.523 77.0242C174.666 77.5232 174.067 78.0981 173.56 78.722C171.106 81.3496 168.193 83.4974 165.258 85.5741C161.63 88.1768 158.095 90.8285 154.719 93.7421C154.408 93.9941 154.212 94.3661 153.923 94.689C153.634 95.012 153.313 95.7338 152.76 95.205C152.3 94.7251 152.687 94.2162 153.118 93.8492C154.22 92.8854 155.37 91.8285 156.472 90.8646C160.23 87.677 164.377 84.9913 168.25 81.9237C171.408 79.311 174.495 76.7203 176.548 73.05C176.597 72.957 176.668 72.935 176.717 72.842C176.847 72.2571 177.075 71.4862 177.823 71.6432C178.758 71.8981 178.224 72.6859 178.116 73.3418C177.96 74.0907 177.874 74.8175 177.739 75.6373C177.69 75.7303 177.805 75.8503 177.871 76.0633C179.682 74.8794 181.33 73.6685 182.151 71.5469C182.275 71.197 182.662 70.688 183.105 70.862C183.548 71.0359 183.516 71.4348 183.413 71.8558C183.158 72.7906 183.045 73.6814 182.808 74.9222C184.362 73.6623 185.929 72.9434 187.561 72.4374C188.271 72.2174 188.281 71.7474 187.75 71.2896C186.874 70.4718 185.95 69.747 184.856 69.2302C184.298 68.9363 183.762 68.7134 184.132 67.8985C184.404 67.2696 184.054 67.1447 183.371 67.2007C181.606 67.2808 179.859 67.6669 178.094 67.747C177.717 67.786 177.362 67.896 177.137 67.4211C176.934 67.0172 177.174 66.7872 177.463 66.4643C178.854 65.1774 180.085 63.6287 181.082 62.0749C181.91 60.7291 182.295 59.2094 182.64 57.3128C179.93 59.8645 177.049 61.6133 174.486 63.886C174.006 64.3459 173.477 64.8989 172.755 64.578C172.197 64.2841 172.212 63.5792 172.249 62.9453C172.155 59.629 172.132 56.2907 172.906 53.0163C172.982 52.7594 172.845 52.5684 172.615 52.3285C171.455 53.8553 170.365 55.36 169.16 56.7448C167.569 58.6385 165.928 60.6252 164.359 62.5899C163.754 63.3998 163.064 62.68 162.746 62.1561C162.22 61.4633 161.814 60.6555 161.577 59.6397C160.808 60.4226 160.859 61.3404 160.795 62.1383C160.545 65.0947 159.731 67.9921 159.387 70.8995C159.333 71.2275 159.12 71.2935 158.907 71.3595C158.601 71.3765 158.322 71.2296 158.305 70.9236C158.266 70.5467 158.227 70.1698 158.352 69.8198C159.259 66.9714 159.368 64.059 159.804 61.2005C160.074 59.5608 160.672 57.9751 160.379 56.2765C160.34 55.8996 160.536 55.5276 160.984 55.4666C161.361 55.4276 161.498 55.6186 161.679 55.9515C162.545 57.2392 162.559 58.7908 163.163 60.2375C163.366 60.6414 163.329 61.2753 163.87 61.2632C164.269 61.2952 164.327 60.7323 164.545 60.4314C166.088 58.6306 167.702 56.8079 169.151 54.9582C170.552 53.2015 171.859 51.3957 173.189 49.661C173.407 49.3601 173.559 48.8462 174.073 48.9981C174.68 49.199 174.577 49.6199 174.496 50.1118C173.787 53.5992 173.384 57.0695 173.403 60.6427C173.41 61.4186 173.395 62.1234 173.424 62.9702C174.467 62.5693 175.213 61.7154 175.955 61.0965C177.848 59.4207 180.107 58.1758 181.934 56.2871C182.293 55.9421 182.631 55.5262 182.969 55.1102C183.187 54.8093 183.498 54.5573 183.87 54.7532C184.242 54.9492 184.352 55.3041 184.249 55.725C183.501 58.8354 182.94 62.0438 180.77 64.5834C180.361 65.0214 180.068 65.5793 179.654 66.2522C181.56 66.1281 183.303 65.977 185.068 65.8969C185.444 65.8579 185.772 65.9118 186.171 65.9438C186.663 66.0247 187.368 66.0397 187.495 66.7005C187.644 67.4324 186.983 67.5594 186.437 67.8064C185.87 67.9824 185.63 68.2124 186.346 68.7682C187.271 69.493 188.169 70.3817 188.996 71.2925C189.938 72.3232 189.857 72.8151 188.574 73.4461C186.675 74.346 184.775 75.246 182.876 76.1459C182.33 76.3929 182.484 76.8898 182.452 77.2887C182.393 77.8516 181.815 78.4975 182.133 79.0214C182.544 79.5942 183.193 78.9263 183.827 78.9633C185.116 79.1081 186.411 79.0181 187.914 79.097C187.153 78.3991 186.529 77.8923 185.954 77.2925C185.631 77.0035 185.144 76.6876 185.58 76.0857C185.994 75.4128 186.53 75.6358 186.973 75.8097C188.674 76.5274 190.477 76.8243 192.291 76.6512C194.246 76.4341 196.158 76.075 198.026 75.574C198.38 75.464 198.784 75.261 198.718 75.0481C198.679 74.6711 198.253 74.8032 197.974 74.6562C195.356 73.9895 193.107 72.508 190.881 71.0974C189.814 70.4166 190.343 69.8637 190.96 69.5947C194.568 67.9318 196.069 64.7434 197.248 61.266C197.471 60.7301 197.929 60.1992 197.616 59.4404C194.798 60.3914 191.969 60.8015 189.068 61.2336C188.173 61.3556 187.206 61.4996 186.288 61.5507C185.37 61.6017 184.986 60.8649 185.427 60.0281C186.478 58.1464 187.457 56.2867 188.229 54.2581C189.594 50.8787 190.444 47.3473 190.524 43.5881C190.507 43.2822 190.539 42.8833 190.189 42.7583C189.839 42.6333 189.736 43.0543 189.567 43.2622C186.604 47.7595 182.721 51.297 178.745 54.7856C178.314 55.1525 177.883 55.5195 177.352 55.0616C176.844 54.6747 177.323 54.2148 177.519 53.8429C179.009 50.1135 179.066 46.2833 178.397 42.3672C178.143 41.0455 177.96 39.7017 177.804 38.1941C176.409 39.7158 175.204 41.1006 173.884 42.3655C170.214 45.837 167.589 49.9183 165.402 54.4086C165.228 54.8515 165.076 55.3654 164.902 55.8083C164.826 56.0652 164.608 56.3662 164.28 56.3122C163.881 56.2803 163.864 55.9743 163.776 55.6904C163.649 55.0295 163.921 54.4006 164.029 53.7448C164.628 49.9025 163.67 46.3093 162.22 42.6352C161.534 43.937 161.296 45.1777 160.801 46.3425C159.78 49.071 158.736 51.7285 157.971 54.533C156.839 59.1631 156.105 63.8252 156.498 68.6052C156.554 69.2881 156.845 69.9759 156.972 70.6368C156.989 70.9427 156.957 71.3416 156.509 71.4026C156.132 71.4417 156.093 71.0647 156.005 70.7808C155.274 68.6733 155.319 66.5587 155.342 64.3732C155.505 58.8763 156.79 53.7323 158.686 48.5542C159.534 46.2686 160.288 43.9341 161.043 41.5995C161.07 41.4355 161.261 41.2985 161.217 41.1566C161.112 40.5667 161.149 39.9328 161.717 39.7568C162.426 39.5368 162.69 40.3886 162.822 40.8145C164.074 43.8498 165.539 46.8191 165.35 50.2234C165.323 50.3874 165.389 50.6003 165.455 50.8133C165.477 50.8843 165.592 51.0042 165.729 51.1952C167.176 48.3347 169.04 45.8121 171.182 43.4364C172.338 42.1446 173.586 40.9018 174.813 39.588C175.822 38.5751 176.737 37.5133 177.423 36.2115C177.57 35.9325 177.58 35.4626 178.001 35.5656C178.329 35.6196 178.51 35.9525 178.62 36.3074C179.219 37.989 179.25 39.8466 179.565 41.6162C179.775 42.796 179.914 43.9977 180.146 45.2485C180.522 47.466 179.773 49.5656 179.586 51.7242C179.559 51.8881 179.439 52.0031 179.762 52.292C180.814 51.4211 181.867 50.5502 182.898 49.6084C185.537 47.0787 187.783 44.2821 189.891 41.2946C190.06 41.0867 190.207 40.8077 190.376 40.5997C190.616 40.3698 190.511 39.7799 191.096 39.9098C191.517 40.0128 191.649 40.4387 191.666 40.7446C192.005 43.596 191.803 46.4594 191.131 49.3129C190.281 52.8442 188.916 56.2236 187.109 59.4291C187.06 59.5221 187.033 59.686 186.908 60.036C188.628 59.8139 190.229 59.7068 191.786 59.4578C193.697 59.0987 195.658 58.6467 197.481 58.0037C197.694 57.9377 197.978 57.8497 198.191 57.7837C198.546 57.6737 198.774 56.9028 199.42 57.4807C199.973 58.0095 199.657 58.4964 199.483 58.9393C198.364 61.8538 197.43 64.8663 195.544 67.3179C194.82 68.2427 193.958 68.9766 193.052 69.5686C192.337 70.0235 192.305 70.4225 193.12 70.7923C195.237 71.848 197.3 73.2315 199.737 73.5653C199.972 73.5703 200.229 73.6463 200.437 73.8152C200.809 74.0111 201.301 74.0921 201.291 74.562C201.281 75.0319 200.877 75.2349 200.522 75.3449C196.963 76.9148 193.326 77.7309 189.434 77.2252C189.106 77.1713 188.872 77.1663 188.49 77.4403C189.185 77.9251 189.786 78.361 190.41 78.8678C190.733 79.1568 191.149 79.4947 190.784 80.0746C190.419 80.6545 190.118 80.4365 189.627 80.3556C187.052 79.8309 184.571 79.3551 181.966 80.2401C180.617 80.6581 180.309 81.9209 179.606 82.9167C179.339 83.3107 179.782 83.4846 180.137 83.3746C183.578 82.9305 186.943 82.7433 190.368 81.9932C195.823 80.7691 201.254 80.7197 206.287 83.9057C207.562 84.7555 208.646 85.7422 209.681 86.8219C209.933 87.1328 210.114 87.4658 209.918 87.8377C209.722 88.2096 209.389 88.3906 208.919 88.3806C206.876 88.3138 204.761 88.2689 202.739 88.2731C199.729 88.3503 197.005 89.3502 194.324 90.4922C193.02 91.0522 191.808 91.6611 190.591 92.505C193.636 93.0397 196.168 94.4332 198.799 95.6408C200.543 96.5005 202.482 95.9775 204.34 95.9464C205.82 95.9543 207.125 95.3943 208.474 94.9763C209.042 94.8003 209.8 94.4873 210.091 95.1752C210.36 95.792 209.765 96.132 209.264 96.5209C207.589 97.8958 205.98 99.4835 204.147 100.596C199.077 103.568 196.882 104.015 190.898 103.536C192.217 104.527 193.442 105.47 194.739 106.391C196.731 107.796 197.91 109.843 198.805 111.977C199.277 112.998 199.891 113.975 200.101 115.155C200.118 115.461 200.441 115.75 200.059 116.024C199.655 116.227 199.447 116.058 199.124 115.769C197.071 113.915 194.605 112.735 191.937 112.161C190.019 111.744 188.041 111.89 186.129 112.249C182.945 112.769 179.837 113.032 176.692 111.673C177.105 113.257 178.309 114.128 179.011 115.389C180.053 117.245 180.691 119.303 181.4 121.34C181.51 121.695 181.456 122.023 181.216 122.253C180.834 122.526 180.604 122.287 180.374 122.047C176.641 118.536 171.661 117.278 167.22 114.998C165.453 114.067 164.095 112.699 162.906 111.122C162.632 110.74 162.38 110.429 161.925 109.714C161.77 111.474 161.342 112.852 160.842 114.252C160.695 114.53 160.663 114.929 160.494 115.137C160.254 115.367 160.124 115.952 159.588 115.729C159.145 115.555 159.106 115.178 159.116 114.709C159.068 112.545 158.239 110.623 157.459 108.609C156.195 105.033 154.025 102.048 152.118 98.9053C151.937 98.5723 151.805 98.1464 151.766 97.7695C151.771 97.5346 151.939 97.3266 152.223 97.2386C152.436 97.1726 152.622 97.2706 152.688 97.4835C153.977 99.8849 155.67 102.083 156.888 104.507C158.084 106.859 158.832 109.273 159.673 111.735C159.739 111.948 159.783 112.09 159.871 112.374C160.542 111.777 160.486 111.094 160.594 110.438C160.706 109.547 160.545 108.275 161.632 108.016C162.648 107.779 162.951 109.007 163.406 109.722C164.903 112.293 167.337 113.872 169.995 114.916C172.931 116.106 175.699 117.505 178.559 118.952C178.745 119.05 178.953 119.219 179.308 119.109C179.167 116.897 177.836 115.364 176.647 113.788C175.552 112.26 174.407 110.825 173.262 109.391C172.895 108.96 172.528 108.529 173.03 108.14C173.461 107.773 173.85 108.275 174.244 108.542C175.562 109.533 176.957 110.268 178.494 110.959C180.638 111.851 182.74 111.355 184.882 111.236C186.717 111.133 188.536 110.725 190.415 110.765C192.476 111.138 194.872 112.341 197.573 113.526Z" fill="#030303"/>
<path d="M45.3436 130.442C45.1468 133.07 43.7362 135.297 43.3315 137.757C43.2015 138.341 43.2796 139.095 42.5697 139.315C41.7889 139.557 41.4049 138.821 40.967 138.412C40.5071 137.932 40.0691 137.523 39.5872 136.972C39.1194 137.973 39.7113 138.879 39.7623 139.796C39.9354 141.61 40.3435 143.429 40.8225 145.225C41.4335 147.448 41.5256 149.753 42.2786 151.932C42.4106 152.358 42.2807 152.943 41.9968 153.031C40.6701 153.52 39.6124 154.625 38.0657 154.405C37.4318 154.368 37.0599 154.172 36.9548 153.582C36.4148 151.337 35.7108 149.066 35.3837 146.755C35.3447 146.378 35.1637 146.045 35.0537 145.691C32.7437 138.237 30.4337 130.784 28.1236 123.331C27.5736 121.556 29.0182 119.941 30.9149 120.287C32.8825 120.611 34.6222 121.705 36.2469 122.68C37.3847 123.339 38.4956 124.162 39.5354 125.006C40.1813 125.584 40.3283 125.305 40.4582 124.72C40.794 123.294 41.2008 121.845 41.3727 120.391C41.6795 118.118 43.0311 116.454 44.5467 114.817C45.6044 113.711 47.616 114.177 47.8431 115.663C48.9323 121.938 51.2502 127.911 52.8583 134.104C53.4033 136.113 54.1833 138.128 54.5153 140.203C54.9084 142.727 56.0333 145.101 56.2845 147.669C56.4065 148.565 55.8776 149.117 55.1948 149.173C54.135 149.269 53.1143 149.74 52.0985 149.978C51.1537 150.193 50.4538 149.943 50.1458 148.949C49.1658 145.285 48.1857 141.62 47.4186 137.89C46.9766 135.46 46.7034 132.821 45.3436 130.442Z" fill="#010101"/>
<path d="M74.5572 121.777C74.042 118.357 73.238 115.261 72.221 112.231C71.957 111.379 71.622 110.549 71.407 109.604C71.192 108.66 71.6058 107.987 72.5017 107.865C73.2555 107.787 73.9873 107.638 74.6042 107.369C75.505 107.012 76.0359 107.469 76.1849 108.201C77.3899 112.34 78.9719 116.44 80.3899 120.513C82.2308 125.7 83.5039 131.063 85.2739 136.272C86.2249 139.089 86.2029 139.018 83.4125 139.805C83.0576 139.915 82.7027 140.025 82.3478 140.135C81.239 140.323 80.2772 140.232 79.4553 139.087C77.0336 135.792 74.9938 132.222 72.55 128.856C72.3911 128.594 72.33 128.146 71.8551 128.371C71.5222 128.552 71.6542 128.978 71.7422 129.262C72.6073 132.806 73.1884 136.439 74.4084 139.873C74.6284 140.583 74.7284 141.408 74.8774 142.139C74.8994 142.21 74.8994 142.21 74.9214 142.281C74.8845 142.915 72.811 144.258 71.8222 144.331C70.8334 144.404 70.6134 143.694 70.3934 142.984C69.6454 140.571 68.8264 138.18 68.1494 135.744C67.0154 131.583 65.4774 127.625 63.9885 123.574C62.8345 120.353 61.8225 117.087 60.7395 113.844C60.0745 111.95 60.2214 111.671 61.7441 110.81C63.5996 109.768 64.8134 110.17 65.6353 111.315C67.915 114.655 71.0566 117.26 73.3853 120.506C73.6593 120.888 73.9822 121.177 74.5572 121.777Z" fill="#010101"/>
<path d="M187.61 168.741C186.862 166.328 186.136 163.985 185.388 161.572C185.146 160.791 184.975 159.988 185.646 159.391C186.366 158.701 187.223 158.203 188.321 158.484C189.349 158.788 190.399 159.163 191.302 159.817C193.501 161.391 195.941 162.736 198.092 164.404C198.278 164.501 198.557 164.648 198.77 164.582C199.032 164.423 199.015 164.118 198.927 163.834C198.421 162.201 197.893 160.497 197.386 158.865C197.21 158.297 197.127 157.778 197.093 157.166C197.064 156.319 197.336 155.69 198.144 155.284C199.023 154.856 199.843 154.991 200.511 155.64C201.616 156.698 202.411 158.008 202.922 159.405C203.675 161.584 204.357 163.784 205.11 165.963C206.237 169.348 207.009 172.843 208.136 176.228C208.29 176.725 208.324 177.337 208.266 177.9C208.008 180.081 206.453 181.34 204.346 179.815C201.961 178.142 199.793 176.169 197.865 173.966C197.613 173.655 197.486 172.994 196.941 173.241C196.679 173.4 196.855 173.968 196.965 174.323C197.385 176.682 198.515 178.822 198.416 181.264C198.374 182.133 198.425 183.051 197.94 183.746C196.627 185.786 194.447 185.528 193.016 183.171C192.243 181.932 191.896 180.562 191.336 179.257C189.641 176.048 188.781 172.269 187.61 168.741Z" fill="#010101"/>
<path d="M44.3419 177.667C43.9019 176.247 43.5328 174.806 43.0219 173.408C42.6869 172.578 43.0248 172.162 43.6196 171.822C44.9733 171.169 46.459 170.942 47.8737 170.737C48.3216 170.676 48.5026 171.009 48.6346 171.435C49.0596 173.559 50.3365 175.42 50.8545 177.594C51.0915 178.609 51.6395 179.373 52.2584 180.115C52.7843 180.808 53.2812 180.654 53.7661 179.959C54.8338 178.383 54.7977 176.76 54.3406 175.035C53.7076 172.741 52.9326 170.492 52.2776 168.127C51.6886 165.976 51.1705 163.802 50.5325 161.744C50.1365 160.466 49.3856 159.298 49.0606 157.999C48.8456 157.054 49.0685 156.518 49.9913 156.232C50.9851 155.924 52.0498 155.594 53.0216 155.215C53.9934 154.836 54.6222 155.108 55.0232 156.151C55.3802 157.051 55.2893 158.013 55.5753 158.936C56.8023 163.146 58.3843 167.246 59.8243 171.39C60.8413 174.421 61.1534 177.436 61.7935 180.505C62.1575 182.182 62.4995 183.787 61.7598 185.417C59.8565 189.819 55.7465 191.871 51.7482 189.765C49.3086 188.42 47.8067 186.085 46.4468 183.706C45.3829 181.779 44.9579 179.655 44.3419 177.667Z" fill="#010101"/>
<path d="M148.898 186.419C149.573 185.587 149.478 184.528 150.291 183.887C151.415 182.994 152.027 182.96 152.92 184.084C153.15 184.323 153.211 184.771 153.614 184.568C153.947 184.387 153.815 183.961 153.656 183.7C152.51 181.254 151.859 178.655 151.089 176.17C150.451 174.112 150.5 174.019 152.285 172.999C152.476 172.862 152.645 172.654 152.858 172.588C155.259 171.299 156.588 171.821 157.473 174.425C159.133 179.279 159.848 184.348 161.486 189.131C161.882 190.409 162.136 191.73 162.461 193.03C162.742 194.188 161.9 196.238 161.092 196.644C159.405 197.478 158.492 197.294 157.206 195.904C156.264 194.873 155.442 193.727 154.309 192.834C153.758 193.316 153.721 193.949 153.684 194.583C153.605 196.086 153.411 197.469 153.005 198.917C152.625 200.202 151.927 200.963 150.632 201.053C149.43 201.192 148.746 200.237 148.389 199.337C146.802 195.472 145.024 191.743 143.579 187.834C142.535 184.968 141.229 182.261 139.994 179.531C139.681 178.773 139.674 177.997 140.504 177.662C141.71 177.288 142.665 176.603 143.872 176.229C145.008 175.877 145.703 176.362 145.989 177.284C146.715 179.627 147.703 181.81 147.932 184.307C147.917 185.012 148.443 185.704 148.898 186.419Z" fill="#010101"/>
<path d="M81.9461 211.138C81.0951 209.145 81.047 206.982 80.267 204.967C79.91 204.066 79.9079 203.056 79.7639 202.089C79.6419 201.193 80.3517 200.973 80.9146 201.032C81.6904 201.025 82.4933 200.854 83.1811 200.563C84.2728 200.069 84.7548 200.62 85.1118 201.52C85.4908 202.492 85.8697 203.464 86.2267 204.365C87.4517 207.564 89.1515 210.538 89.7376 213.936C90.2067 216.202 91.1286 218.173 91.7397 220.395C91.9377 221.034 91.9937 221.717 92.0987 222.307C92.2477 223.039 91.6749 223.45 91.298 223.489C90.0032 223.579 88.9335 224.144 87.7757 224.425C87.0659 224.645 86.552 224.493 86.0481 223.871C85.2042 222.654 84.0983 221.596 82.9925 220.539C82.7845 220.37 82.6525 219.944 82.3196 220.125C81.9157 220.328 81.9767 220.776 82.0867 221.131C82.5757 222.457 82.7587 223.801 83.0348 225.194C83.2718 226.21 83.0439 226.98 81.9791 227.31C81.7662 227.376 81.4822 227.464 81.2913 227.601C79.4357 228.643 78.4789 228.317 77.7699 226.281C76.215 222.017 74.0431 218.022 72.4882 213.758C71.7572 211.65 71.0752 209.45 70.3932 207.249C70.2172 206.681 70.5821 206.102 71.035 205.806C72.7755 204.644 74.7921 204.874 76.2649 206.363C77.9237 207.95 79.5115 209.558 81.1702 211.145C81.4272 211.221 81.5422 211.341 81.9461 211.138Z" fill="#010101"/>
<path d="M105.475 115.851C105.819 112.944 105.617 110.283 105.721 107.606C105.751 106.196 106.323 105.785 107.63 106.236C108.33 106.486 109.03 106.736 109.828 106.8C110.391 106.858 110.878 107.174 110.841 107.808C110.602 111.306 111.188 114.703 111.255 118.183C111.305 121.357 111.449 124.581 111.876 127.716C111.976 128.541 111.819 129.29 110.759 129.385C109.721 129.551 108.842 129.979 107.805 130.145C106.98 130.245 106.493 129.929 106.224 129.312C103.92 124.891 101.185 120.837 98.6197 116.575C96.6899 113.361 95.022 109.988 93.2341 106.73C92.7132 105.802 91.9523 105.104 91.5513 104.061C91.1013 103.112 91.4222 102.39 92.372 101.94C93.5617 101.26 94.9494 101.219 96.3201 100.872C97.1719 100.608 97.6929 101.535 98.1478 102.25C99.8257 105.154 101.482 107.986 103.088 110.911C103.785 112.407 104.526 114.044 105.475 115.851Z" fill="#010101"/>
<path d="M160.8 147.253C161.668 149.551 161.618 151.901 160.186 154.056C158.633 156.327 154.545 158.45 151.643 155.615C149.985 154.028 147.988 152.857 146.831 150.882C146.332 150.025 146.024 149.031 145.902 148.136C145.719 146.792 147.384 145.887 148.827 146.529C149.806 146.926 150.589 147.694 151.35 148.392C151.903 148.921 152.527 149.428 153.45 149.142C154.159 148.922 154.497 148.506 154.561 147.708C154.743 145.784 153.762 144.377 152.617 142.942C151.035 141.099 148.994 139.786 147.482 137.921C145.285 135.1 144.432 132.097 145.868 128.696C146.265 127.717 147.121 127.218 147.919 127.282C151.532 127.64 154.872 128.628 157.255 131.546C157.918 132.43 158.226 133.424 158.179 134.528C158.095 136.265 157.38 136.72 155.74 136.45C155.341 136.418 154.991 136.293 154.566 136.425C153.856 136.645 153.589 137.039 154.115 137.732C154.8 138.687 155.485 139.642 156.36 140.459C158.129 142.401 159.991 144.391 160.8 147.253Z" fill="#010101"/>
<path d="M175.689 163.411C176.798 163.223 178.129 162.499 179.588 162.436C180.506 162.385 181.015 162.772 181.186 163.575C181.506 165.109 181.804 166.573 182.053 168.13C182.263 169.31 181.061 169.449 180.395 169.811C179.801 170.151 179.211 170.256 179.568 171.156C179.881 171.915 179.719 172.899 181.16 172.53C182.247 172.271 183.155 172.69 183.338 174.033C183.443 174.623 183.712 175.24 183.888 175.808C184.059 176.611 184.022 177.245 183.028 177.553C182.155 177.746 182.025 178.331 182.338 179.089C182.981 180.913 182.91 180.935 184.843 180.647C186.848 180.337 187.751 180.991 188.367 182.978C188.719 184.114 189.142 185.228 188.904 186.469C188.747 187.217 188.36 187.726 187.672 188.017C185.848 188.66 184.003 189.232 182.086 189.826C180.88 190.2 179.928 189.639 179.483 188.455C177.945 184.497 176.407 180.539 174.94 176.559C173.764 173.266 172.446 170.018 171.319 166.633C170.967 165.497 171.332 164.917 172.326 164.609C173.346 164.137 174.34 163.829 175.689 163.411Z" fill="#010101"/>
<path d="M163.508 183.603C162.584 180.622 161.753 177.689 160.687 174.752C160.22 173.496 159.682 172.263 159.286 170.985C158.956 169.92 159.391 169.318 160.297 168.726C162.224 167.662 164.404 167.92 166.348 167.162C166.845 167.008 167.075 167.248 167.3 167.723C167.877 169.334 167.935 171.027 168.419 172.589C168.617 173.228 168.154 173.994 167.351 174.165C166.548 174.336 166.117 174.703 166.758 175.515C166.895 175.706 166.983 175.99 166.978 176.225C167.166 177.334 167.604 177.743 168.789 177.298C169.548 176.985 170.248 177.235 170.463 178.18C170.507 178.322 170.551 178.464 170.617 178.677C170.859 179.457 171.265 180.265 171.201 181.063C171.115 181.79 170.077 181.956 169.433 182.389C168.718 182.844 168.872 183.341 169.07 183.98C169.796 186.322 169.796 186.322 172.117 185.525C174.011 184.86 173.94 184.882 174.534 186.799C174.974 188.218 175.109 189.655 175.243 191.092C175.365 191.987 174.978 192.496 174.148 192.831C171.964 193.819 169.593 193.698 167.353 194.004C166.693 194.131 166.353 193.536 166.155 192.897C165.4 189.708 164.454 186.655 163.508 183.603Z" fill="#010101"/>
<path d="M127.866 209.432C126.686 209.642 125.354 210.366 123.847 210.522C122.88 210.666 122.42 210.186 122.156 209.335C121.019 206.419 120.024 203.46 118.838 200.638C117.339 197.056 115.747 193.426 114.177 189.867C113.886 189.179 113.945 188.616 114.633 188.325C117.002 187.435 119.262 186.191 121.719 185.585C123.232 185.193 123.511 185.34 123.973 186.831C124.281 187.825 124.611 188.89 124.919 189.883C125.337 191.232 125.092 191.697 123.787 192.257C123.574 192.323 123.454 192.438 123.264 192.575C122.882 192.849 122.062 192.714 122.074 193.255C122.059 193.96 122.372 194.719 122.663 195.406C122.91 195.952 123.456 195.705 123.975 195.622C125.416 195.253 125.673 195.329 126.113 196.749C126.245 197.175 126.284 197.552 126.487 197.956C126.981 199.047 126.731 199.747 125.64 200.241C124.881 200.554 124.778 200.975 125.326 201.739C126.373 203.36 126.324 203.453 128.169 202.88C128.595 202.748 129.021 202.616 129.447 202.484C130.25 202.313 130.857 202.514 131.121 203.366C131.588 204.622 131.962 205.829 132.358 207.106C132.556 207.745 132.36 208.117 131.721 208.315C130.612 208.503 129.427 208.948 127.866 209.432Z" fill="#010101"/>
<path d="M135.139 199.009C134.176 195.65 132.684 192.845 131.525 189.859C131.256 189.242 130.874 189.516 130.519 189.626C127.44 190.736 127.859 189.828 127.15 187.792C126.82 186.727 126.703 185.596 126.04 184.712C125.766 184.33 125.918 183.816 126.371 183.521C126.704 183.34 127.015 183.088 127.298 183C130.04 182.306 132.49 180.924 135.232 180.23C137.121 179.8 137.564 179.973 138.136 181.819C138.334 182.458 138.554 183.168 138.752 183.807C139.236 185.368 139.111 185.718 137.709 186.464C137.043 186.826 136.989 187.154 137.116 187.815C138.184 191.763 139.869 195.442 141.27 199.209C141.737 200.465 142.466 201.562 142.955 202.888C143.109 203.385 143.192 203.904 142.531 204.031C141.302 204.334 140.183 204.992 138.999 205.437C138.098 205.794 137.518 205.429 137.325 204.555C136.638 202.59 135.383 200.8 135.139 199.009Z" fill="#010101"/>
<path d="M131.785 116.644C130.692 113.871 130.319 110.407 129.143 107.115C128.852 106.427 129.048 106.055 129.828 105.813C130.467 105.615 131.177 105.395 131.794 105.126C132.624 104.791 133.368 105.183 133.845 105.969C134.343 106.826 134.891 107.59 135.581 108.309C135.789 108.478 136.161 108.674 136.374 108.608C136.822 108.547 136.526 108.094 136.531 107.859C136.59 107.297 136.485 106.707 136.473 106.166C136.51 105.532 136.569 104.969 137.306 104.585C140.04 103.115 140.926 103.463 141.331 106.527C141.526 108.412 142.147 110.165 142.555 111.983C143.051 114.086 143.099 116.249 143.453 118.396C143.514 118.844 143.685 119.647 142.976 119.867C142.053 120.153 141.24 120.794 140.173 120.113C139.478 119.628 139.045 118.984 138.421 118.477C138.213 118.308 137.891 118.019 137.558 118.2C137.247 118.452 137.57 118.741 137.565 118.976C138.11 120.986 137.941 121.194 135.948 122.045C133.956 122.896 133.655 122.678 133.039 120.69C133.017 120.619 132.995 120.548 132.973 120.477C132.643 119.412 132.291 118.277 131.785 116.644Z" fill="#010101"/>
<path d="M60.3712 123.45C61.2952 126.432 62.3391 129.298 63.1212 132.323C64.0962 136.222 65.2623 139.985 66.4503 143.818C66.7363 144.741 66.6723 145.538 65.4706 145.677C65.3286 145.721 65.2576 145.743 65.1157 145.787C62.2273 146.76 61.9214 146.777 61.4233 143.664C61.1082 141.895 60.3183 140.35 59.7903 138.646C58.4263 134.245 56.4234 130.042 55.4853 125.509C54.8892 122.582 53.6763 119.924 52.7963 117.084C52.7523 116.942 52.7083 116.8 52.6423 116.587C51.5444 114.049 51.6203 113.792 54.2907 113.12C57.0321 112.426 57.0321 112.426 57.8681 115.123C58.6551 117.914 59.5132 120.682 60.3712 123.45Z" fill="#010101"/>
<path d="M85.7889 113.083C88.1969 120.35 90.6978 127.666 92.8929 135C93.2449 136.136 93.0929 136.649 91.8642 136.952C91.2033 137.079 90.5645 137.277 89.9476 137.546C89.0469 137.903 88.5379 137.517 88.2739 136.665C88.1419 136.239 88.0099 135.813 87.8779 135.387C86.7929 131.133 85.0689 127.077 83.629 122.933C82.744 120.328 82.0719 117.658 80.974 115.12C79.969 112.63 79.248 110.053 78.385 107.519C78.055 106.455 78.3929 106.039 79.4087 105.802C80.1405 105.653 80.9434 105.482 81.6532 105.262C82.7889 104.91 83.3688 105.275 83.6989 106.339C84.3809 108.54 85.0849 110.811 85.7889 113.083Z" fill="#010101"/>
<path d="M65.2285 222.466C64.3634 218.921 62.5046 215.685 61.4976 212.185C60.9696 210.481 61.1385 210.273 62.8371 209.98C63.733 209.858 64.6167 209.195 65.6176 209.663C66.6894 210.109 66.3805 211.372 66.9064 212.065C67.9583 213.45 68.1094 215.193 68.8064 216.689C70.5133 220.439 71.9092 224.441 73.3322 228.279C73.4202 228.563 73.5302 228.918 73.6182 229.202C73.9042 230.124 73.7033 230.731 72.7805 231.017C72.0707 231.237 71.4488 231.741 70.668 231.983C69.5543 232.406 68.9034 232.063 68.3604 231.065C68.2234 230.874 68.1794 230.732 68.1134 230.519C67.4194 227.777 65.9445 225.278 65.2285 222.466Z" fill="#010101"/>
<path d="M148.634 113.522C148.341 111.824 147.017 111.067 145.933 110.08C143.694 108.129 142.398 104.952 145.339 102.64C146.773 101.495 148.631 101.464 150.381 102.089C152.223 102.762 152.8 104.373 153.115 106.143C153.181 106.356 153.127 106.684 153.144 106.99C153.227 107.508 152.983 107.973 152.508 108.198C152.104 108.401 151.776 108.347 151.409 107.916C151.25 107.655 150.976 107.273 150.616 107.618C150.327 107.941 150.366 108.317 150.618 108.628C151.095 109.414 151.883 109.948 152.431 110.712C154.562 113.319 153.601 116.496 151.495 118.237C150.443 119.108 149.148 119.198 147.819 118.676C146.305 118.057 144.578 115.246 144.706 113.651C144.726 112.711 145.435 112.491 146.123 112.2C146.833 111.98 147.374 111.968 147.829 112.683C148.01 113.016 148.311 113.234 148.634 113.522Z" fill="#010101"/>
<path d="M165.209 77.8868C163.897 77.6709 162.666 76.9631 161.431 76.4903C161.245 76.3923 161.179 76.1794 160.944 76.1744C160.638 76.1914 160.229 76.6293 160.031 75.9905C159.877 75.4936 160.237 75.1487 160.597 74.8037C161.649 73.9328 162.954 73.3728 164.188 72.8349C164.401 72.7689 164.8 72.8008 164.783 72.4949C165.026 71.0192 166.359 71.306 167.162 71.135C167.894 70.986 168.533 70.788 169.395 70.0541C168.117 70.4501 167.123 70.7581 166.129 71.0661C165.491 71.2641 164.759 71.4131 164.326 70.7693C163.964 70.1034 164.608 69.6705 165.016 69.2326C165.594 68.5866 166.15 67.8698 166.848 67.1089C165.012 67.211 163.752 67.9129 162.738 69.1607C162.111 69.8996 161.391 70.5895 160.972 71.4974C160.848 71.8473 160.559 72.1702 160.116 71.9963C159.509 71.7954 159.661 71.2815 159.879 70.9805C161.622 68.5729 163.136 65.9254 166.616 65.8581C167.157 65.8461 167.637 65.3862 168.315 65.5651C168.828 65.717 169.32 65.798 169.354 66.4098C169.366 66.9507 169.122 67.4157 168.625 67.5697C167.702 67.8557 167.239 68.6215 166.732 69.2454C166.612 69.3604 166.35 69.5194 166.487 69.7104C166.668 70.0433 166.93 69.8843 167.143 69.8183C167.902 69.5053 168.71 69.0993 169.469 68.7863C169.965 68.6323 170.347 68.3584 170.932 68.4883C171.331 68.5203 171.779 68.4593 172.004 68.9341C172.158 69.431 171.869 69.754 171.629 69.984C170.522 71.1828 169.301 72.2616 167.558 72.4127C167.663 73.0026 168.04 72.9636 168.319 73.1105C168.762 73.2845 169.249 73.6004 169.075 74.0433C168.901 74.4862 168.382 74.5692 167.89 74.4883C167.42 74.4783 166.928 74.3974 166.415 74.2454C164.824 73.8826 163.47 74.5356 162.111 75.4235C164.365 76.6701 166.847 77.1458 169.274 77.9495C169.717 78.1234 170.449 77.9744 170.434 78.6792C170.419 79.3841 169.763 79.2762 169.244 79.3592C167.497 79.7452 165.705 79.9893 163.928 79.5285C163.764 79.5015 163.441 79.2126 163.295 79.4916C163.197 79.6775 163.307 80.0324 163.422 80.1524C163.996 80.7522 164.075 81.5061 164.011 82.3039C164.006 82.5389 164.001 82.7738 163.717 82.8618C163.433 82.9498 163.247 82.8519 163.039 82.6829C161.686 81.0793 159.892 80.3126 157.979 79.6609C157.722 79.5849 157.23 79.504 157.382 78.9901C157.512 78.4052 158.031 78.3221 158.473 78.4961C159.08 78.697 159.66 79.0619 160.289 79.3338C160.568 79.4807 161.126 79.7746 161.004 78.8788C160.899 78.289 161.401 77.9 162.221 78.0349C163.062 78.2408 164.002 78.2608 164.822 78.3957C165.079 78.4716 165.292 78.4056 165.483 78.2687C165.461 78.1977 165.253 78.0287 165.209 77.8868Z" fill="#030303"/>
<path d="M102.631 181.231C103.191 182.536 103.281 183.83 103.988 184.856C104.125 185.047 104.213 185.331 104.279 185.544C104.433 186.041 104.56 186.702 104.014 186.949C103.326 187.24 103.248 186.486 103.023 186.011C102.089 183.499 101.177 181.059 100.243 178.548C100.089 178.051 99.9129 177.483 100.366 177.187C101.01 176.754 101.492 177.305 101.837 177.665C102.91 179.121 103.962 180.507 105.276 181.734C105.707 181.367 105.411 180.914 105.301 180.559C104.927 179.352 104.575 178.216 104.201 177.01C104.091 176.655 103.981 176.3 104.106 175.95C104.182 175.693 104.307 175.343 104.635 175.397C104.799 175.424 105.122 175.713 105.095 175.877C105.378 178.045 106.606 179.999 106.725 182.14C106.737 182.681 106.984 183.227 107.231 183.773C107.363 184.199 107.637 184.581 107.255 184.855C106.802 185.151 106.386 184.813 106.063 184.524C105.329 183.662 104.595 182.8 103.861 181.939C103.516 181.579 103.287 181.339 102.631 181.231Z" fill="#050505"/>
<path d="M92.0344 185.448C93.0992 185.118 93.726 184.379 94.6048 183.951C95.0797 183.726 94.8277 183.416 94.7397 183.132C94.4537 182.209 94.1677 181.286 93.9037 180.434C93.7277 179.866 93.8796 179.352 94.3055 179.22C94.7314 179.088 95.0984 179.519 95.2524 180.016C95.8024 181.791 96.3524 183.565 96.9024 185.34C97.2104 186.334 97.4694 187.421 98.0614 188.326C98.3353 188.708 98.3254 189.178 97.8285 189.332C97.3536 189.557 96.9597 189.29 96.8057 188.793C96.5246 187.636 95.7198 186.796 95.5097 185.616C95.4487 185.168 95.3337 185.048 94.7878 185.295C92.5774 186.447 92.3495 187.218 93.7143 189.362C93.8953 189.695 94.1473 190.006 94.0933 190.334C94.0394 190.662 94.1494 191.017 93.7235 191.149C93.2976 191.281 93.0456 190.97 92.8646 190.637C91.7716 187.864 90.4877 185.227 89.7497 182.344C89.7277 182.273 89.7277 182.273 89.7057 182.202C89.5737 181.776 89.3977 181.208 89.9656 181.032C90.6044 180.834 90.7804 181.402 90.9344 181.899C91.1764 182.68 91.4184 183.461 91.6604 184.242C91.7704 184.597 91.9024 185.022 92.0344 185.448Z" fill="#040404"/>
<path d="M107.426 180.133C106.954 179.113 106.793 177.84 107.244 176.533C107.744 175.134 109.479 174.207 110.666 174.772C110.945 174.919 111.366 175.022 111.263 175.443C111.231 175.842 110.854 175.881 110.477 175.92C108.15 175.941 107.819 177.133 108.151 179.209C108.278 179.869 108.569 180.557 108.767 181.196C109.168 182.239 110.213 182.849 111.278 182.519C112.2 182.233 112.903 181.237 112.666 180.221C112.517 179.489 112.069 179.55 111.479 179.655C110.889 179.76 109.979 180.587 109.72 179.5C109.527 178.627 110.625 178.909 111.171 178.662C111.93 178.349 112.831 177.992 113.352 178.919C114.01 180.038 113.823 182.197 112.89 182.953C111.145 184.349 108.308 183.984 107.587 181.406C107.761 180.963 107.58 180.63 107.426 180.133Z" fill="#050505"/>
<path d="M64.6062 198.617C64.3892 196.662 64.1401 195.105 63.94 193.456C63.857 192.937 64.1069 192.237 64.6478 192.225C65.2597 192.191 65.2447 192.896 65.2348 193.366C65.3979 195.649 65.468 197.884 66.15 200.084C66.238 200.368 66.326 200.652 66.2501 200.909C66.1741 201.166 66.2841 201.521 65.9292 201.631C65.6452 201.719 65.3663 201.572 65.2073 201.31C63.4875 199.275 61.6968 197.263 59.977 195.228C59.725 194.918 59.3091 194.58 59.74 194.213C60.1488 193.775 60.5648 194.113 60.8877 194.402C62.1526 195.721 63.2534 197.014 64.6062 198.617Z" fill="#050505"/>
<path d="M66.6365 194.876C66.4385 194.238 66.3115 193.577 66.0425 192.96C65.6365 192.152 66.0234 191.643 66.6403 191.374C67.3991 191.061 68.1799 190.819 68.9607 190.577C69.2447 190.489 69.4086 190.516 69.5896 190.849C69.6776 191.133 69.6726 191.368 69.3617 191.62C68.9088 191.916 68.385 192.234 67.7951 192.339C66.9213 192.532 66.9113 193.002 67.3223 193.575C67.6182 194.027 67.8212 194.431 67.9042 194.95C68.0582 195.447 68.2392 195.78 68.8561 195.511C69.282 195.379 69.8009 195.296 69.9769 195.864C70.1529 196.432 69.541 196.466 69.1861 196.576C68.5252 196.703 68.4933 197.102 68.7182 197.577C68.9872 198.194 69.2072 198.903 69.6182 199.476C70.0291 200.049 70.602 199.638 70.8419 199.408C71.2728 199.041 71.5788 199.024 71.8037 199.499C72.0777 199.881 71.7888 200.204 71.4559 200.385C70.91 200.632 70.4791 200.999 69.8892 201.104C69.1574 201.253 68.6485 200.866 68.4285 200.156C68.0474 198.174 67.0935 196.602 66.6365 194.876Z" fill="#040404"/>
<path d="M55.9959 198.952C55.7759 198.242 55.6439 197.816 55.5119 197.39C54.9619 195.616 54.9619 195.616 56.7145 194.995C57.2114 194.841 57.6373 194.709 58.1341 194.555C58.4891 194.445 58.795 194.428 58.927 194.854C59.081 195.351 58.8681 195.417 58.5131 195.527C58.4421 195.549 58.4421 195.549 58.3712 195.571C56.2147 196.395 56.2856 196.373 56.9457 198.502C57.2097 199.354 57.5816 199.55 58.4114 199.215C58.6953 199.127 59.0063 198.875 59.2312 199.35C59.4342 199.754 59.0303 199.957 58.8394 200.094C58.3155 200.412 57.6937 200.916 58.2246 201.373C58.9635 202 58.5907 204.061 60.4632 203.325C60.8892 203.193 61.2171 203.247 61.3491 203.673C61.5961 204.219 61.0282 204.395 60.7663 204.554C59.3196 205.158 58.7397 204.793 57.8788 203.27C57.0399 201.818 56.3429 200.323 55.9959 198.952Z" fill="#040404"/>
<path d="M85.9691 187.717C85.8591 187.362 85.7931 187.149 85.7051 186.866C85.2211 185.304 85.2211 185.304 83.6375 185.717C83.2825 185.827 82.8786 186.03 82.6806 185.391C82.5046 184.823 82.8816 184.784 83.2365 184.674C84.5142 184.278 85.5669 183.407 86.8006 182.869C87.3465 182.622 87.8924 182.375 88.2103 182.899C88.5503 183.494 87.9334 183.763 87.3656 183.939C86.1099 184.406 86.0829 184.57 86.7138 185.853C87.1858 186.873 87.4448 187.96 87.7748 189.025C88.1048 190.09 88.5768 191.11 89.0978 192.038C89.3007 192.442 89.5037 192.846 89.0288 193.071C88.5539 193.296 88.253 193.078 88.028 192.603C87.2161 190.988 86.4041 189.372 85.9691 187.717Z" fill="#060606"/>
<path d="M76.8372 187.124C77.2142 187.085 77.4221 187.254 77.6301 187.423C78.161 187.881 78.7139 188.41 79.3158 188.845C79.9178 189.281 80.3877 189.291 80.5226 188.471C80.6255 188.051 80.6575 187.652 80.6895 187.253C80.6994 186.783 80.8734 186.34 81.3873 186.492C81.8082 186.595 81.8692 187.043 81.6953 187.486C81.4674 188.256 81.4254 189.125 81.1975 189.896C81.0236 190.339 81.0846 190.787 81.3146 191.027C82.1365 192.173 82.1066 193.582 82.9285 194.728C83.1805 195.039 83.2635 195.558 82.7886 195.783C82.2647 196.101 82.2527 195.56 82.0227 195.32C81.1298 194.196 81.2087 192.694 80.3648 191.477C79.9539 190.904 79.6579 190.451 79.149 190.064C78.3391 189.459 77.5072 188.784 76.8393 188.135C76.6093 187.895 76.4064 187.491 76.8372 187.124Z" fill="#070707"/>
<path d="M98.4331 182.999C98.0151 181.65 97.5971 180.301 97.2011 179.024C97.0691 178.598 96.8931 178.03 97.4609 177.854C97.9578 177.7 98.0408 178.219 98.2438 178.623C99.3858 181.303 100.151 184.022 101.009 186.791C101.141 187.217 101.481 187.811 100.771 188.031C100.132 188.229 99.8631 187.613 99.7091 187.116C99.2691 185.696 98.8511 184.347 98.4331 182.999Z" fill="#050505"/>
<path d="M163.736 97.4826C164.184 97.4216 164.539 97.3116 164.786 97.8575C164.213 98.2684 163.699 98.1165 163.092 97.9156C163.305 97.8496 163.704 97.8816 163.736 97.4826Z" fill="#A8A8A8"/>
<path d="M151.626 64.4353C152.159 65.904 152.222 67.3627 152.236 68.9144C152.318 71.6898 152.968 74.2892 153.498 77.0036C153.708 78.1834 153.613 79.3801 153.965 80.5159C154.141 81.0837 153.578 81.0248 153.223 81.1348C151.35 81.8708 149.405 81.6179 147.432 81.5291C144.896 81.3813 142.378 81.5394 139.855 81.9325C137.047 82.4136 134.184 82.2118 131.31 82.48C128.131 82.7651 124.95 82.0395 121.792 82.3956C118.329 82.7688 114.827 82.765 111.425 83.5861C110.054 83.9331 108.644 83.9032 107.278 84.0153C106.667 84.0493 106.655 83.5084 106.664 83.0385C106.741 80.525 106.747 78.0335 106.824 75.52C106.868 70.1381 106.747 64.7293 106.884 59.3964C106.978 57.1888 107.377 54.9642 107.307 52.7297C107.289 49.1564 107.178 45.5342 107.018 42.0049C106.989 41.1581 107.114 40.8082 108.031 40.7571C110.55 40.599 113.117 40.3479 115.68 40.3317C120.029 40.3064 124.405 40.1172 128.808 39.7639C130.999 39.5518 133.167 39.2688 135.326 39.4556C135.889 39.5145 136.446 39.8084 136.884 40.2173C138.132 41.231 139.309 42.2667 140.077 43.7404C140.642 44.8101 141.469 45.7209 142.034 46.7906C143.054 48.5752 143.741 50.5407 145.001 52.0953C146.742 54.2008 147.583 56.6632 148.899 58.9007C150.017 60.4993 150.868 62.4918 151.626 64.4353Z" fill="#FEFEFE"/>
<path d="M104.601 83.9114C100.629 83.8977 96.7907 85.3207 92.6156 84.903C89.8721 84.5863 87.0157 85.1603 84.2183 85.1715C81.1859 85.1777 78.1805 85.02 75.1482 85.0262C73.3615 85.0353 71.5259 85.1374 69.7123 85.3105C68.4176 85.4005 68.3836 84.7887 68.3325 83.8708C68.2163 80.4836 68.0781 77.0253 67.8909 73.66C67.6577 69.1419 67.1185 64.6409 67.1202 60.1278C67.1489 55.4508 66.6586 50.8568 66.4744 46.2457C66.3602 43.8692 66.3602 43.8692 68.7147 43.6841C72.08 43.4969 75.4233 43.2388 78.7446 42.9096C80.7222 42.7635 82.6558 42.4754 84.6554 42.4003C87.1249 42.3352 89.4453 41.5382 91.9368 41.544C94.4063 41.4789 96.8758 41.4137 99.3503 41.1136C101.213 40.8475 103.07 40.8164 104.884 40.6433C105.709 40.5433 106.032 40.8322 106.061 41.679C106.079 45.2523 106.168 48.8036 106.258 52.3548C106.326 53.5786 106.252 54.8463 106.134 55.9721C105.326 61.9019 105.836 67.8127 105.64 73.7085C105.553 76.6919 105.538 79.6532 105.544 82.6856C105.458 83.4125 105.355 83.8334 104.601 83.9114Z" fill="#FEFEFE"/>
<path d="M103.412 95.6391C103.035 95.6781 102.281 95.7562 101.576 95.7412C96.4515 95.7736 91.2826 95.6639 86.1307 95.8602C82.0385 95.9615 77.9414 96.2977 73.8663 96.7049C72.2876 96.8829 70.7089 97.061 69.2232 97.2881C68.4914 97.4371 68.4034 97.1531 68.4404 96.5193C68.5292 94.5467 68.5961 92.5031 68.5209 90.5035C68.5359 89.7986 68.6559 89.6837 69.2677 89.6496C71.2893 89.6455 73.3379 89.4774 75.3375 89.4023C79.4076 89.23 83.4778 89.0578 87.4769 88.9076C91.5471 88.7353 95.6562 88.94 99.7094 88.4618C101.217 88.3058 102.676 88.2427 104.161 88.0156C104.915 87.9376 105.238 88.2265 105.13 88.8824C104.643 90.823 104.412 92.8396 104.509 94.9102C104.548 95.2871 104.122 95.4191 103.412 95.6391Z" fill="#FEFEFE"/>
<path d="M67.2804 90.2658C67.2505 91.6755 67.1716 93.1782 67.1417 94.5879C67.0819 97.4074 67.06 97.3364 64.3285 97.5605C60.2804 97.8037 56.3252 98.0959 52.3211 98.4811C51.1903 98.5982 50.6054 98.4682 50.2804 97.1685C49.6084 94.4981 47.8126 92.7206 45.417 91.518C45.1381 91.3711 44.6682 91.3611 44.7711 90.9402C44.8471 90.6832 45.246 90.7152 45.5519 90.6982C49.7201 90.34 53.9002 90.5227 58.0193 90.2574C60.6088 90.0773 63.2863 90.1811 65.8807 89.766C66.1866 89.749 67.0434 89.2501 67.2804 90.2658Z" fill="#FEFEFE"/>
<path d="M152.174 86.2839C150.91 88.2316 149.931 90.0913 148.743 91.782C148.018 92.7069 147.132 92.359 146.285 92.388C143.018 92.3893 139.783 91.9916 136.625 92.3477C134.364 92.5818 132.097 93.0509 129.902 93.4979C129.383 93.5809 129.148 93.5759 128.994 93.0791C128.192 90.9935 127.559 88.7001 125.447 87.4095C125.332 87.2895 125.217 87.1695 125.315 86.9836C125.484 86.7756 125.719 86.7806 125.954 86.7856C128.096 86.6664 130.286 86.4543 132.472 86.4772C136.302 86.5349 140.11 86.5217 143.919 86.5084C146.574 86.5412 149.229 86.574 152.174 86.2839Z" fill="#FEFEFE"/>
<path d="M35.6537 91.8986C33.6611 92.7495 31.8496 93.9334 30.613 95.7171C29.9592 96.62 29.4203 97.6428 28.7885 98.6167C28.2057 99.4975 27.3049 99.8545 26.3871 99.9056C24.5515 100.008 22.6939 100.039 20.8853 99.9769C18.5357 99.9271 16.586 97.6527 16.5038 94.8772C16.4648 94.5003 16.4258 94.1234 16.4088 93.8175C16.0178 92.3048 16.0178 92.3048 17.4984 92.3127C19.52 92.3086 20.002 92.8594 20.0011 95.116C20.0181 95.4219 19.5333 96.1168 20.3311 96.1807C21.036 96.1957 21.2369 95.5888 21.2738 94.9549C21.3108 94.321 20.9928 93.7972 20.9588 93.1853C20.9957 92.5514 21.1157 92.4364 21.6076 92.5174C24.493 92.7901 27.4154 92.429 30.2888 92.1609C31.9604 92.0318 33.5441 91.6188 35.2377 91.5607C35.3087 91.5387 35.4507 91.4947 35.6537 91.8986Z" fill="#FEFEFE"/>
<path d="M21.0387 89.4261C22.7643 88.969 24.404 89.2389 26.0756 89.1098C31.0906 88.7225 36.0345 88.3573 41.0225 88.134C44.7157 88.0008 48.4189 87.3977 52.0681 87.1225C53.6688 87.0154 55.2645 87.1432 56.8871 87.1071C60.1325 87.0349 63.4048 86.7988 66.6771 86.5626C67.289 86.5286 67.279 86.9985 67.274 87.2334C67.1931 87.7253 67.577 88.4622 66.5882 88.5352C64.1407 88.6713 61.7862 88.8565 59.3388 88.9926C55.1266 89.2088 50.8485 89.2121 46.6584 89.4993C41.6215 89.8156 36.5845 90.1319 31.5426 90.6831C28.1503 91.0343 24.6871 91.4074 21.2338 91.3107C20.5999 91.2737 20.3209 91.1268 20.4019 90.6349C20.5978 90.2629 20.1919 89.4551 21.0387 89.4261Z" fill="#FEFEFE"/>
<path d="M106.519 86.5848C106.265 85.2631 106.811 85.0161 107.986 85.041C110.264 85.1129 112.465 84.4309 114.704 84.1258C118.38 83.6866 122.079 83.3185 125.789 83.4912C130.603 83.7108 135.444 83.7665 140.256 82.9753C143.369 82.4772 146.538 82.662 149.664 82.7047C150.839 82.7297 152.013 82.7546 153.149 82.4026C154.072 82.1166 154.155 82.6355 154.047 83.2913C153.831 84.6031 152.766 84.9331 151.636 85.0501C148.336 85.4503 145.025 85.3095 141.665 85.2617C137.386 85.265 133.157 85.1753 128.83 85.2716C127.066 85.3517 125.323 85.5028 123.509 85.6759C122.308 85.8149 121.209 85.5331 120.159 85.1582C119.109 84.7833 118.027 84.8074 117.034 85.1154C113.785 86.4334 110.163 86.5446 106.519 86.5848Z" fill="#FEFEFE"/>
<path d="M104.705 86.7578C102.422 86.921 100.16 87.1551 97.8549 87.2472C88.3269 87.6327 78.7279 88.0403 69.1999 88.4259C68.659 88.4379 68.495 88.4109 68.647 87.897C68.7549 87.2411 68.3269 86.3623 69.4797 86.3163C71.8562 86.2021 74.3527 85.973 76.7462 86.1648C82.0961 86.6074 87.346 86.2251 92.6399 85.9848C94.2625 85.9487 95.8043 86.4045 97.5249 86.1824C99.4585 85.8944 101.282 85.2514 103.282 85.1762C103.752 85.1862 104.27 85.1032 104.74 85.1132C105.139 85.1451 105.516 85.1061 105.43 85.833C105.256 86.2759 105.388 86.7018 104.705 86.7578Z" fill="#FDFDFD"/>
<path d="M140.79 95.4918C140.728 95.0439 140.765 94.41 140.589 93.8421C140.413 93.2743 140.976 93.3332 141.282 93.3162C143.632 93.366 146.003 93.4869 148.424 93.5147C148.894 93.5247 149.102 93.6936 149.141 94.0705C149.207 94.2835 149.18 94.4475 149.246 94.6604C149.377 97.3428 149.377 97.3428 146.726 97.0751C145.131 96.9472 143.469 96.6064 141.922 96.3855C141.381 96.3976 141.01 96.2016 140.79 95.4918Z" fill="#FDFDFD"/>
<path d="M105.958 93.0604C105.594 91.3838 106.542 89.923 106.435 88.3224C106.44 88.0874 106.423 87.7815 106.822 87.8135C108.063 88.0513 109.34 87.6553 110.794 87.8272C109.604 88.5071 108.836 89.29 108.111 90.2149C107.315 91.1617 106.59 92.0866 105.958 93.0604Z" fill="#F7F7F7"/>
<path d="M154.565 85.4649C155.526 87.8124 154.889 89.0211 152.557 89.2772C152.344 89.3432 152.087 89.2673 151.994 89.2183C151.764 88.9784 151.933 88.7704 152.102 88.5624C152.646 87.3046 153.764 86.6467 154.565 85.4649Z" fill="#F5F5F5"/>
<path d="M19.3402 89.719C19.6752 90.5488 19.1904 91.2437 18.2506 91.2237C17.5457 91.2088 16.9118 91.1718 16.207 91.1569C15.7151 91.0759 15.4361 90.929 15.4021 90.3171C15.439 89.6832 15.745 89.6662 16.2149 89.6762C17.0127 89.7401 17.7985 89.2632 18.6404 89.4691C18.8753 89.474 19.2082 89.2931 19.3402 89.719Z" fill="#FCFCFC"/>
<path d="M13.8024 93.6918C14.3483 93.4448 15.1021 93.3667 15.1141 93.9076C15.0772 94.5415 15.8771 95.6162 14.5284 96.0342C13.4636 96.3642 13.2876 95.7964 12.9746 95.0375C12.5957 94.0658 12.9776 93.7918 13.8024 93.6918Z" fill="#F6F6F6"/>
<path fill-rule="evenodd" clip-rule="evenodd" d="M120.894 166.856C121.127 165.85 121.267 164.796 120.888 163.824C120.054 162.712 119.688 161.423 119.32 160.124C119.103 159.359 118.886 158.59 118.57 157.851C117.524 155.643 116.656 153.344 115.791 151.056C115.355 149.9 114.919 148.747 114.462 147.61C113.545 145.404 112.393 143.194 110.811 141.35C109.825 140.177 108.839 139.005 107.03 138.943C103.976 138.878 102.431 139.668 101.818 141.959C100.951 145.184 100.903 148.544 101.325 151.915C101.4 152.686 101.486 153.464 101.573 154.245C101.732 155.68 101.892 157.124 101.984 158.557C102.157 160.371 102.379 162.091 102.694 163.861C102.821 164.473 102.991 165.06 103.158 165.64C103.41 166.514 103.658 167.373 103.752 168.279C103.891 169.481 104.39 170.338 105.053 171.221C105.809 172.154 107.541 172.473 108.491 172.023C110.369 171.052 111.755 167.744 111.33 165.619C111.217 165.065 111.094 164.509 110.97 163.951C110.604 162.302 110.236 160.642 110.131 158.989C110.119 158.902 110.099 158.807 110.078 158.708C109.99 158.295 109.888 157.819 110.347 157.677C110.844 157.523 111.162 158.047 111.387 158.522C111.475 158.806 111.612 158.996 111.749 159.187C112.432 160.373 112.86 161.664 113.292 162.965C113.605 163.909 113.92 164.859 114.335 165.777C115.252 167.982 117.32 169.131 119.428 168.4C120.186 168.087 120.737 167.605 120.894 166.856ZM107.743 150.781C109.108 150.669 109.304 150.297 108.754 148.523C108.676 147.769 108.15 147.076 107.575 146.476C107.553 146.444 107.531 146.41 107.51 146.376C107.402 146.204 107.295 146.031 107.018 146.182C106.805 146.248 106.707 146.434 106.702 146.669C106.748 147.822 106.816 149.046 106.933 150.176C106.972 150.553 107.131 150.815 107.743 150.781Z" fill="#010101"/>
<path fill-rule="evenodd" clip-rule="evenodd" d="M78.9697 174.17C78.7949 173.607 78.6497 173.006 78.5009 172.392C78.2938 171.536 78.0798 170.651 77.7697 169.796C76.8236 166.744 75.8776 163.692 74.5057 160.771C74.2807 160.297 74.1487 159.871 74.0657 159.352C73.7446 158.029 73.238 156.763 72.7314 155.497C72.3514 154.548 71.9715 153.599 71.6698 152.625C71.4278 151.845 71.5527 151.495 72.3825 151.16C72.7494 151.006 73.1089 150.846 73.4673 150.685C74.5223 150.213 75.5681 149.745 76.7665 149.49C82.1023 148.381 87.3505 152.511 87.0939 157.959C87.0636 158.28 87.0515 158.603 87.0395 158.927L87.0395 158.927C87.0153 159.574 86.9911 160.221 86.8212 160.845C86.5173 161.872 86.9503 162.516 87.9511 162.984C90.6966 164.312 92.2275 167.494 91.4849 170.369C90.8672 172.895 89.7405 175.034 87.0822 176.246C86.4907 176.514 85.9228 176.825 85.3574 177.135C84.3573 177.683 83.3647 178.226 82.2623 178.518C80.8916 178.865 80.4487 178.691 80.0087 177.272C79.6297 176.3 79.3217 175.306 78.9697 174.17L78.9697 174.17ZM80.7052 159.94L79.9572 157.526C79.9464 157.491 79.9331 157.455 79.9196 157.418L79.9196 157.418C79.8505 157.23 79.7751 157.025 79.9942 156.892C80.1361 156.848 80.3711 156.853 80.5571 156.951C81.9348 157.38 82.0469 158.746 80.7052 159.94ZM84.1271 168.625C84.0341 168.621 83.9431 168.618 83.8591 168.609C83.4332 168.741 83.2422 168.878 83.3522 169.233L83.6822 170.298C83.7499 170.433 83.78 170.614 83.8101 170.794C83.8703 171.156 83.9306 171.518 84.2912 171.51C84.6805 171.488 84.744 171.126 84.8074 170.765C84.8436 170.558 84.8799 170.351 84.9769 170.208C85.0034 170.158 84.9963 170.072 84.9884 169.978C84.9817 169.899 84.9745 169.813 84.9869 169.738C85.2496 168.664 84.6566 168.643 84.1271 168.625Z" fill="#010101"/>
<path fill-rule="evenodd" clip-rule="evenodd" d="M172.634 144.518C171.641 142.57 171.811 140.105 172.472 137.722C172.651 137.044 172.492 136.782 171.983 136.395C170.386 135.256 168.957 133.91 168.008 132.103C166.702 129.396 167.331 124.144 169.524 122.686C171.647 121.25 174.865 121.342 176.328 123.3C177.287 124.637 177.58 126.336 177.851 127.963C178.249 130.252 178.106 132.552 177.4 134.794C177.27 135.379 177.615 135.739 177.916 135.957C178.6 136.253 179.17 136.699 179.742 137.147C180.221 137.523 180.702 137.9 181.254 138.19C182.741 138.974 183.118 138.935 184.274 137.643C185.479 136.258 186.259 136.016 187.397 136.675C188.349 137.236 188.811 138.726 188.36 140.033C188.061 140.826 187.975 141.553 188.763 142.087C189.25 142.403 189.617 142.833 189.984 143.264L189.984 143.264C190.811 144.175 190.737 145.443 189.919 146.319C189.031 147.217 188.184 147.246 187.051 146.352C185.825 145.409 185.022 145.58 184.288 146.975C183.477 148.627 182.321 149.919 180.613 150.682C178.975 151.423 176.449 150.805 174.911 149.103C173.761 147.904 173.58 147.571 172.634 144.518ZM180.891 145.305C179.188 145.833 177.387 144.29 177.422 142.646C177.437 141.941 177.765 141.995 178.186 142.098C179.263 142.308 180.214 142.869 181.188 143.501C181.238 143.537 181.295 143.574 181.353 143.611L181.354 143.611C181.648 143.801 182 144.027 181.873 144.456C181.721 144.97 181.432 145.293 180.891 145.305ZM172.562 129.386C172.613 129.556 172.661 129.719 172.686 129.876C172.716 129.971 172.738 130.062 172.76 130.147C172.817 130.38 172.863 130.563 172.999 130.634C173.045 130.711 173.067 130.815 173.09 130.921C173.144 131.179 173.2 131.451 173.618 131.376C174.066 131.315 174.098 130.916 174.13 130.517C174.2 129.772 173.972 129.119 173.733 128.434C173.664 128.235 173.593 128.033 173.529 127.825C173.441 127.541 173.14 127.323 172.763 127.362C172.388 127.37 172.415 127.59 172.442 127.81C172.454 127.907 172.465 128.005 172.442 128.084C172.317 128.558 172.445 128.991 172.562 129.386Z" fill="#010101"/>
<path fill-rule="evenodd" clip-rule="evenodd" d="M119.975 151.676C120.739 153.765 121.466 155.753 121.985 157.571L124.031 164.173C124.317 165.095 124.767 166.045 125.843 166.256C128.44 166.852 130.413 164.684 129.643 162.2C129.306 161.111 128.976 160.02 128.647 158.929C127.988 156.748 127.329 154.566 126.607 152.404C126.233 151.197 126.226 150.421 127.333 149.222C130.315 146.042 131.289 141.15 128.647 137.145C127.529 135.546 126.1 134.2 124.018 133.756C121.186 133.155 118.68 133.854 116.097 134.81C115.196 135.167 114.991 136.009 115.255 136.861C116.218 140.219 117.274 143.626 118.308 146.963C118.839 148.571 119.417 150.15 119.975 151.676ZM122.738 140.922L123.002 141.773C123.046 141.915 123.222 142.483 123.447 142.958C123.606 143.22 123.792 143.318 124.031 143.088C124.702 142.491 124.994 140.922 124.397 140.252C123.937 139.772 123.362 139.172 122.697 139.534C122.184 139.766 122.472 140.368 122.696 140.834C122.71 140.864 122.724 140.893 122.738 140.922Z" fill="#010101"/>
<path fill-rule="evenodd" clip-rule="evenodd" d="M60.8337 154.817C59.6473 159.775 59.8486 164.692 61.7215 169.48C61.9011 169.975 62.0726 170.472 62.245 170.972C62.5844 171.956 62.9274 172.95 63.3425 173.957C64.3105 177.08 66.2602 179.354 68.5919 181.355C69.5607 182.222 71.5383 182.076 72.2191 181.009C73.0689 179.734 73.7326 178.361 74.0245 176.792C74.4512 174.404 74.3371 172.027 74.059 169.624C73.9919 168.975 73.9445 168.33 73.8975 167.689C73.7531 165.719 73.6111 163.784 72.9067 161.89C72.6541 161.217 72.3172 160.596 71.9787 159.972C71.7207 159.496 71.4619 159.019 71.2388 158.516C70.1409 155.978 68.3011 154.059 65.9325 152.692C63.4489 151.205 61.4564 152.056 60.8337 154.817ZM65.6151 163.216C65.7662 164.959 66.0593 166.657 66.6143 168.197L67.2743 170.326C67.4283 170.823 67.6043 171.391 68.2381 171.428C68.8761 171.503 69.0034 170.898 69.0946 170.464C69.1073 170.404 69.1193 170.347 69.1319 170.295C69.7326 167.464 69.1535 164.842 67.7007 162.414C67.627 162.311 67.5588 162.202 67.4913 162.094C67.1819 161.598 66.8863 161.124 66.1469 161.417C65.4676 161.697 65.5335 162.37 65.5949 162.998C65.6021 163.071 65.6093 163.144 65.6151 163.216Z" fill="#010101"/>
<path fill-rule="evenodd" clip-rule="evenodd" d="M137.239 152.793C137.648 153.807 138.033 154.763 138.197 155.658C138.398 156.306 138.571 156.894 138.734 157.453C139.038 158.486 139.311 159.415 139.671 160.414C140.314 162.238 142.113 162.77 143.64 161.674C145.168 160.578 145.57 159.364 144.954 157.377L142.644 149.923C142.209 148.269 142.217 146.788 143.399 145.332C145.138 143.16 145.499 140.558 145.132 137.871C144.727 134.806 142.822 132.674 140.196 131.231C137.499 129.811 134.663 129.445 131.77 130.653C130.656 131.076 130.242 131.749 130.594 132.885C130.847 133.701 131.153 134.501 131.46 135.301C131.766 136.1 132.072 136.9 132.325 137.717C132.779 139.181 133.292 140.626 133.806 142.072C134.662 144.481 135.518 146.89 136.097 149.385C136.349 150.585 136.807 151.722 137.239 152.793ZM137.247 137.28L137.423 137.848C137.533 138.203 137.643 138.558 137.682 138.935C137.77 139.219 137.929 139.481 138.257 139.535C138.585 139.589 138.825 139.359 138.901 139.102C139.32 138.194 139.503 137.281 138.792 136.49C138.425 136.06 137.987 135.651 137.37 135.92C136.862 136.134 137.004 136.53 137.137 136.902C137.185 137.034 137.231 137.163 137.247 137.28Z" fill="#010101"/>
<path fill-rule="evenodd" clip-rule="evenodd" d="M103.075 192.452C105.799 191.452 108.308 191.764 110.561 193.011C112.049 193.794 112.719 195.454 112.941 197.175C112.994 197.636 113.082 198.097 113.172 198.566L113.172 198.566C113.315 199.318 113.461 200.088 113.473 200.9C113.493 201.473 114.068 201.767 114.66 202.07C114.942 202.214 115.228 202.361 115.46 202.54C116.987 203.701 118.946 207.762 117.868 209.808C115.909 213.527 112.765 215.435 108.888 216.481C108.249 216.679 107.926 216.39 107.728 215.751C107.003 213.546 106.134 211.386 105.264 209.225C104.519 207.373 103.774 205.522 103.119 203.642C102.524 201.881 101.733 200.213 100.947 198.555L100.947 198.555C100.507 197.627 100.069 196.701 99.6667 195.765C99.4197 195.219 99.2877 194.793 100.051 194.245C100.94 193.347 101.966 192.64 103.075 192.452ZM112.886 207.54C113.035 208.271 112.327 209.502 111.617 209.722C111.12 209.876 110.939 209.543 110.736 209.139C110.64 208.911 110.58 208.663 110.519 208.412C110.398 207.907 110.273 207.391 109.842 207.005C109.727 206.885 109.661 206.672 109.922 206.513C110.495 206.102 112.759 206.879 112.886 207.54ZM108.138 199.752C108.17 199.353 108.202 198.955 108.07 198.529C108.004 198.316 107.938 198.103 107.845 198.054C107.532 197.295 106.783 197.138 106.215 197.314C105.884 197.417 106.029 197.717 106.174 198.018C106.247 198.169 106.319 198.319 106.332 198.445C106.387 198.788 106.495 199.081 106.606 199.383C106.662 199.538 106.72 199.696 106.772 199.864C106.86 200.148 106.948 200.432 107.352 200.229C107.414 200.21 107.482 200.197 107.55 200.183C107.796 200.134 108.058 200.081 108.138 199.752Z" fill="#010101"/>
<path fill-rule="evenodd" clip-rule="evenodd" d="M121.778 88.6247C119.776 87.689 117.95 87.3212 115.133 88.2722C112.927 89.1892 110.308 90.779 108.675 93.5416C106.965 96.5611 107.035 101.052 109.735 104.494C110.547 105.475 111.537 105.725 112.557 105.983C112.632 106.002 112.707 106.02 112.782 106.04C113.203 106.147 113.623 106.267 114.041 106.387C116.222 107.011 118.378 107.628 120.672 106.395C121 106.211 121.328 106.037 121.653 105.864C123.169 105.058 124.615 104.29 125.615 102.763C127.069 100.678 127.846 98.4143 127.666 95.8248C127.632 95.213 127.598 94.6011 127.28 94.0772C125.942 91.7688 124.266 89.8763 121.778 88.6247ZM118.942 101.563C120.594 100.117 121.875 98.4753 121.56 96.7057C120.658 93.7954 118.918 92.7007 116.453 92.5309C114.818 92.4962 114.12 93.5846 113.439 94.6464C113.337 94.805 113.235 94.963 113.131 95.1166C111.939 97.0423 112.875 100.564 114.898 101.571C116.2 102.257 117.671 102.735 118.942 101.563Z" fill="#010101"/>
<path fill-rule="evenodd" clip-rule="evenodd" d="M40.1793 111.269C40.9992 111.404 41.868 111.446 42.6048 111.062C43.6916 110.803 44.7123 110.331 45.6451 109.575C47.2757 108.058 48.2333 106.128 49.005 104.099C49.3799 103.049 49.5468 101.83 49.1458 100.788C48.5468 99.1061 47.8548 97.3755 46.803 95.9899C45.981 94.8441 44.8262 93.8794 43.2135 93.4456C40.524 92.8009 38.1255 92.8441 35.6971 94.2969C33.6506 95.4758 31.8291 97.1296 31.3364 99.3052C30.5447 102.274 30.311 105.536 33.0316 108.038C33.2585 108.253 33.474 108.484 33.6902 108.715C34.4182 109.494 35.1546 110.282 36.3641 110.507C37.1633 110.638 37.9443 110.804 38.7133 110.968C39.2064 111.072 39.6946 111.176 40.1793 111.269ZM36.2418 104.087C36.7478 105.719 38.6614 106.371 40.9329 105.667C43.7673 105.022 44.5589 102.054 44.0799 100.257C43.5618 98.0836 40.5274 97.079 37.6881 97.959C35.9844 98.487 35.3617 101.248 36.2418 104.087Z" fill="#010101"/>
<path fill-rule="evenodd" clip-rule="evenodd" d="M161.535 96.7454C162.304 96.8927 163.064 97.0383 163.736 97.4827C163.782 97.5072 163.84 97.5672 163.883 97.6122C163.905 97.6358 163.924 97.6552 163.935 97.6633C163.718 97.9531 163.415 97.969 163.092 97.9157C162.918 97.8952 162.749 97.8734 162.582 97.852C162.049 97.7835 161.541 97.7183 161.004 97.7069C160.775 97.6916 160.526 97.6631 160.271 97.6339C159.374 97.5313 158.391 97.4188 157.852 97.8281C157.017 98.398 156.427 98.503 155.629 98.4391C155.301 98.3851 155.11 98.5221 154.986 98.872C154.861 99.222 155.02 99.4839 155.37 99.6089C155.861 99.6898 156.069 99.8588 155.753 100.346C155.585 100.554 155.744 100.816 155.951 100.985C157.145 102.326 158.126 103.734 158.676 105.508C159.05 106.715 159.564 106.867 160.497 106.111C161.239 105.492 161.709 105.502 162.518 106.107C162.923 106.412 163.314 106.736 163.705 107.06C165.08 108.2 166.446 109.332 168.345 109.592C168.374 109.597 168.403 109.602 168.431 109.606C168.886 109.683 169.272 109.748 169.502 109.311C169.725 108.775 169.522 108.371 169.106 108.033C168.411 107.548 167.716 107.064 167.071 106.486C166.354 105.93 165.735 105.188 165.76 104.013C166.032 104.08 166.233 104.233 166.417 104.373C166.517 104.449 166.613 104.522 166.712 104.574C169.151 105.919 171.765 106.82 174.53 107.208C176.018 107.401 177.512 107.32 179.027 107.237C179.493 107.212 179.96 107.186 180.431 107.169C180.519 107.176 180.607 107.194 180.692 107.212C180.994 107.276 181.268 107.334 181.425 106.861C181.626 106.254 181.161 106.009 180.789 105.813C177.67 104.276 175.283 101.891 172.887 99.4978C172.603 99.2135 172.318 98.9291 172.032 98.646C172.077 98.3732 172.247 98.3307 172.426 98.2862C172.462 98.2772 172.498 98.2681 172.534 98.257C174.781 97.997 176.981 98.0236 179.236 98.0509C179.393 98.0528 179.55 98.0547 179.707 98.0566C179.895 98.0605 180.084 98.058 180.273 98.0554C181.03 98.0451 181.786 98.0348 182.473 98.4443C182.995 98.7492 183.567 98.9611 184.138 99.173C184.709 99.385 185.281 99.5969 185.803 99.9018C186.104 100.12 186.64 100.343 187.049 99.9047C187.428 99.4986 187.182 99.0186 186.983 98.6289C186.967 98.5983 186.952 98.5683 186.937 98.539C186.8 98.348 186.57 98.1081 186.362 97.9391C184.539 96.3256 182.597 94.827 180.507 93.6074C180.467 93.5864 180.417 93.5684 180.364 93.5491C180.169 93.4788 179.929 93.3918 179.954 93.0786C179.99 92.8599 180.148 92.8111 180.305 92.7622C180.384 92.7377 180.463 92.7133 180.527 92.6676C182.546 91.6527 184.358 90.4688 185.551 88.5431C185.601 88.4742 185.66 88.4103 185.719 88.3475C185.917 88.136 186.105 87.9354 185.876 87.5863C185.631 87.1826 185.306 87.2658 184.965 87.3531C184.863 87.3791 184.76 87.4054 184.658 87.4194C183.686 87.651 182.753 87.8083 181.774 87.9734C181.658 87.993 181.542 88.0126 181.424 88.0325C180.171 88.2693 178.914 88.1936 177.659 88.1181C176.337 88.0386 175.018 87.9593 173.71 88.245C173.712 88.1552 173.707 88.0791 173.702 88.014C173.695 87.9087 173.69 87.8325 173.72 87.7751C174.421 86.353 174.373 84.8526 174.327 83.3788C174.317 83.0445 174.306 82.7115 174.304 82.3812C174.341 81.7473 174.023 81.2234 173.51 81.0715C173.129 80.9219 172.842 81.261 172.585 81.5643C172.543 81.6137 172.502 81.6622 172.462 81.7074C172.175 82.0206 171.915 82.3383 171.659 82.6518C171.293 83.1002 170.934 83.5401 170.51 83.9461C167.364 87.0996 163.648 89.4184 159.702 91.4973C158.703 92.0402 157.749 92.7251 156.931 93.601C156.762 93.809 156.566 94.1809 156.632 94.3939C156.717 94.668 156.896 94.6228 157.082 94.576C157.185 94.5501 157.289 94.5237 157.381 94.5508C158.068 94.6892 158.683 94.4532 159.278 94.2247C159.474 94.1497 159.667 94.0755 159.86 94.0157C161.16 93.6907 162.477 93.6716 164.094 93.8705C163.124 94.4759 162.233 94.7225 161.415 94.949C161.189 95.0116 160.968 95.0727 160.753 95.1394C160.661 95.1681 160.561 95.1909 160.461 95.2138C160.021 95.3145 159.566 95.4187 159.629 96.0323C159.686 96.5799 160.065 96.5762 160.429 96.5726C160.566 96.5713 160.701 96.57 160.816 96.5981C161.055 96.6534 161.295 96.6995 161.535 96.7454ZM164.465 95.1576C163.922 95.3197 163.351 95.4898 162.896 96.0313C163.723 96.3696 164.52 96.4622 165.313 96.5542C165.973 96.6307 166.629 96.7068 167.297 96.9238C167.739 97.0977 168.133 97.3647 168.194 97.8126C168.255 98.2605 167.852 98.4634 167.426 98.5954C165.815 99.1724 164.28 99.4925 162.526 99.1027C160.421 98.5879 160.203 98.8889 160.792 101.04L160.858 101.253C160.857 101.311 160.866 101.37 160.874 101.429C160.9 101.608 160.925 101.777 160.657 101.86C160.373 101.948 160.089 102.036 159.837 101.725C159.795 101.666 159.759 101.605 159.725 101.546C159.648 101.414 159.577 101.291 159.448 101.223C159.244 101.076 159.049 100.905 158.852 100.733C158.178 100.145 157.486 99.5403 156.353 99.7709C157.946 101.145 158.949 102.623 159.499 104.398C159.507 104.426 159.516 104.456 159.526 104.488C159.635 104.86 159.805 105.439 160.358 104.91C161.339 104.061 162.061 104.382 162.915 105.128C163.682 105.751 164.513 106.311 165.334 106.864C165.626 107.061 165.917 107.257 166.203 107.455C166.067 107.225 165.93 106.998 165.793 106.772C165.109 105.64 164.444 104.538 164.059 103.296C163.927 102.87 163.844 102.351 164.226 102.077C164.656 101.71 165.214 102.004 165.537 102.293C166.829 103.448 168.295 104.161 169.881 104.759C172.631 105.852 175.489 106.288 178.62 106.096C175.801 103.78 173.289 101.447 170.776 99.1135L170.776 99.1131C170.763 99.1023 170.749 99.0914 170.736 99.0804C170.328 98.7501 169.858 98.3688 170.052 97.7814C170.196 97.2368 170.616 97.2594 171.056 97.2832C171.164 97.289 171.272 97.2948 171.379 97.2924C171.967 97.2839 172.552 97.2144 173.138 97.1446C173.864 97.0582 174.593 96.9715 175.334 97.0002C176.087 97.0101 176.844 96.9817 177.602 96.9533C179.753 96.8727 181.909 96.7919 183.995 97.5836C183.982 97.3522 183.832 97.2523 183.67 97.1443C183.618 97.1095 183.564 97.0739 183.513 97.0327C183.233 96.8296 182.955 96.6237 182.678 96.4184C181.173 95.3016 179.688 94.2005 177.873 93.6458C177.836 93.6349 177.796 93.6249 177.755 93.6146C177.511 93.5531 177.222 93.4806 177.249 93.1389C177.281 92.74 177.543 92.581 177.898 92.471L179.46 91.987C181.141 91.388 182.571 90.4781 183.798 89.1643C183.333 88.9194 182.956 88.9584 182.53 89.0904C181.323 89.4644 180.006 89.4835 178.788 89.3166C176.913 89.0418 175.077 89.1439 173.215 89.41C173.105 89.4249 173.003 89.4514 172.907 89.4764C172.611 89.5535 172.366 89.6173 172.089 89.2921C171.722 88.8612 171.989 88.4672 172.256 88.0733C173.346 86.5685 173.359 84.8529 173.119 82.8263C170.093 86.6949 166.158 89.1734 162.217 91.6556C161.659 92.007 161.101 92.3586 160.546 92.7141C161.737 92.6876 162.876 92.7614 163.992 92.8337C164.396 92.8599 164.797 92.8858 165.196 92.9068C165.737 92.8947 166.202 93.1396 166.285 93.6585C166.41 94.0632 166.007 94.3506 165.639 94.6133C165.62 94.6271 165.601 94.6407 165.582 94.6544C165.264 94.9194 164.872 95.0363 164.465 95.1576Z" fill="#030303"/>
<path fill-rule="evenodd" clip-rule="evenodd" d="M127.212 124.269C127.609 124.416 128.111 124.28 129.09 124.015C131.383 123.382 131.704 122.66 130.826 120.831C130.223 119.642 129.655 118.428 129.086 117.212C128.336 115.609 127.585 114.002 126.749 112.447C125.142 109.522 123.482 106.925 119.284 108.692C117.766 109.318 116.899 110.287 116.957 111.981C116.925 112.874 116.923 113.783 116.92 114.703C116.918 115.404 116.917 116.111 116.902 116.822C116.859 119.947 116.98 123.1 117.904 126.081C118.366 127.572 119.159 127.871 120.561 127.125C120.638 127.083 120.717 127.032 120.797 126.98C121.064 126.808 121.352 126.622 121.675 126.702C123.009 126.988 123.286 126.125 123.213 125.136C123.174 124.613 123.201 124.091 123.228 123.58C123.251 123.125 123.275 122.678 123.251 122.245C123.239 121.705 123.478 121.475 123.904 121.343C124.33 121.211 124.756 121.079 125.074 121.602C125.176 121.804 125.325 121.972 125.474 122.14C125.623 122.307 125.773 122.475 125.874 122.677C126.493 123.643 126.794 124.114 127.212 124.269ZM122.888 114.454C122.635 113.933 122.366 113.379 121.708 112.998C121.71 113.286 121.736 113.544 121.76 113.782C121.8 114.187 121.834 114.532 121.739 114.856C121.55 116.001 122.123 115.973 122.729 115.944C122.903 115.935 123.081 115.926 123.243 115.946C123.735 116.027 123.767 115.628 123.559 115.459C123.248 115.194 123.072 114.833 122.888 114.454Z" fill="#010101"/>
<path fill-rule="evenodd" clip-rule="evenodd" d="M71.4414 191.053L71.6174 191.621L71.7592 191.987C72.4946 193.887 73.2508 195.841 74.0503 197.713C74.0943 197.786 74.1161 197.883 74.1383 197.981C74.1962 198.239 74.2561 198.505 74.7182 198.362C75.2641 198.115 75.225 197.738 75.093 197.312C75.0106 196.907 74.8262 196.558 74.6406 196.206C74.4909 195.922 74.3403 195.637 74.2421 195.32C74.2068 195.249 74.1574 195.172 74.105 195.089C73.8563 194.698 73.5403 194.201 74.343 193.888C74.4679 193.835 74.5915 193.77 74.7141 193.705C75.2668 193.413 75.7991 193.132 76.3376 194.048C76.7333 194.677 77.2379 195.241 77.749 195.812C78.0308 196.127 78.3146 196.444 78.5833 196.775C78.8353 197.086 79.0872 197.397 79.4471 197.052C79.807 196.707 79.626 196.374 79.3741 196.063C79.0536 195.657 78.7386 195.268 78.4237 194.88C78.1087 194.491 77.7938 194.102 77.4733 193.696C77.453 193.673 77.4326 193.65 77.4122 193.627C76.8307 192.976 76.1985 192.267 76.5393 191.184C76.8162 190.321 76.1753 189.508 75.5784 188.837C74.6585 187.877 73.3908 187.803 71.9881 188.549C70.7984 189.229 71.0624 190.081 71.4414 191.053ZM73.2633 189.399C72.1766 189.658 72.1176 190.221 72.4576 190.816C72.5451 191.043 72.6147 191.273 72.6809 191.491C72.9184 192.275 73.1139 192.919 73.9424 192.845C74.8602 192.794 75.644 191.306 75.38 190.455C75.0499 189.39 74.4211 189.118 73.2633 189.399Z" fill="#040404"/>
<path fill-rule="evenodd" clip-rule="evenodd" d="M45.1794 45.0653C43.2288 45.0475 41.2683 45.4995 39.3297 46.0225C37.7776 46.2108 36.7495 47.2009 35.6341 48.275C35.564 48.3425 35.4936 48.4103 35.4227 48.4783C32.9104 51.6688 30.7921 55.1262 28.6737 58.5837C27.7615 60.0334 26.8725 61.4954 25.9835 62.9575C25.0946 64.4195 24.2056 65.8815 23.2934 67.3312C22.7297 68.264 22.1233 69.1523 21.5213 70.0342C21.1347 70.6006 20.7499 71.1643 20.3793 71.7355C20.3611 71.77 20.3207 71.8195 20.2731 71.8778C20.0646 72.1332 19.7182 72.5573 20.5013 72.6313C20.9933 72.7122 21.4142 72.8152 21.3552 73.3781C21.3183 74.012 20.7994 74.095 20.2365 74.036C19.4876 73.8791 18.9198 74.0551 18.5279 74.799C17.1344 77.3316 15.7408 79.8641 14.8832 82.6196C14.3784 84.2543 14.1526 86.036 14.8445 87.7666C14.863 87.826 14.878 87.8888 14.893 87.9511C14.9674 88.2608 15.0397 88.5619 15.5124 88.4154C16.2172 88.197 16.9058 88.1792 17.5995 88.1612C17.8839 88.1539 18.1692 88.1465 18.4568 88.1252C18.9047 88.0642 19.1177 87.9982 19.1056 87.4573C19.052 86.4927 19.0632 85.5294 19.0743 84.5763C19.0843 83.7159 19.0943 82.8637 19.0563 82.0265C18.9231 78.3332 20.9335 75.5317 23.0588 72.8501C23.3258 72.4561 23.9156 72.3511 24.2606 72.711C24.5168 72.9402 24.3294 73.16 24.1322 73.3913C24.0808 73.4516 24.0287 73.5127 23.9837 73.5749C23.7398 73.9434 23.4879 74.3077 23.2356 74.6723C22.282 76.0508 21.3245 77.435 20.7877 79.078C20.1876 80.873 20.304 82.6734 20.4202 84.4704C20.4838 85.4539 20.5474 86.4363 20.4933 87.4163C20.5054 87.9571 20.9263 88.0601 21.4672 88.0481L34.5294 87.2673C35.8117 87.1886 37.0895 87.1374 38.3649 87.0863C40.2031 87.0127 42.0364 86.9392 43.8715 86.7838C45.1252 86.7022 46.3671 86.5822 47.6063 86.4625C50.136 86.2181 52.6545 85.9748 55.2401 86.0612C57.1767 86.1155 59.0734 85.9619 60.9671 85.8085C62.4502 85.6884 63.9316 85.5685 65.4289 85.5486C66.9096 85.5565 67.1546 85.0916 67.1355 83.7749C67.0122 79.6118 66.867 75.3776 66.5088 71.2095C66.2362 68.2012 66.1417 65.2033 66.0471 62.2015C65.9632 59.5397 65.8791 56.8749 65.6708 54.1971C65.4297 51.1597 65.4235 48.1274 65.4173 45.095C65.3932 44.0132 65.0433 43.8883 64.1254 43.9393C60.6892 44.1485 57.2309 44.2867 53.7506 44.3539C52.3164 44.3705 50.8907 44.5401 49.465 44.7096C48.0393 44.8792 46.6136 45.0487 45.1794 45.0653ZM45.2879 47.1715L45.288 47.1715L45.2881 47.1715C45.7524 47.1637 46.2168 47.156 46.6867 47.1659C47.5691 47.2436 48.4276 47.0547 49.2952 46.8639C50.1576 46.6742 51.029 46.4825 51.9416 46.5487C52.9003 46.6082 53.8598 46.6269 54.816 46.6456L54.816 46.6456C56.1543 46.6717 57.4859 46.6977 58.7992 46.8352C59.6542 46.9363 60.5109 46.9561 61.3629 46.9758C61.9595 46.9896 62.5537 47.0033 63.1433 47.0449C64.34 47.1408 64.756 47.4787 64.7751 48.7954C64.6412 53.4467 64.627 58.0608 64.6129 62.6749C64.6082 64.213 64.6035 65.7511 64.5943 67.2906C64.5744 68.2304 64.4984 68.4874 63.3677 68.6044C60.7292 68.8775 58.1618 69.1286 55.5063 69.0958C54.8305 69.0815 54.1399 69.2505 53.4307 69.4242C52.6606 69.6127 51.8685 69.8066 51.0493 69.777C48.7708 69.7051 46.5142 69.7043 44.3017 69.8454C43.5258 69.8525 42.799 69.7665 42.8239 68.5918C42.7838 66.7888 42.8068 64.9663 42.8298 63.1438L42.8298 63.1427C42.8413 62.2318 42.8528 61.3209 42.8564 60.4125C42.8921 56.5113 42.7859 52.6541 42.6576 48.7259C42.6163 47.9831 43.0733 47.6974 43.5527 47.3976C43.6657 47.3269 43.78 47.2555 43.8893 47.1771C44.3591 47.1871 44.8235 47.1793 45.2879 47.1715ZM62.6167 67.4366C62.0554 67.5028 61.4971 67.5979 60.9394 67.693C59.4835 67.941 58.0319 68.1884 56.542 67.9189C55.7932 67.762 55.0883 67.747 54.4715 68.016C52.5555 68.6614 50.6021 68.6337 48.6382 68.6059C47.6414 68.5918 46.642 68.5777 45.6433 68.6514C45.6176 68.6509 45.5928 68.6501 45.5686 68.6492C45.5467 68.6483 45.5253 68.6474 45.5044 68.6465C45.3378 68.6393 45.2 68.6333 45.0314 68.6855C43.7317 69.0105 43.6317 68.1857 43.7446 67.2949C43.8932 65.8239 43.8971 64.3499 43.901 62.8678L43.901 62.8677C43.9041 61.6793 43.9073 60.4858 43.985 59.2845C44.1676 56.4108 44.0172 53.5824 43.8664 50.7462L43.8663 50.7429C43.8422 50.2904 43.8181 49.8377 43.7954 49.3845C43.7664 48.5377 43.9843 48.2368 44.8751 48.3497C46.2185 48.4958 47.5476 48.2854 48.8791 48.0747C49.9419 47.9065 51.0062 47.738 52.0806 47.7503C52.6315 47.7717 53.1853 47.7921 53.7411 47.8126L53.7446 47.8127L53.7447 47.8127C55.8893 47.8918 58.0631 47.972 60.206 48.1107L62.5995 48.3025C63.3043 48.3175 63.6983 48.5844 63.6123 49.3112C63.3677 52.6818 63.3619 56.0663 63.356 59.4488C63.3524 61.5776 63.3487 63.7056 63.2855 65.8289C63.301 65.9255 63.3356 66.0404 63.3727 66.1638C63.5352 66.703 63.7461 67.4031 62.6167 67.4366Z" fill="#FEFEFE"/>
<path d="M41.243 48.9309C41.1371 50.5976 41.1022 52.2423 40.9743 53.838C40.7746 57.7122 40.9519 61.5474 40.9871 65.4266C41.0012 66.9782 40.4524 68.471 40.9364 70.0326C41.0244 70.3165 40.6475 70.3556 40.3636 70.4436C39.2988 70.7736 38.271 70.4697 37.2382 70.4008C34.9817 70.3999 32.8032 71.1529 30.5246 71.0811C29.2079 71.1002 27.9672 70.8623 26.6454 71.1163C25.7716 71.3094 25.4317 70.7145 25.7575 69.7577C26.1054 68.8718 26.6392 68.084 27.0801 67.2471C28.7136 64.4846 30.2541 61.673 32.0025 59.0305C34.1869 55.786 35.8843 52.2256 38.2056 49.1721C38.5925 48.6632 39.0234 48.2962 39.5692 48.0492C40.563 47.7412 40.952 48.2431 41.243 48.9309Z" fill="#040404"/>
<path d="M49.9439 74.2431C49.31 74.2062 48.4852 74.3062 47.6873 74.2423C45.7857 74.1314 43.8621 73.9496 41.9385 73.7678C40.0369 73.6569 38.1033 73.945 36.1697 74.233C33.7882 74.5821 31.4117 74.6963 29.0572 74.8814C28.3744 74.9374 27.7575 75.2064 27.1676 75.3114C26.7197 75.3724 26.2058 75.2205 26.1228 74.7016C26.0618 74.2537 26.3947 74.0727 26.8426 74.0117C29.3881 73.6896 31.9335 73.3675 34.479 73.0454C35.9867 72.8893 37.5433 72.6403 39.029 72.4132C40.3727 72.2302 41.7334 72.3531 42.9742 72.5909C45.0838 72.8707 47.1544 72.7736 49.2199 72.9114C49.4549 72.9164 49.7608 72.8994 50.0178 72.9754C50.4387 73.0783 50.5977 73.3403 50.6147 73.6462C50.7467 74.0721 50.3478 74.0401 49.9439 74.2431Z" fill="#040404"/>
<path d="M63.0061 73.4625C63.1821 74.0303 62.8712 74.2823 62.4722 74.2504C61.2045 74.1765 59.8878 74.1955 58.659 74.4986C58.3751 74.5866 57.8342 74.5986 57.7072 73.9377C57.6072 73.1129 58.6669 73.0179 58.7379 72.9959C59.9787 73.2337 61.2564 72.8377 62.4972 73.0756C62.8471 73.2005 63.0111 73.2275 63.0061 73.4625Z" fill="#090909"/>
<path d="M147.649 64.6568C146.163 64.8838 144.421 65.0349 142.634 65.044C139.509 65.0012 136.334 65.0514 133.216 65.7845C131.752 66.0825 130.294 66.1456 128.884 66.1157C126.698 66.0929 124.574 66.5179 122.398 66.0252C120.971 65.6893 119.42 65.7034 117.939 65.6955C115 65.7507 112.038 65.7349 109.116 66.096C108.362 66.1741 108.137 65.6992 108.267 65.1143C108.907 62.6598 108.394 60.2513 108.351 57.8528C108.356 55.3613 108.433 52.8478 108.439 50.3563C108.457 48.4057 108.333 46.4991 108.515 44.5755C108.655 43.5207 109.063 43.0828 109.976 43.2667C110.818 43.4726 111.67 43.2086 112.517 43.1795C117.292 43.0222 122.138 42.843 126.903 43.1556C128.569 43.2614 130.366 42.7824 132.033 42.8883C135.109 43.0241 137.935 43.8597 139.542 46.785C140.063 47.7128 140.873 48.3176 141.323 49.2674C143.238 53.1864 145.366 57.0395 147.21 60.9805C147.523 61.7394 147.858 62.5692 148.526 63.218C149.03 63.8398 148.856 64.2828 147.649 64.6568Z" fill="#040404"/>
<path d="M147.17 76.1642C145.821 76.5822 144.563 76.0384 144.282 74.8807C144.023 73.7939 144.976 72.0982 146.112 71.7462C146.964 71.4822 149.041 72.1609 149.31 72.7778C149.711 73.8205 148.518 75.7462 147.17 76.1642Z" fill="#090909"/>
<path d="M68.8563 45.8967C71.1668 45.5697 73.3843 45.1936 75.6678 45.0305C81.7915 44.4552 87.9052 44.3498 93.975 44.1024C96.8923 43.9763 99.7388 43.8721 102.634 43.6749C104.399 43.5948 105.15 44.7626 105.078 47.0411C104.907 51.7621 104.644 56.4342 104.473 61.1552C104.453 62.095 104.504 63.0128 104.391 63.9037C104.246 65.1934 103.69 65.9103 102.33 65.7874C99.4883 65.6566 96.6859 65.9028 93.8614 66.0779C88.7755 66.4872 83.5945 65.8366 78.5207 66.7868C75.4293 67.3559 72.348 67.4551 69.2886 67.6252C68.4418 67.6543 68.2828 67.3924 68.2048 66.6385C67.7776 63.5032 67.9624 60.3338 67.9122 57.1595C67.84 53.9142 67.5328 50.6638 67.6026 47.3745C67.6715 46.3417 68.0754 46.1387 68.8563 45.8967Z" fill="#030303"/>
<path d="M101.802 75.1317C101.57 73.881 101.622 72.5423 101.625 71.2965C101.608 70.9906 101.689 70.4987 102.252 70.5576C102.744 70.6386 102.903 70.9005 102.915 71.4414C102.961 72.5942 102.794 73.8129 103.146 74.9487C103.278 75.3746 103.312 75.9864 102.651 76.1135C101.875 76.1205 102.125 75.4206 101.802 75.1317Z" fill="#0B0B0B"/>
<path d="M40.0312 49.5397C39.8685 52.78 39.8257 55.9054 39.8539 59.0087C39.9091 61.9481 39.7513 64.9535 39.8285 67.9639C39.8526 69.0457 39.4927 69.3906 38.2959 69.2947C36.5363 69.1399 34.7007 69.242 33.046 69.677C31.2494 70.156 29.5657 69.7442 27.7791 69.7533C27.3092 69.7434 27.4072 69.5574 27.5761 69.3494C28.5068 67.5827 29.3935 65.6741 30.4172 63.9564C32.3666 60.7069 34.3379 57.5284 36.3093 54.3499C37.0881 53.0972 37.8668 51.8444 38.6676 50.6625C38.9615 50.1046 39.2994 49.6887 40.0312 49.5397Z" fill="#FEFEFE"/>
<path d="M146.046 63.7529C144.046 63.828 141.998 63.9961 140.025 63.9073C137.747 63.8355 135.485 64.0696 133.29 64.5166C131.755 64.8367 130.11 64.8018 128.603 64.9578C126.341 65.1919 124.085 65.1911 121.767 64.7423C119.472 64.3646 117.095 64.4787 114.745 64.4289C113.429 64.448 111.904 64.2981 110.555 64.7161C109.846 64.9361 109.665 64.6032 109.68 63.8983C109.544 59.1943 109.573 54.5173 109.58 49.7692C109.609 48.3595 109.568 46.9718 109.505 45.5131C109.52 44.8083 109.716 44.4363 110.634 44.3853C114.261 44.0391 117.971 44.2118 121.643 44.0076C122.937 43.9176 124.32 44.1114 125.61 44.2563C127.534 44.4381 129.374 44.1011 131.303 44.048C133.138 43.9459 134.844 44.4287 136.523 45.0754C137.059 45.2983 137.519 45.7782 137.908 46.2801C140.197 49.1493 141.51 52.6325 143.396 55.7048C144.668 57.8002 145.749 60.0327 146.759 62.2872C146.952 63.161 146.92 63.5599 146.046 63.7529Z" fill="#FEFEFE"/>
<path d="M146.845 74.8646C146.326 74.9476 145.829 75.1016 145.587 74.3208C145.367 73.611 145.847 73.151 146.295 73.09C146.863 72.914 147.776 73.0979 148.001 73.5728C148.062 74.0207 147.577 74.7156 146.845 74.8646Z" fill="#F8F8F8"/>
<path d="M69.3336 65.5105C69.2825 64.5927 69.1165 63.5549 69.1144 62.5442C69.2971 58.364 68.9389 54.1959 68.7227 49.9838C68.5695 47.2303 68.7655 46.8584 71.4969 46.6343C75.878 46.2101 80.33 45.7639 84.8211 45.6946C88.5143 45.5614 92.2735 45.6411 96.0157 45.4149C98.2283 45.2738 100.37 45.1547 102.582 45.0135C103.642 44.9185 104.031 45.4204 104.05 46.7371C104.015 48.3817 104.073 50.0754 103.897 51.7641C103.462 55.6333 103.426 59.5345 103.319 63.4577C103.273 64.5615 103.006 64.9554 101.787 64.7885C100.169 64.5897 98.5365 65.0957 96.8699 64.9898C93.7935 64.854 90.7292 65.2592 87.6478 65.3583C84.2385 65.4036 80.7902 65.0719 77.4809 65.9419C75.1875 66.5749 72.8599 66.5961 70.4394 66.5682C69.6196 66.4333 69.5976 66.3623 69.3336 65.5105Z" fill="#FEFEFE"/>
<path fill-rule="evenodd" clip-rule="evenodd" d="M114.755 98.3477C115.063 99.3415 116.387 100.098 117.38 99.7902C118.871 99.3282 119.917 97.6815 119.499 96.3328C119.12 95.361 117.698 94.7903 116.327 95.1373C114.979 95.5553 114.293 96.8571 114.755 98.3477ZM115.896 97.7608C116.187 98.4487 116.532 98.8086 117.34 98.4026C118.258 98.3516 118.606 97.4657 118.315 96.7779C118.102 96.0929 117.559 96.2496 117.035 96.4011C116.799 96.4694 116.566 96.5365 116.369 96.5251C115.828 96.5371 115.698 97.122 115.896 97.7608Z" fill="#060606"/>
<path fill-rule="evenodd" clip-rule="evenodd" d="M37.7351 102.379C38.0381 103.608 39.3349 104.529 40.3286 104.221C41.5354 103.847 42.3631 102.501 42.0821 101.343C41.8011 100.185 40.1224 99.5387 38.6317 100.001C37.8509 100.243 37.4271 101.385 37.7351 102.379ZM38.9147 102.169C39.1397 102.644 39.5776 103.053 40.1895 103.019C40.6204 102.652 41.1003 102.192 40.8533 101.646C40.5623 100.958 39.8574 100.943 39.1966 101.07C38.5516 101.201 38.7733 101.789 38.8802 102.073C38.8946 102.111 38.9069 102.144 38.9147 102.169Z" fill="#060606"/>
</svg>
