<svg width="304" height="303" viewBox="0 0 304 303" fill="none" xmlns="http://www.w3.org/2000/svg">
<g clip-path="url(#clip0_1842_19603)">
<path d="M145.2 0.199889C170.7 -0.400111 196.1 0.499889 221.6 1.39989C236.6 1.99989 251.2 4.39989 264.9 11.3999C279.5 18.8999 289.2 29.9999 293.6 45.8999C298.5 63.8999 301.5 82.0999 302.3 100.9C303.1 120.2 303.9 139.5 302.8 158.8C301.5 180.9 299.4 203.3 288.8 223.5C281.2 238 270.5 249.2 254.1 253.6C251 254.4 250.8 256.4 251 258.9C251.7 271 252.4 283.1 253 295.2C253.1 297.5 254.6 301 252 302C249.6 303 248 299.6 246.2 298C233.2 286.1 220.2 274.2 207.3 262.2C203.6 258.8 199.4 259.6 195.5 260.3C186.5 261.8 177.4 262.1 168.3 263.1C147.1 265.5 125.8 266.2 104.6 265C90.6998 264.2 76.6998 264.9 62.9998 261.7C43.7998 257.3 30.2998 246.6 21.2998 228.9C10.5998 207.8 5.19983 185.5 2.29982 162.3C-0.300175 141.4 -0.200175 120.5 0.599825 99.5999C1.29982 78.2999 4.99982 57.2999 16.5998 38.9999C29.9998 17.8999 49.8998 5.99989 74.4998 2.29989C97.8998 -1.30011 121.6 0.699889 145.2 0.199889Z" fill="black"/>
<path d="M59.7 154.3C62.7 154.5 65.7 154.5 68.6 155C71.1 155.4 72.8 157 73.1 159.6C73.4 162.5 71.6 163.9 69.1 164.3C65.1 164.9 64.4 167.2 65.4 170.7C67.6 178.5 69.6 186.4 71.7 194.3C72.2 196 72.2 198.5 74.2 198.8C76.1 199.1 76.8 196.7 78 195.4C79.3 193.9 80.4 192.2 81.8 190.8C86 186.5 89.1 186.9 92.2 191.8C92.4 192.1 92.5 192.4 92.7 192.6C94.5 195.1 95 199.8 98.4 199.3C101.4 198.8 100.8 194.3 101.4 191.5C103.1 184.4 104.5 177.2 105.8 170C106.2 167.7 107 164.8 103.3 164.1C100.1 163.4 99.7 160.9 100.1 158.3C100.5 155.2 102.3 153 105.6 152.9C110.8 152.8 115.9 153 121 153.9C123 154.3 124.5 155 125 157.1C125.4 159.2 125.9 161.9 123.6 163C118.9 165.3 118.7 169.6 117.9 173.9C114.9 190.9 113.2 208.2 108.9 224.9C108 228.4 107.6 233.4 103.7 233.6C99.9 233.8 98.7 229 97.4 225.6C95.6 220.8 93.8 216 91.8 211.2C91 209.3 89.7 207.6 87.5 207.4C85.2 207.2 84 208.9 83 210.7C79.6 217 77.9 224 75.2 230.6C74.3 232.8 73.8 235.2 70.8 235.2C67.4 235.2 67.1 232.4 66.5 230C61.1 210 56.6 189.7 50.4 169.9C49.5 167 48.3 164.7 45 164.2C42.4 163.8 40.6 162.6 41 159.6C41.4 156.7 43.3 155.2 46.1 155C50.8 154.9 55.2 153.8 59.7 154.3Z" fill="#FEFEFE"/>
<path d="M241.4 76.5998C237.6 78.4998 236.7 81.8998 234.8 84.4998C231.6 88.9998 228.3 89.0998 224.7 84.7998C223.6 83.4998 222.8 82.0998 221.8 80.7998C220.8 79.4998 219.7 78.2998 218.6 76.9998C216.4 78.0998 217 79.9998 217 81.4998C217.2 92.5998 217.7 103.8 217.9 114.9C218 117.8 219.3 119.1 222 119.5C226.5 120.2 226.2 123.5 226 126.8C225.8 130.3 223.6 131.2 220.6 131.3C215.3 131.4 209.9 131.4 204.6 131.6C201.9 131.7 200.2 130.5 199.6 127.8C199 125 200.2 123.2 202.7 122.4C206.3 121.3 207.1 118.8 206.9 115.5C206.2 99.6998 205.6 83.8998 205 68.0998C204.9 65.1998 203.9 63.4998 200.8 62.8998C198.7 62.4998 196.3 61.9998 196.1 59.1998C195.9 56.2998 197.8 54.6998 200.2 53.4998C206.3 50.5998 214.6 53.0998 218.7 59.0998C220.8 62.2998 222.8 65.4998 225.1 68.5998C227.6 71.9998 230.3 71.8998 232.8 68.5998C235.9 64.4998 238.7 60.1998 241.8 55.9998C244.6 52.0998 254.6 50.5998 258.5 53.3998C261.2 55.3998 259.8 57.6998 258.3 58.7998C255.1 61.1998 255.2 64.2998 255.2 67.6998C255.2 83.1998 255.2 98.6998 255.1 114.1C255.1 116.5 254.7 118.7 258.1 119.9C260.8 120.8 259.9 124.2 259.8 126.6C259.8 128.6 258 129.1 256.2 129.2C252.4 129.5 248.6 129.9 244.8 130.1C239 130.3 238.2 129.2 240.1 123.8C245.5 108.2 240.6 92.3998 241.4 76.5998Z" fill="#FEFEFE"/>
<path d="M44.5997 99C57.0997 103.2 63.6997 112 67.4997 123.3C68.1997 125.4 69.7997 126.4 71.8997 126.8C75.4997 127.5 76.1997 130.2 75.9997 133.2C75.7997 136.6 72.9997 136.8 70.4997 137C66.6997 137.2 62.7997 137.2 58.9997 137.3C57.0997 137.3 54.9997 137.5 54.2997 135.4C53.4997 133.3 52.5997 130.6 54.6997 128.8C57.3997 126.5 56.3997 124.5 55.0997 122.3C52.0997 116.8 47.0997 114 41.2997 112.5C40.1997 112.2 38.5997 112.1 37.8997 112.6C34.1997 115.9 36.6997 120.4 36.0997 124.4C35.7997 126.3 36.0997 128.1 38.5997 128.5C40.0997 128.7 41.4997 129.3 42.7997 129.9C44.4997 130.6 45.3997 132 45.1997 133.9C45.0997 135.6 43.8997 136.6 42.3997 137.1C36.5997 138.8 30.5997 139.2 24.5997 138.4C21.1997 138 19.7997 134.3 22.0997 131.5C24.7997 128.3 24.6997 124.9 24.5997 121.2C24.0997 105.7 23.6997 90.2 23.2997 74.8C23.1997 71.3 23.1997 68 21.1997 64.8C19.0997 61.3 20.4997 59.2 24.5997 58.7C28.0997 58.3 31.5997 58.2 35.0997 58C36.7997 57.9 38.4997 57.8 39.0997 60C39.5997 61.8 40.0997 64.1 38.3997 65.1C34.7997 67.3 35.2997 70.6 35.1997 73.9C35.0997 78.6 35.0997 83.2 35.0997 87.9C35.0997 89.2 34.6997 90.8 36.2997 91.4C37.5997 91.9 38.3997 90.7 39.2997 90C44.7997 85 48.8997 79 51.5997 72.1C52.2997 70.1 52.3997 68.7 50.6997 66.8C46.1997 62 47.6997 58.2 54.2997 57.2C57.3997 56.7 60.5997 56.4 63.6997 55.9C66.3997 55.5 68.2997 56.1 68.7997 59.1C69.1997 62 69.7997 64.9 65.7997 65.8C63.5997 66.2 62.4997 67.3 61.8997 69.7C59.0997 80.5 54.1997 90.5 44.5997 99Z" fill="#FEFEFE"/>
<path d="M144 152.3C147 152.3 148.5 152.4 150 152.3C152.2 152.1 153.5 153.1 154.2 155.1C154.9 157.1 154.3 158.8 152.3 159.7C150.6 160.5 149.8 161.7 149.9 163.6C150.2 168.6 150.5 173.6 150.6 178.6C150.7 180.8 151.7 181.2 153.7 181.3C172.4 182.3 174.2 184 176.3 202.3C176.7 205.8 177.3 209.2 177.7 212.7C178 214.8 178.3 216.5 180.6 217.5C183.3 218.7 183.2 221.1 182.9 223.5C182.6 226.3 180.7 227.5 178.2 227.8C175.4 228.2 172.6 228.5 169.8 228.7C167.8 228.8 165.6 229.1 164.7 226.7C163.9 224.5 162.9 221.8 164.9 220.1C168.3 217.1 167.8 213.7 167.2 210.1C166.6 206.5 166 202.9 165.2 199.3C164.3 195.6 162.1 193 158.1 192.7C153.9 192.4 150.6 194.7 149.7 198.4C147.7 206.7 146.5 215.1 151.5 223C153.5 226.2 152.5 228.5 148.8 229.1C146 229.6 143.2 229.8 140.4 229.6C136.2 229.3 134.7 226.6 137.5 223.2C139.9 220.2 139.9 217.2 139.7 213.9C139 198.3 138.3 182.6 137.7 167C137.6 164.3 137.4 161.8 135.1 159.8C133.6 158.6 132.8 156.8 133.5 154.9C134.2 153 136.1 153 137.7 152.9C140.1 152.6 142.8 152.4 144 152.3Z" fill="#FEFEFE"/>
<path d="M246.9 195.7C245.9 189.4 248.1 183.8 253.8 179.7C254.2 179.4 254.5 179 254.9 178.7C257.7 176 259.6 172.9 257.6 168.9C255.6 164.9 252 164.4 248.2 165.2C244 166.1 241.8 169.1 241.1 173.3C240.7 175.6 242.5 179.1 237.8 179C233.8 178.9 231.2 176.1 231.1 171.9C231 168.4 231.4 164.9 232.7 161.6C237.4 149.9 243.2 148.1 256.9 150.4C266.4 152 270.9 160.9 268.8 171.3C268.1 174.9 267 178.3 264.7 181.4C260.1 187.5 260.7 194.9 260.1 202C259.6 208 258.7 208.7 252.7 208.5C248.8 208.4 246.8 206.8 246.9 202.8C247 200.6 246.9 198.5 246.9 195.7Z" fill="#FEFEFE"/>
<path d="M189.3 203C189.6 194.7 191.9 187 198.8 181.5C205.8 176 214.4 177.1 219.9 184.2C227.9 194.5 225.9 212.6 215.9 221C208.2 227.5 198.4 225.8 193 217C190.5 212.7 189.6 208 189.3 203Z" fill="#FEFEFE"/>
<path d="M174.5 118C171.5 122.5 170.9 127.9 166.7 131.1C164.5 129.6 163.8 127.4 163.3 125.1C161.6 118 159.9 110.9 158 103.8C157.2 100.7 157.1 96.9998 152.6 96.6998C151.9 96.5998 150.9 96.0998 151.3 94.9998C151.7 93.6998 152.3 92.4998 154 92.3998C158.2 92.2998 162.3 92.2998 166.5 92.2998C167.6 92.2998 168.5 92.7998 168.6 93.8998C168.7 94.8998 168 95.3998 167.2 95.7998C165.6 96.4998 163.2 96.7998 163.6 99.1998C164.2 102.8 165.1 106.4 166.4 109.7C167 111.1 168.4 110 169.1 109C172.1 104.7 175.2 104.2 178.5 108.8C180.5 111.5 182.6 110.5 183 107.9C183.8 103.5 187.4 98.4998 181.4 94.5998C179.5 93.3998 181.4 92.1998 182.7 92.2998C186.2 92.3998 189.7 92.5998 193.1 93.1998C195.2 93.5998 194.8 95.2998 193.3 95.6998C190 96.5998 190.1 99.2998 189.7 101.6C188.2 109.8 186.8 118 185.4 126.2C185.1 128.1 184.6 130.1 182.5 130.4C180.4 130.7 180.1 128.4 179.5 127C177.9 124 176.9 120.8 174.5 118Z" fill="#FDFDFD"/>
<path d="M90.7997 121C91.1997 125.2 90.5997 129.6 93.9997 133.2C95.7997 135.1 94.4997 136.4 92.1997 136.9C86.2997 138.1 83.9997 136.4 83.5997 130.4C83.2997 124.6 83.1997 118.8 82.8997 113C82.6997 109.1 82.2997 105.3 78.5997 102.9C77.0997 102 77.4997 101.3 78.4997 100.3C81.4997 97.2999 85.9997 97.4999 88.2997 101C89.2997 102.5 90.4997 102.8 92.0997 102.6C94.0997 102.4 96.0997 102.2 98.0997 102.1C105.3 101.9 109.2 104.9 111.1 111.8C112 115 112.4 118.3 112.3 121.7C112.2 124.8 112 127.7 115.5 129.9C117.7 131.3 117.4 134 114.7 135.5C109.1 138.6 105.2 136.5 105 130.3C104.9 125.8 104.7 121.3 104.5 116.8C104.2 111.9 100.8 108.4 96.2997 108.7C91.2997 109.1 90.8997 112.8 90.7997 116.7C90.7997 118 90.7997 119.5 90.7997 121Z" fill="#FDFDFD"/>
<path d="M281.1 130.1C274.4 130.1 270.1 127.1 268.2 120.7C265.9 113.3 265.6 106 269.6 99.1C272.7 93.8 278.4 91.8 284.7 93.7C289.7 95.2 293.1 100.3 292.8 106C292.7 109.3 291.4 111.3 287.7 111.3C285.1 111.3 282.4 111.7 279.8 111.9C278 112.1 276 112 275.7 114.5C275.4 117.3 275 120.3 277.2 122.5C278.8 124.1 281 124.5 283.2 123.6C285.4 122.7 286.1 121.2 285.1 118.9C284.6 117.9 283 116.6 284.5 115.5C286.3 114.1 288.5 114 290.7 114.5C292.5 115 292.6 116.6 292.6 118.1C293 126 289.2 130.1 281.1 130.1Z" fill="#FDFDFD"/>
<path d="M123.9 114.7C123.8 108.9 125.2 103.5 129 98.9999C133.1 93.9999 138.7 93.8999 143.1 98.6999C150.2 106.3 149.8 123.5 142.3 130.9C137.8 135.4 132.2 135 128.2 129.8C124.8 125.3 123.9 120.1 123.9 114.7Z" fill="#FDFDFD"/>
<path d="M252.6 215.3C256.4 215.4 259.2 218.4 259.1 221.9C259 225.8 255.2 229.3 251.2 229.1C247.5 229 244.8 225.9 245 222.2C245.2 218.6 248.9 215.2 252.6 215.3Z" fill="#FBFBFB"/>
<path d="M215.1 199C214.6 203.2 213.9 207.6 209.9 210.5C206.3 213.1 203.3 212.3 201.6 208.3C198.8 201.8 200 195.8 204 190.2C206.7 186.4 211 186.9 213.1 191C214.3 193.3 214.9 195.9 215.1 199Z" fill="#010101"/>
<path d="M280.4 106.1C278.1 105.8 275.3 106.1 275.8 102.5C276.3 99.4999 278 97.5999 281.2 97.8999C284 98.1999 286.2 99.9999 286 102.7C285.8 105.5 283.2 106.5 280.4 106.1Z" fill="#070707"/>
<path d="M130 114.5C130 109.1 132.9 104.6 136.3 104.6C139.1 104.6 142 109.1 142.1 113.4C142.2 117.9 138.5 123.3 135.4 123.2C132.2 123.1 130 119.6 130 114.5Z" fill="#030303"/>
</g>
<defs>
<clipPath id="clip0_1842_19603">
<rect width="303.3" height="302.2" fill="white"/>
</clipPath>
</defs>
</svg>
