<svg width="212" height="230" viewBox="0 0 212 230" fill="none" xmlns="http://www.w3.org/2000/svg">
<path d="M35.7768 14.1561C35.4163 11.8127 33.3884 10.1904 33.0279 7.80198C32.9828 7.3964 32.7124 7.03589 32.6674 6.67537C32.4871 5.32343 31.9463 3.79123 33.4785 2.88994C34.8755 2.07878 36.3627 1.98865 37.8047 2.98007C38.9764 3.79123 40.1481 4.55733 41.2747 5.32343L41.4099 5.18824C41.3648 4.78266 41.3198 4.37707 41.2297 4.01656C40.8691 2.88994 40.5086 1.76333 41.5451 0.862035C42.6267 -0.0843212 43.8885 -0.0392566 45.1503 0.411389C48.0795 1.44788 50.1074 3.65604 51.91 5.95434C55.6053 10.596 59.1203 15.4179 62.6353 20.2398C65.4744 24.0703 68.7191 27.5403 71.7384 31.2356C72.0088 31.551 72.4144 32.3622 73.0002 31.8665C73.541 31.4158 72.865 30.9201 72.6397 30.5145C70.2513 26.639 68.1332 22.5832 66.7813 18.2119C66.3757 16.905 66.0152 15.6432 66.1504 14.2913C66.2856 12.4887 67.0967 11.9479 68.8092 12.5788C69.6654 12.8943 70.4766 13.2999 71.3779 13.6604C71.7384 12.4436 71.1075 11.5423 70.8371 10.6411C70.4766 9.33418 70.6118 8.1625 71.6483 7.35134C72.865 6.45005 73.9015 7.35134 74.8929 8.07237C75.4787 8.52302 75.9745 9.01873 76.6054 9.60457C77.1912 9.01873 76.8307 8.34276 76.9208 7.75692C77.0109 6.72043 77.3715 5.68395 78.453 5.36849C79.4444 5.05304 80.2556 5.54875 80.8865 6.40498C81.6526 7.48653 82.4638 8.56808 83.2299 9.64963C83.5453 10.0552 83.6354 10.6861 84.3565 10.596L84.4015 10.4608C84.4015 8.97366 85.1226 7.93718 86.5646 7.75692C88.1419 7.57666 88.9531 8.65821 89.4938 10.0101C90.7106 13.0745 90.8908 16.4093 91.9724 19.5188C94.0454 25.4222 96.3887 31.1905 100.084 36.2377C103.058 40.2936 107.114 43.2228 111.485 45.6562C112.342 46.152 113.739 45.8816 114.82 45.7464C122.03 44.8 127.528 47.9545 132.215 53.0018C133.071 53.9481 133.477 54.1735 134.604 53.3172C138.795 50.1627 143.211 47.3687 148.033 45.3408C151.683 43.8086 155.649 43.3129 159.524 42.5468C164.076 41.6455 168.672 41.6906 173.224 42.2764C173.449 42.6369 173.72 42.727 173.99 42.3665C180.434 43.5833 186.248 45.9266 189.447 52.1906C191.16 55.5705 191.475 59.2658 190.979 62.9611C189.808 71.7937 185.346 79.2294 180.524 86.5298C176.288 92.9741 170.79 98.0213 164.707 102.618C156.82 108.611 147.807 112.081 138.524 114.921C131.314 117.174 123.698 116.813 116.217 116.993C107.249 117.219 98.2814 116.993 89.4037 118.661C79.5796 120.509 70.0259 123.032 60.9679 127.584C55.8306 130.152 50.7834 132.676 46.5473 136.597C44.0687 138.895 42.0859 141.599 40.6438 144.663C40.2382 145.519 40.3284 146.015 41.2297 146.601C47.719 150.567 54.3434 154.172 61.9143 155.614C65.7899 156.335 69.6654 156.966 73.6311 157.101C82.4638 157.371 91.2964 157.687 99.9939 159.399C100.354 160.075 100.94 159.805 101.481 159.76C114.144 163.004 126.131 167.286 135.279 177.38C139.425 181.977 143.166 186.753 145.239 192.567C147.222 198.11 147.402 203.833 145.374 209.466C144.337 212.305 144.202 215.37 143.211 218.164C142.129 221.093 140.958 224.022 139.47 226.771C138.975 227.717 138.344 228.619 137.443 229.204C136.902 229.565 136.226 229.88 135.595 229.34C134.964 228.799 135.189 228.123 135.505 227.492C137.307 223.887 137.533 220.101 136.812 216.181C136.586 214.964 136.226 214.829 135.325 215.55C131.99 218.389 128.249 220.597 124.554 222.94C123.067 223.887 121.355 223.932 119.912 224.788C119.462 225.058 118.966 224.878 118.741 224.337C118.561 223.842 118.876 223.616 119.191 223.346C125.951 217.668 126.221 207.709 120.183 200.769C113.964 193.648 106.078 189.187 97.5604 185.627C93.099 183.779 88.4574 182.562 83.8608 181.12C76.335 178.732 68.7641 176.479 61.1482 174.406C57.8585 173.505 54.4786 172.964 51.234 171.927C47.1782 170.62 42.9421 170.215 39.0666 167.962C27.53 161.337 22.4828 148.449 23.9248 136.326C24.5558 130.828 25.9528 125.466 28.2511 120.554C30.279 116.227 33.4335 112.487 37.1288 109.287C45.8713 101.717 56.2362 98.0213 67.4122 96.4891C74.5775 95.5428 81.7878 95.9033 88.9981 96.8947C90.7106 97.12 92.423 97.1651 94.1355 97.4355C98.0561 98.0664 101.932 99.0127 105.942 99.1029C114.46 99.3282 122.797 98.6973 130.908 96.1286C139.245 93.4698 146.546 89.0084 153.441 83.6006C159.029 79.2294 163.625 74.092 167.726 68.4589C169.979 65.3945 171.376 61.8344 172.548 58.1842C172.728 57.6434 172.593 57.5082 172.052 57.7786C158.848 59.446 148.258 65.7551 140.011 76.1199C137.127 79.7251 134.153 83.2852 132.756 87.7916C132.44 88.8281 132.17 89.8646 131.855 90.856C131.674 91.3968 131.494 91.9376 130.863 91.9376C130.187 91.9376 129.962 91.4869 129.827 90.9011C128.655 86.4848 127.754 82.0234 128.069 77.4268C128.114 76.6156 128.159 75.8495 128.249 74.5427C126.221 76.3452 124.419 77.7422 122.842 79.3646C120.048 82.2487 117.434 85.3582 115.361 88.8281C115 89.414 114.775 90.1801 113.919 89.8646C113.153 89.5492 113.288 88.7831 113.468 88.1071C115.226 81.5277 117.344 75.1736 121.4 69.5855C122.932 67.4675 124.284 65.2593 125.906 62.8709C121.039 62.916 116.578 63.8623 112.206 65.2143C104.771 67.5126 97.8759 71.1628 90.4853 73.6414C86.2943 75.0384 81.923 75.8045 77.6418 76.7959C71.3328 78.283 65.0238 79.9504 58.5345 80.8517C51.8649 81.753 45.1953 82.2938 38.6159 80.6264C36.6781 80.1307 34.7404 79.4547 32.9378 78.6435C31.3154 77.8774 29.9635 76.5255 29.8734 74.6778C29.7832 73.0105 31.3154 72.2894 32.7575 71.5684C31.8562 70.3066 29.7382 69.5405 30.5944 67.6478C31.2253 66.2508 32.6223 65.5748 34.2446 65.6199C34.5601 65.6199 34.9657 65.8001 35.1009 65.3945C35.191 65.0791 34.9206 64.989 34.6502 64.8988C33.6588 64.6284 33.118 63.7722 32.6674 63.0061C31.1802 60.6177 32.3069 58.8602 35.7318 58.2743C35.5065 57.7336 35.2361 57.2378 35.0558 56.6971C34.6502 55.3001 35.1459 54.3988 36.588 53.9481C37.9399 53.5425 39.2017 53.858 40.5537 54.0833C45.7812 54.9846 50.6932 57.0125 55.8306 58.049C58.4894 58.5898 61.1933 58.8151 63.8971 59.1756C64.2126 59.1756 64.5731 59.2658 64.6632 58.8151C64.7083 58.5447 64.3929 58.4095 64.1675 58.3645C57.0473 52.461 50.0623 46.4223 43.8885 39.4373C37.6696 32.0918 31.721 24.6561 26.5386 16.6797C25.6824 15.3728 25.1416 13.8406 24.2403 12.4887C23.3841 11.272 23.2489 9.42431 24.5558 8.20757C25.9077 6.94576 27.3498 7.03589 28.927 8.1625C31.3605 9.87496 33.3433 12.0381 35.4163 14.1561C35.4614 14.6969 35.5515 15.2376 36.2275 15.2376C36.3176 15.2376 36.5429 14.9673 36.5429 14.8321C36.588 14.2913 36.1824 14.2012 35.7768 14.1561ZM74.0367 32.7227C73.9466 32.4974 73.7663 32.1369 73.586 32.3171C73.1354 32.6326 73.6311 32.7678 73.8114 32.9931C74.0817 33.1283 74.1719 33.0382 74.0367 32.7227ZM116.623 83.871C116.848 83.6006 117.073 83.3753 117.254 83.1049C120.363 79.0942 124.239 75.8495 127.889 72.4246C128.385 71.974 128.835 71.1177 129.737 71.6135C130.503 72.0641 130.007 72.8753 129.962 73.4611C129.646 78.1028 129.241 82.6993 130.908 87.2959C131.179 86.8002 131.494 86.4397 131.629 86.0341C134.243 79.2294 139.11 74.0019 144.067 68.9546C148.528 64.4031 154.297 61.7443 159.93 58.9503C164.707 56.5619 169.844 56.2915 174.846 55.2099C175.477 55.0747 176.153 55.2099 176.829 55.3451C182.597 56.5619 186.698 59.8065 188.726 65.4847C188.816 65.3945 188.861 65.3044 188.861 65.1692C188.906 64.7636 188.951 64.3581 188.996 63.9975C190.078 55.0747 187.915 48.7657 179.263 45.3408C175.928 44.0339 172.368 43.403 168.717 43.3129C156.415 42.9974 145.554 46.873 135.73 54.0833C134.378 55.0747 134.243 55.7958 135.46 56.9675C137.307 58.6799 138.84 60.7529 140.327 62.7808C140.777 63.4117 141.408 64.2229 140.958 64.9439C140.417 65.7551 139.651 64.989 139.02 64.7636C136.496 63.9074 133.973 63.0962 131.269 62.7808C129.196 62.5555 127.618 62.916 126.357 64.8087C122.526 70.4418 118.696 76.1199 116.803 82.7895C116.623 82.9697 116.488 83.15 116.307 83.3302C116.262 83.5105 115.947 83.871 116.623 83.871ZM138.795 223.842C138.028 223.977 137.893 224.473 138.164 225.149C138.704 224.878 138.795 224.382 138.885 223.887C139.02 223.661 139.155 223.391 139.29 223.166C139.561 222.625 139.786 222.084 140.056 221.543C142.4 216.812 143.076 211.584 144.383 206.582C145.96 200.543 145.058 194.505 141.994 188.872C137.488 180.67 131.179 174.271 123.292 169.359C116.668 165.213 109.232 163.32 101.842 161.292C93.0539 158.904 83.996 158.859 74.983 158.498C67.8178 158.228 60.8328 157.236 54.1181 154.713C49.5215 153 45.0151 150.837 40.9593 147.953C39.8777 147.187 39.4721 147.502 39.3369 148.719C38.5258 155.569 39.6524 161.923 44.2039 167.421C44.6996 168.007 45.3305 168.097 45.9614 168.277C51.5044 169.989 57.0924 171.612 62.7705 172.919C73.0903 175.307 83.0947 178.687 93.1441 181.977C103.644 185.402 113.333 190.359 120.949 198.786C125.185 203.472 128.61 213.792 124.013 220.912C124.194 221.138 124.419 221.138 124.689 221.003C128.114 218.839 131.584 216.676 134.649 214.018C136.857 212.125 137.758 212.44 138.524 215.279C139.2 217.938 138.84 220.597 138.93 223.211C138.84 223.391 138.795 223.616 138.795 223.842ZM137.713 62.4203C137.623 61.2937 136.947 60.7529 136.361 60.122C134.919 58.5447 133.432 56.9675 132.08 55.3001C127.664 49.9374 122.391 46.6026 115.091 47.1884C111.215 47.5039 107.384 47.8193 103.464 47.8193C96.1183 47.7743 89.7192 44.8 83.32 41.6455C78.453 39.2571 74.0817 36.0575 70.4315 32.1369C65.5195 26.8192 61.2383 20.9608 56.8671 15.1926C53.9379 11.3621 51.5044 7.17108 47.8091 3.97149C46.5923 2.93501 45.3756 2.07878 43.7983 1.76333C42.897 1.58307 42.1309 1.85346 42.5816 3.0702C44.2039 7.21614 45.2404 11.6325 48.3499 15.1475C49.8821 16.86 51.4143 18.5274 52.4958 20.5553C52.7662 21.096 52.9915 21.5918 52.4958 21.9973C52.0452 22.3578 51.5945 21.9973 51.3241 21.5918C49.116 18.257 46.1417 15.463 44.2039 11.9029C42.4464 8.65821 40.058 6.04446 36.8133 4.24188C36.0022 3.79123 35.2361 3.8363 34.515 4.19682C33.794 4.6024 34.0644 5.41356 34.1545 6.04446C34.1996 6.49511 34.3348 6.99082 34.515 7.3964C36.6331 12.9393 40.1481 17.6711 43.2576 22.6282C43.6631 23.3042 44.6996 23.845 43.7983 24.6111C42.897 25.3772 42.3112 24.3858 41.8606 23.7999C40.2833 21.6819 38.4807 19.7892 36.6781 17.9415C33.9292 15.1024 31.4506 11.9479 28.1609 9.6947C27.53 9.28911 26.854 8.52302 26.0429 9.24405C25.2317 9.96508 25.0965 11.0917 25.7274 11.7677C27.1695 13.2999 27.53 15.3278 28.6116 16.9952C32.5322 22.9437 36.8133 28.6218 41.5 33.9394C45.646 38.6712 49.6567 43.5833 54.3885 47.7743C57.543 50.5683 60.9679 53.0919 64.0323 56.0211C66.2405 58.1391 68.4036 59.4911 71.5131 58.2743C72.3242 57.9589 73.2255 57.9138 74.0367 57.6885C74.7127 57.5082 75.4337 57.2829 75.7041 58.1842C75.9745 59.0855 75.1182 59.0855 74.5775 59.2658C66.7813 61.6992 59.0752 60.7529 51.4143 58.6349C47.4936 57.5082 43.6631 56.1112 39.5623 55.5705C38.6159 55.4353 37.2189 54.8494 36.9485 55.976C36.6781 56.9675 38.0751 57.5984 38.9764 58.1842C40.8691 59.3559 43.0322 59.4911 45.0601 60.167C45.691 60.3924 46.6825 60.6628 46.367 61.6091C46.0516 62.4653 45.1953 61.9246 44.5644 61.8795C44.294 61.8344 44.0687 61.6992 43.7983 61.6542C41.1395 61.1585 38.661 60.122 35.912 59.9868C35.191 59.9417 34.3348 59.8967 34.0193 60.7529C33.7039 61.5641 34.2446 62.195 34.7854 62.6907C35.912 63.7722 37.264 64.4932 38.7962 64.8538C40.7339 65.3495 42.7168 65.8001 44.6546 66.386C45.2404 66.5662 46.0516 66.8366 45.7812 67.7379C45.5108 68.5941 44.7447 68.0984 44.249 68.0083C41.8606 67.5126 39.5172 66.6563 36.9936 66.8366C35.3262 66.9267 32.7575 66.7014 32.5773 68.1885C32.397 69.7658 34.7404 70.4868 36.4979 70.8924C38.4807 71.3431 40.5086 71.0727 42.5365 71.1628C43.0322 71.1628 43.7533 71.0276 43.8434 71.7937C43.9786 72.6499 43.1674 72.7401 42.6267 72.7851C40.9593 72.8302 39.2468 72.8753 37.5794 72.7401C36.4528 72.6499 35.3262 72.7401 34.2446 72.9654C33.2532 73.1907 31.9013 73.2358 31.8112 74.6328C31.7661 75.7594 32.6223 76.7058 33.6137 77.0663C36.1824 78.0126 38.661 79.1392 41.4099 79.5448C48.4851 80.5813 55.4701 79.9053 62.3649 78.4182C72.5045 76.21 82.7341 74.1821 92.6484 70.9826C99.5432 68.7293 105.897 65.1692 112.927 63.2314C117.794 61.8795 122.706 61.1134 127.799 61.0683C131.179 60.9782 134.378 61.7443 137.713 62.4203ZM100.76 115.461C105.041 115.371 109.367 115.281 113.648 115.101C121.535 114.83 129.556 115.461 137.217 113.298C146.41 110.639 155.378 107.35 163.174 101.446C167.771 97.9312 172.142 94.1908 175.838 89.7745C177.325 87.9719 178.496 85.944 179.893 84.0062C183.048 79.6349 185.662 75.0384 186.653 69.6757C187.374 65.8903 186.473 62.7357 183.408 60.3473C181.561 58.9052 179.668 57.5984 177.235 57.1928C174.711 56.7421 174.666 56.652 173.945 59.2207C173.044 62.4203 171.647 65.3945 169.844 68.0984C164.752 75.7143 158.307 82.0234 151.007 87.4762C147.131 90.4054 143.076 93.0191 138.614 94.8668C128.34 99.1479 117.659 100.86 106.483 100.545C100.354 100.365 94.5411 98.6071 88.5024 98.1114C81.968 97.5707 75.4337 97.5256 68.8993 97.7509C65.8349 97.8861 62.8156 98.5621 59.8413 99.4634C51.7748 101.897 44.0237 104.826 37.7146 110.775C32.6223 115.551 29.3777 121.23 27.485 127.944C25.5472 134.794 24.736 141.464 26.4034 148.494C28.3412 156.56 33.118 162.193 40.058 166.339C40.3284 166.52 40.6889 166.61 41.0494 166.204C40.103 164.221 38.7962 162.374 38.3455 160.12C37.4442 155.298 36.4528 150.522 38.3005 145.655C40.8241 138.985 45.646 134.253 51.3692 130.333C54.3885 128.26 57.8585 127.133 61.0581 125.511C68.1783 121.996 75.659 119.517 83.4552 117.985M95.8479 114.425C92.6934 113.749 91.7921 112.352 91.2063 108.476C91.026 107.26 91.4767 106.088 91.7471 104.916C92.8737 100.32 96.569 98.9226 100.49 101.626M108.106 45.7013C99.1827 40.2936 94.8565 31.7313 91.2514 22.5381C89.7642 18.7527 89.1784 14.787 87.9166 10.9565C87.6913 10.2805 87.5561 9.19899 86.7449 9.33418C85.8436 9.46937 85.9788 10.5509 85.8436 11.317C85.7985 11.5874 85.8887 11.8578 85.8887 12.1282C85.9788 14.4265 86.2041 16.6797 86.6548 18.9329C86.79 19.5188 87.0153 20.2849 86.1591 20.4201C85.4831 20.5102 85.1226 19.9694 84.9874 19.2935C84.9423 19.1132 84.8071 18.8879 84.8071 18.7076C84.7621 14.787 82.7341 11.6775 80.571 8.61315C80.1204 7.98224 79.7148 6.85563 78.9487 7.08095C78.0925 7.35134 78.5431 8.52302 78.5882 9.24405C78.8135 12.8943 79.5346 16.4093 81.1569 19.7441C81.4273 20.3299 81.5625 20.9608 80.8414 21.2763C79.9852 21.6819 79.8049 20.9608 79.6247 20.375C79.0388 18.7977 78.453 17.2205 77.9573 15.6432C77.1912 13.2097 75.9745 11.0917 74.1268 9.37924C73.6762 8.97366 73.0903 8.20756 72.4144 8.70328C71.9186 9.06379 72.2792 9.82989 72.4594 10.4157C73.4959 13.7505 74.3972 17.0853 76.1096 20.1497C76.4251 20.7355 77.2363 21.7269 76.0646 22.2227C75.0732 22.6282 74.8929 21.5016 74.6676 20.9158C73.7663 18.7977 72.4594 16.9501 70.792 15.3728C70.0259 14.6518 68.9444 13.7054 67.998 14.2913C67.1869 14.787 67.9079 16.0037 68.0882 16.905C68.1783 17.3557 68.4036 17.8063 68.5388 18.2119C70.2963 23.7999 73.4959 28.5768 76.5152 33.4888C78.0024 35.9223 79.9401 37.9051 82.5088 39.3021C85.393 40.8794 88.4123 42.1863 91.4316 43.403C96.7042 45.5661 102.247 46.6026 108.106 45.7013ZM99.0926 114.785C98.9574 114.875 98.8673 114.921 98.7771 114.966C98.9123 115.056 99.0475 115.236 99.2278 115.281C99.4531 115.371 99.6334 115.281 99.5432 115.056C99.4081 114.921 99.1827 114.875 99.0926 114.785ZM41.7704 166.88C41.7254 166.835 41.7254 166.79 41.6803 166.745C41.6352 166.745 41.5902 166.79 41.5451 166.79C41.5902 166.835 41.6352 166.925 41.6803 166.97C41.7254 166.97 41.7704 166.925 41.7704 166.88Z" fill="black"/>
<path d="M5.0428 120.419C5.13293 116.138 4.32177 112.172 1.03205 109.108C0.0406294 108.161 0.446211 107.485 1.4827 106.945C6.30461 104.331 9.77458 100.5 11.5321 95.2728C11.8025 94.3715 12.4334 94.011 13.1544 94.2814C14.0557 94.5969 13.3347 95.2728 13.2446 95.8136C12.2982 100.771 12.9291 105.457 16.2188 109.513C16.9849 110.505 16.7145 110.73 15.8583 111.271C12.2531 113.524 9.05355 116.183 7.16084 120.194C6.75525 121.05 6.62006 121.951 6.34967 122.852C6.21448 123.348 6.03422 123.799 5.44838 123.664C4.95267 123.528 5.08786 123.033 5.08786 122.672C5.0428 121.906 5.0428 121.185 5.0428 120.419ZM6.34967 118.346C8.78316 115.236 11.1716 112.623 14.1458 110.64C14.4613 110.415 14.8669 110.189 14.5064 109.694C12.3883 106.719 11.7574 103.294 11.487 99.4188C8.82823 102.889 6.30461 105.908 2.78957 107.846C2.15867 108.161 2.29386 108.522 2.69944 108.927C5.13293 111.451 6.03422 114.606 6.34967 118.346Z" fill="black"/>
<path d="M137.352 156.741C137.262 152.865 135.55 149.485 132.936 146.646C131.809 145.429 131.584 144.799 133.296 144.077C136.856 142.545 138.974 139.571 140.912 136.416C141.273 135.831 141.678 135.019 142.625 135.335C143.616 135.695 142.85 136.507 142.94 137.092C143.301 140.472 144.022 143.672 147.041 145.835C148.889 147.187 148.844 147.322 146.951 148.539C143.391 150.882 140.101 153.496 138.839 157.867C138.704 158.408 138.298 158.949 137.713 158.678C136.811 158.318 137.442 157.507 137.352 156.741ZM138.614 154.578C140.642 151.738 142.94 149.665 145.419 147.728C145.914 147.367 146.32 147.097 145.644 146.511C143.12 144.393 142.309 141.329 141.453 137.904C139.56 140.968 137.668 143.492 134.558 144.798C133.612 145.204 134.153 145.745 134.558 146.195C136.541 148.629 137.758 151.333 138.614 154.578Z" fill="black"/>
<path d="M199.947 61.1134C200.307 58.1842 198.55 56.2013 196.882 54.1734C195.125 52.1004 195.035 52.1004 197.468 51.0189C201.164 49.3966 203.372 46.2871 205.49 43.0875C205.805 42.6369 205.805 41.7356 206.706 42.0961C207.473 42.4566 207.067 43.1326 206.932 43.6734C205.85 47.2335 205.85 50.7936 207.382 54.2635C207.833 55.255 207.698 55.7957 206.661 56.5168C204.408 58.0039 201.839 59.3108 201.344 62.4202C201.254 62.8709 200.938 63.0962 200.442 63.0061C199.857 62.8709 200.037 62.4202 200.037 62.0597C199.947 61.7893 199.947 61.4739 199.947 61.1134ZM204.724 47.0081C202.786 49.1262 200.803 51.064 198.144 52.1906C197.558 52.4159 197.603 52.8665 198.009 53.3172C199.496 54.9395 200.533 56.8322 201.344 58.9953C202.741 57.6884 204.003 56.5168 205.58 55.6605C206.076 55.3902 206.166 55.0296 205.94 54.4889C205.039 52.1004 204.408 49.712 204.724 47.0081Z" fill="black"/>
<path d="M157.857 152.504C157.722 155.794 157.722 158.633 159.074 161.337C159.434 162.103 159.254 162.599 158.308 163.004C156.054 163.996 154.026 165.258 153.395 167.916C153.305 168.277 153.08 168.683 152.584 168.638C151.998 168.592 151.863 168.142 151.773 167.646C151.323 165.077 150.647 162.554 149.565 160.165C149.114 159.219 149.34 158.678 150.286 158.228C152.945 156.966 154.657 154.758 156.054 152.279C156.37 151.738 156.595 151.152 157.406 151.468C158.037 151.783 157.812 152.414 157.857 152.504ZM152.81 165.393C154.026 163.816 155.243 162.644 156.865 162.013C157.316 161.833 157.451 161.562 157.271 161.067C156.55 159.219 156.46 157.236 156.054 155.028C154.612 156.786 153.305 158.273 151.458 159.219C151.052 159.444 150.962 159.715 151.142 160.21C151.728 161.833 152.179 163.455 152.81 165.393Z" fill="black"/>
<path d="M15.8131 125.106C15.5878 127.224 16.6243 128.711 18.3818 129.612C19.8239 130.378 19.5535 130.874 18.3368 131.46C16.1286 132.541 14.4612 134.028 13.8754 136.507C13.7852 136.913 13.5599 137.453 12.929 137.363C12.4333 137.273 12.2981 136.867 12.253 136.462C11.9826 133.623 10.9011 131.46 8.10709 130.108C6.66502 129.387 7.9719 128.621 8.64787 128.305C10.6758 127.404 11.9826 125.737 13.3797 124.114C13.8754 123.573 14.1007 122.537 15.2273 122.988C16.1737 123.393 15.9934 124.249 15.8131 125.106ZM14.1457 125.782C12.7037 127.088 11.3517 128.215 9.95474 129.432C11.532 130.558 12.5234 132.091 13.3346 133.803C15.723 130.694 15.723 130.694 14.4612 127.088C14.3711 126.728 14.2809 126.367 14.1457 125.782Z" fill="black"/>
<path d="M210.357 63.3214C210.447 63.8172 210.177 64.7635 210.718 65.5296C211.844 67.1519 211.439 68.2335 209.681 69.0447C208.374 69.6305 207.563 70.8923 206.707 71.9738C206.482 72.2893 206.211 72.6949 205.761 72.5597C205.175 72.4245 205.22 71.8837 205.22 71.4331C205.22 69.7206 204.949 68.1434 203.462 66.9717C202.741 66.4309 203.282 65.8451 203.823 65.5747C205.715 64.6734 207.383 63.4566 208.555 61.6541C208.87 61.1583 209.456 60.888 209.952 61.1133C210.943 61.4738 210.357 62.33 210.357 63.3214ZM208.645 63.8622C207.879 64.8536 206.527 65.3043 205.806 66.2056C204.859 67.3322 206.482 68.2786 206.572 69.4953C208.96 68.2335 210.357 66.7464 208.645 63.8622Z" fill="black"/>
<path d="M35.777 14.1559C36.1826 14.201 36.5882 14.2911 36.5431 14.7868C36.5431 14.922 36.3629 15.1924 36.2277 15.1924C35.5066 15.1924 35.4616 14.6516 35.4165 14.1108C35.5517 14.1559 35.6418 14.1559 35.777 14.1559Z" fill="black"/>
<path d="M101.526 159.535C100.985 159.58 100.4 159.85 100.039 159.174C100.58 159.129 101.121 159.129 101.526 159.535Z" fill="black"/>
<path d="M34.7401 64.6738C35.0104 64.7189 35.3259 64.8541 35.1907 65.1695C35.0555 65.5751 34.6499 65.4399 34.3345 65.3949C34.4697 65.1245 34.6049 64.8992 34.7401 64.6738Z" fill="black"/>
<path d="M64.2128 58.1843C64.4832 58.2294 64.7536 58.3195 64.7085 58.635C64.6634 59.0856 64.2578 58.9955 63.9424 58.9955C64.5733 58.8603 64.3029 58.4998 64.2128 58.1843Z" fill="black"/>
<path d="M173.944 42.1412C173.629 42.5017 173.404 42.4566 173.178 42.051C173.449 42.051 173.719 42.0961 173.944 42.1412Z" fill="black"/>
<path d="M137.713 62.4204C134.378 61.7444 131.134 60.9783 127.754 60.9783C122.662 60.9783 117.75 61.7895 112.883 63.1414C105.898 65.0792 99.4984 68.6393 92.6035 70.8925C82.6893 74.1372 72.5047 76.12 62.3201 78.3282C55.4252 79.8153 48.4402 80.4913 41.365 79.4548C38.6161 79.0492 36.1375 77.9226 33.5688 76.9762C32.5774 76.6157 31.7212 75.6694 31.7663 74.5428C31.8564 73.1458 33.2083 73.1007 34.1998 72.8754C35.2813 72.65 36.4079 72.5599 37.5345 72.65C39.2019 72.7852 40.8693 72.7402 42.5818 72.6951C43.1225 72.6951 43.9337 72.5599 43.7985 71.7037C43.7084 70.9827 42.9874 71.1179 42.4916 71.0728C40.4637 70.9827 38.4809 71.253 36.453 70.8024C34.6955 70.3968 32.307 69.6758 32.5324 68.0985C32.7126 66.6114 35.3264 66.8818 36.9487 66.7466C39.4723 66.6114 41.8157 67.4226 44.2041 67.9183C44.7449 68.0084 45.4659 68.5041 45.7363 67.6479C46.0517 66.7466 45.1955 66.4762 44.6097 66.2959C42.6719 65.7101 40.7341 65.2595 38.7513 64.7637C37.2191 64.3582 35.8671 63.6822 34.7405 62.6006C34.1998 62.1049 33.659 61.429 33.9744 60.6629C34.2899 59.8066 35.1912 59.8968 35.8671 59.8968C38.571 60.032 41.0946 61.0684 43.7534 61.5642C44.0238 61.6092 44.2492 61.7895 44.5195 61.7895C45.1505 61.8345 46.0067 62.3753 46.3221 61.5191C46.6826 60.5727 45.6912 60.2573 45.0153 60.077C42.9874 59.4011 40.7792 59.2659 38.9315 58.0942C38.0302 57.5083 36.6332 56.9225 36.9036 55.886C37.174 54.7594 38.6161 55.3452 39.5174 55.4804C43.5732 56.0212 47.4487 57.4182 51.3694 58.5448C59.0303 60.7079 66.7364 61.6543 74.5326 59.1757C75.0733 58.9955 75.9296 59.0405 75.6592 58.0942C75.3888 57.1929 74.6678 57.4182 73.9918 57.5985C73.1356 57.8238 72.2343 57.8689 71.4682 58.1843C68.3587 59.4011 66.1956 58.0942 63.9875 55.9311C60.9681 53.0019 57.4981 50.4783 54.3436 47.6843C49.6118 43.4933 45.6011 38.5812 41.4552 33.8494C36.8586 28.5318 32.5774 22.8987 28.6568 16.9502C27.5753 15.2828 27.1697 13.2549 25.7727 11.7227C25.1418 11.0467 25.277 9.87507 26.0881 9.1991C26.8993 8.47807 27.5753 9.24416 28.2062 9.64974C31.4959 11.903 33.9744 15.0575 36.7234 17.8966C38.526 19.7893 40.3285 21.682 41.9058 23.755C42.3114 24.3408 42.9423 25.3322 43.8436 24.5661C44.7449 23.755 43.7084 23.2142 43.3028 22.5833C40.2384 17.5811 36.6783 12.8944 34.5603 7.35145C34.38 6.9008 34.2899 6.45016 34.1998 5.99951C34.1547 5.36861 33.8843 4.55745 34.5603 4.15186C35.2362 3.74628 36.0023 3.70122 36.8586 4.19693C40.1032 5.99951 42.4916 8.65832 44.2492 11.8579C46.1869 15.418 49.1612 18.212 51.3694 21.5468C51.6398 21.9524 52.0904 22.3129 52.541 21.9524C53.0368 21.5468 52.8114 21.0511 52.541 20.5103C51.4595 18.4824 49.8822 16.815 48.3951 15.1026C45.2856 11.6326 44.2492 7.21626 42.6268 3.02525C42.1762 1.8085 42.9423 1.53812 43.8436 1.71838C45.3758 2.03383 46.6376 2.89006 47.8543 3.92654C51.5947 7.12613 53.9831 11.3171 56.9123 15.1476C61.2836 20.9159 65.5647 26.7743 70.4768 32.0919C74.127 36.0576 78.4983 39.2121 83.3652 41.6005C89.7193 44.71 96.1636 47.7293 103.509 47.7744C107.385 47.8195 111.26 47.4589 115.136 47.1435C122.391 46.5576 127.709 49.8924 132.125 55.2551C133.477 56.9225 134.964 58.4547 136.406 60.077C136.947 60.753 137.623 61.2938 137.713 62.4204ZM55.0196 66.4762C54.569 66.4311 54.1183 66.341 53.6677 66.341C53.1719 66.341 52.4509 66.1607 52.4059 66.9268C52.3157 67.6929 53.0368 67.6479 53.5325 67.8281C53.8029 67.9183 54.0732 67.8732 54.3436 67.9633C54.9295 68.1887 55.6505 68.3238 55.966 67.6929C56.3265 66.9719 55.4702 66.7466 55.0647 66.3861C55.2449 65.7552 56.6419 66.1157 56.2814 65.1693C55.966 64.3131 54.9745 64.4032 54.1634 64.4032C53.6677 64.4032 52.9466 64.223 52.9016 64.9891C52.8114 65.7101 53.3522 65.8002 53.9831 65.8002C54.2986 65.8904 54.8393 65.8904 55.0196 66.4762ZM88.3674 47.9547C87.8717 48.5405 86.3395 47.6843 86.8803 49.2165C87.1957 50.0727 93.3245 51.4246 94.0455 50.8839C94.1357 50.7937 94.3159 50.6585 94.2709 50.6135C93.7752 49.577 94.5413 49.7572 95.082 49.7572C95.5777 49.7122 96.0734 49.622 96.1185 49.0813C96.1185 48.5405 95.6679 48.3602 95.1722 48.225C92.9189 47.5941 90.7108 46.9182 88.4125 46.3323C87.7365 46.1521 86.7 45.3409 86.3395 46.3774C86.024 47.3688 87.2859 47.4139 87.9168 47.7293C88.052 47.7744 88.1421 47.8195 88.3674 47.9547ZM126.357 54.3989C126.357 53.8581 126.132 53.5877 125.771 53.4976C123.653 53.092 121.715 52.1907 119.913 51.0641C119.372 50.7036 118.786 50.974 118.786 51.6499C118.741 52.2808 118.516 52.8216 118.29 53.3624C118.11 53.8581 117.84 54.489 118.471 54.8045C119.101 55.1199 119.372 54.444 119.687 54.0384C119.958 53.7229 119.732 52.9568 120.498 53.1821C121.129 53.3624 121.31 53.813 121.129 54.444C121.039 54.8495 120.994 55.3002 121.445 55.5255C122.076 55.841 122.211 55.3002 122.391 54.8495C122.571 54.444 122.887 54.489 123.202 54.5341C123.833 54.6693 123.563 55.0749 123.563 55.4354C123.563 55.9311 123.473 56.7422 124.239 56.562C125.32 56.2916 125.185 54.6242 126.357 54.3989ZM64.5282 43.4933C64.4832 43.313 64.4832 43.1778 64.393 43.0426C62.5905 40.7443 60.7879 38.401 58.9853 36.1027C58.76 35.8323 58.3994 35.7421 58.1291 36.0125C57.8587 36.2829 57.8587 36.6434 58.0389 36.9589C59.4359 39.5726 61.6892 41.5104 63.4467 43.8538C63.6269 44.0791 64.0325 44.2143 64.348 43.9439C64.4381 43.8988 64.4832 43.6284 64.5282 43.4933ZM76.2 64.9891C73.8566 65.5749 71.5583 66.1607 69.215 66.7916C68.7643 66.9268 68.4038 67.3324 68.7192 67.8732C68.9446 68.3239 69.3501 68.3238 69.7557 68.1887C71.9188 67.4676 74.127 67.062 76.3802 66.5663C76.7858 66.4762 77.4167 66.3861 77.2815 65.7552C77.1914 65.2144 76.7858 65.0341 76.2 64.9891ZM74.8931 62.6006C72.9553 62.5556 71.1978 62.9612 69.4853 63.547C68.9446 63.7273 67.9531 63.8174 68.2686 64.7637C68.539 65.5298 69.26 65.0341 69.8459 64.8989C71.4682 64.5384 73.0454 64.0427 74.7579 64.0427C75.6141 64.0427 77.2815 64.5384 77.2815 63.3217C77.2815 61.9697 75.6141 63.0062 74.8931 62.6006ZM61.0583 27.3601C61.1484 27.3151 61.3286 27.2249 61.4638 27.0897C61.9145 26.594 60.9231 23.9352 59.9767 23.6648C59.0303 23.4395 57.9488 23.6648 56.9574 23.8451C56.687 23.8902 57.0024 24.4309 57.0926 24.7013C57.9488 26.7743 58.8501 27.3601 61.0583 27.3601ZM60.4724 43.6284C60.3823 43.4482 60.202 43.1327 60.0218 42.8624C58.6698 40.7894 57.2728 38.7615 55.9209 36.6885C55.6956 36.373 55.4252 36.1928 55.0647 36.373C54.569 36.5984 54.3887 37.1391 54.6591 37.5447C56.1462 39.7529 57.7235 41.9611 59.2557 44.1242C59.481 44.4396 59.8415 44.4847 60.157 44.3945C60.4273 44.3495 60.5175 44.0791 60.4724 43.6284ZM57.7235 44.5748C56.4166 42.5469 54.9295 40.2486 52.9016 38.401C52.6762 38.1756 52.2256 38.1756 52.0003 38.5361C51.82 38.8516 51.8651 39.1671 52.0904 39.4825C53.6226 41.4203 55.1548 43.3581 56.687 45.2958C56.9123 45.5662 57.1827 45.7915 57.5432 45.5662C57.7685 45.386 57.9488 45.1606 57.7235 44.5748ZM76.4253 67.4226C74.2622 68.0084 72.0991 68.5942 69.8909 69.2251C69.5755 69.3153 69.3051 69.6307 69.3952 69.9912C69.4853 70.4419 69.936 70.6672 70.3416 70.532C72.5497 69.9462 74.7128 69.3153 76.8759 68.6844C77.2815 68.5492 77.597 68.2788 77.4618 67.8281C77.3266 67.3324 76.8759 67.4226 76.4253 67.4226ZM72.4145 74.0471C74.127 73.8217 75.7493 73.2359 77.1463 72.1543C77.5068 71.8839 78.0025 71.5685 77.642 71.0277C77.3266 70.5771 76.7407 70.5771 76.3802 70.8925C75.1184 72.0191 73.4961 72.2895 71.9639 72.6951C71.5132 72.8303 70.9725 73.0556 71.1978 73.6415C71.378 74.1822 71.8738 74.2273 72.4145 74.0471ZM91.8824 52.9568C92.5133 52.8216 93.5048 53.4976 93.5498 52.416C93.5949 51.5148 92.5584 51.7851 91.9275 51.6499C90.8009 51.4246 89.6743 51.1993 88.5927 50.8839C87.9618 50.7036 87.2859 50.0727 86.8803 51.019C86.5198 51.8753 87.5562 51.9203 88.0069 52.1006C89.2687 52.5062 90.5756 52.9568 91.8824 52.9568ZM106.078 60.6178C106.979 60.7981 108.061 60.3925 109.142 60.077C109.638 59.9418 110.404 59.9418 110.134 59.1757C109.953 58.5899 109.277 58.4998 108.782 58.7251C107.565 59.2208 106.348 59.356 105.041 59.356C104.546 59.356 103.825 59.2659 103.779 60.032C103.734 60.8882 104.501 60.5727 104.996 60.6178C105.267 60.6629 105.537 60.6178 106.078 60.6178ZM108.962 61.3388C108.151 61.5642 107.249 61.8345 106.393 62.1049C105.943 62.2401 105.402 62.3303 105.627 62.9612C105.852 63.5019 106.348 63.5019 106.844 63.3667C107.7 63.1414 108.511 62.871 109.322 62.6908C109.818 62.5556 110.584 62.871 110.539 62.0599C110.449 61.2938 109.638 61.429 108.962 61.3388ZM106.078 50.2079C105.537 50.1628 104.951 49.9826 104.771 50.7036C104.636 51.4697 105.312 51.5598 105.807 51.5598C106.664 51.5598 107.43 52.1907 108.331 51.8302C108.692 51.695 109.187 51.695 109.187 51.1542C109.187 50.7036 108.872 50.4783 108.421 50.4783C107.655 50.4332 106.889 50.3431 106.078 50.2079ZM54.1634 71.929C54.8393 71.9741 55.6054 71.929 55.4252 71.253C55.0196 69.811 53.5775 70.6221 52.6312 70.2616C52.1805 70.0814 51.5046 70.2166 51.5947 70.8024C51.9101 72.3797 53.4874 71.3882 54.1634 71.929ZM106.934 54.444C107.43 54.1285 108.692 54.6693 108.646 53.4976C108.646 52.5512 107.565 53.092 106.979 52.9568C106.709 52.9118 106.438 52.9118 106.168 52.9118C105.447 52.9118 104.32 52.1457 104.275 53.4075C104.23 54.444 105.402 54.1736 106.168 54.2637C106.393 54.2637 106.574 54.3538 106.934 54.444ZM90.9811 63.9976C91.8374 63.6371 93.1893 64.0427 93.5048 62.9161C93.7301 62.15 92.6936 62.15 92.1979 62.3303C91.3417 62.6457 89.9897 62.1049 89.7644 63.4118C89.5841 64.0427 90.4854 63.9075 90.9811 63.9976ZM76.0648 43.2679C75.4789 43.2229 75.1184 43.5834 75.2536 43.989C75.6592 45.0254 76.2 46.0169 77.3716 46.4225C77.7322 46.5576 78.0927 46.1521 78.0025 45.8817C77.597 44.8001 76.921 43.8988 76.0648 43.2679ZM55.0647 25.3322C54.5239 25.3322 54.0732 25.6477 54.2535 26.0082C54.7492 26.9996 55.5604 27.8108 56.5969 28.2614C56.8672 28.3966 57.2728 27.991 57.1827 27.6305C56.9123 26.5039 56.011 25.873 55.0647 25.3322ZM72.1441 48.225C71.6484 48.0898 71.2429 48.3602 71.2879 48.6306C71.5132 49.6671 72.5047 49.9375 73.3158 50.298C73.6313 50.4332 74.0369 50.0276 73.9467 49.7122C73.6763 48.8109 72.8652 48.4954 72.1441 48.225ZM89.8095 68.9998C90.3503 68.5942 91.3417 68.8196 91.567 67.9183C91.7022 67.4676 91.3867 67.017 90.9361 67.1071C90.17 67.2423 89.2687 67.3775 89.0884 68.3689C89.0884 68.7745 89.4039 68.9548 89.8095 68.9998ZM73.406 46.0169C73.8566 46.6928 74.3523 47.4589 75.2987 47.6843C75.6592 47.7744 76.0197 47.3688 75.8845 47.0984C75.5691 46.2873 75.0733 45.5662 74.2171 45.2508C73.8115 45.0705 73.451 45.3409 73.406 46.0169ZM90.5756 66.341C91.0713 65.8904 92.1979 66.341 92.4232 65.3045C92.5584 64.7187 91.9726 64.5835 91.4769 64.6285C90.7558 64.7187 89.9447 64.8539 89.7193 65.665C89.5842 66.1607 90.0799 66.2959 90.5756 66.341Z" fill="white"/>
<path d="M83.5898 117.94C75.7936 119.472 68.3129 121.95 61.1927 125.465C57.948 127.043 54.478 128.169 51.5038 130.287C45.7806 134.253 40.9587 138.94 38.435 145.609C36.5874 150.431 37.5788 155.253 38.4801 160.075C38.8857 162.373 40.1926 164.221 41.184 166.159C40.7784 166.564 40.4629 166.429 40.1926 166.294C33.2526 162.148 28.4758 156.515 26.538 148.448C24.8255 141.418 25.6818 134.749 27.6195 127.899C29.5122 121.184 32.7569 115.506 37.8492 110.729C44.1582 104.781 51.9094 101.852 59.9759 99.4181C62.9502 98.5169 65.9695 97.8409 69.0339 97.7057C75.5683 97.4804 82.1026 97.5254 88.637 98.0662C94.6756 98.5619 100.534 100.319 106.618 100.5C117.749 100.815 128.474 99.0576 138.749 94.8215C143.21 92.9739 147.266 90.3151 151.142 87.431C158.442 81.9331 164.886 75.624 169.979 68.0532C171.781 65.3493 173.223 62.33 174.079 59.1755C174.801 56.6518 174.801 56.742 177.369 57.1476C179.803 57.5531 181.695 58.9051 183.543 60.3021C186.607 62.6454 187.464 65.8 186.788 69.6304C185.796 75.0382 183.183 79.6348 180.028 83.961C178.676 85.8537 177.504 87.9267 175.972 89.7293C172.232 94.1456 167.906 97.8859 163.309 101.401C155.513 107.304 146.59 110.594 137.352 113.253C129.691 115.461 121.669 114.785 113.783 115.056C109.502 115.236 105.176 115.326 100.895 115.416" fill="white"/>
<path d="M123.968 220.867C128.564 213.747 125.139 203.427 120.903 198.741C113.242 190.314 103.598 185.356 93.0984 181.932C83.049 178.687 73.0447 175.262 62.7249 172.874C57.0467 171.567 51.4587 169.944 45.9158 168.232C45.2849 168.052 44.654 167.916 44.1583 167.376C39.6067 161.923 38.4801 155.569 39.2913 148.674C39.4265 147.457 39.8771 147.142 40.9136 147.908C44.9694 150.792 49.4759 152.955 54.0725 154.667C60.742 157.191 67.7721 158.183 74.9374 158.453C83.9503 158.768 93.0083 158.858 101.796 161.247C109.186 163.275 116.667 165.168 123.247 169.313C131.133 174.226 137.442 180.625 141.948 188.826C145.013 194.46 145.914 200.498 144.337 206.537C143.03 211.539 142.399 216.812 140.011 221.498C139.74 222.039 139.515 222.58 139.245 223.121C139.109 223.121 138.929 223.121 138.794 223.121C138.749 220.462 139.109 217.803 138.388 215.189C137.622 212.35 136.721 212.035 134.513 213.927C131.448 216.586 127.978 218.749 124.553 220.912C124.418 220.912 124.193 220.867 123.968 220.867Z" fill="white"/>
<path d="M188.816 65.4397C186.788 59.7615 182.733 56.5619 176.919 55.3001C176.288 55.1649 175.567 55.0298 174.936 55.1649C169.934 56.2465 164.752 56.5169 160.02 58.9053C154.387 61.6993 148.619 64.4032 144.157 68.9096C139.2 73.9569 134.333 79.1844 131.72 85.9891C131.539 86.3947 131.269 86.8003 130.998 87.2509C129.286 82.6994 129.737 78.0578 130.052 73.4161C130.097 72.8303 130.593 72.0191 129.827 71.5685C128.926 71.0728 128.475 71.929 127.979 72.3796C124.284 75.8045 120.408 79.0492 117.344 83.0599C117.209 82.9247 117.119 82.7895 116.983 82.6544C118.876 75.9848 122.707 70.3517 126.537 64.6736C127.844 62.7809 129.376 62.3753 131.449 62.6457C134.153 62.9611 136.677 63.7723 139.2 64.6285C139.876 64.8538 140.597 65.6199 141.138 64.8088C141.634 64.0877 141.003 63.2766 140.507 62.6457C139.02 60.5727 137.488 58.5448 135.64 56.8323C134.423 55.7057 134.514 54.9847 135.911 53.9482C145.735 46.7379 156.595 42.8623 168.898 43.1778C172.548 43.2679 176.108 43.8537 179.443 45.2057C188.095 48.6306 190.213 54.9396 189.177 63.8624C189.132 64.268 189.087 64.6736 189.042 65.0341C188.861 65.2144 188.816 65.3045 188.816 65.4397Z" fill="white"/>
<path d="M108.105 45.7015C102.202 46.6027 96.704 45.5663 91.3864 43.4032C88.367 42.1414 85.3477 40.8795 82.4636 39.3023C79.9399 37.9053 77.9571 35.9675 76.47 33.489C73.4957 28.5769 70.2511 23.755 68.4935 18.2121C68.3583 17.7614 68.133 17.3558 68.0429 16.9052C67.8626 16.0039 67.1416 14.7871 67.9528 14.2914C68.9442 13.7056 69.9807 14.6519 70.7468 15.373C72.4142 16.9502 73.721 18.7979 74.6223 20.9159C74.8927 21.5018 75.0279 22.6284 76.0193 22.2228C77.191 21.7271 76.3798 20.7357 76.0644 20.1498C74.3519 17.0854 73.4056 13.7056 72.4142 10.4159C72.2339 9.83004 71.8734 9.06394 72.3691 8.70342C73.0451 8.25278 73.6309 8.97381 74.0815 9.37939C75.9292 11.0918 77.1459 13.2099 77.912 15.6434C78.4077 17.2206 78.9936 18.7979 79.5794 20.3752C79.7597 20.9159 79.985 21.637 80.7962 21.2764C81.5172 20.961 81.4271 20.3301 81.1116 19.7442C79.4893 16.4545 78.7683 12.8944 78.5429 9.2442C78.4979 8.52316 78.0923 7.35148 78.9035 7.0811C79.6245 6.85577 80.0751 7.98239 80.5258 8.61329C82.6889 11.6777 84.7168 14.7421 84.7619 18.7078C84.7619 18.888 84.8971 19.0683 84.9421 19.2936C85.0322 19.9696 85.4378 20.5103 86.1138 20.4202C86.97 20.285 86.7447 19.5189 86.6095 18.9331C86.1589 16.6799 85.8885 14.4266 85.8434 12.1283C85.8434 11.8579 85.7533 11.5876 85.7983 11.3172C85.9335 10.5511 85.7983 9.42446 86.6996 9.33433C87.5559 9.19913 87.646 10.2807 87.8713 10.9567C89.1331 14.7871 89.719 18.7528 91.2061 22.5383C94.8563 31.7314 99.2276 40.3388 108.105 45.7015ZM87.0151 27.5404C86.1138 27.8559 86.3391 28.4417 86.6996 29.2078C88.0966 32.0919 90.1245 34.6606 91.3864 37.6349C91.6117 38.2207 91.7919 39.2122 92.6031 38.8967C93.5945 38.5362 93.2791 37.5448 92.8735 36.8237C91.2962 33.9396 89.6739 31.1005 88.0966 28.2615C87.8713 27.9009 87.646 27.5855 87.0151 27.5404ZM96.7941 37.2744C96.749 37.2293 96.6589 37.004 96.5237 36.7336C94.9014 33.534 92.4679 30.7851 91.5666 27.225C91.4314 26.6391 90.9357 26.549 90.44 26.5941C89.6288 26.7293 89.8091 27.3602 89.9443 27.8559C91.0258 31.5962 93.5044 34.5254 95.307 37.8602C95.4872 38.1757 95.8478 38.4911 96.3435 38.2207C96.6589 38.1306 96.9293 37.9053 96.7941 37.2744ZM89.8992 37.8152C88.7726 34.8409 86.8799 32.0018 84.7168 29.343C84.5365 29.1177 84.131 29.0726 83.8155 29.343C83.3198 29.7035 83.3649 30.1992 83.6352 30.6048C85.4378 33.1284 87.0151 35.7422 88.4121 38.4911C88.5924 38.8516 88.9979 39.122 89.4035 39.0319C89.8091 38.9418 89.9894 38.5362 89.8992 37.8152ZM80.9314 32.0919C80.3455 32.3623 80.0301 32.7679 80.5258 33.534C81.5623 35.0662 82.5086 36.6885 83.5902 38.2207C84.0408 38.8516 84.6717 39.122 85.1224 38.1757C85.4378 37.3645 81.9679 32.0919 80.9314 32.0919Z" fill="white"/>
<path d="M138.885 223.887C138.794 224.383 138.749 224.879 138.164 225.149C137.938 224.473 138.028 223.977 138.794 223.842L138.885 223.887Z" fill="black"/>
<path d="M116.623 83.8711C115.947 83.8711 116.263 83.5106 116.398 83.2402C116.488 83.4656 116.533 83.6909 116.623 83.8711Z" fill="black"/>
<path d="M116.623 83.8711C116.533 83.6458 116.488 83.4656 116.397 83.2402C116.578 83.06 116.713 82.8797 116.893 82.6995C117.028 82.8347 117.119 82.9698 117.254 83.105C117.028 83.3754 116.848 83.6458 116.623 83.8711Z" fill="white"/>
<path d="M41.7706 166.88C41.7706 166.925 41.7255 166.97 41.7255 167.015C41.6805 166.97 41.6354 166.88 41.5903 166.835C41.6354 166.79 41.6805 166.745 41.7255 166.79C41.7255 166.79 41.7255 166.835 41.7706 166.88Z" fill="black"/>
<path d="M123.968 220.867C124.194 220.912 124.419 220.912 124.644 220.958C124.374 221.048 124.149 221.093 123.968 220.867Z" fill="black"/>
<path d="M138.839 223.166C138.975 223.166 139.155 223.166 139.29 223.166C139.155 223.391 139.02 223.661 138.884 223.887L138.839 223.842C138.794 223.616 138.839 223.391 138.839 223.166Z" fill="black"/>
<path d="M188.816 65.44C188.816 65.3048 188.861 65.2146 188.952 65.1245C188.952 65.2597 188.907 65.3498 188.816 65.44Z" fill="black"/>
<path d="M172.188 57.5534C172.728 57.283 172.863 57.4182 172.683 57.959C172.503 57.8689 172.323 57.6886 172.188 57.5534Z" fill="white"/>
<path d="M74.0368 32.7227C74.172 33.0381 74.0819 33.0832 73.8115 32.948C73.8566 32.9029 73.9467 32.8128 74.0368 32.7227Z" fill="black"/>
<path d="M73.7659 32.9932C73.5857 32.8129 73.09 32.6777 73.5406 32.3172C73.7659 32.182 73.9011 32.4975 73.9912 32.7228C73.9462 32.8129 73.856 32.9031 73.7659 32.9932Z" fill="white"/>
<path d="M6.3495 118.346C6.03405 114.605 5.13276 111.451 2.69927 108.927C2.29369 108.522 2.15849 108.161 2.7894 107.846C6.30444 105.908 8.82806 102.888 11.4869 99.4185C11.7573 103.294 12.4332 106.719 14.5062 109.693C14.8667 110.189 14.4611 110.459 14.1457 110.64C11.1264 112.622 8.78299 115.236 6.3495 118.346Z" fill="white"/>
<path d="M138.614 154.578C137.758 151.288 136.541 148.584 134.559 146.241C134.153 145.79 133.612 145.249 134.559 144.844C137.668 143.537 139.561 141.013 141.453 137.949C142.31 141.374 143.121 144.393 145.644 146.556C146.32 147.142 145.915 147.367 145.419 147.773C142.941 149.666 140.597 151.784 138.614 154.578Z" fill="white"/>
<path d="M204.724 47.0081C204.453 49.7119 205.039 52.1004 205.94 54.4888C206.166 55.0296 206.031 55.3901 205.58 55.6605C204.048 56.4716 202.786 57.6884 201.344 58.9952C200.488 56.8321 199.451 54.9394 198.009 53.3171C197.603 52.8665 197.558 52.4609 198.144 52.1905C200.758 51.0639 202.741 49.1261 204.724 47.0081Z" fill="white"/>
<path d="M152.809 165.393C152.224 163.455 151.728 161.788 151.187 160.211C151.007 159.715 151.097 159.444 151.503 159.219C153.35 158.318 154.657 156.786 156.099 155.028C156.505 157.191 156.595 159.219 157.316 161.067C157.496 161.562 157.316 161.833 156.91 162.013C155.243 162.644 153.981 163.861 152.809 165.393Z" fill="white"/>
<path d="M14.1461 125.781C14.2813 126.367 14.3714 126.728 14.4615 127.088C15.7233 130.693 15.7233 130.693 13.3349 133.803C12.5238 132.09 11.4873 130.603 9.95508 129.431C11.3521 128.215 12.704 127.043 14.1461 125.781Z" fill="white"/>
<path d="M208.644 63.8623C210.357 66.7014 208.915 68.2336 206.571 69.4954C206.481 68.2786 204.859 67.3323 205.805 66.2057C206.526 65.3044 207.878 64.8988 208.644 63.8623Z" fill="white"/>
<path d="M88.3677 47.9548C88.1423 47.8196 88.0522 47.7746 87.9621 47.6844C87.2861 47.3239 86.0243 47.3239 86.3848 46.3325C86.7453 45.251 87.7818 46.1072 88.4578 46.2874C90.711 46.8282 92.9642 47.5492 95.2175 48.1802C95.7132 48.3153 96.1638 48.4956 96.1638 49.0364C96.1638 49.5772 95.6231 49.7123 95.1273 49.7123C94.5866 49.7574 93.8205 49.5772 94.3162 50.5686C94.3612 50.6136 94.181 50.7939 94.0909 50.839C93.3698 51.3797 87.241 50.0278 86.9256 49.1716C86.2947 47.6844 87.8719 48.5407 88.3677 47.9548ZM88.5479 48.2703C89.8548 48.9913 90.9363 49.3518 92.1531 49.1265C91.0715 48.9012 90.2153 47.8196 88.5479 48.2703Z" fill="black"/>
<path d="M126.356 54.3992C125.185 54.6245 125.32 56.2468 124.193 56.5623C123.427 56.7425 123.517 55.9314 123.517 55.4356C123.517 55.0751 123.788 54.6245 123.157 54.5344C122.841 54.4893 122.481 54.4442 122.346 54.8498C122.165 55.3004 122.075 55.8412 121.399 55.5258C120.949 55.3004 120.994 54.8498 121.084 54.4442C121.219 53.8133 121.039 53.3627 120.453 53.1824C119.687 52.9571 119.912 53.7232 119.642 54.0386C119.326 54.4442 119.056 55.1202 118.425 54.8047C117.794 54.4893 118.11 53.8584 118.245 53.3627C118.425 52.8219 118.695 52.2811 118.74 51.6502C118.785 50.9292 119.326 50.7039 119.867 51.0644C121.715 52.191 123.607 53.0923 125.725 53.4979C126.131 53.588 126.356 53.8584 126.356 54.3992Z" fill="black"/>
<path d="M64.5279 43.4931C64.4829 43.6283 64.4378 43.8987 64.3026 43.9889C63.9871 44.2142 63.5816 44.1241 63.4013 43.8987C61.6438 41.5554 59.3906 39.6176 57.9936 37.0038C57.8133 36.6884 57.8584 36.3279 58.0837 36.0575C58.3991 35.742 58.7597 35.8772 58.9399 36.1476C60.7425 38.4459 62.5451 40.7442 64.3477 43.0876C64.4829 43.1777 64.4829 43.3129 64.5279 43.4931Z" fill="black"/>
<path d="M76.1999 64.989C76.7407 65.0341 77.1913 65.2143 77.2815 65.7551C77.3716 66.4311 76.7857 66.4761 76.3802 66.5663C74.172 67.062 71.9188 67.4225 69.7557 68.1886C69.3501 68.3238 68.9445 68.3238 68.7192 67.8732C68.4488 67.3324 68.7642 66.8817 69.2149 66.7916C71.5583 66.1607 73.9016 65.5749 76.1999 64.989Z" fill="black"/>
<path d="M74.8923 62.6006C75.6134 63.0062 77.2808 61.9697 77.2808 63.3217C77.2808 64.5384 75.6134 63.9976 74.7571 64.0427C73.0447 64.0878 71.4674 64.5384 69.8451 64.8989C69.2593 65.0341 68.5833 65.4848 68.2678 64.7637C67.9073 63.8174 68.8988 63.7723 69.4846 63.547C71.197 62.9611 72.9546 62.5105 74.8923 62.6006Z" fill="black"/>
<path d="M61.0578 27.3601C58.8497 27.4051 57.9484 26.7742 57.0921 24.7463C56.9569 24.4309 56.6415 23.9352 56.9569 23.8901C57.9484 23.7098 59.0299 23.4395 59.9763 23.7098C60.9226 23.9352 61.914 26.594 61.4634 27.1348C61.3282 27.2249 61.148 27.27 61.0578 27.3601Z" fill="black"/>
<path d="M60.4716 43.6285C60.5167 44.0341 60.4716 44.3496 60.1562 44.3946C59.8407 44.4848 59.4802 44.4397 59.2549 44.1242C57.7227 41.9161 56.1454 39.753 54.6583 37.5448C54.3879 37.1392 54.5682 36.5984 55.0639 36.3731C55.4244 36.1929 55.6948 36.3731 55.9201 36.6886C57.2721 38.7615 58.6691 40.7895 60.021 42.8624C60.2013 43.1779 60.3364 43.4483 60.4716 43.6285Z" fill="black"/>
<path d="M57.7231 44.5747C57.9034 45.2056 57.7682 45.4309 57.5428 45.5661C57.1823 45.7914 56.9119 45.5661 56.6866 45.2957C55.1544 43.358 53.6222 41.4202 52.09 39.4824C51.8647 39.212 51.8196 38.8515 51.9999 38.536C52.2252 38.2206 52.6759 38.2206 52.9012 38.4008C54.9742 40.2034 56.4162 42.5017 57.7231 44.5747Z" fill="black"/>
<path d="M76.4251 67.4226C76.8757 67.4226 77.3264 67.3325 77.4616 67.8733C77.5968 68.369 77.2813 68.6394 76.8757 68.7295C74.7126 69.3604 72.5045 69.9913 70.3414 70.5771C69.9358 70.6673 69.5302 70.487 69.395 70.0364C69.3049 69.6758 69.5753 69.3604 69.8907 69.2703C72.0989 68.6394 74.3071 68.0085 76.4251 67.4226Z" fill="black"/>
<path d="M72.4145 74.0469C71.8738 74.2271 71.3781 74.1821 71.1978 73.6413C71.0175 73.0554 71.5583 72.8301 71.9639 72.6949C73.4961 72.2894 75.1184 72.019 76.3802 70.8923C76.7407 70.5769 77.3266 70.5769 77.642 71.0275C78.0026 71.5683 77.5068 71.8838 77.1463 72.1542C75.7493 73.2357 74.127 73.8215 72.4145 74.0469Z" fill="black"/>
<path d="M91.8822 52.9569C90.5754 52.9569 89.3135 52.5513 88.0517 52.1007C87.6011 51.9655 86.6097 51.8753 86.9251 51.0191C87.2856 50.1178 88.0067 50.7037 88.6376 50.8839C89.7191 51.1994 90.8457 51.4247 91.9724 51.65C92.6033 51.7852 93.5947 51.5148 93.5947 52.4161C93.5046 53.4526 92.5131 52.8217 91.8822 52.9569Z" fill="black"/>
<path d="M106.078 60.6178C105.537 60.6178 105.267 60.6178 104.997 60.6178C104.501 60.5728 103.78 60.8882 103.78 60.032C103.825 59.311 104.501 59.356 105.042 59.356C106.303 59.356 107.565 59.2208 108.782 58.7251C109.323 58.4998 109.954 58.5899 110.134 59.1758C110.359 59.9419 109.593 59.9419 109.142 60.0771C108.016 60.3925 106.979 60.7981 106.078 60.6178Z" fill="black"/>
<path d="M108.962 61.3386C109.638 61.4288 110.449 61.2936 110.494 62.0597C110.584 62.8708 109.773 62.5554 109.277 62.6906C108.421 62.8708 107.61 63.1863 106.799 63.3665C106.348 63.5017 105.807 63.5017 105.582 62.9609C105.311 62.285 105.897 62.2399 106.348 62.1047C107.249 61.8343 108.15 61.5639 108.962 61.3386Z" fill="black"/>
<path d="M106.077 50.2079C106.843 50.298 107.655 50.4332 108.421 50.4782C108.871 50.5233 109.232 50.7036 109.187 51.1542C109.187 51.695 108.691 51.6499 108.331 51.8302C107.429 52.1907 106.663 51.6049 105.807 51.5598C105.311 51.5598 104.635 51.4697 104.77 50.7036C104.951 49.9825 105.537 50.1628 106.077 50.2079Z" fill="black"/>
<path d="M54.1627 71.929C53.4868 71.3432 51.9095 72.3797 51.6391 70.8024C51.5039 70.2166 52.1799 70.0814 52.6756 70.2616C53.6219 70.6221 55.064 69.811 55.4696 71.253C55.6048 71.929 54.8387 71.9741 54.1627 71.929Z" fill="black"/>
<path d="M106.934 54.444C106.619 54.3539 106.394 54.3088 106.213 54.2637C105.447 54.2187 104.276 54.489 104.321 53.4075C104.366 52.1457 105.537 52.9118 106.213 52.9118C106.484 52.9118 106.754 52.8667 107.024 52.9568C107.61 53.092 108.647 52.5513 108.692 53.4976C108.647 54.6693 107.43 54.1285 106.934 54.444Z" fill="black"/>
<path d="M90.9808 63.9976C90.4851 63.9526 89.6289 64.0878 89.719 63.4118C89.9443 62.1049 91.2962 62.6006 92.1525 62.3302C92.6932 62.15 93.6847 62.195 93.4593 62.9161C93.189 63.9976 91.837 63.592 90.9808 63.9976Z" fill="black"/>
<path d="M54.9744 66.4314C55.38 66.837 56.2362 67.0173 55.8757 67.7383C55.5603 68.3692 54.8392 68.234 54.2534 68.0087C54.0281 67.9186 53.7126 67.9186 53.4422 67.8735C52.9465 67.6933 52.2706 67.7383 52.3156 66.9722C52.4057 66.2061 53.0817 66.3864 53.5774 66.3864C54.0731 66.3413 54.5688 66.4314 54.9744 66.4314Z" fill="black"/>
<path d="M55.0191 66.4762C54.8389 65.8903 54.2981 65.8903 53.8925 65.8903C53.2616 65.8903 52.7659 65.7551 52.811 65.0791C52.9011 64.313 53.6221 64.4933 54.0728 64.4933C54.8389 64.4933 55.8303 64.4032 56.1908 65.2594C56.5513 66.1607 55.1543 65.7551 55.0191 66.4762Z" fill="black"/>
<path d="M76.0642 43.2682C76.9204 43.8991 77.5964 44.8004 78.0019 45.882C78.0921 46.1524 77.7315 46.5579 77.371 46.4227C76.1993 46.0172 75.6586 45.0257 75.253 43.9893C75.1178 43.5837 75.4783 43.2232 76.0642 43.2682Z" fill="black"/>
<path d="M55.0641 25.3323C56.0105 25.828 56.9118 26.504 57.1822 27.6756C57.2723 28.0362 56.8667 28.4417 56.5963 28.3065C55.5599 27.8559 54.7938 27.0447 54.253 26.0533C54.0277 25.6477 54.5234 25.3773 55.0641 25.3323Z" fill="black"/>
<path d="M72.1438 48.2251C72.8649 48.4955 73.676 48.8109 73.9464 49.7573C74.0366 50.0728 73.631 50.4783 73.3155 50.3431C72.5044 49.9826 71.5129 49.7122 71.2876 48.6758C71.2425 48.3603 71.6481 48.135 72.1438 48.2251Z" fill="black"/>
<path d="M89.8091 68.9998C89.4035 68.9547 89.043 68.7745 89.1331 68.3689C89.3134 67.3774 90.1696 67.2423 90.9807 67.1071C91.4314 67.0169 91.7018 67.4676 91.6116 67.9182C91.3413 68.8195 90.3498 68.5942 89.8091 68.9998Z" fill="black"/>
<path d="M73.4058 46.0169C73.4508 45.386 73.8113 45.1156 74.2169 45.2508C75.0732 45.5663 75.5689 46.2873 75.8843 47.0985C75.9744 47.4139 75.659 47.7744 75.2985 47.6843C74.3521 47.459 73.8564 46.6478 73.4058 46.0169Z" fill="black"/>
<path d="M90.5752 66.3408C90.0344 66.2958 89.5387 66.1606 89.6739 65.7099C89.8992 64.8988 90.7104 64.7636 91.4314 64.6734C91.9271 64.6284 92.5129 64.7185 92.3778 65.3494C92.1975 66.2958 91.0709 65.8451 90.5752 66.3408Z" fill="black"/>
<path d="M42.1759 128.711C42.0858 126.547 42.1309 124.339 41.9506 122.131C41.8154 120.374 42.5364 120.374 43.8433 120.869C44.7446 121.23 45.691 121.455 46.7274 121.771C45.8712 119.788 44.7446 117.85 42.8068 116.588C41.4549 115.687 41.0944 114.966 42.7167 114.019C43.6631 113.479 44.6094 112.262 45.3755 112.397C46.5472 112.622 45.7811 114.29 46.3219 115.191C48.0794 117.985 49.7468 120.779 52 123.213C52.5408 123.798 53.5773 124.384 52.6309 125.286C51.8197 126.007 51.324 127.584 49.5215 126.457C47.8541 125.421 46.3219 124.114 44.5643 122.852C43.9785 124.97 44.3841 126.908 44.294 128.801C44.2489 129.432 44.3841 130.108 44.294 130.738C44.2038 131.955 43.3025 132.676 42.3111 133.037C41.2296 133.442 40.869 132.361 40.3733 131.685C38.9313 129.657 37.4892 127.584 36.0471 125.556C35.4613 124.745 34.7853 124.024 33.884 123.528C33.2982 123.213 32.1716 123.483 32.2166 122.537C32.2166 121.771 33.2982 121.771 33.839 121.275C34.5149 120.644 35.281 120.103 36.0021 119.517C36.3175 119.247 36.633 118.841 37.1287 119.022C37.6244 119.202 37.5343 119.743 37.5793 120.148C37.8948 123.032 39.7875 126.547 42.1759 128.711Z" fill="black"/>
<path d="M55.3797 114.515C54.163 115.011 53.6222 115.732 54.5235 116.949C54.7939 117.309 55.0192 117.67 55.2445 118.03C56.1458 119.562 57.0471 119.968 58.2188 118.21C58.5342 117.715 58.8497 116.588 59.751 117.264C60.472 117.805 59.8411 118.616 59.4806 119.202C58.6244 120.644 57.0922 121.41 55.9656 122.582C55.3347 123.213 54.7038 122.852 54.2531 122.086C52.3604 118.931 50.017 116.182 47.6286 113.388C46.502 112.082 46.2316 111.045 47.9891 109.964C49.0256 109.333 49.7917 108.296 50.693 107.53C51.2788 107.034 51.9999 106.854 52.5857 107.62C53.2166 108.476 52.3604 108.702 51.9097 109.062C51.2338 109.558 50.1973 110.099 50.6029 111.045C51.0986 112.127 51.9548 113.118 52.8561 113.839C53.3969 114.29 53.6222 113.208 54.0278 112.893C54.4784 112.487 55.0192 112.172 55.56 112.622C56.0106 112.983 56.5063 113.343 56.5514 113.974C56.5063 114.83 55.7853 114.38 55.3797 114.515Z" fill="black"/>
<path d="M87.0154 27.5403C87.6463 27.5853 87.8716 27.9008 88.0519 28.2613C89.6742 31.1004 91.2515 33.9845 92.8287 36.8236C93.2343 37.5446 93.5498 38.536 92.5584 38.8966C91.7472 39.212 91.5669 38.1755 91.3416 37.6348C90.0798 34.6605 88.0519 32.0918 86.6549 29.2077C86.3394 28.4416 86.1141 27.8557 87.0154 27.5403Z" fill="black"/>
<path d="M96.7941 37.2745C96.9293 37.9054 96.6589 38.0856 96.3434 38.2659C95.8928 38.5363 95.4872 38.2208 95.3069 37.9054C93.5044 34.5706 91.0258 31.5963 89.9443 27.901C89.8091 27.4053 89.5837 26.7744 90.44 26.6392C90.8906 26.5491 91.3863 26.6843 91.5666 27.2701C92.4679 30.8302 94.9014 33.6242 96.5237 36.7788C96.6589 37.0041 96.749 37.2294 96.7941 37.2745Z" fill="black"/>
<path d="M89.8988 37.8152C89.989 38.5362 89.8087 38.9418 89.3581 39.0319C88.9525 39.122 88.5469 38.8967 88.3667 38.4911C86.9697 35.7422 85.3924 33.0834 83.5898 30.6048C83.3194 30.2443 83.3194 29.7035 83.7701 29.343C84.0855 29.0726 84.4911 29.1177 84.6714 29.343C86.8795 32.0018 88.7722 34.8409 89.8988 37.8152Z" fill="black"/>
<path d="M80.9313 32.0918C81.9677 32.0918 85.4828 37.3644 85.0772 38.1755C84.6716 39.1219 83.9956 38.8515 83.545 38.2206C82.5085 36.6884 81.5171 35.1111 80.4806 33.5339C79.9849 32.7678 80.3004 32.3171 80.9313 32.0918Z" fill="black"/>
<path d="M88.5479 48.2702C90.2152 47.8196 91.0715 48.8561 92.153 49.1265C90.9363 49.3518 89.8547 48.9913 88.5479 48.2702Z" fill="white"/>
<path d="M58.3543 168.142C57.8586 167.827 56.5967 168.638 56.8671 167.376C57.0925 166.204 56.8221 164.266 58.2191 164.041C59.5259 163.771 60.3822 165.258 60.4723 166.61C60.5174 167.962 59.4358 168.142 58.3543 168.142Z" fill="white"/>
<path d="M59.4354 162.509C59.0298 162.284 57.9482 162.734 58.2186 161.788C58.489 160.751 58.3088 159.174 59.7959 159.039C60.6972 158.949 62.0041 159.309 62.0041 160.571C62.0041 162.103 60.7423 162.419 59.4354 162.509Z" fill="white"/>
<path d="M131.179 107.485C131.089 107.485 130.954 107.53 130.864 107.53C130.097 107.259 129.151 107.44 128.881 107.98C128.565 108.747 128.746 109.738 128.791 110.594C128.836 111.27 129.376 111.496 130.052 111.496C130.503 111.45 131.044 111.586 130.999 110.82C130.999 110.414 130.999 109.918 131.675 110.053C132.441 110.189 132.891 110.594 132.846 111.45C132.801 111.991 132.892 112.577 132.125 112.622C130.728 112.712 129.286 112.847 127.889 112.802C127.078 112.757 126.402 112.622 126.898 111.315C127.394 110.008 126.718 108.566 126.537 107.214C126.357 105.592 125.861 104.06 125.546 102.483C125.411 101.807 125.321 101.176 126.402 101.086C127.529 100.95 128.61 100.5 129.782 100.319C130.909 100.139 131.765 101.041 131.449 102.077C131.359 102.438 131.224 102.798 130.728 102.798C130.368 102.798 130.188 102.708 130.098 102.302C129.827 101.266 129.106 101.897 128.565 101.942C127.754 101.987 127.934 102.573 128.025 103.114C128.16 103.835 128.205 104.556 128.34 105.277C128.565 106.854 128.836 107.034 130.323 106.313C130.638 106.178 130.909 105.727 131.224 106.223C131.54 106.583 131.359 107.034 131.179 107.485Z" fill="black"/>
<path d="M121.445 109.873C121.85 107.395 122.301 104.916 122.661 102.438C122.752 101.672 122.977 101.311 123.788 101.266C124.644 101.221 124.915 101.581 124.599 102.302C123.292 105.502 122.571 108.927 121.625 112.262C121.49 112.803 121.355 113.343 120.724 113.433C120.003 113.524 119.958 112.803 119.777 112.352C118.561 109.333 118.155 106.043 116.442 103.204C116.397 103.114 116.397 102.843 116.442 102.798C117.164 102.302 118.065 102.167 118.831 102.167C119.507 102.167 119.507 102.978 119.552 103.564C119.777 105.772 120.273 107.89 121.445 109.873Z" fill="black"/>
<path d="M78.3181 107.35C80.3911 108.161 82.6894 108.972 82.464 111.541C82.2387 114.38 79.8953 115.506 77.4619 116.363C76.6056 116.678 75.6593 117.129 74.803 117.084C73.6764 116.994 72.0992 117.715 72.8202 114.876C73.5412 112.127 72.6399 108.837 71.6485 105.953C70.2515 102.077 70.1614 102.077 74.1721 101.221C74.6679 101.131 75.1636 101.041 75.6593 100.906C77.1915 100.455 78.9039 100.185 79.7151 101.852C80.5262 103.519 80.4812 105.322 78.8589 106.719C78.6786 106.854 78.5885 107.079 78.3181 107.35ZM78.6786 113.749C79.9404 113.118 81.067 112.352 80.2108 110.82C79.3546 109.333 77.552 108.116 76.2001 109.152C74.758 110.234 76.155 112.217 76.5155 113.704C76.9211 115.326 77.9576 113.659 78.6786 113.749ZM76.7859 106.764C78.228 105.953 79.4898 104.871 78.6335 103.159C77.9125 101.717 76.2 102.032 75.2537 102.618C73.6314 103.609 74.7129 105.322 74.9833 106.629C75.2537 107.891 76.2 106.764 76.7859 106.764Z" fill="black"/>
<path d="M112.927 112.893C113.198 112.757 113.423 112.667 113.558 112.532C113.874 112.262 114.234 111.721 114.595 112.397C114.91 112.938 114.595 113.614 113.964 113.659C112.477 113.749 111.035 113.749 109.548 113.704C108.917 113.704 108.827 113.118 108.872 112.577C109.142 109.513 109.007 106.448 109.007 103.339C109.007 102.618 109.232 102.212 110.043 102.212C111.305 102.212 112.567 102.167 113.829 102.167C114.37 102.167 114.955 102.212 115.181 102.843C115.316 103.249 115.361 103.609 115 103.88C114.685 104.15 114.37 104.015 114.144 103.744C113.468 102.888 112.477 102.978 111.756 103.249C110.9 103.609 111.305 104.601 111.395 105.322C111.395 105.412 111.395 105.547 111.395 105.637C111.395 107.755 111.711 108.071 113.784 107.62C114.054 107.575 114.415 107.169 114.55 107.665C114.64 107.981 114.55 108.431 114.37 108.792C114.189 109.197 113.964 108.792 113.739 108.702C112.927 108.476 111.666 108.431 111.485 108.927C111.125 110.008 111.215 111.315 111.26 112.487C111.35 112.757 112.387 112.802 112.927 112.893Z" fill="black"/>
<path d="M92.2876 111.18C93.0987 112.983 92.5579 113.749 90.7554 113.794C88.9978 113.839 87.2854 114.064 85.5279 114.2C84.1759 114.29 83.5 114.38 84.221 112.442C84.8519 110.685 84.4463 108.521 84.2661 106.584C84.0858 104.961 84.3562 103.249 83.4549 101.717C82.9141 100.815 83.9506 100.725 84.4463 100.68C86.2489 100.545 88.0965 100.545 89.8991 100.455C91.4313 100.41 91.0257 101.536 91.1159 102.483C89.6738 101.131 87.8712 101.401 86.7446 102.122C85.5279 102.888 86.3841 104.691 86.6545 105.953C86.8347 106.899 87.9614 106.358 88.6373 106.358C89.3584 106.358 90.2597 105.908 90.6202 106.899C90.7554 107.26 90.6652 107.891 90.3948 108.161C89.809 108.882 89.3133 108.567 88.5472 108.071C87.6459 107.53 86.6545 107.665 86.9249 109.333C87.4656 112.667 88.6373 113.118 92.2876 111.18Z" fill="black"/>
<path d="M99.0927 111.496C99.4081 111.496 100.084 110.865 100.309 111.541C100.535 112.262 100.354 113.298 99.5884 113.659C98.1914 114.29 96.7043 114.109 95.2171 113.884C94.5412 113.749 94.7214 113.073 94.6764 112.532C94.4961 109.062 94.9918 105.547 94.406 102.077C94.3158 101.446 94.6313 100.86 95.127 100.815C95.9832 100.725 96.9296 100.455 97.6506 100.996C98.1463 101.356 97.7858 101.942 97.6957 102.438C97.1549 105.367 97.7408 108.296 97.6957 111.225C97.7858 112.262 98.5068 111.631 99.0927 111.496Z" fill="black"/>
<path d="M105.536 102.798C105.446 105.728 105.356 108.341 105.311 110.955C105.311 111.721 104.996 112.577 105.807 113.208C106.212 113.569 105.942 113.974 105.581 114.065C104.41 114.38 103.238 114.155 102.066 113.794C101.841 113.749 101.751 113.434 101.841 113.163C103.238 110.099 102.111 106.899 102.427 103.79C102.427 103.61 102.382 103.429 102.382 103.249C102.292 102.798 101.255 102.618 101.886 102.077C102.652 101.446 103.644 101.717 104.545 101.942C105.221 102.077 105.581 102.393 105.536 102.798Z" fill="black"/>
<path d="M157.09 96.399C157.946 96.8497 157.766 97.6608 157.631 98.3368C157.495 99.1029 156.819 99.4183 156.098 99.1029C155.377 98.7874 154.837 98.2467 155.107 97.3904C155.377 96.399 156.234 96.3539 157.09 96.399Z" fill="black"/>
<path d="M149.656 100.5C150.332 100.996 150.557 101.672 150.287 102.393C150.061 102.979 149.701 103.609 148.799 103.249C147.988 102.888 147.718 102.212 147.898 101.491C148.123 100.725 148.844 100.5 149.656 100.5Z" fill="black"/>
<path d="M142.174 104.241C143.076 104.601 143.121 105.322 142.986 106.088C142.85 106.809 142.265 106.989 141.634 106.764C140.777 106.494 140.147 105.863 140.462 104.962C140.687 104.331 141.453 104.15 142.174 104.241Z" fill="black"/>
</svg>
