<svg width="173" height="172" viewBox="0 0 173 172" fill="none" xmlns="http://www.w3.org/2000/svg">
<path d="M82.8211 0.113747C97.3661 -0.227749 111.854 0.284495 126.399 0.796738C134.955 1.13823 143.283 2.50422 151.097 6.48833C159.425 10.757 164.958 17.0747 167.467 26.1243C170.262 36.3692 171.973 46.7279 172.43 57.4281C172.886 68.4129 173.342 79.3977 172.715 90.3824C171.973 102.961 170.776 115.71 164.729 127.207C160.394 135.46 154.291 141.834 144.937 144.339C143.169 144.794 143.055 145.932 143.169 147.355C143.568 154.242 143.967 161.129 144.309 168.016C144.366 169.325 145.222 171.317 143.739 171.886C142.37 172.455 141.457 170.52 140.431 169.609C133.016 162.836 125.601 156.063 118.242 149.234C116.132 147.298 113.736 147.754 111.512 148.152C106.378 149.006 101.188 149.177 95.9972 149.746C83.9049 151.112 71.7555 151.51 59.6632 150.827C51.7347 150.372 43.7492 150.77 35.9349 148.949C24.9833 146.445 17.283 140.355 12.1495 130.281C6.0463 118.271 2.96618 105.579 1.31205 92.3745C-0.170974 80.4791 -0.113935 68.5836 0.342379 56.6882C0.741654 44.5651 2.85211 32.6128 9.46866 22.1971C17.1119 10.1879 28.4627 3.41487 42.4944 1.30898C55.8416 -0.739992 69.3599 0.398326 82.8211 0.113747Z" fill="black"/>
<path d="M34.0526 87.8211C35.7637 87.935 37.4749 87.935 39.1291 88.2195C40.555 88.4472 41.5247 89.3579 41.6958 90.8377C41.8669 92.4882 40.8402 93.2851 39.4143 93.5127C37.1327 93.8542 36.7334 95.1633 37.3038 97.1553C38.5587 101.595 39.6995 106.091 40.8973 110.588C41.1825 111.555 41.1825 112.978 42.3233 113.149C43.407 113.319 43.8063 111.953 44.4907 111.214C45.2323 110.36 45.8597 109.392 46.6582 108.595C49.0539 106.148 50.8221 106.376 52.5903 109.165C52.7044 109.335 52.7614 109.506 52.8755 109.62C53.9022 111.043 54.1874 113.718 56.1268 113.433C57.8379 113.149 57.4957 110.588 57.8379 108.994C58.8076 104.953 59.6062 100.855 60.3477 96.7569C60.5758 95.4479 61.0321 93.7973 58.9217 93.3989C57.0964 93.0005 56.8683 91.5776 57.0964 90.0978C57.3246 88.3334 58.3513 87.0812 60.2336 87.0243C63.1996 86.9674 66.1086 87.0812 69.0176 87.5935C70.1584 87.8211 71.014 88.2195 71.2992 89.4148C71.5274 90.61 71.8125 92.1467 70.5006 92.7728C67.8198 94.0819 67.7057 96.5293 67.2494 98.9767C65.5382 108.652 64.5686 118.499 62.1159 128.004C61.6025 129.996 61.3744 132.842 59.1498 132.955C56.9823 133.069 56.2979 130.337 55.5564 128.402C54.5297 125.67 53.503 122.938 52.3622 120.206C51.9059 119.125 51.1643 118.157 49.9095 118.043C48.5976 117.93 47.9131 118.897 47.3427 119.922C45.4034 123.507 44.4337 127.492 42.8936 131.248C42.3803 132.5 42.0951 133.866 40.3839 133.866C38.4446 133.866 38.2735 132.272 37.9312 130.907C34.8511 119.523 32.2844 107.969 28.7479 96.7C28.2346 95.0495 27.5501 93.7404 25.6678 93.4558C24.1848 93.2281 23.1581 92.5452 23.3862 90.8377C23.6144 89.1871 24.6981 88.3334 26.2952 88.2195C28.9761 88.1626 31.4858 87.5366 34.0526 87.8211Z" fill="#FEFEFE"/>
<path d="M137.693 43.5976C135.525 44.679 135.012 46.6141 133.928 48.094C132.103 50.6552 130.221 50.7121 128.167 48.2647C127.54 47.5248 127.083 46.728 126.513 45.9881C125.943 45.2482 125.315 44.5652 124.688 43.8253C123.433 44.4513 123.775 45.5327 123.775 46.3865C123.889 52.7041 124.174 59.0787 124.288 65.3964C124.346 67.047 125.087 67.7869 126.627 68.0145C129.194 68.4129 129.023 70.2912 128.909 72.1694C128.795 74.1615 127.54 74.6737 125.829 74.7306C122.805 74.7875 119.725 74.7875 116.702 74.9014C115.162 74.9583 114.193 74.2753 113.85 72.7386C113.508 71.1449 114.193 70.1204 115.619 69.6651C117.672 69.039 118.128 67.6161 118.014 65.7379C117.615 56.7452 117.273 47.7525 116.93 38.7597C116.873 37.1092 116.303 36.1416 114.535 35.8001C113.337 35.5724 111.968 35.2879 111.854 33.6942C111.74 32.0437 112.824 31.133 114.193 30.45C117.672 28.7994 122.406 30.2223 124.745 33.6373C125.943 35.4586 127.083 37.2799 128.395 39.0443C129.821 40.9795 131.361 40.9225 132.787 39.0443C134.556 36.7108 136.153 34.2634 137.921 31.8729C139.518 29.6532 145.222 28.7994 147.446 30.3931C148.986 31.5314 148.188 32.8405 147.332 33.4666C145.507 34.8325 145.564 36.5969 145.564 38.5321C145.564 47.354 145.564 56.176 145.507 64.9411C145.507 66.3071 145.279 67.5592 147.218 68.2422C148.758 68.7544 148.245 70.6896 148.188 72.0556C148.188 73.1939 147.161 73.4785 146.135 73.5354C143.967 73.7061 141.8 73.9338 139.632 74.0476C136.324 74.1615 135.867 73.5354 136.951 70.4619C140.031 61.583 137.236 52.5903 137.693 43.5976Z" fill="#FEFEFE"/>
<path d="M25.4397 56.3467C32.5696 58.7372 36.3342 63.7458 38.5017 70.1773C38.901 71.3725 39.8136 71.9417 41.0114 72.1693C43.0649 72.5677 43.4641 74.1045 43.35 75.8119C43.236 77.7471 41.6389 77.8609 40.2129 77.9747C38.0454 78.0886 35.8209 78.0886 33.6534 78.1455C32.5696 78.1455 31.3718 78.2593 30.9725 77.0641C30.5162 75.8688 30.0029 74.3321 31.2007 73.3076C32.7408 71.9986 32.1704 70.8602 31.4288 69.6081C29.7177 66.4777 26.8657 64.8841 23.5574 64.0303C22.93 63.8596 22.0174 63.8027 21.6181 64.0872C19.5077 65.9655 20.9336 68.5267 20.5914 70.8033C20.4203 71.8847 20.5914 72.9092 22.0174 73.1369C22.873 73.2507 23.6715 73.5922 24.413 73.9337C25.3827 74.3321 25.896 75.1289 25.782 76.2103C25.7249 77.1779 25.0405 77.7471 24.1849 78.0317C20.8766 78.9992 17.4542 79.2269 14.0319 78.7716C12.0925 78.5439 11.294 76.438 12.6059 74.8444C14.146 73.0231 14.0889 71.0879 14.0319 68.982C13.7467 60.16 13.5185 51.3381 13.2904 42.573C13.2333 40.581 13.2333 38.7027 12.0925 36.8814C10.8947 34.8894 11.6933 33.6941 14.0319 33.4096C16.0283 33.1819 18.0246 33.125 20.021 33.0111C20.9907 32.9542 21.9603 32.8973 22.3026 34.1495C22.5878 35.1739 22.873 36.483 21.9033 37.0522C19.8499 38.3043 20.1351 40.1826 20.078 42.0608C20.021 44.7358 20.021 47.354 20.021 50.029C20.021 50.7689 19.7928 51.6796 20.7055 52.0211C21.447 52.3057 21.9033 51.6227 22.4167 51.2242C25.5538 48.3785 27.8924 44.9635 29.4325 41.0363C29.8318 39.898 29.8888 39.1012 28.9191 38.0197C26.3524 35.2878 27.2079 33.125 30.9725 32.5558C32.7408 32.2712 34.566 32.1005 36.3342 31.8159C37.8743 31.5882 38.958 31.9297 39.2432 33.6372C39.4714 35.2878 39.8136 36.9383 37.532 37.4506C36.2772 37.6783 35.6498 38.3043 35.3075 39.6703C33.7104 45.8172 30.9155 51.5088 25.4397 56.3467Z" fill="#FEFEFE"/>
<path d="M82.1367 86.683C83.8479 86.683 84.7035 86.7399 85.5591 86.683C86.814 86.5692 87.5555 87.1383 87.9547 88.2766C88.354 89.415 88.0118 90.3825 86.871 90.8948C85.9013 91.3501 85.445 92.0331 85.5021 93.1145C85.6732 95.9603 85.8443 98.8061 85.9013 101.652C85.9584 102.904 86.5288 103.132 87.6696 103.189C98.3359 103.758 99.3626 104.725 100.56 115.141C100.789 117.133 101.131 119.068 101.359 121.06C101.53 122.255 101.701 123.223 103.013 123.792C104.553 124.475 104.496 125.841 104.325 127.207C104.154 128.801 103.07 129.484 101.644 129.655C100.047 129.882 98.45 130.053 96.8529 130.167C95.7121 130.224 94.4572 130.394 93.9439 129.028C93.4876 127.776 92.9172 126.24 94.0579 125.272C95.9973 123.565 95.7121 121.629 95.3698 119.58C95.0276 117.531 94.6854 115.482 94.2291 113.433C93.7157 111.328 92.4609 109.848 90.1793 109.677C87.7836 109.506 85.9013 110.815 85.388 112.921C84.2472 117.645 83.5627 122.426 86.4147 126.923C87.5555 128.744 86.9851 130.053 84.8746 130.394C83.2775 130.679 81.6804 130.793 80.0833 130.679C77.6877 130.508 76.8321 128.972 78.4292 127.036C79.7981 125.329 79.7981 123.621 79.6841 121.743C79.2848 112.864 78.8855 103.929 78.5433 95.0496C78.4862 93.5129 78.3722 92.09 77.0603 90.9517C76.2047 90.2687 75.7484 89.2442 76.1476 88.1628C76.5469 87.0814 77.6306 87.0814 78.5433 87.0245C79.9122 86.8537 81.4523 86.7399 82.1367 86.683Z" fill="#FEFEFE"/>
<path d="M140.83 111.384C140.26 107.799 141.515 104.611 144.766 102.278C144.994 102.107 145.165 101.88 145.393 101.709C146.99 100.172 148.074 98.4077 146.933 96.131C145.793 93.8544 143.739 93.5698 141.572 94.0251C139.176 94.5374 137.921 96.2449 137.522 98.6353C137.294 99.9444 138.32 101.936 135.64 101.88C133.358 101.823 131.875 100.229 131.818 97.8385C131.761 95.8464 131.989 93.8544 132.731 91.9762C135.411 85.317 138.72 84.2925 146.534 85.6016C151.953 86.5122 154.52 91.5777 153.322 97.497C152.922 99.546 152.295 101.481 150.983 103.246C148.359 106.717 148.702 110.929 148.359 114.97C148.074 118.385 147.561 118.784 144.138 118.67C141.914 118.613 140.773 117.702 140.83 115.426C140.887 114.173 140.83 112.978 140.83 111.384Z" fill="#FEFEFE"/>
<path d="M107.976 115.539C108.147 110.815 109.459 106.433 113.394 103.302C117.387 100.172 122.292 100.798 125.43 104.839C129.993 110.702 128.852 121.003 123.148 125.784C118.756 129.484 113.166 128.516 110.086 123.508C108.66 121.06 108.147 118.385 107.976 115.539Z" fill="#FEFEFE"/>
<path d="M99.5338 67.1608C97.8226 69.722 97.4804 72.7954 95.0847 74.6167C93.8299 73.763 93.4306 72.5108 93.1454 71.2018C92.1757 67.1608 91.2061 63.1197 90.1223 59.0787C89.666 57.3143 89.609 55.2084 87.0422 55.0377C86.6429 54.9807 86.0725 54.6962 86.3007 54.0701C86.5289 53.3302 86.8711 52.6472 87.8408 52.5903C90.2364 52.5334 92.575 52.5334 94.9707 52.5334C95.5981 52.5334 96.1115 52.8179 96.1685 53.444C96.2255 54.0132 95.8263 54.2978 95.3699 54.5254C94.4573 54.9238 93.0884 55.0946 93.3165 56.4606C93.6588 58.5095 94.1721 60.5585 94.9136 62.4367C95.2559 63.2336 96.0544 62.6075 96.4537 62.0383C98.1649 59.5909 99.9331 59.3064 101.815 61.9245C102.956 63.4612 104.154 62.8921 104.382 61.4122C104.838 58.9079 106.892 56.0621 103.47 53.8424C102.386 53.1594 103.47 52.4764 104.211 52.5334C106.207 52.5903 108.204 52.7041 110.143 53.0456C111.341 53.2733 111.113 54.2408 110.257 54.4685C108.375 54.9807 108.432 56.5175 108.204 57.8265C107.348 62.4936 106.55 67.1608 105.751 71.8279C105.58 72.9093 105.295 74.0476 104.097 74.2183C102.899 74.3891 102.728 73.08 102.386 72.2832C101.473 70.5757 100.903 68.7544 99.5338 67.1608Z" fill="#FDFDFD"/>
<path d="M51.7915 68.8682C52.0197 71.2587 51.6775 73.763 53.6168 75.812C54.6435 76.8934 53.902 77.6333 52.5901 77.9179C49.2248 78.6008 47.9129 77.6333 47.6847 74.2183C47.5136 70.9172 47.4566 67.6161 47.2854 64.3149C47.1714 62.0952 46.9432 59.9324 44.8327 58.5664C43.9772 58.0542 44.2053 57.6558 44.7757 57.0866C46.4869 55.3791 49.0537 55.493 50.3656 57.485C50.9359 58.3388 51.6204 58.5095 52.533 58.3957C53.6738 58.2819 54.8146 58.168 55.9554 58.1111C60.0622 57.9973 62.2868 59.7048 63.3705 63.632C63.8839 65.4533 64.112 67.3315 64.055 69.2666C63.9979 71.031 63.8839 72.6816 65.8802 73.9337C67.1351 74.7306 66.964 76.2673 65.4239 77.121C62.2297 78.8854 60.0052 77.6902 59.8911 74.1614C59.8341 71.6002 59.72 69.039 59.6059 66.4778C59.4348 63.6889 57.4955 61.6968 54.9287 61.8676C52.0767 62.0952 51.8486 64.2011 51.7915 66.4208C51.7915 67.1607 51.7915 68.0145 51.7915 68.8682Z" fill="#FDFDFD"/>
<path d="M160.337 74.0476C156.516 74.0476 154.063 72.3401 152.979 68.6974C151.667 64.4857 151.496 60.3308 153.778 56.4036C155.546 53.3871 158.797 52.2487 162.391 53.3301C165.243 54.1839 167.182 57.0866 167.011 60.3308C166.954 62.209 166.212 63.3474 164.102 63.3474C162.619 63.3474 161.079 63.575 159.596 63.6888C158.569 63.8027 157.428 63.7458 157.257 65.1687C157.086 66.7623 156.858 68.4698 158.113 69.7219C159.025 70.6326 160.28 70.8603 161.535 70.348C162.79 69.8358 163.189 68.982 162.619 67.673C162.334 67.1038 161.421 66.3639 162.277 65.7378C163.303 64.941 164.558 64.8841 165.813 65.1687C166.84 65.4532 166.897 66.3639 166.897 67.2176C167.125 71.714 164.957 74.0476 160.337 74.0476Z" fill="#FDFDFD"/>
<path d="M70.6718 65.2824C70.6147 61.9813 71.4133 58.9078 73.5808 56.3466C75.9194 53.5008 79.1136 53.4439 81.6233 56.1759C85.6731 60.5015 85.4449 70.291 81.167 74.5028C78.6002 77.064 75.406 76.8364 73.1245 73.8767C71.1851 71.3155 70.6718 68.3559 70.6718 65.2824Z" fill="#FDFDFD"/>
<path d="M144.081 122.54C146.249 122.597 147.846 124.304 147.789 126.296C147.732 128.516 145.564 130.508 143.283 130.394C141.172 130.338 139.632 128.573 139.746 126.467C139.86 124.418 141.971 122.483 144.081 122.54Z" fill="#FBFBFB"/>
<path d="M122.691 113.263C122.406 115.653 122.007 118.157 119.725 119.808C117.672 121.288 115.961 120.832 114.991 118.556C113.394 114.856 114.078 111.441 116.36 108.254C117.9 106.091 120.353 106.376 121.551 108.709C122.235 110.018 122.577 111.498 122.691 113.263Z" fill="#010101"/>
<path d="M159.938 60.3877C158.626 60.2169 157.029 60.3877 157.314 58.3387C157.599 56.6312 158.569 55.5498 160.394 55.7205C161.991 55.8913 163.246 56.9158 163.132 58.4525C163.018 60.0462 161.535 60.6153 159.938 60.3877Z" fill="#070707"/>
<path d="M74.1514 65.1686C74.1514 62.0952 75.8055 59.5339 77.7448 59.5339C79.3419 59.5339 80.9961 62.0952 81.0531 64.5425C81.1102 67.1038 78.9997 70.1772 77.2315 70.1203C75.4062 70.0634 74.1514 68.0713 74.1514 65.1686Z" fill="#030303"/>
</svg>
