<svg width="234" height="211" viewBox="0 0 234 211" fill="none" xmlns="http://www.w3.org/2000/svg">
<path d="M170.1 170.2C168 169.7 165.8 169.3 163.7 168.6C160.8 167.7 158 166.4 155.1 165.5C147.4 163 139.8 160.3 132 157.9C125.8 156 119.4 154.4 113.3 152.2C104.9 149.2 96.2996 146.6 87.7996 143.8C85.5996 143.1 83.4996 142.2 81.2996 141.4C80.2996 141 79.7996 140.1 79.2996 139.3C76.8996 135.2 74.7996 130.9 72.1996 127C67.2996 119.6 62.9996 111.9 58.0996 104.5C56.1996 101.6 54.4996 98.6001 52.6996 95.7001C52.1996 94.9001 51.7996 94.6001 50.6996 95.0001C40.9996 98.7001 31.5996 103.3 21.7996 106.7C20.4996 107.2 19.1996 108 17.9996 108.6C17.5996 108.8 17.1996 109.4 16.6996 108.8C16.1996 108.3 16.5996 107.8 16.8996 107.3C17.8996 105.3 19.1996 103.5 20.2996 101.6C25.1996 92.9001 30.5996 84.4001 35.4996 75.7001C38.6996 70.1001 42.3996 64.7001 45.7996 59.1001C49.2996 53.4001 52.5996 47.7001 55.9996 41.9001C59.3996 36.0001 62.9996 29.9001 67.0996 24.0001C69.7996 20.1001 72.4996 16.1001 74.6996 11.8001C75.0996 11.0001 75.8996 10.5001 76.6996 10.3001C82.9996 8.60008 89.1996 6.20008 95.4996 4.40008C100.3 3.00008 105.2 1.70008 110.1 0.200083C111.6 -0.299917 112.6 0.100083 113.2 1.60008C114.9 5.60008 116.6 9.60008 118.3 13.6001C121.6 21.2001 125 28.7001 128.2 36.3001C130.1 40.9001 132 45.6001 134.1 50.1001C134.5 51.0001 134.9 51.3001 135.9 51.3001C141 51.2001 146 51.7001 151 52.2001C157.9 52.9001 164.9 52.8001 171.9 52.4001C175.4 52.2001 179 52.5001 182.5 52.8001C184.4 53.0001 186.4 52.9001 188.3 53.1001C193.9 53.5001 199.5 53.6001 205.2 54.0001C210.8 54.4001 216.5 55.2001 222.1 55.6001C225.2 55.8001 228.3 56.0001 231.3 56.2001C234 56.4001 234.4 56.7001 233.2 59.1001C231.2 63.3001 229.1 67.5001 226.8 71.6001C224.8 75.4001 222.7 79.1001 220.7 82.9001C217.2 89.5001 213.4 95.9001 209.9 102.4C205.5 110.7 200.8 118.8 196.4 127C192.2 134.8 187.6 142.3 183.3 150C180.1 155.8 176.8 161.7 172.8 167C172.3 167.6 172.1 168.4 171.7 169.1C171.4 169.9 171 170.4 170.1 170.2Z" fill="#010101"/>
<path d="M120.5 166.1C122.1 164.5 123.7 163 125.6 162C127.1 161.2 128.6 160.7 130.1 161.9C131.6 163.1 132 164.9 131.6 166.7C130.6 170.9 129.4 175.1 128.5 179.3C127.7 182.9 126.6 186.4 125.4 189.9C125.3 190.2 125.2 190.7 125.4 190.8C127.2 191.6 126.3 193 126.1 194.2C126 195 125.6 195.7 125.5 196.4C125.2 198.2 124 198.4 122.6 198.2C120.2 197.8 117.9 197.3 115.5 196.8C114.2 196.5 114.2 195.6 114.3 194.6C114.6 193.1 115 191.6 115.3 190.1C115.5 189.1 116 188.5 117.1 188.7C117.9 188.9 118.1 188.4 118.3 187.7C119 185.4 119.8 183.2 119.9 180.6C118.8 180.8 118.6 181.8 118.1 182.3C117.3 183 116.5 183.7 115.3 183.3C114.2 182.9 114 181.8 114 180.7C114 180 114 179.4 114 178.7C114 178.4 114 178 113.6 177.9C113.2 177.8 113 178.1 112.8 178.4C111.9 179.6 111.4 181 111 182.4C110.8 183.1 110.7 183.8 110.5 184.5C110.1 185.5 110.1 186.3 111.2 186.8C112 187.2 112 188 111.9 188.7C111.7 190 111.4 191.3 110.9 192.5C110.5 193.5 109.5 193.7 108.7 193.5C106.8 193.1 104.9 193.2 103 193C101.5 192.8 100.7 192.2 100.8 190.7C100.8 189.6 101 188.5 101.2 187.4C101.5 185.9 102.4 185 104 185.2C105.1 185.4 105.2 184.8 105.4 183.9C106.9 176.9 108.8 170 110.9 163.1C111.1 162.5 111.4 162 111.6 161.5C112.3 160 113.2 158.7 115.1 158.8C116.8 158.9 118.7 160.5 119.3 162.2C119.5 162.9 119.7 163.6 120 164.2C120 164.6 120.2 165.2 120.5 166.1Z" fill="#010101"/>
<path d="M142.4 53C139.4 55.5 137.5 58.6 136 61.8C135 64 134.2 66.3 134.2 68.8C134.2 70.2 134.9 70.8 136.3 70.9C139.2 71.1 141.2 69.2 143.5 68C144.6 67.4 145.5 66.6 146.8 66.6C148.1 66.5 148.9 66.7 149.1 68.2C150 74.5 153.6 78.6 159.4 80.8C162.9 82.1 166.4 80.7 168.7 77.7C170.5 75.3 171.8 72.8 173.2 70.2C174.2 68.4 176.1 67.5 178.2 68.2C183.3 69.9 189.5 66.6 191 61.4C191.5 59.7 191.9 57.9 192.8 56.3C193.3 55.5 193.8 55 194.9 55.1C203.1 55.6 211.3 56.1 219.5 57C222.9 57.4 226.3 57.5 229.7 57.7C232 57.8 232.1 57.9 231 60C229.3 63.4 227.5 66.8 225.8 70.2C225.4 70.9 225.1 71.3 224.2 71.3C218.8 71.3 213.3 71.3 207.9 71.4C206.9 71.4 207 70.9 207.2 70.3C207.5 69.5 208.2 69 208.8 68.4C209.9 67.4 210.3 66.1 210.2 64.7C210.2 64.2 210 63.8 209.4 63.8C208.9 63.8 208.7 64.2 208.7 64.6C208.8 65.9 208.1 66.9 207.2 67.8C206.3 68.7 205.5 69.7 205.3 71C205.2 71.4 205 71.6 204.7 71.7C204.2 71.8 204 71.5 203.8 71.1C203.3 70.2 202.8 69.3 202.2 68.4C201.4 67.4 202.1 66.4 202 65.4C202 65 202.2 64.5 201.6 64.3C201 64.2 200.8 64.6 200.6 65.2C200.1 66.9 200.1 68.5 201.3 69.9C201.7 70.4 202.4 71 202.2 71.5C201.9 72.2 200.9 72 200.1 72.1C196 72.6 191.9 73.2 188.2 75.2C184.2 77.3 180.4 79.6 177.4 83C176.2 84.4 175.7 86.1 175.2 87.8C174.1 91.7 173.1 95.6 172.9 99.7C172.7 106.2 171.5 112.7 168.8 118.7C167.6 121.4 165.2 123.3 162.7 124.9C160.1 126.5 157.2 127.3 154.2 128C153.8 128.1 153.3 128.3 153 127.8C152.8 127.5 153.1 127.1 153.3 126.9C155.3 124.8 156.1 122.1 156.9 119.4C158.3 114.2 158.7 109.1 157 103.9C155.6 99.8 153 96.8 149.3 94.9C148 94.2 148.2 93.7 148.7 92.8C149.2 91.9 149.9 91.4 150.8 91C152.6 90.1 153.7 88.7 154.5 86.9C154.7 86.4 154.8 85.9 154.2 85.6C153.6 85.3 153.2 85.7 153 86.2C152.2 88.1 150.7 89.4 148.9 90.3C148 90.8 147.5 91.8 147 92.8C146.9 93.1 146.9 93.7 146.3 93.5C145.9 93.4 145.8 93.1 145.8 92.7C145.7 91.1 145.1 89.7 144.3 88.4C143.6 87.1 144 85.8 144.4 84.6C144.5 84.2 144.9 83.6 144.2 83.4C143.6 83.2 143.3 83.6 143.1 84.1C142.3 86 142.2 87.8 143.3 89.6C143.9 90.5 144.5 91.6 144.1 92.5C143.6 93.8 142.3 92.8 141.6 92.7C133.9 92 128.6 96.2 123.9 101.5C122.2 103.4 121.3 105.8 120.1 108.1C120 108.4 119.8 108.6 119.5 109.1C119.2 104.8 120.3 101 121 97.1C122.5 89.4 123.7 81.7 123 73.8C122.8 71.5 123.5 69.9 124.7 68.2C127.7 63.9 130.9 59.6 133.4 55C134.3 53.4 135.6 52.9 137.3 52.8C139.1 52.5 140.5 52.8 142.4 53Z" fill="#FEFEFE"/>
<path d="M107.7 97.5001C106.8 100.8 106.2 104.1 105.7 107.5C105.2 111.3 105 115.1 105.1 119C105.2 122.9 106.1 126.4 108 129.7C111.6 136 117.1 139.7 124.2 140.9C126.4 141.3 128.7 141.4 130.9 140.8C132 140.5 132.9 141.3 133.8 141.9C138.1 144.7 142.8 145.9 147.9 146.3C152.3 146.7 156.6 145.7 160.9 146.2C161.3 146.3 161.8 146.1 162.2 146C170.6 142.6 176.8 137 180.2 128.4C182.7 122.3 184.6 116 185.6 109.4C186.2 105.5 187.2 101.4 188.7 97.7001C191.2 91.6001 195.9 88.5001 202.1 87.3001C206.5 86.5001 210.9 86.0001 215.4 86.2001C216.7 86.3001 217.1 86.4001 216.3 87.7001C211.5 95.8001 207.2 104.2 202.6 112.4C198.2 120.4 193.7 128.4 189 136.2C186.1 141.1 183.5 146.2 180.6 151.2C179.8 152.6 179.3 152.9 177.6 152.1C172.7 149.7 167.4 148.4 161.8 149C157.2 149.5 152.7 150.2 148.1 151.1C145.4 151.6 142.4 151.3 139.7 149.8C136.1 147.8 132.1 146.9 128 146.7C123.1 146.5 118 146.4 113.4 148.2C109 149.9 105.6 147.9 101.9 146.7C97.1999 145.3 92.4999 143.7 87.7999 142.2C86.0999 141.6 84.3998 140.9 82.6998 140.3C81.8998 140 81.8999 139.8 82.2999 139C86.1999 131.7 90.2998 124.5 95.0998 117.7C98.1998 113.3 100.7 108.4 103.5 103.7C105.3 101.8 106.4 99.7001 107.7 97.5001Z" fill="#FEFEFE"/>
<path d="M81.2996 62.9002C80.1996 63.2002 79.0996 62.7002 77.8996 62.6002C75.3996 62.3002 74.1996 59.4002 75.5996 57.4002C79.3996 52.2002 82.8996 46.8002 86.2996 41.4002C93.1996 30.3002 100.5 19.6002 107.6 8.6002C108.7 6.9002 110.1 5.5002 110.8 3.6002C111 3.2002 111.3 2.7002 111.7 2.7002C112.3 2.7002 112.2 3.3002 112.4 3.7002C116.1 12.6002 120 21.5002 124 30.3002C126.6 36.1002 128.9 42.0002 131.3 47.8002C131.8 49.0002 132.4 50.2002 133 51.4002C133.3 52.1002 133.3 52.5002 132.9 53.2002C129.8 58.2002 126.4 63.0002 123 67.9002C122.4 68.8002 122.1 69.2002 121.2 67.9002C118.8 64.2002 116 61.0002 111.7 59.5002C109.1 58.6002 106.4 57.6002 103.5 58.6002C102.7 58.9002 102.7 58.5002 102.7 57.9002C102.7 56.2002 103.4 54.7002 104.3 53.3002C105.3 51.9002 105.7 50.3002 106.1 48.8002C106.3 48.2002 106.4 47.2002 105.5 47.1002C104.5 46.9002 104.7 47.8002 104.6 48.5002C104.4 50.0002 103.8 51.3002 103.1 52.5002C102 54.3002 101.1 56.1002 101.2 58.4002C101.2 58.9002 101.1 59.4002 100.4 59.4002C99.6996 59.4002 99.7996 59.0002 99.6996 58.6002C99.2996 57.1002 98.4996 55.8002 97.3996 54.7002C96.0996 53.3002 95.1996 51.8002 95.2996 49.8002C95.2996 49.3002 95.3996 48.5002 94.5996 48.5002C93.8996 48.5002 93.9996 49.3002 93.8996 49.8002C93.5996 52.0002 94.5996 53.8002 96.0996 55.3002C97.0996 56.3002 97.7996 57.4002 98.1996 58.6002C98.4996 59.3002 98.3996 59.8002 97.3996 60.0002C93.3996 60.8002 89.4996 61.7002 85.4996 62.5002C84.3996 62.7002 82.8996 63.0002 81.2996 62.9002Z" fill="#FEFEFE"/>
<path d="M109.5 88.0001C110 90.3001 108.7 92.3001 107.5 94.4001C103.6 101.2 99.6998 108.1 95.6998 114.9C93.1998 119.1 89.9998 122.9 87.5998 127.2C85.6998 130.7 83.6998 134.1 81.7998 137.6C81.5998 138 81.4998 138.7 80.8998 138.7C80.3998 138.7 80.3998 138.1 80.1998 137.7C79.2998 136.1 78.5998 134.4 77.3998 133C75.5998 130.8 76.3998 128.8 77.5998 126.8C80.7998 121.2 84.8998 116.2 89.2998 111.4C91.4998 108.9 93.3998 106.2 93.3998 102.5C93.3998 99.4001 90.7998 96.8001 87.1998 97.7001C84.9998 98.2001 82.9998 99.5001 80.6998 99.8001C80.3998 99.9001 80.0998 100 79.6998 100C79.1998 100 78.5998 100.3 78.2998 99.8001C77.9998 99.3001 78.4998 98.9001 78.6998 98.5001C80.7998 95.3001 82.9998 92.3001 84.1998 88.6001C84.5998 87.4001 85.0998 86.1001 84.0998 85.2001C83.0998 84.3001 81.7998 84.1001 80.3998 84.6001C72.3998 87.2001 65.0998 91.0001 58.5998 96.3001C55.8998 98.5001 56.0998 98.5001 54.1998 95.7001C53.1998 94.2001 53.2998 93.0001 54.1998 91.5001C57.2998 86.0001 60.5998 80.6001 63.9998 75.3001C64.6998 74.2001 65.1998 74.3001 66.0998 74.8001C67.7998 75.8001 69.2998 76.9001 71.3998 77.2001C74.4998 77.6001 77.4998 77.4001 80.2998 76.5001C85.7998 74.7001 91.3998 73.0001 97.0998 72.2001C100.2 71.8001 103.5 71.4001 105.9 74.2001C107.5 76.1001 108.7 78.3001 108.9 80.9001C109.1 83.1001 109.7 85.4001 109.5 88.0001Z" fill="#FEFEFE"/>
<path d="M145.6 53.1001C156.3 54.7001 166.9 53.6001 177.4 54.0001C181.8 54.1001 186.2 54.5001 190.6 54.8001C191.2 54.8001 191.9 54.8001 191.4 55.7001C190.2 57.8001 190 60.2001 188.9 62.3001C187.3 65.7001 182.7 67.8001 179.1 66.7001C175.7 65.7001 173.6 66.6001 171.8 69.7001C170.3 72.4001 169 75.2001 166.8 77.4001C163.8 80.4001 160.7 80.1001 157.4 78.1001C154.6 76.3001 152.4 73.8001 151.3 70.5001C151.1 69.9001 150.9 69.2001 150.9 68.6001C150.9 65.3001 148.2 64.3001 145.7 65.1001C144.2 65.5001 143.2 66.6001 141.9 67.3001C140.5 68.1001 139.1 69.0001 137.4 69.3001C135.9 69.5001 135.4 69.1001 135.7 67.6001C136.2 65.4001 136.8 63.1001 138 61.1001C139.6 58.5001 141.1 55.8001 143.7 53.9001C144.3 53.4001 144.9 53.0001 145.6 53.1001Z" fill="#FEFEFE"/>
<path d="M74.9998 128.6C70.5998 122.4 66.9998 116 62.9998 109.8C61.1998 106.9 59.3998 104 57.5998 101.1C56.9998 100.1 56.9998 99.5 57.8998 98.7C61.2998 95.4 65.0998 93 69.2998 90.9C72.1998 89.5 74.8998 87.7 77.9998 86.6C79.0998 86.2 80.2998 85.9 81.4998 85.7C82.7998 85.5 83.1998 86.2 82.7998 87.7C81.8998 90.7 80.1998 93.4 78.3998 96C77.7998 96.8 77.1998 97.6 76.8998 98.5C75.8998 100.8 76.7998 101.9 79.2998 101.6C81.5998 101.4 83.6998 100.6 85.7998 99.7C88.5998 98.4 91.5998 99.2 91.9998 101.3C92.2998 103.3 91.8998 105.2 90.6998 107.1C88.1998 111 84.5998 113.9 81.9998 117.7C79.3998 121.2 76.7998 124.5 74.9998 128.6Z" fill="#FEFEFE"/>
<path d="M110.4 2.00005C97.9999 19.8 87.0999 38.3 74.5999 55.9001C74.4999 54.3001 74.2999 52.7 74.1999 51.1C74.0999 48 73.4999 44.9001 72.0999 42.2001C70.3999 38.8 68.0999 35.7001 63.7999 35C61.9999 34.6 61.9999 34.4 62.9999 32.8C64.8999 29.8 66.9999 27 68.8999 24C71.1999 20.5 73.3999 17.1 75.4999 13.5C76.0999 12.4 76.8999 11.8 77.9999 11.4C83.4999 9.70005 88.9999 7.80005 94.4999 6.10005C99.4999 4.60005 104.5 3.20005 109.5 1.80005C109.7 1.80005 109.8 1.90005 110.4 2.00005Z" fill="#FEFEFE"/>
<path d="M46.5 94.9C48 91.8 47.9 89.1 46 86.2C44.3 83.6 45.1 81 46.7 78.5C47.6 77.1 49.1 75.9 48.9 73.9C48.7 72.1 47.7 71.1 45.9 71.2C43.5 71.3 41.3 72.2 39 73C40.3 70.9 41.6 68.7 43 66.7C46.4 61.5 49.5 56.1 52.6 50.6C53.5 49.1 54.4 47.6 55.3 46C55.6 45.5 55.9 45.1 56.6 45.4C61.5 46.9 64.1 51.8 63.3 56.9C62.7 60.8 61.7 64.7 62.5 68.7C62.6 69.3 62.6 70 62.9 70.5C64.2 72.4 63.4 73.9 62.3 75.5C59.9 78.9 57.9 82.6 55.8 86.2C54.5 88.3 53.5 90.6 52 92.6C50.6 94.1 48.4 94.2 46.5 94.9Z" fill="#FEFEFE"/>
<path d="M112.8 150C114.8 149.6 116.8 149.1 118.9 148.8C121.5 148.5 124.1 148.1 126.6 148.2C130.8 148.3 135.1 148.9 138.9 150.9C142.9 153.1 147.1 153.2 151.4 152.1C153.9 151.4 156.5 151.3 159 150.9C163.8 150.1 168.7 150.3 173.3 151.9C175 152.5 176.6 153.2 178.2 153.9C178.8 154.2 179 154.4 178.6 155.1C176.1 159.5 173.5 163.7 170.8 168C170.3 168.7 169.6 168.6 169 168.4C165.4 167.5 161.9 166.3 158.3 165.1C151.2 162.7 144.2 159.9 136.9 158C132.6 156.9 128.4 155.2 124.1 154.1C120.7 153.2 117.3 152.1 113.9 150.9C113.5 150.8 113.1 150.6 112.7 150.4C112.8 150.3 112.8 150.1 112.8 150Z" fill="#FEFEFE"/>
<path d="M19.7998 105.8C22.6998 100.2 25.8998 94.9002 29.1998 89.6002C31.3998 86.1002 33.5998 82.6002 35.4998 78.9002C37.2998 75.3002 40.6998 74.2002 44.0998 73.1002C44.4998 73.0002 44.7998 72.9002 45.1998 72.9002C45.8998 72.9002 46.7998 72.5002 47.1998 73.2002C47.6998 74.0002 47.4998 74.9002 46.9998 75.7002C46.0998 77.2002 44.7998 78.5002 44.1998 80.2002C43.2998 82.6002 43.4998 84.9002 44.7998 87.1002C46.4998 90.0002 45.9998 93.9002 43.6998 96.1002C42.9998 96.7002 41.9998 97.0002 40.9998 97.4002C34.1998 100.2 27.2998 103 20.3998 105.8C20.2998 105.9 20.0998 105.8 19.7998 105.8Z" fill="#FEFEFE"/>
<path d="M140.2 106.8C144.5 106.3 146.2 109.2 146 113.1C145.8 116.8 144.5 120.1 141.9 122.8C140.5 124.2 138.8 125.4 136.6 124.9C134 124.2 132.7 122.3 132.3 119.8C131.5 115.6 132.6 111.9 135.5 108.7C137.3 106.7 137.3 106.8 140.2 106.8Z" fill="#FEFEFE"/>
<path d="M181 95.2001C180.4 95.2001 180.1 94.7001 180.3 94.1001C181.2 91.8001 182 89.4001 184 87.8001C184.5 87.4001 185.1 86.8001 185.7 87.6001C186.1 88.2001 185.7 88.6001 185.2 89.1001C183.8 90.3001 183 91.9001 182.4 93.7001C182.2 94.4001 182.1 95.2001 181 95.2001Z" fill="#F7F7F7"/>
<path d="M112 70.8002C111.9 71.2002 111.9 71.6002 111.4 71.7002C111 71.8002 110.6 71.7002 110.4 71.3002C109.4 69.0002 107.6 67.5002 105.3 66.6002C104.9 66.4002 104.6 66.0002 104.8 65.5002C105 65.1002 105.5 64.9002 105.9 65.1002C108.4 66.2002 110.6 67.7002 111.7 70.4002C111.9 70.4002 111.9 70.6002 112 70.8002Z" fill="#F9F9F9"/>
<path d="M174.9 125.2C174.9 126.4 172.2 130.4 171 130.8C170.6 130.9 170.2 131 170 130.6C169.7 130.3 169.7 129.8 170 129.5C171.5 128.2 172.3 126.4 173.3 124.8C173.5 124.4 173.9 124.1 174.4 124.3C174.8 124.4 174.9 124.7 174.9 125.2Z" fill="#F9F9F9"/>
<path d="M143.3 130.8C142.9 130.8 142.5 130.7 142.4 130.3C142.3 130 142.4 129.7 142.7 129.5C144.3 128.4 145.6 127.1 146.7 125.6C147 125.2 147.4 125.1 147.8 125.4C148.1 125.7 148.4 125.9 148.1 126.4C146.9 128.2 145.6 129.8 143.6 130.8C143.5 130.8 143.4 130.8 143.3 130.8Z" fill="#F6F6F6"/>
<path d="M75.8 71.6001C74.4 71.3001 73 71.0001 71.9 69.9001C71.5 69.5001 71.2 69.0001 71.6 68.5001C72.1 68.0001 72.5 68.3001 72.9 68.6001C74.2 69.7001 75.7 70.0001 77.3 69.9001C77.8 69.9001 78.6 69.8001 78.6 70.5001C78.7 71.3001 78 71.4001 77.3 71.5001C76.9 71.5001 76.4 71.6001 75.8 71.6001Z" fill="#F5F5F5"/>
<path d="M152.8 138.5C152 138.5 151.4 138.5 150.9 138.5C150.3 138.5 149.9 138.4 149.8 137.8C149.8 137.1 150.2 136.7 150.9 136.8C152.8 137.1 154.7 136.9 156.5 136.3C157 136.1 157.3 136.5 157.4 136.8C157.7 137.3 157.2 137.6 156.8 137.8C155.5 138.5 154 138.5 152.8 138.5Z" fill="#F9F9F9"/>
<path d="M135.4 100.8C135.4 101.3 135.1 101.5 134.7 101.7C133.2 102.3 131.8 103.1 130.7 104.3C130.3 104.7 129.9 105 129.3 104.5C128.7 103.9 129.2 103.5 129.5 103.1C130.6 101.8 132 101 133.5 100.4C134.2 100.1 135 100 135.4 100.8Z" fill="#F7F7F7"/>
<path d="M177.5 110.5C178.1 109.3 178 107.7 178 106.1C178 105.6 178.3 105.1 178.9 105.1C179.5 105.1 179.9 105.7 179.8 106.1C179.5 107.8 179.8 109.6 179 111.2C178.8 111.6 178.6 112.2 178 112C177.6 111.7 177.4 111.3 177.5 110.5Z" fill="#F6F6F6"/>
<path d="M69.0997 56.3001C68.9997 57.6001 68.7997 58.8001 69.1997 60.0001C69.3997 60.5001 69.3997 61.3001 68.5997 61.4001C67.8997 61.5001 67.5997 61.0001 67.4997 60.3001C67.1997 58.9001 67.2997 57.5001 67.2997 56.1001C67.2997 55.4001 67.1997 54.7001 68.1997 54.8001C68.9997 54.9001 69.0997 55.6001 69.0997 56.3001Z" fill="#F4F4F4"/>
<path d="M66.5996 45.6002C66.5996 46.0002 66.5996 46.4002 66.1996 46.6002C65.6996 46.8002 65.2996 46.4002 65.0996 46.0002C64.5996 44.6002 63.8996 43.2002 62.5996 42.2002C62.2996 41.9002 62.3996 41.4002 62.6996 41.2002C63.0996 40.8002 63.5996 41.0002 64.0996 41.2002C65.1996 41.7002 66.6996 44.3002 66.5996 45.6002Z" fill="#F6F6F6"/>
<path d="M212.3 78.6C213 78.6 213.5 78.6 214 78.6C214.7 78.5 215.3 78.9 215.3 79.5C215.3 80.1 214.8 80.6 214.1 80.6C212.8 80.7 211.6 80.2 210.2 80.5C209.8 80.6 209.4 80.1 209.3 79.7C209.3 79.3 209.6 79 210.1 78.8C210.8 78.5 211.7 78.7 212.3 78.6Z" fill="#F3F3F3"/>
<path d="M116.6 88.7002C116.4 89.8002 116.2 91.1002 116 92.4002C115.9 92.8002 115.8 93.2002 115.3 93.2002C114.7 93.2002 114.5 92.8002 114.6 92.3002C114.7 90.5002 114.8 88.7002 115 86.9002C115 86.6002 115.2 86.2002 115.8 86.2002C116.3 86.2002 116.5 86.6002 116.6 86.9002C116.6 87.4002 116.6 87.9002 116.6 88.7002Z" fill="#FCFCFC"/>
<path d="M124.1 115.2C124.1 114.8 124.1 114.3 124.2 113.9C124.3 113.5 124.7 113.1 125.2 113.2C125.7 113.3 125.8 113.6 125.8 114C125.7 115.5 125.9 117.1 126.1 118.6C126.2 119.2 126.1 119.8 125.4 119.8C124.7 119.8 124.5 119.3 124.4 118.7C124.3 117.6 124.2 116.4 124.1 115.2Z" fill="#F6F6F6"/>
<path d="M153 115.5C152.9 117.1 152.3 118.4 151.7 119.6C151.5 120 151.2 120.4 150.6 120C150.1 119.7 149.9 119.2 150.2 118.7C150.8 117.5 151.3 116.3 151.3 115C151.3 114.6 151.7 114.2 152.3 114.4C152.8 114.6 153.1 115 153 115.5Z" fill="#F2F2F2"/>
<path d="M93.7996 66.2002C94.5996 66.4002 95.4996 66.3002 95.4996 67.3002C95.4996 68.3002 94.6996 67.9002 94.0996 68.0002C92.8996 68.1002 91.8996 68.5002 90.7996 68.8002C90.2996 68.9002 89.5996 69.2002 89.3996 68.4002C89.1996 67.8002 89.6996 67.3002 90.1996 67.2002C91.3996 66.8002 92.5996 66.5002 93.7996 66.2002Z" fill="#F6F6F6"/>
<path d="M149.1 102.1C149.1 102.5 148.8 102.7 148.6 102.9C148.2 103.2 148 102.9 147.8 102.7C146.9 101.6 145.7 101 144.5 100.4C143.9 100.1 143.6 99.7002 143.9 99.1002C144.2 98.5002 144.8 98.6002 145.3 98.9002C146.3 99.5002 147.3 100 148.2 100.7C148.7 101 149 101.5 149.1 102.1Z" fill="#F7F7F7"/>
<path d="M129.2 132.8C130.3 132.8 131 132.8 131.6 132.8C132.1 132.8 132.5 132.8 132.5 133.5C132.6 134.1 132.2 134.4 131.8 134.4C130.3 134.5 128.8 134.5 127.3 134.3C126.8 134.2 126.3 133.9 126.4 133.3C126.5 132.8 127 132.6 127.6 132.7C128.3 132.8 129 132.8 129.2 132.8Z" fill="#FAFAFA"/>
<path d="M112.6 124.3C112.5 123.7 112.8 123.3 113.3 123.1C113.8 122.9 114 123.4 114.1 123.7C114.4 124.9 115.1 126 115.8 127.1C116.1 127.6 116.2 128.2 115.6 128.5C115 128.8 114.7 128.3 114.4 127.9C113.4 126.9 113 125.6 112.6 124.3Z" fill="#F8F8F8"/>
<path d="M197.5 80.6001C198 80.7001 198.4 80.5001 198.5 81.0001C198.6 81.4001 198.7 81.8001 198.3 82.1001C197.1 82.9001 195.8 83.5001 194.5 84.0001C194.1 84.2001 193.8 83.9001 193.6 83.5001C193.4 83.1001 193.7 82.6001 193.9 82.5001C195.1 81.8001 196.4 81.1001 197.5 80.6001Z" fill="#F6F6F6"/>
<path d="M113.5 105.3C113.3 106.3 113 107.4 112.7 108.5C112.6 108.9 112.3 109.3 111.7 109.2C111.2 109 111.1 108.6 111.1 108.1C111.3 107 111.6 106 111.8 104.9C111.9 104.3 112.3 104.1 112.9 104.2C113.7 104.3 113.5 104.8 113.5 105.3Z" fill="#F7F7F7"/>
<path fill-rule="evenodd" clip-rule="evenodd" d="M17.8787 148.552C18.4817 146.945 19.0889 145.328 20.1998 143.9C20.1493 144.859 20.2772 145.793 20.4034 146.714C20.5272 147.617 20.6493 148.509 20.5998 149.4C20.4998 154 20.4998 158.6 20.8998 163.2C20.9998 164.1 20.9998 164.6 19.9998 165.1C18.8998 165.6 18.2998 170 19.0998 170.9C19.1998 171.1 19.3998 171.2 19.5998 171.3C22.0998 172.4 24.6998 173.5 27.2998 174.5C28.3998 174.9 29.3998 174.5 29.7998 173.4C30.3998 172 30.7998 170.5 31.0998 169.1C31.3998 168.1 31.1998 167.3 29.8998 167C28.9998 166.8 28.6998 166.2 28.6998 165.2C28.7665 163.4 28.922 161.6 29.0776 159.8C29.1553 158.9 29.2331 158 29.2998 157.1L29.2998 157.1C29.5998 151.8 29.8998 146.5 30.0998 141.2C30.1998 139.5 30.5998 138.1 32.3998 137.3C33.3328 136.961 34.122 136.334 34.8893 135.724C35.0266 135.615 35.1632 135.506 35.2998 135.4C39.5998 132.1 42.0998 128.1 40.5998 122.4C40.2998 121 39.7998 119.8 38.7998 118.8C36.2998 116.1 32.9998 114.8 29.4998 114.2C29.3296 114.158 29.1505 114.133 28.9699 114.108C28.3016 114.017 27.6147 113.924 27.2998 112.9C26.6998 111 25.3998 110.3 23.4998 110.6C21.1998 110.9 19.4998 112.3 19.4998 114.3C19.4998 118.3 18.2998 122.1 16.8998 125.8C16.1998 127.7 15.4498 129.6 14.6998 131.5C13.9498 133.4 13.1998 135.3 12.4998 137.2C9.79979 144.8 6.79979 152.2 3.59979 159.5C3.29979 160 3.09979 160.3 2.49979 160.2C1.29979 159.9 0.799785 160.7 0.399785 161.6C-0.300215 163.5 -0.000214841 164.6 1.69979 165.9C4.19979 167.9 6.79979 169.6 10.2998 168.4C11.6998 167.9 13.5998 164.9 12.8998 163.9C12.0005 162.641 12.4761 161.544 12.9446 160.463C12.9971 160.342 13.0494 160.221 13.0998 160.1C14.5998 156.7 16.0998 153.3 17.3998 149.8C17.565 149.387 17.7217 148.97 17.8787 148.552ZM24.8999 128C24.1999 129.3 24.9999 129.4 25.9999 129.5C27.1298 129.5 28.0824 128.968 28.9411 128.488C28.9944 128.459 29.0474 128.429 29.0999 128.4C30.0999 127.7 30.1999 126.5 29.3999 125.4C29.0079 124.93 28.5544 124.644 28.0876 124.349C27.9591 124.268 27.8295 124.186 27.6999 124.1C26.9999 123.5 26.4999 123.8 26.1999 124.6C25.7999 125.8 25.3999 126.9 24.8999 128Z" fill="#010101"/>
<path fill-rule="evenodd" clip-rule="evenodd" d="M77.5 160.3C78.1 156.7 78.7 153.1 79.3 149.9C79.26 149.5 79.236 149.164 79.2152 148.873C79.184 148.436 79.16 148.1 79.1 147.8C78.523 144.915 76.5592 142.955 74.6309 141.031C74.5538 140.954 74.4768 140.877 74.4 140.8C72.1 138.5 71.1 138.8 69.5 141.7C68.65 143.25 67.9 144.825 67.15 146.4C66.4 147.975 65.65 149.55 64.8 151.1C62.3711 155.418 60.3974 159.964 58.4182 164.522C57.464 166.72 56.5084 168.921 55.5 171.1C55 172.2 54.5 172.6 53.4 172.4C51.6 172.1 50.6 173.1 49.9 174.5C49.75 174.8 49.625 175.1 49.5 175.4C49.375 175.7 49.25 176 49.1 176.3C48.2 178.2 48.6 179.1 50.5 179.9C52.6952 180.876 55.0227 181.521 57.3211 182.158C57.8496 182.305 58.3765 182.451 58.9 182.6C60 182.9 61 182.8 61.7 181.6C62.4999 180.2 62.9999 178.7 63.4999 177.2L63.5 177.2C63.8 176.4 63.4 175.6 62.5 175.4C61.3 175.1 61.5 174.5 62 173.7C62.0928 173.576 62.1857 173.462 62.2756 173.351C62.4761 173.105 62.6619 172.876 62.8 172.6C64.3 170.4 65.7 168.3 67.1 166.1C67.3 165.7 67.6 165.3 68.1 165.3C68.432 165.383 68.4195 165.604 68.4057 165.848C68.4028 165.898 68.4 165.949 68.4 166C68.4 169.4 68.1 172.6 67.5 175.9C67.5 176.2 67.3 176.4 67 176.4C65.7453 176.304 65.5152 177.232 65.3209 178.016C65.3139 178.044 65.3069 178.072 65.3 178.1C65.15 178.65 65.025 179.2 64.9 179.75C64.775 180.3 64.65 180.85 64.5 181.4C63.9 183.8 64.6999 184.9 67.1999 185.4C68.153 185.599 69.1061 185.703 70.0529 185.806C71.4903 185.963 72.9133 186.118 74.3 186.6C75.7 187.1 76.2 186.5 76.5 185.3C76.7 184.5 76.9249 183.675 77.15 182.85C77.375 182.025 77.6 181.2 77.8 180.4C78.3 178.4 78 178 75.9 177.6C75.8103 177.585 75.7183 177.575 75.6275 177.564C75.1108 177.505 74.6299 177.451 74.8 176.6C75.25 173.9 75.7 171.175 76.15 168.45C76.6 165.725 77.05 163 77.5 160.3ZM71.2998 157.2C72.3998 155.1 73.3998 152.9 73.8998 150.6C74.0998 149.8 73.4998 149.3 72.9998 149C72.6998 148.8 72.3998 148.7 72.2998 149C72.2507 149.09 72.2014 149.18 72.1521 149.271C70.9949 151.389 69.7834 153.606 69.3998 156.1C69.3116 156.718 69.846 157.024 70.3164 157.293C70.3792 157.329 70.4409 157.365 70.4998 157.4C70.7998 157.6 71.0998 157.6 71.2998 157.2Z" fill="#010101"/>
<path fill-rule="evenodd" clip-rule="evenodd" d="M101.3 182.8C104.3 177.7 105.4 172.1 105.6 165.6C105.6 161.5 103.9 157.5 99.7996 155.2C96.4996 153.2 92.9996 151.4 88.8996 151.4C88.2996 151.4 87.6996 151.3 87.1996 150.8C86.9996 150.5 86.5996 150.5 86.2996 150.6C83.5996 151 82.1996 154.5 83.8996 156.6C84.4996 157.3 84.7996 158.1 84.5996 159C83.2996 166 82.3996 173 81.4996 180L81.4996 180C81.3996 180.8 81.1996 181.5 80.0996 181.4C79.0996 181.4 78.6996 182 78.6996 182.9C78.6996 183.9 78.5996 184.8 78.3996 185.7C78.1996 186.7 78.5996 187.5 79.2996 188.2C82.4996 191.3 86.4996 191.9 90.4996 191.3C95.4996 190.5 98.8996 187 101.3 182.8ZM91.7997 177.8C95.2997 175.4 96.5997 171.9 97.1997 167.8C96.8997 166 95.8997 164.4 94.0997 163.1C92.3997 161.9 91.8997 162.1 91.4997 164.1C91.2886 165.306 91.1049 166.521 90.921 167.737C90.4949 170.554 90.0681 173.376 89.2997 176.1C89.2751 176.247 89.2205 176.401 89.1653 176.555C88.9956 177.032 88.8204 177.523 89.4997 177.9C90.2997 178.3 91.0997 178.3 91.7997 177.8Z" fill="#010101"/>
<path fill-rule="evenodd" clip-rule="evenodd" d="M57.8995 149.4C59.8995 143.9 60.4995 138 60.6995 132.2C60.6995 131.942 60.7023 131.683 60.7051 131.423C60.7258 129.464 60.7471 127.454 59.5995 125.6C58.3995 123.5 57.0995 122.9 54.8995 123.9C51.4995 125.5 49.0995 128.2 47.0995 131.3C44.1995 135.8 41.4995 140.5 39.6995 145.6C37.8995 150.7 36.1995 155.9 35.1995 161.2C34.9012 162.692 34.8165 164.183 34.733 165.653C34.6765 166.648 34.6206 167.632 34.4995 168.6C34.1995 170.5 34.1995 172.4 34.9995 174.2C36.2995 177 39.6995 177.7 41.9995 175.7C45.4995 172.6 47.9995 168.6 50.3995 164.6C53.2995 159.7 55.9995 154.7 57.8995 149.4ZM49.6997 140.4C45.2997 145.8 42.5997 151.9 42.1997 158.9C42.1997 159.156 42.1894 159.423 42.1788 159.7C42.1562 160.287 42.1318 160.921 42.1997 161.6C42.1997 161.648 42.1988 161.699 42.1978 161.752C42.1888 162.248 42.1766 162.919 42.8997 163.1C43.6997 163.3 44.1997 163.1 44.7997 162.5C47.5997 159.6 49.5997 156.3 50.8997 152.6C50.991 152.332 51.0827 152.065 51.1743 151.797C52.5875 147.675 53.9815 143.608 53.6997 139.1C53.6997 138.988 53.7148 138.865 53.7304 138.74C53.784 138.306 53.8425 137.833 53.2997 137.6C52.6997 137.4 52.0997 137.8 51.6997 138.2C50.9997 138.9 50.2997 139.6 49.6997 140.4Z" fill="#010101"/>
<path fill-rule="evenodd" clip-rule="evenodd" d="M141.829 189.842C141.777 190.186 141.724 190.536 141.8 190.8C141.8 191.5 141.9 192 142.1 192.8C142.075 193.102 142.068 193.442 142.062 193.787C142.043 194.817 142.024 195.901 141.5 196.2C139.925 197.1 139.7 198.506 139.475 199.913C139.4 200.381 139.325 200.85 139.2 201.3C139.1 202 139.4 202.5 139.9 203C141.973 204.876 144.632 205.387 147.202 205.881L147.3 205.9C148.4 206.1 149 205.8 149.5 204.7C149.785 203.958 149.973 203.215 150.156 202.491C150.293 201.948 150.428 201.415 150.6 200.9C151 199.4 150.5 198.7 149.3 198.2C149.227 198.164 149.155 198.134 149.085 198.106C148.771 197.977 148.518 197.873 148.6 197.3C149.2 193.5 149.6 189.6 149.8 185.7C149.844 184.411 149.968 183.122 150.091 181.833C150.245 180.222 150.4 178.611 150.4 177C150.5 175.4 150.2 173.8 148.4 173.2C146.5 172.6 144.8 172.9 143.4 174.4C138.7 179.4 135.1 185.1 131.6 190.9C131.468 191.107 131.347 191.315 131.227 191.518C130.714 192.397 130.236 193.213 129.1 193.7C126.9 194.7 126.9 198.9 128.8 200.3C130.7 201.6 132.9 202 135.1 202.4L135.1 202.4C135.9 202.5 136.7 201.9 137.1 201C137.282 200.526 137.451 200.039 137.621 199.548C137.918 198.692 138.218 197.826 138.6 197C139 196 138.8 195.4 137.9 195.2C136.9 194.9 137.1 194.5 137.5 194L139.9 190.4C140.038 190.207 140.169 189.967 140.3 189.726C140.644 189.096 140.993 188.455 141.5 188.6C141.998 188.725 141.914 189.275 141.829 189.842ZM144.7 182.5C145.1 181.6 145.3 180.6 145.1 179.4C144.215 179.931 143.8 180.696 143.37 181.488C143.314 181.592 143.257 181.696 143.2 181.8C143.174 181.851 143.145 181.904 143.116 181.958C142.915 182.325 142.689 182.739 143.3 183C143.9 183.3 144.4 183 144.7 182.5Z" fill="#010101"/>
<path fill-rule="evenodd" clip-rule="evenodd" d="M169.5 192.6C174.1 192.6 177.8 188.8 177.8 184.3C177.8 182 176.8 180 175.2 178.9C171.756 176.735 167.828 175.829 163.988 174.943C163.925 174.929 163.862 174.914 163.8 174.9C162.1 174.6 159.5 178 160.1 179.6C160.2 179.8 160.4 180.1 160.6 180.2C161.68 180.593 161.507 181.371 161.311 182.251C161.307 182.268 161.303 182.284 161.3 182.3C159.7 187.8 157.8 193.2 155.9 198.6L155.9 198.6C155.886 198.64 155.873 198.688 155.858 198.74C155.764 199.074 155.619 199.587 155.1 199.5C154.07 199.262 153.793 199.904 153.524 200.528C153.453 200.692 153.383 200.855 153.3 201C152.7 202.2 152.3 203.6 152 205C151.5 207.3 151.9 208.1 154.2 208.4C156.4 208.7 158.6 209.3 160.7 210.1C162.1 210.7 163.1 210.2 163.5 208.8C163.642 208.266 163.772 207.719 163.903 207.169C164.139 206.173 164.378 205.166 164.7 204.2C165.1 203.1 164.7 202.5 163.9 202C162.1 200.7 162.1 200.5 163 198.5C163.1 198.2 163.225 197.925 163.35 197.65C163.475 197.375 163.6 197.1 163.7 196.8C165.1 192.6 165.1 192.6 169.5 192.6ZM168.146 186.107C168.306 186.09 168.464 186.073 168.6 186.1C170.7 186.1 171.6 185.6 171.5 184.3C171.5 183.5 169.8 182.2 168.7 182.2C168.2 182.2 167.1 184.3 167.2 185.4C167.273 186.202 167.717 186.154 168.146 186.107Z" fill="#010101"/>
<path d="M147.2 86.1002C147.2 86.2002 146.9 86.6002 147.4 86.8002C147.8 87.0002 148.3 87.3002 148.7 86.7002C149.1 86.2002 149.7 85.8002 150.2 86.5002C150.7 87.2002 149.8 87.8002 149.5 88.0002C148.5 88.8002 147.3 88.6002 146.3 87.8002C145.3 86.9002 145.6 85.7002 145.9 84.6002C146 84.2002 146.4 84.1002 146.7 84.3002C147.4 84.6002 147.5 85.2002 147.2 86.1002Z" fill="#0B0B0B"/>
<path d="M203.2 65.9001C203.6 65.4001 203.2 64.5001 204.1 64.4001C204.8 64.3001 204.9 64.9001 205 65.5001C205 66.0001 205.3 66.2001 205.7 65.8001C206.1 65.4001 206.5 65.3001 206.8 65.8001C207.1 66.3001 207 66.9001 206.5 67.3001C205.9 67.9001 205.2 67.9001 204.4 67.6001C203.6 67.3001 203.4 66.6001 203.2 65.9001Z" fill="#0E0E0E"/>
<path d="M124.2 40.6002C124.3 43.0002 123.1 44.4002 122.2 45.8002C120.8 47.8002 119.3 49.7002 117.7 51.5002C116.4 53.0002 115.7 53.0002 114.7 51.3002C111.7 46.3002 108.5 41.5002 105.2 36.6002C104.2 35.1002 103.3 33.3002 102 32.0002C101.5 31.5002 101.6 31.1002 102 30.5002C105 26.2002 108 21.8002 110.7 17.3002C111.3 16.3002 112 16.4002 112.7 17.2002C113.9 18.4002 114.6 20.1002 115.4 21.5002C118 26.3002 120.7 31.2002 122.6 36.3002C123.2 38.0002 124.1 39.4002 124.2 40.6002Z" fill="#030303"/>
<path d="M100.9 52.9001C98.9999 52.9001 97.8999 51.7001 97.9999 50.2001C97.9999 49.8001 98.0999 49.4 98.5999 49.3C98.9999 49.3 99.0999 49.6001 99.2999 49.9001C100.4 51.8001 100.4 51.8 101.7 50C102 49.6 102.3 49.3 102.8 49.6C103.2 49.8 103.1 50.2 103 50.6C102.5 51.8 101.8 52.8001 100.9 52.9001Z" fill="#0D0D0D"/>
<path d="M71.0999 27C69.8999 26.9 70.1999 26.1 70.5999 25.4C71.8999 23 73.1999 20.7 74.5999 18.4C75.3999 17.1 76.2999 15.8 76.9999 14.4C77.7999 12.9 79.3999 12.8 80.5999 12.4C85.5999 10.8 90.6999 9.40004 95.6999 7.90004C96.2999 7.70004 96.9 7.30004 97.4 7.80004C97.9 8.40004 97.3999 9.00004 97.0999 9.50004C94.3999 14 92.1999 18.7 89.0999 23C88.1999 24.2 87.1 24.5 85.9 24.7C82.0999 25.3 78.2999 25.7 74.4999 26.2C73.3999 26.4 72.2999 26.8 71.0999 27Z" fill="#030303"/>
<path d="M112 18.6001C115.5 25.1001 118.7 31.3001 121.6 37.8001C123.1 41.3001 122.1 43.6001 120.1 46.1001C119.1 47.4001 118.1 48.6001 117.1 49.9001C116.4 50.8001 116 50.7001 115.5 49.7001C112.2 44.1001 108.4 38.8001 105 33.3001C104.8 33.0001 104.7 32.7001 104.4 32.5001C103.3 31.6001 103.6 30.8001 104.4 29.8001C106.6 26.7001 108.7 23.4001 110.9 20.2001C111.2 19.8001 111.5 19.3001 112 18.6001Z" fill="#FEFEFE"/>
<path d="M73.0996 24.7001C74.4996 21.4001 76.3996 18.5001 78.2996 15.5001C78.9996 14.4001 80.1996 14.3001 81.2996 14.0001C85.3996 12.7001 89.5996 11.5001 93.7996 10.2001C94.2996 10.1001 94.6996 9.80012 95.2996 10.1001C92.8996 14.0001 90.8996 18.2001 88.0996 21.9001C87.6996 22.5001 87.1996 22.8001 86.4996 22.9001C82.2996 23.8001 77.9996 23.9001 73.7996 24.7001C73.4996 24.8001 73.3996 24.7001 73.0996 24.7001Z" fill="#FEFEFE"/>
</svg>
