<svg width="132" height="165" viewBox="0 0 132 165" fill="none" xmlns="http://www.w3.org/2000/svg">
<path d="M0.00292509 86.9078C-0.0448272 73.9402 0.480448 61.5924 2.43829 49.3398C4.30063 37.8978 8.55059 27.4093 16.3342 18.5894C18.6741 15.9196 20.8229 13.0591 23.4971 10.6276C29.7049 4.9543 37.202 2.28449 45.4631 1.42634C50.2861 0.94959 54.9658 -0.242289 59.8843 0.0437622C70.6763 0.711214 80.3701 3.95312 89.1087 10.6276C96.9401 16.7301 103.1 24.2627 109.069 31.8907C114.99 39.4711 117.951 48.577 121.007 57.6353C125.114 69.6971 126.165 82.3787 128.695 94.7742C130.176 101.926 131.561 109.029 131.513 116.371C131.465 121.282 131.465 126.24 130.701 131.055C129.746 137.3 126.499 142.735 122.201 147.217C117.474 152.127 109.499 151.412 105.297 146.502C101.954 142.64 97.9907 139.398 92.3081 139.732C90.8278 139.827 89.9683 140.256 89.3475 141.591C88.5835 143.26 87.7717 144.881 86.8644 146.454C83.1874 153.081 76.9319 154.273 71.5836 148.981C68.5275 145.93 64.7551 144.738 60.9349 143.498C57.2102 142.259 54.8703 143.927 54.0108 147.837C53.39 150.602 53.1035 153.462 51.7187 156.037C47.612 163.474 41.5952 164.237 35.9127 157.991C34.2891 156.18 32.7133 154.559 30.0391 154.464C28.4633 154.416 27.174 154.654 26.41 156.084C24.6909 159.136 21.778 161.043 19.4381 163.522C17.719 165.333 14.2809 165.381 12.514 163.474C9.98316 160.757 7.54779 157.848 7.30903 153.891C6.736 143.975 4.6349 134.297 3.01132 124.524C0.814715 111.842 0.623705 99.065 0.00292509 86.9078ZM61.7944 42.4746C61.6512 43.5235 61.9854 44.334 62.9405 44.6677C63.991 45.0491 64.8028 44.5723 65.3281 43.6188C65.9966 42.3793 66.3786 40.4246 67.3814 40.0432C68.5752 39.5664 69.5303 41.5211 70.7719 42.1409C71.8224 42.713 72.9685 42.856 73.7325 41.7595C74.401 40.7583 74.1623 39.5188 73.2072 39.042C69.4348 37.1827 68.5275 34.7989 70.9629 31.1756C71.5836 30.3175 71.0106 29.1256 69.8646 28.6965C68.814 28.3151 68.0022 28.7919 67.4769 29.6977C66.7607 30.9372 66.7129 32.9873 65.4713 33.2733C64.1343 33.5594 62.9405 31.8907 61.6989 31.0803C60.6484 30.4128 59.5501 30.1744 58.7383 31.271C57.831 32.4628 58.404 33.5117 59.5023 34.3222C59.6933 34.4652 59.8843 34.6082 60.0753 34.7513C61.3169 35.6094 63.1792 36.2292 63.5612 37.3734C63.8955 38.4699 62.654 40.0432 62.1287 41.4258C61.9854 41.8072 61.8899 42.1886 61.7944 42.4746ZM35.2441 52.6771C36.7245 52.7724 37.775 51.2468 37.0587 49.8643C36.7722 49.3398 36.2469 48.9108 35.7217 48.577C32.6655 46.241 32.6655 46.241 34.2413 42.7607C34.8144 41.5688 34.9099 40.3769 33.6206 39.6618C32.188 38.899 31.2807 39.8048 30.6122 41.0444C28.7976 44.2863 28.7976 44.2386 25.4549 42.5223C25.3117 42.4269 25.1684 42.3793 25.0251 42.3316C24.0701 41.7595 23.1628 41.9025 22.4943 42.8083C21.7302 43.8095 22.0167 44.8107 22.924 45.5258C23.8791 46.241 24.8819 46.8607 25.9802 47.3375C27.2217 47.8619 27.2217 48.434 26.6965 49.4829C26.0757 50.6747 25.6937 51.962 25.1684 53.2015C24.7386 54.3457 24.6431 55.4423 25.9802 56.0144C27.4128 56.6341 28.1768 55.6806 28.7021 54.4888C29.1318 53.4876 29.7049 52.4864 30.0391 51.4375C30.5167 49.8643 31.1852 49.9119 32.3312 50.8654C33.1908 51.5806 34.0981 52.4387 35.2441 52.6771Z" fill="black"/>
</svg>
