<svg width="253" height="249" viewBox="0 0 253 249" fill="none" xmlns="http://www.w3.org/2000/svg">
<path d="M134.311 84.1364C132.06 83.9406 129.71 84.43 127.263 84.9195C124.424 85.5069 122.466 87.6606 120.312 89.3248C119.431 90.01 118.648 90.7932 117.767 91.4784C116.886 92.1637 115.907 92.1637 114.83 91.87C110.621 90.989 106.705 89.4227 102.593 88.2479C98.0903 87.0732 93.6851 85.3111 89.084 84.43C85.4619 83.7448 81.9377 82.6679 78.4135 81.8848C73.9104 80.9058 69.4072 80.1227 65.002 79.0458C61.4778 78.2627 57.9536 77.2837 54.4294 76.5006C52.1778 76.0111 49.8283 75.5216 47.5767 75.1301C46.5978 74.9343 46.1083 74.5427 46.0104 73.4658C45.9125 71.9974 46.2062 70.529 45.8146 68.9627C44.6399 64.3617 41.5073 61.6206 37.1999 60.4459C34.6547 59.7606 31.9136 60.4459 29.1726 60.7396C26.1378 61.1311 24.18 63.089 22.1242 64.8511C19.6768 67.0048 17.1315 67.2006 14.0968 66.2216C11.6495 65.4385 9.20209 64.7532 6.85262 63.7743C4.79683 62.7953 3.91578 61.3269 4.01368 59.1732C4.11157 57.509 3.6221 57.0196 2.05579 57.3132C1.07684 57.509 0.489473 57.0196 0.195789 56.0406C-0.0978946 54.768 0 53.4954 0.0978945 52.2227C0.0978945 51.5375 0.685262 51.2438 1.37052 51.3417C2.44736 51.4396 3.71999 51.8312 4.40525 51.3417C5.18841 50.7543 4.60104 49.2859 4.69894 48.2091C4.89473 41.9438 7.83156 37.0491 12.1389 32.9375C13.3137 31.8607 14.3905 30.7838 15.5652 29.707C15.761 29.5112 16.0547 29.3154 15.9568 29.1196C15.0758 28.0428 15.1737 26.3786 13.8031 25.5954C13.6073 25.4975 13.2158 25.3017 13.2158 25.1059C13.1179 23.1481 12.9221 21.0923 13.3137 19.1344C13.5094 18.1554 15.5652 17.4702 16.5442 17.9596C16.9358 18.1554 17.2294 18.4491 17.1315 18.8407C16.4463 20.6028 16.9358 22.5607 16.2505 24.3228C15.9568 25.008 16.0547 25.6933 16.4463 26.3786C17.3273 28.2386 17.621 28.2386 19.1873 26.9659C22.4179 24.2249 25.6484 21.4838 28.8789 18.7428C31.1305 16.8828 33.1863 14.827 35.4378 13.0649C39.6473 9.63861 43.4652 5.82072 47.9683 2.78599C50.7094 0.925992 53.6462 0.534414 56.583 1.12178C62.6525 2.39441 68.722 3.96072 74.6935 5.52704C83.1125 7.77861 91.4335 10.0302 99.8524 11.8902C105.041 13.0649 110.131 14.2396 115.418 15.0228C119.725 15.7081 123.934 16.7849 128.144 17.9596C132.06 19.0365 136.171 19.7217 140.087 20.6028C147.331 22.1691 154.38 24.3228 161.526 26.0849C165.638 27.1617 169.651 28.0428 173.763 28.8259C176.798 29.4133 179.441 30.7838 180.909 34.0143C182.671 37.8322 183.552 41.8459 184.433 45.9575C184.825 47.8175 185.119 49.6775 185.804 51.3417C187.076 54.4743 187.174 57.9006 187.958 61.1311C188.545 63.4806 188.643 65.8301 188.936 68.2774C189.23 71.1164 188.447 73.9553 187.958 76.6964C187.37 79.7311 186.783 82.7658 186.489 85.8985C186.293 88.3458 185.804 90.7932 185.216 93.1426C184.629 95.1005 184.727 96.9605 184.727 98.8205C184.629 101.464 183.552 102.638 181.007 102.638C179.636 102.638 178.266 102.834 176.798 102.443C176.112 102.247 174.644 103.519 174.742 104.303C174.84 106.358 174.252 108.218 173.567 110.078C173.078 111.253 172.392 111.743 170.924 111.253C167.693 110.274 164.854 108.708 161.918 107.337C160.449 106.652 159.862 104.694 160.547 102.345C160.841 101.366 160.449 101.268 159.862 101.072C157.414 100.191 154.771 100.289 152.324 99.7995C151.051 99.6037 149.779 99.5058 148.506 99.31C147.331 99.1142 146.646 98.7226 146.548 97.3521C146.45 96.2753 146.45 95.1984 146.352 94.1216C146.157 90.989 144.884 88.4437 141.947 86.9753C141.751 86.8774 141.556 86.7795 141.458 86.5837C138.521 84.1364 138.521 84.1364 134.311 84.1364Z" fill="#030303"/>
<path d="M226.43 149.432C226.038 145.81 225.353 142.775 223.395 139.936C221.241 136.804 218.207 134.454 215.661 131.713C214.682 130.734 213.312 130.245 212.137 129.462C211.55 129.07 210.962 128.678 211.452 127.993C211.941 127.21 212.529 127.895 213.116 128.189C217.913 131.126 223.003 133.769 228.583 134.944C231.814 135.629 235.142 135.335 238.275 134.258C239.939 133.671 241.701 133.475 243.365 132.398C241.408 131.811 239.45 131.42 237.688 130.93C235.24 130.245 233.282 128.874 231.52 127.112C229.073 124.763 226.528 122.609 223.297 121.238C222.612 120.945 221.927 120.847 221.339 120.651C220.85 120.553 220.654 120.26 220.556 119.77C220.556 119.281 220.948 119.183 221.241 118.987C222.514 118.4 223.884 118.693 225.255 118.497C228.779 118.008 232.303 117.225 235.925 117.323C240.233 117.421 244.344 118.693 248.358 120.064C248.554 120.162 248.75 120.162 248.945 120.26C249.043 120.26 249.141 120.26 249.435 120.162C246.498 115.267 242.68 111.743 237.198 110.176C233.576 109.197 229.954 108.806 226.332 108.316C222.024 107.729 217.521 107.142 213.41 105.575C211.941 104.988 211.843 104.596 213.018 103.617C214.584 102.345 216.151 101.17 217.717 99.9953C219.186 98.8206 219.773 97.1564 220.556 95.5901C220.654 95.3943 220.654 95.1006 220.556 95.0027C220.262 94.709 219.871 94.9048 219.479 95.1006C217.423 95.8838 215.466 96.6669 213.41 97.4501C212.627 97.7438 211.648 98.2332 211.158 97.4501C210.571 96.569 211.648 96.0796 212.333 95.5901C212.529 95.4922 212.627 95.2964 212.92 94.9048C211.648 95.1985 210.669 95.688 209.788 96.2754C205.676 98.6248 201.173 100.191 196.67 101.66C191.09 103.52 185.608 105.477 180.224 107.827C179.734 108.023 179.342 108.414 178.853 108.708C178.363 109.002 177.678 109.785 177.189 108.904C176.797 108.121 177.482 107.631 178.168 107.337C179.93 106.554 181.79 105.673 183.552 104.89C189.523 102.345 195.789 100.583 201.858 98.2333C206.851 96.1775 211.746 94.1217 215.759 90.3038C215.857 90.2059 215.955 90.2059 216.053 90.108C216.444 89.4227 217.032 88.5417 217.913 89.0312C218.99 89.7164 218.011 90.4996 217.619 91.2827C217.13 92.1638 216.738 93.0448 216.249 94.0238C216.151 94.1217 216.249 94.3175 216.249 94.6112C218.99 93.828 221.535 92.9469 223.395 90.5975C223.689 90.2059 224.374 89.7164 224.863 90.108C225.353 90.4996 225.157 90.9891 224.863 91.4785C224.178 92.5554 223.689 93.6322 222.906 95.1006C225.353 94.1217 227.604 93.828 229.856 93.828C230.835 93.828 231.031 93.2406 230.541 92.4575C229.758 91.087 228.877 89.8143 227.702 88.7375C227.115 88.1501 226.528 87.6606 227.311 86.7796C227.898 86.0943 227.507 85.8006 226.626 85.6049C224.374 85.0175 222.024 84.8217 219.773 84.2343C219.283 84.1364 218.794 84.1364 218.696 83.4512C218.598 82.8638 218.99 82.668 219.479 82.3743C221.731 81.2975 223.884 79.8291 225.744 78.2628C227.311 76.8922 228.388 75.1301 229.562 72.8786C225.157 75.0322 220.85 76.1091 216.738 77.9691C215.955 78.3607 215.074 78.8501 214.291 78.1649C213.703 77.5775 213.997 76.6965 214.291 75.9133C215.466 71.7038 216.738 67.4944 218.99 63.6765C219.186 63.3828 219.088 63.0891 218.892 62.6975C216.836 64.166 214.878 65.6344 212.822 66.907C210.081 68.6691 207.242 70.5291 204.501 72.3891C203.425 73.1722 202.837 71.9975 202.641 71.2144C202.25 70.1375 202.054 68.9628 202.152 67.5923C200.879 68.2775 200.586 69.4523 200.194 70.4312C198.726 74.0533 196.572 77.3817 195.006 80.9059C194.81 81.2975 194.516 81.2975 194.222 81.2975C193.831 81.1996 193.537 80.9059 193.635 80.5143C193.733 80.0249 193.831 79.5354 194.125 79.1438C196.376 75.9133 197.649 72.2912 199.313 68.8649C200.292 66.907 201.662 65.1449 201.956 62.8933C202.054 62.4038 202.446 62.0123 203.033 62.1102C203.522 62.2081 203.62 62.5017 203.718 62.9912C204.306 64.9491 203.718 66.907 203.914 68.9628C204.012 69.5502 203.718 70.3333 204.403 70.5291C204.893 70.7249 205.187 70.0396 205.578 69.7459C208.221 68.0817 210.962 66.4175 213.508 64.6554C215.955 62.9912 218.304 61.2291 220.654 59.5649C221.046 59.2712 221.437 58.6839 222.024 59.0754C222.71 59.5649 222.416 60.0544 222.122 60.6417C219.871 64.7533 218.011 68.9628 216.64 73.4659C216.347 74.4449 216.053 75.3259 215.759 76.4028C217.228 76.3049 218.5 75.5217 219.675 75.0322C222.71 73.6617 226.038 72.9765 229.073 71.3123C229.66 71.0186 230.248 70.627 230.835 70.2354C231.227 69.9417 231.716 69.7459 232.108 70.1375C232.499 70.5291 232.499 71.0186 232.206 71.508C230.052 75.1301 228.094 78.948 224.374 81.2975C223.689 81.6891 223.101 82.2764 222.318 82.9617C224.766 83.5491 227.017 84.0385 229.269 84.6259C229.758 84.7238 230.15 84.9196 230.639 85.1154C231.227 85.4091 232.108 85.7028 232.01 86.5838C231.912 87.5627 231.031 87.4649 230.248 87.5627C229.464 87.5627 229.073 87.7585 229.758 88.7375C230.639 90.0101 231.422 91.4785 232.108 92.9469C232.891 94.6112 232.597 95.1985 230.737 95.4922C227.996 95.8838 225.255 96.2754 222.514 96.6669C221.731 96.7648 221.731 97.4501 221.535 97.9396C221.241 98.6248 220.262 99.2122 220.458 99.9953C220.752 100.876 221.829 100.289 222.612 100.583C224.178 101.268 225.842 101.66 227.702 102.345C227.017 101.17 226.43 100.289 225.94 99.3101C225.647 98.8206 225.157 98.2333 225.94 97.6459C226.723 96.9606 227.311 97.4501 227.8 97.8417C229.66 99.408 231.814 100.485 234.163 100.974C236.709 101.464 239.254 101.757 241.799 101.855C242.289 101.855 242.876 101.757 242.876 101.464C242.974 100.974 242.387 100.974 242.093 100.681C239.058 98.8206 236.807 96.0796 234.555 93.4364C233.478 92.1638 234.359 91.6743 235.24 91.5764C240.429 90.8912 243.561 87.4649 246.4 83.5491C246.89 82.9617 247.673 82.4722 247.575 81.3954C243.659 81.4933 239.939 80.9059 236.121 80.3186C234.947 80.1228 233.674 79.927 232.499 79.6333C231.324 79.3396 231.129 78.2628 232.01 77.3817C234.066 75.4238 236.023 73.4659 237.785 71.2144C240.82 67.4944 243.268 63.3828 244.834 58.6839C244.932 58.2923 245.128 57.8028 244.736 57.5091C244.344 57.2154 244.051 57.7049 243.757 57.9007C238.275 62.4039 232.01 65.3407 225.647 68.1796C224.961 68.4733 224.276 68.767 223.787 67.9838C223.297 67.2986 224.08 66.907 224.472 66.5154C227.8 62.4039 229.367 57.607 230.052 52.4186C230.248 50.6565 230.541 48.8944 230.933 46.9365C228.583 48.307 226.528 49.5797 224.374 50.6565C218.402 53.5933 213.508 57.7049 209.004 62.5017C208.613 62.9912 208.221 63.5786 207.83 64.0681C207.634 64.3617 207.242 64.6554 206.851 64.4596C206.361 64.2638 206.459 63.8723 206.459 63.4807C206.557 62.5996 207.145 61.9144 207.536 61.1312C209.788 56.5302 209.983 51.6355 209.592 46.447C208.221 47.8176 207.438 49.286 206.361 50.5586C204.012 53.5933 201.662 56.5302 199.607 59.7607C196.376 65.1449 193.635 70.7249 192.265 76.8922C192.069 77.7733 192.167 78.7522 192.069 79.6333C191.971 80.0249 191.775 80.5143 191.188 80.4164C190.698 80.3185 190.796 79.8291 190.796 79.4375C190.698 76.5007 191.579 73.8575 192.46 71.1165C194.81 64.2638 198.432 58.2923 202.837 52.5165C204.795 49.9712 206.655 47.3281 208.515 44.6849C208.613 44.4891 208.907 44.3913 208.907 44.1955C209.004 43.4123 209.298 42.6292 210.081 42.6292C211.06 42.6292 211.06 43.8039 211.06 44.3913C211.452 48.6986 212.137 53.006 210.571 57.2154C210.473 57.4112 210.473 57.7049 210.473 57.9986C210.473 58.0965 210.571 58.2923 210.669 58.586C213.606 55.5512 216.934 53.1039 220.556 50.9502C222.514 49.7755 224.57 48.6986 226.626 47.5239C228.29 46.6428 229.856 45.6639 231.227 44.2934C231.52 43.9997 231.716 43.4123 232.206 43.706C232.597 43.9018 232.695 44.3913 232.695 44.8807C232.793 47.2302 232.108 49.5797 231.814 51.9291C231.618 53.4954 231.324 55.0618 231.129 56.726C230.737 59.6628 228.975 62.0123 227.898 64.6554C227.8 64.8512 227.604 64.9491 227.898 65.4386C229.562 64.7533 231.227 64.0681 232.891 63.2849C237.198 61.1312 241.114 58.4881 244.932 55.5512C245.225 55.3554 245.519 55.0618 245.813 54.866C246.204 54.6702 246.302 53.887 246.988 54.2786C247.477 54.5723 247.477 55.1597 247.379 55.5512C246.694 59.2712 245.323 62.7954 243.365 66.1238C240.918 70.2354 237.883 73.9554 234.359 77.2838C234.261 77.3817 234.163 77.5775 233.87 77.9691C236.121 78.3607 238.177 78.8501 240.233 79.1438C242.778 79.4375 245.421 79.6333 247.967 79.5354C248.26 79.5354 248.652 79.5354 248.945 79.5354C249.435 79.5354 250.022 78.6543 250.61 79.6333C251.099 80.5143 250.512 81.0038 250.12 81.4933C247.575 84.7238 245.225 88.1501 241.897 90.4996C240.624 91.3806 239.254 91.968 237.883 92.3596C236.807 92.6533 236.611 93.1427 237.492 93.9259C239.743 96.0796 241.799 98.6248 244.736 99.9953C245.03 100.093 245.323 100.289 245.519 100.583C245.911 100.974 246.498 101.268 246.302 101.855C246.107 102.443 245.519 102.541 245.03 102.541C239.939 103.128 235.044 102.736 230.346 100.583C229.954 100.387 229.66 100.289 229.073 100.485C229.758 101.366 230.346 102.149 230.933 103.03C231.227 103.52 231.618 104.107 230.933 104.694C230.248 105.282 229.954 104.89 229.367 104.596C226.332 102.932 223.395 101.366 219.773 101.464C217.913 101.464 217.032 102.932 215.759 103.911C215.27 104.303 215.759 104.694 216.249 104.694C220.752 105.477 225.059 106.554 229.66 106.946C237.002 107.533 243.855 109.589 248.945 115.561C250.218 117.127 251.197 118.791 252.078 120.553C252.274 121.043 252.372 121.532 251.98 121.924C251.589 122.315 251.099 122.413 250.512 122.217C247.967 121.336 245.323 120.455 242.778 119.672C238.96 118.595 235.142 118.791 231.324 119.183C229.464 119.378 227.702 119.672 225.842 120.26C229.464 122.12 232.108 124.861 234.947 127.406C236.807 129.168 239.45 129.266 241.799 129.951C243.659 130.538 245.519 130.343 247.379 130.343C248.162 130.343 249.239 130.245 249.337 131.224C249.435 132.105 248.554 132.301 247.771 132.594C245.128 133.671 242.484 135.042 239.743 135.727C232.205 137.489 229.269 137.195 221.927 134.258C223.199 136.021 224.374 137.685 225.647 139.349C227.604 141.894 228.29 144.929 228.583 147.964C228.779 149.432 229.171 150.901 228.975 152.467C228.877 152.858 229.171 153.348 228.583 153.544C227.996 153.642 227.8 153.348 227.507 152.858C225.647 149.726 223.003 147.278 219.871 145.516C217.619 144.244 215.074 143.656 212.529 143.363C208.319 142.775 204.306 141.894 200.879 138.957C200.781 141.111 201.956 142.677 202.348 144.537C202.935 147.278 202.935 150.117 203.033 152.956C203.033 153.446 202.837 153.837 202.446 154.033C201.858 154.229 201.662 153.837 201.467 153.446C198.138 147.572 192.362 144.048 187.663 139.447C185.803 137.587 184.629 135.335 183.748 132.888C183.552 132.301 183.356 131.811 183.062 130.734C182.181 132.888 181.105 134.454 179.93 136.021C179.636 136.314 179.44 136.804 179.147 136.999C178.755 137.195 178.364 137.881 177.776 137.391C177.287 136.999 177.385 136.51 177.58 135.923C178.363 133.182 178.07 130.441 177.874 127.602C177.678 122.609 176.112 118.008 174.937 113.309C174.839 112.82 174.839 112.232 174.937 111.743C175.035 111.449 175.329 111.253 175.72 111.253C176.014 111.253 176.21 111.449 176.21 111.743C176.895 115.267 178.168 118.693 178.755 122.217C179.342 125.644 179.342 128.972 179.44 132.398C179.44 132.692 179.44 132.888 179.44 133.279C180.517 132.79 180.713 131.909 181.105 131.126C181.594 130.049 181.888 128.385 183.356 128.483C184.727 128.581 184.629 130.245 184.922 131.322C185.803 135.139 188.251 138.076 191.188 140.426C194.418 143.069 197.355 145.908 200.39 148.845C200.586 149.041 200.781 149.334 201.271 149.334C201.956 146.495 200.879 144.048 199.998 141.601C199.215 139.251 198.334 136.999 197.453 134.748C197.159 134.063 196.866 133.377 197.649 133.084C198.334 132.79 198.628 133.573 199.019 134.063C200.292 135.825 201.76 137.293 203.425 138.762C205.774 140.719 208.613 140.915 211.354 141.601C213.703 142.188 216.151 142.384 218.5 143.167C220.948 144.439 223.493 146.887 226.43 149.432Z" fill="#030303"/>
<path d="M28.291 111.351C27.0183 114.581 24.3752 116.833 22.9068 119.77C22.5152 120.455 22.3194 121.434 21.3404 121.434C20.2636 121.434 20.0678 120.357 19.6762 119.672C19.2847 118.889 18.8931 118.204 18.5015 117.323C17.5226 118.399 17.9141 119.77 17.6205 120.945C17.131 123.294 16.9352 125.741 16.8373 128.189C16.7394 131.224 15.9562 134.16 16.0541 137.195C16.0541 137.782 15.6626 138.468 15.271 138.468C13.411 138.566 11.6489 139.545 9.78889 138.664C9.00573 138.37 8.61415 137.978 8.71205 137.195C8.90784 134.16 8.90784 131.028 9.39731 127.993C9.49521 127.504 9.39731 127.014 9.39731 126.525C9.39731 116.246 9.39731 105.967 9.39731 95.6878C9.39731 93.2405 11.8447 91.7721 14.0962 92.9468C16.4457 94.1215 18.2078 96.1773 19.872 98.0373C21.0468 99.3099 22.1236 100.778 23.1025 102.247C23.6899 103.226 23.9836 102.932 24.3752 102.247C25.3541 100.583 26.431 98.9184 27.2141 97.1563C28.4867 94.4152 30.8362 92.8489 33.3815 91.3805C35.1436 90.4015 37.493 91.7721 37.1994 93.7299C36.1225 102.051 36.7099 110.47 36.3183 118.889C36.2204 121.63 36.4162 124.469 36.0246 127.21C35.5352 130.538 36.0246 133.965 35.3394 137.293C35.1436 138.468 34.2625 138.957 33.3815 138.761C32.011 138.468 30.5425 138.664 29.172 138.566C27.8994 138.468 27.1162 137.88 27.1162 136.51C27.312 131.517 27.5078 126.525 27.9973 121.532C28.3889 118.301 29.0741 114.875 28.291 111.351Z" fill="#010101"/>
<path d="M68.4283 111.841C69.1136 107.337 69.3094 103.128 69.2115 98.9185C69.2115 97.7437 69.1136 96.569 69.2115 95.2964C69.3094 94.0237 70.0925 93.3385 71.2673 93.5343C72.2462 93.73 73.2251 93.8279 74.1062 93.73C75.3788 93.6322 75.8683 94.4153 75.7704 95.3943C75.6725 101.072 76.0641 106.848 76.2599 112.526C76.5536 119.77 76.0641 127.014 76.2599 134.258C76.3578 138.174 76.3578 138.076 72.5399 137.978C72.0504 137.978 71.5609 137.978 71.0715 137.978C69.603 137.783 68.4283 137.293 67.8409 135.531C66.0788 130.441 64.9041 125.154 63.142 119.966C63.0441 119.574 63.142 118.987 62.4567 119.085C61.9673 119.183 61.9673 119.77 61.9673 120.162C61.6736 124.958 60.9883 129.755 61.1841 134.552C61.1841 135.531 60.9883 136.608 60.8904 137.587C60.8904 137.685 60.8904 137.685 60.8904 137.783C60.5967 138.566 57.4641 139.447 56.1915 139.153C54.9189 138.859 54.9189 137.88 54.9189 136.902C54.9189 133.573 54.821 130.245 54.9189 126.916C55.1146 121.238 54.7231 115.658 54.4294 109.981C54.2336 105.477 54.2336 100.974 54.1357 96.4711C54.0378 93.8279 54.3315 93.5343 56.5831 93.0448C59.3241 92.4574 60.6946 93.4364 61.282 95.1985C62.8483 100.289 65.7852 104.792 67.4494 109.785C67.6452 110.372 67.9388 110.862 68.4283 111.841Z" fill="#010101"/>
<path d="M192.363 215.021C192.363 211.693 192.363 208.462 192.363 205.134C192.363 204.057 192.461 202.98 193.538 202.491C194.713 201.903 195.985 201.61 197.258 202.393C198.433 203.176 199.607 204.057 200.488 205.232C202.642 208.071 205.187 210.714 207.243 213.651C207.439 213.847 207.732 214.14 208.026 214.14C208.418 214.042 208.516 213.651 208.516 213.259C208.516 211.008 208.516 208.658 208.516 206.407C208.516 205.623 208.614 204.938 208.809 204.155C209.103 203.078 209.69 202.393 210.865 202.197C212.138 202.001 213.117 202.491 213.704 203.568C214.683 205.33 215.172 207.288 215.27 209.246C215.368 212.28 215.368 215.315 215.466 218.35C215.564 223.049 215.172 227.748 215.27 232.447C215.27 233.132 215.075 233.915 214.781 234.6C213.606 237.243 211.159 238.222 209.103 235.481C206.754 232.447 204.796 229.118 203.229 225.594C203.034 225.104 203.131 224.223 202.348 224.321C201.957 224.419 201.957 225.202 201.957 225.692C201.565 228.824 202.153 231.957 201.076 234.992C200.684 236.069 200.39 237.243 199.509 237.929C197.062 239.984 194.419 238.81 193.538 235.286C193.048 233.426 193.146 231.566 192.95 229.706C192.069 225.007 192.461 219.916 192.363 215.021Z" fill="#010101"/>
<path d="M8.61541 170.381C8.61541 168.423 8.71331 166.465 8.61541 164.508C8.51752 163.333 9.10489 162.941 9.98594 162.745C11.9438 162.452 13.9017 162.745 15.7617 163.039C16.3491 163.137 16.447 163.627 16.447 164.214C16.1533 167.053 17.0343 169.892 16.8386 172.829C16.7407 174.199 17.1322 175.374 17.6217 176.549C18.0133 177.625 18.6986 177.625 19.5796 176.94C21.5375 175.374 22.1249 173.318 22.2228 170.969C22.3206 167.836 22.2228 164.703 22.3206 161.473C22.4185 158.536 22.6143 155.599 22.6143 152.76C22.6143 150.998 22.1249 149.236 22.2228 147.474C22.3206 146.201 22.8101 145.614 24.0828 145.614C25.4533 145.614 26.9217 145.614 28.2922 145.516C29.6627 145.418 30.348 146.006 30.4459 147.474C30.5438 148.747 30.0543 149.921 30.0543 151.194C29.9564 156.97 30.348 162.745 30.5438 168.521C30.6417 172.731 29.8585 176.646 29.4669 180.758C29.2712 183.01 29.0754 185.163 27.5091 186.925C23.3975 191.722 17.4259 192.701 13.2165 188.492C10.6712 185.849 9.69225 182.324 8.9091 178.8C8.32173 175.961 8.61541 173.122 8.61541 170.381Z" fill="#010101"/>
<path d="M136.759 222.168C137.934 221.385 138.228 220.014 139.5 219.525C141.263 218.839 142.046 219.035 142.731 220.797C142.927 221.189 142.829 221.776 143.416 221.678C143.906 221.58 143.906 220.993 143.808 220.601C143.318 217.077 143.514 213.553 143.514 210.127C143.514 207.288 143.612 207.19 146.255 206.603C146.549 206.505 146.843 206.309 147.136 206.309C150.66 205.624 152.129 206.798 152.227 210.42C152.423 217.175 151.346 223.832 151.542 230.489C151.542 232.251 151.346 234.013 151.248 235.775C151.15 237.341 149.29 239.593 148.115 239.789C145.668 240.18 144.591 239.593 143.514 237.341C142.731 235.677 142.144 233.915 141.067 232.349C140.186 232.74 139.892 233.524 139.598 234.307C138.913 236.167 138.13 237.831 137.053 239.495C136.074 240.964 134.899 241.649 133.235 241.257C131.669 240.964 131.179 239.495 131.082 238.222C130.592 232.74 129.809 227.356 129.515 221.874C129.319 217.86 128.732 213.945 128.243 210.029C128.145 208.952 128.438 207.973 129.613 207.875C131.277 207.875 132.746 207.386 134.41 207.386C135.976 207.386 136.662 208.267 136.662 209.539C136.662 212.77 137.053 215.903 136.368 219.133C136.074 220.014 136.466 221.091 136.759 222.168Z" fill="#010101"/>
<path d="M42.8774 227.16C42.5837 224.321 43.3669 221.58 43.1711 218.741C43.0732 217.469 43.4648 216.196 43.6606 214.923C43.8563 213.749 44.8353 213.749 45.5205 214.042C46.4995 214.336 47.5763 214.434 48.5553 214.336C50.1216 214.14 50.5132 215.021 50.6111 216.294C50.709 217.664 50.8069 219.035 50.9048 220.308C51.1984 224.811 52.1774 229.216 51.59 233.719C51.2963 236.754 51.6879 239.593 51.59 242.628C51.59 243.509 51.3942 244.39 51.2963 245.173C51.1984 246.152 50.3174 246.445 49.8279 246.347C48.1637 245.956 46.5974 246.25 45.0311 246.152C44.0521 246.152 43.4648 245.76 43.0732 244.781C42.4858 242.921 41.5069 241.159 40.5279 239.397C40.3321 239.103 40.3321 238.516 39.8427 238.614C39.2553 238.712 39.1574 239.299 39.1574 239.789C39.2553 241.649 38.9616 243.411 38.7658 245.271C38.6679 246.641 38.0806 247.522 36.6121 247.522C36.3185 247.522 35.9269 247.522 35.6332 247.62C32.8922 248.208 31.8153 247.424 31.7174 244.585C31.4237 238.614 30.249 232.74 29.9553 226.769C29.8574 223.832 29.8574 220.797 29.8574 217.762C29.8574 216.979 30.5427 216.392 31.2279 216.196C33.8711 215.413 36.3185 216.49 37.5911 218.937C39.0595 221.58 40.43 224.223 41.8985 226.866C42.1921 227.062 42.29 227.258 42.8774 227.16Z" fill="#010101"/>
<path d="M109.642 116.442C111.208 112.918 111.991 109.491 113.166 106.163C113.753 104.401 114.634 104.107 116.103 105.184C116.886 105.771 117.669 106.359 118.648 106.75C119.333 107.044 119.823 107.631 119.529 108.415C117.865 112.722 117.277 117.225 116.005 121.63C114.83 125.644 113.753 129.756 113.068 133.867C112.872 134.944 112.383 135.825 111.012 135.531C109.642 135.336 108.369 135.531 106.998 135.336C105.922 135.14 105.432 134.552 105.334 133.671C104.159 127.21 102.299 121.043 100.733 114.68C99.5584 109.883 98.7752 104.988 97.7963 100.192C97.5026 98.821 96.8173 97.6462 96.7194 96.1778C96.5236 94.8073 97.2089 94.0241 98.5794 93.8284C100.342 93.4368 102.104 93.9262 103.964 94.0241C105.138 94.0241 105.432 95.3947 105.726 96.4715C106.705 100.779 107.684 104.988 108.565 109.296C108.858 111.449 109.152 113.799 109.642 116.442Z" fill="#010101"/>
<path d="M167.009 177.528C167.204 180.759 166.225 183.695 163.582 185.849C160.743 188.101 154.772 189.178 152.227 184.479C150.758 181.835 148.702 179.584 148.017 176.647C147.723 175.374 147.723 174.004 147.919 172.829C148.213 171.067 150.66 170.578 152.227 171.948C153.303 172.829 153.989 174.102 154.674 175.276C155.163 176.158 155.751 177.039 157.023 177.039C158.002 177.039 158.59 176.647 158.981 175.668C159.96 173.319 159.275 171.165 158.394 168.913C157.121 165.977 155.065 163.529 153.891 160.592C152.227 156.187 152.324 152.075 155.457 148.355C156.338 147.279 157.611 146.985 158.59 147.377C162.995 149.237 166.813 151.782 168.673 156.383C169.162 157.753 169.162 159.124 168.673 160.494C167.89 162.648 166.813 162.942 164.855 161.963C164.365 161.767 163.974 161.473 163.386 161.473C162.408 161.473 161.918 161.865 162.31 162.942C162.799 164.41 163.289 165.879 164.072 167.249C165.54 170.382 167.107 173.612 167.009 177.528Z" fill="#010101"/>
<path d="M179.441 203.666C180.909 203.861 182.867 203.47 184.727 203.959C185.902 204.253 186.391 204.938 186.293 206.015C186.098 208.071 185.902 210.029 185.608 212.084C185.412 213.651 183.846 213.357 182.867 213.553C181.986 213.749 181.203 213.651 181.301 214.923C181.399 216 180.811 217.175 182.769 217.273C184.238 217.371 185.217 218.252 184.923 220.014C184.825 220.797 184.923 221.678 184.923 222.461C184.825 223.538 184.531 224.321 183.161 224.321C181.986 224.223 181.594 224.909 181.692 225.985C181.79 228.531 181.692 228.531 184.238 228.922C186.881 229.314 187.762 230.489 187.762 233.23C187.762 234.796 187.86 236.362 187.077 237.831C186.587 238.712 185.902 239.201 184.923 239.299C182.378 239.397 179.832 239.397 177.189 239.397C175.525 239.397 174.546 238.32 174.448 236.656C174.057 231.076 173.665 225.496 173.371 219.916C173.176 215.315 172.784 210.714 172.686 206.015C172.686 204.449 173.371 203.861 174.742 203.861C176.21 203.666 177.581 203.666 179.441 203.666Z" fill="#010101"/>
<path d="M156.239 224.322C156.239 220.21 156.337 216.197 156.141 212.085C156.043 210.323 155.848 208.561 155.848 206.799C155.848 205.33 156.631 204.743 158.001 204.351C160.84 203.764 163.483 204.939 166.224 204.743C166.91 204.743 167.106 205.135 167.203 205.82C167.301 208.071 166.714 210.225 166.714 212.379C166.714 213.26 165.833 214.043 164.756 213.945C163.679 213.847 162.994 214.141 163.483 215.413C163.581 215.707 163.581 216.099 163.483 216.392C163.288 217.861 163.679 218.546 165.343 218.448C166.42 218.35 167.203 218.938 167.106 220.21C167.106 220.406 167.106 220.602 167.106 220.896C167.106 221.972 167.301 223.147 166.91 224.126C166.518 225.007 165.148 224.811 164.169 225.105C163.092 225.399 163.092 226.084 163.092 226.965C163.092 230.196 163.092 230.196 166.322 230.098C168.966 230 168.868 230 168.868 232.643C168.868 234.601 168.476 236.461 168.084 238.321C167.889 239.496 167.203 239.985 166.029 240.083C162.896 240.474 159.959 239.398 157.022 238.908C156.141 238.81 155.946 237.929 155.946 237.048C156.239 232.741 156.239 228.531 156.239 224.322Z" fill="#010101"/>
<path d="M101.319 242.921C99.7532 242.726 97.7953 243.117 95.8374 242.726C94.5648 242.53 94.1732 241.747 94.1732 240.572C93.8795 236.46 93.7816 232.349 93.39 228.335C92.9006 223.244 92.3132 218.056 91.7258 212.966C91.6279 211.987 91.9216 211.301 92.9006 211.203C96.229 211.008 99.5574 210.322 102.886 210.518C104.942 210.616 105.235 210.91 105.235 212.966C105.235 214.336 105.235 215.805 105.235 217.175C105.235 219.035 104.746 219.524 102.886 219.72C102.592 219.72 102.396 219.818 102.103 219.916C101.515 220.112 100.536 219.622 100.341 220.308C100.047 221.189 100.145 222.266 100.243 223.244C100.341 224.028 101.124 223.93 101.809 224.028C103.767 224.126 104.061 224.321 104.061 226.279C104.061 226.867 103.963 227.356 104.061 227.943C104.256 229.51 103.669 230.293 102.103 230.489C101.026 230.587 100.732 231.076 101.124 232.251C101.809 234.698 101.711 234.796 104.256 234.796C104.844 234.796 105.431 234.796 106.018 234.796C107.095 234.894 107.781 235.383 107.781 236.558C107.878 238.32 107.878 239.984 107.878 241.747C107.878 242.628 107.487 243.019 106.606 243.019C105.137 242.823 103.473 242.921 101.319 242.921Z" fill="#010101"/>
<path d="M114.537 232.643C114.635 228.042 113.852 223.93 113.558 219.721C113.461 218.84 112.873 219.035 112.384 219.035C108.076 219.231 108.957 218.252 108.859 215.413C108.859 213.945 109.153 212.477 108.664 211.106C108.468 210.519 108.859 209.931 109.545 209.736C110.034 209.638 110.524 209.442 110.915 209.442C114.635 209.638 118.257 208.854 121.977 209.05C124.523 209.246 125.012 209.638 125.012 212.183C125.012 213.064 125.012 214.043 125.012 214.924C125.012 217.078 124.718 217.469 122.663 217.861C121.684 218.057 121.488 218.448 121.39 219.329C121.194 224.713 121.879 230 122.173 235.286C122.271 237.048 122.76 238.712 122.858 240.572C122.858 241.258 122.76 241.943 121.879 241.845C120.215 241.747 118.551 242.139 116.887 242.236C115.614 242.334 115.027 241.649 115.125 240.474C115.027 237.733 114.146 234.992 114.537 232.643Z" fill="#010101"/>
<path d="M142.437 127.7C142.144 123.784 143.025 119.281 142.829 114.68C142.731 113.701 143.123 113.309 144.2 113.309C145.081 113.309 146.06 113.309 146.941 113.211C148.115 113.113 148.899 113.897 149.192 115.071C149.486 116.344 149.877 117.519 150.465 118.693C150.661 118.987 151.052 119.379 151.346 119.379C151.933 119.477 151.737 118.791 151.835 118.498C152.129 117.812 152.227 117.029 152.423 116.344C152.716 115.561 153.01 114.876 154.087 114.68C158.101 113.897 159.08 114.68 158.394 118.693C157.905 121.141 158.003 123.588 157.807 126.036C157.611 128.875 156.828 131.616 156.436 134.454C156.339 135.042 156.241 136.119 155.262 136.119C153.989 136.119 152.716 136.608 151.64 135.336C150.954 134.454 150.661 133.476 150.073 132.594C149.877 132.301 149.584 131.811 149.094 131.909C148.605 132.105 148.899 132.594 148.801 132.888C148.703 135.629 148.409 135.825 145.57 136.119C142.731 136.412 142.437 136.021 142.437 133.28C142.437 133.182 142.437 133.084 142.437 132.986C142.437 131.518 142.437 129.951 142.437 127.7Z" fill="#010101"/>
<path d="M49.9262 108.415C49.9262 112.526 50.122 116.54 49.9262 120.651C49.6325 125.938 49.6325 131.126 49.6325 136.412C49.6325 137.685 49.2409 138.664 47.6746 138.37C47.4788 138.37 47.381 138.37 47.1852 138.37C43.1715 138.468 42.7799 138.37 43.3673 134.259C43.661 131.909 43.2694 129.658 43.2694 127.308C43.2694 121.239 42.3883 115.169 42.9757 109.1C43.3673 105.184 42.8778 101.366 42.8778 97.4504C42.8778 97.2546 42.8778 97.0589 42.8778 96.7652C42.4862 93.1431 42.682 92.8494 46.3041 93.0452C50.0241 93.241 50.0241 93.241 50.0241 96.961C49.9262 100.779 49.9262 104.597 49.9262 108.415Z" fill="#010101"/>
<path d="M85.951 105.282C86.1468 115.365 86.4405 125.546 86.3426 135.629C86.3426 137.196 85.951 137.783 84.2868 137.685C83.4057 137.587 82.5247 137.587 81.6436 137.685C80.371 137.783 79.8815 137.098 79.8815 135.923C79.8815 135.336 79.8815 134.748 79.8815 134.161C80.1752 128.385 79.5878 122.609 79.3921 116.834C79.2942 113.211 79.49 109.589 79.0984 105.967C78.8047 102.443 78.9026 98.9189 78.8047 95.3947C78.8047 93.9262 79.3921 93.5347 80.7626 93.6326C81.7415 93.7304 82.8184 93.8283 83.7973 93.8283C85.3636 93.8283 85.951 94.5136 85.951 95.982C85.951 99.0168 85.951 102.149 85.951 105.282Z" fill="#010101"/>
<path d="M17.4255 234.894C17.7191 230.097 16.6423 225.3 16.7402 220.504C16.7402 218.154 17.0339 217.958 19.2855 218.252C20.4602 218.448 21.8307 217.958 22.9076 218.937C24.0823 219.916 23.2012 221.385 23.5928 222.461C24.376 224.615 23.8865 226.867 24.1802 229.02C24.8655 234.405 25.0612 239.985 25.3549 245.369C25.3549 245.76 25.3549 246.25 25.3549 246.641C25.3549 247.914 24.8655 248.599 23.5928 248.599C22.6139 248.599 21.6349 248.991 20.5581 248.991C18.9918 249.089 18.3065 248.404 18.0128 246.935C17.9149 246.641 17.9149 246.446 17.9149 246.152C18.1107 242.432 17.2297 238.712 17.4255 234.894Z" fill="#010101"/>
<path d="M164.854 130.343C165.148 128.091 163.778 126.623 162.799 124.959C160.743 121.63 160.351 117.127 164.952 115.365C167.204 114.484 169.553 115.169 171.511 116.638C173.567 118.204 173.665 120.455 173.371 122.805C173.371 123.099 173.175 123.49 173.078 123.882C172.98 124.567 172.49 125.056 171.805 125.154C171.218 125.252 170.826 125.056 170.532 124.371C170.434 123.98 170.239 123.392 169.651 123.686C169.162 123.98 169.064 124.469 169.26 124.959C169.553 126.133 170.336 127.112 170.728 128.287C172.392 132.399 169.945 136.021 166.616 137.391C164.952 138.076 163.288 137.685 161.82 136.51C160.155 135.14 159.079 130.93 159.862 128.972C160.253 127.798 161.232 127.798 162.211 127.7C163.19 127.7 163.875 127.895 164.169 128.972C164.267 129.462 164.561 129.853 164.854 130.343Z" fill="#010101"/>
<path d="M199.606 91.9679C198.04 91.1847 196.767 89.8142 195.397 88.7373C195.201 88.5416 195.201 88.2479 194.907 88.15C194.516 88.0521 193.83 88.4437 193.83 87.5626C193.83 86.8774 194.418 86.5837 195.005 86.29C196.669 85.6047 198.529 85.4089 200.291 85.2131C200.585 85.2131 201.075 85.4089 201.172 85.0174C202.053 83.2553 203.62 84.1363 204.697 84.2342C205.676 84.3321 206.557 84.3321 207.927 83.7447C206.165 83.7447 204.795 83.7447 203.424 83.7447C202.543 83.7447 201.564 83.6468 201.27 82.6679C201.075 81.6889 202.053 81.3953 202.739 81.0037C203.718 80.4163 204.697 79.7311 205.871 79.0458C203.522 78.4584 201.662 78.85 199.9 80.0247C198.823 80.71 197.648 81.2974 196.767 82.2763C196.473 82.6679 195.984 82.9616 195.495 82.57C194.809 82.0805 195.201 81.4932 195.592 81.1995C198.725 78.85 201.662 76.1089 206.067 77.3816C206.752 77.5774 207.536 77.1858 208.319 77.6753C208.906 78.0668 209.493 78.3605 209.298 79.1437C209.102 79.8289 208.612 80.3184 207.927 80.3184C206.655 80.3184 205.773 81.1016 204.892 81.6889C204.697 81.7868 204.305 81.8847 204.403 82.1784C204.501 82.6679 204.892 82.57 205.186 82.57C206.263 82.4721 207.438 82.2763 208.515 82.1784C209.2 82.1784 209.787 81.9826 210.472 82.3742C210.962 82.57 211.549 82.6679 211.647 83.3531C211.647 84.0384 211.158 84.3321 210.766 84.5279C208.906 85.6047 206.948 86.4858 204.697 85.9963C204.599 86.7795 205.088 86.8773 205.382 87.171C205.871 87.5626 206.361 88.15 205.969 88.6395C205.578 89.1289 204.892 89.031 204.305 88.7373C203.718 88.5416 203.13 88.2479 202.543 87.8563C200.683 86.7795 198.725 87.0731 196.669 87.6605C199.019 90.1079 201.956 91.6742 204.697 93.6321C205.186 94.0236 206.165 94.1215 205.871 95.0026C205.578 95.8836 204.795 95.4921 204.109 95.3942C201.76 95.1984 199.41 94.8068 197.355 93.5342C197.159 93.4363 196.865 92.9468 196.571 93.2405C196.376 93.4363 196.376 93.9258 196.473 94.1215C196.963 95.1005 196.767 96.0794 196.376 97.0584C196.278 97.3521 196.18 97.6458 195.788 97.6458C195.397 97.6458 195.201 97.45 195.005 97.1563C193.928 94.611 191.97 92.9468 189.817 91.3805C189.523 91.1847 188.936 90.891 189.327 90.3037C189.719 89.6184 190.404 89.7163 190.893 90.1079C191.579 90.5973 192.166 91.2826 192.851 91.87C193.145 92.1637 193.732 92.751 193.928 91.5763C194.026 90.7931 194.809 90.4994 195.788 90.9889C196.767 91.5763 197.942 91.9679 198.921 92.4573C199.215 92.6531 199.508 92.6531 199.802 92.5552C199.802 92.4573 199.606 92.1637 199.606 91.9679Z" fill="#030303"/>
<path d="M80.5673 197.596C80.7631 199.456 80.3715 201.12 80.8609 202.687C80.9588 202.98 80.9588 203.372 80.9588 203.666C80.9588 204.351 80.8609 205.232 80.0778 205.33C79.0988 205.428 79.2946 204.449 79.1967 203.764C79.001 200.239 78.8052 196.813 78.6094 193.289C78.6094 192.604 78.6094 191.82 79.2946 191.625C80.2736 191.331 80.6652 192.212 80.9588 192.799C81.742 195.051 82.5252 197.205 83.6999 199.26C84.3852 198.967 84.1894 198.282 84.1894 197.792C84.1894 196.128 84.1894 194.562 84.1894 192.897C84.1894 192.408 84.1894 191.918 84.483 191.527C84.6788 191.233 84.9725 190.842 85.3641 191.037C85.5599 191.135 85.8536 191.625 85.7557 191.82C85.2662 194.659 86.0494 197.596 85.3641 200.337C85.1683 201.023 85.2662 201.806 85.3641 202.589C85.3641 203.176 85.5599 203.764 84.9725 203.959C84.2873 204.155 83.8957 203.568 83.602 203.078C83.0146 201.708 82.4273 200.337 81.8399 198.967C81.5462 198.379 81.3504 197.988 80.5673 197.596Z" fill="#050505"/>
<path d="M65.5896 198.771C67.058 198.771 68.1348 198.086 69.4075 197.89C70.0927 197.792 69.8969 197.302 69.8969 196.911C69.8969 195.638 69.8969 194.366 69.8969 193.191C69.8969 192.408 70.2885 191.82 70.8759 191.82C71.4633 191.82 71.7569 192.506 71.7569 193.191C71.7569 195.638 71.7569 198.086 71.7569 200.533C71.7569 201.903 71.659 203.372 72.0506 204.742C72.2464 205.33 72.0506 205.917 71.3654 205.917C70.6801 206.015 70.2885 205.526 70.2885 204.84C70.3864 203.274 69.7012 201.903 69.8969 200.337C69.9948 199.75 69.8969 199.554 69.1138 199.652C65.8833 200.239 65.2959 201.12 66.1769 204.351C66.2748 204.84 66.4706 205.33 66.2748 205.721C66.079 206.113 66.0791 206.602 65.4917 206.602C64.9043 206.602 64.7085 206.113 64.6106 205.623C64.3169 201.708 63.7296 197.89 63.9254 193.974C63.9254 193.876 63.9254 193.876 63.9254 193.778C63.9254 193.191 63.9254 192.408 64.7085 192.408C65.5896 192.408 65.5896 193.191 65.5896 193.876C65.5896 194.953 65.5896 196.03 65.5896 197.107C65.5896 197.596 65.5896 198.183 65.5896 198.771Z" fill="#040404"/>
<path d="M87.0286 198.086C86.8329 196.618 87.1265 194.953 88.2034 193.485C89.3781 191.919 91.9234 191.429 93.196 192.604C93.4897 192.898 93.9792 193.191 93.6855 193.681C93.4897 194.17 93.0002 194.072 92.5107 193.974C89.5739 193.093 88.6929 194.464 88.3013 197.205C88.2034 198.086 88.3013 199.065 88.3013 199.946C88.3992 201.414 89.476 202.589 90.9444 202.589C92.2171 202.589 93.4897 201.61 93.5876 200.24C93.6855 199.261 93.0981 199.163 92.315 199.065C91.5318 198.967 90.0634 199.652 90.1613 198.184C90.2592 197.009 91.5318 197.792 92.315 197.694C93.3918 197.596 94.6644 197.499 94.9581 198.869C95.3497 200.533 94.2728 203.176 92.8044 203.764C90.0634 204.841 86.6371 203.274 86.735 199.75C87.1265 199.261 87.0286 198.771 87.0286 198.086Z" fill="#050505"/>
<path d="M25.943 204.645C26.4325 202.1 26.7262 200.044 27.1178 197.89C27.2157 197.205 27.803 196.422 28.4883 196.617C29.2715 196.813 28.9778 197.694 28.782 198.282C28.0967 201.219 27.3136 204.057 27.3136 207.092C27.3136 207.484 27.3136 207.875 27.1178 208.169C26.922 208.463 26.922 208.952 26.4325 208.952C26.0409 208.952 25.7473 208.658 25.6494 208.267C24.2788 205.036 22.8104 201.806 21.4399 198.575C21.2441 198.086 20.8525 197.499 21.5378 197.205C22.2231 196.813 22.6146 197.401 22.9083 197.89C23.9852 200.044 24.8662 202.1 25.943 204.645Z" fill="#050505"/>
<path d="M29.956 200.729C29.956 199.848 30.0539 198.967 29.956 198.086C29.7602 196.912 30.4455 196.422 31.3265 196.324C32.4034 196.226 33.4802 196.226 34.557 196.226C34.9486 196.226 35.1444 196.324 35.2423 196.814C35.2423 197.205 35.1444 197.499 34.6549 197.695C33.9697 197.891 33.1865 198.086 32.4034 197.988C31.2286 197.891 31.0328 198.478 31.3265 199.359C31.5223 200.044 31.6202 200.632 31.5223 201.317C31.5223 202.002 31.6202 202.492 32.5013 202.394C33.0886 202.394 33.7739 202.492 33.7739 203.275C33.7739 204.058 32.9907 203.862 32.5013 203.862C31.6202 203.764 31.4244 204.254 31.5223 204.939C31.6202 205.82 31.6202 206.799 31.9139 207.68C32.2076 208.561 33.0886 208.267 33.4802 208.072C34.1655 207.778 34.557 207.876 34.6549 208.561C34.8507 209.148 34.3613 209.442 33.8718 209.54C33.0886 209.638 32.4034 209.932 31.6202 209.834C30.6413 209.736 30.1518 209.051 30.1518 208.072C30.4455 205.428 29.8581 203.079 29.956 200.729Z" fill="#040404"/>
<path d="M14.9787 201.708C14.9787 200.729 14.9787 200.142 14.9787 199.554C14.9787 197.107 14.9787 197.107 17.4261 197.009C18.1113 197.009 18.6987 197.009 19.384 197.009C19.8734 197.009 20.265 197.107 20.265 197.694C20.265 198.38 19.9713 198.38 19.4819 198.38C19.384 198.38 19.384 198.38 19.2861 198.38C16.2513 198.575 16.3492 198.575 16.3492 201.512C16.3492 202.687 16.7408 203.078 17.9156 202.981C18.3071 202.981 18.7966 202.785 18.8945 203.47C18.9924 204.057 18.405 204.155 18.1113 204.253C17.3282 204.449 16.3492 204.841 16.8387 205.624C17.524 206.701 16.2513 209.148 18.8945 208.952C19.4819 208.952 19.8734 209.148 19.8734 209.735C19.9713 210.518 19.1882 210.518 18.7966 210.616C16.7408 210.812 16.1535 210.127 15.664 207.875C15.1745 205.722 14.8808 203.568 14.9787 201.708Z" fill="#040404"/>
<path d="M57.0743 199.26C57.0743 198.771 57.0743 198.477 57.0743 198.086C57.0743 195.932 57.0743 195.932 54.9206 195.834C54.4311 195.834 53.8438 195.932 53.8438 195.051C53.8438 194.268 54.3332 194.366 54.8227 194.366C56.5848 194.366 58.249 193.68 60.0111 193.485C60.7943 193.387 61.5774 193.289 61.7732 194.072C61.969 194.953 61.0879 195.051 60.3048 195.051C58.5427 195.149 58.4448 195.345 58.7385 197.205C58.9343 198.673 58.8364 200.142 58.8364 201.61C58.8364 203.078 59.0322 204.547 59.3258 205.917C59.4237 206.505 59.5216 207.092 58.8364 207.19C58.1511 207.288 57.8574 206.896 57.7595 206.211C57.368 203.862 56.9764 201.512 57.0743 199.26Z" fill="#060606"/>
<path d="M45.8141 194.953C46.3036 195.051 46.4994 195.345 46.6952 195.638C47.1846 196.422 47.6741 197.303 48.2615 198.086C48.8489 198.869 49.4362 199.065 49.9257 198.086C50.2194 197.596 50.4152 197.107 50.611 196.617C50.8067 196.03 51.1983 195.54 51.7857 195.932C52.2752 196.226 52.1773 196.813 51.7857 197.303C51.1983 198.184 50.8067 199.26 50.2194 200.142C49.8278 200.631 49.7299 201.218 49.9257 201.61C50.5131 203.372 49.9257 205.134 50.5131 206.896C50.7088 207.386 50.611 208.071 49.9257 208.169C49.1425 208.365 49.3383 207.679 49.1425 207.288C48.4573 205.526 49.1425 203.666 48.5552 201.806C48.2615 200.925 48.0657 200.239 47.5762 199.554C46.7931 198.477 46.0099 197.303 45.4225 196.226C45.2268 195.834 45.1289 195.247 45.8141 194.953Z" fill="#070707"/>
<path d="M74.5957 198.184C74.5957 196.324 74.5957 194.464 74.5957 192.702C74.5957 192.114 74.5957 191.331 75.3789 191.331C76.0641 191.331 75.9662 192.016 76.0641 192.604C76.4557 196.422 76.3578 200.142 76.3578 203.959C76.3578 204.547 76.5536 205.428 75.5746 205.428C74.6936 205.428 74.5957 204.547 74.5957 203.862C74.5957 201.904 74.5957 200.044 74.5957 198.184Z" fill="#050505"/>
<path d="M190.112 116.05C190.699 116.148 191.189 116.148 191.286 116.931C190.405 117.225 189.818 116.833 189.133 116.344C189.426 116.344 189.916 116.54 190.112 116.05Z" fill="#A8A8A8"/>
<path d="M53.646 2.78592C56.2891 2.88381 58.9323 3.0796 61.3796 3.86276C65.0017 4.9396 68.8196 5.23328 72.4417 6.31012C76.847 7.58275 81.2522 8.75748 85.6575 9.83432C86.8322 10.128 87.2238 10.4217 86.8322 11.7922C85.6575 15.6101 84.4828 19.428 83.6017 23.3438C81.9375 30.6859 79.588 37.7343 78.0217 45.0764C76.847 50.4606 75.3786 55.8448 73.9101 61.1311C73.4207 62.7953 72.9312 63.2847 71.0712 62.6974C66.7638 61.4247 62.3586 60.8374 58.0512 59.369C53.2544 57.7048 48.3597 57.0195 43.4649 55.8448C39.4513 54.9637 35.5355 53.789 31.5218 52.81C25.9418 51.4395 20.3618 50.069 14.7818 48.6985C14.0966 48.5027 13.6071 48.209 13.8029 47.5237C15.0755 44.0974 15.1734 40.2795 17.425 37.1469C19.0892 34.7974 21.4387 33.2311 23.5924 31.469C23.9839 31.1753 24.5713 30.9795 24.2776 30.4901C23.9839 29.9027 23.2008 29.8048 22.7113 30.1964C18.9913 32.7416 15.3692 35.4827 14.0966 40.1816C13.5092 42.4332 12.6282 44.6848 12.0408 47.0342C11.845 47.7195 11.5513 47.7195 10.964 47.6216C9.69133 47.3279 8.51659 46.8385 7.14607 46.8385C6.36291 46.8385 6.5587 46.2511 6.5587 45.7616C6.36291 43.3143 7.34186 41.1606 8.61449 39.3006C10.7682 36.168 13.5092 33.5248 16.2503 30.8816C17.0334 30.0985 17.8166 30.0985 18.6976 30.588C19.3829 30.8816 20.0681 30.9795 20.3618 30.1964C20.6555 29.5111 20.166 29.2174 19.5787 28.9238C18.4039 28.4343 19.5787 27.9448 19.7745 27.749C21.5366 26.2806 23.3966 24.9101 25.1587 23.3438C28.585 20.4069 31.9134 17.3722 35.3397 14.4354C39.3534 10.9112 43.3671 7.38696 47.7723 4.35223C49.7302 3.37328 51.4923 2.39434 53.646 2.78592Z" fill="#FEFEFE"/>
<path d="M187.763 69.7462C187.861 71.8019 187.371 73.6619 186.784 75.6198C185.805 79.144 185.609 82.6682 185.217 86.2903C185.022 87.8566 184.434 89.3251 184.434 90.8914C184.434 91.6745 183.749 91.3808 183.259 91.3808C180.616 91.5766 178.267 90.4998 175.819 89.6187C172.687 88.444 169.456 87.6609 166.128 87.1714C162.408 86.6819 158.884 85.3114 155.164 84.5282C151.052 83.6472 147.332 81.4935 143.221 80.7103C138.717 79.8293 134.312 78.4588 129.711 78.1651C127.851 78.0672 126.089 77.4798 124.327 77.0882C123.544 76.8925 123.74 76.2072 123.935 75.6198C125.012 72.4872 125.991 69.3546 127.068 66.2219C129.222 59.4672 131.18 52.6146 133.431 45.9578C134.41 43.2167 135.781 40.5736 136.564 37.7346C137.934 33.2315 139.207 28.6304 140.382 24.1273C140.675 23.0504 140.969 22.6589 142.144 22.9526C145.374 23.7357 148.703 24.421 151.933 25.3999C157.415 27.0641 162.995 28.5325 168.673 29.8052C171.512 30.3925 174.351 30.882 176.994 31.9589C177.679 32.2525 178.267 32.8399 178.658 33.5252C179.833 35.2873 180.91 37.0494 181.302 39.203C181.595 40.7694 182.281 42.2378 182.574 43.8041C183.162 46.4472 183.259 49.1883 184.238 51.6357C185.609 54.9641 185.707 58.3904 186.49 61.7188C187.273 64.1662 187.567 67.0051 187.763 69.7462Z" fill="#FEFEFE"/>
<path d="M120.998 75.9136C116.005 74.3473 110.621 74.641 105.531 72.4873C102.202 71.0189 98.3843 70.6273 94.8601 69.5505C91.0422 68.3757 87.3222 67.0052 83.5043 65.8305C81.2527 65.1452 78.9033 64.5579 76.5538 64.0684C74.8896 63.6768 75.0854 62.8937 75.3791 61.7189C76.5538 57.4116 77.7285 53.0063 78.8054 48.6989C80.2738 42.9232 81.3506 37.0495 83.1127 31.3716C84.9727 25.4979 86.1475 19.5264 87.7138 13.6527C88.4969 10.618 88.4969 10.618 91.5317 11.3032C95.839 12.3801 100.146 13.359 104.454 14.2401C106.999 14.8274 109.544 15.219 112.09 15.9043C115.222 16.7853 118.453 16.6874 121.585 17.6664C124.718 18.5474 127.851 19.4285 131.081 20.0158C133.528 20.4074 135.878 21.0927 138.227 21.5822C139.304 21.7779 139.598 22.2674 139.304 23.3443C137.934 27.8474 136.661 32.3506 135.388 36.8537C134.997 38.42 134.409 39.9863 133.822 41.3569C130.494 48.5032 128.829 56.1389 126.284 63.481C125.012 67.201 123.837 70.921 122.662 74.7389C122.271 75.6199 121.977 76.1094 120.998 75.9136Z" fill="#FEFEFE"/>
<path d="M114.928 90.206C114.438 90.1081 113.46 89.9124 112.578 89.6187C106.117 87.6608 99.6564 85.5071 93.0975 83.745C87.9091 82.2766 82.6228 81.1019 77.3365 80.025C75.2807 79.6334 73.2249 79.2419 71.267 78.9482C70.288 78.8503 70.288 78.4587 70.5817 77.6755C71.4628 75.2282 72.3438 72.6829 73.0291 70.1377C73.3228 69.2566 73.5186 69.1587 74.3017 69.3545C76.847 70.1377 79.4901 70.725 82.0354 71.4103C87.2238 72.7808 92.4122 74.1513 97.5027 75.5219C102.691 76.8924 107.782 78.7524 113.068 79.7313C115.026 80.1229 116.886 80.6124 118.844 80.9061C119.823 81.1018 120.116 81.5913 119.725 82.3745C118.354 84.6261 117.277 87.0734 116.592 89.7166C116.494 90.206 115.907 90.206 114.928 90.206Z" fill="#FEFEFE"/>
<path d="M71.5608 69.3543C70.9734 71.1164 70.2881 72.9764 69.7008 74.7385C68.526 78.2627 68.526 78.1649 65.0018 77.3817C59.8134 76.1091 54.7229 74.9343 49.5345 73.8575C48.0661 73.5638 47.3808 73.1722 47.4787 71.4101C47.6745 67.788 46.1082 64.8512 43.5629 62.4038C43.2692 62.1101 42.6819 61.9144 42.9755 61.4249C43.1713 61.1312 43.6608 61.327 44.0524 61.4249C49.4366 62.5996 54.625 64.4596 59.9113 65.7322C63.2397 66.5154 66.5681 67.6901 69.9944 68.1796C70.386 68.2775 71.6586 67.9838 71.5608 69.3543Z" fill="#FEFEFE"/>
<path d="M179.929 97.4506C177.58 99.4085 175.622 101.366 173.468 103.031C172.196 103.912 171.217 103.128 170.14 102.835C166.028 101.562 162.113 99.8001 158.001 99.0169C155.064 98.4295 152.029 98.1359 149.093 97.8422C148.407 97.7443 148.114 97.6464 148.114 96.9611C147.918 94.0243 148.016 90.8917 145.862 88.4443C145.764 88.2485 145.666 88.0527 145.862 87.8569C146.156 87.6611 146.449 87.759 146.743 87.8569C149.484 88.5422 152.323 89.1296 155.064 90.0106C159.861 91.5769 164.658 93.0453 169.455 94.5138C172.783 95.5906 176.111 96.6674 179.929 97.4506Z" fill="#FEFEFE"/>
<path d="M31.1297 59.0756C28.2907 59.3693 25.5497 60.1524 23.2981 61.9145C22.1234 62.7956 21.0466 63.8724 19.8718 64.8514C18.795 65.7324 17.5223 65.8303 16.3476 65.5366C13.9981 64.9492 11.6487 64.264 9.3971 63.4808C6.46026 62.5019 4.89395 58.8798 5.8729 55.3556C5.97079 54.8661 6.06869 54.3766 6.16658 53.9851C6.26448 51.9293 6.26448 51.9293 8.12447 52.5166C10.6697 53.2998 11.0613 54.1808 10.1803 57.0198C10.0824 57.4114 9.20131 58.0966 10.1803 58.4882C11.0613 58.7819 11.5508 58.0966 11.8445 57.3135C12.1381 56.5303 11.9424 55.7472 12.1381 54.964C12.4318 54.1808 12.6276 54.083 13.215 54.3766C16.7392 55.8451 20.5571 56.5303 24.2771 57.3135C26.4308 57.8029 28.5844 57.9008 30.7381 58.4882C30.836 58.4882 31.0318 58.4882 31.1297 59.0756Z" fill="#FEFEFE"/>
<path d="M13.7056 50.2649C16.0551 50.3628 18.013 51.3417 20.1667 51.8312C26.6277 53.2996 32.9909 54.768 39.354 56.4322C44.0529 57.7049 48.9477 58.3901 53.6466 59.467C55.7024 59.9564 57.6603 60.7396 59.7161 61.327C63.8276 62.5017 68.0371 63.4806 72.2466 64.4596C73.0297 64.6554 72.8339 65.2427 72.736 65.5364C72.4424 66.1238 72.6381 67.2006 71.3655 66.9069C68.2329 66.1238 65.1982 65.4385 62.0655 64.6554C56.6813 63.2848 51.2971 61.6206 45.9129 60.348C39.4519 58.7817 32.9909 57.2154 26.4319 55.9428C22.0267 55.0617 17.5235 54.1807 13.2162 52.7122C12.433 52.4186 12.1393 52.1249 12.433 51.5375C12.8246 51.1459 12.6288 49.9712 13.7056 50.2649Z" fill="#FEFEFE"/>
<path d="M122.368 80.0248C122.564 78.2627 123.347 78.1649 124.816 78.6543C127.654 79.6333 130.689 79.6333 133.626 80.1227C138.423 81.0038 143.22 81.9827 147.821 83.6469C153.792 85.8006 159.862 87.7585 166.225 88.6396C170.336 89.2269 174.252 90.6954 178.168 91.968C179.636 92.4575 181.105 92.9469 182.671 92.9469C183.944 92.9469 183.846 93.6322 183.454 94.4153C182.671 95.9817 181.203 95.9817 179.734 95.688C175.427 94.9048 171.315 93.4364 167.106 92.0659C161.722 90.4017 156.435 88.6396 150.953 87.0733C148.702 86.4859 146.45 85.9964 144.101 85.5069C142.534 85.2133 141.262 84.4301 140.087 83.5491C138.912 82.668 137.542 82.2764 136.171 82.2764C131.57 82.668 126.969 81.3954 122.368 80.0248Z" fill="#FEFEFE"/>
<path d="M120.019 79.5354C117.082 78.8501 114.145 78.2627 111.209 77.4796C99.0697 74.2491 86.8329 71.0185 74.6939 67.788C74.0087 67.5922 73.8129 67.4943 74.2045 66.907C74.596 66.1238 74.4002 64.8512 75.8687 65.2428C78.9034 66.0259 82.1339 66.7112 85.0708 67.8859C91.6297 70.5291 98.3844 72.0954 105.139 73.8575C107.195 74.4449 108.957 75.6196 111.209 76.0112C113.754 76.4027 116.299 76.3048 118.844 76.9901C119.432 77.1859 120.117 77.2838 120.704 77.4796C121.194 77.6754 121.683 77.7733 121.292 78.6543C120.9 79.1438 120.9 79.7312 120.019 79.5354Z" fill="#FDFDFD"/>
<path d="M162.016 104.597C162.114 104.009 162.407 103.226 162.407 102.443C162.407 101.66 163.092 101.954 163.484 102.051C166.421 103.03 169.358 104.107 172.392 105.086C172.98 105.282 173.176 105.576 173.078 106.065C173.078 106.359 172.98 106.555 172.98 106.848C172.099 110.275 172.099 110.275 168.868 108.904C166.91 108.121 164.952 107.044 163.092 106.163C162.407 105.967 162.016 105.576 162.016 104.597Z" fill="#FDFDFD"/>
<path d="M119.138 87.9539C119.333 85.7024 121.096 84.2339 121.585 82.1782C121.683 81.8845 121.781 81.4929 122.27 81.6887C123.739 82.4718 125.501 82.4718 127.263 83.255C125.501 83.6466 124.228 84.3318 122.956 85.2129C121.585 86.0939 120.312 86.975 119.138 87.9539Z" fill="#F7F7F7"/>
<path d="M183.259 97.3525C183.553 100.681 182.28 101.954 179.245 101.366C178.952 101.366 178.658 101.17 178.56 101.073C178.364 100.681 178.658 100.485 178.952 100.289C180.126 98.9189 181.79 98.5273 183.259 97.3525Z" fill="#F5F5F5"/>
<path d="M11.4544 49.9714C11.5523 51.1461 10.6712 51.8314 9.49649 51.4398C8.61544 51.1461 7.83228 50.8524 6.95123 50.5587C6.36387 50.2651 6.07018 49.9714 6.26597 49.1882C6.55966 48.4051 6.95123 48.503 7.5386 48.6987C8.51755 49.0903 9.69228 48.7966 10.6712 49.384C10.9649 49.4819 11.4544 49.384 11.4544 49.9714Z" fill="#FCFCFC"/>
<path d="M2.93723 52.8104C3.72038 52.7125 4.69933 52.9083 4.50354 53.5936C4.20985 54.3767 4.79722 56.0409 2.93723 56.0409C1.46881 56.0409 1.46881 55.2578 1.37091 54.1809C1.27302 52.8104 1.86039 52.6146 2.93723 52.8104Z" fill="#F6F6F6"/>
<path fill-rule="evenodd" clip-rule="evenodd" d="M109.153 186.632C109.838 185.457 110.426 184.185 110.328 182.814C109.712 181.089 109.755 179.325 109.798 177.547C109.824 176.5 109.849 175.447 109.74 174.395C109.285 171.208 109.089 167.977 108.894 164.761C108.795 163.137 108.697 161.516 108.566 159.907C108.272 156.774 107.685 153.544 106.412 150.607C105.629 148.747 104.846 146.887 102.594 146.104C98.7761 144.831 96.5246 145.223 94.8604 147.866C92.5109 151.586 91.1404 155.795 90.3572 160.2C90.1503 161.2 89.9555 162.213 89.7601 163.229C89.4007 165.096 89.039 166.976 88.5951 168.815C88.1056 171.165 87.7141 173.416 87.4204 175.766C87.3423 176.585 87.3265 177.39 87.3109 178.185C87.2873 179.383 87.2642 180.56 87.0288 181.737C86.7351 183.303 87.0288 184.576 87.5183 185.947C88.1056 187.415 90.1614 188.492 91.5319 188.296C94.273 187.807 97.3077 184.185 97.6014 181.346C97.6756 180.604 97.7372 179.856 97.799 179.107C97.982 176.889 98.166 174.657 98.6782 172.535C98.6971 172.422 98.7087 172.294 98.7207 172.162C98.7711 171.607 98.8291 170.969 99.4614 170.969C100.147 170.969 100.342 171.752 100.44 172.437C100.44 172.829 100.538 173.122 100.636 173.416L100.636 173.416C101.033 175.174 101.069 176.966 101.105 178.771C101.131 180.081 101.157 181.398 101.321 182.716C101.615 185.849 103.769 188.1 106.706 188.002C107.782 187.905 108.663 187.513 109.153 186.632ZM98.8735 161.277C100.636 161.669 101.027 161.277 101.027 158.83C101.223 157.851 100.831 156.774 100.342 155.795C100.326 155.746 100.312 155.694 100.298 155.643C100.23 155.384 100.162 155.126 99.7546 155.208C99.4609 155.208 99.2651 155.403 99.1672 155.697C98.7756 157.166 98.384 158.732 98.0904 160.2C97.9925 160.69 98.0904 161.081 98.8735 161.277Z" fill="#010101"/>
<path fill-rule="evenodd" clip-rule="evenodd" d="M53.5488 179.486C53.5488 178.708 53.6001 177.896 53.6527 177.065C53.7259 175.907 53.8015 174.711 53.7446 173.514C53.7446 169.305 53.7446 165.095 53.1572 160.886C53.0593 160.201 53.0593 159.613 53.1572 158.928C53.2691 157.138 53.1252 155.348 52.9814 153.558C52.8735 152.215 52.7656 150.873 52.7656 149.53C52.7656 148.453 53.0593 148.062 54.234 147.964C54.7554 147.914 55.2705 147.852 55.784 147.79C57.2955 147.607 58.7939 147.426 60.4014 147.572C67.5477 148.257 72.5403 155.502 70.093 162.256C69.9298 162.648 69.7884 163.05 69.647 163.453L69.647 163.453C69.3642 164.258 69.0814 165.063 68.6245 165.781C67.8414 166.955 68.1351 167.934 69.2119 168.913C72.1487 171.654 72.834 176.255 70.7782 179.584C69.0161 182.521 66.7645 184.772 62.9467 185.262C62.0981 185.368 61.2623 185.538 60.43 185.707C58.958 186.006 57.497 186.303 55.9961 186.241C54.1361 186.143 53.6467 185.751 53.6467 183.793C53.5488 182.423 53.5488 181.052 53.5488 179.486V179.486ZM61.282 162.257V158.928C61.282 158.88 61.2794 158.829 61.2767 158.778V158.778C61.2631 158.514 61.2482 158.227 61.5757 158.145C61.7715 158.145 62.0652 158.243 62.261 158.439C63.8273 159.516 63.4357 161.278 61.282 162.257ZM62.2007 174.519C62.085 174.478 61.9718 174.439 61.8694 174.395C61.282 174.395 60.9884 174.493 60.9884 174.982V176.451C61.021 176.647 60.9884 176.886 60.9557 177.125C60.8905 177.604 60.8252 178.082 61.282 178.213C61.7804 178.338 62.0013 177.907 62.2222 177.477C62.3484 177.231 62.4746 176.985 62.6526 176.842C62.7056 176.789 62.7299 176.679 62.7566 176.558C62.7792 176.455 62.8035 176.345 62.8484 176.255C63.5978 175.006 62.8597 174.749 62.2007 174.519Z" fill="#010101"/>
<path fill-rule="evenodd" clip-rule="evenodd" d="M182.965 178.703C182.476 175.864 183.65 172.829 185.412 170.088C185.902 169.305 185.804 168.913 185.315 168.228C183.748 166.172 182.476 163.92 181.986 161.277C181.399 157.362 184.238 150.998 187.566 150.019C190.797 149.041 194.81 150.411 195.887 153.446C196.572 155.502 196.279 157.753 195.985 159.907C195.594 162.942 194.517 165.78 192.755 168.326C192.363 169.011 192.657 169.598 192.95 169.99C193.696 170.629 194.239 171.413 194.784 172.2L194.784 172.2C195.24 172.859 195.698 173.521 196.279 174.101C197.845 175.668 198.335 175.766 200.292 174.591C202.348 173.318 203.425 173.318 204.6 174.591C205.579 175.668 205.579 177.724 204.502 179.192C203.817 180.073 203.425 180.954 204.208 181.933C204.698 182.52 204.991 183.206 205.285 183.891L205.285 183.891C205.97 185.359 205.383 186.926 204.012 187.709C202.544 188.492 201.467 188.198 200.39 186.632C199.216 184.968 198.139 184.87 196.67 186.338C195.006 188.1 193.048 189.275 190.601 189.569C188.251 189.863 185.315 188.1 184.042 185.359C183.063 183.401 182.965 182.912 182.965 178.703ZM193.048 182.912C190.698 182.912 189.034 180.269 189.719 178.213C190.013 177.332 190.405 177.528 190.894 177.821C192.167 178.507 193.146 179.584 194.125 180.758C194.173 180.823 194.23 180.891 194.289 180.962L194.289 180.962C194.586 181.315 194.94 181.737 194.614 182.227C194.222 182.814 193.733 183.108 193.048 182.912ZM188.776 159.634C188.773 159.868 188.77 160.092 188.741 160.299C188.741 160.43 188.734 160.554 188.727 160.669C188.709 160.984 188.695 161.232 188.838 161.375C188.867 161.49 188.854 161.629 188.84 161.772C188.808 162.117 188.774 162.481 189.328 162.55C189.915 162.648 190.111 162.159 190.307 161.669C190.686 160.759 190.654 159.849 190.62 158.893C190.611 158.615 190.601 158.334 190.601 158.047C190.601 157.655 190.307 157.264 189.817 157.166C189.343 157.03 189.291 157.317 189.239 157.604C189.216 157.731 189.192 157.859 189.132 157.949C188.79 158.496 188.783 159.091 188.776 159.634Z" fill="#010101"/>
<path fill-rule="evenodd" clip-rule="evenodd" d="M113.916 167.173C114.063 170.1 114.203 172.884 114.146 175.374V184.478C114.146 185.751 114.342 187.122 115.615 187.807C118.649 189.569 121.978 187.611 121.978 184.185C121.978 182.684 121.989 181.183 122 179.682C122.021 176.68 122.043 173.677 121.978 170.675C121.978 169.011 122.271 168.032 124.131 166.955C129.124 164.116 132.257 158.341 130.495 152.271C129.711 149.824 128.439 147.572 125.991 146.202C122.663 144.342 119.237 144.244 115.615 144.44C114.342 144.538 113.755 145.516 113.755 146.691C113.657 151.292 113.657 155.991 113.657 160.592C113.698 162.823 113.809 165.036 113.916 167.173ZM121.587 154.719V155.893C121.587 156.089 121.587 156.872 121.685 157.558C121.783 157.949 121.978 158.145 122.37 157.949C123.447 157.46 124.426 155.6 123.936 154.523C123.545 153.74 123.055 152.761 122.076 152.957C121.34 153.049 121.469 153.919 121.568 154.592C121.575 154.635 121.581 154.677 121.587 154.719Z" fill="#010101"/>
<path fill-rule="evenodd" clip-rule="evenodd" d="M38.2778 148.062C34.8515 153.837 33.1873 160.103 33.6768 166.857C33.7098 167.55 33.7316 168.243 33.7536 168.939C33.7969 170.309 33.8406 171.695 33.9705 173.123C33.9705 177.43 35.5368 181.052 37.6905 184.478C38.5715 185.947 41.1168 186.534 42.3894 185.457C43.9557 184.185 45.3262 182.716 46.3052 180.856C47.7736 178.017 48.5568 174.983 49.1441 171.85C49.3126 171.008 49.5046 170.178 49.6957 169.352C50.2819 166.818 50.8581 164.327 50.7104 161.669C50.6549 160.724 50.4732 159.811 50.2906 158.894C50.1515 158.195 50.0119 157.494 49.9273 156.774C49.5357 153.152 47.9694 150.02 45.522 147.376C42.9768 144.537 40.1378 144.831 38.2778 148.062ZM41.0182 160.494C40.5288 162.746 40.2351 164.998 40.333 167.151V170.088C40.333 170.773 40.333 171.556 41.1161 171.85C41.8894 172.194 42.2857 171.482 42.5696 170.971C42.6091 170.9 42.6465 170.833 42.6824 170.773C44.5424 167.445 44.8361 163.921 43.9551 160.299C43.9025 160.141 43.8593 159.977 43.8165 159.814C43.6206 159.069 43.4334 158.358 42.3888 158.439C41.4248 158.526 41.2453 159.398 41.0778 160.212C41.0582 160.308 41.0388 160.402 41.0182 160.494Z" fill="#010101"/>
<path fill-rule="evenodd" clip-rule="evenodd" d="M135.203 175.311C135.322 176.747 135.434 178.099 135.291 179.29C135.291 180.183 135.279 180.991 135.267 181.757C135.246 183.176 135.227 184.451 135.291 185.849C135.389 188.394 137.444 189.765 139.794 188.982C142.143 188.198 143.122 186.828 143.122 184.087V173.808C143.22 171.556 143.808 169.696 145.863 168.326C148.898 166.27 150.366 163.137 150.954 159.613C151.639 155.6 150.073 152.173 147.332 149.334C144.493 146.495 141.067 144.929 136.955 145.321C135.389 145.419 134.605 146.104 134.605 147.67C134.605 148.796 134.679 149.922 134.752 151.048C134.826 152.173 134.899 153.299 134.899 154.425C134.899 156.444 134.982 158.463 135.064 160.482C135.202 163.847 135.34 167.212 135.095 170.577C134.944 172.186 135.077 173.795 135.203 175.311ZM141.262 155.795V156.578C141.262 157.068 141.262 157.557 141.164 158.047C141.164 158.438 141.262 158.83 141.653 159.026C142.045 159.221 142.436 159.026 142.632 158.732C143.513 157.753 144.101 156.676 143.513 155.404C143.219 154.718 142.828 154.033 141.947 154.131C141.224 154.203 141.248 154.756 141.271 155.276C141.279 155.461 141.287 155.641 141.262 155.795Z" fill="#010101"/>
<path fill-rule="evenodd" clip-rule="evenodd" d="M76.7498 211.889C80.5677 211.693 83.6024 213.064 85.9519 215.511C87.5182 217.077 87.714 219.427 87.3224 221.678C87.2097 222.279 87.1403 222.895 87.0698 223.519C86.9567 224.522 86.8409 225.547 86.5393 226.573C86.3404 227.302 86.9494 227.897 87.5762 228.508L87.5762 228.509C87.8751 228.8 88.178 229.096 88.3993 229.412C89.8677 231.468 90.7487 237.341 88.595 239.495C84.6793 243.411 79.9803 244.586 74.694 244.39C73.813 244.39 73.5193 243.9 73.5193 243.019C73.4666 239.962 73.2152 236.905 72.9638 233.847C72.7483 231.227 72.5328 228.606 72.4424 225.986C72.3797 223.538 72.0353 221.131 71.6931 218.738C71.5014 217.399 71.3104 216.063 71.1698 214.728C71.0719 213.945 71.0719 213.357 72.2467 212.966C73.7151 212.183 75.2814 211.693 76.7498 211.889ZM83.2121 234.698C83.1142 235.677 81.7437 236.95 80.7648 236.95C80.0795 236.95 79.9816 236.46 79.8837 235.873C79.8512 235.548 79.8727 235.213 79.8943 234.873C79.9379 234.19 79.9825 233.492 79.59 232.838C79.4922 232.643 79.4921 232.349 79.8837 232.251C80.7648 231.957 83.31 233.817 83.2121 234.698ZM80.2734 223.049C80.4691 222.559 80.6649 222.07 80.6649 221.483V221.483C80.6649 221.189 80.6649 220.895 80.567 220.797C80.4691 219.72 79.5881 219.231 78.8049 219.231C78.3481 219.231 78.4133 219.666 78.4786 220.101C78.5112 220.319 78.5439 220.536 78.5112 220.699C78.4465 221.152 78.4674 221.563 78.489 221.987C78.5 222.204 78.5112 222.425 78.5112 222.657C78.5112 223.049 78.5112 223.44 79.0986 223.343C79.1841 223.343 79.2742 223.352 79.3659 223.361C79.6945 223.395 80.0438 223.432 80.2733 223.049L80.2734 223.049Z" fill="#010101"/>
<path fill-rule="evenodd" clip-rule="evenodd" d="M140.772 88.5421C138.618 86.5842 136.464 85.4095 132.548 85.5074C129.416 85.8011 125.5 86.78 122.367 89.619C119.039 92.7516 117.375 98.4295 119.431 103.814C120.069 105.364 121.218 106.065 122.401 106.787C122.488 106.84 122.574 106.893 122.661 106.946C123.15 107.246 123.631 107.56 124.11 107.874C126.611 109.51 129.083 111.128 132.451 110.47C132.935 110.367 133.416 110.275 133.892 110.185C136.113 109.762 138.232 109.359 140.086 107.827C142.73 105.772 144.59 103.226 145.373 99.8979C145.568 99.1147 145.764 98.3316 145.568 97.5484C144.785 94.1221 143.415 91.0874 140.772 88.5421ZM132.157 103.716C134.8 102.541 137.052 100.975 137.346 98.6251C137.346 94.6114 135.584 92.5556 132.549 91.3809C130.505 90.6995 129.202 91.7966 127.93 92.867C127.74 93.0268 127.551 93.1861 127.36 93.3388C125.109 95.2967 124.913 100.093 127.067 102.149C128.437 103.52 130.102 104.695 132.157 103.716Z" fill="#010101"/>
<path fill-rule="evenodd" clip-rule="evenodd" d="M29.2701 85.2132C30.2491 85.7027 31.3259 86.0943 32.4027 85.8985C33.8712 85.9964 35.3396 85.8006 36.808 85.2132C39.4511 83.9406 41.409 81.8848 43.1711 79.6333C44.0522 78.4585 44.7374 76.9901 44.6396 75.5217C44.5417 73.1722 44.3459 70.7249 43.5627 68.5712C42.9753 66.8091 41.8985 65.1449 40.0385 63.9701C36.9059 62.1101 33.8712 61.2291 30.2491 62.1101C27.2143 62.7954 24.2775 64.1659 22.8091 66.7112C20.6554 70.1375 19.0891 74.1512 21.5364 78.3606C21.7382 78.7193 21.9194 79.0934 22.1013 79.4688C22.7135 80.7326 23.3329 82.0111 24.767 82.7659C25.7213 83.243 26.6393 83.7565 27.543 84.2621C28.1226 84.5863 28.6964 84.9073 29.2701 85.2132ZM27.117 74.6407C27.117 76.8923 29.2707 78.4586 32.4033 78.4586C36.2212 78.7523 38.3749 75.326 38.4728 72.8786C38.6686 69.9418 35.2423 67.4944 31.3265 67.4944C28.977 67.4944 27.117 70.7249 27.117 74.6407Z" fill="#010101"/>
<path fill-rule="evenodd" clip-rule="evenodd" d="M187.63 114.264C188.54 114.75 189.439 115.229 190.111 116.05C190.16 116.099 190.209 116.197 190.246 116.271C190.265 116.309 190.281 116.341 190.291 116.355C189.905 116.635 189.519 116.537 189.132 116.344C188.922 116.25 188.717 116.157 188.515 116.065C187.872 115.771 187.258 115.491 186.587 115.267C186.304 115.158 186.003 115.026 185.692 114.889C184.604 114.411 183.411 113.886 182.573 114.19C181.3 114.582 180.517 114.484 179.538 114.092C179.147 113.897 178.853 113.994 178.559 114.386C178.266 114.778 178.364 115.169 178.755 115.463C179.343 115.757 179.538 116.05 178.951 116.54C178.657 116.736 178.755 117.127 178.951 117.421C179.93 119.574 180.615 121.728 180.615 124.175C180.615 125.84 181.203 126.231 182.671 125.644C183.846 125.154 184.433 125.35 185.216 126.427C185.606 126.969 185.972 127.529 186.337 128.089C187.623 130.059 188.901 132.017 191.188 133.084C191.223 133.101 191.257 133.119 191.291 133.136C191.833 133.41 192.294 133.642 192.754 133.182C193.244 132.594 193.146 132.007 192.754 131.42C192.069 130.539 191.384 129.658 190.796 128.679C190.111 127.7 189.622 126.525 190.111 125.057C190.427 125.246 190.621 125.518 190.797 125.765C190.894 125.901 190.986 126.029 191.09 126.133C193.635 128.777 196.572 130.93 199.9 132.497C201.697 133.32 203.609 133.8 205.547 134.287C206.143 134.437 206.742 134.587 207.34 134.748C207.448 134.791 207.552 134.849 207.652 134.905C208.008 135.103 208.33 135.282 208.711 134.748C209.2 134.063 208.711 133.573 208.319 133.182C204.994 130.032 202.921 126.1 200.84 122.155C200.593 121.686 200.346 121.217 200.096 120.749C200.259 120.423 200.49 120.436 200.732 120.45C200.781 120.453 200.83 120.455 200.879 120.455C203.808 121.005 206.566 121.896 209.393 122.81C209.589 122.873 209.786 122.937 209.984 123.001C210.219 123.079 210.457 123.15 210.696 123.22C211.652 123.502 212.607 123.784 213.312 124.567C213.85 125.154 214.487 125.644 215.123 126.133C215.759 126.623 216.396 127.112 216.934 127.7C217.228 128.091 217.815 128.581 218.5 128.189C219.136 127.826 219.014 127.126 218.915 126.558C218.907 126.513 218.899 126.47 218.892 126.427C218.794 126.133 218.598 125.742 218.403 125.448C216.738 122.707 214.878 120.064 212.725 117.714C212.683 117.672 212.627 117.63 212.568 117.585C212.35 117.421 212.081 117.218 212.235 116.833C212.366 116.572 212.583 116.572 212.801 116.572C212.91 116.572 213.018 116.572 213.116 116.54C216.053 116.05 218.794 115.267 221.046 113.309C221.135 113.242 221.235 113.185 221.334 113.129C221.665 112.94 221.98 112.761 221.829 112.232C221.678 111.629 221.236 111.607 220.773 111.583C220.635 111.577 220.495 111.57 220.36 111.547C219.047 111.46 217.813 111.294 216.516 111.12C216.363 111.099 216.208 111.078 216.053 111.058C214.384 110.867 212.831 110.281 211.281 109.697C209.65 109.081 208.021 108.467 206.264 108.317C206.301 108.204 206.324 108.106 206.344 108.023C206.376 107.888 206.399 107.79 206.459 107.729C207.896 106.213 208.421 104.307 208.938 102.434C209.055 102.01 209.172 101.587 209.298 101.17C209.592 100.387 209.396 99.604 208.809 99.2124C208.388 98.8756 207.895 99.1905 207.453 99.472C207.382 99.5179 207.311 99.5628 207.243 99.604C206.759 99.886 206.309 100.185 205.864 100.479C205.229 100.901 204.605 101.314 203.914 101.66C198.726 104.401 193.146 105.869 187.37 106.946C185.902 107.24 184.433 107.729 183.063 108.512C182.769 108.708 182.377 109.1 182.377 109.393C182.377 109.771 182.621 109.785 182.872 109.798C183.012 109.806 183.154 109.813 183.258 109.883C184.069 110.325 184.935 110.268 185.773 110.213C186.048 110.195 186.321 110.177 186.587 110.177C188.349 110.274 190.013 110.764 191.971 111.645C190.514 112.028 189.297 111.991 188.18 111.957C187.87 111.948 187.569 111.939 187.272 111.939C187.145 111.939 187.01 111.929 186.875 111.918C186.283 111.873 185.669 111.827 185.51 112.624C185.368 113.335 185.845 113.478 186.305 113.615C186.478 113.667 186.649 113.718 186.783 113.799C187.062 113.961 187.346 114.113 187.63 114.264ZM191.936 113.409C191.189 113.401 190.405 113.393 189.621 113.897C190.53 114.645 191.497 115.072 192.458 115.497C193.258 115.85 194.054 116.202 194.81 116.736C195.299 117.127 195.691 117.617 195.593 118.204C195.495 118.791 194.908 118.889 194.32 118.889C192.069 118.987 190.013 118.791 187.957 117.617C185.51 116.148 185.118 116.442 185.02 119.379V119.672C184.996 119.745 184.984 119.823 184.972 119.899C184.935 120.135 184.9 120.358 184.531 120.358C184.139 120.358 183.748 120.358 183.552 119.868C183.522 119.777 183.501 119.686 183.48 119.598C183.435 119.402 183.393 119.22 183.258 119.085C183.059 118.82 182.88 118.529 182.699 118.236C182.081 117.233 181.445 116.202 179.93 116.05C181.398 118.4 182.083 120.651 182.083 123.099C182.083 123.138 182.083 123.179 182.082 123.223C182.075 123.734 182.063 124.528 182.965 124.078C184.531 123.392 185.314 124.078 186.097 125.35C186.819 126.433 187.647 127.462 188.464 128.477C188.755 128.839 189.045 129.2 189.328 129.56C189.246 129.218 189.162 128.878 189.078 128.54C188.659 126.849 188.251 125.204 188.251 123.49C188.251 122.903 188.349 122.218 188.936 122.022C189.621 121.728 190.209 122.316 190.502 122.805C191.677 124.763 193.243 126.231 195.006 127.602C198.04 130.049 201.467 131.713 205.48 132.692C202.837 128.679 200.586 124.763 198.334 120.848L198.334 120.847C198.321 120.828 198.309 120.809 198.296 120.79C197.912 120.216 197.469 119.553 197.942 118.889C198.336 118.26 198.855 118.452 199.4 118.654C199.533 118.703 199.668 118.753 199.802 118.791C200.546 119.01 201.309 119.151 202.073 119.291C203.021 119.466 203.972 119.641 204.893 119.966C205.837 120.272 206.801 120.532 207.765 120.792C210.503 121.529 213.247 122.268 215.563 124.078C215.637 123.782 215.488 123.597 215.325 123.398C215.273 123.334 215.22 123.268 215.172 123.197C214.898 122.832 214.629 122.464 214.361 122.098C212.902 120.106 211.463 118.141 209.396 116.736C209.354 116.708 209.308 116.679 209.26 116.65C208.976 116.478 208.641 116.274 208.809 115.855C209.005 115.365 209.396 115.267 209.886 115.267H212.039C214.389 115.169 216.542 114.582 218.598 113.407C218.109 112.918 217.619 112.82 217.032 112.82C215.368 112.82 213.703 112.33 212.235 111.645C209.983 110.568 207.634 109.981 205.187 109.589C205.043 109.565 204.904 109.559 204.774 109.553C204.371 109.534 204.038 109.519 203.816 109.002C203.522 108.317 204.012 107.925 204.501 107.534C206.459 106.065 207.145 103.911 207.634 101.268C202.317 104.956 196.4 106.54 190.473 108.126C189.634 108.351 188.795 108.575 187.957 108.806C189.467 109.237 190.871 109.774 192.247 110.301C192.745 110.491 193.239 110.68 193.733 110.862C194.418 111.058 194.908 111.547 194.81 112.232C194.81 112.791 194.191 112.995 193.625 113.182C193.596 113.192 193.566 113.202 193.537 113.211C193.034 113.421 192.495 113.415 191.936 113.409Z" fill="#030303"/>
<path fill-rule="evenodd" clip-rule="evenodd" d="M132.647 132.986C133.43 135.825 133.43 135.825 136.171 135.923C139.304 136.021 139.989 135.237 139.597 132.594C139.302 130.863 139.061 129.114 138.82 127.362C138.501 125.052 138.183 122.738 137.737 120.455C136.856 116.148 135.779 112.232 129.808 112.82C127.654 113.015 126.186 113.896 125.598 116.05C125.209 117.161 124.852 118.304 124.49 119.461C124.215 120.342 123.937 121.231 123.64 122.12C122.368 126.035 121.291 130.049 121.291 134.161C121.291 136.216 122.172 136.902 124.228 136.51C124.341 136.487 124.459 136.454 124.581 136.42C124.984 136.308 125.418 136.186 125.794 136.412C127.36 137.293 128.046 136.314 128.339 135.042C128.495 134.369 128.732 133.723 128.965 133.09C129.172 132.526 129.376 131.973 129.514 131.42C129.71 130.734 130.102 130.539 130.689 130.539C131.276 130.539 131.864 130.539 132.059 131.322C132.108 131.615 132.231 131.885 132.353 132.154C132.475 132.423 132.598 132.692 132.647 132.986ZM132.096 121.474C131.98 120.721 131.858 119.919 131.178 119.183C131.069 119.545 131.001 119.881 130.938 120.19C130.831 120.715 130.739 121.162 130.493 121.532C129.809 122.9 130.541 123.088 131.315 123.287C131.538 123.344 131.764 123.403 131.961 123.49C132.549 123.784 132.744 123.294 132.549 123.001C132.26 122.547 132.18 122.023 132.096 121.474Z" fill="#010101"/>
<path fill-rule="evenodd" clip-rule="evenodd" d="M37.4923 197.792V198.575C37.5041 198.747 37.516 198.919 37.5278 199.091C37.7121 201.769 37.9016 204.523 38.1775 207.19C38.2046 207.298 38.1942 207.429 38.1837 207.562C38.1562 207.908 38.1277 208.267 38.7649 208.267C39.5481 208.169 39.646 207.679 39.646 207.092C39.7001 206.55 39.6044 206.039 39.5081 205.524C39.4304 205.108 39.3523 204.69 39.3523 204.253C39.3352 204.151 39.3034 204.034 39.2696 203.91C39.1093 203.321 38.9055 202.572 40.0375 202.491C40.2153 202.473 40.3963 202.439 40.5759 202.406C41.385 202.254 42.1644 202.108 42.4849 203.47C42.7373 204.416 43.1524 205.322 43.5729 206.24C43.8048 206.746 44.0382 207.255 44.247 207.777C44.4428 208.267 44.6386 208.756 45.226 208.463C45.8133 208.169 45.7154 207.679 45.5196 207.19C45.2749 206.554 45.0302 205.942 44.7854 205.33C44.5407 204.718 44.2959 204.106 44.0512 203.47C44.0346 203.433 44.0178 203.397 44.001 203.36C43.5235 202.313 43.0043 201.175 43.8554 199.946C44.5407 198.967 44.0512 197.694 43.5617 196.617C42.7786 195.051 41.2123 194.464 39.1565 194.855C37.3944 195.247 37.3944 196.422 37.4923 197.792ZM40.4302 196.422C38.9617 196.324 38.6681 197.009 38.8639 197.89C38.8852 198.211 38.8833 198.526 38.8814 198.827C38.8748 199.906 38.8693 200.793 39.9407 201.023C41.1154 201.316 42.6817 199.75 42.6817 198.575C42.6817 197.107 41.9965 196.52 40.4302 196.422Z" fill="#040404"/>
<path d="M58.9321 6.0166C60.1068 6.40818 61.2815 6.70186 62.4563 7.09344C64.61 7.97449 67.0573 7.48502 69.3089 8.36607C72.1478 9.44291 75.0847 10.2261 77.8257 11.4008C79.5878 12.184 81.4478 12.6734 83.2099 13.3587C84.6783 13.9461 85.0699 14.5334 84.5804 16.1976C81.9373 23.9313 79.5878 31.665 77.1405 39.3986C76.7489 40.5734 76.5531 40.8671 75.0847 40.5734C71.6584 39.8881 68.33 39.2029 65.0015 38.126C63.2394 37.5386 61.0858 37.9302 59.1279 37.245C56.2889 36.266 53.45 35.385 50.611 34.6997C49.6321 34.406 48.751 34.0144 49.2405 32.546C50.2195 29.1197 51.3942 25.6934 52.471 22.2671C54.0373 17.3724 55.4079 12.4776 56.7784 7.48502C57.0721 6.31029 58.051 6.31029 58.9321 6.0166Z" fill="#030303"/>
<path d="M54.9184 7.19179C54.1353 9.24757 53.45 11.3034 52.6669 13.2613C50.9048 18.0581 49.6321 22.9528 48.1637 27.8475C47.5764 29.8054 46.3037 31.4696 46.3037 33.6233C46.3037 34.0149 45.8143 33.917 45.4227 33.917C43.9543 33.917 42.7795 33.1338 41.5069 32.6444C38.6679 31.7633 35.6332 31.8612 32.7943 30.8823C31.1301 30.3928 29.6616 29.6096 27.8995 29.4139C26.7248 29.316 26.529 28.4349 27.3122 27.3581C28.0953 26.3791 29.0743 25.596 29.9553 24.7149C33.088 21.876 36.1227 18.9391 39.3532 16.296C43.3669 13.0655 46.8911 9.24757 51.0027 6.31074C51.6879 5.82127 52.3732 5.52758 53.1563 5.42969C54.5269 5.42969 54.8205 6.21284 54.9184 7.19179Z" fill="#040404"/>
<path d="M55.9958 42.4336C55.2126 42.14 54.1358 41.9442 53.1568 41.5526C50.8074 40.6715 48.4579 39.6926 46.1084 38.7136C43.7589 37.8326 41.2137 37.441 38.6684 37.0494C35.5358 36.56 32.5011 35.7768 29.4663 35.0915C28.5853 34.8958 27.7042 34.9937 26.9211 34.8958C26.3337 34.7979 25.7464 34.4063 25.8442 33.721C25.9421 33.1337 26.4316 33.0358 27.019 33.1337C30.3474 33.721 33.6758 34.3084 37.0042 34.8958C38.9621 35.2873 41.0179 35.581 42.9758 35.8747C44.7379 36.1684 46.4021 36.8536 47.8705 37.6368C50.4158 38.8115 53.0589 39.4968 55.6042 40.4757C55.8979 40.5736 56.2895 40.6715 56.5831 40.8673C57.0726 41.161 57.1705 41.5526 57.0726 41.9442C57.0726 42.5315 56.5831 42.3357 55.9958 42.4336Z" fill="#040404"/>
<path d="M72.7356 46.5452C72.7356 47.3284 72.2461 47.5242 71.7567 47.3284C70.1904 46.741 68.5261 46.2516 66.8619 46.1537C66.4704 46.1537 65.7851 45.9579 65.883 45.0768C66.0788 44 67.4493 44.2937 67.5472 44.2937C69.0156 45.0768 70.7777 45.0768 72.2461 45.86C72.6377 46.1537 72.8335 46.2516 72.7356 46.5452Z" fill="#090909"/>
<path d="M182.671 68.4735C180.713 68.1798 178.462 67.6904 176.21 67.0051C172.294 65.7325 168.28 64.5577 164.071 64.2641C162.113 64.0683 160.253 63.5788 158.491 62.9914C155.75 62.1104 152.911 61.8167 150.366 60.3483C148.702 59.3693 146.744 58.782 144.884 58.1946C141.164 57.1178 137.444 55.943 133.626 55.2578C132.647 55.062 132.549 54.3767 132.941 53.6914C134.703 50.8525 134.996 47.622 135.877 44.5872C136.856 41.4546 137.933 38.322 138.912 35.1894C139.695 32.742 140.283 30.2946 141.262 27.9452C141.849 26.6725 142.534 26.281 143.611 26.8683C144.59 27.4557 145.765 27.4557 146.842 27.7494C152.911 29.4136 159.078 31.0778 164.952 33.3294C167.008 34.1125 169.455 34.2104 171.511 34.9936C175.329 36.3641 178.559 38.5178 179.44 42.8251C179.734 44.1957 180.517 45.2725 180.713 46.643C181.594 52.3209 182.769 57.9988 183.552 63.6767C183.65 64.7535 183.748 65.9283 184.335 67.0051C184.727 67.984 184.335 68.4735 182.671 68.4735Z" fill="#040404"/>
<path d="M177.581 82.766C175.721 82.766 174.35 81.5913 174.448 80.025C174.546 78.5565 176.406 76.7944 177.973 76.7944C179.147 76.7944 181.497 78.4586 181.595 79.3397C181.692 80.8081 179.441 82.766 177.581 82.766Z" fill="#090909"/>
<path d="M90.8465 14.1418C93.8812 14.6313 96.818 15.0229 99.7549 15.7082C107.684 17.3724 115.418 19.6239 123.152 21.6797C126.872 22.6587 130.494 23.6376 134.214 24.5187C136.465 25.106 136.955 26.8681 135.976 29.7071C133.92 35.5808 131.766 41.3565 129.711 47.2302C129.319 48.4049 129.025 49.5797 128.536 50.6565C127.851 52.2228 126.872 52.9081 125.207 52.2228C121.683 50.9502 118.061 50.167 114.439 49.286C107.88 47.8176 101.615 44.9786 94.8601 44.1955C90.7486 43.706 86.8328 42.6292 82.917 41.6502C81.8402 41.3565 81.7423 40.965 81.9381 39.986C82.6233 35.8744 84.0917 31.9587 85.2665 27.945C86.4412 23.8334 87.3223 19.6239 88.6928 15.5124C89.1823 14.2397 89.7696 14.1418 90.8465 14.1418Z" fill="#030303"/>
<path d="M120.899 63.7748C121.095 62.1106 121.683 60.4464 122.172 58.8801C122.27 58.4885 122.564 57.9012 123.249 58.1949C123.836 58.4885 123.934 58.8801 123.738 59.5654C123.347 61.0338 122.662 62.5022 122.662 64.0685C122.662 64.6559 122.466 65.4391 121.585 65.3412C120.606 65.0475 121.193 64.2643 120.899 63.7748Z" fill="#0B0B0B"/>
<path d="M74.5954 38.8111C71.9523 38.3216 69.2112 38.3216 66.7639 37.049C65.8828 36.5595 65.0018 36.2658 64.1207 36.3637C60.107 36.4616 56.5828 34.6016 52.7649 33.7206C52.4713 33.6227 52.2755 33.5248 51.9818 33.5248C50.2197 33.4269 50.4155 32.35 50.9049 31.2732C52.2755 28.0427 53.0586 24.6164 54.3312 21.288C55.8976 17.1764 56.8765 12.9669 57.9533 8.75746C58.247 7.68062 58.6386 7.38694 59.7154 7.87641C62.6523 9.14904 65.9807 8.95325 69.0154 9.9322C72.3438 11.1069 75.7702 12.2817 79.0986 13.5543C80.0775 13.9459 81.0565 14.3375 82.0354 14.729C82.9165 15.0227 83.308 15.5122 82.9165 16.3932C80.2733 23.148 78.4133 30.1964 76.0638 37.049C75.9659 37.7342 76.3575 39.3006 74.5954 38.8111Z" fill="#FEFEFE"/>
<path d="M53.1573 7.48496C51.6889 11.4986 50.4162 15.4144 49.2415 19.3302C48.1647 23.0502 46.7941 26.7702 45.7173 30.5881C45.3257 31.9586 44.7383 32.2523 43.2699 31.6649C41.1162 30.7839 38.7668 30.1965 36.5152 30.0986C34.0678 30.0007 32.1099 28.826 29.8584 28.1407C29.271 27.9449 29.4668 27.7491 29.7605 27.5533C31.6205 25.6933 33.4805 23.6376 35.4384 21.8755C39.1584 18.547 42.8783 15.3165 46.5983 12.086C48.0668 10.8134 49.5352 9.54075 51.0036 8.36601C51.591 7.77865 52.1783 7.38707 53.1573 7.48496Z" fill="#FEFEFE"/>
<path d="M181.007 66.7113C178.462 66.0261 175.819 65.4387 173.371 64.5576C170.532 63.5787 167.596 62.9913 164.659 62.6976C162.603 62.5019 160.547 61.8166 158.589 61.425C155.653 60.8377 152.814 59.9566 150.073 58.4882C147.331 57.1177 144.297 56.3345 141.36 55.3556C139.696 54.8661 137.836 54.0829 135.976 54.0829C134.997 54.0829 134.899 53.5935 135.193 52.7124C136.857 46.7408 138.717 40.8672 140.577 34.8956C141.164 33.1335 141.654 31.3714 142.143 29.5114C142.437 28.6303 142.828 28.2388 144.003 28.5325C148.702 29.5114 153.303 31.1756 158.002 32.3503C159.666 32.7419 161.33 33.5251 162.897 34.2103C165.246 35.1893 167.694 35.483 170.141 36.1682C172.49 36.7556 174.448 38.0282 176.308 39.4966C176.896 39.9861 177.287 40.7693 177.581 41.5524C179.343 46.0556 179.637 50.9503 180.811 55.5513C181.595 58.684 182.084 61.9145 182.476 65.145C182.378 66.3197 182.182 66.8092 181.007 66.7113Z" fill="#FEFEFE"/>
<path d="M177.679 81.0039C176.994 80.906 176.309 80.906 176.309 79.8292C176.309 78.8503 177.092 78.4587 177.679 78.5566C178.462 78.5566 179.539 79.1439 179.637 79.8292C179.539 80.4166 178.658 81.1018 177.679 81.0039Z" fill="#F8F8F8"/>
<path d="M83.7983 39.0072C84.092 37.8325 84.2878 36.462 84.6794 35.1893C86.5394 30.0009 87.7141 24.6167 89.0846 19.2325C89.9657 15.7083 90.3573 15.3168 93.8815 16.0999C99.5594 17.2746 105.335 18.4494 111.013 20.1136C115.712 21.3862 120.411 22.9525 125.208 24.1273C128.047 24.8125 130.788 25.4978 133.627 26.183C134.997 26.4767 135.291 27.2599 134.801 28.9241C134.116 30.9799 133.529 33.1336 132.648 35.1893C130.592 39.8883 129.026 44.783 127.361 49.6777C126.872 51.0483 126.382 51.4398 124.914 50.7546C122.956 49.8735 120.705 49.8735 118.649 49.0904C114.831 47.7198 110.817 47.0346 106.901 45.9577C102.594 44.6851 98.3846 42.923 93.8815 42.7272C90.7489 42.6293 87.812 41.7483 84.7773 40.7693C83.7983 40.2799 83.7983 40.182 83.7983 39.0072Z" fill="#FEFEFE"/>
<path fill-rule="evenodd" clip-rule="evenodd" d="M128.144 98.0374C128.144 99.4079 129.514 100.876 130.885 100.876C132.94 100.876 134.898 99.2121 134.898 97.3521C134.8 95.9816 133.234 94.709 131.374 94.6111C129.514 94.6111 128.144 95.9816 128.144 98.0374ZM129.808 97.7438C129.906 98.7227 130.2 99.3101 131.374 99.1143C132.549 99.408 133.332 98.429 133.234 97.4501C133.234 96.5054 132.49 96.491 131.771 96.477C131.447 96.4707 131.128 96.4645 130.885 96.3733C130.2 96.1775 129.808 96.8627 129.808 97.7438Z" fill="#060606"/>
<path fill-rule="evenodd" clip-rule="evenodd" d="M29.662 73.0748C29.5641 74.739 30.8368 76.4032 32.2073 76.4032C33.8715 76.4032 35.4378 75.0327 35.5357 73.4664C35.6336 71.9001 33.7736 70.4316 31.7178 70.4316C30.641 70.4316 29.662 71.7043 29.662 73.0748ZM31.2278 73.2699C31.3257 73.9551 31.7172 74.6404 32.5004 74.8362C33.1857 74.5425 33.9688 74.1509 33.8709 73.3678C33.773 72.3888 32.892 72.0951 32.0109 71.9972C31.1482 71.911 31.1978 72.7371 31.2218 73.1355C31.225 73.1891 31.2278 73.235 31.2278 73.2699Z" fill="#060606"/>
</svg>
