<svg width="383" height="558" viewBox="0 0 383 558" fill="none" xmlns="http://www.w3.org/2000/svg">
<path d="M113.88 557.146H65.991L55.4509 488.177L54.3052 480.157L53.3887 473.512L78.5933 468.701L82.0303 477.408L90.7374 498.946L112.734 553.938L113.88 557.146Z" fill="#F7FB6F"/>
<path d="M90.7374 498.946L55.4509 488.177L53.3887 473.512L78.5933 468.701L90.7374 498.946Z" fill="#181920"/>
<path d="M243.798 461.14L215.614 463.889L210.802 464.347L163.601 469.159L82.0296 477.408L54.3045 480.158L39.1818 481.761L35.5156 482.22H35.2865L20.1637 490.698C13.748 494.364 5.95746 491.843 2.52047 485.428L0 480.158V460.223C0.687399 459.536 1.60393 458.848 2.52047 458.39L17.6432 449.454L19.9346 448.079L20.1637 447.85L105.401 339.699L128.315 310.599L131.981 306.016L155.581 276L193.847 355.738L194.763 357.571L206.22 381.401L206.449 382.089L243.798 461.14Z" fill="#F7FB6F"/>
<path d="M243.797 461.138C243.797 461.138 209.657 441.203 182.848 415.311C181.702 414.166 180.786 413.249 179.64 412.103C169.558 402.022 160.851 391.252 155.81 380.483C153.977 376.588 152.602 372.693 151.457 368.568C151.228 367.881 150.998 367.193 150.998 366.506C140.687 326.866 155.352 276.228 155.352 276.228L193.617 355.966L194.534 357.799L205.99 381.629L206.22 382.316L243.797 461.138Z" fill="#DADBE7"/>
<path d="M215.614 463.89L210.802 464.348C190.639 454.266 172.996 440.518 159.477 424.479C136.792 398.128 124.648 364.446 125.565 331.909C125.794 324.806 126.711 317.474 127.856 310.829L131.293 306.246C129.46 314.495 128.315 323.202 127.856 332.138C126.94 363.988 138.855 396.983 160.851 422.875C175.516 439.602 194.305 453.808 215.614 463.89Z" fill="#181920"/>
<path d="M39.1827 481.533L35.5166 481.991C30.9339 477.867 27.0386 473.055 23.8308 467.327C20.852 461.828 18.7898 455.87 17.415 449.455L19.7064 448.08L19.9355 447.851C21.3103 454.495 23.3725 460.453 26.3512 465.952C29.7882 472.139 34.1418 477.409 39.1827 481.533Z" fill="#181920"/>
<path d="M213.322 372.695L211.947 374.299L211.489 374.986L211.031 375.445L205.761 381.631L202.324 385.756L179.64 412.106C169.558 402.024 160.851 391.255 155.81 380.486C153.977 376.59 152.602 372.695 151.456 368.571C151.227 367.883 150.998 367.196 150.998 366.509L192.471 358.26L194.533 357.801L199.116 356.885L199.803 356.656L200.491 356.427L202.553 355.968C204.157 355.739 205.761 356.198 206.677 357.572L213.781 367.196C214.697 369.029 214.697 371.32 213.322 372.695Z" fill="#181920"/>
<path d="M211.948 374.297L211.49 374.984L211.032 375.443C207.366 374.526 204.158 372.464 201.866 369.944C198.658 366.277 197.742 361.236 198.888 357.112L199.575 356.883L200.262 356.654C198.888 360.549 199.804 365.59 202.783 369.027C205.074 371.547 208.282 373.381 211.948 374.297Z" fill="#DADBE7"/>
<path d="M382.406 208.434L380.97 203.948L339.704 100.424L187.557 156.941L181.996 166.629C181.637 167.347 181.637 168.244 181.816 168.962L206.755 222.07L221.826 254.724L208.37 270.692L209.805 277.51C209.805 277.51 369.667 224.043 375.588 220.814C376.306 220.634 377.023 220.096 377.382 219.558C381.688 215.611 382.406 208.434 382.406 208.434Z" fill="#3C2238"/>
<path d="M187.019 160.888L227.388 248.085L208.37 270.692L379.894 211.664C381.867 210.946 382.944 208.793 382.226 206.64L342.395 102.577C341.678 100.604 339.525 99.7065 337.551 100.424L189.172 155.685C187.198 156.403 186.122 158.735 187.019 160.888Z" fill="#F7FB6F"/>
<path d="M283.906 166.45C283.906 166.45 277.088 152.455 288.571 141.87C299.874 131.284 313.51 140.614 313.51 140.614C313.51 140.614 321.045 137.922 324.993 133.616C324.993 133.616 324.993 141.152 319.61 145.996L329.299 140.255C329.299 140.255 326.966 149.764 322.122 152.276C322.122 152.276 328.94 184.571 311.895 202.693C294.85 220.814 284.265 222.787 269.911 224.402C255.558 226.017 246.946 221.173 246.946 221.173C246.946 221.173 265.784 218.661 274.038 206.46C274.038 206.46 260.222 208.972 253.046 197.489C253.046 197.489 258.249 197.489 261.299 195.157C261.299 195.157 246.766 195.695 241.025 179.727C241.025 179.727 247.484 181.162 250.175 179.189C250.175 179.189 232.951 170.756 238.872 154.608C239.051 154.608 255.916 169.321 283.906 166.45Z" fill="#181920"/>
<path d="M363.835 364.081L363.835 364.08C367.421 352.98 364.602 340.867 356.892 330.186C349.182 319.505 336.632 310.352 321.025 305.326L321.022 305.325C305.507 300.3 290.003 300.409 277.509 304.581C265.013 308.753 255.628 316.941 252.041 328.043C248.455 339.143 251.274 351.256 258.985 361.937C266.695 372.618 279.245 381.771 294.852 386.797L294.859 386.799L294.867 386.802C296.457 387.332 298.197 387.853 299.741 388.196L303.676 389.07L300.127 390.981C297.917 392.171 295.301 393.604 293.162 394.782C293.741 394.828 294.368 394.871 295.04 394.911C299.153 395.151 304.928 395.234 311.564 394.604C324.842 393.342 341.436 389.238 355.101 377.964C359.066 373.987 362.133 369.357 363.835 364.081Z" stroke="black" stroke-width="3"/>
<path d="M282.115 344.564C284.626 345.303 287.306 343.823 288.05 341.294C288.778 338.817 287.165 336.109 284.772 335.357C282.262 334.623 279.588 336.103 278.845 338.629C278.106 341.141 279.585 343.82 282.115 344.564Z" fill="#181920" stroke="black" stroke-width="2"/>
<path d="M307.772 351.741C310.284 352.48 312.964 351 313.708 348.471C314.446 345.959 312.967 343.28 310.438 342.536C307.926 341.797 305.246 343.277 304.502 345.806C303.764 348.317 305.243 350.997 307.772 351.741Z" fill="#181920" stroke="black" stroke-width="2"/>
<path d="M336.147 349.905L336.12 349.899L336.094 349.891C333.582 349.153 330.903 350.632 330.159 353.161C329.42 355.673 330.9 358.353 333.429 359.096C335.938 359.834 338.615 358.358 339.362 355.834C340.118 353.097 338.586 350.479 336.147 349.905Z" fill="#181920" stroke="black" stroke-width="2"/>
<path d="M115.629 39.5276L115.63 39.5181L115.631 39.5085C116.569 27.8994 123.831 17.8306 135.038 10.9497C146.244 4.06881 161.305 0.446926 177.528 1.76944L177.528 1.76949C193.84 3.09205 208.105 9.12865 218.021 17.7555C227.936 26.3822 233.431 37.5196 232.492 49.1347C231.553 60.7438 224.291 70.8126 213.085 77.6935C201.882 84.5725 186.826 88.1943 170.608 86.8749C168.817 86.6957 167.036 86.5176 165.435 86.3397L161.89 85.9458L164.088 88.755C165.605 90.6933 167.471 92.9789 169.027 94.8626C168.529 94.6986 167.997 94.5189 167.434 94.3226C163.543 92.9657 158.178 90.8251 152.293 87.6949C140.513 81.4283 126.771 71.2589 118.53 55.5868C116.134 50.438 115.118 44.9741 115.629 39.5276Z" stroke="black" stroke-width="3"/>
<path d="M193.26 47.4604C192.901 50.6899 195.054 53.5606 198.283 53.9195C201.513 54.2783 204.384 52.1253 204.742 48.8957C205.101 45.6662 202.948 42.7955 199.719 42.4367C196.669 42.0779 193.619 44.2309 193.26 47.4604Z" fill="#181920"/>
<path d="M166.706 44.2314C166.347 47.4609 168.5 50.3316 171.73 50.6905C174.959 51.0493 177.83 48.8963 178.189 45.6667C178.548 42.4372 176.395 39.5665 173.165 39.2077C170.115 38.8489 167.244 41.0019 166.706 44.2314Z" fill="#181920"/>
<path d="M140.331 41.0022C139.972 44.2317 142.125 47.1024 145.355 47.4612C148.584 47.8201 151.455 45.667 151.814 42.4375C152.173 39.208 150.02 36.3373 146.79 35.9784C143.561 35.6196 140.69 37.7726 140.331 41.0022Z" fill="#181920"/>
<path d="M378.011 46.5554C378.037 46.595 378.064 46.6352 378.091 46.6759C376.048 46.6824 373.929 46.92 371.779 47.2784L371.124 47.3875L371.41 47.9868C375.728 57.0427 372.99 67.1821 364.378 71.9973C361.884 73.293 359.523 73.6705 357.324 73.0451L357.111 72.9669C353.909 71.7891 352.378 68.5569 352.104 65.8879C351.681 60.2013 354.304 55.061 359.843 51.1118C362.569 49.2924 365.679 47.8098 369.052 46.9895L369.542 46.8704L369.419 46.3816C369.349 46.1043 369.211 45.8255 369.064 45.5698C368.917 45.3133 368.742 45.0492 368.577 44.8015L368.572 44.794L368.568 44.7877L368.563 44.7815C365.766 40.8356 361.558 37.1578 356.684 34.5897C350.317 31.0891 342.557 29.1961 335.709 29.7823C332.449 29.9505 329.477 30.8055 326.984 31.8265L326.478 32.0336L326.729 32.5189C329.123 37.148 330.021 42.3457 329.164 47.4531C328.712 50.0493 327.443 52.4593 325.531 54.042C323.632 55.6144 321.075 56.3934 317.966 55.7057L317.964 55.7053C315.548 55.1803 313.558 53.8123 312.168 52.157C310.771 50.4946 310.009 48.58 309.993 46.9955L309.993 46.9844L309.992 46.9732C309.803 43.5162 312.307 40.6369 314.4 38.5198C316.802 36.1953 320.059 33.6325 324.318 31.818L324.834 31.5983L324.557 31.1109C322.457 27.4155 319.404 24.1548 315.578 21.582C310.688 18.2244 303.666 16.4204 297.703 16.7522C292.523 16.9107 288.643 18.6668 286.332 21.6412L285.03 20.9336C287.325 17.852 291.416 16.0365 296.93 15.7283L296.93 15.7284L296.933 15.7282C303.504 15.324 310.768 17.2453 316.093 20.8934C320.21 23.7302 323.38 26.9678 325.564 30.7678L325.793 31.1659L326.209 30.9719C328.652 29.8329 331.67 29.255 334.905 28.925C342.054 28.3569 349.857 30.2773 356.61 33.7077L356.61 33.7079C362.056 36.4681 366.818 40.2985 369.782 44.761L370.286 45.5198L370.79 46.2785L370.966 46.5438L371.281 46.4963C373.388 46.1786 375.44 46.0148 377.509 45.8557C377.685 46.0658 377.836 46.2916 378.002 46.5424L378.011 46.5554ZM327.727 47.1078L327.728 47.1078L327.729 47.1007C328.434 42.2845 327.605 37.2895 325.385 33.1446L325.159 32.7213L324.727 32.9307C320.876 34.7962 317.645 37.0942 315.519 39.2427C313.504 41.1758 311.082 43.919 311.186 47.4399L311.187 47.4578L311.188 47.4757C311.491 50.4506 314.042 54.0055 317.829 54.9934L317.838 54.9956L317.846 54.9975C320.692 55.6343 323.026 54.6348 324.705 52.9925C326.37 51.3649 327.407 49.0965 327.727 47.1078ZM357.783 72.5594L357.812 72.5699L357.841 72.5769C359.429 72.9504 361.479 72.6641 363.569 71.4346C371.81 66.5859 374.284 56.8678 370.272 48.1489L370.093 47.7589L369.68 47.8774C366.427 48.8109 363.56 50.0915 361.028 51.896C355.597 55.7663 353.119 60.9764 353.531 66.4785L353.532 66.4967L353.535 66.5147C353.844 68.5966 354.992 71.5328 357.783 72.5594Z" fill="#181920" stroke="black"/>
<mask id="path-21-inside-1_1119_6638" fill="white">
<path d="M78.472 215.79C76.4984 217.404 74.8837 219.557 73.4483 221.711C72.7307 221.352 72.013 221.172 71.2953 221.172C66.2716 220.096 60.5302 221.531 55.5065 225.119C50.4828 228.708 46.715 234.09 45.1002 240.011C42.9472 239.114 40.7942 238.755 39 238.576V240.37C40.7942 240.549 42.5884 240.908 44.7414 241.805C44.562 242.523 44.3826 243.42 44.3826 244.317C43.4855 251.853 45.6385 259.747 50.4828 265.668C52.277 267.821 54.7888 269.795 57.4801 269.795C58.1978 269.795 58.736 269.615 59.4537 269.436C62.6832 268.18 63.5803 264.053 63.2215 261.003C62.3244 252.75 56.0447 245.035 46.8944 240.908C48.5092 235.346 52.0975 230.143 56.7624 226.734C61.2479 223.505 66.6304 222.069 71.1159 222.966C71.6541 223.146 72.1924 223.325 72.7306 223.505C67.7069 233.732 70.3982 247.009 79.1897 254.185C80.0868 254.903 80.9839 255.621 82.4192 255.8C83.4958 255.979 84.7517 255.621 85.8282 254.903C87.8018 253.468 88.8783 250.597 89.0577 248.623C90.3137 239.652 86.3664 229.964 79.0103 224.581C77.7544 223.684 76.4984 222.966 75.4219 222.428C76.8573 219.916 79.0103 217.763 81.3427 216.149C87.443 211.663 95.8756 209.869 103.052 212.381L103.591 210.766C94.7991 207.716 85.1105 210.048 78.472 215.79ZM61.0685 260.824C61.2479 263.515 60.7096 266.565 58.3772 267.462C56.0447 268.359 53.174 266.386 51.3799 264.233C46.8944 258.85 44.7414 251.315 45.6385 244.317C45.8179 243.6 45.8179 243.061 45.9973 242.344C54.6094 246.291 60.3508 253.288 61.0685 260.824ZM77.7544 226.017C84.5723 231.04 88.34 240.011 87.0841 248.444C86.7253 250.597 85.8282 252.57 84.5723 253.468C83.8546 254.006 83.3163 254.006 82.5987 254.006C81.7016 253.826 80.9839 253.288 80.2662 252.75C72.1924 246.111 69.6805 233.373 74.3454 224.043C75.4219 224.581 76.4984 225.119 77.7544 226.017Z"/>
</mask>
<path d="M78.472 215.79L80.3717 218.112L80.4035 218.086L80.4345 218.059L78.472 215.79ZM73.4483 221.711L72.1067 224.394L74.4754 225.578L75.9445 223.375L73.4483 221.711ZM71.2953 221.172L70.6667 224.106L70.9775 224.172H71.2953V221.172ZM45.1002 240.011L43.9464 242.78L47.0966 244.093L47.9945 240.801L45.1002 240.011ZM39 238.576L39.2985 235.591L36 235.261V238.576H39ZM39 240.37H36V243.085L38.7015 243.355L39 240.37ZM44.7414 241.805L47.6518 242.533L48.2778 240.029L45.8952 239.036L44.7414 241.805ZM44.3826 244.317L47.3615 244.672L47.3826 244.495V244.317H44.3826ZM50.4828 265.668L48.1609 267.568L48.1695 267.578L48.1781 267.589L50.4828 265.668ZM59.4537 269.436L60.1813 272.346L60.3648 272.3L60.541 272.232L59.4537 269.436ZM63.2215 261.003L60.239 261.327L60.2405 261.341L60.242 261.354L63.2215 261.003ZM46.8944 240.908L44.0134 240.072L43.2874 242.573L45.6611 243.643L46.8944 240.908ZM56.7624 226.734L55.0095 224.3L55.0009 224.306L54.9924 224.312L56.7624 226.734ZM71.1159 222.966L72.0646 220.12L71.8874 220.061L71.7042 220.025L71.1159 222.966ZM72.7306 223.505L75.4233 224.827L76.9376 221.745L73.6793 220.659L72.7306 223.505ZM79.1897 254.185L77.2926 256.509L77.3041 256.519L77.3156 256.528L79.1897 254.185ZM82.4192 255.8L82.9124 252.841L82.8521 252.831L82.7913 252.823L82.4192 255.8ZM85.8282 254.903L87.4923 257.399L87.5432 257.365L87.5927 257.329L85.8282 254.903ZM89.0577 248.623L86.0867 248.207L86.0766 248.279L86.07 248.352L89.0577 248.623ZM79.0103 224.581L80.7818 222.16L80.768 222.15L80.754 222.14L79.0103 224.581ZM75.4219 222.428L72.8172 220.94L71.2438 223.693L74.0803 225.111L75.4219 222.428ZM81.3427 216.149L83.0504 218.615L83.0855 218.591L83.1199 218.566L81.3427 216.149ZM103.052 212.381L102.061 215.212L104.935 216.218L105.898 213.329L103.052 212.381ZM103.591 210.766L106.437 211.715L107.374 208.903L104.574 207.932L103.591 210.766ZM61.0685 260.824L64.0618 260.624L64.059 260.582L64.0549 260.539L61.0685 260.824ZM51.3799 264.233L53.6845 262.312L51.3799 264.233ZM45.6385 244.317L42.7281 243.59L42.6853 243.761L42.6628 243.936L45.6385 244.317ZM45.9973 242.344L47.2473 239.616L43.9631 238.111L43.0869 241.616L45.9973 242.344ZM77.7544 226.017L79.534 223.601L79.5161 223.588L79.4981 223.575L77.7544 226.017ZM87.0841 248.444L90.0433 248.937L90.0476 248.911L90.0514 248.886L87.0841 248.444ZM84.5723 253.468L82.8285 251.026L82.8002 251.047L82.7723 251.068L84.5723 253.468ZM82.5987 254.006L82.0103 256.948L82.3016 257.006H82.5987V254.006ZM80.2662 252.75L78.3609 255.067L78.4126 255.11L78.4662 255.15L80.2662 252.75ZM74.3454 224.043L75.6871 221.36L73.0038 220.018L71.6621 222.701L74.3454 224.043ZM76.5723 213.468C74.2415 215.375 72.4265 217.835 70.9522 220.046L75.9445 223.375C77.3408 221.28 78.7554 219.434 80.3717 218.112L76.5723 213.468ZM74.79 219.027C73.7054 218.485 72.5312 218.172 71.2953 218.172V224.172C71.4947 224.172 71.7559 224.218 72.1067 224.394L74.79 219.027ZM71.9239 218.239C65.9106 216.95 59.3226 218.707 53.7628 222.678L57.2502 227.561C61.7378 224.355 66.6326 223.241 70.6667 224.106L71.9239 218.239ZM53.7628 222.678C48.1827 226.664 44.0045 232.627 42.2059 239.222L47.9945 240.801C49.4255 235.554 52.7828 230.752 57.2502 227.561L53.7628 222.678ZM46.2541 237.242C43.7182 236.185 41.2386 235.785 39.2985 235.591L38.7015 241.561C40.3498 241.726 42.1762 242.043 43.9464 242.78L46.2541 237.242ZM36 238.576V240.37H42V238.576H36ZM38.7015 243.355C40.2582 243.511 41.7555 243.811 43.5875 244.575L45.8952 239.036C43.4212 238.005 41.3301 237.588 39.2985 237.385L38.7015 243.355ZM41.831 241.078C41.63 241.882 41.3826 243.056 41.3826 244.317H47.3826C47.3826 243.784 47.4939 243.165 47.6518 242.533L41.831 241.078ZM41.4036 243.963C40.4146 252.27 42.777 260.987 48.1609 267.568L52.8046 263.768C48.4999 258.507 46.5563 251.435 47.3615 244.672L41.4036 243.963ZM48.1781 267.589C50.1163 269.914 53.398 272.795 57.4801 272.795V266.795C56.1796 266.795 54.4376 265.728 52.7874 263.747L48.1781 267.589ZM57.4801 272.795C58.6712 272.795 59.6962 272.468 60.1813 272.346L58.7261 266.525C58.5322 266.574 58.3256 266.629 58.1923 266.663C58.0406 266.702 57.9324 266.729 57.8383 266.749C57.6697 266.785 57.5731 266.795 57.4801 266.795V272.795ZM60.541 272.232C63.1864 271.203 64.7132 269.043 65.4955 266.937C66.27 264.852 66.4264 262.569 66.2009 260.653L60.242 261.354C60.3754 262.487 60.2626 263.793 59.8709 264.848C59.487 265.881 58.9505 266.413 58.3664 266.64L60.541 272.232ZM66.2039 260.679C65.166 251.13 58.0056 242.628 48.1277 238.174L45.6611 243.643C54.0839 247.442 59.4828 254.37 60.239 261.327L66.2039 260.679ZM49.7754 241.745C51.2102 236.803 54.4171 232.164 58.5325 229.156L54.9924 224.312C49.778 228.123 45.8081 233.89 44.0134 240.072L49.7754 241.745ZM58.5153 229.169C62.49 226.307 67.0395 225.211 70.5275 225.908L71.7042 220.025C66.2214 218.928 60.0057 220.702 55.0095 224.3L58.5153 229.169ZM70.1672 225.812C70.4363 225.902 70.7055 225.992 70.9746 226.082C71.2437 226.171 71.5128 226.261 71.782 226.351L73.6793 220.659C73.4102 220.569 73.1411 220.479 72.8719 220.39C72.6028 220.3 72.3337 220.21 72.0646 220.12L70.1672 225.812ZM70.038 222.182C64.4206 233.617 67.3824 248.419 77.2926 256.509L81.0868 251.861C73.4141 245.598 70.9933 233.846 75.4233 224.827L70.038 222.182ZM77.3156 256.528C78.1973 257.233 79.6857 258.482 82.0471 258.777L82.7913 252.823C82.2821 252.76 81.9763 252.573 81.0638 251.843L77.3156 256.528ZM81.926 258.759C83.9588 259.098 85.9781 258.409 87.4923 257.399L84.1641 252.407C83.5252 252.833 83.0327 252.861 82.9124 252.841L81.926 258.759ZM87.5927 257.329C89.1143 256.223 90.1553 254.677 90.8302 253.242C91.5107 251.796 91.9226 250.246 92.0454 248.895L86.07 248.352C86.0135 248.974 85.7974 249.846 85.4013 250.688C84.9998 251.541 84.5157 252.148 84.0637 252.477L87.5927 257.329ZM92.0287 249.039C93.4335 239.005 89.055 228.214 80.7818 222.16L77.2388 227.002C83.6779 231.714 87.1938 240.3 86.0867 248.207L92.0287 249.039ZM80.754 222.14C79.3488 221.136 77.954 220.34 76.7636 219.745L74.0803 225.111C75.0429 225.593 76.16 226.232 77.2666 227.022L80.754 222.14ZM78.0267 223.917C79.1981 221.867 81.0104 220.027 83.0504 218.615L79.6351 213.682C77.0101 215.499 74.5164 217.966 72.8172 220.94L78.0267 223.917ZM83.1199 218.566C88.5494 214.573 95.9588 213.076 102.061 215.212L104.043 209.549C95.7924 206.661 86.3365 208.753 79.5656 213.732L83.1199 218.566ZM105.898 213.329L106.437 211.715L100.745 209.817L100.206 211.432L105.898 213.329ZM104.574 207.932C94.6897 204.503 83.8921 207.136 76.5096 213.521L80.4345 218.059C86.3289 212.961 94.9085 210.929 102.607 213.6L104.574 207.932ZM58.0751 261.023C58.1499 262.145 58.0561 263.155 57.8187 263.867C57.5908 264.551 57.3569 264.64 57.3002 264.662L59.4541 270.262C61.73 269.387 62.9313 267.503 63.5108 265.764C64.0808 264.054 64.1665 262.194 64.0618 260.624L58.0751 261.023ZM57.3002 264.662C57.2669 264.675 56.9179 264.781 56.0759 264.338C55.2687 263.912 54.3953 263.165 53.6845 262.312L49.0752 266.153C50.1586 267.453 51.6177 268.77 53.2775 269.645C54.9025 270.502 57.155 271.146 59.4541 270.262L57.3002 264.662ZM53.6845 262.312C49.743 257.582 47.8211 250.884 48.6141 244.699L42.6628 243.936C41.6617 251.745 44.0458 260.118 49.0752 266.153L53.6845 262.312ZM48.5489 245.045C48.6808 244.517 48.744 244.061 48.7877 243.755C48.8337 243.433 48.8602 243.261 48.9077 243.071L43.0869 241.616C42.955 242.144 42.8918 242.6 42.848 242.906C42.8021 243.228 42.7756 243.4 42.7281 243.59L48.5489 245.045ZM44.7474 245.071C52.6834 248.708 57.4934 254.928 58.082 261.108L64.0549 260.539C63.2082 251.648 56.5354 243.873 47.2473 239.616L44.7474 245.071ZM75.9748 228.432C81.903 232.8 85.2083 240.674 84.1168 248.002L90.0514 248.886C91.4718 239.349 87.2416 229.281 79.534 223.601L75.9748 228.432ZM84.1249 247.951C83.8133 249.821 83.1159 250.821 82.8285 251.026L86.316 255.909C88.5405 254.32 89.6373 251.373 90.0433 248.937L84.1249 247.951ZM82.7723 251.068C82.7384 251.093 82.7478 251.081 82.7959 251.059C82.8192 251.048 82.8465 251.037 82.8767 251.027C82.9069 251.017 82.9343 251.01 82.9569 251.005C83.001 250.996 83.0111 250.998 82.9539 251.001C82.9246 251.003 82.8837 251.004 82.8229 251.005C82.7599 251.006 82.692 251.006 82.5987 251.006V257.006C82.8971 257.006 83.5356 257.017 84.2141 256.872C84.9854 256.707 85.6941 256.376 86.3723 255.868L82.7723 251.068ZM83.187 251.064C83.1603 251.059 83.0739 251.037 82.8862 250.927C82.6742 250.802 82.449 250.637 82.0662 250.35L78.4662 255.15C79.0884 255.617 80.337 256.613 82.0103 256.948L83.187 251.064ZM82.1715 250.433C75.2133 244.711 72.9695 233.503 77.0287 225.385L71.6621 222.701C66.3916 233.242 69.1715 247.511 78.3609 255.067L82.1715 250.433ZM73.0038 226.726C74.0757 227.262 74.9643 227.71 76.0106 228.458L79.4981 223.575C78.0325 222.529 76.7682 221.9 75.6871 221.36L73.0038 226.726Z" fill="#181920" mask="url(#path-21-inside-1_1119_6638)"/>
<path d="M110.105 144.81L119.435 149.116C120.691 149.654 120.691 151.448 119.435 151.987L110.105 156.293C109.746 156.472 109.387 156.652 109.387 157.01L105.081 166.34C104.543 167.596 102.749 167.596 102.21 166.34L98.0839 157.19C97.9045 156.831 97.5456 156.472 97.1868 156.293L88.0365 152.704C86.7805 152.166 86.6011 150.372 87.857 149.834L97.1868 144.989C97.5456 144.81 97.725 144.631 97.9045 144.272L102.21 134.942C102.749 133.686 104.543 133.686 105.081 134.942L109.387 144.272C109.387 144.451 109.746 144.631 110.105 144.81Z" fill="#181920"/>
<path d="M314.105 502.81L323.435 507.116C324.691 507.654 324.691 509.448 323.435 509.987L314.105 514.293C313.746 514.472 313.387 514.652 313.387 515.01L309.081 524.34C308.543 525.596 306.749 525.596 306.21 524.34L302.084 515.19C301.904 514.831 301.546 514.472 301.187 514.293L292.036 510.704C290.781 510.166 290.601 508.372 291.857 507.834L301.187 502.989C301.546 502.81 301.725 502.631 301.904 502.272L306.21 492.942C306.749 491.686 308.543 491.686 309.081 492.942L313.387 502.272C313.387 502.272 313.746 502.631 314.105 502.81Z" fill="#181920"/>
</svg>
