<svg width="218" height="149" viewBox="0 0 218 149" fill="none" xmlns="http://www.w3.org/2000/svg">
<path d="M108.645 148.791H85.8556L80.8398 115.971L80.2946 112.154L79.8584 108.992L91.8528 106.702L93.4884 110.846L97.6319 121.095L108.1 147.265L108.645 148.791Z" fill="#F7FB6F"/>
<path d="M97.6319 121.095L80.8398 115.971L79.8584 108.992L91.8528 106.702L97.6319 121.095Z" fill="#181920"/>
<path d="M170.47 103.104L157.059 104.413L154.769 104.631L132.307 106.92L93.4884 110.846L80.2946 112.154L73.0979 112.918L71.3533 113.136H71.2443L64.0476 117.17C60.9945 118.915 57.2872 117.715 55.6516 114.662L54.4521 112.154V102.668C54.7793 102.341 55.2154 102.014 55.6516 101.796L62.8482 97.5431L63.9386 96.8888L64.0476 96.7798L104.61 45.313L115.514 31.465L117.259 29.2842L128.49 15L146.7 52.9458L147.136 53.8181L152.588 65.1583L152.697 65.4854L170.47 103.104Z" fill="#F7FB6F"/>
<path d="M170.47 103.103C170.47 103.103 154.223 93.6168 141.466 81.2953C140.92 80.7501 140.484 80.3139 139.939 79.7687C135.141 74.971 130.998 69.8461 128.599 64.7212C127.727 62.8676 127.072 61.0139 126.527 59.0512C126.418 58.7241 126.309 58.3969 126.309 58.0698C121.402 39.2059 128.381 15.1082 128.381 15.1082L146.59 53.054L147.027 53.9263L152.479 65.2664L152.588 65.5936L170.47 103.103Z" fill="#DADBE7"/>
<path d="M157.059 104.413L154.769 104.631C145.174 99.833 136.778 93.2906 130.344 85.6578C119.55 73.1182 113.77 57.0894 114.207 41.6058C114.316 38.2255 114.752 34.7363 115.297 31.5741L116.933 29.3933C116.06 33.3187 115.515 37.4622 115.297 41.7148C114.861 56.8713 120.531 72.573 130.999 84.8945C137.977 92.8544 146.919 99.6149 157.059 104.413Z" fill="#181920"/>
<path d="M73.099 112.809L71.3544 113.027C69.1736 111.064 67.3199 108.775 65.7933 106.049C64.3758 103.432 63.3945 100.597 62.7402 97.5435L63.8306 96.8893L63.9397 96.7803C64.5939 99.9424 65.5753 102.777 66.9928 105.394C68.6284 108.338 70.7001 110.846 73.099 112.809Z" fill="#181920"/>
<path d="M155.969 61.015L155.315 61.7783L155.097 62.1054L154.879 62.3235L152.371 65.2675L150.735 67.2303L139.941 79.7698C135.143 74.9721 130.999 69.8472 128.6 64.7223C127.728 62.8687 127.074 61.015 126.529 59.0523C126.42 58.7252 126.311 58.3981 126.311 58.0709L146.047 54.1455L147.028 53.9274L149.209 53.4912L149.536 53.3822L149.863 53.2732L150.844 53.0551C151.608 52.9461 152.371 53.1641 152.807 53.8184L156.187 58.398C156.624 59.2704 156.624 60.3608 155.969 61.015Z" fill="#181920"/>
<path d="M155.314 61.7774L155.096 62.1045L154.878 62.3226C153.133 61.8864 151.607 60.9051 150.516 59.7057C148.99 57.961 148.554 55.5621 149.099 53.5994L149.426 53.4904L149.753 53.3813C149.099 55.235 149.535 57.6339 150.953 59.2695C152.043 60.4689 153.57 61.3412 155.314 61.7774Z" fill="#DADBE7"/>
<mask id="path-9-inside-1_1306_8554" fill="white">
<path d="M33.2361 83.0308C32.2969 83.7992 31.5285 84.8238 30.8454 85.8484C30.5039 85.6776 30.1623 85.5922 29.8208 85.5922C27.4301 85.0799 24.6979 85.763 22.3072 87.4706C19.9166 89.1783 18.1236 91.7397 17.3551 94.5573C16.3305 94.1304 15.306 93.9596 14.4521 93.8742V94.7281C15.306 94.8134 16.1598 94.9842 17.1844 95.4111C17.099 95.7526 17.0136 96.1795 17.0136 96.6065C16.5867 100.192 17.6113 103.949 19.9166 106.767C20.7704 107.791 21.9657 108.731 23.2464 108.731C23.588 108.731 23.8441 108.645 24.1856 108.56C25.7225 107.962 26.1494 105.998 25.9787 104.547C25.5517 100.619 22.5634 96.948 18.2089 94.9842C18.9774 92.3374 20.685 89.8613 22.9049 88.2391C25.0395 86.7022 27.6009 86.0191 29.7354 86.4461C29.9916 86.5314 30.2477 86.6168 30.5039 86.7022C28.1132 91.5689 29.3939 97.8872 33.5776 101.302C34.0045 101.644 34.4314 101.985 35.1145 102.071C35.6268 102.156 36.2244 101.985 36.7367 101.644C37.6759 100.961 38.1882 99.5948 38.2736 98.6556C38.8713 94.3865 36.9929 89.7759 33.4922 87.2145C32.8946 86.7876 32.2969 86.446 31.7846 86.1899C32.4676 84.9946 33.4922 83.97 34.6022 83.2016C37.5052 81.067 41.5181 80.2132 44.9333 81.4085L45.1895 80.6401C41.0058 79.1886 36.3952 80.2986 33.2361 83.0308ZM24.9541 104.462C25.0395 105.742 24.7833 107.194 23.6734 107.621C22.5634 108.048 21.1973 107.108 20.3435 106.084C18.2089 103.522 17.1844 99.9363 17.6113 96.6065C17.6966 96.2649 17.6966 96.0088 17.782 95.6672C21.8803 97.5456 24.6125 100.876 24.9541 104.462ZM32.8946 87.8975C36.1391 90.2882 37.9321 94.5573 37.3344 98.5702C37.1636 99.5948 36.7367 100.534 36.1391 100.961C35.7975 101.217 35.5414 101.217 35.1999 101.217C34.7729 101.132 34.4314 100.876 34.0899 100.619C30.2477 97.4603 29.0524 91.3982 31.2723 86.9583C31.7846 87.2145 32.2969 87.4706 32.8946 87.8975Z"/>
</mask>
<path d="M33.2361 83.0308L34.1401 84.1357L34.1552 84.1234L34.17 84.1106L33.2361 83.0308ZM30.8454 85.8484L30.2069 87.1253L31.3342 87.6889L32.0333 86.6403L30.8454 85.8484ZM29.8208 85.5922L29.5217 86.9882L29.6696 87.0199H29.8208V85.5922ZM17.3551 94.5573L16.806 95.8751L18.3051 96.4997L18.7325 94.9329L17.3551 94.5573ZM14.4521 93.8742L14.5942 92.4537L13.0245 92.2967V93.8742H14.4521ZM14.4521 94.7281H13.0245V96.0201L14.3101 96.1486L14.4521 94.7281ZM17.1844 95.4111L18.5694 95.7574L18.8673 94.5657L17.7334 94.0933L17.1844 95.4111ZM17.0136 96.6065L18.4312 96.7752L18.4412 96.6911V96.6065H17.0136ZM19.9166 106.767L18.8116 107.671L18.8198 107.681L19.9166 106.767ZM24.1856 108.56L24.5319 109.945L24.6192 109.923L24.7031 109.89L24.1856 108.56ZM25.9787 104.547L24.5593 104.701L24.5608 104.714L25.9787 104.547ZM18.2089 94.9842L16.8379 94.5862L16.4924 95.7762L17.622 96.2856L18.2089 94.9842ZM22.9049 88.2391L22.0707 87.0805L22.0626 87.0864L22.9049 88.2391ZM29.7354 86.4461L30.1869 85.0917L30.1026 85.0636L30.0154 85.0461L29.7354 86.4461ZM30.5039 86.7022L31.7853 87.3316L32.5059 85.8647L30.9553 85.3478L30.5039 86.7022ZM33.5776 101.302L32.6748 102.408L32.6858 102.417L33.5776 101.302ZM35.1145 102.071L35.3492 100.663L35.3204 100.658L35.2916 100.654L35.1145 102.071ZM36.7367 101.644L37.5286 102.832L37.5529 102.816L37.5764 102.799L36.7367 101.644ZM38.2736 98.6556L36.8597 98.4577L36.8549 98.4919L36.8518 98.5264L38.2736 98.6556ZM33.4922 87.2145L34.3353 86.0623L34.3287 86.0575L34.322 86.0528L33.4922 87.2145ZM31.7846 86.1899L30.5451 85.4816L29.7963 86.7919L31.1461 87.4668L31.7846 86.1899ZM34.6022 83.2016L35.4148 84.3753L35.4315 84.3638L35.4479 84.3517L34.6022 83.2016ZM44.9333 81.4085L44.4617 82.756L45.8295 83.2347L46.2877 81.86L44.9333 81.4085ZM45.1895 80.6401L46.5439 81.0916L46.9899 79.7536L45.6574 79.2913L45.1895 80.6401ZM24.9541 104.462L26.3786 104.367L26.3772 104.346L26.3753 104.326L24.9541 104.462ZM20.3435 106.084L21.4402 105.17L20.3435 106.084ZM17.6113 96.6065L16.2263 96.2602L16.2059 96.3416L16.1952 96.4249L17.6113 96.6065ZM17.782 95.6672L18.3769 94.3694L16.814 93.6531L16.397 95.321L17.782 95.6672ZM32.8946 87.8975L33.7414 86.7482L33.7329 86.7419L33.7244 86.7358L32.8946 87.8975ZM37.3344 98.5702L38.7426 98.8049L38.7446 98.7927L38.7465 98.7805L37.3344 98.5702ZM36.1391 100.961L35.3093 99.7992L35.2957 99.8088L35.2825 99.8188L36.1391 100.961ZM35.1999 101.217L34.9199 102.617L35.0585 102.645H35.1999V101.217ZM34.0899 100.619L33.1832 101.722L33.2078 101.742L33.2333 101.761L34.0899 100.619ZM31.2723 86.9583L31.9108 85.6814L30.6338 85.043L29.9954 86.3199L31.2723 86.9583ZM32.332 81.9259C31.2228 82.8334 30.3592 84.004 29.6575 85.0565L32.0333 86.6403C32.6978 85.6436 33.3709 84.7651 34.1401 84.1357L32.332 81.9259ZM31.4839 84.5715C30.9677 84.3134 30.409 84.1646 29.8208 84.1646V87.0199C29.9157 87.0199 30.04 87.0418 30.2069 87.1253L31.4839 84.5715ZM30.12 84.1963C27.2584 83.5831 24.1233 84.419 21.4774 86.3089L23.137 88.6323C25.2726 87.1069 27.6019 86.5768 29.5217 86.9882L30.12 84.1963ZM21.4774 86.3089C18.822 88.2056 16.8337 91.0434 15.9778 94.1817L18.7325 94.9329C19.4134 92.436 21.0111 90.1509 23.137 88.6323L21.4774 86.3089ZM17.9042 93.2395C16.6974 92.7366 15.5174 92.546 14.5942 92.4537L14.3101 95.2948C15.0945 95.3732 15.9637 95.5241 16.806 95.8751L17.9042 93.2395ZM13.0245 93.8742V94.7281H15.8798V93.8742H13.0245ZM14.3101 96.1486C15.0509 96.2227 15.7634 96.3657 16.6353 96.7289L17.7334 94.0933C16.5561 93.6027 15.561 93.4042 14.5942 93.3075L14.3101 96.1486ZM15.7993 95.0648C15.7037 95.4474 15.586 96.0065 15.586 96.6065H18.4412C18.4412 96.3526 18.4942 96.0579 18.5694 95.7574L15.7993 95.0648ZM15.596 96.4377C15.1253 100.391 16.2496 104.539 18.8116 107.671L21.0215 105.863C18.973 103.359 18.0481 99.9938 18.4312 96.7752L15.596 96.4377ZM18.8198 107.681C19.7422 108.788 21.3039 110.158 23.2464 110.158V107.303C22.6276 107.303 21.7986 106.795 21.0133 105.853L18.8198 107.681ZM23.2464 110.158C23.8133 110.158 24.301 110.003 24.5319 109.945L23.8394 107.175C23.7471 107.198 23.6488 107.224 23.5854 107.24C23.5132 107.259 23.4617 107.272 23.4169 107.281C23.3367 107.299 23.2907 107.303 23.2464 107.303V110.158ZM24.7031 109.89C25.962 109.401 26.6885 108.373 27.0608 107.371C27.4294 106.378 27.5038 105.292 27.3965 104.38L24.5608 104.714C24.6243 105.253 24.5706 105.875 24.3842 106.376C24.2015 106.868 23.9462 107.121 23.6682 107.229L24.7031 109.89ZM27.3979 104.393C26.904 99.8485 23.4965 95.8027 18.7958 93.6828L17.622 96.2856C21.6303 98.0933 24.1995 101.39 24.5594 104.701L27.3979 104.393ZM19.58 95.3822C20.2628 93.0304 21.7888 90.8229 23.7472 89.3917L22.0626 87.0864C19.5812 88.8997 17.692 91.6443 16.8379 94.5862L19.58 95.3822ZM23.7391 89.3976C25.6306 88.0358 27.7956 87.514 29.4555 87.846L30.0154 85.0461C27.4062 84.5243 24.4483 85.3686 22.0707 87.0805L23.7391 89.3976ZM29.284 87.8004C29.4121 87.8431 29.5401 87.8858 29.6682 87.9285C29.7963 87.9712 29.9243 88.0139 30.0524 88.0566L30.9553 85.3478C30.8273 85.3051 30.6992 85.2624 30.5711 85.2197C30.443 85.1771 30.315 85.1344 30.1869 85.0917L29.284 87.8004ZM29.2225 86.0727C26.5493 91.5146 27.9587 98.5585 32.6748 102.408L34.4804 100.196C30.8291 97.2158 29.6771 91.6233 31.7853 87.3316L29.2225 86.0727ZM32.6858 102.417C33.1054 102.753 33.8136 103.347 34.9374 103.487L35.2916 100.654C35.0492 100.624 34.9037 100.535 34.4694 100.188L32.6858 102.417ZM34.8798 103.479C35.8471 103.64 36.8081 103.312 37.5286 102.832L35.9448 100.456C35.6408 100.659 35.4064 100.672 35.3492 100.663L34.8798 103.479ZM37.5764 102.799C38.3005 102.272 38.7959 101.536 39.1171 100.854C39.4409 100.166 39.6369 99.4278 39.6954 98.7849L36.8518 98.5264C36.8249 98.8226 36.7221 99.2375 36.5336 99.6379C36.3425 100.044 36.1122 100.333 35.897 100.489L37.5764 102.799ZM39.6874 98.8535C40.3559 94.0785 38.2723 88.9431 34.3353 86.0623L32.6492 88.3666C35.7134 90.6088 37.3866 94.6945 36.8597 98.4577L39.6874 98.8535ZM34.322 86.0528C33.6533 85.5751 32.9896 85.1962 32.4231 84.913L31.1461 87.4668C31.6042 87.6959 32.1358 88 32.6624 88.3762L34.322 86.0528ZM33.0241 86.8982C33.5816 85.9226 34.4441 85.0474 35.4148 84.3753L33.7896 82.0278C32.5404 82.8926 31.3537 84.0665 30.5451 85.4816L33.0241 86.8982ZM35.4479 84.3517C38.0317 82.4519 41.5577 81.7396 44.4617 82.756L45.405 80.0611C41.4785 78.6868 36.9786 79.6821 33.7565 82.0514L35.4479 84.3517ZM46.2877 81.86L46.5439 81.0916L43.8351 80.1886L43.579 80.9571L46.2877 81.86ZM45.6574 79.2913C40.9537 77.6594 35.8154 78.9125 32.3022 81.951L34.17 84.1106C36.975 81.6846 41.0579 80.7178 44.7216 81.9889L45.6574 79.2913ZM23.5296 104.557C23.5652 105.09 23.5206 105.571 23.4076 105.91C23.2992 106.235 23.1878 106.278 23.1609 106.288L24.1858 108.953C25.2689 108.537 25.8406 107.64 26.1163 106.813C26.3876 105.999 26.4284 105.114 26.3786 104.367L23.5296 104.557ZM23.1609 106.288C23.145 106.294 22.9789 106.345 22.5782 106.134C22.1941 105.931 21.7785 105.576 21.4402 105.17L19.2467 106.998C19.7623 107.616 20.4566 108.243 21.2465 108.659C22.0198 109.067 23.0917 109.374 24.1858 108.953L23.1609 106.288ZM21.4402 105.17C19.5645 102.919 18.6499 99.7316 19.0273 96.788L16.1952 96.4249C15.7188 100.141 16.8534 104.126 19.2467 106.998L21.4402 105.17ZM18.9963 96.9527C19.0591 96.7016 19.0891 96.4845 19.1099 96.3387C19.1318 96.1856 19.1444 96.1039 19.167 96.0135L16.397 95.321C16.3342 95.5721 16.3042 95.7892 16.2834 95.935C16.2615 96.0881 16.2489 96.1698 16.2263 96.2602L18.9963 96.9527ZM17.1872 96.9651C20.9638 98.696 23.2528 101.656 23.5329 104.597L26.3753 104.326C25.9723 100.095 22.7969 96.3953 18.3769 94.3694L17.1872 96.9651ZM32.0477 89.0469C34.8688 91.1256 36.4417 94.8726 35.9223 98.3599L38.7465 98.7805C39.4224 94.242 37.4093 89.4509 33.7414 86.7482L32.0477 89.0469ZM35.9262 98.3355C35.7779 99.2254 35.446 99.7015 35.3093 99.7992L36.9689 102.123C38.0274 101.366 38.5494 99.9642 38.7426 98.8049L35.9262 98.3355ZM35.2825 99.8188C35.2664 99.8309 35.2708 99.8254 35.2937 99.8147C35.3048 99.8096 35.3178 99.8043 35.3322 99.7995C35.3465 99.7948 35.3596 99.7914 35.3703 99.7891C35.3913 99.7846 35.3961 99.7859 35.3689 99.7873C35.355 99.788 35.3355 99.7887 35.3066 99.789C35.2766 99.7894 35.2443 99.7894 35.1999 99.7894V102.645C35.3419 102.645 35.6457 102.65 35.9686 102.581C36.3357 102.502 36.6729 102.345 36.9956 102.103L35.2825 99.8188ZM35.4798 99.8171C35.4671 99.8146 35.426 99.8043 35.3367 99.7517C35.2358 99.6924 35.1287 99.6139 34.9465 99.4773L33.2333 101.761C33.5294 101.984 34.1236 102.458 34.9199 102.617L35.4798 99.8171ZM34.9966 99.5166C31.6853 96.794 30.6175 91.4602 32.5492 87.5968L29.9954 86.3199C27.4872 91.3362 28.8102 98.1265 33.1832 101.722L34.9966 99.5166ZM30.6338 88.2353C31.1439 88.4903 31.5668 88.7036 32.0648 89.0592L33.7244 86.7358C33.0269 86.2377 32.4253 85.9387 31.9108 85.6814L30.6338 88.2353Z" fill="#181920" mask="url(#path-9-inside-1_1306_8554)"/>
<path d="M83.4473 12.1442L87.8871 14.1934C88.4848 14.4495 88.4848 15.3034 87.8871 15.5595L83.4473 17.6087C83.2765 17.694 83.1058 17.7794 83.1058 17.9502L81.0566 22.39C80.8005 22.9877 79.9467 22.9877 79.6905 22.39L77.7267 18.0356C77.6414 17.8648 77.4706 17.694 77.2998 17.6087L72.9454 15.901C72.3477 15.6449 72.2623 14.7911 72.86 14.5349L77.2998 12.2296C77.4706 12.1442 77.556 12.0589 77.6414 11.8881L79.6905 7.44825C79.9467 6.85058 80.8005 6.85058 81.0566 7.44825L83.1058 11.8881C83.1058 11.9735 83.2765 12.0589 83.4473 12.1442Z" fill="#181920"/>
<path d="M203.447 103.144L207.887 105.193C208.485 105.45 208.485 106.303 207.887 106.559L203.447 108.609C203.277 108.694 203.106 108.779 203.106 108.95L201.057 113.39C200.8 113.988 199.947 113.988 199.691 113.39L197.727 109.036C197.641 108.865 197.471 108.694 197.3 108.609L192.945 106.901C192.348 106.645 192.262 105.791 192.86 105.535L197.3 103.23C197.471 103.144 197.556 103.059 197.641 102.888L199.691 98.4483C199.947 97.8506 200.8 97.8506 201.057 98.4483L203.106 102.888C203.106 102.888 203.277 103.059 203.447 103.144Z" fill="#181920"/>
<path d="M216.1 30.4949L216.1 30.4946C217.807 25.2119 216.465 19.4478 212.796 14.365C209.127 9.2822 203.155 4.92633 195.728 2.53451L195.727 2.53415C188.343 0.142918 180.965 0.194492 175.019 2.17993C169.073 4.16546 164.607 8.06207 162.9 13.3449C161.193 18.6275 162.535 24.3917 166.204 29.4744C169.873 34.5572 175.845 38.9131 183.273 41.3049L183.273 41.3049L183.28 41.3072C184.036 41.5594 184.864 41.8073 185.599 41.9706L187.472 42.3866L185.783 43.2959C184.731 43.8622 183.486 44.5444 182.468 45.105C182.744 45.1266 183.042 45.1473 183.362 45.166C185.319 45.2804 188.067 45.3199 191.226 45.0199C197.544 44.4196 205.441 42.4666 211.944 37.1013C213.831 35.2086 215.29 33.0058 216.1 30.4949Z" stroke="black" stroke-width="1.42764"/>
<path d="M177.211 21.2073C178.406 21.5588 179.681 20.8546 180.035 19.6511C180.382 18.4723 179.614 17.1838 178.475 16.8255C177.281 16.4767 176.008 17.1806 175.655 18.3828C175.303 19.578 176.007 20.8533 177.211 21.2073Z" fill="#181920" stroke="black" stroke-width="0.951759"/>
<path d="M189.421 24.6225C190.617 24.9741 191.892 24.2699 192.246 23.0664C192.597 21.8712 191.893 20.5959 190.69 20.242C189.495 19.8904 188.219 20.5946 187.865 21.7981C187.514 22.9933 188.218 24.2686 189.421 24.6225Z" fill="#181920" stroke="black" stroke-width="0.951759"/>
<path d="M202.924 23.7489L202.911 23.7459L202.899 23.7422C201.703 23.3907 200.428 24.0948 200.074 25.2983C199.723 26.4935 200.427 27.7688 201.63 28.1228C202.824 28.474 204.098 27.7715 204.454 26.5701C204.814 25.2678 204.085 24.022 202.924 23.7489Z" fill="#181920" stroke="black" stroke-width="0.951759"/>
<path d="M1.22729 30.8104L1.22735 30.8104L1.22808 30.8013C1.67492 25.2767 5.13074 20.4852 10.4635 17.2107C15.7962 13.9363 22.9635 12.2127 30.6836 12.842L30.684 12.8421C38.4463 13.4714 45.235 16.3441 49.9535 20.4495C54.672 24.5548 57.287 29.8548 56.8399 35.3822C56.3931 40.9067 52.9373 45.6982 47.6045 48.9727C42.2733 52.2463 35.1085 53.9698 27.3909 53.342C26.5383 53.2567 25.691 53.1719 24.9291 53.0873L23.2419 52.8998L24.2882 54.2367C25.0101 55.1591 25.8978 56.2467 26.6381 57.1432C26.4013 57.0651 26.1483 56.9796 25.8805 56.8862C24.0288 56.2405 21.4754 55.2218 18.6752 53.7322C13.0692 50.7501 6.5297 45.9106 2.60788 38.4526C1.46744 36.0024 0.984298 33.4023 1.22729 30.8104Z" stroke="black" stroke-width="1.42764"/>
<path d="M38.1699 34.5853C37.9992 36.1221 39.0237 37.4882 40.5606 37.659C42.0975 37.8298 43.4636 36.8052 43.6343 35.2683C43.8051 33.7314 42.7805 32.3653 41.2437 32.1946C39.7922 32.0238 38.3407 33.0484 38.1699 34.5853Z" fill="#181920"/>
<path d="M25.5342 33.0486C25.3634 34.5855 26.388 35.9516 27.9249 36.1224C29.4617 36.2931 30.8278 35.2686 30.9986 33.7317C31.1694 32.1948 30.1448 30.8287 28.6079 30.658C27.1564 30.4872 25.7903 31.5118 25.5342 33.0486Z" fill="#181920"/>
<path d="M12.9824 31.512C12.8117 33.0489 13.8362 34.415 15.3731 34.5858C16.91 34.7565 18.2761 33.7319 18.4468 32.1951C18.6176 30.6582 17.593 29.2921 16.0562 29.1213C14.5193 28.9506 13.1532 29.9752 12.9824 31.512Z" fill="#181920"/>
</svg>
