<svg width="379" height="432" viewBox="0 0 379 432" fill="none" xmlns="http://www.w3.org/2000/svg">
<path fill-rule="evenodd" clip-rule="evenodd" d="M331.431 278.92C338.45 320.787 349.387 369.927 320.283 400.915C291.182 431.9 241.331 423.715 198.919 420.008C162.966 416.865 131.944 402.014 102.062 381.839C63.82 356.02 11.3512 335.481 5.97994 289.747C0.504531 243.127 44.0588 207.518 77.7358 174.709C109.359 143.901 144.508 109.082 188.636 111.799C230.92 114.403 257.021 155.29 284.49 187.439C307.651 214.544 325.542 243.799 331.431 278.92Z" fill="#F1F2F3"/>
<path d="M86.6307 234.118L22.9087 54.6484C20.7114 48.4915 27.6329 38.8508 34.1809 37.7553L167.052 18.7807C173.622 17.6852 180.697 21.7825 182.895 27.9394L250.264 206.357C252.462 212.514 245.254 219.438 238.706 220.533L102.473 243.277C95.9033 244.372 88.828 240.275 86.6307 234.118Z" fill="#24252D"/>
<path d="M91.0914 228.969L27.3694 49.4992C25.1721 43.3424 28.7318 37.4703 35.2797 36.3748L171.491 13.6535C178.061 12.558 185.136 16.6553 187.334 22.8122L251.056 202.282C253.253 208.439 249.693 214.311 243.145 215.406L106.934 238.128C100.364 239.245 93.2668 235.126 91.0914 228.969Z" fill="#24252D"/>
<path d="M100.145 222.154L39.9823 52.7198C38.8178 49.4113 40.7074 46.2781 44.2231 45.6865L169.777 24.74C173.293 24.1484 177.094 26.3614 178.259 29.648L238.421 199.083C239.586 202.391 237.696 205.524 234.181 206.116L108.626 227.062C105.111 227.654 101.331 225.441 100.145 222.154Z" fill="#F7FB6F"/>
<path d="M81.2472 33.9428C80.9396 33.0445 81.445 32.2119 82.3898 32.0585L122.359 25.3758C123.304 25.2224 124.336 25.814 124.644 26.6904C124.952 27.5887 124.446 28.4213 123.502 28.5747L83.5324 35.2355C82.5876 35.4108 81.5549 34.8192 81.2472 33.9428Z" fill="white"/>
<path d="M102.736 239.836C97.5724 239.836 92.8482 236.615 91.0683 231.598L26.5114 49.8057C26.3795 49.4333 24.5997 44.4377 27.3683 39.946C27.6979 39.4201 28.401 39.2448 28.9284 39.5735C29.4557 39.9022 29.6315 40.6033 29.3019 41.1292C27.0827 44.7225 28.6208 48.9731 28.6427 49.017V49.0389L93.1997 230.831C94.8477 235.476 99.5939 238.237 104.45 237.404L106.691 237.01L246.44 213.237C247.055 213.127 247.649 213.544 247.759 214.157C247.868 214.771 247.451 215.362 246.836 215.472L107.087 239.245L104.845 239.639C104.142 239.771 103.439 239.836 102.736 239.836Z" fill="white"/>
<path d="M293.453 388.778L377.676 217.919C380.576 212.047 374.841 201.684 368.447 199.843L238.696 165.597C232.302 163.756 224.787 166.999 221.886 172.871L134.17 342.262C131.269 348.134 137.62 355.847 143.992 357.687L276.643 396.053C283.038 397.893 290.574 394.65 293.453 388.778Z" fill="#24252D"/>
<path d="M289.63 383.17L373.853 212.311C376.753 206.439 373.897 200.194 367.525 198.354L234.873 159.988C228.479 158.148 220.964 161.391 218.064 167.263L133.841 338.121C130.94 343.993 133.797 350.238 140.169 352.078L272.821 390.444C279.237 392.284 286.752 389.02 289.63 383.17Z" fill="#24252D"/>
<path d="M281.434 375.326L360.955 214.02C362.493 210.887 360.977 207.535 357.571 206.549L235.291 171.185C231.863 170.199 227.842 171.93 226.282 175.085L146.761 336.391C145.223 339.524 146.739 342.876 150.145 343.862L272.403 379.226C275.853 380.212 279.874 378.459 281.434 375.326Z" fill="white"/>
<path d="M322.15 190.598C322.567 189.743 322.15 188.845 321.227 188.582L282.313 177.32C281.39 177.057 280.313 177.517 279.896 178.372C279.478 179.226 279.896 180.125 280.818 180.388L319.733 191.65C320.656 191.913 321.732 191.431 322.15 190.598Z" fill="white"/>
<path d="M278.247 392.679C277.083 392.679 275.896 392.504 274.71 392.175L272.512 391.518L136.499 351.706C135.906 351.531 135.554 350.895 135.73 350.304C135.906 349.712 136.543 349.362 137.136 349.537L273.15 389.348L275.347 390.006C280.093 391.408 285.103 389.217 287.3 384.791L372.622 211.719C372.622 211.719 372.622 211.697 372.644 211.697C372.666 211.654 374.687 207.622 372.908 203.788C372.644 203.218 372.886 202.539 373.457 202.276C374.028 202.013 374.709 202.254 374.973 202.824C377.214 207.622 374.841 212.377 374.687 212.705L289.366 385.777C287.213 390.093 282.862 392.679 278.247 392.679Z" fill="white"/>
<path d="M130.326 280.698C123.998 284.796 116.879 287.118 109.452 287.491C105.057 268.845 88.2698 254.932 68.2303 254.932C44.829 254.932 25.8662 273.84 25.8662 297.175C25.8662 320.51 44.829 339.419 68.2303 339.419C88.2478 339.419 105.013 325.571 109.43 306.947C119.757 302.5 128.876 295.269 132.084 283.963C132.326 283.174 131.974 279.625 130.326 280.698Z" fill="#24252D"/>
<path d="M42.8737 284.271C55.3983 286.637 68.2087 287.316 80.8871 286.221C84.4907 285.914 88.0723 285.454 91.632 284.862C92.423 284.731 92.7306 283.876 92.7087 283.153C92.6867 282.627 92.3351 281.356 91.5441 281.488C79.0853 283.569 66.3409 283.942 53.7943 282.562C50.3006 282.189 46.8288 281.663 43.3791 281.028C42.588 280.874 42.1486 281.532 42.0387 282.233C41.9508 282.781 42.1046 284.139 42.8737 284.271Z" fill="white"/>
<path d="M42.8737 297.416C55.3983 299.782 68.2087 300.461 80.8871 299.366C84.4907 299.059 88.0723 298.599 91.632 298.007C92.423 297.876 92.7306 297.021 92.7087 296.298C92.6867 295.772 92.3351 294.502 91.5441 294.633C79.0853 296.714 66.3409 297.087 53.7943 295.707C50.3006 295.334 46.8288 294.808 43.3791 294.173C42.588 294.019 42.1486 294.677 42.0387 295.378C41.9508 295.926 42.1046 297.284 42.8737 297.416Z" fill="white"/>
<path d="M42.8737 310.935C55.3983 313.302 68.2087 313.981 80.8871 312.885C84.4907 312.578 88.0723 312.118 91.632 311.527C92.423 311.395 92.7306 310.541 92.7087 309.818C92.6867 309.292 92.3351 308.021 91.5441 308.152C79.0853 310.234 66.3409 310.606 53.7943 309.226C50.3006 308.854 46.8288 308.328 43.3791 307.692C42.588 307.539 42.1486 308.196 42.0387 308.897C41.9508 309.445 42.1046 310.782 42.8737 310.935Z" fill="white"/>
<path d="M310.931 41.4643C307.949 28.8516 288.353 -2.22285 248.146 1.24075C219.08 3.75677 200.172 27.2505 198.992 53.4889C193.258 64.2392 188.146 75.5449 177.889 82.6682C176.546 83.6158 177.07 86.818 178.774 87.014C188.277 88.027 197.78 85.7723 205.776 80.8383C217.409 100.672 242.608 115.67 270.854 111.488C308.571 105.9 313.945 54.0771 310.931 41.4643Z" fill="#181920"/>
<path d="M310.832 41.4969C310.439 39.8958 309.882 38.3274 309.259 36.8243C308.964 36.0728 308.604 35.3213 308.244 34.5697L307.686 33.4588C307.49 33.0993 307.326 32.7072 307.097 32.3805C305.491 29.4724 303.623 26.7276 301.591 24.1789C299.527 21.5975 297.233 19.2122 294.776 17.023C292.318 14.8337 289.696 12.8405 286.911 11.076C281.34 7.57975 275.18 5.06373 268.823 3.59333C265.644 2.87447 262.4 2.41702 259.123 2.18829C258.304 2.12294 257.485 2.12294 256.666 2.09026L255.453 2.05758L254.241 2.09026C253.421 2.09026 252.602 2.09026 251.783 2.12293L249.325 2.28631C246.048 2.51504 242.837 3.00517 239.659 3.75671C236.48 4.50825 233.4 5.58654 230.418 6.92624C224.454 9.57296 219.014 13.396 214.492 18.1013C209.937 22.8065 206.267 28.3614 203.711 34.439C201.155 40.484 199.681 47.0191 199.386 53.5869V53.6522L199.353 53.7176L195.29 61.4617C193.913 64.0431 192.504 66.5918 190.964 69.0751C189.424 71.5584 187.753 73.9764 185.852 76.231C183.952 78.4856 181.854 80.5769 179.495 82.374L178.61 83.0602C178.25 83.3216 178.184 83.387 178.053 83.6157C177.922 83.8444 177.857 84.1058 177.857 84.3999C177.857 84.694 177.857 84.9881 177.955 85.2822C178.021 85.5762 178.152 85.8376 178.315 86.0337C178.479 86.2298 178.643 86.3604 178.84 86.3931C178.872 86.3931 178.872 86.3931 178.905 86.3931C178.938 86.3931 178.938 86.3931 179.004 86.3931L179.266 86.4258L179.79 86.4585C180.15 86.4911 180.511 86.5238 180.871 86.5238C183.722 86.6545 186.606 86.4911 189.424 86.0337C192.242 85.5762 195.027 84.8247 197.682 83.8444C200.336 82.8315 202.925 81.5571 205.35 80.0541L206.202 79.5313L206.726 80.3808C208.463 83.2889 210.462 86.001 212.657 88.5824L213.05 89.0725L213.476 89.53L214.328 90.4776C214.885 91.0984 215.508 91.6866 216.098 92.3074C216.72 92.8956 217.31 93.4837 217.933 94.0392L218.883 94.8888C219.211 95.1828 219.506 95.4442 219.833 95.7056C225.011 100.051 230.844 103.613 237.103 106.162C240.216 107.436 243.46 108.482 246.737 109.266C250.013 110.05 253.356 110.573 256.731 110.834C260.106 111.063 263.481 111.063 266.857 110.802L268.135 110.704L269.38 110.54L270.625 110.377C271.051 110.312 271.444 110.246 271.87 110.181C273.509 109.887 275.147 109.527 276.753 109.037C279.931 108.057 283.012 106.652 285.83 104.887C287.239 104.005 288.582 102.992 289.893 101.947C291.204 100.901 292.416 99.7574 293.596 98.5484C298.282 93.6798 301.886 87.8308 304.606 81.5898C305.982 78.4856 307.129 75.2508 308.08 71.9832C309.03 68.7157 309.816 65.3501 310.374 61.9845C310.931 58.6189 311.324 55.188 311.488 51.7897C311.553 50.0906 311.553 48.3588 311.488 46.6597C311.357 44.8625 311.225 43.1634 310.832 41.4969ZM311.062 41.4643C311.455 43.1634 311.619 44.8625 311.717 46.5943C311.815 48.3261 311.815 50.0253 311.75 51.7571C311.652 55.188 311.357 58.6189 310.832 62.0172C309.849 68.8137 308.178 75.5775 305.655 82.0146C304.377 85.2168 302.902 88.3863 301.1 91.3598C300.215 92.8629 299.265 94.3333 298.249 95.7383C297.233 97.1434 296.119 98.5157 294.939 99.8228C292.58 102.437 289.893 104.757 286.944 106.685C285.469 107.632 283.929 108.514 282.323 109.266C280.718 110.05 279.079 110.671 277.375 111.194C275.704 111.749 273.967 112.141 272.231 112.468C271.805 112.534 271.346 112.632 270.92 112.697L269.609 112.86L268.298 113.024L266.988 113.154C263.481 113.481 259.975 113.514 256.469 113.252C249.489 112.73 242.575 111.096 236.12 108.351C229.664 105.639 223.635 101.881 218.359 97.3394C213.05 92.7975 208.463 87.3734 204.956 81.3611L206.333 81.6878C203.777 83.2236 201.09 84.4979 198.272 85.5109C195.453 86.4911 192.57 87.21 189.621 87.6021C186.671 87.9942 183.689 88.0922 180.74 87.8635C180.38 87.8308 179.987 87.7982 179.626 87.7655L179.069 87.7001L178.807 87.6675C178.774 87.6675 178.709 87.6675 178.643 87.6348L178.446 87.6021C177.922 87.4387 177.496 87.112 177.234 86.7199C176.939 86.3278 176.808 85.9357 176.677 85.5109C176.579 85.0861 176.546 84.6613 176.579 84.2365C176.611 83.8118 176.71 83.3543 176.939 82.9295C177.005 82.8315 177.07 82.7335 177.136 82.6354C177.201 82.5374 177.3 82.4394 177.398 82.3414C177.627 82.1453 177.726 82.08 177.889 81.9493L178.774 81.3284C183.395 77.9302 187.163 73.4209 190.276 68.5523C191.849 66.1016 193.291 63.5856 194.667 61.0369L198.763 53.3255L198.73 53.4889C199.025 46.8231 200.434 40.2226 202.925 34.0469C205.415 27.8713 208.954 22.055 213.509 17.121C218.031 12.1543 223.536 8.06988 229.664 5.16176C232.712 3.72403 235.923 2.58039 239.2 1.73083C242.477 0.913939 245.852 0.39113 249.194 0.162401L251.717 0.031701C252.569 -0.000974569 253.389 0.031699 254.241 -0.000976562H255.519L256.797 0.0643785C257.649 0.097054 258.468 0.129728 259.32 0.195079L261.843 0.456484L262.466 0.521834L263.088 0.619861L264.333 0.815912L265.579 1.01197C266.005 1.07732 266.398 1.17535 266.824 1.27337L268.069 1.53478C268.495 1.6328 268.888 1.69815 269.314 1.82886L271.739 2.51504C272.558 2.77645 273.345 3.03785 274.131 3.29925C274.95 3.56066 275.704 3.88741 276.491 4.18149L277.67 4.63895L278.817 5.16176C281.865 6.53413 284.814 8.20058 287.599 10.0631C293.137 13.8534 297.987 18.5587 302.017 23.8195C304.049 26.4662 305.851 29.2763 307.424 32.1844C307.621 32.5438 307.818 32.9033 308.014 33.2954L308.571 34.4064C308.899 35.1579 309.292 35.9094 309.587 36.6936C310.111 38.2621 310.668 39.8305 311.062 41.4643Z" fill="#24252D"/>
<path d="M289.718 73.9531C271.845 70.5761 253.563 69.6068 235.47 71.1702C230.328 71.608 225.216 72.2646 220.137 73.1088C219.008 73.2964 218.569 74.5159 218.6 75.5478C218.631 76.2982 219.133 78.1117 220.262 77.9241C238.042 74.9537 256.229 74.4221 274.134 76.392C279.12 76.9235 284.074 77.674 288.997 78.5807C290.126 78.7996 290.753 77.8616 290.91 76.861C291.035 76.0793 290.816 74.1407 289.718 73.9531Z" fill="white"/>
<path d="M289.718 55.1924C271.845 51.8154 253.563 50.8461 235.47 52.4095C230.328 52.8472 225.216 53.5039 220.137 54.3481C219.008 54.5357 218.569 55.7552 218.6 56.787C218.631 57.5374 219.133 59.351 220.262 59.1634C238.042 56.1929 256.229 55.6613 274.134 57.6312C279.12 58.1628 284.074 58.9132 288.997 59.82C290.126 60.0389 290.753 59.1008 290.91 58.1003C291.035 57.3186 290.816 55.38 289.718 55.1924Z" fill="white"/>
<path d="M289.718 35.8998C271.845 32.5229 253.563 31.5536 235.47 33.117C230.328 33.5547 225.216 34.2114 220.137 35.0556C219.008 35.2432 218.569 36.4626 218.6 37.4945C218.631 38.2449 219.133 40.0585 220.262 39.8709C238.042 36.9004 256.229 36.3689 274.134 38.3388C279.12 38.8703 284.074 39.6207 288.997 40.5275C290.126 40.7464 290.753 39.8084 290.91 38.8078C291.035 38.0261 290.816 36.1187 289.718 35.8998Z" fill="white"/>
</svg>
