<svg width="132" height="150" viewBox="0 0 132 150" fill="none" xmlns="http://www.w3.org/2000/svg">
<g clip-path="url(#clip0_1306_8798)">
<path fill-rule="evenodd" clip-rule="evenodd" d="M115.281 96.8472C117.718 111.384 121.516 128.447 111.41 139.207C101.306 149.965 83.9961 147.123 69.2698 145.836C56.7861 144.745 46.0147 139.588 35.639 132.583C22.3604 123.618 4.1421 116.487 2.27706 100.607C0.375875 84.419 15.4989 72.0547 27.1923 60.6628C38.1725 49.9656 50.377 37.8759 65.6994 38.8193C80.3811 39.7233 89.4441 53.9201 98.9821 65.0829C107.024 74.4947 113.236 84.6525 115.281 96.8472Z" fill="#F1F2F3"/>
<path d="M30.2807 81.2909L8.15501 18.975C7.39206 16.8372 9.79537 13.4898 12.069 13.1094L58.2049 6.521C60.4861 6.14061 62.9428 7.56328 63.7058 9.70108L87.098 71.6517C87.8609 73.7895 85.3584 76.1936 83.0848 76.574L35.7816 84.4709C33.5004 84.8513 31.0437 83.4287 30.2807 81.2909Z" fill="#24252D"/>
<path d="M31.8298 79.503L9.70411 17.1872C8.94115 15.0494 10.1771 13.0105 12.4507 12.6301L59.7463 4.74073C62.0276 4.36034 64.4843 5.783 65.2472 7.92081L87.3729 70.2366C88.1359 72.3745 86.8999 74.4134 84.6263 74.7938L37.3307 82.6831C35.0495 83.0711 32.5851 81.6408 31.8298 79.503Z" fill="#24252D"/>
<path d="M34.9729 77.1368L14.0832 18.3053C13.6788 17.1566 14.335 16.0686 15.5557 15.8632L59.1509 8.59012C60.3717 8.38471 61.6916 9.1531 62.096 10.2943L82.9857 69.1257C83.39 70.2745 82.7339 71.3624 81.5132 71.5678L37.9179 78.8409C36.6972 79.0463 35.3849 78.278 34.9729 77.1368Z" fill="#F7FB6F"/>
<path d="M28.4111 11.7856C28.3043 11.4736 28.4798 11.1845 28.8079 11.1313L42.686 8.8109C43.0141 8.75764 43.3727 8.96305 43.4795 9.26737C43.5863 9.57929 43.4108 9.86839 43.0828 9.92164L29.2046 12.2344C28.8765 12.2953 28.5179 12.0899 28.4111 11.7856Z" fill="white"/>
<path d="M35.8724 83.2764C34.0795 83.2764 32.4392 82.158 31.8212 80.4158L9.40554 17.2935C9.35976 17.1642 8.74177 15.4296 9.70309 13.87C9.81753 13.6874 10.0617 13.6266 10.2448 13.7407C10.4279 13.8548 10.4889 14.0982 10.3745 14.2808C9.60391 15.5285 10.138 17.0044 10.1456 17.0197V17.0273L32.5612 80.1495C33.1334 81.7624 34.7814 82.721 36.4676 82.4319L37.2458 82.295L85.7697 74.0404C85.9833 74.0024 86.1893 74.1469 86.2275 74.36C86.2656 74.573 86.1207 74.7784 85.907 74.8164L37.3831 83.0709L36.6049 83.2079C36.3607 83.2535 36.1166 83.2764 35.8724 83.2764Z" fill="white"/>
<path d="M102.095 134.993L131.339 75.6666C132.346 73.6277 130.354 70.0291 128.134 69.3901L83.0818 57.499C80.8616 56.86 78.2523 57.9859 77.2452 60.0248L46.788 118.841C45.7809 120.88 47.9858 123.558 50.1984 124.197L96.258 137.518C98.4782 138.157 101.095 137.031 102.095 134.993Z" fill="#24252D"/>
<path d="M100.767 133.045L130.011 73.719C131.018 71.6801 130.026 69.5119 127.814 68.8728L81.754 55.5515C79.5338 54.9125 76.9245 56.0384 75.9174 58.0773L46.6733 117.403C45.6662 119.442 46.658 121.61 48.8706 122.249L94.9302 135.571C97.158 136.21 99.7673 135.076 100.767 133.045Z" fill="#24252D"/>
<path d="M97.9214 130.322L125.533 74.3126C126.067 73.2247 125.54 72.0607 124.358 71.7184L81.8993 59.4393C80.7091 59.097 79.3129 59.698 78.7712 60.7935L51.1599 116.802C50.6258 117.89 51.1522 119.054 52.3348 119.397L94.7856 131.676C95.9835 132.018 97.3797 131.41 97.9214 130.322Z" fill="white"/>
<path d="M112.058 66.1799C112.203 65.8832 112.058 65.5713 111.738 65.48L98.2256 61.5696C97.9052 61.4783 97.5313 61.638 97.3864 61.9348C97.2414 62.2315 97.3864 62.5434 97.7068 62.6347L111.219 66.5451C111.539 66.6364 111.913 66.469 112.058 66.1799Z" fill="white"/>
<path d="M96.8145 136.347C96.4101 136.347 95.9981 136.286 95.5861 136.172L94.8232 135.944L47.5963 122.12C47.3903 122.059 47.2682 121.839 47.3292 121.633C47.3903 121.428 47.6115 121.306 47.8175 121.367L95.0444 135.19L95.8074 135.419C97.4554 135.906 99.1949 135.145 99.9579 133.608L129.583 73.5136C129.583 73.5136 129.583 73.506 129.591 73.506C129.599 73.4908 130.301 72.0909 129.683 70.7596C129.591 70.5618 129.675 70.3259 129.873 70.2346C130.072 70.1433 130.308 70.227 130.4 70.4248C131.178 72.091 130.354 73.7419 130.301 73.856L100.675 133.95C99.9273 135.449 98.4167 136.347 96.8145 136.347Z" fill="white"/>
<path d="M45.4535 97.4646C43.2562 98.8873 40.7842 99.6937 38.2054 99.8231C36.6795 93.3488 30.8505 88.5178 23.8924 88.5178C15.7669 88.5178 9.18262 95.0834 9.18262 103.186C9.18262 111.288 15.7669 117.854 23.8924 117.854C30.8429 117.854 36.6643 113.045 38.1978 106.579C41.7837 105.034 44.9499 102.524 46.0639 98.5982C46.1478 98.3243 46.0257 97.0919 45.4535 97.4646Z" fill="#24252D"/>
<path d="M15.0876 98.7048C19.4365 99.5264 23.8845 99.7623 28.2868 99.3819C29.538 99.2754 30.7816 99.1156 32.0176 98.9102C32.2923 98.8646 32.3991 98.5679 32.3915 98.3168C32.3838 98.1342 32.2617 97.693 31.9871 97.7386C27.6611 98.4614 23.236 98.5907 18.8795 98.1114C17.6664 97.9821 16.461 97.7995 15.2631 97.5788C14.9885 97.5256 14.8359 97.7538 14.7977 97.9973C14.7672 98.1875 14.8206 98.6592 15.0876 98.7048Z" fill="white"/>
<path d="M15.0876 103.269C19.4365 104.091 23.8845 104.327 28.2868 103.946C29.538 103.84 30.7816 103.68 32.0176 103.475C32.2923 103.429 32.3991 103.132 32.3915 102.881C32.3838 102.699 32.2617 102.257 31.9871 102.303C27.6611 103.026 23.236 103.155 18.8795 102.676C17.6664 102.547 16.461 102.364 15.2631 102.143C14.9885 102.09 14.8359 102.318 14.7977 102.562C14.7672 102.752 14.8206 103.224 15.0876 103.269Z" fill="white"/>
<path d="M15.0876 107.964C19.4365 108.785 23.8845 109.021 28.2868 108.641C29.538 108.534 30.7816 108.374 32.0176 108.169C32.2923 108.123 32.3991 107.827 32.3915 107.576C32.3838 107.393 32.2617 106.952 31.9871 106.997C27.6611 107.72 23.236 107.849 18.8795 107.37C17.6664 107.241 16.461 107.058 15.2631 106.838C14.9885 106.784 14.8359 107.013 14.7977 107.256C14.7672 107.446 14.8206 107.91 15.0876 107.964Z" fill="white"/>
<path d="M108.163 14.3976C107.128 10.0181 100.324 -0.771587 86.3627 0.431054C76.2704 1.30467 69.7052 9.46221 69.2956 18.5728C67.3045 22.3055 65.5295 26.2311 61.9682 28.7045C61.5017 29.0335 61.6837 30.1454 62.2754 30.2134C65.575 30.5652 68.8746 29.7823 71.6509 28.0691C75.6901 34.9559 84.4398 40.1636 94.2477 38.7113C107.344 36.7712 109.21 18.777 108.163 14.3976Z" fill="#181920"/>
<path d="M108.129 14.4088C107.992 13.8528 107.799 13.3082 107.583 12.7863C107.48 12.5254 107.355 12.2644 107.23 12.0035L107.037 11.6177C106.968 11.4929 106.911 11.3568 106.832 11.2433C106.274 10.2336 105.626 9.28051 104.92 8.39555C104.203 7.49924 103.407 6.67101 102.554 5.91085C101.7 5.15069 100.79 4.45861 99.8229 3.84594C97.8886 2.63195 95.7496 1.75833 93.5422 1.24778C92.4386 0.998175 91.3121 0.839337 90.1743 0.759917C89.8899 0.737226 89.6054 0.737225 89.321 0.72588L88.9 0.714533L88.479 0.72588C88.1946 0.72588 87.9101 0.725879 87.6257 0.737224L86.7723 0.793953C85.6345 0.873372 84.5195 1.04356 83.4158 1.30451C82.3121 1.56546 81.2426 1.93987 80.2072 2.40504C78.1364 3.32404 76.2476 4.65148 74.6774 6.28526C73.0959 7.91903 71.8216 9.8478 70.9341 11.9581C70.0466 14.057 69.5346 16.3262 69.4322 18.6067V18.6293L69.4208 18.652L68.0099 21.341C67.532 22.2373 67.0428 23.1222 66.508 23.9845C65.9732 24.8468 65.393 25.6864 64.733 26.4692C64.0731 27.2521 63.3449 27.9782 62.5257 28.6022L62.2185 28.8405C62.0933 28.9312 62.0706 28.9539 62.0251 29.0333C61.9796 29.1127 61.9568 29.2035 61.9568 29.3056C61.9568 29.4077 61.9568 29.5098 61.9909 29.612C62.0137 29.7141 62.0592 29.8048 62.1161 29.8729C62.173 29.941 62.2299 29.9864 62.2981 29.9977C62.3095 29.9977 62.3095 29.9977 62.3209 29.9977C62.3323 29.9977 62.3323 29.9977 62.355 29.9977L62.446 30.0091L62.6281 30.0204C62.7533 30.0317 62.8784 30.0431 63.0036 30.0431C63.9935 30.0885 64.9947 30.0317 65.9732 29.8729C66.9518 29.7141 67.9189 29.4531 68.8405 29.1127C69.7621 28.761 70.661 28.3185 71.503 27.7966L71.7988 27.6151L71.9809 27.9101C72.5839 28.9199 73.2779 29.8616 74.0403 30.7579L74.1768 30.9281L74.3247 31.0869L74.6206 31.4159C74.814 31.6315 75.0302 31.8357 75.235 32.0513C75.4512 32.2555 75.656 32.4597 75.8721 32.6526L76.2021 32.9476C76.3159 33.0497 76.4183 33.1405 76.5321 33.2312C78.3298 34.7402 80.3551 35.9769 82.5283 36.8618C83.6092 37.3043 84.7356 37.6674 85.8734 37.9397C87.0112 38.212 88.1718 38.3935 89.3437 38.4843C90.5157 38.5637 91.6876 38.5637 92.8596 38.4729L93.3033 38.4389L93.7357 38.3822L94.168 38.3254C94.3159 38.3027 94.4525 38.28 94.6004 38.2574C95.1693 38.1552 95.7382 38.0304 96.2957 37.8603C97.3994 37.5199 98.4689 37.032 99.4474 36.4194C99.9367 36.113 100.403 35.7613 100.858 35.3982C101.313 35.0352 101.734 34.6381 102.144 34.2183C103.771 32.5278 105.023 30.4969 105.967 28.3299C106.445 27.2521 106.843 26.1288 107.173 24.9943C107.503 23.8597 107.776 22.6911 107.97 21.5225C108.163 20.3539 108.3 19.1626 108.356 17.9826C108.379 17.3927 108.379 16.7913 108.356 16.2014C108.311 15.5774 108.265 14.9874 108.129 14.4088ZM108.209 14.3974C108.345 14.9874 108.402 15.5774 108.436 16.1787C108.47 16.78 108.47 17.37 108.447 17.9713C108.413 19.1626 108.311 20.3539 108.129 21.5338C107.788 23.8937 107.207 26.2423 106.331 28.4774C105.887 29.5893 105.375 30.6898 104.75 31.7222C104.442 32.2441 104.112 32.7547 103.76 33.2426C103.407 33.7304 103.02 34.207 102.611 34.6608C101.791 35.5684 100.858 36.374 99.8343 37.0434C99.3223 37.3724 98.7875 37.6787 98.23 37.9397C97.6725 38.212 97.1036 38.4275 96.5119 38.6091C95.9316 38.8019 95.3286 38.9381 94.7256 39.0516C94.5776 39.0742 94.4184 39.1083 94.2704 39.131L93.8153 39.1877L93.3602 39.2444L92.9051 39.2898C91.6876 39.4033 90.4702 39.4146 89.2527 39.3238C86.8292 39.1423 84.4284 38.575 82.187 37.622C79.9455 36.6803 77.8519 35.3756 76.0201 33.7985C74.1768 32.2215 72.5839 30.3381 71.3664 28.2505L71.8443 28.3639C70.9568 28.8972 70.0238 29.3397 69.0453 29.6914C68.0668 30.0317 67.0655 30.2813 66.0415 30.4175C65.0175 30.5536 63.9821 30.5877 62.9581 30.5083C62.8329 30.4969 62.6964 30.4856 62.5712 30.4742L62.3778 30.4515L62.2868 30.4402C62.2754 30.4402 62.2526 30.4402 62.2299 30.4288L62.1616 30.4175C61.9796 30.3608 61.8316 30.2473 61.7406 30.1112C61.6382 29.975 61.5927 29.8389 61.5472 29.6914C61.5131 29.5439 61.5017 29.3964 61.5131 29.2489C61.5244 29.1014 61.5586 28.9426 61.6382 28.7951C61.661 28.761 61.6837 28.727 61.7065 28.693C61.7292 28.6589 61.7634 28.6249 61.7975 28.5908C61.8772 28.5228 61.9113 28.5001 61.9682 28.4547L62.2754 28.2391C63.8797 27.0592 65.1882 25.4935 66.2691 23.803C66.8152 22.952 67.3159 22.0784 67.7937 21.1935L69.216 18.5159L69.2046 18.5726C69.307 16.2581 69.7963 13.9663 70.661 11.8219C71.5257 9.67761 72.7546 7.65808 74.3361 5.94489C75.9063 4.22035 77.8178 2.80214 79.9455 1.79237C81.0036 1.29316 82.1187 0.896064 83.2565 0.601077C84.3943 0.317435 85.5662 0.135904 86.7268 0.0564842L87.6029 0.0111022C87.8987 -0.000243448 88.1832 0.0111015 88.479 -0.000244141H88.9228L89.3665 0.0224486C89.6623 0.0337943 89.9468 0.0451392 90.2426 0.0678306L91.1187 0.158596L91.3349 0.181287L91.5511 0.215325L91.9834 0.283398L92.4158 0.351472C92.5637 0.374164 92.7003 0.408201 92.8482 0.442238L93.2805 0.533004C93.4285 0.567041 93.565 0.589731 93.7129 0.635114L94.5549 0.873374C94.8393 0.964139 95.1124 1.0549 95.3855 1.14567C95.6699 1.23643 95.9316 1.34989 96.2047 1.452L96.6143 1.61084L97.0125 1.79237C98.0707 2.26889 99.0947 2.84752 100.062 3.49422C101.985 4.81032 103.669 6.4441 105.068 8.27075C105.774 9.18975 106.399 10.1655 106.946 11.1752C107.014 11.3 107.082 11.4248 107.15 11.561L107.344 11.9467C107.458 12.2077 107.594 12.4686 107.697 12.7409C107.879 13.2855 108.072 13.8301 108.209 14.3974Z" fill="#24252D"/>
<path d="M100.798 25.6782C94.5918 24.5056 88.2442 24.1691 81.9618 24.7119C80.1762 24.8639 78.4015 25.0919 76.6376 25.385C76.2457 25.4502 76.0932 25.8736 76.1041 26.2319C76.115 26.4925 76.2892 27.1222 76.6812 27.057C82.8547 26.0256 89.1697 25.841 95.3867 26.525C97.1178 26.7096 98.8381 26.9702 100.548 27.285C100.94 27.361 101.157 27.0353 101.212 26.6879C101.255 26.4165 101.179 25.7433 100.798 25.6782Z" fill="white"/>
<path d="M100.798 19.164C94.5918 17.9915 88.2442 17.6549 81.9618 18.1978C80.1762 18.3498 78.4015 18.5777 76.6376 18.8709C76.2457 18.936 76.0932 19.3595 76.1041 19.7177C76.115 19.9783 76.2892 20.608 76.6812 20.5429C82.8547 19.5114 89.1697 19.3269 95.3867 20.0109C97.1178 20.1954 98.8381 20.456 100.548 20.7709C100.94 20.8469 101.157 20.5211 101.212 20.1737C101.255 19.9023 101.179 19.2292 100.798 19.164Z" fill="white"/>
<path d="M100.798 12.4653C94.5918 11.2927 88.2442 10.9562 81.9618 11.499C80.1762 11.651 78.4015 11.879 76.6376 12.1722C76.2457 12.2373 76.0932 12.6607 76.1041 13.019C76.115 13.2796 76.2892 13.9093 76.6812 13.8441C82.8547 12.8127 89.1697 12.6281 95.3867 13.3121C97.1178 13.4967 98.8381 13.7573 100.548 14.0721C100.94 14.1481 101.157 13.8224 101.212 13.475C101.255 13.2036 101.179 12.5413 100.798 12.4653Z" fill="white"/>
</g>
<defs>
<clipPath id="clip0_1306_8798">
<rect width="131.597" height="150" fill="white" transform="translate(0.201172)"/>
</clipPath>
</defs>
</svg>
