<svg width="224" height="24" viewBox="0 0 224 24" fill="none" xmlns="http://www.w3.org/2000/svg">
<path d="M108.856 0.31178C94.8727 -0.887029 67.6329 1.44424 41.8062 6.04968L35.7098 7.13829C18.5728 10.2034 9.31545 12.3402 2.75934 14.7448C0.200545 15.6834 -0.023081 15.8086 0.00164689 16.2886C0.0392762 16.9889 0.446748 16.9353 5.15955 15.6101C10.0363 14.2388 14.3787 13.3487 26.2567 11.2857C65.9557 4.3905 84.3962 2.37479 104.863 2.6944C108.874 2.7567 115.211 3.67283 115.168 4.18397C115.11 4.86644 110.935 6.67042 101.326 10.1642C89.5036 14.4621 82.2798 17.3951 81.5966 18.1739C80.4285 19.5054 81.488 20.7163 83.9844 20.905C85.4111 21.0129 85.7385 20.9956 92.3666 20.455C111.397 18.9054 123.515 18.4427 139.868 18.6418C164.772 18.9452 180.573 19.9283 210.175 23.017C220.812 24.127 221.364 24.1593 223.376 23.7855L223.411 23.7791C224.057 23.662 224.234 22.7263 223.626 22.432C222.061 21.6763 220.996 21.5067 211.774 20.5508C180.859 17.3455 164.538 16.3047 140.784 16.0267C128.291 15.8801 122.713 15.9597 113.569 16.4155C107.317 16.727 90.7916 17.8543 88.4666 18.1272C87.1985 18.2766 92.8386 16.0359 102.714 12.4677C115.207 7.95346 117.73 6.61273 117.929 4.38819C118.153 1.87981 116.032 0.92676 108.856 0.31178Z" fill="#DAE029"/>
</svg>
