<svg width="116" height="63" viewBox="0 0 116 63" fill="none" xmlns="http://www.w3.org/2000/svg">
<g clip-path="url(#clip0_1250_7468)">
<path d="M35.1125 62.2299C35.0084 62.2299 34.8871 62.1773 34.835 62.1248L34.1415 61.4415C34.0028 61.3014 33.812 61.2138 33.604 61.2138C33.5346 61.2138 33.4826 61.2138 33.4132 61.2313C33.3959 61.2313 33.3785 61.2313 33.3612 61.2313C33.2052 61.2313 33.1185 61.1962 33.0838 61.1612C31.4886 59.5669 29.8066 57.9902 28.1768 56.466C25.6626 54.1184 23.0617 51.6832 20.7208 49.1253C20.5648 48.9501 20.3914 48.7925 20.2527 48.6523C20.114 48.5297 19.9406 48.4596 19.7498 48.4596C19.7325 48.4596 19.7152 48.4596 19.6978 48.4596C19.4898 48.4771 19.3164 48.5647 19.1776 48.7224C17.6865 50.4218 16.2126 52.1212 14.7388 53.8381C12.6927 56.2032 10.6467 58.5858 8.56599 60.9159C8.51397 60.9685 8.42727 60.9685 8.3926 60.9685C8.3059 60.9685 8.20186 60.9335 8.14985 60.8809L7.45627 60.1801C7.31756 60.04 7.12683 59.9524 6.91875 59.9524C6.8494 59.9524 6.78004 59.9699 6.71068 59.9874C6.676 59.9874 6.65866 59.9874 6.62399 59.9874C6.48527 59.9874 6.43325 59.9524 6.38124 59.9173L0.832654 54.3286C0.641922 54.1359 0.849994 53.8731 0.867333 53.8556C1.35283 53.2774 1.83833 52.7168 2.32384 52.1387C4.59529 49.3881 6.81472 46.5149 8.96479 43.7469C11.9298 39.9101 15.0162 35.9332 18.2413 32.2191C18.2587 32.2015 18.328 32.1665 18.4321 32.1665C18.5361 32.1665 18.5881 32.2015 18.6055 32.2191C18.7268 32.3592 19.2297 32.9374 19.2297 32.9374C19.3857 33.1125 19.5938 33.2001 19.8019 33.2001C19.9232 33.2001 20.0446 33.1651 20.1487 33.1125C20.166 33.1125 20.1833 33.1125 20.218 33.1125C20.3047 33.1125 20.3394 33.1651 20.3567 33.1826C24.0673 37.5975 28.0554 41.7496 31.818 45.5689C31.9567 45.709 32.1648 45.7966 32.3555 45.7966C32.4769 45.7966 32.5983 45.7616 32.7023 45.709C34.3149 44.8681 37.1238 41.4869 39.9155 37.9479C40.2796 37.4924 40.5397 37.1595 40.6957 36.9843C46.383 30.2569 52.3998 23.0564 58.0697 15.7508C58.0697 15.7508 58.1044 15.7332 58.1738 15.7332C58.2951 15.7332 58.3992 15.7858 58.4512 15.8208C58.5899 15.9435 58.8153 16.1887 59.1274 16.5391C59.2661 16.6968 59.4742 16.7669 59.6649 16.7669C59.7516 16.7669 59.8383 16.7494 59.925 16.7143C59.9597 16.7143 59.9944 16.6968 60.0291 16.6968C60.0811 16.6968 60.1331 16.7143 60.1851 16.7669C61.659 18.2385 63.1155 19.7452 64.572 21.2343C67.6237 24.3703 70.7794 27.6114 74.1259 30.5897C74.23 30.6949 74.3687 30.7474 74.5247 30.7649C74.5594 30.7649 74.6981 30.7825 74.7328 30.7825C75.1316 30.7825 75.3744 30.6073 75.5131 30.4671C80.8016 24.7908 86.4542 19.3948 91.2745 14.8573C91.5693 14.577 91.604 14.1214 91.3439 13.8236C90.2862 12.4921 89.2632 11.1081 88.2575 9.7591C87.1304 8.2349 85.9513 6.65815 84.7203 5.15148C84.6856 5.09892 84.6336 5.06388 84.5989 5.02884C84.5469 4.9938 84.5295 4.90621 84.5469 4.80109L84.5815 4.66093C84.5989 4.62589 84.6162 4.59085 84.6336 4.55582C84.7376 4.43318 84.807 4.39814 84.859 4.39814C84.8936 4.39814 84.9457 4.39814 84.9803 4.39814C84.9977 4.39814 85.0324 4.39814 85.0497 4.39814C93.9448 3.50465 103.499 2.45348 113.035 0.736572C113.053 0.736572 113.07 0.736572 113.07 0.736572C113.313 0.736572 113.469 0.82417 113.486 1.0344C113.486 1.26216 113.59 1.47239 113.764 1.61255C113.902 1.73518 114.076 1.78774 114.249 1.78774C114.284 1.78774 114.336 1.78774 114.37 1.77022L114.787 1.70014C114.804 1.70014 114.821 1.70014 114.839 1.70014C115.029 1.70014 115.116 1.73518 115.168 1.80526C115.22 1.87534 115.237 1.98045 115.22 2.10309C114.18 6.95598 113.261 11.914 112.359 16.7143C111.284 22.4607 110.174 28.3998 108.857 34.1987C108.839 34.2338 108.822 34.2688 108.822 34.3039C108.753 34.4265 108.718 34.444 108.649 34.444L108.492 34.4615C108.423 34.4615 108.388 34.444 108.388 34.444C108.198 34.2163 108.024 33.971 107.868 33.7432C107.73 33.533 107.487 33.4279 107.261 33.4279C107.175 33.4279 107.088 33.4454 107.001 33.4805C106.949 33.498 106.863 33.533 106.828 33.5505C106.793 33.5681 106.776 33.5681 106.759 33.5681C106.707 33.5681 106.672 33.5505 106.654 33.498C104.938 31.3431 103.429 29.0305 101.765 26.4551C101.643 26.2624 101.453 26.1398 101.227 26.1223C101.193 26.1223 101.158 26.1223 101.123 26.1223C100.933 26.1223 100.759 26.1924 100.62 26.315C91.3612 34.7769 83.4892 42.538 76.5708 50.0188C76.5188 50.0714 76.4841 50.0889 76.4147 50.0889C76.3107 50.0889 76.1893 50.0363 76.0853 49.9487L75.2703 49.2655C75.1316 49.1429 74.9582 49.0903 74.7848 49.0903C74.7502 49.0903 74.6635 49.0903 74.6635 49.0903C74.5247 49.0903 74.4034 49.0553 74.3167 48.9852C71.2129 46.4098 68.0225 43.3965 64.2599 39.5071C62.9247 38.1231 61.5723 36.7391 60.2198 35.3726C60.0811 35.2324 59.8904 35.1448 59.6823 35.1448C59.665 35.1448 59.6649 35.1448 59.6476 35.1448C59.4395 35.1623 59.2315 35.2499 59.0927 35.4251C55.6596 39.5947 51.8796 43.5892 48.2383 47.4435C43.7995 52.1212 39.2219 56.9565 35.1992 62.1949L35.1125 62.2299Z" fill="white"/>
<path d="M114.665 0.982277C114.526 0.999796 114.388 1.03484 114.249 1.05235C114.232 0.351576 113.625 -0.10393 112.914 0.0187061C103.672 1.68306 94.3261 2.75174 84.9803 3.68027C84.6335 3.62772 84.304 3.80291 84.0786 4.08322C84.0439 4.11826 84.0266 4.1533 84.0092 4.18834C83.9572 4.25842 83.9226 4.32849 83.8879 4.41609C83.8705 4.46865 83.8532 4.52121 83.8359 4.59129C83.8185 4.66136 83.8012 4.71392 83.8012 4.784C83.7665 5.13439 83.8879 5.48478 84.1653 5.69501C86.4541 8.51565 88.5175 11.529 90.7716 14.3671C85.3617 19.4478 80.0385 24.581 74.9755 30.012C74.9061 30.0821 74.7847 30.0996 74.646 30.0821C69.7737 25.7373 65.3695 20.9019 60.7399 16.2943C60.4104 15.9614 60.0116 15.9264 59.6822 16.0665C59.3527 15.7161 59.1273 15.4709 58.9886 15.3482C58.6072 14.9803 57.8442 14.8752 57.4801 15.3482C51.8795 22.5663 46.0188 29.574 40.1234 36.5468C39.2565 37.5629 34.4188 44.0276 32.3728 45.0963C28.4541 41.0843 24.5701 37.0373 20.9462 32.7451C20.5994 32.3421 20.1659 32.3246 19.8191 32.4998C19.611 32.2545 19.403 32.0268 19.1949 31.7815C18.8308 31.361 18.0505 31.361 17.6864 31.7815C12.1031 38.1936 7.16141 45.1488 1.76889 51.7186C1.28339 52.2968 0.797887 52.8574 0.312386 53.4356C-0.0690791 53.8735 -0.121097 54.5218 0.312386 54.9598C2.16769 56.8168 4.00566 58.6739 5.86097 60.5485C6.13839 60.8288 6.55454 60.9164 6.91866 60.8112C7.14408 61.039 7.38683 61.2843 7.61224 61.512C8.01104 61.915 8.73929 61.95 9.12076 61.512C12.6927 57.4826 16.1779 53.3655 19.7324 49.301C19.8711 49.4236 20.0098 49.5638 20.1486 49.7214C24.0499 53.9611 28.4541 57.7103 32.5288 61.7748C32.7889 62.0376 33.2224 62.1427 33.5865 62.0376C33.8119 62.2654 34.0547 62.4931 34.2801 62.7209C34.6616 63.0888 35.4245 63.1939 35.7886 62.7209C43.1058 53.2078 52.0876 45.2189 59.6822 35.9687C61.0347 37.3352 62.3698 38.7192 63.7049 40.1032C66.93 43.4495 70.2418 46.6555 73.8137 49.6338C74.0912 49.8616 74.4206 49.9667 74.7501 49.9141C75.0275 50.1419 75.2876 50.3696 75.565 50.5974C75.9985 50.9653 76.6574 51.0529 77.0735 50.5974C84.6855 42.3633 92.8003 34.497 101.088 26.9286C102.649 29.3638 104.244 31.799 106.03 34.024C106.377 34.462 106.828 34.462 107.192 34.2517C107.209 34.2517 107.227 34.2517 107.244 34.2342C107.417 34.4795 107.608 34.7423 107.799 34.97C108.007 35.2328 108.336 35.3029 108.666 35.2679C109.013 35.2679 109.325 35.0752 109.498 34.6897C109.515 34.6547 109.533 34.6021 109.55 34.5671C109.55 34.5496 109.567 34.5321 109.585 34.5145C112.012 23.8627 113.677 13.0357 115.966 2.34879C116.156 1.4553 115.48 0.842121 114.665 0.982277ZM58.9886 32.1669C58.6072 31.7815 57.8442 31.7114 57.4801 32.1669C52.0009 39.1046 45.62 45.2364 39.6553 51.7362C37.9734 53.5582 36.3782 55.4503 34.7829 57.3599C32.6155 59.9703 32.0607 58.2359 29.9626 56.2387C26.2693 52.7173 22.5414 49.2659 19.1949 45.3941C18.8308 44.9737 18.0505 44.9737 17.6864 45.3941C14.3746 49.1433 11.1321 52.9625 7.83765 56.7292C7.40416 57.2198 6.98802 57.6928 6.55454 58.1833C5.20207 56.8168 3.84961 55.4678 2.51448 54.1013C2.77457 53.8035 3.01732 53.5056 3.27741 53.2078C7.73361 47.8118 11.895 42.1705 16.2819 36.722C16.8368 36.0212 17.9291 33.5685 18.9868 34.8124C20.2873 36.3541 21.6744 37.8257 23.0269 39.3149C25.7838 42.3107 28.6622 45.2014 31.5231 48.1096C31.9046 48.5126 32.6502 48.5476 33.0317 48.1096C39.9847 40.0332 46.8684 31.9041 53.5788 23.6349C54.8445 22.0932 56.0756 20.534 57.324 18.9572C59.0927 16.7323 61.104 20.5165 62.5952 22.0582C66.2018 25.7898 69.843 29.4339 73.8311 32.7451C74.2646 33.113 74.9234 33.2006 75.3396 32.7451C80.9749 26.6483 86.9223 20.9019 92.9737 15.2256C93.4245 14.8051 93.3551 14.2971 93.0777 13.9116C93.043 13.8416 93.0257 13.7715 92.9737 13.7014C90.8236 11.1085 88.8989 8.32293 86.8356 5.65997C95.1931 4.81904 103.533 3.82043 111.822 2.38383C109.845 11.8093 108.302 21.3399 106.256 30.7478C104.504 28.3302 102.84 25.5971 101.193 23.1094C100.984 22.7765 100.672 22.6363 100.378 22.6188C100.1 22.5838 99.788 22.6539 99.5279 22.8816C92.939 28.7857 86.6275 35.0226 80.3853 41.2946C78.8942 42.8012 77.4203 44.3079 75.9465 45.8496C73.9351 47.952 73.8311 46.8658 71.681 44.9386C67.2248 40.9091 63.2194 36.4066 58.9886 32.1669Z" fill="#181920"/>
<path d="M104.799 54.5907C101.834 51.2445 98.6086 48.1435 95.5568 44.8849C94.135 43.3782 91.8809 45.6557 93.2854 47.1799C96.3544 50.4386 99.5622 53.5395 102.527 56.8857C103.914 58.4274 106.169 56.1324 104.799 54.5907Z" fill="#181920"/>
<path d="M98.9728 44.3587C99.9438 44.6916 100.863 45.1646 101.799 45.6377C102.579 46.0406 103.533 45.8479 103.984 45.0595C104.4 44.3412 104.192 43.2375 103.412 42.8521C102.25 42.2564 101.071 41.6783 99.8224 41.2578C98.9901 40.9775 98.0711 41.5731 97.8457 42.379C97.603 43.255 98.1405 44.0609 98.9728 44.3587Z" fill="#181920"/>
<path d="M91.5341 49.8778C91.0486 49.1595 90.1469 48.8266 89.3493 49.2997C88.6384 49.7201 88.2743 50.7888 88.7771 51.5071C89.6788 52.8386 90.2163 54.3803 90.9099 55.8169C91.8115 57.6915 94.5858 56.0447 93.6668 54.1876C92.9559 52.751 92.4357 51.2093 91.5341 49.8778Z" fill="#181920"/>
</g>
<defs>
<clipPath id="clip0_1250_7468">
<rect width="116" height="63" fill="white"/>
</clipPath>
</defs>
</svg>
