<svg width="121" height="121" viewBox="0 0 121 121" fill="none" xmlns="http://www.w3.org/2000/svg">
<path d="M59.2888 120.179C54.7065 120.179 50.1618 119.688 45.7861 118.689C23.3629 113.653 6.72385 97.0555 2.34813 75.3658C-1.78345 54.7888 1.70961 27.3465 23.9638 11.9939C34.5745 4.69481 47.2321 0.828369 60.6034 0.828369C69.3736 0.828369 78.2565 2.58241 86.2568 5.90189C107.196 14.5778 119.873 34.6644 120.155 59.5982C119.91 80.477 111.103 98.4135 96.0223 108.806C85.3741 116.143 72.3221 120.179 59.2888 120.179Z" fill="white"/>
<path d="M86.5764 5.14761C66.0875 -3.35856 41.8614 -1.34046 23.4947 11.3339C2.79922 25.6114 -3.22913 51.8467 1.54096 75.5357C6.0857 98.0742 23.5698 114.54 45.5986 119.5C62.9888 123.404 81.8627 119.556 96.511 109.485C112.962 98.1496 120.775 79.1569 121 59.5795C120.718 35.966 108.868 14.3893 86.5764 5.14761ZM72.792 117.218C48.4156 122.687 21.8796 112.691 9.44731 90.5299C-4.58129 65.5018 1.29682 30.3266 24.6778 13.3331C44.6409 -1.18958 73.5056 -1.133 94.1823 11.7488C110.746 22.0656 118.465 40.5491 118.69 59.5795C118.352 88.1157 100.68 110.975 72.792 117.218Z" fill="#181920"/>
<path d="M76.1533 9.48576C55.2137 3.52579 30.8937 10.2779 17.4097 27.7052C3.23086 46.0566 3.90694 76.592 18.4426 94.5663C32.2834 111.692 55.4954 116.935 76.1533 111.069C99.4591 104.468 113.206 83.4196 113.525 59.6929C113.187 35.6644 99.4028 16.087 76.1533 9.48576ZM111.197 59.2591C111.103 59.2591 111.028 59.2402 110.934 59.2591C111.046 59.2402 111.028 59.2402 110.877 59.2591C110.708 59.278 110.558 59.2779 110.389 59.2779C109.995 59.2968 109.619 59.2779 109.225 59.2779C108.549 59.2779 107.873 59.2968 107.196 59.3911C106.577 59.4854 106.239 60.2587 106.389 60.8245C106.577 61.4846 107.178 61.7298 107.816 61.6355C108.774 61.5035 110.032 61.6355 111.159 61.5224C110.915 67.1806 109.863 72.537 108.135 77.4785C106.952 77.2145 105.863 76.5543 104.68 76.2903C103.234 75.9508 102.614 78.1952 104.06 78.5347C105.187 78.7988 106.201 79.3646 107.309 79.6663C104.887 85.664 101.412 91.0016 97.0929 95.5093C97.0741 95.4904 97.0553 95.4716 97.0365 95.4527C97.0178 95.4339 97.0365 95.4527 97.0178 95.4339C96.999 95.415 96.999 95.415 96.9802 95.3961C96.8487 95.283 96.7361 95.1698 96.6234 95.0567C96.3792 94.8115 96.1351 94.5663 95.891 94.3211C95.3839 93.8119 94.8768 93.3026 94.2947 92.8688C93.7876 92.4916 92.9989 92.7745 92.7172 93.2838C92.3791 93.8684 92.6233 94.4908 93.1303 94.868C92.905 94.6983 93.2054 94.9435 93.2242 94.9623C93.3557 95.0755 93.4871 95.2075 93.6186 95.3207C93.8815 95.5659 94.1256 95.8111 94.3698 96.0563C94.7266 96.4146 95.1022 96.773 95.4966 97.0936C91.6091 100.771 87.1207 103.827 82.1253 106.147C81.5243 105.147 81.2239 103.978 80.6041 102.997C79.8154 101.733 77.8059 102.903 78.6134 104.166C79.1768 105.072 79.4961 106.128 80.0032 107.071C74.4255 109.353 68.2657 110.73 61.7115 111.051C61.5801 109.975 61.7679 108.542 61.5613 107.335C61.3171 105.864 59.0823 106.486 59.3265 107.957C59.3077 107.844 59.3077 107.863 59.3265 108.014C59.3452 108.184 59.3452 108.335 59.3452 108.504C59.364 108.9 59.3452 109.278 59.3452 109.674C59.3452 110.164 59.364 110.636 59.4016 111.126C53.9554 111.164 48.528 110.334 43.3635 108.674C43.4199 108.58 43.4762 108.485 43.495 108.372C43.7767 107.146 44.4528 106.034 44.6969 104.808C44.9974 103.355 42.7626 102.733 42.4621 104.185C42.218 105.411 41.5231 106.524 41.2602 107.75C41.2414 107.825 41.2602 107.882 41.2602 107.957C36.0394 106.052 31.119 103.299 26.7809 99.7718C25.9358 99.0928 25.147 98.3761 24.377 97.6406C24.8653 97.7537 25.3348 97.5274 25.6353 97.1125C25.4663 97.3388 25.7104 97.037 25.7292 97.0182C25.8419 96.8861 25.9733 96.7541 26.086 96.6221C26.3302 96.358 26.5743 96.1128 26.8184 95.8677C27.3067 95.3773 27.795 94.9058 28.1894 94.34C28.5462 93.8119 28.2833 93.0574 27.7762 92.7557C27.194 92.4162 26.5555 92.6613 26.1987 93.1706C26.1987 93.1894 26.1987 93.1706 26.1799 93.1894C26.1611 93.2083 26.1611 93.2083 26.1424 93.2272C26.0297 93.3592 25.917 93.4724 25.8043 93.5855C25.5602 93.8307 25.316 94.0759 25.0719 94.3211C24.5648 94.8303 24.0578 95.3396 23.6259 95.9242C23.4381 96.1694 23.4193 96.4901 23.4944 96.773C19.3816 92.6236 16.3017 87.701 14.0857 82.3823C14.2735 82.3823 14.48 82.3446 14.6866 82.2125C15.7383 81.5335 17.0153 81.2506 18.067 80.5528C19.3065 79.7229 18.1421 77.7237 16.9026 78.5536C15.851 79.2514 14.5927 79.5532 13.5223 80.2133C13.4284 80.2699 13.372 80.3453 13.3157 80.4208C11.3062 74.97 10.1794 69.1421 9.80384 63.2953C9.76628 62.7295 9.74749 62.1448 9.72872 61.579C9.80383 61.579 9.89773 61.5978 9.97285 61.579C11.0433 61.4281 12.5081 61.6355 13.7288 61.4281C15.1937 61.1829 14.5739 58.9385 13.1091 59.1836C13.2218 59.1648 13.203 59.1648 13.0528 59.1836C12.8837 59.2025 12.7335 59.2025 12.5645 59.2025C12.1701 59.2214 11.7945 59.2025 11.4001 59.2025C10.818 59.2025 10.2546 59.2214 9.69116 59.2779C9.72871 53.5443 10.6489 48.1313 12.3203 43.1144C12.433 43.1898 12.5457 43.2464 12.6959 43.2841C13.9166 43.567 15.0247 44.246 16.2453 44.4912C17.6914 44.7929 18.3111 42.5485 16.8651 42.2468C15.6444 42.0016 14.5364 41.3037 13.3157 41.0397C13.2218 41.0208 13.1654 41.0397 13.0903 41.0397C15.4754 34.91 19.0248 29.4404 23.4944 24.8572C23.5883 25.0458 23.7198 25.2156 23.9076 25.3476C23.6822 25.1778 23.9827 25.423 24.0015 25.4419C24.1329 25.5551 24.2644 25.6871 24.3958 25.8002C24.6587 26.0454 24.9029 26.2906 25.147 26.5358C25.6353 27.0262 26.1048 27.5166 26.6682 27.9126C27.194 28.271 27.9452 28.0069 28.2457 27.4977C28.5837 26.913 28.3396 26.2718 27.8326 25.9134C27.8138 25.9134 27.8326 25.9134 27.8138 25.8946C27.795 25.8757 27.795 25.8757 27.7762 25.8568C27.6448 25.7437 27.5321 25.6305 27.4194 25.5173C27.1753 25.2722 26.9311 25.027 26.687 24.7818C26.1799 24.2725 25.6729 23.7633 25.0907 23.3295C25.0907 23.3295 25.0719 23.3295 25.0719 23.3106C29.0157 19.6139 33.6168 16.5774 38.7061 14.2952C38.7249 14.3141 38.7249 14.333 38.7249 14.3518C39.401 15.408 39.6827 16.6905 40.3775 17.7467C41.2038 18.9915 43.1945 17.8222 42.3682 16.5774C41.7109 15.5966 41.4104 14.4273 40.8283 13.4088C46.1242 11.3152 51.9084 10.0327 58.0494 9.69323C58.4626 9.67437 58.857 9.67437 59.2701 9.65551C59.2701 9.67437 59.2701 9.67437 59.2701 9.71209C59.2889 9.88184 59.2889 10.0327 59.2889 10.2025C59.3077 10.5985 59.2889 10.9758 59.2889 11.3718C59.2889 12.0508 59.3077 12.7298 59.4016 13.4088C59.4955 14.0312 60.2655 14.3707 60.8289 14.2198C61.4862 14.0312 61.7303 13.4276 61.6364 12.7864C61.5049 11.8811 61.6176 10.6928 61.5425 9.59893C67.1389 9.63665 72.51 10.5231 77.5242 12.1828C77.5054 12.2394 77.4679 12.296 77.4491 12.3714C77.2049 13.5974 76.5101 14.7102 76.2472 15.9361C75.9091 17.3884 78.1439 18.0108 78.482 16.5585C78.7637 15.3326 79.4398 14.2198 79.6839 12.9939C79.6839 12.975 79.6839 12.975 79.6839 12.9561C85.7874 15.276 91.3087 18.7464 95.9473 23.1409C95.7032 23.2352 95.4778 23.4049 95.3088 23.6313C95.3088 23.6501 95.3088 23.6313 95.29 23.6501C95.2712 23.669 95.2712 23.669 95.2524 23.6879C95.1398 23.8199 95.0271 23.933 94.9144 24.0462C94.6703 24.2914 94.4261 24.5366 94.182 24.7818C93.6749 25.291 93.1679 25.8002 92.7359 26.3849C92.3603 26.8942 92.642 27.6863 93.1491 27.9692C93.7313 28.3087 94.351 28.0635 94.7266 27.5543C94.5576 27.7806 94.8017 27.4789 94.8205 27.46C94.9332 27.328 95.0646 27.1959 95.1773 27.0639C95.4215 26.7999 95.6656 26.5547 95.9097 26.3095C96.398 25.8191 96.8863 25.3476 97.2807 24.7818C97.337 24.7063 97.337 24.6309 97.3558 24.5554C101.187 28.4973 104.342 33.1182 106.671 38.286C106.52 38.3049 106.351 38.3615 106.182 38.4746C105.149 39.1725 103.872 39.4742 102.802 40.1344C101.544 40.9265 102.708 42.9446 103.966 42.1336C105.018 41.4546 106.295 41.1717 107.347 40.4739C107.422 40.4361 107.478 40.3796 107.535 40.323C109.45 45.1324 110.671 50.3757 111.065 55.9585C111.159 57.1656 111.178 58.2218 111.197 59.2591Z" fill="#181920"/>
<path d="M86.6142 57.4109C80.3605 55.3928 71.3837 55.9398 65.0549 58.354C64.7544 57.675 64.3224 57.1092 63.7966 56.6754C65.0924 49.9987 65.7122 43.1145 66.3131 36.3436C66.7638 31.3643 68.4352 23.1411 63.6088 19.633C59.6462 16.7473 57.5992 24.9517 57.2236 26.9509C55.4771 36.419 56.679 46.8678 57.5053 56.3736C56.3222 57.1657 55.4583 58.486 55.3832 60.3532C55.233 63.2955 57.618 65.3701 60.3787 65.4833C62.0689 65.5588 63.4398 64.7666 64.36 63.5595C71.2898 64.8232 78.2571 65.389 85.262 64.578C90.727 63.899 92.4735 59.297 86.6142 57.4109ZM58.9138 36.2115C58.9326 33.854 59.0641 31.4964 59.2706 29.1576C59.4584 26.9132 59.9092 24.7631 60.8857 22.745C62.5196 19.3878 64.191 24.914 64.2849 25.2723C65.5807 30.5722 63.9468 37.4752 63.3647 42.8316C62.9139 47.113 62.4257 51.4132 61.6369 55.6569C61.0172 55.5249 60.3787 55.4871 59.7589 55.5626C59.2331 49.1311 58.8763 42.6807 58.9138 36.2115ZM57.6931 60.3909C57.5429 56.8451 63.0454 56.864 63.2144 60.3909C63.0454 64.031 57.8622 64.0876 57.6931 60.3909ZM85.262 62.3147C78.5952 63.088 71.9659 62.6165 65.3741 61.4471C65.4305 61.2019 65.468 60.9379 65.4868 60.6738C69.0738 59.2027 73.1678 58.9575 76.9989 58.8443C79.3088 58.7689 81.6187 58.9198 83.9099 59.2404C86.3325 59.5611 89.4312 61.7489 85.262 62.3147Z" fill="#181920"/>
</svg>
