<svg width="106" height="106" viewBox="0 0 106 106" fill="none" xmlns="http://www.w3.org/2000/svg">
<path d="M51.9491 104.723C47.9727 104.723 44.0289 104.297 40.2318 103.43C20.7737 99.0599 6.33486 84.6572 2.53774 65.8355C-1.04751 47.9794 1.98366 24.1659 21.2952 10.8434C30.5027 4.50947 41.4867 1.1543 53.0899 1.1543C60.7004 1.1543 68.4087 2.6764 75.351 5.55694C93.5218 13.0856 104.522 30.5162 104.766 52.1529C104.555 70.2709 96.9115 85.8356 83.8253 94.8537C74.5851 101.22 63.2589 104.723 51.9491 104.723Z" fill="white"/>
<path d="M75.6283 4.90248C57.8487 -2.4789 36.826 -0.727664 20.888 10.2708C2.92907 22.6604 -2.30214 45.4264 1.8372 65.983C5.78098 85.5412 20.9531 99.8294 40.0691 104.134C55.1597 107.522 71.5378 104.183 84.2492 95.4431C98.5251 85.6067 105.304 69.1254 105.5 52.1368C105.256 31.6457 94.9724 12.9222 75.6283 4.90248ZM63.6666 102.153C42.5136 106.9 19.4864 98.2254 8.69808 78.9946C-3.4755 57.2759 1.62534 26.752 21.9146 12.0056C39.2379 -0.596731 64.2859 -0.547631 82.2284 10.6308C96.6021 19.5834 103.3 35.6228 103.496 52.1368C103.202 76.8996 87.8671 96.7361 63.6666 102.153Z" fill="#181920"/>
<path d="M66.5834 8.66699C48.4127 3.49511 27.3085 9.35439 15.6076 24.4772C3.30361 40.402 3.89029 66.8997 16.5039 82.4972C28.5145 97.3582 48.6571 101.908 66.5834 96.8181C86.8075 91.0897 98.7366 72.8245 99.0137 52.2352C98.7203 31.384 86.7586 14.3953 66.5834 8.66699ZM96.9929 51.8587C96.9114 51.8587 96.8462 51.8424 96.7647 51.8587C96.8625 51.8424 96.8462 51.8424 96.7158 51.8587C96.5692 51.8751 96.4388 51.8751 96.2921 51.8751C95.9499 51.8914 95.624 51.8751 95.2817 51.8751C94.6951 51.8751 94.1084 51.8914 93.5217 51.9733C92.9839 52.0551 92.6906 52.7262 92.8209 53.2172C92.9839 53.79 93.5054 54.0028 94.0595 53.9209C94.8906 53.8064 95.9825 53.9209 96.9603 53.8227C96.7484 58.7327 95.8358 63.3809 94.3365 67.669C93.3098 67.4398 92.3646 66.867 91.338 66.6379C90.0831 66.3433 89.5453 68.2909 90.8002 68.5855C91.778 68.8146 92.658 69.3056 93.6195 69.5675C91.5172 74.7721 88.5023 79.4039 84.7541 83.3155C84.7378 83.2992 84.7215 83.2828 84.7052 83.2664C84.6889 83.2501 84.7052 83.2664 84.6889 83.2501C84.6726 83.2337 84.6726 83.2337 84.6563 83.2173C84.5423 83.1191 84.4445 83.0209 84.3467 82.9227C84.1348 82.71 83.923 82.4972 83.7111 82.2844C83.2711 81.8425 82.8311 81.4006 82.3259 81.0242C81.8859 80.6968 81.2015 80.9424 80.957 81.3843C80.6637 81.8916 80.8755 82.4317 81.3155 82.7591C81.12 82.6118 81.3807 82.8245 81.397 82.8409C81.5111 82.9391 81.6252 83.0537 81.7392 83.1519C81.9674 83.3646 82.1793 83.5774 82.3911 83.7902C82.7007 84.1011 83.0267 84.4121 83.3689 84.6903C79.9955 87.8818 76.1006 90.5332 71.7657 92.5463C71.2442 91.6789 70.9835 90.6642 70.4457 89.8131C69.7612 88.7165 68.0175 89.7313 68.7182 90.8278C69.2071 91.6134 69.4842 92.53 69.9242 93.3483C65.0841 95.3287 59.7388 96.5235 54.0513 96.8017C53.9372 95.8688 54.1002 94.6249 53.9209 93.5774C53.7091 92.3008 51.7698 92.841 51.9816 94.1176C51.9653 94.0193 51.9653 94.0357 51.9816 94.1666C51.9979 94.3139 51.9979 94.4449 51.9979 94.5922C52.0142 94.9359 51.9979 95.2632 51.9979 95.6069C51.9979 96.0324 52.0142 96.4416 52.0468 96.8672C47.3208 96.8999 42.6111 96.1798 38.1295 94.7395C38.1784 94.6577 38.2273 94.5758 38.2436 94.4776C38.488 93.4138 39.0747 92.4481 39.2865 91.3843C39.5473 90.1241 37.608 89.584 37.3473 90.8442C37.1354 91.908 36.5324 92.8737 36.3043 93.9375C36.288 94.003 36.3043 94.0521 36.3043 94.1176C31.7738 92.4645 27.5041 90.075 23.7396 87.0144C23.0062 86.4252 22.3218 85.8033 21.6536 85.165C22.0773 85.2632 22.4847 85.0668 22.7455 84.7067C22.5988 84.9031 22.8107 84.6412 22.827 84.6249C22.9247 84.5103 23.0388 84.3957 23.1366 84.2812C23.3485 84.052 23.5603 83.8393 23.7722 83.6265C24.1959 83.201 24.6196 82.7918 24.9618 82.3008C25.2715 81.8425 25.0433 81.1879 24.6033 80.926C24.0981 80.6314 23.544 80.8441 23.2344 81.286C23.2344 81.3024 23.2344 81.286 23.2181 81.3024C23.2018 81.3188 23.2018 81.3188 23.1855 81.3352C23.0877 81.4497 22.9899 81.5479 22.8921 81.6461C22.6803 81.8589 22.4684 82.0717 22.2566 82.2844C21.8166 82.7263 21.3766 83.1682 21.0017 83.6756C20.8388 83.8884 20.8225 84.1666 20.8877 84.4121C17.3187 80.8114 14.6461 76.5397 12.7231 71.9243C12.886 71.9243 13.0653 71.8916 13.2445 71.777C14.1572 71.1878 15.2653 70.9423 16.1779 70.3367C17.2535 69.6166 16.2431 67.8817 15.1676 68.6019C14.2549 69.2074 13.1631 69.4693 12.2342 70.0421C12.1527 70.0912 12.1038 70.1567 12.0549 70.2222C10.3112 65.4922 9.33336 60.4349 9.00743 55.3612C8.97483 54.8702 8.95854 54.3628 8.94224 53.8718C9.00743 53.8718 9.08891 53.8882 9.1541 53.8718C10.083 53.7409 11.3541 53.9209 12.4134 53.7409C13.6846 53.5281 13.1468 51.5805 11.8756 51.7932C11.9734 51.7769 11.9571 51.7769 11.8267 51.7932C11.6801 51.8096 11.5497 51.8096 11.403 51.8096C11.0608 51.826 10.7349 51.8096 10.3926 51.8096C9.88745 51.8096 9.39855 51.826 8.90965 51.8751C8.94224 46.8996 9.74078 42.2024 11.1912 37.8488C11.289 37.9143 11.3867 37.9634 11.5171 37.9961C12.5764 38.2416 13.5379 38.8308 14.5972 39.0436C15.852 39.3055 16.3898 37.3578 15.135 37.096C14.0757 36.8832 13.1142 36.2776 12.0549 36.0485C11.9734 36.0321 11.9245 36.0485 11.8593 36.0485C13.929 30.7293 17.0091 25.983 20.8877 22.0059C20.9691 22.1695 21.0832 22.3168 21.2462 22.4314C21.0506 22.2841 21.3114 22.4969 21.3277 22.5132C21.4418 22.6114 21.5558 22.726 21.6699 22.8242C21.8981 23.037 22.1099 23.2497 22.3218 23.4625C22.7455 23.888 23.1529 24.3136 23.6418 24.6573C24.0981 24.9682 24.75 24.7391 25.0107 24.2972C25.304 23.7898 25.0922 23.2334 24.6522 22.9224C24.6359 22.9224 24.6522 22.9224 24.6359 22.906C24.6196 22.8897 24.6196 22.8897 24.6033 22.8733C24.4892 22.7751 24.3914 22.6769 24.2937 22.5787C24.0818 22.3659 23.8699 22.1531 23.6581 21.9404C23.2181 21.4985 22.7781 21.0566 22.2729 20.6801C22.2729 20.6801 22.2566 20.6801 22.2566 20.6638C25.6789 17.4559 29.6715 14.8209 34.0879 12.8405C34.1042 12.8569 34.1042 12.8732 34.1042 12.8896C34.6909 13.8061 34.9354 14.9191 35.5383 15.8356C36.2554 16.9158 37.9828 15.9011 37.2658 14.8209C36.6954 13.9698 36.4346 12.9551 35.9294 12.0713C40.5251 10.2546 45.5445 9.14162 50.8734 8.84702C51.232 8.83065 51.5742 8.83065 51.9327 8.81429C51.9327 8.83065 51.9327 8.83065 51.9327 8.86339C51.949 9.01069 51.949 9.14162 51.949 9.28892C51.9653 9.63262 51.949 9.95996 51.949 10.3037C51.949 10.8929 51.9653 11.4821 52.0468 12.0713C52.1283 12.6114 52.7964 12.906 53.2853 12.775C53.8557 12.6114 54.0676 12.0876 53.9861 11.5312C53.872 10.7456 53.9698 9.71446 53.9046 8.76519C58.761 8.79792 63.4218 9.56716 67.773 11.0074C67.7567 11.0565 67.7242 11.1056 67.7079 11.1711C67.496 12.2349 66.893 13.2006 66.6649 14.2644C66.3715 15.5246 68.3108 16.0647 68.6042 14.8045C68.8486 13.7407 69.4353 12.775 69.6472 11.7112C69.6472 11.6948 69.6472 11.6948 69.6472 11.6785C74.9436 13.6916 79.7348 16.703 83.76 20.5165C83.5482 20.5983 83.3526 20.7456 83.2059 20.942C83.2059 20.9584 83.2059 20.942 83.1896 20.9584C83.1733 20.9747 83.1733 20.9747 83.1571 20.9911C83.0593 21.1057 82.9615 21.2039 82.8637 21.3021C82.6519 21.5148 82.44 21.7276 82.2281 21.9404C81.7881 22.3823 81.3481 22.8242 80.9733 23.3316C80.6474 23.7735 80.8918 24.4609 81.3318 24.7064C81.837 25.001 82.3748 24.7882 82.7007 24.3463C82.5541 24.5427 82.7659 24.2808 82.7822 24.2645C82.88 24.1499 82.9941 24.0353 83.0919 23.9208C83.3037 23.6916 83.5156 23.4789 83.7274 23.2661C84.1511 22.8406 84.5749 22.4314 84.9171 21.9404C84.966 21.8749 84.966 21.8094 84.9823 21.744C88.3068 25.1646 91.0446 29.1745 93.0654 33.6589C92.935 33.6753 92.7884 33.7244 92.6417 33.8226C91.7454 34.4282 90.6372 34.69 89.7083 35.2629C88.6164 35.9503 89.6268 37.7015 90.7187 36.9977C91.6313 36.4085 92.7395 36.163 93.6521 35.5575C93.7173 35.5247 93.7661 35.4756 93.815 35.4265C95.4773 39.6001 96.5366 44.15 96.8788 48.9945C96.9603 50.042 96.9766 50.9585 96.9929 51.8587Z" fill="#181920"/>
<path d="M75.6611 50.255C70.2343 48.5037 62.4445 48.9784 56.9526 51.0733C56.6918 50.4841 56.317 49.9931 55.8607 49.6167C56.9852 43.8228 57.5229 37.849 58.0444 31.9733C58.4356 27.6525 59.886 20.5167 55.6977 17.4725C52.2591 14.9683 50.4828 22.0879 50.1569 23.8227C48.6413 32.0388 49.6843 41.106 50.4013 49.3548C49.3746 50.0422 48.625 51.1879 48.5598 52.8082C48.4294 55.3614 50.4991 57.1617 52.8947 57.2599C54.3614 57.3254 55.5511 56.638 56.3496 55.5905C62.363 56.6871 68.4091 57.1781 74.4877 56.4743C79.23 55.8851 80.7456 51.8916 75.6611 50.255ZM51.6236 31.8588C51.6399 29.8129 51.7539 27.7671 51.9332 25.7376C52.0962 23.79 52.4873 21.9242 53.3347 20.173C54.7525 17.2597 56.2029 22.0551 56.2844 22.3661C57.4089 26.9651 55.9911 32.9554 55.4859 37.6035C55.0947 41.3187 54.671 45.0503 53.9866 48.7329C53.4488 48.6183 52.8947 48.5856 52.3569 48.651C51.9006 43.07 51.591 37.4726 51.6236 31.8588ZM50.5643 52.8409C50.4339 49.764 55.2088 49.7803 55.3555 52.8409C55.2088 55.9997 50.711 56.0488 50.5643 52.8409ZM74.4877 54.5103C68.7024 55.1813 62.9497 54.7722 57.2296 53.7574C57.2785 53.5447 57.3111 53.3155 57.3274 53.0864C60.44 51.8098 63.9927 51.597 67.3172 51.4988C69.3217 51.4334 71.3262 51.5643 73.3144 51.8425C75.4166 52.1208 78.1056 54.0193 74.4877 54.5103Z" fill="#181920"/>
</svg>
