<svg width="129" height="70" viewBox="0 0 129 70" fill="none" xmlns="http://www.w3.org/2000/svg">
<g clip-path="url(#clip0_1303_6866)">
<path d="M39.356 68.5923C39.2409 68.5923 39.1066 68.5347 39.049 68.4771L38.2815 67.7288C38.128 67.5753 37.9169 67.4794 37.6867 67.4794C37.6099 67.4794 37.5524 67.4794 37.4756 67.4985C37.4564 67.4985 37.4372 67.4985 37.418 67.4985C37.2454 67.4985 37.1494 67.4602 37.111 67.4218C35.3457 65.6757 33.4845 63.9488 31.6808 62.2794C28.8986 59.7082 26.0204 57.0411 23.43 54.2396C23.2573 54.0478 23.0654 53.8751 22.9119 53.7216C22.7584 53.5873 22.5665 53.5105 22.3555 53.5105C22.3363 53.5105 22.3171 53.5105 22.2979 53.5105C22.0677 53.5297 21.8758 53.6256 21.7223 53.7983C20.0721 55.6596 18.4411 57.5208 16.8101 59.4012C14.546 61.9916 12.2818 64.6012 9.97922 67.1532C9.92166 67.2107 9.82572 67.2107 9.78734 67.2107C9.6914 67.2107 9.57628 67.1723 9.51871 67.1148L8.75119 66.3473C8.59769 66.1938 8.38662 66.0978 8.15637 66.0978C8.07961 66.0978 8.00286 66.117 7.92611 66.1362C7.88773 66.1362 7.86855 66.1362 7.83017 66.1362C7.67667 66.1362 7.6191 66.0978 7.56154 66.0594L1.42138 59.9385C1.21031 59.7274 1.44057 59.4396 1.45976 59.4204C1.99702 58.7872 2.53428 58.1732 3.07155 57.54C5.58517 54.5275 8.04124 51.3806 10.4205 48.3489C13.7017 44.1468 17.1172 39.7911 20.6861 35.7232C20.7053 35.7041 20.7821 35.6657 20.8972 35.6657C21.0123 35.6657 21.0699 35.7041 21.0891 35.7232C21.2234 35.8767 21.7798 36.5099 21.7798 36.5099C21.9525 36.7018 22.1828 36.7978 22.413 36.7978C22.5474 36.7978 22.6817 36.7594 22.7968 36.7018C22.816 36.7018 22.8352 36.7018 22.8736 36.7018C22.9695 36.7018 23.0079 36.7594 23.0271 36.7786C27.1333 41.614 31.5465 46.1615 35.7103 50.3445C35.8638 50.498 36.0941 50.5939 36.3051 50.5939C36.4395 50.5939 36.5738 50.5555 36.6889 50.498C38.4734 49.577 41.5818 45.8737 44.6711 41.9977C45.0741 41.4988 45.3619 41.1343 45.5346 40.9424C51.8282 33.5742 58.4865 25.6879 64.7609 17.6865C64.7609 17.6865 64.7993 17.6673 64.8761 17.6673C65.0104 17.6673 65.1255 17.7249 65.1831 17.7633C65.3366 17.8976 65.586 18.1662 65.9314 18.55C66.0849 18.7227 66.3152 18.7994 66.5262 18.7994C66.6222 18.7994 66.7181 18.7803 66.814 18.7419C66.8524 18.7419 66.8908 18.7227 66.9292 18.7227C66.9867 18.7227 67.0443 18.7419 67.1019 18.7994C68.7328 20.4112 70.3446 22.0614 71.9564 23.6924C75.3335 27.127 78.8257 30.6768 82.529 33.9388C82.6441 34.0539 82.7976 34.1115 82.9703 34.1306C83.0087 34.1306 83.1622 34.1498 83.2006 34.1498C83.6419 34.1498 83.9105 33.9579 84.064 33.8044C89.9164 27.5875 96.1717 21.6776 101.506 16.7079C101.832 16.4009 101.87 15.9021 101.583 15.5759C100.412 14.1176 99.2801 12.6017 98.1672 11.1242C96.92 9.45489 95.6152 7.72797 94.2529 6.0778C94.2145 6.02024 94.1569 5.98186 94.1186 5.94349C94.061 5.90511 94.0418 5.80917 94.061 5.69404L94.0994 5.54054C94.1185 5.50216 94.1377 5.46379 94.1569 5.42541C94.2721 5.2911 94.3488 5.25272 94.4064 5.25272C94.4447 5.25272 94.5023 5.25272 94.5407 5.25272C94.5599 5.25272 94.5983 5.25272 94.6174 5.25272C104.461 4.27413 115.033 3.12285 125.587 1.24243C125.606 1.24243 125.625 1.24243 125.625 1.24243C125.894 1.24243 126.067 1.33837 126.086 1.56863C126.086 1.81807 126.201 2.04833 126.393 2.20183C126.546 2.33615 126.738 2.39371 126.93 2.39371C126.968 2.39371 127.026 2.39371 127.064 2.37452L127.525 2.29777C127.544 2.29777 127.563 2.29777 127.582 2.29777C127.793 2.29777 127.889 2.33615 127.947 2.4129C128.005 2.48965 128.024 2.60478 128.005 2.73909C126.853 8.05417 125.836 13.4844 124.839 18.7419C123.649 25.0355 122.421 31.5403 120.963 37.8915C120.943 37.9299 120.924 37.9682 120.924 38.0066C120.847 38.1409 120.809 38.1601 120.732 38.1601L120.56 38.1793C120.483 38.1793 120.444 38.1601 120.444 38.1601C120.233 37.9107 120.042 37.642 119.869 37.3926C119.715 37.1623 119.447 37.0472 119.197 37.0472C119.101 37.0472 119.005 37.0664 118.909 37.1048C118.852 37.124 118.756 37.1623 118.718 37.1815C118.679 37.2007 118.66 37.2007 118.641 37.2007C118.583 37.2007 118.545 37.1815 118.526 37.124C116.626 34.7638 114.957 32.231 113.115 29.4104C112.98 29.1993 112.769 29.065 112.52 29.0458C112.481 29.0458 112.443 29.0458 112.405 29.0458C112.194 29.0458 112.002 29.1226 111.848 29.2569C101.602 38.5247 92.8905 47.025 85.2345 55.2182C85.1769 55.2758 85.1386 55.295 85.0618 55.295C84.9467 55.295 84.8124 55.2374 84.6973 55.1415L83.7954 54.3932C83.6419 54.2588 83.45 54.2013 83.2581 54.2013C83.2198 54.2013 83.1238 54.2013 83.1238 54.2013C82.9703 54.2013 82.836 54.1629 82.7401 54.0861C79.3054 51.2655 75.7748 47.9652 71.611 43.7054C70.1336 42.1896 68.6369 40.6737 67.1402 39.1771C66.9867 39.0236 66.7757 38.9276 66.5454 38.9276C66.5262 38.9276 66.5262 38.9276 66.507 38.9276C66.2768 38.9468 66.0465 39.0428 65.893 39.2346C62.0938 43.8014 57.9108 48.1762 53.8813 52.3976C48.9692 57.5208 43.9036 62.8167 39.452 68.5539L39.356 68.5923Z" fill="white"/>
<path d="M127.391 1.51149C127.237 1.53068 127.084 1.56905 126.93 1.58824C126.911 0.820722 126.239 0.321835 125.453 0.456151C115.225 2.27901 104.883 3.44948 94.5407 4.46644C94.1569 4.40888 93.7923 4.60076 93.5429 4.90776C93.5045 4.94614 93.4853 4.98452 93.4661 5.02289C93.4086 5.09964 93.3702 5.1764 93.3318 5.27234C93.3126 5.3299 93.2935 5.38746 93.2743 5.46421C93.2551 5.54097 93.2359 5.59853 93.2359 5.67528C93.1975 6.05904 93.3318 6.4428 93.6388 6.67306C96.1717 9.76232 98.455 13.0627 100.949 16.1711C94.9628 21.7356 89.0721 27.3577 83.4692 33.306C83.3925 33.3827 83.2581 33.4019 83.1046 33.3827C77.7128 28.6241 72.8391 23.3282 67.7159 18.2818C67.3513 17.9172 66.91 17.8788 66.5454 18.0323C66.1808 17.6486 65.9314 17.38 65.7779 17.2456C65.3558 16.8427 64.5115 16.7276 64.1085 17.2456C57.9108 25.1511 51.4253 32.8263 44.9014 40.4631C43.942 41.576 38.5885 48.6564 36.3243 49.8268C31.9878 45.4328 27.6897 41.0004 23.6794 36.2993C23.2957 35.858 22.816 35.8388 22.4322 36.0307C22.202 35.762 21.9717 35.5126 21.7415 35.244C21.3385 34.7835 20.475 34.7835 20.0721 35.244C13.8936 42.2668 8.42499 49.8844 2.45753 57.0799C1.92026 57.7131 1.383 58.3271 0.845734 58.9603C0.423598 59.44 0.366035 60.15 0.845734 60.6297C2.89885 62.6636 4.93278 64.6975 6.98589 66.7506C7.2929 67.0576 7.75341 67.1536 8.15636 67.0385C8.4058 67.2879 8.67443 67.5565 8.92388 67.806C9.3652 68.2473 10.1711 68.2857 10.5932 67.806C14.546 63.3927 18.4027 58.8836 22.3363 54.4319C22.4898 54.5663 22.6433 54.7198 22.7968 54.8925C27.1141 59.536 31.9878 63.6422 36.497 68.0938C36.7848 68.3816 37.2645 68.4967 37.6675 68.3816C37.9169 68.6311 38.1856 68.8805 38.435 69.13C38.8571 69.5329 39.7014 69.648 40.1044 69.13C48.2017 58.7109 58.1411 49.9612 66.5454 39.8299C68.0421 41.3266 69.5195 42.8424 70.997 44.3583C74.566 48.0232 78.2309 51.5346 82.1836 54.7965C82.4906 55.046 82.8552 55.1611 83.2198 55.1035C83.5268 55.353 83.8146 55.6024 84.1216 55.8519C84.6013 56.2548 85.3304 56.3507 85.791 55.8519C94.2145 46.8335 103.194 38.2181 112.366 29.9289C114.093 32.596 115.859 35.2632 117.835 37.7C118.219 38.1797 118.718 38.1797 119.12 37.9495C119.14 37.9495 119.159 37.9495 119.178 37.9303C119.37 38.1989 119.581 38.4867 119.792 38.7362C120.022 39.024 120.387 39.1008 120.751 39.0624C121.135 39.0624 121.481 38.8513 121.672 38.4292C121.692 38.3908 121.711 38.3332 121.73 38.2949C121.73 38.2757 121.749 38.2565 121.768 38.2373C124.455 26.571 126.297 14.7128 128.83 3.00815C129.041 2.02957 128.292 1.35799 127.391 1.51149ZM65.7779 35.6661C65.3558 35.244 64.5115 35.1672 64.1085 35.6661C58.0451 43.2645 50.9839 49.9803 44.3833 57.0991C42.522 59.0946 40.7567 61.1669 38.9915 63.2584C36.593 66.1174 35.9789 64.2178 33.6572 62.0304C29.5702 58.1736 25.4447 54.3936 21.7415 50.153C21.3385 49.6925 20.475 49.6925 20.0721 50.153C16.4072 54.2593 12.819 58.4422 9.17332 62.5677C8.69362 63.1049 8.23311 63.623 7.75341 64.1603C6.25675 62.6636 4.76008 61.1861 3.28261 59.6895C3.57043 59.3633 3.83906 59.0371 4.12688 58.7109C9.05819 52.801 13.6633 46.6224 18.5179 40.655C19.1319 39.8875 20.3407 37.2011 21.5112 38.5635C22.9503 40.252 24.4853 41.8638 25.982 43.4948C29.0329 46.7759 32.2181 49.942 35.3841 53.1272C35.8062 53.5685 36.6313 53.6069 37.0535 53.1272C44.7478 44.2815 52.3655 35.3783 59.7912 26.3216C61.192 24.633 62.5543 22.9253 63.9358 21.1984C65.893 18.7615 68.1188 22.9061 69.769 24.5946C73.7601 28.6817 77.7896 32.6728 82.2028 36.2993C82.6825 36.7023 83.4116 36.7982 83.8722 36.2993C90.1082 29.6219 96.6897 23.3282 103.386 17.1113C103.885 16.6508 103.808 16.0944 103.501 15.6722C103.463 15.5955 103.444 15.5187 103.386 15.442C101.007 12.6021 98.8772 9.55126 96.5938 6.63468C105.842 5.71366 115.072 4.61994 124.244 3.04653C122.056 13.3697 120.349 23.8079 118.084 34.1119C116.146 31.4639 114.304 28.4706 112.481 25.7459C112.251 25.3813 111.906 25.2278 111.58 25.2087C111.273 25.1703 110.927 25.247 110.639 25.4965C103.348 31.9628 96.3635 38.7937 89.4559 45.663C87.8057 47.3132 86.1747 48.9634 84.5437 50.6519C82.3179 52.9545 82.2028 51.7648 79.8235 49.6541C74.8922 45.2409 70.4598 40.3096 65.7779 35.6661Z" fill="#181920"/>
<path d="M116.472 60.2252C113.191 56.5603 109.622 53.164 106.245 49.5951C104.671 47.9449 102.177 50.4393 103.731 52.1087C107.127 55.6776 110.677 59.0739 113.958 62.7388C115.493 64.4274 117.988 61.9137 116.472 60.2252Z" fill="#181920"/>
<path d="M110.025 49.0189C111.1 49.3835 112.116 49.9016 113.153 50.4196C114.016 50.861 115.071 50.6499 115.57 49.7864C116.031 48.9997 115.801 47.7909 114.937 47.3687C113.652 46.7164 112.347 46.0831 110.965 45.6226C110.044 45.3156 109.027 45.968 108.778 46.8507C108.509 47.8101 109.104 48.6927 110.025 49.0189Z" fill="#181920"/>
<path d="M101.793 55.0637C101.256 54.277 100.258 53.9124 99.3755 54.4305C98.5888 54.891 98.1859 56.0615 98.7423 56.8482C99.7401 58.3065 100.335 59.995 101.102 61.5684C102.1 63.6215 105.17 61.8179 104.153 59.7839C103.367 58.2105 102.791 56.522 101.793 55.0637Z" fill="#181920"/>
</g>
<defs>
<clipPath id="clip0_1303_6866">
<rect width="128.368" height="69" fill="white" transform="translate(0.5 0.435547)"/>
</clipPath>
</defs>
</svg>
