<svg width="216" height="258" viewBox="0 0 216 258" fill="none" xmlns="http://www.w3.org/2000/svg">
<g clip-path="url(#clip0_1119_6898)">
<rect y="0.705566" width="216" height="256.569" rx="35.0863" fill="white"/>
<g clip-path="url(#clip1_1119_6898)">
<path fill-rule="evenodd" clip-rule="evenodd" d="M112.389 254.762C114.27 254.762 116.151 254.762 118.033 254.605C118.189 254.605 118.189 254.605 118.346 254.605C118.033 253.507 118.189 252.409 118.189 251.311C118.033 241.272 117.719 231.232 117.562 221.036C117.562 219.624 117.562 218.212 117.405 216.801C117.249 214.761 116.622 214.134 114.427 214.291C113.956 214.291 113.486 214.604 113.016 214.761C113.016 221.507 113.016 228.252 113.016 234.997C112.702 241.899 112.546 248.488 112.389 254.762Z" fill="white"/>
<path fill-rule="evenodd" clip-rule="evenodd" d="M140.608 240.488C140.765 244.88 139.824 251.468 139.824 255.704C141.706 255.547 145.311 255.86 147.193 255.704C146.566 248.488 145.939 238.919 145.155 232.017C144.214 224.33 143.117 216.487 140.608 209.271C139.041 208.644 138.1 209.585 136.846 210.369C137.316 215.232 138.884 219.938 139.354 224.958C139.824 230.134 140.295 235.311 140.608 240.488Z" fill="white"/>
<path fill-rule="evenodd" clip-rule="evenodd" d="M160.988 227.311C161.302 232.174 161.302 237.037 161.302 241.899C161.302 245.194 160.518 252.253 160.518 255.704C162.242 255.547 166.475 256.017 168.2 256.017C168.043 250.527 166.475 240.645 166.318 235.154C166.005 225.115 164.594 215.075 162.556 205.193C161.929 201.899 160.047 200.016 156.755 198.761C157.696 203.938 158.793 208.644 159.42 213.35C160.047 217.899 160.675 222.605 160.988 227.311Z" fill="white"/>
<path fill-rule="evenodd" clip-rule="evenodd" d="M91.3815 254.919C91.068 253.978 91.2247 253.194 91.2247 252.253C90.9112 238.605 91.5383 225.115 94.0467 211.781C94.2034 211.31 94.0467 210.84 94.0467 209.899C93.106 209.428 92.1654 208.957 90.7544 208.173C88.2461 216.173 87.619 224.017 86.6783 232.017C85.8945 239.546 86.208 247.233 85.5809 254.919C87.4622 254.919 89.3435 254.919 91.3815 254.919Z" fill="white"/>
<path fill-rule="evenodd" clip-rule="evenodd" d="M70.687 203.939C70.2167 204.881 69.9032 205.822 69.5896 206.92C65.8271 217.744 64.2593 228.881 63.6323 240.175C63.4755 244.097 63.3187 248.176 63.3187 252.097C63.3187 252.882 62.8484 256.019 62.8484 256.019C62.8484 256.019 67.5516 256.019 68.9625 255.862C67.8651 252.411 68.649 248.96 68.649 245.666C68.649 242.058 68.8057 238.293 69.1193 234.685C69.4328 230.92 69.9032 227.156 70.5302 223.391C71.1573 219.783 71.9412 216.175 72.7251 212.724C73.5089 209.116 74.6063 205.665 75.547 202.214C72.8818 201.743 71.4709 202.214 70.687 203.939Z" fill="white"/>
<path fill-rule="evenodd" clip-rule="evenodd" d="M129.007 175.86C136.219 173.821 141.549 169.899 146.252 164.723C150.328 160.331 152.21 155.154 153.15 149.35C154.561 140.879 154.404 132.408 153.464 123.938C152.68 117.506 151.896 111.231 150.485 104.957C149.231 98.9958 145.468 95.231 140.452 92.4075C138.257 91.3094 135.905 90.5251 133.71 89.7407C129.007 88.0152 124.147 86.6034 119.444 84.8779C114.114 82.9955 110.038 79.8582 107.216 74.8384C106.432 73.5835 105.178 73.4266 104.237 74.5247C104.08 74.6816 104.08 74.8384 103.924 74.9953C100.945 80.3288 96.085 83.6229 90.9115 86.7603C86.6787 89.427 82.2891 91.9369 77.7426 94.133C71.315 97.1134 66.7686 101.819 64.8873 109.035C62.8492 116.879 61.5951 124.722 63.006 132.722C63.7899 136.957 63.9466 141.35 64.5737 145.585C64.8873 147.624 65.3576 149.664 65.9847 151.703C69.1201 161.742 76.1749 168.488 85.5813 172.723C89.5006 174.449 93.7335 175.703 98.2799 177.272C98.907 178.527 98.2799 180.096 97.496 181.664C94.9876 186.841 91.3819 190.919 86.2084 193.429C82.6026 195.155 78.9968 196.724 75.2343 197.978C70.2176 199.704 65.8279 202.528 61.4383 205.194C58.7731 206.763 57.0487 209.273 55.7945 211.94C54.3835 214.763 53.1293 217.587 51.7184 220.724C50.7777 220.724 49.6803 221.038 48.8965 220.724C45.761 219.312 42.4688 217.9 39.6469 216.018C35.8843 213.351 33.6895 209.743 34.3166 204.881C34.4734 203.469 35.1005 202.214 35.5708 200.959C35.8843 200.018 36.1979 199.077 36.5114 197.822C35.2573 197.351 34.3166 197.037 33.376 196.88C30.3973 196.253 27.8889 194.684 25.8509 192.488C23.8128 190.449 22.7154 187.939 22.5587 185.115C22.4019 181.351 22.8722 177.9 24.5967 174.449C25.2238 173.35 25.6941 172.252 26.478 171.311C31.965 164.409 31.965 156.566 30.8676 148.566C30.5541 146.526 30.0838 144.801 29.6134 143.075C28.3593 138.369 28.8296 133.663 30.3973 129.271C32.7489 122.996 35.414 117.035 39.6469 111.859C43.4094 107.31 44.9772 102.29 44.9772 96.486C44.9772 92.7212 45.2907 88.7995 45.4475 85.0347C45.761 77.8189 48.7397 71.5442 54.07 66.5245C56.8919 63.8578 59.8706 61.5048 63.1628 59.4655C67.7092 56.7988 72.7259 54.4458 77.5859 52.0928C80.5645 50.681 83.8568 50.2104 87.3058 50.5242C92.9496 51.1516 98.4366 50.5242 103.767 49.1124C107.843 48.0143 111.919 47.5437 116.152 47.5437C120.385 47.5437 124.461 48.4849 128.067 50.5242C133.397 53.6615 138.727 57.1125 143.43 61.1911C147.193 64.4853 150.172 68.0932 151.896 72.7992C152.994 75.7796 154.875 78.2895 157.226 80.3288C159.264 82.0543 161.146 83.6229 163.184 85.5053C169.141 90.9957 172.59 97.7409 173.374 106.055C174.158 115.153 173.06 123.781 168.984 131.938C168.357 133.35 167.887 134.761 167.26 136.33C165.849 139.781 166.633 142.918 168.984 145.585C170.395 147.311 172.277 148.722 173.844 150.291C176.039 152.644 178.391 155.154 180.272 157.821C184.035 162.997 184.035 168.488 180.742 173.978C179.958 175.233 179.175 176.331 178.547 177.586C177.45 179.782 177.607 181.978 179.175 183.86C180.586 185.586 182.31 186.998 184.035 188.566C185.916 190.292 188.111 191.861 189.992 193.586C193.127 196.41 193.911 200.018 192.5 204.096C191.873 205.665 191.246 207.39 190.462 208.802C187.17 214.449 182.78 218.999 177.45 223.391C176.823 222.45 176.353 221.822 176.039 221.195C175.255 219.155 174.471 216.959 173.844 214.763C170.552 204.567 163.497 198.135 154.091 193.9C149.701 191.861 145.155 189.978 140.922 187.782C138.727 186.684 136.689 185.429 134.651 184.174C131.672 182.292 129.948 179.625 129.007 175.86ZM50.4642 135.075C48.7397 135.232 47.7991 135.075 47.4855 135.389C46.5449 136.33 45.6042 137.428 44.9772 138.683C43.4094 141.977 42.4688 145.585 42.312 149.193C42.1553 153.115 43.2527 156.723 45.6042 159.86C46.3881 160.801 47.0152 161.742 47.7991 162.84C46.7017 164.723 45.6042 166.605 44.5068 168.331C42.4688 171.782 40.9011 175.39 40.274 179.468C39.3333 185.9 41.3714 191.39 46.2313 195.782C46.7017 196.096 47.3287 196.88 48.1126 195.782C47.4855 194.684 47.0152 193.429 46.2313 192.331C42.4688 185.743 42.4688 179.154 46.0746 172.566C47.172 170.37 48.4262 168.331 49.6803 166.291C51.7184 162.684 51.7184 161.899 49.0532 158.919C45.761 155.468 44.9772 151.389 45.6042 146.84C46.5449 142.918 47.4855 139.31 50.4642 135.075ZM162.87 158.919C164.281 160.801 165.379 161.899 166.162 163.154C167.73 165.35 167.887 167.703 166.476 169.899C165.692 170.997 164.908 172.096 164.124 173.194C162.87 174.919 162.87 176.801 163.968 178.527C164.751 179.625 165.535 180.88 166.476 181.821C169.141 184.645 169.455 187.939 168.044 191.39C167.573 192.331 167.26 193.272 167.103 194.371C167.103 194.841 167.417 195.625 167.73 195.625C168.357 195.625 169.141 195.625 169.455 195.155C172.904 190.606 172.904 185.429 169.455 180.88C168.2 179.311 166.476 178.056 166.319 175.547C167.103 174.292 168.044 173.037 168.984 171.782C171.963 166.919 170.239 161.272 165.065 158.605C164.751 158.448 164.124 158.762 162.87 158.919ZM155.972 93.0349C156.129 93.8192 156.129 94.4467 156.286 95.0742C157.226 96.9566 158.167 98.839 159.108 100.721C161.93 106.682 163.027 112.8 161.459 119.388C161.146 120.957 160.989 122.526 160.832 123.938C160.832 124.565 160.989 125.036 161.302 125.977C163.968 122.996 165.065 120.016 165.222 115.31C165.535 107.937 163.184 101.349 159.264 95.231C158.637 94.133 158.01 92.8781 155.972 93.0349ZM54.2267 101.192C55.0106 99.7802 55.4809 99.1527 55.7945 98.3684C57.519 90.3682 61.4383 83.4661 66.1415 77.0346C66.455 76.564 67.0821 76.0934 66.6118 75.309C64.417 75.4659 64.417 75.4659 63.6331 76.564C59.8706 81.4268 56.5783 86.4465 54.6971 92.2506C54.07 93.9761 53.5997 95.8585 53.4429 97.7409C53.1293 98.5252 53.7564 99.4664 54.2267 101.192ZM70.0608 95.231C71.4717 94.2898 72.2556 93.9761 72.7259 93.5055C77.4291 88.0152 81.9755 82.368 86.5219 76.8777C87.149 76.0934 87.6193 75.1522 88.0896 74.211C88.2464 74.0541 88.0896 73.4266 87.9329 73.2698C87.4625 73.1129 86.9922 72.956 86.5219 73.1129C86.0516 73.2698 85.738 73.7404 85.4245 74.0541C81.5052 78.6032 77.4291 83.1523 73.6666 87.7015C72.5691 88.9564 71.6285 90.5251 70.8446 91.9369C70.3743 92.7212 70.3743 93.6624 70.0608 95.231ZM67.7092 169.429C67.2389 169.272 66.9253 169.272 66.455 169.115C63.7899 172.88 62.2221 177.115 62.0654 181.978C62.0654 182.449 62.0654 183.076 62.2221 183.547C62.5357 185.272 63.4763 186.684 65.0441 187.625C66.1415 188.253 67.3956 189.351 68.8066 188.253C68.8066 188.096 68.9634 187.939 68.8066 187.782C68.6498 187.312 68.4931 186.684 68.0227 186.527C64.7305 184.017 64.8873 180.723 65.9847 177.115C66.455 175.233 67.2389 173.507 67.7092 171.625C67.866 170.997 67.7092 170.056 67.7092 169.429ZM142.49 84.4073C142.647 83.4661 142.647 83.1523 142.647 83.1523C142.49 82.6817 142.176 82.2111 141.863 81.8974C137.787 77.8189 133.24 74.5247 128.067 72.0148C127.126 71.5442 126.185 71.2305 125.088 71.0736C124.147 70.9168 123.363 71.2305 123.52 72.4854C126.499 74.3678 129.634 76.0934 132.77 78.1326C135.905 80.015 138.57 82.8386 142.49 84.4073Z" fill="white"/>
<path fill-rule="evenodd" clip-rule="evenodd" d="M104.863 78.1328C105.804 79.074 106.431 79.7015 106.902 80.3289C109.567 83.9369 113.172 86.2899 117.405 87.7017C123.049 89.7409 128.85 91.7802 134.65 93.6626C137.629 94.6038 140.451 96.0156 142.646 98.2117C144.841 100.251 146.565 102.761 147.192 105.584C147.819 108.408 148.446 111.388 148.76 114.212C149.7 121.271 150.484 128.33 151.111 135.389C151.739 141.664 150.641 147.781 148.603 153.899C147.192 157.664 145.154 161.115 142.332 164.096C139.04 167.547 135.277 170.213 130.417 170.998C121.638 172.253 113.016 174.292 104.08 173.821C102.042 173.664 99.8468 173.664 97.9655 173.037C94.2029 171.939 90.4404 170.527 86.6779 168.958C76.8012 164.88 71.0006 157.037 68.649 146.84C67.0813 139.781 66.1406 132.409 65.3568 125.193C64.7297 118.761 66.4542 112.487 68.649 106.369C69.5896 103.702 71.6277 101.663 74.1361 100.251C76.4876 98.8392 78.996 97.4274 81.3476 96.1724C83.2289 95.0744 84.9534 94.1332 86.8346 93.0351C93.4191 88.9566 100.631 85.5055 104.863 78.1328ZM126.655 146.997C125.087 147.781 124.147 148.252 123.049 148.88C121.168 150.134 119.287 151.389 117.405 152.644C113.643 155.311 109.723 155.468 105.647 153.585C102.825 152.331 100.004 150.919 97.1816 149.664C96.3978 149.35 95.4571 149.193 94.6733 149.35C94.3597 149.35 93.8894 150.448 93.8894 150.919C93.8894 151.233 94.3597 151.86 94.83 152.017C98.5926 154.056 102.512 156.095 106.431 157.821C110.037 159.39 113.956 159.076 117.405 157.037C119.914 155.468 122.265 153.742 124.617 152.017C125.401 151.389 126.185 150.605 126.655 149.664C126.968 149.036 126.655 148.095 126.655 146.997ZM118.503 132.722C117.562 134.448 116.935 135.703 116.151 136.644C115.367 137.585 114.427 138.369 113.486 139.154C112.859 139.781 112.545 140.566 113.016 141.507C113.486 142.291 114.897 142.605 115.838 141.821C117.405 140.409 118.973 139.154 120.227 137.428C122.579 133.977 122.422 130.212 118.189 128.33C115.681 127.232 114.583 125.193 114.27 122.526C113.956 120.173 113.8 117.663 113.486 115.31C113.486 114.683 113.016 114.212 112.389 113.114C110.037 116.722 110.978 120.173 110.978 123.467C111.291 128.016 114.27 130.526 118.503 132.722ZM84.0127 123.938C84.1695 125.82 84.1695 126.918 84.3263 127.859C84.483 129.271 85.5804 130.526 86.5211 130.369C87.4617 130.212 88.5591 129.742 89.0294 128.957C90.9107 126.134 90.7539 123.153 89.4998 120.016C88.7159 118.291 86.2075 118.134 85.2669 119.859C84.6398 121.428 84.3263 123.153 84.0127 123.938ZM126.812 121.271C127.125 122.683 127.439 124.095 127.909 125.193C128.536 126.761 130.417 127.075 131.828 125.977C132.299 125.506 132.926 125.036 133.083 124.408C133.71 122.055 133.553 119.702 132.142 117.506C131.201 115.938 128.693 116.094 127.909 117.82C127.282 118.918 127.125 120.173 126.812 121.271ZM137.159 105.271C136.532 101.192 133.866 99.4666 130.574 98.8392C129.477 98.6823 128.066 98.996 128.223 100.722C131.201 102.29 134.18 103.702 137.159 105.271ZM88.2456 104.8C87.7753 104.173 87.6185 103.545 87.1482 103.545C84.3263 102.761 81.1908 104.016 79.4663 106.369C79.3095 106.526 79.3095 107.153 79.4663 107.31C79.7799 107.624 80.407 108.251 80.5637 108.094C83.0721 107.153 85.5805 106.055 88.2456 104.8Z" fill="white"/>
<path fill-rule="evenodd" clip-rule="evenodd" d="M125.401 176.331C125.871 177.115 126.184 177.743 126.498 178.37C127.909 183.39 131.201 186.684 135.748 189.194C138.726 190.92 141.862 192.331 144.997 193.9C146.251 194.528 147.349 195.155 148.603 195.782C147.035 200.175 145.154 202.528 141.548 204.567C133.553 209.116 124.93 211.312 115.837 211.469C113.172 211.469 110.664 211.469 107.999 211.312C106.274 211.155 104.393 210.998 102.982 210.371C97.4951 207.861 92.008 205.038 86.6778 202.371C85.5804 201.9 84.7965 200.802 83.6991 199.861C84.7965 199.234 85.5804 198.606 86.521 198.135C95.1435 194.057 100.787 187.469 102.512 177.429C109.88 176.959 117.719 176.645 125.401 176.331Z" fill="white"/>
<path fill-rule="evenodd" clip-rule="evenodd" d="M177.763 228.409C178.86 237.508 179.488 246.606 178.86 256.018C176.822 256.802 174.941 256.488 173.06 256.488C171.335 256.488 169.611 256.488 168.357 256.488C166.632 255.234 166.789 253.665 166.789 252.41C166.632 246.606 166.632 240.959 166.319 235.155C166.005 225.115 164.594 215.076 162.556 205.193C161.929 201.899 160.048 200.017 156.756 198.762C157.696 203.938 158.794 208.644 159.421 213.35C160.048 218.056 160.675 222.605 160.988 227.311C161.302 232.174 161.302 237.037 161.302 241.9C161.302 246.606 161.615 251.155 161.145 256.175C156.128 256.645 151.582 256.488 146.722 256.332C145.625 248.018 146.095 240.017 145.154 232.174C144.214 224.488 143.116 216.644 140.608 209.429C139.04 208.801 138.1 209.742 136.845 210.527C137.316 215.389 138.883 220.095 139.354 225.115C139.824 230.292 140.294 235.468 140.608 240.645C140.765 245.665 140.608 250.684 140.608 255.39C139.981 255.861 139.667 256.332 139.511 256.332C132.769 256.802 126.028 256.488 119.6 256.645C117.719 255.077 118.189 253.194 118.189 251.469C118.033 241.429 117.719 231.39 117.562 221.194C117.562 219.782 117.562 218.37 117.406 216.958C117.249 214.919 116.622 214.291 114.427 214.448C113.957 214.448 113.486 214.762 113.016 214.919C113.016 221.664 113.016 228.409 113.016 235.155C113.016 241.9 112.702 248.645 112.546 255.077C111.919 255.547 111.762 256.018 111.448 256.018C105.021 256.488 98.5929 256.332 92.6355 256.175C91.0678 254.92 91.3813 253.351 91.3813 252.096C91.0678 238.449 91.6949 224.958 94.2033 211.625C94.36 211.154 94.2033 210.684 94.2033 209.742C93.2626 209.272 92.322 208.801 90.911 208.017C88.4027 216.017 87.7756 223.86 86.8349 231.86C85.8943 239.704 86.5214 247.861 85.7375 255.704C82.7589 256.645 79.9369 256.175 77.2718 256.332C74.7635 256.488 72.0983 256.332 69.4332 256.332C67.8655 252.567 68.8061 248.959 68.8061 245.351C68.8061 241.743 68.9629 237.978 69.2764 234.37C69.59 230.606 70.0603 226.841 70.6874 223.076C71.3145 219.468 72.0983 215.86 72.8822 212.409C73.666 208.801 74.7635 205.35 75.7041 201.899C73.1957 201.585 71.9415 202.056 71.0009 203.625C70.5306 204.566 70.217 205.507 69.9035 206.605C66.141 217.429 64.5732 228.566 63.9461 239.861C63.7894 243.782 63.6326 247.861 63.6326 251.782C63.6326 253.194 63.4758 254.449 63.319 256.018C58.9294 257.116 54.6965 256.959 50.1501 256.802C49.8366 255.704 49.5231 254.763 49.5231 253.822C49.9934 245.978 49.6798 238.135 50.934 230.449C51.2476 228.566 51.5611 226.684 51.2475 224.645C47.3282 223.703 43.5657 222.292 40.2735 220.095C38.549 218.997 36.8245 217.742 35.4135 216.174C32.4348 213.036 30.8671 209.272 31.1807 204.879C31.3374 203.311 31.3374 201.742 31.4942 200.173C30.0832 199.389 28.6723 198.605 27.4181 197.82C20.2066 193.585 17.6982 187.467 18.9524 179.624C19.5795 176.173 20.8337 173.036 22.7149 170.055C23.6556 168.643 24.5962 167.232 25.5368 165.663C27.4181 162.839 28.3587 159.702 27.8884 156.251C27.4181 152.329 26.9478 148.251 26.1639 144.486C25.0665 138.525 25.2233 132.721 27.4181 127.074C29.9265 120.799 32.7484 114.681 37.138 109.348C40.1167 105.74 41.5276 101.661 41.3709 96.7986C41.3709 92.0926 41.6844 87.3866 42.1547 82.8375C42.7818 76.5628 45.2902 71.2294 49.3663 66.3665C52.0314 63.2292 55.0101 60.7194 58.3023 58.5232C64.2597 54.6016 70.8441 51.6211 77.2718 48.9544C81.0344 47.3857 85.1104 47.3857 89.0298 48.0132C93.2626 48.7975 97.3387 48.1701 101.258 46.9151C106.118 45.3465 110.978 44.719 116.151 44.719C120.541 44.719 124.774 45.6602 128.536 47.8563C133.867 51.1505 139.197 54.4447 144.214 58.0526C149.074 61.5037 152.836 66.0528 155.031 71.8569C155.815 74.2099 157.383 76.0922 159.264 77.8178C161.459 79.7002 163.654 81.7394 166.005 83.6218C169.924 87.0729 172.59 91.1514 174.471 96.0143C175.098 97.7398 175.725 99.6222 175.882 101.505C176.352 105.897 176.509 110.132 176.666 114.524C176.822 120.485 175.411 126.289 173.06 131.78C172.276 133.662 171.492 135.701 170.708 137.584C169.768 140.094 170.238 142.447 172.119 144.329C173.53 145.584 174.941 146.839 176.195 148.251C178.704 150.917 181.212 153.584 183.407 156.408C187.64 162.526 187.797 168.957 184.348 175.545C184.191 175.859 184.034 176.173 183.877 176.487C180.899 180.565 181.369 181.35 185.602 184.957C187.64 186.683 189.678 188.252 191.716 189.82C197.83 194.997 198.144 201.742 195.635 207.703C192.656 214.605 188.11 220.095 182.466 224.801C181.212 225.9 179.801 226.998 177.763 228.409ZM129.007 175.859C129.947 179.624 131.672 182.291 134.494 184.173C136.532 185.585 138.57 186.84 140.765 187.781C145.154 189.82 149.544 191.86 153.934 193.899C163.34 198.134 170.552 204.566 173.687 214.762C174.314 216.958 175.098 218.997 175.882 221.194C176.195 221.978 176.666 222.448 177.293 223.39C182.623 218.997 187.013 214.448 190.305 208.801C191.246 207.389 191.873 205.664 192.343 204.095C193.754 200.017 192.97 196.566 189.835 193.585C187.953 191.86 185.758 190.291 183.877 188.565C182.153 187.154 180.428 185.585 179.017 183.859C177.45 181.977 177.293 179.781 178.39 177.585C179.017 176.33 179.801 175.232 180.585 173.977C183.877 168.486 183.877 162.996 180.115 157.82C178.233 155.153 175.882 152.8 173.687 150.29C172.119 148.564 170.395 147.153 168.827 145.584C166.475 142.917 165.692 139.78 167.103 136.329C167.73 134.917 168.2 133.348 168.827 131.937C172.746 123.78 174.001 115.152 173.217 106.054C172.433 97.7398 168.984 91.1514 163.026 85.5042C161.145 83.7787 159.107 82.0532 157.069 80.3276C154.717 78.2884 152.836 75.7785 151.739 72.7981C150.014 68.0921 147.036 64.3273 143.273 61.19C138.57 57.1114 133.24 53.6604 127.909 50.523C124.147 48.3269 120.228 47.3857 115.995 47.5426C111.762 47.5426 107.686 48.0132 103.61 49.1112C98.1226 50.523 92.6355 51.1505 87.1485 50.523C83.8563 50.2093 80.564 50.6799 77.4286 52.0917C72.5686 54.4447 67.7087 56.6408 63.0055 59.4644C59.7133 61.3468 56.7346 63.8567 53.9127 66.5234C48.7392 71.5431 45.7605 77.6609 45.2902 85.0336C45.1334 88.7984 44.8199 92.7201 44.8199 96.4849C44.9766 102.289 43.2521 107.466 39.4896 111.858C35.4135 117.034 32.7484 122.995 30.5536 129.27C28.8291 133.819 28.5155 138.368 29.7697 143.074C30.24 144.8 30.5536 146.525 30.8671 148.094C31.9645 156.251 32.1213 164.094 26.4775 170.839C25.6936 171.781 25.2233 172.879 24.5962 173.977C22.8717 177.271 22.4014 180.879 22.5582 184.644C22.7149 187.467 23.8123 189.977 25.8504 192.016C27.8884 194.213 30.3968 195.781 33.3755 196.409C34.3161 196.566 35.2567 197.036 36.5109 197.35C36.1974 198.605 35.8838 199.546 35.5703 200.487C35.1 201.742 34.6297 203.154 34.3161 204.409C33.689 209.272 36.0406 212.88 39.6464 215.546C42.4683 217.429 45.7605 218.841 48.896 220.252C49.6798 220.566 50.7772 220.252 51.7179 220.252C53.1288 217.115 54.383 214.291 55.794 211.468C57.0481 208.801 58.7726 206.291 61.4378 204.723C65.9842 202.056 70.217 199.232 75.2338 197.507C78.9963 196.252 82.7589 194.683 86.2078 192.958C91.3813 190.448 94.9871 186.212 97.4955 181.193C98.2793 179.624 98.9064 178.055 98.2793 176.8C93.7329 175.232 89.5001 173.977 85.5808 172.251C76.1744 168.016 69.2764 161.271 65.9842 151.231C65.3571 149.192 64.8868 147.153 64.5732 145.113C63.9461 140.878 63.6326 136.486 63.0055 132.25C61.5945 124.25 62.8487 116.407 64.8868 108.564C66.768 101.348 71.3145 96.6417 77.7421 93.6613C82.2885 91.4651 86.6782 88.9553 90.911 86.2886C95.9277 83.1512 100.944 80.0139 103.923 74.5236C104.08 74.3667 104.08 74.2099 104.237 74.053C105.177 72.9549 106.432 73.1118 107.215 74.3667C110.037 79.2296 114.113 82.5238 119.444 84.4062C124.147 86.1317 129.007 87.7004 133.71 89.269C136.062 90.0533 138.413 90.8377 140.451 91.9357C145.625 94.6025 149.23 98.3673 150.485 104.485C151.896 110.76 152.679 117.191 153.463 123.466C154.404 131.937 154.561 140.407 153.15 148.878C152.209 154.682 150.171 159.859 146.252 164.251C141.549 169.898 136.218 173.82 129.007 175.859ZM104.864 78.1315C100.631 85.6611 93.4194 89.1121 86.9917 93.1907C85.2672 94.2887 83.3859 95.2299 81.5047 96.328C79.1531 97.7398 76.6447 98.9947 74.2931 100.407C71.7848 101.818 69.7467 103.701 68.8061 106.524C66.6113 112.642 64.8868 118.917 65.5139 125.348C66.2977 132.564 67.2384 139.78 68.8061 146.996C71.0009 157.192 76.8015 165.035 86.8349 169.114C90.4407 170.683 94.2033 171.938 98.1226 173.192C100.004 173.82 102.199 173.82 104.237 173.977C113.173 174.447 121.795 172.565 130.575 171.153C135.434 170.369 139.197 167.702 142.489 164.251C145.311 161.271 147.349 157.976 148.76 154.055C150.798 148.094 151.896 141.976 151.268 135.545C150.641 128.486 149.701 121.427 148.917 114.368C148.603 111.387 147.976 108.564 147.349 105.74C146.722 102.76 144.998 100.407 142.803 98.3673C140.451 96.1711 137.786 94.7593 134.807 93.8181C129.007 91.9357 123.363 89.8965 117.562 87.8572C113.33 86.2886 109.881 83.9356 107.059 80.4845C106.432 79.5433 105.804 79.0727 104.864 78.1315ZM125.401 176.33C117.719 176.644 109.881 177.114 102.199 177.428C100.631 187.467 94.9871 193.899 86.2078 198.134C85.2672 198.605 84.4834 199.075 83.3859 199.86C84.4834 200.801 85.424 201.899 86.3646 202.37C91.6949 205.193 97.1819 207.86 102.669 210.37C104.237 210.997 105.961 211.311 107.686 211.311C110.194 211.468 112.859 211.625 115.524 211.468C124.617 211.154 133.396 209.115 141.235 204.566C144.684 202.526 146.722 200.173 148.29 195.781C147.036 195.154 145.938 194.526 144.684 193.899C141.549 192.33 138.413 190.918 135.434 189.193C131.045 186.84 127.596 183.389 126.185 178.369C126.185 177.742 125.871 177.114 125.401 176.33Z" fill="#181920"/>
<path fill-rule="evenodd" clip-rule="evenodd" d="M50.4641 135.073C47.3286 139.308 46.5448 142.916 46.0744 146.838C45.4473 151.387 46.2312 155.466 49.5234 158.917C52.1886 161.897 52.1886 162.681 50.1505 166.289C49.0531 168.486 47.6422 170.525 46.5447 172.564C42.939 179.152 42.939 185.741 46.7015 192.329C47.3286 193.427 47.9557 194.682 48.5828 195.78C47.6422 196.878 47.0151 196.094 46.7015 195.78C41.6848 191.388 39.8035 185.898 40.7442 179.466C41.2145 175.388 42.939 171.78 44.977 168.329C46.0744 166.603 47.0151 164.721 48.2692 162.838C47.4854 161.74 46.7015 160.799 46.0744 159.858C43.5661 156.721 42.6254 153.113 42.7822 149.191C42.939 145.426 43.8796 141.975 45.4473 138.681C46.0744 137.426 47.0151 136.328 47.9557 135.387C47.9557 135.073 48.7396 135.23 50.4641 135.073Z" fill="#181920"/>
<path fill-rule="evenodd" clip-rule="evenodd" d="M162.869 158.915C164.123 158.758 164.75 158.445 165.064 158.602C170.237 161.268 171.805 166.916 168.983 171.778C168.199 173.033 167.259 174.288 166.318 175.543C166.318 177.896 168.199 179.151 169.454 180.877C172.746 185.583 172.903 190.602 169.454 195.151C169.14 195.622 168.199 195.622 167.729 195.622C167.416 195.622 167.102 194.681 167.102 194.367C167.259 193.426 167.572 192.328 168.043 191.387C169.61 187.779 169.14 184.641 166.475 181.818C165.534 180.877 164.75 179.622 163.967 178.524C162.712 176.798 162.869 174.916 164.123 173.19C164.907 172.092 165.848 170.994 166.475 169.896C168.043 167.543 167.729 165.347 166.161 163.151C165.221 161.896 164.28 160.641 162.869 158.915Z" fill="#181920"/>
<path fill-rule="evenodd" clip-rule="evenodd" d="M155.972 93.0317C158.01 92.8748 158.637 94.1297 159.264 95.2278C163.183 101.346 165.535 107.934 165.222 115.307C164.908 120.013 163.967 122.993 161.302 125.974C161.145 125.189 160.832 124.562 160.832 123.934C160.989 122.366 161.145 120.797 161.459 119.385C162.87 112.797 161.929 106.679 159.107 100.718C158.167 98.8357 157.226 96.9533 156.285 95.0709C156.129 94.4435 156.129 93.816 155.972 93.0317Z" fill="#181920"/>
<path fill-rule="evenodd" clip-rule="evenodd" d="M54.2255 101.191C53.7552 99.6224 53.1281 98.5243 53.1281 97.74C53.2849 95.8576 53.7552 93.9752 54.3823 92.2497C56.4203 86.4456 59.5558 81.269 63.3183 76.563C64.1022 75.465 64.259 75.465 66.297 75.3081C66.9241 76.0924 66.297 76.563 65.8267 77.0336C61.1235 83.4652 57.2042 90.5241 55.4797 98.3674C55.6365 99.1518 55.0094 99.7792 54.2255 101.191Z" fill="#181920"/>
<path fill-rule="evenodd" clip-rule="evenodd" d="M70.0604 95.2294C70.374 93.6607 70.374 92.7195 70.6875 92.0921C71.4714 90.5234 72.412 89.1116 73.5094 87.8567C77.4287 83.3075 81.3481 78.7584 85.2674 74.2093C85.5809 73.8956 86.0512 73.425 86.3648 73.2681C86.6783 73.1112 87.3054 73.2681 87.7757 73.425C87.9325 73.425 88.0893 74.0524 87.9325 74.3662C87.4622 75.3074 86.9919 76.2486 86.3648 77.0329C81.8184 82.6801 77.1152 88.1704 72.5688 93.6607C72.2552 94.1313 71.4714 94.445 70.0604 95.2294Z" fill="#181920"/>
<path fill-rule="evenodd" clip-rule="evenodd" d="M67.7079 169.43C67.7079 170.215 67.8647 170.999 67.7079 171.783C67.2376 173.666 66.6105 175.391 65.9834 177.274C64.886 180.725 64.7292 184.019 68.0214 186.686C68.335 186.999 68.4918 187.47 68.8053 187.941C68.8053 188.097 68.8053 188.254 68.8053 188.411C67.3944 189.352 66.1402 188.411 65.0428 187.784C63.475 186.842 62.5344 185.431 62.2209 183.705C62.0641 183.235 62.0641 182.607 62.0641 182.137C62.0641 177.431 63.7886 173.195 66.4537 169.273C66.7673 169.117 67.2376 169.273 67.7079 169.43Z" fill="#181920"/>
<path fill-rule="evenodd" clip-rule="evenodd" d="M142.489 84.4052C138.57 82.8366 135.904 80.013 132.769 77.9737C129.79 76.0913 126.655 74.2089 123.519 72.3265C123.363 71.0716 124.146 70.7578 125.087 70.9147C126.028 71.0716 127.125 71.3853 128.066 71.8559C133.239 74.3658 137.786 77.8168 141.862 81.7385C142.175 82.0522 142.332 82.5228 142.646 82.9934C142.646 83.3071 142.646 83.464 142.489 84.4052Z" fill="#181920"/>
<path fill-rule="evenodd" clip-rule="evenodd" d="M126.655 146.995C126.655 148.25 126.969 149.034 126.812 149.662C126.341 150.603 125.714 151.387 124.774 152.015C122.422 153.74 120.071 155.623 117.562 157.034C114.113 159.074 110.194 159.387 106.588 157.819C102.669 156.093 98.9062 154.054 94.9869 152.015C94.5166 151.858 94.0463 151.23 94.0463 150.917C94.0463 150.289 94.3598 149.348 94.8301 149.348C95.614 149.191 96.5546 149.348 97.3385 149.662C100.16 150.917 102.982 152.171 105.804 153.583C109.88 155.466 113.8 155.309 117.562 152.642C119.443 151.387 121.325 150.132 123.206 148.877C123.99 148.25 125.087 147.779 126.655 146.995Z" fill="#181920"/>
<path fill-rule="evenodd" clip-rule="evenodd" d="M118.503 132.719C114.271 130.523 111.449 128.17 111.292 123.778C111.135 120.484 110.195 117.032 112.703 113.425C113.33 114.523 113.644 114.993 113.8 115.621C114.114 117.974 114.271 120.484 114.584 122.837C114.898 125.503 115.995 127.386 118.503 128.641C122.736 130.523 122.893 134.288 120.542 137.739C119.444 139.464 117.72 140.719 116.152 142.131C115.211 142.915 113.8 142.602 113.33 141.817C112.86 140.876 113.173 140.092 113.8 139.464C114.584 138.523 115.682 137.896 116.465 136.955C116.936 135.543 117.563 134.288 118.503 132.719Z" fill="#181920"/>
<path fill-rule="evenodd" clip-rule="evenodd" d="M84.0128 123.934C84.3264 122.993 84.6399 121.267 85.267 119.855C86.2076 118.13 88.716 118.287 89.4999 120.012C90.9108 122.993 90.9108 126.13 89.0295 128.954C88.5592 129.738 87.4618 130.209 86.5212 130.365C85.5805 130.522 84.4831 129.424 84.3264 127.856C84.1696 126.914 84.1696 125.816 84.0128 123.934Z" fill="#181920"/>
<path fill-rule="evenodd" clip-rule="evenodd" d="M126.812 121.27C127.125 120.172 127.282 118.917 127.752 117.819C128.536 116.093 131.045 116.093 131.985 117.505C133.396 119.701 133.553 122.054 132.926 124.407C132.769 125.035 132.142 125.505 131.672 125.976C130.417 127.074 128.379 126.76 127.752 125.192C127.282 124.094 127.125 122.682 126.812 121.27Z" fill="#181920"/>
<path fill-rule="evenodd" clip-rule="evenodd" d="M137.159 105.27C134.18 103.701 131.201 102.289 128.223 100.721C128.066 98.995 129.477 98.6813 130.574 98.8382C133.866 99.4656 136.532 101.191 137.159 105.27Z" fill="#181920"/>
<path fill-rule="evenodd" clip-rule="evenodd" d="M88.2455 104.796C85.5803 105.895 83.072 106.993 80.5636 108.091C80.2501 108.248 79.7798 107.62 79.4662 107.306C79.3094 107.149 79.3094 106.679 79.4662 106.365C81.0339 104.012 84.3262 102.757 87.1481 103.542C87.4616 103.698 87.7752 104.326 88.2455 104.796Z" fill="#181920"/>
</g>
</g>
<defs>
<clipPath id="clip0_1119_6898">
<rect y="0.705566" width="216" height="256.569" rx="35.0863" fill="white"/>
</clipPath>
<clipPath id="clip1_1119_6898">
<rect width="178.721" height="212.711" fill="white" transform="translate(18.6396 44.5637)"/>
</clipPath>
</defs>
</svg>
