<svg width="134" height="113" viewBox="0 0 134 113" fill="none" xmlns="http://www.w3.org/2000/svg">
<g clip-path="url(#clip0_1119_7189)">
<path d="M76.2208 92.6355C77.5757 90.3887 78.8893 91.1245 79.9693 91.8901C82.9879 93.9495 86.149 95.9375 89.116 98.1098C91.0941 99.558 92.969 101.232 95.0776 102.876C95.2682 101.735 95.4864 101.016 95.6135 100.256C96.1667 95.1876 96.72 90.1194 97.1822 85.0096C97.8645 76.0439 96.2784 67.9532 93.2275 60.4221C93.0181 59.9172 92.7176 59.3708 92.4172 58.8245C92.2867 58.6285 92.1562 58.4325 91.9347 58.1951C91.6376 58.6052 91.301 58.8609 91.0555 59.1582C86.5837 64.6213 81.3926 68.5284 75.6521 71.2299C73.6567 72.2294 71.6339 72.8072 69.6472 72.5829C67.245 72.3054 65.449 70.9402 63.859 69.1234C62.4511 67.3896 62.3654 65.1676 63.2653 62.7133C64.7956 58.6366 67.1723 55.3553 70.447 52.7566C71.9873 51.5495 73.5671 50.4968 75.238 49.4855C79.4227 47.3021 83.3566 47.5963 87.1514 48.9184C88.386 49.3453 89.4265 49.9565 90.7916 50.5793C91.1007 49.9018 91.3583 49.3372 91.5249 48.7311C92.5004 45.6291 92.7754 42.6167 92.0252 39.6823C91.8003 38.4883 91.1599 37.2412 90.3529 36.6001C86.0569 33.0029 81.4123 29.9287 75.5432 29.2973C74.8031 29.2324 74.0631 29.1676 73.2715 29.2157C73.558 33.1664 72.1033 36.5955 70.0117 39.7339C65.8404 45.7435 60.5188 49.4546 54.2804 50.8375C49.8708 51.8269 46.4761 49.8688 45.0615 46.2219C44.4331 44.7074 44.3233 43.0202 44.9141 41.2434C45.9412 38.0285 47.4627 35.1756 49.9218 33.1598C52.1868 31.3282 54.5823 29.6927 57.0688 28.0987C59.6978 26.4332 62.5122 25.8074 65.2751 25.2944C65.8847 25.1633 66.4427 25.145 67.1948 24.9425C65.8625 22.5611 64.118 21.083 61.9339 20.0864C57.0712 17.7313 51.8632 16.8558 46.3735 17.0796C38.5091 17.4477 30.6514 19.7289 22.9121 22.4734C22.7696 22.5448 21.1623 23.1757 20.6765 21.5897C20.1907 20.0038 23.6267 18.9794 24.8579 18.4498C31.8571 15.6405 38.9747 13.2945 46.2416 12.7902C52.8594 12.2626 59.029 13.4404 64.6077 16.395C67.5593 17.8782 69.8137 20.4075 71.577 23.5313C72.0475 24.428 72.5025 24.6357 73.4246 24.7835C77.3705 24.8104 81.0983 25.5562 84.4535 27.3599C87.5356 29.039 90.6177 30.7182 93.1967 33.2591C97.2471 37.1536 98.2838 44.0386 95.8142 50.4153C95.39 51.586 94.8748 52.7152 94.399 53.9988C98.3017 60.1451 100.3 67.3324 101.431 75.2155C102.562 83.0986 101.358 91.2805 100.478 99.474C101.836 98.1838 102.973 96.6561 104.019 95.0868C106.071 91.794 108.266 88.4297 110.943 85.6948C111.913 84.7732 112.714 83.5012 114.194 83.6309C115.856 83.8435 116.342 85.4295 115.205 86.9572C112.674 90.5772 110.051 94.1556 107.429 97.7341C106.047 99.5591 104.704 101.538 103.23 103.322C102.003 104.808 100.684 106.253 99.4559 107.739C98.1765 109.338 96.8269 109.404 95.5133 108.669C93.7963 107.612 91.9367 106.627 90.2712 105.458C87.1616 103.357 84.0125 101.102 81.006 98.7752C79.8865 97.8551 74.8658 94.8822 76.2208 92.6355ZM68.9889 29.4446C63.3173 29.5854 58.0799 31.425 53.3833 35.6941C51.1578 37.6801 49.8818 40.2357 49.4249 43.165C49.1706 44.6861 49.4986 45.6543 50.7331 46.0812C51.7857 46.425 52.9413 46.543 54.109 46.3936C58.3246 45.5885 62.1848 43.3934 65.3377 39.3749C67.3778 36.3494 68.6779 33.259 68.9889 29.4446ZM89.0673 54.8404C87.8843 54.3006 86.9742 53.8854 86.0642 53.4702C80.1094 50.6168 73.0741 54.2282 69.0213 60.701C68.221 61.973 67.7848 63.4111 67.4395 64.8907C66.9518 66.4417 67.3432 67.0296 68.4748 67.6823C69.8278 68.5725 71.411 68.4763 72.9272 67.8038C78.3192 65.6254 83.2011 62.3958 87.2333 57.4142C87.8669 56.7484 88.3701 55.8865 89.0673 54.8404Z" fill="black"/>
</g>
<defs>
<clipPath id="clip0_1119_7189">
<rect width="71.2435" height="113.234" fill="white" transform="translate(0.504395 65.3193) rotate(-65.4745)"/>
</clipPath>
</defs>
</svg>
