<svg width="420" height="45" viewBox="0 0 420 45" fill="none" xmlns="http://www.w3.org/2000/svg">
<path d="M204.106 0.584587C177.886 -1.66318 126.812 2.70796 78.3867 11.3431L66.9558 13.3843C34.824 19.1314 17.4665 23.138 5.17376 27.6465C0.376022 29.4064 -0.0432768 29.6411 0.00308792 30.5411C0.0736429 31.8543 0.837653 31.7537 9.67416 29.269C18.8181 26.6978 26.9601 25.0288 49.2313 21.1606C123.667 8.23218 158.243 4.45273 196.618 5.05199C204.138 5.16882 216.02 6.88655 215.94 7.84493C215.832 9.12458 208.003 12.507 189.986 19.0578C167.819 27.1164 154.275 32.6158 152.994 34.0761C150.803 36.5726 152.79 38.8431 157.471 39.1968C160.146 39.3991 160.76 39.3667 173.187 38.3531C208.869 35.4477 231.591 34.5801 262.253 34.9533C308.947 35.5223 338.574 37.3655 394.078 43.1569C414.022 45.2381 415.057 45.2987 418.83 44.5977L418.896 44.5858C420.107 44.3663 420.438 42.6117 419.298 42.0601C416.364 40.6431 414.367 40.325 397.076 38.5327C339.111 32.5228 308.508 30.5714 263.97 30.05C240.546 29.7753 230.086 29.9245 212.941 30.7791C201.22 31.3632 170.234 33.4768 165.875 33.9885C163.497 34.2686 174.072 30.0673 192.589 23.377C216.012 14.9127 220.745 12.3989 221.117 8.22785C221.538 3.52464 217.56 1.73768 204.106 0.584587Z" fill="#DAE029"/>
</svg>
