<svg width="157" height="236" viewBox="0 0 157 236" fill="none" xmlns="http://www.w3.org/2000/svg">
<g clip-path="url(#clip0_1280_6551)">
<path d="M91.687 145.339C94.3243 141.346 96.5409 140.406 97.1071 140.571C98.6033 141.026 98.7608 147.219 99.0569 147.858C99.2439 148.261 103.346 150.201 103.765 150.797C104.572 151.921 103.301 153.184 102.091 153.874C100.88 154.564 99.8672 154.755 98.9979 155.873C97.7944 157.413 98.3069 162.172 96.854 163.175C95.4011 164.178 93.8808 161.338 93.1916 160.424C92.6288 159.694 91.9015 158.653 91.053 158.363C89.356 157.783 85.9671 160.727 84.1108 159.187C82.9662 158.258 86.7586 153.104 86.7413 151.57C86.7032 149.464 84.343 147.497 84.8625 145.977C85.4444 144.195 91.687 145.339 91.687 145.339Z" fill="black"/>
<path d="M92.2065 131.799C84.096 132.26 76.5694 137.856 74.2824 146.111C72.0147 154.408 75.6009 163.176 81.9183 168.255C84.9829 170.728 88.884 172.513 92.8894 172.526C97.2259 172.549 100.572 169.799 103.924 167.226C110.242 162.33 117.547 152.591 113.199 144.293C111.137 140.355 107.232 137.213 103.644 134.805C101.691 133.477 99.4746 132.337 97.154 131.892C95.4938 131.567 93.916 132.175 92.3262 131.84C91.7364 131.708 91.4173 132.642 92.007 132.774C93.2271 133.017 93.8847 132.755 95.1707 132.708C97.0397 132.617 98.9035 133.324 100.564 134.135C103.976 135.787 107.227 138.497 109.843 141.303C112.46 144.109 114.071 147.51 113.372 151.512C112.624 155.949 110.022 160.238 106.909 163.38C105.435 164.857 103.794 166.139 102.123 167.41C100.423 168.671 98.7498 170.045 96.807 170.841C93.0729 172.38 88.8268 171.311 85.449 169.462C78.8131 165.803 74.0601 158.2 74.5552 150.201C75.14 140.669 83.0421 133.29 92.1074 132.774C92.7205 132.74 92.8195 131.766 92.2065 131.799Z" fill="black"/>
<path d="M102.757 146.493C103.475 145.661 104.284 144.86 105.071 144.121C105.521 143.684 104.933 142.962 104.453 143.388C103.625 144.148 102.857 144.929 102.138 145.76C101.748 146.218 102.356 146.982 102.757 146.493Z" fill="black"/>
<path d="M90.3359 141.379C89.7156 140.75 89.1251 140.131 88.5047 139.502C88.0812 139.079 87.3258 139.725 87.7793 140.158C88.3997 140.787 88.9902 141.406 89.6105 142.035C90.064 142.468 90.7894 141.812 90.3359 141.379Z" fill="black"/>
<path d="M83.8451 151.569C82.8318 151.014 81.7899 151.423 80.7406 151.169C80.1509 151.037 79.8317 151.97 80.4215 152.102C81.3211 152.305 82.4528 151.928 83.2972 152.39C83.8338 152.678 84.3817 151.857 83.8451 151.569Z" fill="black"/>
<path d="M89.8931 161.249C89.6445 162.172 89.4856 163.125 89.3865 164.1C89.334 164.742 90.2868 164.79 90.3393 164.147C90.4065 163.266 90.5634 162.416 90.7907 161.555C90.9629 160.954 90.0653 160.647 89.8931 161.249Z" fill="black"/>
<path d="M101.392 157.914C102.186 158.916 103.114 159.72 104.155 160.388C104.681 160.707 105.229 159.886 104.703 159.567C103.711 158.95 102.843 158.167 102.117 157.259C101.745 156.784 100.99 157.429 101.392 157.914Z" fill="black"/>
</g>
<g clip-path="url(#clip1_1280_6551)">
<path d="M37.9506 152.116C39.9859 149.046 41.7007 148.327 42.1395 148.455C43.2989 148.808 43.4318 153.576 43.6622 154.068C43.8078 154.379 46.988 155.879 47.3135 156.339C47.9404 157.206 46.9583 158.176 46.0222 158.705C45.0861 159.234 44.3019 159.379 43.6307 160.238C42.7014 161.422 43.1067 165.086 41.9834 165.856C40.8601 166.625 39.6777 164.437 39.1424 163.731C38.7053 163.168 38.1402 162.366 37.4826 162.141C36.1675 161.692 33.5483 163.952 32.1081 162.763C31.2201 162.046 34.1478 158.085 34.1317 156.904C34.0985 155.283 32.2673 153.764 32.6669 152.595C33.1143 151.225 37.9506 152.116 37.9506 152.116Z" fill="black"/>
<path d="M38.3288 141.694C32.0489 142.034 26.2302 146.329 24.4737 152.68C22.7323 159.063 25.5249 165.82 30.426 169.741C32.8036 171.65 35.8278 173.031 38.9295 173.048C42.2878 173.073 44.8738 170.962 47.4653 168.987C52.3497 165.229 57.9894 157.745 54.6076 151.349C53.0033 148.314 49.9737 145.888 47.191 144.028C45.6769 143.002 43.9581 142.121 42.1603 141.774C40.874 141.521 39.6533 141.986 38.4215 141.726C37.9646 141.623 37.7191 142.341 38.1761 142.444C39.1213 142.633 39.6301 142.433 40.6258 142.399C42.0731 142.332 43.5176 142.879 44.8053 143.507C47.4502 144.785 49.9724 146.877 52.0036 149.042C54.0347 151.206 55.2884 153.827 54.7539 156.907C54.1826 160.321 52.175 163.618 49.7704 166.032C48.6315 167.167 47.363 168.15 46.0713 169.126C44.7565 170.093 43.4634 171.149 41.9603 171.758C39.0714 172.936 35.7813 172.106 33.1623 170.676C28.0171 167.848 24.3229 161.986 24.6922 155.829C25.1282 148.492 31.2346 142.825 38.2538 142.444C38.7285 142.419 38.8035 141.669 38.3288 141.694Z" fill="black"/>
<path d="M46.5241 153.024C47.0792 152.385 47.7039 151.77 48.3122 151.202C48.66 150.867 48.203 150.309 47.8321 150.637C47.1924 151.221 46.5991 151.82 46.0439 152.459C45.7425 152.811 46.2145 153.4 46.5241 153.024Z" fill="black"/>
<path d="M36.8966 149.065C36.4151 148.58 35.9567 148.102 35.4752 147.617C35.1465 147.291 34.5627 147.786 34.9146 148.121C35.3962 148.606 35.8545 149.083 36.336 149.569C36.688 149.903 37.2485 149.4 36.8966 149.065Z" fill="black"/>
<path d="M31.8887 156.899C31.103 156.47 30.2969 156.782 29.4839 156.585C29.027 156.482 28.7815 157.2 29.2384 157.303C29.9355 157.461 30.8111 157.172 31.4659 157.529C31.8819 157.752 32.3047 157.121 31.8887 156.899Z" fill="black"/>
<path d="M36.589 164.361C36.3981 165.071 36.2768 165.805 36.2018 166.555C36.1623 167.049 36.9002 167.087 36.9397 166.593C36.9902 165.915 37.1102 165.261 37.2847 164.599C37.417 164.136 36.7213 163.898 36.589 164.361Z" fill="black"/>
<path d="M45.4885 161.814C46.1051 162.587 46.8253 163.207 47.6328 163.724C48.0407 163.97 48.4635 163.339 48.0557 163.093C47.2863 162.616 46.6125 162.011 46.0491 161.311C45.7599 160.945 45.1761 161.44 45.4885 161.814Z" fill="black"/>
</g>
<g clip-path="url(#clip2_1280_6551)">
<path d="M42.0858 206.591C43.3853 204.651 44.4869 204.2 44.7699 204.283C45.5177 204.511 45.6206 207.537 45.7707 207.85C45.8656 208.048 47.9188 209.012 48.1301 209.305C48.5369 209.857 47.908 210.469 47.3071 210.801C46.7063 211.134 46.2019 211.223 45.7727 211.766C45.1787 212.514 45.4529 214.84 44.7323 215.325C44.0118 215.809 43.2425 214.416 42.8953 213.966C42.6118 213.607 42.245 213.096 41.8208 212.951C40.9722 212.661 39.2939 214.086 38.3622 213.326C37.7878 212.868 39.6587 210.365 39.644 209.616C39.6168 208.586 38.4321 207.616 38.6852 206.876C38.9684 206.008 42.0858 206.591 42.0858 206.591Z" fill="black"/>
<path d="M42.2917 199.979C38.2491 200.172 34.5179 202.876 33.4098 206.9C32.3116 210.944 34.1342 215.242 37.3044 217.748C38.8423 218.968 40.7946 219.855 42.792 219.877C44.9545 219.905 46.6121 218.575 48.2737 217.331C51.4052 214.964 55.0097 210.236 52.8089 206.164C51.7649 204.233 49.8053 202.682 48.0067 201.492C47.028 200.836 45.9181 200.27 44.7592 200.043C43.93 199.878 43.1456 200.169 42.3515 199.999C42.0569 199.932 41.9014 200.387 42.196 200.454C42.8054 200.578 43.1323 200.452 43.7733 200.434C44.705 200.397 45.6372 200.75 46.4686 201.152C48.1763 201.973 49.808 203.31 51.1238 204.691C52.4395 206.072 53.2563 207.74 52.9233 209.692C52.5677 211.856 51.2869 213.942 49.7473 215.464C49.018 216.18 48.2048 216.8 47.3766 217.414C46.5334 218.024 45.7046 218.689 44.7389 219.07C42.8829 219.807 40.7614 219.268 39.0698 218.351C35.7464 216.538 33.3464 212.805 33.5619 208.899C33.8161 204.245 37.7276 200.671 42.2461 200.454C42.5517 200.44 42.5972 199.965 42.2917 199.979Z" fill="black"/>
<path d="M47.6096 207.198C47.9648 206.795 48.3648 206.407 48.7545 206.049C48.9772 205.837 48.6809 205.482 48.4432 205.688C48.0334 206.056 47.6535 206.435 47.2984 206.838C47.1056 207.06 47.4116 207.436 47.6096 207.198Z" fill="black"/>
<path d="M41.3962 204.651C41.0844 204.341 40.7875 204.037 40.4757 203.727C40.2628 203.519 39.8887 203.831 40.1166 204.045C40.4284 204.354 40.7253 204.659 41.0371 204.969C41.2649 205.182 41.6241 204.865 41.3962 204.651Z" fill="black"/>
<path d="M38.2 209.604C37.6925 209.329 37.1746 209.524 36.6504 209.396C36.3558 209.329 36.2003 209.784 36.4949 209.851C36.9443 209.954 37.5072 209.774 37.9301 210.003C38.1988 210.145 38.4687 209.747 38.2 209.604Z" fill="black"/>
<path d="M41.2537 214.356C41.1333 214.806 41.0578 215.272 41.0123 215.747C40.9886 216.061 41.4639 216.088 41.4876 215.774C41.5176 215.344 41.5925 214.929 41.7025 214.51C41.786 214.217 41.3372 214.063 41.2537 214.356Z" fill="black"/>
<path d="M46.9743 212.773C47.3741 213.265 47.8401 213.661 48.362 213.992C48.6255 214.15 48.8955 213.751 48.632 213.593C48.1348 213.288 47.6987 212.902 47.3334 212.455C47.1459 212.222 46.7718 212.534 46.9743 212.773Z" fill="black"/>
</g>
<g clip-path="url(#clip3_1280_6551)">
<path d="M75.6766 9.36949C76.9761 7.4291 78.0777 6.97862 78.3607 7.06156C79.1085 7.2896 79.2114 10.3158 79.3615 10.629C79.4564 10.8268 81.5096 11.7905 81.7209 12.0832C82.1277 12.6358 81.4988 13.2478 80.898 13.58C80.2971 13.9122 79.7927 14.0017 79.3636 14.5442C78.7695 15.2922 79.0437 17.6188 78.3232 18.1031C77.6026 18.5873 76.8333 17.1941 76.4861 16.7446C76.2026 16.3859 75.8358 15.8746 75.4116 15.7296C74.5631 15.4396 72.8847 16.8645 71.953 16.105C71.3786 15.6468 73.2495 13.1436 73.2348 12.3943C73.2076 11.365 72.0229 10.395 72.276 9.65447C72.5592 8.78641 75.6766 9.36949 75.6766 9.36949Z" fill="black"/>
<path d="M75.8825 2.7574C71.8399 2.95051 68.1087 5.65459 67.0007 9.6786C65.9024 13.7229 67.7251 18.0204 70.8952 20.5264C72.4331 21.7463 74.3854 22.6337 76.3828 22.656C78.5454 22.6839 80.2029 21.3539 81.8645 20.1099C84.9961 17.7428 88.6005 13.0141 86.3998 8.94295C85.3557 7.0113 83.3961 5.46096 81.5975 4.27048C80.6188 3.61423 79.5089 3.0486 78.35 2.82183C77.5208 2.65696 76.7364 2.94767 75.9423 2.77786C75.6477 2.71103 75.4922 3.1659 75.7869 3.23273C76.3962 3.35634 76.7231 3.23099 77.3642 3.21303C78.2958 3.17586 79.228 3.52833 80.0594 3.93104C81.7672 4.7518 83.3988 6.08844 84.7146 7.4695C86.0303 8.85056 86.8471 10.5183 86.5141 12.4703C86.1586 14.6349 84.8777 16.7202 83.3381 18.2429C82.6088 18.9589 81.7956 19.5784 80.9674 20.1928C80.1242 20.8021 79.2954 21.4671 78.3297 21.8482C76.4738 22.5855 74.3522 22.0466 72.6606 21.1298C69.3372 19.3165 66.9372 15.5837 67.1527 11.6779C67.4069 7.02342 71.3185 3.44962 75.8369 3.2329C76.1425 3.21881 76.1881 2.74331 75.8825 2.7574Z" fill="black"/>
<path d="M81.2005 9.97703C81.5556 9.57347 81.9556 9.18525 82.3453 8.82736C82.568 8.61562 82.2717 8.26036 82.034 8.46698C81.6242 8.83492 81.2444 9.21309 80.8892 9.61664C80.6964 9.83861 81.0025 10.2142 81.2005 9.97703Z" fill="black"/>
<path d="M74.987 7.42982C74.6752 7.12004 74.3784 6.81537 74.0665 6.50559C73.8537 6.29736 73.4796 6.60977 73.7074 6.8231C74.0192 7.13289 74.3161 7.43755 74.6279 7.74734C74.8557 7.96068 75.2149 7.64316 74.987 7.42982Z" fill="black"/>
<path d="M71.7909 12.3826C71.2834 12.1075 70.7654 12.3031 70.2412 12.1747C69.9466 12.1079 69.7911 12.5627 70.0857 12.6296C70.5351 12.7324 71.098 12.5522 71.5209 12.7814C71.7896 12.924 72.0596 12.5252 71.7909 12.3826Z" fill="black"/>
<path d="M74.8445 17.1349C74.7241 17.5848 74.6486 18.0501 74.6031 18.5256C74.5794 18.8392 75.0547 18.8662 75.0784 18.5526C75.1084 18.1226 75.1833 17.7079 75.2933 17.2883C75.3768 16.9951 74.928 16.8417 74.8445 17.1349Z" fill="black"/>
<path d="M80.5651 15.5512C80.9649 16.0435 81.4309 16.4399 81.9528 16.7706C82.2163 16.9284 82.4863 16.5296 82.2228 16.3718C81.7257 16.0665 81.2895 15.6803 80.9242 15.2337C80.7367 15.0003 80.3626 15.3127 80.5651 15.5512Z" fill="black"/>
</g>
<g clip-path="url(#clip4_1280_6551)">
<path d="M70.3174 63.9921C73.6906 58.8699 76.5203 57.6608 77.2424 57.8713C79.1501 58.4508 79.3376 66.386 79.714 67.2038C79.9517 67.7203 85.1809 70.1968 85.7142 70.9594C86.7412 72.3986 85.117 74.0198 83.5713 74.9061C82.0256 75.7924 80.7329 76.0397 79.6214 77.4735C78.0828 79.4504 78.7263 85.5464 76.8707 86.8346C75.015 88.1228 73.0816 84.4876 72.2043 83.3173C71.488 82.3833 70.5624 81.0513 69.4805 80.6815C67.3169 79.942 62.9872 83.7216 60.6223 81.7526C59.1641 80.565 64.0133 73.9524 63.9946 71.9873C63.9506 69.2881 60.9438 66.7732 61.6098 64.8245C62.356 62.5405 70.3174 63.9921 70.3174 63.9921Z" fill="black"/>
<path d="M71.0092 46.643C60.6614 47.2504 51.0474 54.4365 48.112 65.0193C45.2011 75.6551 49.7571 86.8822 57.8055 93.3763C61.7099 96.5378 66.6828 98.8168 71.7926 98.8254C77.3248 98.8447 81.599 95.3146 85.8812 92.0101C93.9525 85.7227 103.293 73.2293 97.7636 62.6054C95.1407 57.5646 90.1656 53.5469 85.5935 50.4691C83.1059 48.7722 80.2803 47.3162 77.3208 46.7504C75.2034 46.3386 73.1893 47.1207 71.1618 46.6951C70.4097 46.5272 70.0006 47.7242 70.7527 47.8921C72.3087 48.2012 73.1482 47.8642 74.7888 47.8011C77.1734 47.6803 79.5495 48.5816 81.6667 49.6172C86.0156 51.7274 90.1569 55.1928 93.4888 58.7825C96.8207 62.3722 98.8688 66.7263 97.968 71.855C97.0044 77.5415 93.6753 83.0434 89.698 87.076C87.8143 88.9722 85.7181 90.6175 83.5838 92.2498C81.4113 93.869 79.2742 95.6341 76.794 96.6579C72.027 98.6382 66.6124 97.2777 62.3072 94.9149C53.8494 90.2417 47.8022 80.5101 48.4511 70.2598C49.2177 58.0445 59.3147 48.5726 70.8808 47.8913C71.6629 47.8467 71.7914 46.5984 71.0092 46.643Z" fill="black"/>
<path d="M84.4358 65.4475C85.3545 64.3801 86.3877 63.3518 87.3936 62.4033C87.9687 61.8424 87.2196 60.9179 86.6062 61.4658C85.5486 62.4411 84.5672 63.4426 83.6485 64.51C83.1496 65.097 83.9233 66.0745 84.4358 65.4475Z" fill="black"/>
<path d="M68.6019 58.9214C67.8119 58.1166 67.0599 57.3248 66.2698 56.52C65.7304 55.9792 64.7654 56.808 65.343 57.3619C66.1331 58.1667 66.885 58.9584 67.6751 59.7632C68.2527 60.3171 69.1795 59.4753 68.6019 58.9214Z" fill="black"/>
<path d="M60.2994 71.9925C59.0078 71.2837 57.6778 71.8094 56.3398 71.4858C55.5877 71.3179 55.1785 72.5149 55.9306 72.6828C57.0779 72.9413 58.5224 72.4546 59.5987 73.0453C60.2826 73.4128 60.9833 72.3599 60.2994 71.9925Z" fill="black"/>
<path d="M67.9951 84.3816C67.6759 85.5648 67.4711 86.7872 67.3427 88.0356C67.2743 88.8589 68.4897 88.9178 68.5581 88.0945C68.6457 86.9658 68.8476 85.8762 69.1396 84.7728C69.3605 84.0017 68.216 83.6105 67.9951 84.3816Z" fill="black"/>
<path d="M82.6718 80.0844C83.6825 81.3657 84.865 82.3937 86.1919 83.2483C86.8622 83.6556 87.5629 82.6028 86.8926 82.1955C85.6283 81.4069 84.5222 80.4049 83.5987 79.2426C83.1247 78.635 82.1597 79.4637 82.6718 80.0844Z" fill="black"/>
</g>
<defs>
<clipPath id="clip0_1280_6551">
<rect width="40" height="40.751" fill="white" transform="translate(81.0391 126.245) rotate(18.87)"/>
</clipPath>
<clipPath id="clip1_1280_6551">
<rect width="31" height="31.3469" fill="white" transform="translate(29.6709 137.398) rotate(18.87)"/>
</clipPath>
<clipPath id="clip2_1280_6551">
<rect width="20" height="19.8531" fill="white" transform="translate(36.7012 197.221) rotate(18.87)"/>
</clipPath>
<clipPath id="clip3_1280_6551">
<rect width="20" height="19.8531" fill="white" transform="translate(70.292) rotate(18.87)"/>
</clipPath>
<clipPath id="clip4_1280_6551">
<rect width="51" height="52.2449" fill="white" transform="translate(56.7744 39.5496) rotate(18.87)"/>
</clipPath>
</defs>
</svg>
