<svg width="128" height="214" viewBox="0 0 128 214" fill="none" xmlns="http://www.w3.org/2000/svg">
<g clip-path="url(#clip0_1280_6535)">
<path d="M29.0926 96.7813C26.8397 97.1925 23.9396 97.6288 23.304 100.018C22.9825 101.183 23.1337 102.346 23.2925 103.567C24.2854 111.658 25.2201 119.757 26.2206 127.906C26.576 130.639 27.0198 133.598 29.0366 135.464C31.7182 137.895 35.8471 137.358 39.3642 136.664C39.7713 136.611 40.1708 136.5 40.4895 136.222C40.8588 135.879 40.8995 135.282 40.9553 134.802C41.5169 127.75 40.4199 120.678 39.3305 113.664C38.7733 109.834 38.1655 106.069 37.6083 102.238C37.4495 101.017 36.9196 98.3065 36.3032 97.2039C35.0778 95.0569 31.3455 96.3701 29.0926 96.7813Z" fill="#24252D"/>
<path d="M51.8658 75.9015C52.6983 86.8519 51.8103 88.2092 47.3529 94.4068C45.6555 96.8156 43.455 98.9941 42.5159 101.777C41.878 103.694 41.7937 105.774 41.8258 107.84C41.9289 115.455 42.9194 123.073 44.7596 130.404C45.1004 131.66 45.4488 132.975 46.4346 133.734C47.3621 134.501 48.6136 134.574 49.7994 134.598C59.4826 134.935 69.2624 134.196 78.7973 132.483C79.4876 132.334 80.2436 132.236 80.8379 131.804C82.8965 130.353 81.927 126.99 80.7447 124.719C83.1214 124.351 85.0515 121.912 84.9008 119.389C84.7978 117.687 84.1261 115.705 85.2694 114.492C87.6647 111.992 87.8861 108.238 86.9085 106.177C85.9966 104.166 85.3621 103.835 85.2417 101.544C85.1637 100.49 85.4929 99.3827 85.4074 98.2702C85.2695 95.3904 82.7269 93.119 80.0396 92.4631C77.3523 91.8071 74.5254 92.3521 71.8881 92.9907C69.1927 93.6369 66.4391 94.2906 63.7163 93.8167C63.2941 93.7533 62.8062 93.6394 62.5282 93.3207C62.1113 92.8427 62.0787 92.1373 62.1118 91.4825C62.3461 87.3715 63.0607 83.3164 62.7058 79.223C62.351 75.1295 60.7371 70.9041 57.3222 68.7461C56.162 68.0099 54.7413 67.5441 53.4922 67.9431C52.243 68.342 51.2614 69.889 51.7843 71.1811L51.8658 75.9015Z" fill="#24252D"/>
</g>
<g clip-path="url(#clip1_1280_6535)">
<path d="M89.6783 22.0479C88.5545 21.8305 87.1249 21.5073 86.3953 22.5044C86.034 22.9888 85.8934 23.5578 85.7457 24.1553C84.7395 28.1032 83.7049 32.0441 82.6918 36.0204C82.3612 37.3577 82.0309 38.8158 82.6313 40.0511C83.4388 41.6697 85.459 42.1691 87.2227 42.4844C87.4219 42.5336 87.6281 42.5544 87.827 42.4828C88.0613 42.3898 88.1885 42.1193 88.3017 41.9057C89.843 38.7242 90.6157 35.2318 91.3815 31.768C91.8172 29.883 92.2175 28.0196 92.6533 26.1346C92.801 25.5371 93.0462 24.1788 92.9593 23.5534C92.7783 22.3312 90.802 22.2654 89.6783 22.0479Z" fill="#24252D"/>
<path d="M104.072 16.4583C102.472 21.7086 101.812 22.1795 98.6119 24.2565C97.3843 25.0701 95.9642 25.6852 95.0217 26.8108C94.3769 27.5873 93.96 28.541 93.6 29.5087C92.2659 33.0736 91.3445 36.8009 90.871 40.5483C90.8016 41.1954 90.7252 41.8709 91.0464 42.4032C91.3393 42.9285 91.9087 43.19 92.4566 43.416C96.9045 45.3307 101.593 46.7614 106.344 47.6944C106.692 47.7503 107.062 47.8417 107.417 47.7484C108.639 47.4466 108.798 45.7046 108.66 44.4325C109.833 44.6925 111.175 43.907 111.563 42.7046C111.823 41.8936 111.87 40.8485 112.623 40.4911C114.192 39.7619 114.977 38.0538 114.895 36.9166C114.836 35.8149 114.6 35.5454 114.96 34.4569C115.115 33.9518 115.469 33.4959 115.631 32.9623C116.09 31.5963 115.318 30.0771 114.186 29.2839C113.053 28.4907 111.638 28.2314 110.294 28.0501C108.922 27.8618 107.521 27.6665 106.339 26.9516C106.154 26.8455 105.947 26.7039 105.876 26.505C105.768 26.2067 105.881 25.8723 106.015 25.5734C106.871 23.7016 107.939 21.943 108.517 19.9724C109.095 18.0018 109.11 15.7413 107.912 14.1165C107.505 13.5632 106.928 13.0884 106.274 13.0475C105.62 13.0065 104.882 13.5487 104.891 14.2453L104.072 16.4583Z" fill="#24252D"/>
</g>
<g clip-path="url(#clip2_1280_6535)">
<path d="M76.9086 196.943C76.1862 197.206 75.251 197.513 75.1735 198.334C75.1319 198.735 75.2465 199.108 75.3669 199.501C76.1449 202.102 76.9041 204.71 77.6878 207.33C77.9572 208.208 78.2684 209.155 79.0393 209.654C80.0614 210.301 81.3975 209.89 82.5224 209.463C82.6541 209.423 82.7801 209.364 82.8701 209.255C82.9732 209.121 82.9535 208.922 82.9453 208.761C82.7393 206.413 81.9835 204.152 81.2334 201.91C80.8362 200.683 80.426 199.48 80.0288 198.254C79.9084 197.861 79.5826 197.001 79.3174 196.674C78.7927 196.038 77.631 196.68 76.9086 196.943Z" fill="#24252D"/>
<path d="M83.2824 188.795C84.1662 192.345 83.9479 192.841 82.8177 195.129C82.39 196.017 81.7831 196.857 81.6271 197.824C81.5225 198.49 81.6103 199.178 81.7356 199.855C82.1928 202.351 82.9438 204.798 83.9598 207.101C84.1424 207.495 84.3307 207.907 84.6989 208.101C85.0484 208.3 85.4665 208.253 85.86 208.194C89.0821 207.757 92.2762 206.96 95.3352 205.858C95.5553 205.77 95.7999 205.695 95.9725 205.519C96.5729 204.926 96.0654 203.876 95.5481 203.197C96.3139 202.942 96.8168 202.031 96.6268 201.211C96.4982 200.658 96.1658 200.044 96.4766 199.581C97.1301 198.624 96.9948 197.378 96.5569 196.757C96.1435 196.148 95.9152 196.075 95.7481 195.329C95.6638 194.987 95.7111 194.605 95.621 194.244C95.4154 193.306 94.4481 192.704 93.5227 192.641C92.5972 192.577 91.6924 192.916 90.8554 193.275C89.9997 193.64 89.1251 194.011 88.198 194.009C88.0549 194.012 87.8871 194.002 87.7775 193.914C87.613 193.78 87.563 193.55 87.5376 193.333C87.3867 191.97 87.3977 190.597 87.0529 189.272C86.7081 187.948 85.9395 186.651 84.6899 186.135C84.2652 185.959 83.7693 185.887 83.3783 186.088C82.9872 186.29 82.7485 186.854 82.9932 187.249L83.2824 188.795Z" fill="#24252D"/>
</g>
<defs>
<clipPath id="clip0_1280_6535">
<rect width="63.159" height="67.3813" fill="white" transform="translate(19.0225 72.5435) rotate(-7.4084)"/>
</clipPath>
<clipPath id="clip1_1280_6535">
<rect width="31.566" height="33.6763" fill="white" transform="translate(89.3877 8.93335) rotate(13.8854)"/>
</clipPath>
<clipPath id="clip2_1280_6535">
<rect width="21.1997" height="22.4468" fill="white" transform="translate(72.2305 189.551) rotate(-17.0635)"/>
</clipPath>
</defs>
</svg>
