<svg width="73" height="121" viewBox="0 0 73 121" fill="none" xmlns="http://www.w3.org/2000/svg">
<g clip-path="url(#clip0_1280_11210)">
<path d="M16.8233 54.9866C15.5612 55.217 13.9364 55.4614 13.5803 56.7999C13.4001 57.4528 13.4849 58.1044 13.5738 58.7886C14.1301 63.3216 14.6538 67.8587 15.2143 72.4243C15.4134 73.9556 15.662 75.613 16.792 76.6588C18.2943 78.0206 20.6075 77.7198 22.578 77.3311C22.8061 77.3014 23.0299 77.2392 23.2085 77.0835C23.4153 76.8909 23.4381 76.5566 23.4694 76.2875C23.784 72.3371 23.1695 68.3749 22.5591 64.4454C22.2469 62.2993 21.9064 60.19 21.5942 58.0439C21.5053 57.3597 21.2084 55.8411 20.863 55.2234C20.1765 54.0205 18.0855 54.7563 16.8233 54.9866Z" fill="#24252D"/>
<path d="M29.5823 43.2888C30.0487 49.4237 29.5512 50.1842 27.0539 53.6564C26.1029 55.0059 24.8701 56.2264 24.344 57.7858C23.9866 58.8593 23.9394 60.0251 23.9573 61.1823C24.0151 65.4488 24.5701 69.7169 25.601 73.8237C25.792 74.5277 25.9872 75.2644 26.5394 75.6895C27.0591 76.1189 27.7602 76.1603 28.4246 76.1733C33.8496 76.3625 39.3287 75.9482 44.6706 74.9886C45.0574 74.9052 45.4809 74.8501 45.8139 74.608C46.9672 73.7954 46.4241 71.9113 45.7617 70.639C47.0932 70.4327 48.1746 69.0663 48.0901 67.6526C48.0324 66.6993 47.6561 65.5886 48.2966 64.909C49.6386 63.5086 49.7627 61.4052 49.215 60.2505C48.7041 59.1242 48.3486 58.9385 48.2811 57.6551C48.2375 57.0645 48.4218 56.4441 48.3739 55.8208C48.2967 54.2074 46.8722 52.9349 45.3666 52.5674C43.8611 52.1999 42.2773 52.5053 40.7998 52.863C39.2897 53.225 37.747 53.5913 36.2215 53.3258C35.985 53.2903 35.7116 53.2264 35.5559 53.0479C35.3223 52.7801 35.304 52.3849 35.3226 52.018C35.4538 49.7149 35.8542 47.443 35.6554 45.1496C35.4566 42.8563 34.5524 40.489 32.6392 39.28C31.9892 38.8675 31.1933 38.6065 30.4934 38.8301C29.7936 39.0536 29.2437 39.9203 29.5366 40.6442L29.5823 43.2888Z" fill="#24252D"/>
</g>
<g clip-path="url(#clip1_1280_11210)">
<path d="M50.767 13.117C50.1374 12.9952 49.3364 12.8141 48.9277 13.3728C48.7253 13.6441 48.6465 13.9629 48.5637 14.2977C48.0001 16.5095 47.4204 18.7174 46.8528 20.9451C46.6676 21.6943 46.4826 22.5112 46.8189 23.2033C47.2713 24.1102 48.4031 24.3899 49.3913 24.5666C49.5029 24.5941 49.6184 24.6058 49.7298 24.5657C49.8611 24.5135 49.9324 24.362 49.9958 24.2424C50.8593 22.4599 51.2922 20.5033 51.7212 18.5627C51.9653 17.5067 52.1896 16.4626 52.4337 15.4066C52.5165 15.0719 52.6539 14.3108 52.6052 13.9605C52.5038 13.2757 51.3965 13.2388 50.767 13.117Z" fill="#24252D"/>
<path d="M58.8313 9.9853C57.935 12.9268 57.5653 13.1906 55.7722 14.3543C55.0845 14.8101 54.2889 15.1547 53.7608 15.7853C53.3996 16.2204 53.166 16.7546 52.9643 17.2968C52.2169 19.294 51.7007 21.3823 51.4354 23.4818C51.3965 23.8443 51.3537 24.2228 51.5337 24.521C51.6977 24.8152 52.0167 24.9618 52.3237 25.0884C54.8157 26.1611 57.4423 26.9627 60.104 27.4853C60.2992 27.5167 60.5065 27.5679 60.7055 27.5156C61.39 27.3465 61.479 26.3706 61.4015 25.6579C62.059 25.8035 62.8105 25.3635 63.0278 24.6898C63.174 24.2354 63.2003 23.6499 63.6219 23.4497C64.501 23.0412 64.9406 22.0842 64.8951 21.4471C64.8616 20.8299 64.7298 20.6789 64.9313 20.069C65.0181 19.786 65.2166 19.5306 65.3074 19.2317C65.5643 18.4664 65.1319 17.6152 64.4975 17.1709C63.8631 16.7265 63.0702 16.5812 62.3172 16.4797C61.5483 16.3742 60.7635 16.2647 60.1013 15.8642C59.9976 15.8047 59.8819 15.7254 59.8418 15.614C59.7816 15.4469 59.8448 15.2595 59.92 15.0921C60.3992 14.0434 60.9979 13.0581 61.3216 11.9541C61.6453 10.8501 61.6539 9.5836 60.9824 8.67336C60.7546 8.36332 60.4313 8.09734 60.0649 8.07441C59.6984 8.05147 59.285 8.35524 59.29 8.74552L58.8313 9.9853Z" fill="#24252D"/>
</g>
<g clip-path="url(#clip2_1280_11210)">
<path d="M43.6118 111.102C43.2071 111.249 42.6831 111.422 42.6397 111.881C42.6164 112.106 42.6806 112.315 42.7481 112.535C43.1839 113.993 43.6093 115.454 44.0483 116.922C44.1993 117.413 44.3736 117.944 44.8055 118.223C45.3782 118.586 46.1267 118.356 46.7569 118.117C46.8307 118.094 46.9013 118.061 46.9517 118C47.0095 117.925 46.9984 117.814 46.9938 117.724C46.8784 116.408 46.455 115.141 46.0348 113.885C45.8122 113.197 45.5824 112.524 45.3599 111.837C45.2925 111.617 45.1099 111.135 44.9613 110.951C44.6674 110.595 44.0165 110.955 43.6118 111.102Z" fill="#24252D"/>
<path d="M47.1825 106.537C47.6777 108.526 47.5554 108.804 46.9222 110.086C46.6826 110.583 46.3426 111.054 46.2551 111.596C46.1966 111.969 46.2457 112.354 46.3159 112.734C46.5721 114.132 46.9928 115.503 47.562 116.793C47.6643 117.014 47.7698 117.245 47.9761 117.353C48.1719 117.465 48.4061 117.439 48.6266 117.405C50.4318 117.16 52.2213 116.714 53.9351 116.097C54.0584 116.047 54.1955 116.005 54.2922 115.907C54.6286 115.575 54.3442 114.986 54.0544 114.606C54.4834 114.463 54.7652 113.953 54.6587 113.493C54.5867 113.183 54.4005 112.84 54.5746 112.58C54.9407 112.044 54.8649 111.346 54.6196 110.998C54.388 110.657 54.2601 110.616 54.1664 110.198C54.1192 110.006 54.1457 109.792 54.0952 109.59C53.98 109.065 53.4381 108.727 52.9196 108.692C52.4012 108.656 51.8942 108.846 51.4253 109.047C50.9459 109.252 50.4559 109.459 49.9365 109.458C49.8563 109.46 49.7623 109.455 49.7009 109.405C49.6087 109.33 49.5807 109.201 49.5665 109.08C49.4819 108.316 49.4882 107.547 49.295 106.805C49.1018 106.062 48.6711 105.336 47.9711 105.047C47.7331 104.948 47.4553 104.908 47.2362 105.021C47.0172 105.134 46.8834 105.45 47.0205 105.671L47.1825 106.537Z" fill="#24252D"/>
</g>
<defs>
<clipPath id="clip0_1280_11210">
<rect width="35.3848" height="37.7504" fill="white" transform="translate(11.1816 41.4075) rotate(-7.4084)"/>
</clipPath>
<clipPath id="clip1_1280_11210">
<rect width="17.6849" height="18.8671" fill="white" transform="translate(50.6045 5.76978) rotate(13.8854)"/>
</clipPath>
<clipPath id="clip2_1280_11210">
<rect width="11.8772" height="12.5758" fill="white" transform="translate(40.9902 106.961) rotate(-17.0635)"/>
</clipPath>
</defs>
</svg>
