<svg width="88" height="133" viewBox="0 0 88 133" fill="none" xmlns="http://www.w3.org/2000/svg">
<g clip-path="url(#clip0_1280_11226)">
<path d="M51.6916 81.7311C53.1692 79.494 54.411 78.9674 54.7282 79.0599C55.5664 79.3147 55.6547 82.7845 55.8206 83.1424C55.9253 83.3684 58.2236 84.4551 58.4584 84.789C58.9105 85.419 58.1984 86.1267 57.5202 86.5131C56.8421 86.8995 56.2745 87.0066 55.7875 87.6327C55.1132 88.496 55.4004 91.1619 54.5864 91.7238C53.7724 92.2857 52.9207 90.6948 52.5345 90.1824C52.2192 89.7735 51.8118 89.1904 51.3364 89.0279C50.3857 88.703 48.487 90.3524 47.447 89.4897C46.8058 88.9694 48.9305 86.0816 48.9208 85.2223C48.8994 84.0421 47.5771 82.9402 47.8682 82.0887C48.1942 81.0905 51.6916 81.7311 51.6916 81.7311Z" fill="black"/>
<path d="M51.9814 74.1457C47.4375 74.4037 43.2207 77.5387 41.9394 82.1638C40.669 86.8121 42.6781 91.7245 46.2174 94.57C47.9344 95.9553 50.12 96.9554 52.364 96.963C54.7935 96.9755 56.668 95.4351 58.5461 93.9934C62.086 91.2502 66.1787 85.7944 63.7426 81.145C62.587 78.939 60.3992 77.1786 58.3891 75.8295C57.2953 75.0857 56.0533 74.447 54.7533 74.1973C53.8231 74.0157 52.9391 74.3562 52.0484 74.1686C51.718 74.0947 51.5392 74.6177 51.8697 74.6917C52.5532 74.828 52.9216 74.6813 53.6421 74.6549C54.6892 74.6039 55.7334 74.9997 56.6639 75.4541C58.5753 76.38 60.3966 77.8983 61.8625 79.4703C63.3284 81.0424 64.2311 82.9477 63.8392 85.1896C63.4203 87.6753 61.9623 90.0785 60.2186 91.8388C59.3928 92.6665 58.4735 93.3844 57.5374 94.0965C56.5845 94.8029 55.6473 95.5731 54.5588 96.019C52.4668 96.8813 50.0879 96.2824 48.1955 95.2461C44.4778 93.1965 41.8149 88.9369 42.0923 84.4555C42.4199 79.1149 46.8471 74.9808 51.9259 74.6915C52.2694 74.6726 52.3248 74.1268 51.9814 74.1457Z" fill="black"/>
<path d="M57.8927 82.3776C58.2954 81.9115 58.7483 81.4627 59.1894 81.0487C59.4416 80.8038 59.1119 80.3991 58.8429 80.6382C58.3792 81.0639 57.9489 81.501 57.5463 81.9671C57.3276 82.2234 57.6681 82.6513 57.8927 82.3776Z" fill="black"/>
<path d="M50.9344 79.5126C50.5868 79.1601 50.256 78.8134 49.9084 78.4609C49.6711 78.224 49.248 78.5857 49.502 78.8283C49.8496 79.1808 50.1804 79.5275 50.528 79.88C50.782 80.1226 51.1884 79.7552 50.9344 79.5126Z" fill="black"/>
<path d="M47.2982 85.2216C46.7305 84.9107 46.1468 85.1396 45.5589 84.9971C45.2285 84.9231 45.0497 85.4462 45.3802 85.5202C45.8842 85.634 46.5182 85.4223 46.9913 85.6814C47.2919 85.8426 47.5988 85.3827 47.2982 85.2216Z" fill="black"/>
<path d="M50.687 90.6451C50.5477 91.1622 50.4587 91.6965 50.4032 92.2423C50.3738 92.6022 50.9076 92.6289 50.937 92.2689C50.9746 91.7755 51.0625 91.2992 51.1899 90.817C51.2863 90.48 50.7834 90.3081 50.687 90.6451Z" fill="black"/>
<path d="M57.1285 88.7767C57.5733 89.3377 58.0934 89.7881 58.6767 90.1627C58.9714 90.3413 59.2783 89.8815 58.9837 89.7029C58.4279 89.3571 57.9413 88.9182 57.5349 88.4093C57.3263 88.1433 56.9031 88.505 57.1285 88.7767Z" fill="black"/>
</g>
<g clip-path="url(#clip1_1280_11226)">
<path d="M21.5858 85.5282C22.7261 83.8085 23.6868 83.4053 23.9327 83.4772C24.5822 83.6748 24.6567 86.3461 24.7858 86.6219C24.8673 86.7961 26.649 87.6367 26.8314 87.8941C27.1826 88.38 26.6324 88.9235 26.1079 89.2198C25.5835 89.516 25.1442 89.5975 24.7681 90.0786C24.2475 90.742 24.4745 92.7949 23.8452 93.226C23.2159 93.6571 22.5534 92.4309 22.2535 92.0358C22.0086 91.7204 21.6921 91.2708 21.3237 91.1449C20.5868 90.893 19.1194 92.1595 18.3126 91.4935C17.815 91.0918 19.4553 88.8724 19.4463 88.2109C19.4277 87.3023 18.4017 86.4517 18.6256 85.7967C18.8763 85.0288 21.5858 85.5282 21.5858 85.5282Z" fill="black"/>
<path d="M21.7966 79.6896C18.2782 79.8802 15.0183 82.2862 14.0343 85.8445C13.0586 89.4207 14.6232 93.206 17.369 95.4028C18.7011 96.4722 20.3954 97.246 22.1331 97.2558C24.0146 97.2697 25.4634 96.0872 26.9153 94.9807C29.6518 92.8751 32.8114 88.6823 30.9168 85.0987C30.018 83.3984 28.3206 82.0393 26.7616 80.9972C25.9133 80.4226 24.9504 79.9287 23.9432 79.7343C23.2225 79.5928 22.5386 79.8534 21.8485 79.7074C21.5925 79.6498 21.455 80.0522 21.711 80.1098C22.2406 80.2159 22.5256 80.1036 23.0835 80.0845C23.8943 80.0471 24.7036 80.3537 25.425 80.7051C26.9068 81.4213 28.3199 82.5933 29.4579 83.8061C30.5958 85.019 31.2982 86.4873 30.9987 88.2125C30.6787 90.1253 29.5539 91.9728 28.2067 93.3249C27.5686 93.9607 26.858 94.5117 26.1343 95.0582C25.3977 95.6004 24.6733 96.1916 23.8311 96.5329C22.2126 97.1931 20.3693 96.7278 18.902 95.9267C16.0194 94.3423 13.9498 91.0584 14.1567 87.609C14.4009 83.4982 17.822 80.3234 21.7546 80.1097C22.0205 80.0957 22.0625 79.6757 21.7966 79.6896Z" fill="black"/>
<path d="M26.3896 86.0366C26.7006 85.6785 27.0506 85.3337 27.3914 85.0158C27.5862 84.8278 27.3302 84.5156 27.1224 84.6992C26.764 85.0261 26.4316 85.3618 26.1206 85.7199C25.9517 85.9168 26.2161 86.2469 26.3896 86.0366Z" fill="black"/>
<path d="M20.9944 83.8187C20.7246 83.5468 20.4679 83.2793 20.1981 83.0073C20.0139 82.8245 19.6868 83.1022 19.884 83.2894C20.1538 83.5614 20.4106 83.8289 20.6804 84.1009C20.8775 84.2881 21.1916 84.006 20.9944 83.8187Z" fill="black"/>
<path d="M18.1906 88.2073C17.7504 87.967 17.2988 88.1422 16.8433 88.0314C16.5873 87.9739 16.4498 88.3763 16.7058 88.4338C17.0963 88.5223 17.5869 88.3605 17.9537 88.5607C18.1868 88.6853 18.4237 88.3319 18.1906 88.2073Z" fill="black"/>
<path d="M20.8237 92.3885C20.7167 92.7864 20.6487 93.1975 20.6067 93.6176C20.5846 93.8946 20.998 93.9161 21.0201 93.639C21.0484 93.2592 21.1156 92.8927 21.2134 92.5217C21.2875 92.2624 20.8978 92.1292 20.8237 92.3885Z" fill="black"/>
<path d="M25.8089 90.9615C26.1543 91.3942 26.5578 91.7418 27.0102 92.0312C27.2387 92.1693 27.4756 91.8158 27.2471 91.6778C26.8161 91.4106 26.4386 91.0719 26.1229 90.6794C25.9609 90.4742 25.6338 90.7519 25.8089 90.9615Z" fill="black"/>
</g>
<g clip-path="url(#clip2_1280_11226)">
<path d="M23.9019 116.047C24.6299 114.96 25.2471 114.708 25.4056 114.754C25.8246 114.882 25.8822 116.578 25.9663 116.753C26.0195 116.864 27.1698 117.404 27.2882 117.568C27.5161 117.877 27.1638 118.22 26.8271 118.406C26.4905 118.593 26.2079 118.643 25.9675 118.947C25.6346 119.366 25.7883 120.669 25.3846 120.94C24.9809 121.212 24.5499 120.431 24.3554 120.179C24.1965 119.978 23.9911 119.692 23.7534 119.611C23.278 119.448 22.3377 120.247 21.8157 119.821C21.4939 119.564 22.5421 118.162 22.5339 117.742C22.5186 117.165 21.8549 116.622 21.9967 116.207C22.1553 115.721 23.9019 116.047 23.9019 116.047Z" fill="black"/>
<path d="M24.0179 112.343C21.7531 112.452 19.6627 113.967 19.0419 116.221C18.4266 118.487 19.4477 120.894 21.2238 122.298C22.0854 122.982 23.1792 123.479 24.2982 123.492C25.5098 123.507 26.4385 122.762 27.3694 122.065C29.1238 120.739 31.1432 118.09 29.9102 115.809C29.3253 114.727 28.2274 113.858 27.2198 113.191C26.6715 112.823 26.0496 112.506 25.4004 112.379C24.9358 112.287 24.4963 112.45 24.0515 112.355C23.8864 112.317 23.7993 112.572 23.9644 112.61C24.3058 112.679 24.4889 112.609 24.848 112.599C25.37 112.578 25.8922 112.775 26.3581 113.001C27.3148 113.461 28.229 114.21 28.9661 114.983C29.7033 115.757 30.1609 116.691 29.9743 117.785C29.7751 118.998 29.0575 120.166 28.1949 121.019C27.7864 121.42 27.3308 121.767 26.8668 122.112C26.3944 122.453 25.93 122.825 25.389 123.039C24.3492 123.452 23.1606 123.15 22.2129 122.636C20.3509 121.621 19.0063 119.529 19.1271 117.341C19.2695 114.733 21.4609 112.731 23.9924 112.61C24.1636 112.602 24.1891 112.335 24.0179 112.343Z" fill="black"/>
<path d="M26.997 116.388C27.196 116.161 27.4201 115.944 27.6384 115.743C27.7632 115.625 27.5972 115.426 27.464 115.542C27.2344 115.748 27.0216 115.96 26.8226 116.186C26.7146 116.31 26.8861 116.52 26.997 116.388Z" fill="black"/>
<path d="M23.5169 114.961C23.3422 114.787 23.1759 114.617 23.0012 114.443C22.8819 114.326 22.6724 114.501 22.8 114.621C22.9747 114.794 23.141 114.965 23.3157 115.139C23.4434 115.258 23.6446 115.08 23.5169 114.961Z" fill="black"/>
<path d="M21.7254 117.736C21.441 117.582 21.1509 117.691 20.8572 117.619C20.6921 117.582 20.605 117.837 20.7701 117.874C21.0219 117.932 21.3372 117.831 21.5741 117.959C21.7247 118.039 21.8759 117.816 21.7254 117.736Z" fill="black"/>
<path d="M23.4364 120.398C23.3689 120.651 23.3266 120.911 23.3011 121.178C23.2879 121.353 23.5542 121.368 23.5674 121.193C23.5842 120.952 23.6262 120.719 23.6878 120.484C23.7346 120.32 23.4832 120.234 23.4364 120.398Z" fill="black"/>
<path d="M26.6411 119.511C26.8651 119.787 27.1262 120.009 27.4186 120.194C27.5662 120.282 27.7175 120.059 27.5698 119.971C27.2913 119.799 27.047 119.583 26.8423 119.333C26.7373 119.202 26.5277 119.377 26.6411 119.511Z" fill="black"/>
</g>
<g clip-path="url(#clip3_1280_11226)">
<path d="M42.7222 5.55431C43.4502 4.46721 44.0674 4.21482 44.2259 4.26129C44.6449 4.38905 44.7025 6.08446 44.7866 6.25993C44.8398 6.37076 45.9901 6.91065 46.1085 7.07467C46.3364 7.38423 45.9841 7.72714 45.6474 7.91325C45.3108 8.09935 45.0282 8.14948 44.7878 8.45343C44.4549 8.87249 44.6086 10.176 44.2049 10.4473C43.8012 10.7186 43.3702 9.93807 43.1757 9.68624C43.0168 9.48523 42.8114 9.19879 42.5737 9.11755C42.0983 8.95507 41.158 9.7534 40.636 9.32788C40.3142 9.07116 41.3624 7.66876 41.3542 7.24895C41.3389 6.67229 40.6752 6.12884 40.817 5.71397C40.9756 5.22764 42.7222 5.55431 42.7222 5.55431Z" fill="black"/>
<path d="M42.8373 1.84994C40.5724 1.95813 38.482 3.47309 37.8612 5.72754C37.2459 7.99335 38.2671 10.4011 40.0432 11.805C40.9048 12.4885 41.9986 12.9857 43.1176 12.9981C44.3291 13.0138 45.2578 12.2686 46.1887 11.5717C47.9432 10.2455 49.9626 7.59628 48.7296 5.3154C48.1447 4.23319 47.0468 3.36461 46.0391 2.69764C45.4908 2.32998 44.869 2.01309 44.2197 1.88604C43.7551 1.79367 43.3157 1.95654 42.8708 1.8614C42.7057 1.82396 42.6186 2.0788 42.7837 2.11624C43.1251 2.1855 43.3082 2.11527 43.6674 2.10521C44.1893 2.08438 44.7116 2.28185 45.1774 2.50747C46.1342 2.96731 47.0483 3.71616 47.7855 4.4899C48.5226 5.26363 48.9802 6.19797 48.7936 7.29162C48.5944 8.50429 47.8769 9.67259 47.0143 10.5257C46.6057 10.9268 46.1501 11.2739 45.6861 11.6181C45.2137 11.9595 44.7494 12.332 44.2083 12.5456C43.1685 12.9586 41.9799 12.6567 41.0322 12.1431C39.1703 11.1272 37.8257 9.03586 37.9464 6.84767C38.0888 4.23998 40.2803 2.23776 42.8117 2.11634C42.9829 2.10845 43.0085 1.84205 42.8373 1.84994Z" fill="black"/>
<path d="M45.8164 5.89487C46.0153 5.66877 46.2394 5.45128 46.4577 5.25077C46.5825 5.13214 46.4165 4.9331 46.2834 5.04886C46.0538 5.255 45.8409 5.46687 45.642 5.69296C45.5339 5.81732 45.7054 6.02772 45.8164 5.89487Z" fill="black"/>
<path d="M42.3363 4.46739C42.1616 4.29384 41.9952 4.12314 41.8205 3.94959C41.7013 3.83293 41.4917 4.00796 41.6193 4.12748C41.794 4.30103 41.9603 4.47172 42.1351 4.64528C42.2627 4.7648 42.4639 4.58691 42.3363 4.46739Z" fill="black"/>
<path d="M40.5447 7.24251C40.2604 7.08841 39.9702 7.19794 39.6765 7.12602C39.5115 7.08858 39.4244 7.34342 39.5894 7.38086C39.8412 7.43846 40.1565 7.33752 40.3934 7.46594C40.544 7.54585 40.6952 7.32242 40.5447 7.24251Z" fill="black"/>
<path d="M42.2557 9.90505C42.1883 10.1571 42.146 10.4178 42.1205 10.6842C42.1072 10.8599 42.3735 10.875 42.3867 10.6993C42.4036 10.4584 42.4455 10.2261 42.5072 9.991C42.5539 9.82673 42.3025 9.74079 42.2557 9.90505Z" fill="black"/>
<path d="M45.4614 9.01742C45.6854 9.29321 45.9465 9.51527 46.2389 9.70058C46.3865 9.78899 46.5378 9.56556 46.3902 9.47715C46.1116 9.30607 45.8673 9.08974 45.6627 8.83953C45.5576 8.70875 45.348 8.88377 45.4614 9.01742Z" fill="black"/>
</g>
<g clip-path="url(#clip4_1280_11226)">
<path d="M39.7193 36.1569C41.6091 33.2872 43.1945 32.6098 43.599 32.7277C44.6678 33.0524 44.7729 37.4981 44.9837 37.9562C45.1169 38.2456 48.0466 39.6331 48.3454 40.0603C48.9208 40.8666 48.0108 41.7749 47.1448 42.2715C46.2788 42.768 45.5546 42.9066 44.9319 43.7098C44.0698 44.8174 44.4304 48.2327 43.3908 48.9544C42.3511 49.6761 41.2679 47.6395 40.7765 46.9838C40.3751 46.4605 39.8565 45.7143 39.2504 45.5071C38.0382 45.0928 35.6125 47.2104 34.2876 46.1072C33.4707 45.4419 36.1874 41.7371 36.1769 40.6362C36.1523 39.124 34.4677 37.715 34.8409 36.6233C35.2589 35.3436 39.7193 36.1569 39.7193 36.1569Z" fill="black"/>
<path d="M40.1067 26.4368C34.3093 26.7771 28.9231 30.8032 27.2785 36.7322C25.6477 42.6909 28.2002 48.9809 32.7093 52.6192C34.8967 54.3904 37.6828 55.6673 40.5456 55.6721C43.645 55.6828 46.0396 53.7051 48.4388 51.8538C52.9607 48.3313 58.1935 41.3318 55.0959 35.3798C53.6264 32.5557 50.8391 30.3048 48.2776 28.5804C46.8839 27.6297 45.3008 26.814 43.6428 26.497C42.4565 26.2663 41.3281 26.7045 40.1922 26.466C39.7708 26.3719 39.5416 27.0426 39.963 27.1367C40.8347 27.3098 41.305 27.121 42.2242 27.0857C43.5602 27.018 44.8914 27.5229 46.0776 28.1031C48.514 29.2854 50.8342 31.2269 52.7009 33.238C54.5676 35.2491 55.7151 37.6885 55.2104 40.5619C54.6705 43.7477 52.8054 46.8302 50.5771 49.0894C49.5218 50.1518 48.3474 51.0736 47.1516 51.9881C45.9345 52.8953 44.7372 53.8841 43.3476 54.4577C40.6769 55.5671 37.6434 54.8049 35.2314 53.4812C30.4929 50.863 27.105 45.4109 27.4685 39.6682C27.898 32.8245 33.5548 27.5179 40.0347 27.1362C40.4729 27.1112 40.5449 26.4118 40.1067 26.4368Z" fill="black"/>
<path d="M47.629 36.9721C48.1437 36.3741 48.7226 35.798 49.2861 35.2666C49.6084 34.9524 49.1886 34.4344 48.845 34.7414C48.2525 35.2878 47.7026 35.8489 47.1879 36.4469C46.9084 36.7758 47.3419 37.3234 47.629 36.9721Z" fill="black"/>
<path d="M38.7576 33.3158C38.3149 32.865 37.8937 32.4214 37.451 31.9705C37.1488 31.6675 36.6082 32.1318 36.9318 32.4421C37.3744 32.893 37.7957 33.3366 38.2383 33.7875C38.5619 34.0978 39.0812 33.6262 38.7576 33.3158Z" fill="black"/>
<path d="M34.1062 40.6387C33.3826 40.2416 32.6375 40.5362 31.8878 40.3549C31.4665 40.2608 31.2373 40.9314 31.6586 41.0255C32.3014 41.1703 33.1107 40.8977 33.7137 41.2286C34.0968 41.4344 34.4894 40.8446 34.1062 40.6387Z" fill="black"/>
<path d="M38.419 47.5802C38.2402 48.2431 38.1255 48.9279 38.0535 49.6273C38.0152 50.0886 38.6961 50.1216 38.7344 49.6603C38.7835 49.028 38.8966 48.4175 39.0602 47.7994C39.184 47.3673 38.5428 47.1482 38.419 47.5802Z" fill="black"/>
<path d="M46.641 45.1725C47.2072 45.8903 47.8697 46.4662 48.6131 46.945C48.9886 47.1733 49.3812 46.5834 49.0057 46.3552C48.2973 45.9134 47.6776 45.352 47.1602 44.7008C46.8947 44.3604 46.354 44.8247 46.641 45.1725Z" fill="black"/>
</g>
<defs>
<clipPath id="clip0_1280_11226">
<rect width="22.41" height="22.8308" fill="white" transform="translate(45.7256 71.0337) rotate(18.87)"/>
</clipPath>
<clipPath id="clip1_1280_11226">
<rect width="17.3678" height="17.5621" fill="white" transform="translate(16.9473 77.2822) rotate(18.87)"/>
</clipPath>
<clipPath id="clip2_1280_11226">
<rect width="11.205" height="11.1227" fill="white" transform="translate(20.8857 110.798) rotate(18.87)"/>
</clipPath>
<clipPath id="clip3_1280_11226">
<rect width="11.205" height="11.1227" fill="white" transform="translate(39.7051 0.305176) rotate(18.87)"/>
</clipPath>
<clipPath id="clip4_1280_11226">
<rect width="28.5728" height="29.2702" fill="white" transform="translate(32.1318 22.4629) rotate(18.87)"/>
</clipPath>
</defs>
</svg>
