<svg width="103" height="204" viewBox="0 0 103 204" fill="none" xmlns="http://www.w3.org/2000/svg">
<g clip-path="url(#clip0_1119_6609)">
<path d="M15.713 96.0871C13.5315 96.784 10.7113 97.5888 10.3876 100.04C10.2182 101.237 10.5175 102.371 10.8316 103.561C12.8546 111.458 14.8208 119.37 16.8587 127.323C17.5619 129.988 18.3817 132.865 20.6214 134.457C23.5927 136.524 27.6186 135.462 31.0176 134.322C31.4145 134.218 31.7965 134.056 32.0769 133.74C32.399 133.351 32.3628 132.754 32.3565 132.271C32.0086 125.206 30.0132 118.333 28.0327 111.517C26.9885 107.789 25.9026 104.134 24.8585 100.406C24.5443 99.2155 23.671 96.5953 22.9181 95.5809C21.4274 93.6089 17.8945 95.3902 15.713 96.0871Z" fill="#24252D"/>
<path d="M35.6186 72.4579C37.8494 83.2109 37.1429 84.671 33.5177 91.3893C32.1434 93.996 30.2406 96.4389 29.6664 99.3197C29.2797 101.302 29.4631 103.376 29.76 105.421C30.8395 112.96 32.7994 120.388 35.5651 127.421C36.0643 128.624 36.5785 129.883 37.6535 130.509C38.6718 131.15 39.9224 131.063 41.1013 130.934C50.7478 130.026 60.3519 128.038 69.5881 125.116C70.2536 124.879 70.9907 124.685 71.5247 124.18C73.3802 122.478 71.9871 119.267 70.5231 117.166C72.833 116.496 74.4341 113.83 73.9609 111.347C73.6404 109.672 72.7198 107.792 73.698 106.443C75.7527 103.656 75.4906 99.9045 74.2566 97.9861C73.0943 96.1094 72.4225 95.862 72.0091 93.6058C71.7965 92.5701 71.9808 91.4298 71.7532 90.3375C71.2469 87.4992 68.4339 85.5728 65.6847 85.2672C62.9354 84.9615 60.2018 85.8648 57.6683 86.8365C55.0781 87.8232 52.4312 88.8249 49.6701 88.7043C49.2432 88.6956 48.7447 88.6452 48.4281 88.3648C47.9533 87.9443 47.8304 87.2489 47.7793 86.5952C47.4841 82.4882 47.6724 78.375 46.7952 74.3609C45.918 70.3468 43.7752 66.3634 40.1117 64.6614C38.8666 64.0802 37.3979 63.8006 36.2103 64.3566C35.0226 64.9125 34.2477 66.5726 34.932 67.787L35.6186 72.4579Z" fill="#24252D"/>
</g>
<g clip-path="url(#clip1_1119_6609)">
<path d="M66.2077 14.197C65.0654 14.1256 63.6061 13.9885 63.0105 15.071C62.7144 15.5977 62.6479 16.1801 62.5781 16.7916C62.0869 20.836 61.5665 24.877 61.072 28.9505C60.9158 30.3191 60.7753 31.8076 61.5293 32.9556C62.5378 34.4572 64.6053 34.6933 66.395 34.7796C66.5988 34.8028 66.806 34.797 66.994 34.7005C67.2144 34.5781 67.3059 34.2936 67.3908 34.0673C68.511 30.7142 68.8293 27.1516 69.1441 23.6181C69.3344 21.6928 69.4923 19.7934 69.6826 17.8681C69.7524 17.2566 69.8213 15.878 69.6548 15.269C69.3185 14.0801 67.35 14.2684 66.2077 14.197Z" fill="#24252D"/>
<path d="M79.7659 6.80641C78.853 12.2186 78.259 12.7703 75.3515 15.2408C74.2385 16.2053 72.909 16.9975 72.1188 18.2347C71.5789 19.0876 71.2879 20.0869 71.055 21.0928C70.1894 24.7994 69.7539 28.6141 69.7652 32.3913C69.7794 33.042 69.7903 33.7217 70.1772 34.2084C70.5351 34.6917 71.1333 34.878 71.7057 35.0318C76.3625 36.3599 81.1957 37.1772 86.0271 37.4928C86.3798 37.5035 86.7584 37.5467 87.0987 37.4086C88.2717 36.9525 88.2058 35.2045 87.9053 33.9607C89.1025 34.0679 90.3321 33.1168 90.5624 31.8746C90.717 31.0368 90.6295 29.9943 91.33 29.5433C92.7925 28.6187 93.3514 26.8241 93.125 25.7067C92.9243 24.6219 92.6564 24.3848 92.8734 23.2591C92.9624 22.7382 93.2552 22.2407 93.3474 21.6907C93.6268 20.2771 92.6665 18.8695 91.4418 18.2282C90.217 17.5869 88.7801 17.5113 87.424 17.504C86.0387 17.4934 84.6243 17.4794 83.3605 16.9221C83.1633 16.8406 82.9403 16.7267 82.8438 16.5387C82.699 16.2566 82.768 15.9105 82.8628 15.5968C83.4707 13.6308 84.305 11.7495 84.625 9.72111C84.9451 7.69268 84.6703 5.44883 83.2732 3.99136C82.7989 3.49472 82.1657 3.09794 81.5118 3.14128C80.8578 3.18463 80.1956 3.81702 80.2939 4.50673L79.7659 6.80641Z" fill="#24252D"/>
</g>
<g clip-path="url(#clip2_1119_6609)">
<path d="M75.9868 189.285C75.3041 189.638 74.4161 190.063 74.4446 190.887C74.4548 191.29 74.6164 191.646 74.7861 192.019C75.8915 194.5 76.979 196.988 78.0925 199.486C78.4724 200.322 78.9024 201.221 79.731 201.617C80.8277 202.128 82.1001 201.549 83.1609 200.982C83.2863 200.925 83.4037 200.85 83.4789 200.73C83.5639 200.584 83.519 200.39 83.4902 200.231C82.9845 197.929 81.9448 195.783 80.9132 193.656C80.3619 192.49 79.8007 191.35 79.2494 190.184C79.0797 189.811 78.6461 188.999 78.3411 188.709C77.7392 188.145 76.6696 188.932 75.9868 189.285Z" fill="#24252D"/>
<path d="M81.2621 180.386C82.5941 183.794 82.4413 184.314 81.6141 186.728C81.3038 187.663 80.8097 188.574 80.7791 189.554C80.7609 190.227 80.9362 190.899 81.1474 191.554C81.9211 193.97 82.9798 196.3 84.283 198.455C84.5146 198.821 84.7542 199.206 85.1443 199.351C85.5164 199.504 85.925 199.404 86.3077 199.294C89.447 198.447 92.5125 197.247 95.4048 195.761C95.6118 195.646 95.8447 195.54 95.9934 195.344C96.5127 194.679 95.8746 193.703 95.2745 193.095C96.0011 192.744 96.3831 191.776 96.0894 190.987C95.8908 190.455 95.4825 189.89 95.7313 189.39C96.2567 188.358 95.9626 187.139 95.4485 186.579C94.9604 186.028 94.7247 185.985 94.4632 185.267C94.3357 184.939 94.3336 184.554 94.198 184.207C93.8736 183.303 92.8371 182.83 91.9112 182.886C90.9852 182.942 90.1314 183.394 89.3474 183.858C88.5456 184.33 87.7258 184.809 86.8062 184.927C86.6646 184.948 86.497 184.96 86.3768 184.886C86.1965 184.775 86.1175 184.553 86.0644 184.341C85.7398 183.008 85.5746 181.645 85.0627 180.376C84.5507 179.106 83.622 177.919 82.3166 177.568C81.8728 177.448 81.3718 177.44 81.0098 177.69C80.6479 177.94 80.4834 178.53 80.7768 178.89L81.2621 180.386Z" fill="#24252D"/>
</g>
<defs>
<clipPath id="clip0_1119_6609">
<rect x="2.61548" y="73.342" width="63.159" height="67.3813" transform="rotate(-14.7811 2.61548 73.342)" fill="white"/>
</clipPath>
<clipPath id="clip1_1119_6609">
<rect x="64.2368" y="1.22827" width="31.566" height="33.6763" transform="rotate(6.51272 64.2368 1.22827)" fill="white"/>
</clipPath>
<clipPath id="clip2_1119_6609">
<rect x="70.3989" y="182.554" width="21.1997" height="22.4468" transform="rotate(-24.4362 70.3989 182.554)" fill="white"/>
</clipPath>
</defs>
</svg>
